<?xml version="1.0" encoding="UTF-8" standalone="no"?>
<!DOCTYPE svg PUBLIC "-//W3C//DTD SVG 1.1//EN"
 "http://www.w3.org/Graphics/SVG/1.1/DTD/svg11.dtd">
<!-- Generated by graphviz version 2.38.0 (20140413.2041)
 -->
<!-- Title: Modules/Example/src/BenchmarkTask.cxx Pages: 1 -->
<!--zoomable 386 -->
<svg id="main" version="1.1" xmlns="http://www.w3.org/2000/svg" xmlns:xlink="http://www.w3.org/1999/xlink" xml:space="preserve" onload="init(evt)">
<style type="text/css"><![CDATA[
.edge:hover path { stroke: red; }
.edge:hover polygon { stroke: red; fill: red; }
]]></style>
<script type="text/javascript"><![CDATA[
var edges = document.getElementsByTagName('g');
if (edges && edges.length) {
  for (var i=0;i<edges.length;i++) {
    if (edges[i].id.substr(0,4)=='edge') {
      edges[i].setAttribute('class','edge');
    }
  }
}
]]></script>
        <defs>
                <circle id="rim" cx="0" cy="0" r="7"/>
                <circle id="rim2" cx="0" cy="0" r="3.5"/>
                <g id="zoomPlus">
                        <use xlink:href="#rim" fill="#404040">
                                <set attributeName="fill" to="#808080" begin="zoomplus.mouseover" end="zoomplus.mouseout"/>
                        </use>
                        <path d="M-4,0h8M0,-4v8" fill="none" stroke="white" stroke-width="1.5" pointer-events="none"/>
                </g>
                <g id="zoomMin">
                        <use xlink:href="#rim" fill="#404040">
                                <set attributeName="fill" to="#808080" begin="zoomminus.mouseover" end="zoomminus.mouseout"/>
                        </use>
                        <path d="M-4,0h8" fill="none" stroke="white" stroke-width="1.5" pointer-events="none"/>
                </g>
                <g id="dirArrow">
                        <path fill="none" stroke="white" stroke-width="1.5" d="M0,-3.0v7 M-2.5,-0.5L0,-3.0L2.5,-0.5"/>
                </g>
               <g id="resetDef">
                       <use xlink:href="#rim2" fill="#404040">
                               <set attributeName="fill" to="#808080" begin="reset.mouseover" end="reset.mouseout"/>
                       </use>
               </g>
        </defs>

<script type="text/javascript">
var viewWidth = 1407;
var viewHeight = 386;
var sectionId = 'dynsection-0';
</script>
<script xlink:href="svgpan.js"/>
<svg id="graph" class="graph">
<g id="viewport">
<title>Modules/Example/src/BenchmarkTask.cxx</title>
<!-- Node1 -->
<g id="node1" class="node"><title>Node1</title>
<polygon fill="#bfbfbf" stroke="black" points="1123,-347.5 1123,-377.5 1234,-377.5 1234,-347.5 1123,-347.5"/>
<text text-anchor="start" x="1131" y="-365.5" font-family="Helvetica,sans-Serif" font-size="10.00">Modules/Example/src</text>
<text text-anchor="middle" x="1178.5" y="-354.5" font-family="Helvetica,sans-Serif" font-size="10.00">/BenchmarkTask.cxx</text>
</g>
<!-- Node2 -->
<g id="node2" class="node"><title>Node2</title>
<g id="a_node2"><a xlink:href="BenchmarkTask_8h.html" target="_top" xlink:title="Example/BenchmarkTask.h">
<polygon fill="none" stroke="black" points="734,-286 734,-305 871,-305 871,-286 734,-286"/>
<text text-anchor="middle" x="802.5" y="-293" font-family="Helvetica,sans-Serif" font-size="10.00">Example/BenchmarkTask.h</text>
</a>
</g>
</g>
<!-- Node1&#45;&gt;Node2 -->
<g id="edge1" class="edge"><title>Node1&#45;&gt;Node2</title>
<path fill="none" stroke="midnightblue" d="M1122.79,-352.412C1062.7,-342.535 964.234,-326.132 879.5,-311 872.144,-309.686 864.4,-308.269 856.773,-306.853"/>
<polygon fill="midnightblue" stroke="midnightblue" points="857.329,-303.396 846.856,-305 856.043,-310.277 857.329,-303.396"/>
</g>
<!-- Node19 -->
<g id="node19" class="node"><title>Node19</title>
<polygon fill="none" stroke="#bfbfbf" points="889,-280.5 889,-310.5 1024,-310.5 1024,-280.5 889,-280.5"/>
<text text-anchor="start" x="897" y="-298.5" font-family="Helvetica,sans-Serif" font-size="10.00">Configuration/Configuration</text>
<text text-anchor="middle" x="956.5" y="-287.5" font-family="Helvetica,sans-Serif" font-size="10.00">Factory.h</text>
</g>
<!-- Node1&#45;&gt;Node19 -->
<g id="edge29" class="edge"><title>Node1&#45;&gt;Node19</title>
<path fill="none" stroke="midnightblue" d="M1130.6,-347.476C1096.58,-337.515 1050.72,-324.086 1014.6,-313.512"/>
<polygon fill="midnightblue" stroke="midnightblue" points="1015.27,-310.062 1004.69,-310.611 1013.31,-316.78 1015.27,-310.062"/>
</g>
<!-- Node20 -->
<g id="node20" class="node"><title>Node20</title>
<g id="a_node20"><a xlink:href="QcInfoLogger_8h.html" target="_top" xlink:title="QualityControl/QcInfoLogger.h">
<polygon fill="none" stroke="black" points="1042,-286 1042,-305 1191,-305 1191,-286 1042,-286"/>
<text text-anchor="middle" x="1116.5" y="-293" font-family="Helvetica,sans-Serif" font-size="10.00">QualityControl/QcInfoLogger.h</text>
</a>
</g>
</g>
<!-- Node1&#45;&gt;Node20 -->
<g id="edge30" class="edge"><title>Node1&#45;&gt;Node20</title>
<path fill="none" stroke="midnightblue" d="M1165.05,-347.396C1155.28,-337.161 1142.06,-323.296 1131.88,-312.622"/>
<polygon fill="midnightblue" stroke="midnightblue" points="1134.23,-310.015 1124.79,-305.195 1129.16,-314.846 1134.23,-310.015"/>
</g>
<!-- Node22 -->
<g id="node22" class="node"><title>Node22</title>
<polygon fill="none" stroke="#bfbfbf" points="1209,-286 1209,-305 1274,-305 1274,-286 1209,-286"/>
<text text-anchor="middle" x="1241.5" y="-293" font-family="Helvetica,sans-Serif" font-size="10.00">TCanvas.h</text>
</g>
<!-- Node1&#45;&gt;Node22 -->
<g id="edge32" class="edge"><title>Node1&#45;&gt;Node22</title>
<path fill="none" stroke="midnightblue" d="M1192.17,-347.396C1202.09,-337.161 1215.53,-323.296 1225.87,-312.622"/>
<polygon fill="midnightblue" stroke="midnightblue" points="1228.63,-314.811 1233.07,-305.195 1223.6,-309.939 1228.63,-314.811"/>
</g>
<!-- Node23 -->
<g id="node23" class="node"><title>Node23</title>
<polygon fill="none" stroke="#bfbfbf" points="1292.5,-286 1292.5,-305 1336.5,-305 1336.5,-286 1292.5,-286"/>
<text text-anchor="middle" x="1314.5" y="-293" font-family="Helvetica,sans-Serif" font-size="10.00">TH1.h</text>
</g>
<!-- Node1&#45;&gt;Node23 -->
<g id="edge33" class="edge"><title>Node1&#45;&gt;Node23</title>
<path fill="none" stroke="midnightblue" d="M1208.01,-347.396C1231.66,-336.092 1264.58,-320.361 1287.53,-309.39"/>
<polygon fill="midnightblue" stroke="midnightblue" points="1289.19,-312.477 1296.7,-305.007 1286.17,-306.161 1289.19,-312.477"/>
</g>
<!-- Node24 -->
<g id="node24" class="node"><title>Node24</title>
<polygon fill="none" stroke="#bfbfbf" points="1354.5,-286 1354.5,-305 1398.5,-305 1398.5,-286 1354.5,-286"/>
<text text-anchor="middle" x="1376.5" y="-293" font-family="Helvetica,sans-Serif" font-size="10.00">thread</text>
</g>
<!-- Node1&#45;&gt;Node24 -->
<g id="edge34" class="edge"><title>Node1&#45;&gt;Node24</title>
<path fill="none" stroke="midnightblue" d="M1231.81,-347.494C1264.93,-338.273 1308.16,-325.293 1345.5,-311 1346.92,-310.456 1348.37,-309.875 1349.82,-309.271"/>
<polygon fill="midnightblue" stroke="midnightblue" points="1351.58,-312.321 1359.31,-305.076 1348.75,-305.919 1351.58,-312.321"/>
</g>
<!-- Node3 -->
<g id="node3" class="node"><title>Node3</title>
<g id="a_node3"><a xlink:href="TaskInterface_8h.html" target="_top" xlink:title="QualityControl/TaskInterface.h">
<polygon fill="none" stroke="black" points="548.5,-224.5 548.5,-243.5 698.5,-243.5 698.5,-224.5 548.5,-224.5"/>
<text text-anchor="middle" x="623.5" y="-231.5" font-family="Helvetica,sans-Serif" font-size="10.00">QualityControl/TaskInterface.h</text>
</a>
</g>
</g>
<!-- Node2&#45;&gt;Node3 -->
<g id="edge2" class="edge"><title>Node2&#45;&gt;Node3</title>
<path fill="none" stroke="midnightblue" d="M776.854,-285.975C745.883,-275.68 693.627,-258.31 658.849,-246.75"/>
<polygon fill="midnightblue" stroke="midnightblue" points="659.692,-243.342 649.099,-243.509 657.484,-249.985 659.692,-243.342"/>
</g>
<!-- Node5 -->
<g id="node5" class="node"><title>Node5</title>
<polygon fill="none" stroke="#bfbfbf" points="671.5,-112.5 671.5,-131.5 723.5,-131.5 723.5,-112.5 671.5,-112.5"/>
<text text-anchor="middle" x="697.5" y="-119.5" font-family="Helvetica,sans-Serif" font-size="10.00">memory</text>
</g>
<!-- Node2&#45;&gt;Node5 -->
<g id="edge27" class="edge"><title>Node2&#45;&gt;Node5</title>
<path fill="none" stroke="midnightblue" d="M805.826,-285.812C810.541,-272.048 817.639,-244.672 808.5,-224 790.971,-184.352 749.34,-153.577 722.34,-136.89"/>
<polygon fill="midnightblue" stroke="midnightblue" points="723.843,-133.71 713.464,-131.583 720.251,-139.719 723.843,-133.71"/>
</g>
<!-- Node6 -->
<g id="node6" class="node"><title>Node6</title>
<polygon fill="none" stroke="#bfbfbf" points="502,-0.5 502,-19.5 543,-19.5 543,-0.5 502,-0.5"/>
<text text-anchor="middle" x="522.5" y="-7.5" font-family="Helvetica,sans-Serif" font-size="10.00">string</text>
</g>
<!-- Node2&#45;&gt;Node6 -->
<g id="edge28" class="edge"><title>Node2&#45;&gt;Node6</title>
<path fill="none" stroke="midnightblue" d="M811.26,-285.818C828.571,-267.689 865.5,-223.769 865.5,-179 865.5,-179 865.5,-179 865.5,-121 865.5,-55.7066 637.28,-23.7426 553.158,-14.1784"/>
<polygon fill="midnightblue" stroke="midnightblue" points="553.508,-10.696 543.184,-13.0733 552.737,-17.6534 553.508,-10.696"/>
</g>
<!-- Node18 -->
<g id="node18" class="node"><title>Node18</title>
<polygon fill="none" stroke="#bfbfbf" points="755.5,-224.5 755.5,-243.5 799.5,-243.5 799.5,-224.5 755.5,-224.5"/>
<text text-anchor="middle" x="777.5" y="-231.5" font-family="Helvetica,sans-Serif" font-size="10.00">vector</text>
</g>
<!-- Node2&#45;&gt;Node18 -->
<g id="edge26" class="edge"><title>Node2&#45;&gt;Node18</title>
<path fill="none" stroke="midnightblue" d="M798.918,-285.975C795.317,-277.404 789.654,-263.927 785.056,-252.983"/>
<polygon fill="midnightblue" stroke="midnightblue" points="788.176,-251.373 781.075,-243.509 781.722,-254.084 788.176,-251.373"/>
</g>
<!-- Node4 -->
<g id="node4" class="node"><title>Node4</title>
<polygon fill="none" stroke="#bfbfbf" points="0,-56.5 0,-75.5 35,-75.5 35,-56.5 0,-56.5"/>
<text text-anchor="middle" x="17.5" y="-63.5" font-family="Helvetica,sans-Serif" font-size="10.00">map</text>
</g>
<!-- Node3&#45;&gt;Node4 -->
<g id="edge3" class="edge"><title>Node3&#45;&gt;Node4</title>
<path fill="none" stroke="midnightblue" d="M548.22,-231.809C401.666,-228.812 89.0479,-218.844 51.5,-188 21.108,-163.034 16.6583,-113.238 16.686,-85.9554"/>
<polygon fill="midnightblue" stroke="midnightblue" points="20.189,-85.8535 16.9094,-75.779 13.1907,-85.6998 20.189,-85.8535"/>
</g>
<!-- Node3&#45;&gt;Node5 -->
<g id="edge4" class="edge"><title>Node3&#45;&gt;Node5</title>
<path fill="none" stroke="midnightblue" d="M647.289,-224.401C663.291,-217.269 683.267,-205.447 693.5,-188 701.633,-174.133 701.966,-155.618 700.654,-141.896"/>
<polygon fill="midnightblue" stroke="midnightblue" points="704.086,-141.157 699.3,-131.704 697.147,-142.078 704.086,-141.157"/>
</g>
<!-- Node3&#45;&gt;Node6 -->
<g id="edge5" class="edge"><title>Node3&#45;&gt;Node6</title>
<path fill="none" stroke="midnightblue" d="M667.341,-224.472C689.702,-217.997 715.662,-206.861 732.5,-188 755.488,-162.25 755.943,-145.706 748.5,-112 742.583,-85.2049 743.859,-73.2272 722.5,-56 696.691,-35.1839 602.5,-20.8305 553.143,-14.5596"/>
<polygon fill="midnightblue" stroke="midnightblue" points="553.401,-11.0649 543.047,-13.3104 552.542,-18.0119 553.401,-11.0649"/>
</g>
<!-- Node7 -->
<g id="node7" class="node"><title>Node7</title>
<polygon fill="none" stroke="#bfbfbf" points="631,-56.5 631,-75.5 714,-75.5 714,-56.5 631,-56.5"/>
<text text-anchor="middle" x="672.5" y="-63.5" font-family="Helvetica,sans-Serif" font-size="10.00">unordered_map</text>
</g>
<!-- Node3&#45;&gt;Node7 -->
<g id="edge6" class="edge"><title>Node3&#45;&gt;Node7</title>
<path fill="none" stroke="midnightblue" d="M652.307,-224.394C671.396,-217.366 695.736,-205.67 711.5,-188 729.195,-168.165 727.757,-158.155 732.5,-132 734.086,-123.254 736.475,-119.95 732.5,-112 725.772,-98.5432 712.894,-88.0665 700.788,-80.6212"/>
<polygon fill="midnightblue" stroke="midnightblue" points="702.221,-77.4101 691.796,-75.5195 698.767,-83.4985 702.221,-77.4101"/>
</g>
<!-- Node8 -->
<g id="node8" class="node"><title>Node8</title>
<polygon fill="none" stroke="#bfbfbf" points="240,-168.5 240,-187.5 365,-187.5 365,-168.5 240,-168.5"/>
<text text-anchor="middle" x="302.5" y="-175.5" font-family="Helvetica,sans-Serif" font-size="10.00">Framework/InitContext.h</text>
</g>
<!-- Node3&#45;&gt;Node8 -->
<g id="edge7" class="edge"><title>Node3&#45;&gt;Node8</title>
<path fill="none" stroke="midnightblue" d="M572.637,-224.444C515.817,-214.885 423.883,-199.419 363.31,-189.23"/>
<polygon fill="midnightblue" stroke="midnightblue" points="363.568,-185.724 353.125,-187.516 362.406,-192.627 363.568,-185.724"/>
</g>
<!-- Node9 -->
<g id="node9" class="node"><title>Node9</title>
<polygon fill="none" stroke="#bfbfbf" points="383.5,-168.5 383.5,-187.5 543.5,-187.5 543.5,-168.5 383.5,-168.5"/>
<text text-anchor="middle" x="463.5" y="-175.5" font-family="Helvetica,sans-Serif" font-size="10.00">Framework/ProcessingContext.h</text>
</g>
<!-- Node3&#45;&gt;Node9 -->
<g id="edge8" class="edge"><title>Node3&#45;&gt;Node9</title>
<path fill="none" stroke="midnightblue" d="M598.148,-224.444C571.231,-215.359 528.504,-200.939 498.413,-190.783"/>
<polygon fill="midnightblue" stroke="midnightblue" points="499.328,-187.398 488.734,-187.516 497.09,-194.031 499.328,-187.398"/>
</g>
<!-- Node10 -->
<g id="node10" class="node"><title>Node10</title>
<g id="a_node10"><a xlink:href="Activity_8h.html" target="_top" xlink:title="QualityControl/Activity.h">
<polygon fill="none" stroke="black" points="562,-168.5 562,-187.5 685,-187.5 685,-168.5 562,-168.5"/>
<text text-anchor="middle" x="623.5" y="-175.5" font-family="Helvetica,sans-Serif" font-size="10.00">QualityControl/Activity.h</text>
</a>
</g>
</g>
<!-- Node3&#45;&gt;Node10 -->
<g id="edge9" class="edge"><title>Node3&#45;&gt;Node10</title>
<path fill="none" stroke="midnightblue" d="M623.5,-224.083C623.5,-217.006 623.5,-206.861 623.5,-197.986"/>
<polygon fill="midnightblue" stroke="midnightblue" points="627,-197.751 623.5,-187.751 620,-197.751 627,-197.751"/>
</g>
<!-- Node11 -->
<g id="node11" class="node"><title>Node11</title>
<g id="a_node11"><a xlink:href="ObjectsManager_8h.html" target="_top" xlink:title="QualityControl/ObjectsManager.h">
<polygon fill="none" stroke="black" points="61,-168.5 61,-187.5 222,-187.5 222,-168.5 61,-168.5"/>
<text text-anchor="middle" x="141.5" y="-175.5" font-family="Helvetica,sans-Serif" font-size="10.00">QualityControl/ObjectsManager.h</text>
</a>
</g>
</g>
<!-- Node3&#45;&gt;Node11 -->
<g id="edge10" class="edge"><title>Node3&#45;&gt;Node11</title>
<path fill="none" stroke="midnightblue" d="M548.452,-224.592C461.612,-214.863 318.889,-198.873 227.608,-188.647"/>
<polygon fill="midnightblue" stroke="midnightblue" points="227.892,-185.157 217.564,-187.522 227.113,-192.113 227.892,-185.157"/>
</g>
<!-- Node11&#45;&gt;Node5 -->
<g id="edge25" class="edge"><title>Node11&#45;&gt;Node5</title>
<path fill="none" stroke="midnightblue" d="M222.024,-168.793C224.884,-168.522 227.716,-168.257 230.5,-168 419.073,-150.61 470.772,-163.642 661.17,-131.956"/>
<polygon fill="midnightblue" stroke="midnightblue" points="661.949,-135.374 671.229,-130.262 660.786,-128.471 661.949,-135.374"/>
</g>
<!-- Node11&#45;&gt;Node6 -->
<g id="edge24" class="edge"><title>Node11&#45;&gt;Node6</title>
<path fill="none" stroke="midnightblue" d="M203.654,-168.45C272.459,-156.647 384.349,-130.331 465.5,-76 484.325,-63.3967 500.766,-43.0594 511.091,-28.4893"/>
<polygon fill="midnightblue" stroke="midnightblue" points="514.214,-30.1208 516.956,-19.8867 508.431,-26.1776 514.214,-30.1208"/>
</g>
<!-- Node12 -->
<g id="node12" class="node"><title>Node12</title>
<g id="a_node12"><a xlink:href="MonitorObject_8h.html" target="_top" xlink:title="QualityControl/MonitorObject.h">
<polygon fill="none" stroke="black" points="142,-112.5 142,-131.5 293,-131.5 293,-112.5 142,-112.5"/>
<text text-anchor="middle" x="217.5" y="-119.5" font-family="Helvetica,sans-Serif" font-size="10.00">QualityControl/MonitorObject.h</text>
</a>
</g>
</g>
<!-- Node11&#45;&gt;Node12 -->
<g id="edge11" class="edge"><title>Node11&#45;&gt;Node12</title>
<path fill="none" stroke="midnightblue" d="M153.711,-168.324C165.276,-160.107 182.875,-147.602 196.661,-137.807"/>
<polygon fill="midnightblue" stroke="midnightblue" points="198.943,-140.479 205.067,-131.834 194.888,-134.773 198.943,-140.479"/>
</g>
<!-- Node16 -->
<g id="node16" class="node"><title>Node16</title>
<g id="a_node16"><a xlink:href="Quality_8h.html" target="_top" xlink:title="QualityControl/Quality.h">
<polygon fill="none" stroke="black" points="53,-56.5 53,-75.5 174,-75.5 174,-56.5 53,-56.5"/>
<text text-anchor="middle" x="113.5" y="-63.5" font-family="Helvetica,sans-Serif" font-size="10.00">QualityControl/Quality.h</text>
</a>
</g>
</g>
<!-- Node11&#45;&gt;Node16 -->
<g id="edge20" class="edge"><title>Node11&#45;&gt;Node16</title>
<path fill="none" stroke="midnightblue" d="M139.303,-168.368C134.784,-150.617 124.361,-109.666 118.234,-85.5974"/>
<polygon fill="midnightblue" stroke="midnightblue" points="121.546,-84.419 115.687,-75.5914 114.762,-86.1458 121.546,-84.419"/>
</g>
<!-- Node17 -->
<g id="node17" class="node"><title>Node17</title>
<g id="a_node17"><a xlink:href="TaskConfig_8h.html" target="_top" xlink:title="QualityControl/TaskConfig.h">
<polygon fill="none" stroke="black" points="513.5,-112.5 513.5,-131.5 653.5,-131.5 653.5,-112.5 513.5,-112.5"/>
<text text-anchor="middle" x="583.5" y="-119.5" font-family="Helvetica,sans-Serif" font-size="10.00">QualityControl/TaskConfig.h</text>
</a>
</g>
</g>
<!-- Node11&#45;&gt;Node17 -->
<g id="edge21" class="edge"><title>Node11&#45;&gt;Node17</title>
<path fill="none" stroke="midnightblue" d="M211.536,-168.444C290.986,-158.737 420.297,-142.939 503.613,-132.76"/>
<polygon fill="midnightblue" stroke="midnightblue" points="504.29,-136.203 513.791,-131.516 503.441,-129.255 504.29,-136.203"/>
</g>
<!-- Node12&#45;&gt;Node4 -->
<g id="edge13" class="edge"><title>Node12&#45;&gt;Node4</title>
<path fill="none" stroke="midnightblue" d="M180.939,-112.448C147.638,-104.459 96.9268,-91.7958 44.8047,-76.2316"/>
<polygon fill="midnightblue" stroke="midnightblue" points="45.6446,-72.8292 35.0598,-73.2921 43.623,-79.531 45.6446,-72.8292"/>
</g>
<!-- Node12&#45;&gt;Node6 -->
<g id="edge12" class="edge"><title>Node12&#45;&gt;Node6</title>
<path fill="none" stroke="midnightblue" d="M293.152,-113.245C335.747,-106.937 389.13,-95.7131 433.5,-76 461.195,-63.6952 488.689,-41.7343 505.629,-26.7764"/>
<polygon fill="midnightblue" stroke="midnightblue" points="508.404,-28.9857 513.471,-19.6809 503.708,-23.7951 508.404,-28.9857"/>
</g>
<!-- Node13 -->
<g id="node13" class="node"><title>Node13</title>
<polygon fill="none" stroke="#bfbfbf" points="129.5,-0.5 129.5,-19.5 185.5,-19.5 185.5,-0.5 129.5,-0.5"/>
<text text-anchor="middle" x="157.5" y="-7.5" font-family="Helvetica,sans-Serif" font-size="10.00">Rtypes.h</text>
</g>
<!-- Node12&#45;&gt;Node13 -->
<g id="edge14" class="edge"><title>Node12&#45;&gt;Node13</title>
<path fill="none" stroke="midnightblue" d="M212.781,-112.149C206.092,-99.6216 193.448,-76.0152 182.5,-56 177.506,-46.8703 171.883,-36.7362 167.237,-28.4002"/>
<polygon fill="midnightblue" stroke="midnightblue" points="170.258,-26.6323 162.326,-19.6082 164.147,-30.0455 170.258,-26.6323"/>
</g>
<!-- Node14 -->
<g id="node14" class="node"><title>Node14</title>
<polygon fill="none" stroke="#bfbfbf" points="231,-56.5 231,-75.5 290,-75.5 290,-56.5 231,-56.5"/>
<text text-anchor="middle" x="260.5" y="-63.5" font-family="Helvetica,sans-Serif" font-size="10.00">TObject.h</text>
</g>
<!-- Node12&#45;&gt;Node14 -->
<g id="edge15" class="edge"><title>Node12&#45;&gt;Node14</title>
<path fill="none" stroke="midnightblue" d="M224.601,-112.083C230.737,-104.377 239.77,-93.0333 247.239,-83.6531"/>
<polygon fill="midnightblue" stroke="midnightblue" points="250.04,-85.7542 253.532,-75.7511 244.564,-81.3936 250.04,-85.7542"/>
</g>
<!-- Node15 -->
<g id="node15" class="node"><title>Node15</title>
<polygon fill="none" stroke="#bfbfbf" points="308.5,-56.5 308.5,-75.5 424.5,-75.5 424.5,-56.5 308.5,-56.5"/>
<text text-anchor="middle" x="366.5" y="-63.5" font-family="Helvetica,sans-Serif" font-size="10.00">Common/Exceptions.h</text>
</g>
<!-- Node12&#45;&gt;Node15 -->
<g id="edge16" class="edge"><title>Node12&#45;&gt;Node15</title>
<path fill="none" stroke="midnightblue" d="M241.109,-112.444C265.958,-103.438 305.274,-89.1891 333.254,-79.049"/>
<polygon fill="midnightblue" stroke="midnightblue" points="334.792,-82.2144 343.001,-75.5164 332.407,-75.6332 334.792,-82.2144"/>
</g>
<!-- Node12&#45;&gt;Node16 -->
<g id="edge17" class="edge"><title>Node12&#45;&gt;Node16</title>
<path fill="none" stroke="midnightblue" d="M200.791,-112.324C184.188,-103.703 158.498,-90.3643 139.28,-80.3855"/>
<polygon fill="midnightblue" stroke="midnightblue" points="140.656,-77.1565 130.168,-75.6545 137.43,-83.3689 140.656,-77.1565"/>
</g>
<!-- Node16&#45;&gt;Node6 -->
<g id="edge19" class="edge"><title>Node16&#45;&gt;Node6</title>
<path fill="none" stroke="midnightblue" d="M174.29,-56.974C263.006,-45.2609 424.685,-23.9145 491.912,-15.0385"/>
<polygon fill="midnightblue" stroke="midnightblue" points="492.409,-18.5034 501.865,-13.7245 491.493,-11.5636 492.409,-18.5034"/>
</g>
<!-- Node16&#45;&gt;Node13 -->
<g id="edge18" class="edge"><title>Node16&#45;&gt;Node13</title>
<path fill="none" stroke="midnightblue" d="M120.766,-56.083C127.045,-48.3768 136.288,-37.0333 143.931,-27.6531"/>
<polygon fill="midnightblue" stroke="midnightblue" points="146.766,-29.7143 150.369,-19.7511 141.339,-25.2926 146.766,-29.7143"/>
</g>
<!-- Node17&#45;&gt;Node6 -->
<g id="edge22" class="edge"><title>Node17&#45;&gt;Node6</title>
<path fill="none" stroke="midnightblue" d="M578.713,-112.368C568.736,-94.376 545.542,-52.5503 532.275,-28.6267"/>
<polygon fill="midnightblue" stroke="midnightblue" points="535.175,-26.6393 527.264,-19.5914 529.053,-30.0342 535.175,-26.6393"/>
</g>
<!-- Node17&#45;&gt;Node7 -->
<g id="edge23" class="edge"><title>Node17&#45;&gt;Node7</title>
<path fill="none" stroke="midnightblue" d="M597.799,-112.324C611.683,-103.9 632.992,-90.9709 649.304,-81.0741"/>
<polygon fill="midnightblue" stroke="midnightblue" points="651.502,-83.8341 658.236,-75.6545 647.871,-77.8495 651.502,-83.8341"/>
</g>
<!-- Node21 -->
<g id="node21" class="node"><title>Node21</title>
<polygon fill="none" stroke="#bfbfbf" points="1051.5,-224.5 1051.5,-243.5 1181.5,-243.5 1181.5,-224.5 1051.5,-224.5"/>
<text text-anchor="middle" x="1116.5" y="-231.5" font-family="Helvetica,sans-Serif" font-size="10.00">InfoLogger/InfoLogger.hxx</text>
</g>
<!-- Node20&#45;&gt;Node21 -->
<g id="edge31" class="edge"><title>Node20&#45;&gt;Node21</title>
<path fill="none" stroke="midnightblue" d="M1116.5,-285.975C1116.5,-277.58 1116.5,-264.481 1116.5,-253.663"/>
<polygon fill="midnightblue" stroke="midnightblue" points="1120,-253.509 1116.5,-243.509 1113,-253.509 1120,-253.509"/>
</g>
</g>
</svg>
        <g id="navigator" transform="translate(0 0)" fill="#404254">
                <rect fill="#f2f5e9" fill-opacity="0.5" stroke="#606060" stroke-width=".5" x="0" y="0" width="60" height="60"/>
                <use id="zoomplus" xlink:href="#zoomPlus" x="17" y="9" onmousedown="handleZoom(evt,'in')"/>
                <use id="zoomminus" xlink:href="#zoomMin" x="42" y="9" onmousedown="handleZoom(evt,'out')"/>
                <use id="reset" xlink:href="#resetDef" x="30" y="36" onmousedown="handleReset()"/>
                <g id="arrowUp" xlink:href="#dirArrow" transform="translate(30 24)" onmousedown="handlePan(0,-1)">
                  <use xlink:href="#rim" fill="#404040">
                        <set attributeName="fill" to="#808080" begin="arrowUp.mouseover" end="arrowUp.mouseout"/>
                  </use>
                  <path fill="none" stroke="white" stroke-width="1.5" d="M0,-3.0v7 M-2.5,-0.5L0,-3.0L2.5,-0.5"/>
                </g>
                <g id="arrowRight" xlink:href="#dirArrow" transform="rotate(90) translate(36 -43)" onmousedown="handlePan(1,0)">
                  <use xlink:href="#rim" fill="#404040">
                        <set attributeName="fill" to="#808080" begin="arrowRight.mouseover" end="arrowRight.mouseout"/>
                  </use>
                  <path fill="none" stroke="white" stroke-width="1.5" d="M0,-3.0v7 M-2.5,-0.5L0,-3.0L2.5,-0.5"/>
                </g>
                <g id="arrowDown" xlink:href="#dirArrow" transform="rotate(180) translate(-30 -48)" onmousedown="handlePan(0,1)">
                  <use xlink:href="#rim" fill="#404040">
                        <set attributeName="fill" to="#808080" begin="arrowDown.mouseover" end="arrowDown.mouseout"/>
                  </use>
                  <path fill="none" stroke="white" stroke-width="1.5" d="M0,-3.0v7 M-2.5,-0.5L0,-3.0L2.5,-0.5"/>
                </g>
                <g id="arrowLeft" xlink:href="#dirArrow" transform="rotate(270) translate(-36 17)" onmousedown="handlePan(-1,0)">
                  <use xlink:href="#rim" fill="#404040">
                        <set attributeName="fill" to="#808080" begin="arrowLeft.mouseover" end="arrowLeft.mouseout"/>
                  </use>
                  <path fill="none" stroke="white" stroke-width="1.5" d="M0,-3.0v7 M-2.5,-0.5L0,-3.0L2.5,-0.5"/>
                </g>
        </g>
        <svg viewBox="0 0 15 15" width="100%" height="30px" preserveAspectRatio="xMaxYMin meet">
         <g id="arrow_out" transform="scale(0.3 0.3)">
          <a xlink:href="BenchmarkTask_8cxx__incl_org.svg" target="_base">
           <rect id="button" ry="5" rx="5" y="6" x="6" height="38" width="38"
                fill="#f2f5e9" fill-opacity="0.5" stroke="#606060" stroke-width="1.0"/>
           <path id="arrow"
             d="M 11.500037,31.436501 C 11.940474,20.09759 22.043105,11.32322 32.158766,21.979434 L 37.068811,17.246167 C 37.068811,17.246167 37.088388,32 37.088388,32 L 22.160133,31.978069 C 22.160133,31.978069 26.997745,27.140456 26.997745,27.140456 C 18.528582,18.264221 13.291696,25.230495 11.500037,31.436501 z"
             style="fill:#404040;"/>
          </a>
         </g>
        </svg>
</svg>
