<?xml version="1.0" encoding="UTF-8" standalone="no"?>
<!DOCTYPE svg PUBLIC "-//W3C//DTD SVG 1.1//EN"
 "http://www.w3.org/Graphics/SVG/1.1/DTD/svg11.dtd">
<!-- Generated by graphviz version 2.38.0 (20140413.2041)
 -->
<!-- Title: Framework/src/CcdbDatabase.cxx Pages: 1 -->
<svg width="1957pt" height="308pt"
 viewBox="0.00 0.00 1956.56 308.00" xmlns="http://www.w3.org/2000/svg" xmlns:xlink="http://www.w3.org/1999/xlink">
<g id="graph0" class="graph" transform="scale(1 1) rotate(0) translate(4 304)">
<title>Framework/src/CcdbDatabase.cxx</title>
<!-- Node1 -->
<g id="node1" class="node"><title>Node1</title>
<polygon fill="#bfbfbf" stroke="black" points="1111.56,-280.5 1111.56,-299.5 1280.56,-299.5 1280.56,-280.5 1111.56,-280.5"/>
<text text-anchor="middle" x="1196.06" y="-287.5" font-family="Helvetica,sans-Serif" font-size="10.00">Framework/src/CcdbDatabase.cxx</text>
</g>
<!-- Node2 -->
<g id="node2" class="node"><title>Node2</title>
<g id="a_node2"><a xlink:href="CcdbDatabase_8h.html" target="_top" xlink:title="QualityControl/CcdbDatabase.h">
<polygon fill="none" stroke="black" points="202.565,-224.5 202.565,-243.5 357.565,-243.5 357.565,-224.5 202.565,-224.5"/>
<text text-anchor="middle" x="280.065" y="-231.5" font-family="Helvetica,sans-Serif" font-size="10.00">QualityControl/CcdbDatabase.h</text>
</a>
</g>
</g>
<!-- Node1&#45;&gt;Node2 -->
<g id="edge1" class="edge"><title>Node1&#45;&gt;Node2</title>
<path fill="none" stroke="midnightblue" d="M1111.53,-284.017C938.18,-273.797 543.964,-250.557 367.871,-240.176"/>
<polygon fill="midnightblue" stroke="midnightblue" points="368.055,-236.681 357.866,-239.587 367.643,-243.669 368.055,-236.681"/>
</g>
<!-- Node13 -->
<g id="node13" class="node"><title>Node13</title>
<polygon fill="none" stroke="#bfbfbf" points="439.065,-56.5 439.065,-75.5 555.065,-75.5 555.065,-56.5 439.065,-56.5"/>
<text text-anchor="middle" x="497.065" y="-63.5" font-family="Helvetica,sans-Serif" font-size="10.00">Common/Exceptions.h</text>
</g>
<!-- Node1&#45;&gt;Node13 -->
<g id="edge27" class="edge"><title>Node1&#45;&gt;Node13</title>
<path fill="none" stroke="midnightblue" d="M1111.31,-287.613C960.391,-284.384 657.333,-274.183 620.065,-244 572.526,-205.499 619.679,-159.446 581.065,-112 569.018,-97.1975 550.771,-86.598 534.358,-79.4193"/>
<polygon fill="midnightblue" stroke="midnightblue" points="535.548,-76.1247 524.967,-75.582 532.9,-82.6046 535.548,-76.1247"/>
</g>
<!-- Node16 -->
<g id="node16" class="node"><title>Node16</title>
<g id="a_node16"><a xlink:href="MonitorObject_8h.html" target="_top" xlink:title="QualityControl/MonitorObject.h">
<polygon fill="none" stroke="black" points="421.565,-112.5 421.565,-131.5 572.565,-131.5 572.565,-112.5 421.565,-112.5"/>
<text text-anchor="middle" x="497.065" y="-119.5" font-family="Helvetica,sans-Serif" font-size="10.00">QualityControl/MonitorObject.h</text>
</a>
</g>
</g>
<!-- Node1&#45;&gt;Node16 -->
<g id="edge23" class="edge"><title>Node1&#45;&gt;Node16</title>
<path fill="none" stroke="midnightblue" d="M1111.41,-286.632C954.851,-281.686 631.865,-268.621 587.065,-244 544.951,-220.855 516.96,-168.696 504.491,-141.027"/>
<polygon fill="midnightblue" stroke="midnightblue" points="507.654,-139.524 500.474,-131.733 501.228,-142.301 507.654,-139.524"/>
</g>
<!-- Node17 -->
<g id="node17" class="node"><title>Node17</title>
<polygon fill="none" stroke="#bfbfbf" points="629.565,-224.5 629.565,-243.5 752.565,-243.5 752.565,-224.5 629.565,-224.5"/>
<text text-anchor="middle" x="691.065" y="-231.5" font-family="Helvetica,sans-Serif" font-size="10.00">QualityControl/Version.h</text>
</g>
<!-- Node1&#45;&gt;Node17 -->
<g id="edge24" class="edge"><title>Node1&#45;&gt;Node17</title>
<path fill="none" stroke="midnightblue" d="M1111.18,-280.775C1025.87,-272.377 890.319,-258.676 762.593,-244.037"/>
<polygon fill="midnightblue" stroke="midnightblue" points="762.962,-240.556 752.628,-242.891 762.163,-247.51 762.962,-240.556"/>
</g>
<!-- Node18 -->
<g id="node18" class="node"><title>Node18</title>
<g id="a_node18"><a xlink:href="QcInfoLogger_8h.html" target="_top" xlink:title="QualityControl/QcInfoLogger.h">
<polygon fill="none" stroke="black" points="770.565,-224.5 770.565,-243.5 919.565,-243.5 919.565,-224.5 770.565,-224.5"/>
<text text-anchor="middle" x="845.065" y="-231.5" font-family="Helvetica,sans-Serif" font-size="10.00">QualityControl/QcInfoLogger.h</text>
</a>
</g>
</g>
<!-- Node1&#45;&gt;Node18 -->
<g id="edge25" class="edge"><title>Node1&#45;&gt;Node18</title>
<path fill="none" stroke="midnightblue" d="M1140.45,-280.444C1077.93,-270.826 976.544,-255.228 910.33,-245.041"/>
<polygon fill="midnightblue" stroke="midnightblue" points="910.837,-241.578 900.421,-243.516 909.773,-248.496 910.837,-241.578"/>
</g>
<!-- Node20 -->
<g id="node20" class="node"><title>Node20</title>
<polygon fill="none" stroke="#bfbfbf" points="937.065,-224.5 937.065,-243.5 1021.06,-243.5 1021.06,-224.5 937.065,-224.5"/>
<text text-anchor="middle" x="979.065" y="-231.5" font-family="Helvetica,sans-Serif" font-size="10.00">TBufferJSON.h</text>
</g>
<!-- Node1&#45;&gt;Node20 -->
<g id="edge28" class="edge"><title>Node1&#45;&gt;Node20</title>
<path fill="none" stroke="midnightblue" d="M1161.68,-280.444C1124.14,-271.102 1063.93,-256.119 1023,-245.933"/>
<polygon fill="midnightblue" stroke="midnightblue" points="1023.84,-242.535 1013.29,-243.516 1022.15,-249.328 1023.84,-242.535"/>
</g>
<!-- Node21 -->
<g id="node21" class="node"><title>Node21</title>
<polygon fill="none" stroke="#bfbfbf" points="1039.06,-224.5 1039.06,-243.5 1089.06,-243.5 1089.06,-224.5 1039.06,-224.5"/>
<text text-anchor="middle" x="1064.06" y="-231.5" font-family="Helvetica,sans-Serif" font-size="10.00">TH1F.h</text>
</g>
<!-- Node1&#45;&gt;Node21 -->
<g id="edge29" class="edge"><title>Node1&#45;&gt;Node21</title>
<path fill="none" stroke="midnightblue" d="M1175.15,-280.444C1153.33,-271.517 1118.91,-257.439 1094.17,-247.317"/>
<polygon fill="midnightblue" stroke="midnightblue" points="1095.46,-244.063 1084.88,-243.516 1092.81,-250.542 1095.46,-244.063"/>
</g>
<!-- Node22 -->
<g id="node22" class="node"><title>Node22</title>
<polygon fill="none" stroke="#bfbfbf" points="1107.56,-224.5 1107.56,-243.5 1154.56,-243.5 1154.56,-224.5 1107.56,-224.5"/>
<text text-anchor="middle" x="1131.06" y="-231.5" font-family="Helvetica,sans-Serif" font-size="10.00">TFile.h</text>
</g>
<!-- Node1&#45;&gt;Node22 -->
<g id="edge30" class="edge"><title>Node1&#45;&gt;Node22</title>
<path fill="none" stroke="midnightblue" d="M1185.62,-280.324C1175.92,-272.263 1161.25,-260.077 1149.56,-250.369"/>
<polygon fill="midnightblue" stroke="midnightblue" points="1151.63,-247.532 1141.7,-243.834 1147.15,-252.916 1151.63,-247.532"/>
</g>
<!-- Node23 -->
<g id="node23" class="node"><title>Node23</title>
<polygon fill="none" stroke="#bfbfbf" points="1172.56,-224.5 1172.56,-243.5 1219.56,-243.5 1219.56,-224.5 1172.56,-224.5"/>
<text text-anchor="middle" x="1196.06" y="-231.5" font-family="Helvetica,sans-Serif" font-size="10.00">TList.h</text>
</g>
<!-- Node1&#45;&gt;Node23 -->
<g id="edge31" class="edge"><title>Node1&#45;&gt;Node23</title>
<path fill="none" stroke="midnightblue" d="M1196.06,-280.083C1196.06,-273.006 1196.06,-262.861 1196.06,-253.986"/>
<polygon fill="midnightblue" stroke="midnightblue" points="1199.56,-253.751 1196.06,-243.751 1192.56,-253.751 1199.56,-253.751"/>
</g>
<!-- Node24 -->
<g id="node24" class="node"><title>Node24</title>
<polygon fill="none" stroke="#bfbfbf" points="1237.56,-224.5 1237.56,-243.5 1296.56,-243.5 1296.56,-224.5 1237.56,-224.5"/>
<text text-anchor="middle" x="1267.06" y="-231.5" font-family="Helvetica,sans-Serif" font-size="10.00">TROOT.h</text>
</g>
<!-- Node1&#45;&gt;Node24 -->
<g id="edge32" class="edge"><title>Node1&#45;&gt;Node24</title>
<path fill="none" stroke="midnightblue" d="M1207.47,-280.324C1218.17,-272.185 1234.41,-259.839 1247.23,-250.087"/>
<polygon fill="midnightblue" stroke="midnightblue" points="1249.61,-252.673 1255.45,-243.834 1245.37,-247.102 1249.61,-252.673"/>
</g>
<!-- Node25 -->
<g id="node25" class="node"><title>Node25</title>
<polygon fill="none" stroke="#bfbfbf" points="1315.06,-224.5 1315.06,-243.5 1363.06,-243.5 1363.06,-224.5 1315.06,-224.5"/>
<text text-anchor="middle" x="1339.06" y="-231.5" font-family="Helvetica,sans-Serif" font-size="10.00">TKey.h</text>
</g>
<!-- Node1&#45;&gt;Node25 -->
<g id="edge33" class="edge"><title>Node1&#45;&gt;Node25</title>
<path fill="none" stroke="midnightblue" d="M1218.72,-280.444C1242.47,-271.478 1279.97,-257.314 1306.8,-247.183"/>
<polygon fill="midnightblue" stroke="midnightblue" points="1308.39,-250.324 1316.51,-243.516 1305.92,-243.775 1308.39,-250.324"/>
</g>
<!-- Node26 -->
<g id="node26" class="node"><title>Node26</title>
<polygon fill="none" stroke="#bfbfbf" points="1381.56,-224.5 1381.56,-243.5 1468.56,-243.5 1468.56,-224.5 1381.56,-224.5"/>
<text text-anchor="middle" x="1425.06" y="-231.5" font-family="Helvetica,sans-Serif" font-size="10.00">TStreamerInfo.h</text>
</g>
<!-- Node1&#45;&gt;Node26 -->
<g id="edge34" class="edge"><title>Node1&#45;&gt;Node26</title>
<path fill="none" stroke="midnightblue" d="M1232.35,-280.444C1272.05,-271.083 1335.77,-256.056 1378.98,-245.868"/>
<polygon fill="midnightblue" stroke="midnightblue" points="1380.02,-249.218 1388.95,-243.516 1378.41,-242.405 1380.02,-249.218"/>
</g>
<!-- Node27 -->
<g id="node27" class="node"><title>Node27</title>
<polygon fill="none" stroke="#bfbfbf" points="1486.56,-224.5 1486.56,-243.5 1551.56,-243.5 1551.56,-224.5 1486.56,-224.5"/>
<text text-anchor="middle" x="1519.06" y="-231.5" font-family="Helvetica,sans-Serif" font-size="10.00">TSystem.h</text>
</g>
<!-- Node1&#45;&gt;Node27 -->
<g id="edge35" class="edge"><title>Node1&#45;&gt;Node27</title>
<path fill="none" stroke="midnightblue" d="M1255.93,-280.474C1310.9,-272.411 1394.84,-259.517 1476.48,-244.22"/>
<polygon fill="midnightblue" stroke="midnightblue" points="1477.25,-247.637 1486.43,-242.343 1475.95,-240.759 1477.25,-247.637"/>
</g>
<!-- Node28 -->
<g id="node28" class="node"><title>Node28</title>
<polygon fill="none" stroke="#bfbfbf" points="1570.06,-224.5 1570.06,-243.5 1616.06,-243.5 1616.06,-224.5 1570.06,-224.5"/>
<text text-anchor="middle" x="1593.06" y="-231.5" font-family="Helvetica,sans-Serif" font-size="10.00">chrono</text>
</g>
<!-- Node1&#45;&gt;Node28 -->
<g id="edge36" class="edge"><title>Node1&#45;&gt;Node28</title>
<path fill="none" stroke="midnightblue" d="M1280.73,-282.226C1352.69,-275.627 1458.81,-263.916 1559.69,-244.015"/>
<polygon fill="midnightblue" stroke="midnightblue" points="1560.63,-247.396 1569.75,-241.999 1559.25,-240.532 1560.63,-247.396"/>
</g>
<!-- Node29 -->
<g id="node29" class="node"><title>Node29</title>
<polygon fill="none" stroke="#bfbfbf" points="1634.06,-224.5 1634.06,-243.5 1686.06,-243.5 1686.06,-224.5 1634.06,-224.5"/>
<text text-anchor="middle" x="1660.06" y="-231.5" font-family="Helvetica,sans-Serif" font-size="10.00">sstream</text>
</g>
<!-- Node1&#45;&gt;Node29 -->
<g id="edge37" class="edge"><title>Node1&#45;&gt;Node29</title>
<path fill="none" stroke="midnightblue" d="M1280.83,-283.804C1365.46,-277.777 1499.3,-265.971 1623.7,-244.007"/>
<polygon fill="midnightblue" stroke="midnightblue" points="1624.56,-247.409 1633.78,-242.2 1623.32,-240.519 1624.56,-247.409"/>
</g>
<!-- Node30 -->
<g id="node30" class="node"><title>Node30</title>
<polygon fill="none" stroke="#bfbfbf" points="1704.56,-224.5 1704.56,-243.5 1801.56,-243.5 1801.56,-224.5 1704.56,-224.5"/>
<text text-anchor="middle" x="1753.06" y="-231.5" font-family="Helvetica,sans-Serif" font-size="10.00">fairlogger/Logger.h</text>
</g>
<!-- Node1&#45;&gt;Node30 -->
<g id="edge38" class="edge"><title>Node1&#45;&gt;Node30</title>
<path fill="none" stroke="midnightblue" d="M1281,-283.005C1378.31,-275.76 1542.76,-262.366 1694.39,-244.005"/>
<polygon fill="midnightblue" stroke="midnightblue" points="1694.86,-247.475 1704.36,-242.789 1694.01,-240.526 1694.86,-247.475"/>
</g>
<!-- Node31 -->
<g id="node31" class="node"><title>Node31</title>
<polygon fill="none" stroke="#bfbfbf" points="1819.56,-224.5 1819.56,-243.5 1948.56,-243.5 1948.56,-224.5 1819.56,-224.5"/>
<text text-anchor="middle" x="1884.06" y="-231.5" font-family="Helvetica,sans-Serif" font-size="10.00">boost/algorithm/string.hpp</text>
</g>
<!-- Node1&#45;&gt;Node31 -->
<g id="edge39" class="edge"><title>Node1&#45;&gt;Node31</title>
<path fill="none" stroke="midnightblue" d="M1280.74,-284.138C1397.4,-277.141 1614.37,-263.057 1809.07,-244.156"/>
<polygon fill="midnightblue" stroke="midnightblue" points="1809.59,-247.622 1819.2,-243.166 1808.91,-240.655 1809.59,-247.622"/>
</g>
<!-- Node3 -->
<g id="node3" class="node"><title>Node3</title>
<polygon fill="none" stroke="#bfbfbf" points="81.5647,-168.5 81.5647,-187.5 176.565,-187.5 176.565,-168.5 81.5647,-168.5"/>
<text text-anchor="middle" x="129.065" y="-175.5" font-family="Helvetica,sans-Serif" font-size="10.00">CCDB/CcdbApi.h</text>
</g>
<!-- Node2&#45;&gt;Node3 -->
<g id="edge2" class="edge"><title>Node2&#45;&gt;Node3</title>
<path fill="none" stroke="midnightblue" d="M256.138,-224.444C230.846,-215.399 190.762,-201.064 162.385,-190.916"/>
<polygon fill="midnightblue" stroke="midnightblue" points="163.474,-187.588 152.879,-187.516 161.117,-194.179 163.474,-187.588"/>
</g>
<!-- Node4 -->
<g id="node4" class="node"><title>Node4</title>
<g id="a_node4"><a xlink:href="DatabaseInterface_8h.html" target="_top" xlink:title="QualityControl/DatabaseInterface.h">
<polygon fill="none" stroke="black" points="195.065,-168.5 195.065,-187.5 365.065,-187.5 365.065,-168.5 195.065,-168.5"/>
<text text-anchor="middle" x="280.065" y="-175.5" font-family="Helvetica,sans-Serif" font-size="10.00">QualityControl/DatabaseInterface.h</text>
</a>
</g>
</g>
<!-- Node2&#45;&gt;Node4 -->
<g id="edge3" class="edge"><title>Node2&#45;&gt;Node4</title>
<path fill="none" stroke="midnightblue" d="M280.065,-224.083C280.065,-217.006 280.065,-206.861 280.065,-197.986"/>
<polygon fill="midnightblue" stroke="midnightblue" points="283.565,-197.751 280.065,-187.751 276.565,-197.751 283.565,-197.751"/>
</g>
<!-- Node5 -->
<g id="node5" class="node"><title>Node5</title>
<polygon fill="none" stroke="#bfbfbf" points="224.565,-0.5 224.565,-19.5 265.565,-19.5 265.565,-0.5 224.565,-0.5"/>
<text text-anchor="middle" x="245.065" y="-7.5" font-family="Helvetica,sans-Serif" font-size="10.00">string</text>
</g>
<!-- Node4&#45;&gt;Node5 -->
<g id="edge4" class="edge"><title>Node4&#45;&gt;Node5</title>
<path fill="none" stroke="midnightblue" d="M197.251,-168.48C123.053,-159.99 24.0827,-146.204 12.0647,-132 -48.3905,-60.5475 138.049,-25.8712 214.202,-14.9453"/>
<polygon fill="midnightblue" stroke="midnightblue" points="214.755,-18.4022 224.179,-13.5599 213.792,-11.4688 214.755,-18.4022"/>
</g>
<!-- Node6 -->
<g id="node6" class="node"><title>Node6</title>
<polygon fill="none" stroke="#bfbfbf" points="188.065,-112.5 188.065,-131.5 240.065,-131.5 240.065,-112.5 188.065,-112.5"/>
<text text-anchor="middle" x="214.065" y="-119.5" font-family="Helvetica,sans-Serif" font-size="10.00">memory</text>
</g>
<!-- Node4&#45;&gt;Node6 -->
<g id="edge5" class="edge"><title>Node4&#45;&gt;Node6</title>
<path fill="none" stroke="midnightblue" d="M269.461,-168.324C259.608,-160.263 244.714,-148.077 232.85,-138.369"/>
<polygon fill="midnightblue" stroke="midnightblue" points="234.818,-135.457 224.862,-131.834 230.385,-140.875 234.818,-135.457"/>
</g>
<!-- Node7 -->
<g id="node7" class="node"><title>Node7</title>
<polygon fill="none" stroke="#bfbfbf" points="258.065,-112.5 258.065,-131.5 302.065,-131.5 302.065,-112.5 258.065,-112.5"/>
<text text-anchor="middle" x="280.065" y="-119.5" font-family="Helvetica,sans-Serif" font-size="10.00">vector</text>
</g>
<!-- Node4&#45;&gt;Node7 -->
<g id="edge6" class="edge"><title>Node4&#45;&gt;Node7</title>
<path fill="none" stroke="midnightblue" d="M280.065,-168.083C280.065,-161.006 280.065,-150.861 280.065,-141.986"/>
<polygon fill="midnightblue" stroke="midnightblue" points="283.565,-141.751 280.065,-131.751 276.565,-141.751 283.565,-141.751"/>
</g>
<!-- Node8 -->
<g id="node8" class="node"><title>Node8</title>
<polygon fill="none" stroke="#bfbfbf" points="320.565,-112.5 320.565,-131.5 403.565,-131.5 403.565,-112.5 320.565,-112.5"/>
<text text-anchor="middle" x="362.065" y="-119.5" font-family="Helvetica,sans-Serif" font-size="10.00">unordered_map</text>
</g>
<!-- Node4&#45;&gt;Node8 -->
<g id="edge7" class="edge"><title>Node4&#45;&gt;Node8</title>
<path fill="none" stroke="midnightblue" d="M293.239,-168.324C305.911,-159.979 325.298,-147.212 340.27,-137.352"/>
<polygon fill="midnightblue" stroke="midnightblue" points="342.496,-140.078 348.923,-131.655 338.646,-134.231 342.496,-140.078"/>
</g>
<!-- Node9 -->
<g id="node9" class="node"><title>Node9</title>
<g id="a_node9"><a xlink:href="QualityObject_8h_source.html" target="_top" xlink:title="QualityControl/QualityObject.h">
<polygon fill="none" stroke="black" points="21.5647,-112.5 21.5647,-131.5 170.565,-131.5 170.565,-112.5 21.5647,-112.5"/>
<text text-anchor="middle" x="96.0647" y="-119.5" font-family="Helvetica,sans-Serif" font-size="10.00">QualityControl/QualityObject.h</text>
</a>
</g>
</g>
<!-- Node4&#45;&gt;Node9 -->
<g id="edge8" class="edge"><title>Node4&#45;&gt;Node9</title>
<path fill="none" stroke="midnightblue" d="M250.909,-168.444C219.551,-159.241 169.534,-144.562 134.868,-134.388"/>
<polygon fill="midnightblue" stroke="midnightblue" points="135.665,-130.974 125.084,-131.516 133.693,-137.691 135.665,-130.974"/>
</g>
<!-- Node4&#45;&gt;Node16 -->
<g id="edge16" class="edge"><title>Node4&#45;&gt;Node16</title>
<path fill="none" stroke="midnightblue" d="M314.449,-168.444C351.987,-159.102 412.196,-144.119 453.132,-133.933"/>
<polygon fill="midnightblue" stroke="midnightblue" points="453.982,-137.328 462.841,-131.516 452.292,-130.535 453.982,-137.328"/>
</g>
<!-- Node10 -->
<g id="node10" class="node"><title>Node10</title>
<polygon fill="none" stroke="#bfbfbf" points="59.0647,-56.5 59.0647,-75.5 113.065,-75.5 113.065,-56.5 59.0647,-56.5"/>
<text text-anchor="middle" x="86.0647" y="-63.5" font-family="Helvetica,sans-Serif" font-size="10.00">iostream</text>
</g>
<!-- Node9&#45;&gt;Node10 -->
<g id="edge9" class="edge"><title>Node9&#45;&gt;Node10</title>
<path fill="none" stroke="midnightblue" d="M94.4134,-112.083C93.0882,-104.927 91.1823,-94.6353 89.526,-85.6911"/>
<polygon fill="midnightblue" stroke="midnightblue" points="92.9477,-84.9466 87.6852,-75.7511 86.0647,-86.2212 92.9477,-84.9466"/>
</g>
<!-- Node11 -->
<g id="node11" class="node"><title>Node11</title>
<polygon fill="none" stroke="#bfbfbf" points="131.565,-56.5 131.565,-75.5 166.565,-75.5 166.565,-56.5 131.565,-56.5"/>
<text text-anchor="middle" x="149.065" y="-63.5" font-family="Helvetica,sans-Serif" font-size="10.00">map</text>
</g>
<!-- Node9&#45;&gt;Node11 -->
<g id="edge10" class="edge"><title>Node9&#45;&gt;Node11</title>
<path fill="none" stroke="midnightblue" d="M104.817,-112.083C112.534,-104.22 123.969,-92.5688 133.281,-83.0813"/>
<polygon fill="midnightblue" stroke="midnightblue" points="135.969,-85.3396 140.476,-75.7511 130.973,-80.4363 135.969,-85.3396"/>
</g>
<!-- Node12 -->
<g id="node12" class="node"><title>Node12</title>
<polygon fill="none" stroke="#bfbfbf" points="323.565,-56.5 323.565,-75.5 382.565,-75.5 382.565,-56.5 323.565,-56.5"/>
<text text-anchor="middle" x="353.065" y="-63.5" font-family="Helvetica,sans-Serif" font-size="10.00">TObject.h</text>
</g>
<!-- Node9&#45;&gt;Node12 -->
<g id="edge11" class="edge"><title>Node9&#45;&gt;Node12</title>
<path fill="none" stroke="midnightblue" d="M138.735,-112.497C180.665,-104.073 246.725,-90.6205 313.427,-76.1003"/>
<polygon fill="midnightblue" stroke="midnightblue" points="314.247,-79.5037 323.27,-73.9506 312.754,-72.6649 314.247,-79.5037"/>
</g>
<!-- Node9&#45;&gt;Node13 -->
<g id="edge12" class="edge"><title>Node9&#45;&gt;Node13</title>
<path fill="none" stroke="midnightblue" d="M159.604,-112.444C233.005,-102.559 353.315,-86.3578 428.701,-76.2061"/>
<polygon fill="midnightblue" stroke="midnightblue" points="429.587,-79.6185 439.03,-74.8151 428.653,-72.6811 429.587,-79.6185"/>
</g>
<!-- Node14 -->
<g id="node14" class="node"><title>Node14</title>
<g id="a_node14"><a xlink:href="Quality_8h.html" target="_top" xlink:title="QualityControl/Quality.h">
<polygon fill="none" stroke="black" points="184.565,-56.5 184.565,-75.5 305.565,-75.5 305.565,-56.5 184.565,-56.5"/>
<text text-anchor="middle" x="245.065" y="-63.5" font-family="Helvetica,sans-Serif" font-size="10.00">QualityControl/Quality.h</text>
</a>
</g>
</g>
<!-- Node9&#45;&gt;Node14 -->
<g id="edge13" class="edge"><title>Node9&#45;&gt;Node14</title>
<path fill="none" stroke="midnightblue" d="M119.674,-112.444C144.522,-103.438 183.839,-89.1891 211.818,-79.049"/>
<polygon fill="midnightblue" stroke="midnightblue" points="213.357,-82.2144 221.566,-75.5164 210.971,-75.6332 213.357,-82.2144"/>
</g>
<!-- Node14&#45;&gt;Node5 -->
<g id="edge15" class="edge"><title>Node14&#45;&gt;Node5</title>
<path fill="none" stroke="midnightblue" d="M245.065,-56.083C245.065,-49.0059 245.065,-38.8611 245.065,-29.9865"/>
<polygon fill="midnightblue" stroke="midnightblue" points="248.565,-29.751 245.065,-19.7511 241.565,-29.7511 248.565,-29.751"/>
</g>
<!-- Node15 -->
<g id="node15" class="node"><title>Node15</title>
<polygon fill="none" stroke="#bfbfbf" points="419.065,-0.5 419.065,-19.5 475.065,-19.5 475.065,-0.5 419.065,-0.5"/>
<text text-anchor="middle" x="447.065" y="-7.5" font-family="Helvetica,sans-Serif" font-size="10.00">Rtypes.h</text>
</g>
<!-- Node14&#45;&gt;Node15 -->
<g id="edge14" class="edge"><title>Node14&#45;&gt;Node15</title>
<path fill="none" stroke="midnightblue" d="M277.072,-56.4435C312.917,-46.8613 370.969,-31.3424 409.082,-21.1537"/>
<polygon fill="midnightblue" stroke="midnightblue" points="410.035,-24.5219 418.792,-18.558 408.227,-17.7594 410.035,-24.5219"/>
</g>
<!-- Node16&#45;&gt;Node5 -->
<g id="edge17" class="edge"><title>Node16&#45;&gt;Node5</title>
<path fill="none" stroke="midnightblue" d="M485.216,-112.35C466.184,-98.7819 427.259,-72.3605 391.065,-56 352.797,-38.7023 306.017,-25.5878 275.892,-18.0988"/>
<polygon fill="midnightblue" stroke="midnightblue" points="276.516,-14.6486 265.973,-15.6868 274.862,-21.4505 276.516,-14.6486"/>
</g>
<!-- Node16&#45;&gt;Node11 -->
<g id="edge18" class="edge"><title>Node16&#45;&gt;Node11</title>
<path fill="none" stroke="midnightblue" d="M423.986,-112.462C348.488,-103.36 234.693,-88.7917 176.661,-75.953"/>
<polygon fill="midnightblue" stroke="midnightblue" points="177.365,-72.5233 166.832,-73.6607 175.775,-79.3404 177.365,-72.5233"/>
</g>
<!-- Node16&#45;&gt;Node12 -->
<g id="edge20" class="edge"><title>Node16&#45;&gt;Node12</title>
<path fill="none" stroke="midnightblue" d="M474.247,-112.444C450.233,-103.438 412.236,-89.1891 385.195,-79.049"/>
<polygon fill="midnightblue" stroke="midnightblue" points="386.367,-75.7506 375.775,-75.5164 383.909,-82.3049 386.367,-75.7506"/>
</g>
<!-- Node16&#45;&gt;Node13 -->
<g id="edge21" class="edge"><title>Node16&#45;&gt;Node13</title>
<path fill="none" stroke="midnightblue" d="M497.065,-112.083C497.065,-105.006 497.065,-94.8611 497.065,-85.9865"/>
<polygon fill="midnightblue" stroke="midnightblue" points="500.565,-85.751 497.065,-75.7511 493.565,-85.7511 500.565,-85.751"/>
</g>
<!-- Node16&#45;&gt;Node14 -->
<g id="edge22" class="edge"><title>Node16&#45;&gt;Node14</title>
<path fill="none" stroke="midnightblue" d="M457.135,-112.444C413.174,-103.023 342.438,-87.8656 294.882,-77.6752"/>
<polygon fill="midnightblue" stroke="midnightblue" points="295.319,-74.1895 284.808,-75.5164 293.853,-81.0341 295.319,-74.1895"/>
</g>
<!-- Node16&#45;&gt;Node15 -->
<g id="edge19" class="edge"><title>Node16&#45;&gt;Node15</title>
<path fill="none" stroke="midnightblue" d="M518.197,-112.42C543.34,-100.92 580.029,-79.2449 564.065,-56 546.475,-30.3891 512.118,-19.3483 485.165,-14.5918"/>
<polygon fill="midnightblue" stroke="midnightblue" points="485.665,-11.1276 475.248,-13.0592 484.596,-18.0455 485.665,-11.1276"/>
</g>
<!-- Node19 -->
<g id="node19" class="node"><title>Node19</title>
<polygon fill="none" stroke="#bfbfbf" points="780.065,-168.5 780.065,-187.5 910.065,-187.5 910.065,-168.5 780.065,-168.5"/>
<text text-anchor="middle" x="845.065" y="-175.5" font-family="Helvetica,sans-Serif" font-size="10.00">InfoLogger/InfoLogger.hxx</text>
</g>
<!-- Node18&#45;&gt;Node19 -->
<g id="edge26" class="edge"><title>Node18&#45;&gt;Node19</title>
<path fill="none" stroke="midnightblue" d="M845.065,-224.083C845.065,-217.006 845.065,-206.861 845.065,-197.986"/>
<polygon fill="midnightblue" stroke="midnightblue" points="848.565,-197.751 845.065,-187.751 841.565,-197.751 848.565,-197.751"/>
</g>
</g>
</svg>
