<?xml version="1.0" encoding="UTF-8" standalone="no"?>
<!DOCTYPE svg PUBLIC "-//W3C//DTD SVG 1.1//EN"
 "http://www.w3.org/Graphics/SVG/1.1/DTD/svg11.dtd">
<!-- Generated by graphviz version 2.38.0 (20140413.2041)
 -->
<!-- Title: Framework/include/QualityControl/CheckRunner.h Pages: 1 -->
<!--zoomable 106 -->
<svg id="main" version="1.1" xmlns="http://www.w3.org/2000/svg" xmlns:xlink="http://www.w3.org/1999/xlink" xml:space="preserve" onload="init(evt)">
<style type="text/css"><![CDATA[
.edge:hover path { stroke: red; }
.edge:hover polygon { stroke: red; fill: red; }
]]></style>
<script type="text/javascript"><![CDATA[
var edges = document.getElementsByTagName('g');
if (edges && edges.length) {
  for (var i=0;i<edges.length;i++) {
    if (edges[i].id.substr(0,4)=='edge') {
      edges[i].setAttribute('class','edge');
    }
  }
}
]]></script>
        <defs>
                <circle id="rim" cx="0" cy="0" r="7"/>
                <circle id="rim2" cx="0" cy="0" r="3.5"/>
                <g id="zoomPlus">
                        <use xlink:href="#rim" fill="#404040">
                                <set attributeName="fill" to="#808080" begin="zoomplus.mouseover" end="zoomplus.mouseout"/>
                        </use>
                        <path d="M-4,0h8M0,-4v8" fill="none" stroke="white" stroke-width="1.5" pointer-events="none"/>
                </g>
                <g id="zoomMin">
                        <use xlink:href="#rim" fill="#404040">
                                <set attributeName="fill" to="#808080" begin="zoomminus.mouseover" end="zoomminus.mouseout"/>
                        </use>
                        <path d="M-4,0h8" fill="none" stroke="white" stroke-width="1.5" pointer-events="none"/>
                </g>
                <g id="dirArrow">
                        <path fill="none" stroke="white" stroke-width="1.5" d="M0,-3.0v7 M-2.5,-0.5L0,-3.0L2.5,-0.5"/>
                </g>
               <g id="resetDef">
                       <use xlink:href="#rim2" fill="#404040">
                               <set attributeName="fill" to="#808080" begin="reset.mouseover" end="reset.mouseout"/>
                       </use>
               </g>
        </defs>

<script type="text/javascript">
var viewWidth = 1918;
var viewHeight = 106;
var sectionId = 'dynsection-1';
</script>
<script xlink:href="svgpan.js"/>
<svg id="graph" class="graph">
<g id="viewport">
<title>Framework/include/QualityControl/CheckRunner.h</title>
<!-- Node1 -->
<g id="node1" class="node"><title>Node1</title>
<polygon fill="#bfbfbf" stroke="black" points="871.5,-67.5 871.5,-97.5 1004.5,-97.5 1004.5,-67.5 871.5,-67.5"/>
<text text-anchor="start" x="879.5" y="-85.5" font-family="Helvetica,sans-Serif" font-size="10.00">Framework/include/Quality</text>
<text text-anchor="middle" x="938" y="-74.5" font-family="Helvetica,sans-Serif" font-size="10.00">Control/CheckRunner.h</text>
</g>
<!-- Node2 -->
<g id="node2" class="node"><title>Node2</title>
<g id="a_node2"><a xlink:href="CheckRunner_8cxx.html" target="_top" xlink:title="Framework/src/CheckRunner.cxx">
<polygon fill="none" stroke="black" points="0,-6 0,-25 164,-25 164,-6 0,-6"/>
<text text-anchor="middle" x="82" y="-13" font-family="Helvetica,sans-Serif" font-size="10.00">Framework/src/CheckRunner.cxx</text>
</a>
</g>
</g>
<!-- Node1&#45;&gt;Node2 -->
<g id="edge1" class="edge"><title>Node1&#45;&gt;Node2</title>
<path fill="none" stroke="midnightblue" d="M861.246,-78.774C723.192,-73.35 423.981,-59.219 173,-31 159.01,-29.427 143.885,-27.2221 130.059,-25.0055"/>
<polygon fill="midnightblue" stroke="midnightblue" points="861.176,-82.2738 871.304,-79.1649 861.448,-75.2791 861.176,-82.2738"/>
</g>
<!-- Node3 -->
<g id="node3" class="node"><title>Node3</title>
<g id="a_node3"><a xlink:href="CheckRunnerFactory_8cxx.html" target="_top" xlink:title="Framework/src/CheckRunner\lFactory.cxx">
<polygon fill="none" stroke="black" points="182.5,-0.5 182.5,-30.5 327.5,-30.5 327.5,-0.5 182.5,-0.5"/>
<text text-anchor="start" x="190.5" y="-18.5" font-family="Helvetica,sans-Serif" font-size="10.00">Framework/src/CheckRunner</text>
<text text-anchor="middle" x="255" y="-7.5" font-family="Helvetica,sans-Serif" font-size="10.00">Factory.cxx</text>
</a>
</g>
</g>
<!-- Node1&#45;&gt;Node3 -->
<g id="edge2" class="edge"><title>Node1&#45;&gt;Node3</title>
<path fill="none" stroke="midnightblue" d="M861.339,-77.3701C746.713,-70.6753 524.008,-55.6587 336,-31 333.309,-30.647 330.571,-30.2666 327.808,-29.8646"/>
<polygon fill="midnightblue" stroke="midnightblue" points="861.232,-80.8697 871.418,-77.9536 861.637,-73.8814 861.232,-80.8697"/>
</g>
<!-- Node4 -->
<g id="node4" class="node"><title>Node4</title>
<g id="a_node4"><a xlink:href="InfrastructureGenerator_8cxx.html" target="_top" xlink:title="Framework/src/Infrastructure\lGenerator.cxx">
<polygon fill="none" stroke="black" points="345.5,-0.5 345.5,-30.5 488.5,-30.5 488.5,-0.5 345.5,-0.5"/>
<text text-anchor="start" x="353.5" y="-18.5" font-family="Helvetica,sans-Serif" font-size="10.00">Framework/src/Infrastructure</text>
<text text-anchor="middle" x="417" y="-7.5" font-family="Helvetica,sans-Serif" font-size="10.00">Generator.cxx</text>
</a>
</g>
</g>
<!-- Node1&#45;&gt;Node4 -->
<g id="edge3" class="edge"><title>Node1&#45;&gt;Node4</title>
<path fill="none" stroke="midnightblue" d="M861.331,-74.176C773.388,-65.4329 624.964,-49.6313 498,-31 494.89,-30.5437 491.717,-30.0587 488.514,-29.5534"/>
<polygon fill="midnightblue" stroke="midnightblue" points="861.192,-77.6792 871.488,-75.181 861.881,-70.7132 861.192,-77.6792"/>
</g>
<!-- Node5 -->
<g id="node5" class="node"><title>Node5</title>
<g id="a_node5"><a xlink:href="runBasic_8cxx.html" target="_top" xlink:title="This is an executable showing QC Task&#39;s usage in Data Processing Layer. ">
<polygon fill="none" stroke="black" points="507,-6 507,-25 649,-25 649,-6 507,-6"/>
<text text-anchor="middle" x="578" y="-13" font-family="Helvetica,sans-Serif" font-size="10.00">Framework/src/runBasic.cxx</text>
</a>
</g>
</g>
<!-- Node1&#45;&gt;Node5 -->
<g id="edge4" class="edge"><title>Node1&#45;&gt;Node5</title>
<path fill="none" stroke="midnightblue" d="M861.348,-67.6937C805.074,-57.5533 726.781,-43.4359 658,-31 647.305,-29.0663 635.806,-26.984 624.954,-25.0175"/>
<polygon fill="midnightblue" stroke="midnightblue" points="860.777,-71.1472 871.24,-69.476 862.019,-64.2581 860.777,-71.1472"/>
</g>
<!-- Node6 -->
<g id="node6" class="node"><title>Node6</title>
<g id="a_node6"><a xlink:href="runMergerTest_8cxx.html" target="_top" xlink:title="This is DPL workflow to see HistoMerger in action. ">
<polygon fill="none" stroke="black" points="667.5,-6 667.5,-25 834.5,-25 834.5,-6 667.5,-6"/>
<text text-anchor="middle" x="751" y="-13" font-family="Helvetica,sans-Serif" font-size="10.00">Framework/src/runMergerTest.cxx</text>
</a>
</g>
</g>
<!-- Node1&#45;&gt;Node6 -->
<g id="edge5" class="edge"><title>Node1&#45;&gt;Node6</title>
<path fill="none" stroke="midnightblue" d="M887.963,-64.1075C851.584,-51.4622 803.913,-34.8923 775.474,-25.007"/>
<polygon fill="midnightblue" stroke="midnightblue" points="886.829,-67.4186 897.424,-67.396 889.127,-60.8067 886.829,-67.4186"/>
</g>
<!-- Node7 -->
<g id="node7" class="node"><title>Node7</title>
<g id="a_node7"><a xlink:href="runTPCQCPID_8cxx.html" target="_top" xlink:title="run TPC PID QC task, reading tracks from file for the moment ">
<polygon fill="none" stroke="black" points="853,-6 853,-25 1023,-25 1023,-6 853,-6"/>
<text text-anchor="middle" x="938" y="-13" font-family="Helvetica,sans-Serif" font-size="10.00">Framework/src/runTPCQCPID.cxx</text>
</a>
</g>
</g>
<!-- Node1&#45;&gt;Node7 -->
<g id="edge6" class="edge"><title>Node1&#45;&gt;Node7</title>
<path fill="none" stroke="midnightblue" d="M938,-57.2495C938,-46.017 938,-33.3767 938,-25.1945"/>
<polygon fill="midnightblue" stroke="midnightblue" points="934.5,-57.3959 938,-67.396 941.5,-57.396 934.5,-57.3959"/>
</g>
<!-- Node8 -->
<g id="node8" class="node"><title>Node8</title>
<g id="a_node8"><a xlink:href="testCheckRunner_8cxx.html" target="_top" xlink:title="Framework/test/testCheck\lRunner.cxx">
<polygon fill="none" stroke="black" points="1041.5,-0.5 1041.5,-30.5 1174.5,-30.5 1174.5,-0.5 1041.5,-0.5"/>
<text text-anchor="start" x="1049.5" y="-18.5" font-family="Helvetica,sans-Serif" font-size="10.00">Framework/test/testCheck</text>
<text text-anchor="middle" x="1108" y="-7.5" font-family="Helvetica,sans-Serif" font-size="10.00">Runner.cxx</text>
</a>
</g>
</g>
<!-- Node1&#45;&gt;Node8 -->
<g id="edge7" class="edge"><title>Node1&#45;&gt;Node8</title>
<path fill="none" stroke="midnightblue" d="M984.244,-63.8185C1011.57,-53.3707 1045.69,-40.3231 1071.18,-30.5765"/>
<polygon fill="midnightblue" stroke="midnightblue" points="982.978,-60.5553 974.887,-67.396 985.478,-67.0937 982.978,-60.5553"/>
</g>
<!-- Node9 -->
<g id="node9" class="node"><title>Node9</title>
<g id="a_node9"><a xlink:href="testCheckWorkflow_8cxx.html" target="_top" xlink:title="Framework/test/testCheck\lWorkflow.cxx">
<polygon fill="none" stroke="black" points="1192.5,-0.5 1192.5,-30.5 1325.5,-30.5 1325.5,-0.5 1192.5,-0.5"/>
<text text-anchor="start" x="1200.5" y="-18.5" font-family="Helvetica,sans-Serif" font-size="10.00">Framework/test/testCheck</text>
<text text-anchor="middle" x="1259" y="-7.5" font-family="Helvetica,sans-Serif" font-size="10.00">Workflow.cxx</text>
</a>
</g>
</g>
<!-- Node1&#45;&gt;Node9 -->
<g id="edge8" class="edge"><title>Node1&#45;&gt;Node9</title>
<path fill="none" stroke="midnightblue" d="M1014.4,-66.0287C1068.54,-55.0661 1140.47,-40.501 1192.3,-30.0066"/>
<polygon fill="midnightblue" stroke="midnightblue" points="1013.62,-62.6169 1004.51,-68.032 1015.01,-69.4776 1013.62,-62.6169"/>
</g>
<!-- Node10 -->
<g id="node10" class="node"><title>Node10</title>
<g id="a_node10"><a xlink:href="testWorkflow_8cxx.html" target="_top" xlink:title="Framework/test/testWorkflow.cxx">
<polygon fill="none" stroke="black" points="1344,-6 1344,-25 1508,-25 1508,-6 1344,-6"/>
<text text-anchor="middle" x="1426" y="-13" font-family="Helvetica,sans-Serif" font-size="10.00">Framework/test/testWorkflow.cxx</text>
</a>
</g>
</g>
<!-- Node1&#45;&gt;Node10 -->
<g id="edge9" class="edge"><title>Node1&#45;&gt;Node10</title>
<path fill="none" stroke="midnightblue" d="M1014.81,-72.456C1094.85,-62.8617 1223.86,-46.9187 1335,-31 1347.67,-29.1853 1361.31,-27.0888 1374.07,-25.0638"/>
<polygon fill="midnightblue" stroke="midnightblue" points="1014.33,-68.9887 1004.82,-73.6517 1015.16,-75.9391 1014.33,-68.9887"/>
</g>
<!-- Node11 -->
<g id="node11" class="node"><title>Node11</title>
<polygon fill="none" stroke="#bfbfbf" points="1526,-6 1526,-25 1744,-25 1744,-6 1526,-6"/>
<text text-anchor="middle" x="1635" y="-13" font-family="Helvetica,sans-Serif" font-size="10.00">Modules/EMCAL/src/runQCEMCALDigits.cxx</text>
</g>
<!-- Node1&#45;&gt;Node11 -->
<g id="edge10" class="edge"><title>Node1&#45;&gt;Node11</title>
<path fill="none" stroke="midnightblue" d="M1014.59,-75.6848C1125.49,-67.0678 1337.21,-49.8806 1517,-31 1533.94,-29.2215 1552.21,-27.0834 1569.2,-25.0022"/>
<polygon fill="midnightblue" stroke="midnightblue" points="1014.2,-72.2043 1004.5,-76.4665 1014.74,-79.1834 1014.2,-72.2043"/>
</g>
<!-- Node12 -->
<g id="node12" class="node"><title>Node12</title>
<g id="a_node12"><a xlink:href="runTOF_8cxx.html" target="_top" xlink:title="This is an executable showing QC Task&#39;s usage in Data Processing Layer. ">
<polygon fill="none" stroke="black" points="1762.5,-6 1762.5,-25 1909.5,-25 1909.5,-6 1762.5,-6"/>
<text text-anchor="middle" x="1836" y="-13" font-family="Helvetica,sans-Serif" font-size="10.00">Modules/TOF/src/runTOF.cxx</text>
</a>
</g>
</g>
<!-- Node1&#45;&gt;Node12 -->
<g id="edge11" class="edge"><title>Node1&#45;&gt;Node12</title>
<path fill="none" stroke="midnightblue" d="M1014.62,-79.5892C1159.35,-75.3517 1482.66,-62.8893 1753,-31 1765.93,-29.4748 1779.9,-27.2576 1792.63,-25.0138"/>
<polygon fill="midnightblue" stroke="midnightblue" points="1014.41,-76.0938 1004.51,-79.8802 1014.61,-83.0909 1014.41,-76.0938"/>
</g>
</g>
</svg>
        <g id="navigator" transform="translate(0 0)" fill="#404254">
                <rect fill="#f2f5e9" fill-opacity="0.5" stroke="#606060" stroke-width=".5" x="0" y="0" width="60" height="60"/>
                <use id="zoomplus" xlink:href="#zoomPlus" x="17" y="9" onmousedown="handleZoom(evt,'in')"/>
                <use id="zoomminus" xlink:href="#zoomMin" x="42" y="9" onmousedown="handleZoom(evt,'out')"/>
                <use id="reset" xlink:href="#resetDef" x="30" y="36" onmousedown="handleReset()"/>
                <g id="arrowUp" xlink:href="#dirArrow" transform="translate(30 24)" onmousedown="handlePan(0,-1)">
                  <use xlink:href="#rim" fill="#404040">
                        <set attributeName="fill" to="#808080" begin="arrowUp.mouseover" end="arrowUp.mouseout"/>
                  </use>
                  <path fill="none" stroke="white" stroke-width="1.5" d="M0,-3.0v7 M-2.5,-0.5L0,-3.0L2.5,-0.5"/>
                </g>
                <g id="arrowRight" xlink:href="#dirArrow" transform="rotate(90) translate(36 -43)" onmousedown="handlePan(1,0)">
                  <use xlink:href="#rim" fill="#404040">
                        <set attributeName="fill" to="#808080" begin="arrowRight.mouseover" end="arrowRight.mouseout"/>
                  </use>
                  <path fill="none" stroke="white" stroke-width="1.5" d="M0,-3.0v7 M-2.5,-0.5L0,-3.0L2.5,-0.5"/>
                </g>
                <g id="arrowDown" xlink:href="#dirArrow" transform="rotate(180) translate(-30 -48)" onmousedown="handlePan(0,1)">
                  <use xlink:href="#rim" fill="#404040">
                        <set attributeName="fill" to="#808080" begin="arrowDown.mouseover" end="arrowDown.mouseout"/>
                  </use>
                  <path fill="none" stroke="white" stroke-width="1.5" d="M0,-3.0v7 M-2.5,-0.5L0,-3.0L2.5,-0.5"/>
                </g>
                <g id="arrowLeft" xlink:href="#dirArrow" transform="rotate(270) translate(-36 17)" onmousedown="handlePan(-1,0)">
                  <use xlink:href="#rim" fill="#404040">
                        <set attributeName="fill" to="#808080" begin="arrowLeft.mouseover" end="arrowLeft.mouseout"/>
                  </use>
                  <path fill="none" stroke="white" stroke-width="1.5" d="M0,-3.0v7 M-2.5,-0.5L0,-3.0L2.5,-0.5"/>
                </g>
        </g>
        <svg viewBox="0 0 15 15" width="100%" height="30px" preserveAspectRatio="xMaxYMin meet">
         <g id="arrow_out" transform="scale(0.3 0.3)">
          <a xlink:href="CheckRunner_8h__dep__incl_org.svg" target="_base">
           <rect id="button" ry="5" rx="5" y="6" x="6" height="38" width="38"
                fill="#f2f5e9" fill-opacity="0.5" stroke="#606060" stroke-width="1.0"/>
           <path id="arrow"
             d="M 11.500037,31.436501 C 11.940474,20.09759 22.043105,11.32322 32.158766,21.979434 L 37.068811,17.246167 C 37.068811,17.246167 37.088388,32 37.088388,32 L 22.160133,31.978069 C 22.160133,31.978069 26.997745,27.140456 26.997745,27.140456 C 18.528582,18.264221 13.291696,25.230495 11.500037,31.436501 z"
             style="fill:#404040;"/>
          </a>
         </g>
        </svg>
</svg>
