<?xml version="1.0" encoding="UTF-8" standalone="no"?>
<!DOCTYPE svg PUBLIC "-//W3C//DTD SVG 1.1//EN"
 "http://www.w3.org/Graphics/SVG/1.1/DTD/svg11.dtd">
<!-- Generated by graphviz version 2.38.0 (20140413.2041)
 -->
<!-- Title: Framework/include/QualityControl/CheckInterface.h Pages: 1 -->
<svg width="2699pt" height="240pt"
 viewBox="0.00 0.00 2699.00 240.00" xmlns="http://www.w3.org/2000/svg" xmlns:xlink="http://www.w3.org/1999/xlink">
<g id="graph0" class="graph" transform="scale(1 1) rotate(0) translate(4 236)">
<title>Framework/include/QualityControl/CheckInterface.h</title>
<!-- Node1 -->
<g id="node1" class="node"><title>Node1</title>
<polygon fill="#bfbfbf" stroke="black" points="1622,-201.5 1622,-231.5 1755,-231.5 1755,-201.5 1622,-201.5"/>
<text text-anchor="start" x="1630" y="-219.5" font-family="Helvetica,sans-Serif" font-size="10.00">Framework/include/Quality</text>
<text text-anchor="middle" x="1688.5" y="-208.5" font-family="Helvetica,sans-Serif" font-size="10.00">Control/CheckInterface.h</text>
</g>
<!-- Node2 -->
<g id="node2" class="node"><title>Node2</title>
<g id="a_node2"><a xlink:href="Check_8h_source.html" target="_top" xlink:title="Framework/include/Quality\lControl/Check.h">
<polygon fill="none" stroke="black" points="718,-134.5 718,-164.5 851,-164.5 851,-134.5 718,-134.5"/>
<text text-anchor="start" x="726" y="-152.5" font-family="Helvetica,sans-Serif" font-size="10.00">Framework/include/Quality</text>
<text text-anchor="middle" x="784.5" y="-141.5" font-family="Helvetica,sans-Serif" font-size="10.00">Control/Check.h</text>
</a>
</g>
</g>
<!-- Node1&#45;&gt;Node2 -->
<g id="edge1" class="edge"><title>Node1&#45;&gt;Node2</title>
<path fill="none" stroke="midnightblue" d="M1611.53,-210.972C1475.75,-202.835 1184.81,-184.741 939.5,-165 910.539,-162.669 878.569,-159.739 851.224,-157.124"/>
<polygon fill="midnightblue" stroke="midnightblue" points="1611.63,-214.484 1621.82,-211.587 1612.05,-207.496 1611.63,-214.484"/>
</g>
<!-- Node3 -->
<g id="node3" class="node"><title>Node3</title>
<g id="a_node3"><a xlink:href="CheckRunner_8h.html" target="_top" xlink:title="Framework/include/Quality\lControl/CheckRunner.h">
<polygon fill="none" stroke="black" points="900,-67.5 900,-97.5 1033,-97.5 1033,-67.5 900,-67.5"/>
<text text-anchor="start" x="908" y="-85.5" font-family="Helvetica,sans-Serif" font-size="10.00">Framework/include/Quality</text>
<text text-anchor="middle" x="966.5" y="-74.5" font-family="Helvetica,sans-Serif" font-size="10.00">Control/CheckRunner.h</text>
</a>
</g>
</g>
<!-- Node1&#45;&gt;Node3 -->
<g id="edge23" class="edge"><title>Node1&#45;&gt;Node3</title>
<path fill="none" stroke="midnightblue" d="M1611.61,-215.636C1435.98,-215.171 1017.01,-209.371 972.5,-165 954.917,-147.471 958.569,-115.822 962.641,-97.5496"/>
<polygon fill="midnightblue" stroke="midnightblue" points="1611.81,-219.136 1621.82,-215.658 1611.82,-212.136 1611.81,-219.136"/>
</g>
<!-- Node18 -->
<g id="node18" class="node"><title>Node18</title>
<g id="a_node18"><a xlink:href="CheckInterface_8cxx.html" target="_top" xlink:title="Framework/src/CheckInterface.cxx">
<polygon fill="none" stroke="black" points="981.5,-140 981.5,-159 1151.5,-159 1151.5,-140 981.5,-140"/>
<text text-anchor="middle" x="1066.5" y="-147" font-family="Helvetica,sans-Serif" font-size="10.00">Framework/src/CheckInterface.cxx</text>
</a>
</g>
</g>
<!-- Node1&#45;&gt;Node18 -->
<g id="edge24" class="edge"><title>Node1&#45;&gt;Node18</title>
<path fill="none" stroke="midnightblue" d="M1611.69,-209.552C1508.78,-201.263 1320.56,-184.983 1160.5,-165 1146.74,-163.282 1131.88,-161.13 1118.14,-159.014"/>
<polygon fill="midnightblue" stroke="midnightblue" points="1611.44,-213.042 1621.68,-210.353 1612,-206.065 1611.44,-213.042"/>
</g>
<!-- Node19 -->
<g id="node19" class="node"><title>Node19</title>
<g id="a_node19"><a xlink:href="testCheckInterface_8cxx.html" target="_top" xlink:title="Framework/test/testCheck\lInterface.cxx">
<polygon fill="none" stroke="black" points="1170,-134.5 1170,-164.5 1303,-164.5 1303,-134.5 1170,-134.5"/>
<text text-anchor="start" x="1178" y="-152.5" font-family="Helvetica,sans-Serif" font-size="10.00">Framework/test/testCheck</text>
<text text-anchor="middle" x="1236.5" y="-141.5" font-family="Helvetica,sans-Serif" font-size="10.00">Interface.cxx</text>
</a>
</g>
</g>
<!-- Node1&#45;&gt;Node19 -->
<g id="edge25" class="edge"><title>Node1&#45;&gt;Node19</title>
<path fill="none" stroke="midnightblue" d="M1611.92,-206.559C1535.62,-197.34 1415.19,-181.954 1311.5,-165 1308.75,-164.551 1305.95,-164.077 1303.12,-163.587"/>
<polygon fill="midnightblue" stroke="midnightblue" points="1611.58,-210.043 1621.93,-207.763 1612.42,-203.094 1611.58,-210.043"/>
</g>
<!-- Node20 -->
<g id="node20" class="node"><title>Node20</title>
<g id="a_node20"><a xlink:href="MeanIsAbove_8h.html" target="_top" xlink:title="Modules/Common/include\l/Common/MeanIsAbove.h">
<polygon fill="none" stroke="black" points="1321,-134.5 1321,-164.5 1452,-164.5 1452,-134.5 1321,-134.5"/>
<text text-anchor="start" x="1329" y="-152.5" font-family="Helvetica,sans-Serif" font-size="10.00">Modules/Common/include</text>
<text text-anchor="middle" x="1386.5" y="-141.5" font-family="Helvetica,sans-Serif" font-size="10.00">/Common/MeanIsAbove.h</text>
</a>
</g>
</g>
<!-- Node1&#45;&gt;Node20 -->
<g id="edge26" class="edge"><title>Node1&#45;&gt;Node20</title>
<path fill="none" stroke="midnightblue" d="M1613.3,-199.316C1563.67,-188.633 1499.28,-174.775 1451.8,-164.555"/>
<polygon fill="midnightblue" stroke="midnightblue" points="1612.83,-202.793 1623.34,-201.476 1614.3,-195.95 1612.83,-202.793"/>
</g>
<!-- Node23 -->
<g id="node23" class="node"><title>Node23</title>
<g id="a_node23"><a xlink:href="NonEmpty_8h.html" target="_top" xlink:title="Modules/Common/include\l/Common/NonEmpty.h">
<polygon fill="none" stroke="black" points="1470.5,-134.5 1470.5,-164.5 1600.5,-164.5 1600.5,-134.5 1470.5,-134.5"/>
<text text-anchor="start" x="1478.5" y="-152.5" font-family="Helvetica,sans-Serif" font-size="10.00">Modules/Common/include</text>
<text text-anchor="middle" x="1535.5" y="-141.5" font-family="Helvetica,sans-Serif" font-size="10.00">/Common/NonEmpty.h</text>
</a>
</g>
</g>
<!-- Node1&#45;&gt;Node23 -->
<g id="edge29" class="edge"><title>Node1&#45;&gt;Node23</title>
<path fill="none" stroke="midnightblue" d="M1645.91,-197.407C1621.48,-187.029 1591.28,-174.195 1568.63,-164.577"/>
<polygon fill="midnightblue" stroke="midnightblue" points="1644.73,-200.707 1655.3,-201.396 1647.47,-194.264 1644.73,-200.707"/>
</g>
<!-- Node26 -->
<g id="node26" class="node"><title>Node26</title>
<g id="a_node26"><a xlink:href="EverIncreasingGraph_8h.html" target="_top" xlink:title="Modules/Daq/include\l/Daq/EverIncreasingGraph.h">
<polygon fill="none" stroke="black" points="1618.5,-134.5 1618.5,-164.5 1758.5,-164.5 1758.5,-134.5 1618.5,-134.5"/>
<text text-anchor="start" x="1626.5" y="-152.5" font-family="Helvetica,sans-Serif" font-size="10.00">Modules/Daq/include</text>
<text text-anchor="middle" x="1688.5" y="-141.5" font-family="Helvetica,sans-Serif" font-size="10.00">/Daq/EverIncreasingGraph.h</text>
</a>
</g>
</g>
<!-- Node1&#45;&gt;Node26 -->
<g id="edge32" class="edge"><title>Node1&#45;&gt;Node26</title>
<path fill="none" stroke="midnightblue" d="M1688.5,-191.108C1688.5,-182.154 1688.5,-172.323 1688.5,-164.577"/>
<polygon fill="midnightblue" stroke="midnightblue" points="1685,-191.396 1688.5,-201.396 1692,-191.396 1685,-191.396"/>
</g>
<!-- Node28 -->
<g id="node28" class="node"><title>Node28</title>
<g id="a_node28"><a xlink:href="DigitCheck_8h.html" target="_top" xlink:title="Modules/EMCAL/include\l/EMCAL/DigitCheck.h">
<polygon fill="none" stroke="black" points="1777,-134.5 1777,-164.5 1902,-164.5 1902,-134.5 1777,-134.5"/>
<text text-anchor="start" x="1785" y="-152.5" font-family="Helvetica,sans-Serif" font-size="10.00">Modules/EMCAL/include</text>
<text text-anchor="middle" x="1839.5" y="-141.5" font-family="Helvetica,sans-Serif" font-size="10.00">/EMCAL/DigitCheck.h</text>
</a>
</g>
</g>
<!-- Node1&#45;&gt;Node28 -->
<g id="edge34" class="edge"><title>Node1&#45;&gt;Node28</title>
<path fill="none" stroke="midnightblue" d="M1730.53,-197.407C1754.64,-187.029 1784.45,-174.195 1806.8,-164.577"/>
<polygon fill="midnightblue" stroke="midnightblue" points="1729.07,-194.227 1721.26,-201.396 1731.83,-200.657 1729.07,-194.227"/>
</g>
<!-- Node30 -->
<g id="node30" class="node"><title>Node30</title>
<g id="a_node30"><a xlink:href="FakeCheck_8h.html" target="_top" xlink:title="Modules/Example/include\l/Example/FakeCheck.h">
<polygon fill="none" stroke="black" points="1920.5,-134.5 1920.5,-164.5 2048.5,-164.5 2048.5,-134.5 1920.5,-134.5"/>
<text text-anchor="start" x="1928.5" y="-152.5" font-family="Helvetica,sans-Serif" font-size="10.00">Modules/Example/include</text>
<text text-anchor="middle" x="1984.5" y="-141.5" font-family="Helvetica,sans-Serif" font-size="10.00">/Example/FakeCheck.h</text>
</a>
</g>
</g>
<!-- Node1&#45;&gt;Node30 -->
<g id="edge36" class="edge"><title>Node1&#45;&gt;Node30</title>
<path fill="none" stroke="midnightblue" d="M1762.2,-199.316C1810.85,-188.633 1873.96,-174.775 1920.5,-164.555"/>
<polygon fill="midnightblue" stroke="midnightblue" points="1761.38,-195.913 1752.36,-201.476 1762.88,-202.75 1761.38,-195.913"/>
</g>
<!-- Node32 -->
<g id="node32" class="node"><title>Node32</title>
<g id="a_node32"><a xlink:href="SkeletonCheck_8h.html" target="_top" xlink:title="Modules/Skeleton/include\l/Skeleton/SkeletonCheck.h">
<polygon fill="none" stroke="black" points="2066.5,-134.5 2066.5,-164.5 2202.5,-164.5 2202.5,-134.5 2066.5,-134.5"/>
<text text-anchor="start" x="2074.5" y="-152.5" font-family="Helvetica,sans-Serif" font-size="10.00">Modules/Skeleton/include</text>
<text text-anchor="middle" x="2134.5" y="-141.5" font-family="Helvetica,sans-Serif" font-size="10.00">/Skeleton/SkeletonCheck.h</text>
</a>
</g>
</g>
<!-- Node1&#45;&gt;Node32 -->
<g id="edge38" class="edge"><title>Node1&#45;&gt;Node32</title>
<path fill="none" stroke="midnightblue" d="M1765.58,-206.094C1840.34,-196.7 1956.92,-181.342 2057.5,-165 2060.32,-164.542 2063.19,-164.061 2066.1,-163.565"/>
<polygon fill="midnightblue" stroke="midnightblue" points="1764.8,-202.664 1755.31,-207.379 1765.67,-209.61 1764.8,-202.664"/>
</g>
<!-- Node34 -->
<g id="node34" class="node"><title>Node34</title>
<g id="a_node34"><a xlink:href="TOFCheckRawsMulti_8h.html" target="_top" xlink:title="Modules/TOF/include\l/TOF/TOFCheckRawsMulti.h">
<polygon fill="none" stroke="black" points="2221,-134.5 2221,-164.5 2366,-164.5 2366,-134.5 2221,-134.5"/>
<text text-anchor="start" x="2229" y="-152.5" font-family="Helvetica,sans-Serif" font-size="10.00">Modules/TOF/include</text>
<text text-anchor="middle" x="2293.5" y="-141.5" font-family="Helvetica,sans-Serif" font-size="10.00">/TOF/TOFCheckRawsMulti.h</text>
</a>
</g>
</g>
<!-- Node1&#45;&gt;Node34 -->
<g id="edge40" class="edge"><title>Node1&#45;&gt;Node34</title>
<path fill="none" stroke="midnightblue" d="M1765.38,-209.982C1867.55,-202.214 2053.56,-186.556 2211.5,-165 2214.51,-164.589 2217.57,-164.149 2220.67,-163.685"/>
<polygon fill="midnightblue" stroke="midnightblue" points="1764.86,-206.511 1755.15,-210.754 1765.39,-213.491 1764.86,-206.511"/>
</g>
<!-- Node36 -->
<g id="node36" class="node"><title>Node36</title>
<g id="a_node36"><a xlink:href="TOFCheckRawsTime_8h.html" target="_top" xlink:title="Modules/TOF/include\l/TOF/TOFCheckRawsTime.h">
<polygon fill="none" stroke="black" points="2384.5,-134.5 2384.5,-164.5 2530.5,-164.5 2530.5,-134.5 2384.5,-134.5"/>
<text text-anchor="start" x="2392.5" y="-152.5" font-family="Helvetica,sans-Serif" font-size="10.00">Modules/TOF/include</text>
<text text-anchor="middle" x="2457.5" y="-141.5" font-family="Helvetica,sans-Serif" font-size="10.00">/TOF/TOFCheckRawsTime.h</text>
</a>
</g>
</g>
<!-- Node1&#45;&gt;Node36 -->
<g id="edge42" class="edge"><title>Node1&#45;&gt;Node36</title>
<path fill="none" stroke="midnightblue" d="M1765.45,-212.335C1892.6,-206.545 2154.4,-192.259 2374.5,-165 2377.69,-164.604 2380.95,-164.17 2384.24,-163.706"/>
<polygon fill="midnightblue" stroke="midnightblue" points="1765.25,-208.84 1755.42,-212.787 1765.57,-215.833 1765.25,-208.84"/>
</g>
<!-- Node38 -->
<g id="node38" class="node"><title>Node38</title>
<g id="a_node38"><a xlink:href="TOFCheckRawsToT_8h.html" target="_top" xlink:title="Modules/TOF/include\l/TOF/TOFCheckRawsToT.h">
<polygon fill="none" stroke="black" points="2549,-134.5 2549,-164.5 2690,-164.5 2690,-134.5 2549,-134.5"/>
<text text-anchor="start" x="2557" y="-152.5" font-family="Helvetica,sans-Serif" font-size="10.00">Modules/TOF/include</text>
<text text-anchor="middle" x="2619.5" y="-141.5" font-family="Helvetica,sans-Serif" font-size="10.00">/TOF/TOFCheckRawsToT.h</text>
</a>
</g>
</g>
<!-- Node1&#45;&gt;Node38 -->
<g id="edge44" class="edge"><title>Node1&#45;&gt;Node38</title>
<path fill="none" stroke="midnightblue" d="M1765.22,-214.03C1914.71,-210.485 2255.25,-199.069 2539.5,-165 2542.58,-164.63 2545.73,-164.217 2548.9,-163.771"/>
<polygon fill="midnightblue" stroke="midnightblue" points="1765.14,-210.531 1755.22,-214.262 1765.3,-217.529 1765.14,-210.531"/>
</g>
<!-- Node2&#45;&gt;Node3 -->
<g id="edge2" class="edge"><title>Node2&#45;&gt;Node3</title>
<path fill="none" stroke="midnightblue" d="M833.625,-130.955C862.943,-120.485 899.676,-107.366 927.086,-97.5765"/>
<polygon fill="midnightblue" stroke="midnightblue" points="832.232,-127.736 823.991,-134.396 834.586,-134.329 832.232,-127.736"/>
</g>
<!-- Node6 -->
<g id="node6" class="node"><title>Node6</title>
<g id="a_node6"><a xlink:href="InfrastructureGenerator_8cxx.html" target="_top" xlink:title="Framework/src/Infrastructure\lGenerator.cxx">
<polygon fill="none" stroke="black" points="0,-0.5 0,-30.5 143,-30.5 143,-0.5 0,-0.5"/>
<text text-anchor="start" x="8" y="-18.5" font-family="Helvetica,sans-Serif" font-size="10.00">Framework/src/Infrastructure</text>
<text text-anchor="middle" x="71.5" y="-7.5" font-family="Helvetica,sans-Serif" font-size="10.00">Generator.cxx</text>
</a>
</g>
</g>
<!-- Node2&#45;&gt;Node6 -->
<g id="edge22" class="edge"><title>Node2&#45;&gt;Node6</title>
<path fill="none" stroke="midnightblue" d="M707.753,-134.603C652.142,-124.51 575.155,-110.49 507.5,-98 379.145,-74.3034 229.622,-46.2576 143.232,-30.0102"/>
<polygon fill="midnightblue" stroke="midnightblue" points="707.416,-138.099 717.88,-136.441 708.666,-131.212 707.416,-138.099"/>
</g>
<!-- Node15 -->
<g id="node15" class="node"><title>Node15</title>
<g id="a_node15"><a xlink:href="CheckRunnerFactory_8h.html" target="_top" xlink:title="Framework/include/Quality\lControl/CheckRunnerFactory.h">
<polygon fill="none" stroke="black" points="516.5,-67.5 516.5,-97.5 668.5,-97.5 668.5,-67.5 516.5,-67.5"/>
<text text-anchor="start" x="524.5" y="-85.5" font-family="Helvetica,sans-Serif" font-size="10.00">Framework/include/Quality</text>
<text text-anchor="middle" x="592.5" y="-74.5" font-family="Helvetica,sans-Serif" font-size="10.00">Control/CheckRunnerFactory.h</text>
</a>
</g>
</g>
<!-- Node2&#45;&gt;Node15 -->
<g id="edge14" class="edge"><title>Node2&#45;&gt;Node15</title>
<path fill="none" stroke="midnightblue" d="M733.078,-131.092C702.084,-120.599 663.121,-107.408 634.08,-97.5765"/>
<polygon fill="midnightblue" stroke="midnightblue" points="732.245,-134.504 742.839,-134.396 734.489,-127.874 732.245,-134.504"/>
</g>
<!-- Node17 -->
<g id="node17" class="node"><title>Node17</title>
<polygon fill="none" stroke="#bfbfbf" points="718.5,-73 718.5,-92 850.5,-92 850.5,-73 718.5,-73"/>
<text text-anchor="middle" x="784.5" y="-80" font-family="Helvetica,sans-Serif" font-size="10.00">Framework/src/Check.cxx</text>
</g>
<!-- Node2&#45;&gt;Node17 -->
<g id="edge21" class="edge"><title>Node2&#45;&gt;Node17</title>
<path fill="none" stroke="midnightblue" d="M784.5,-124.25C784.5,-113.017 784.5,-100.377 784.5,-92.1945"/>
<polygon fill="midnightblue" stroke="midnightblue" points="781,-124.396 784.5,-134.396 788,-124.396 781,-124.396"/>
</g>
<!-- Node4 -->
<g id="node4" class="node"><title>Node4</title>
<g id="a_node4"><a xlink:href="CheckRunner_8cxx.html" target="_top" xlink:title="Framework/src/CheckRunner.cxx">
<polygon fill="none" stroke="black" points="1068.5,-6 1068.5,-25 1232.5,-25 1232.5,-6 1068.5,-6"/>
<text text-anchor="middle" x="1150.5" y="-13" font-family="Helvetica,sans-Serif" font-size="10.00">Framework/src/CheckRunner.cxx</text>
</a>
</g>
</g>
<!-- Node3&#45;&gt;Node4 -->
<g id="edge3" class="edge"><title>Node3&#45;&gt;Node4</title>
<path fill="none" stroke="midnightblue" d="M1016.19,-63.9459C1051.93,-51.3213 1098.55,-34.8502 1126.42,-25.007"/>
<polygon fill="midnightblue" stroke="midnightblue" points="1014.69,-60.7649 1006.43,-67.396 1017.02,-67.3652 1014.69,-60.7649"/>
</g>
<!-- Node5 -->
<g id="node5" class="node"><title>Node5</title>
<g id="a_node5"><a xlink:href="CheckRunnerFactory_8cxx.html" target="_top" xlink:title="Framework/src/CheckRunner\lFactory.cxx">
<polygon fill="none" stroke="black" points="720,-0.5 720,-30.5 865,-30.5 865,-0.5 720,-0.5"/>
<text text-anchor="start" x="728" y="-18.5" font-family="Helvetica,sans-Serif" font-size="10.00">Framework/src/CheckRunner</text>
<text text-anchor="middle" x="792.5" y="-7.5" font-family="Helvetica,sans-Serif" font-size="10.00">Factory.cxx</text>
</a>
</g>
</g>
<!-- Node3&#45;&gt;Node5 -->
<g id="edge4" class="edge"><title>Node3&#45;&gt;Node5</title>
<path fill="none" stroke="midnightblue" d="M919.168,-63.8185C891.2,-53.3707 856.273,-40.3231 830.182,-30.5765"/>
<polygon fill="midnightblue" stroke="midnightblue" points="918.152,-67.1752 928.745,-67.396 920.602,-60.6178 918.152,-67.1752"/>
</g>
<!-- Node3&#45;&gt;Node6 -->
<g id="edge5" class="edge"><title>Node3&#45;&gt;Node6</title>
<path fill="none" stroke="midnightblue" d="M889.731,-70.308C879.58,-69.0595 869.299,-67.9119 859.5,-67 546.224,-37.8492 465.087,-66.7919 152.5,-31 149.519,-30.6587 146.483,-30.2759 143.419,-29.8605"/>
<polygon fill="midnightblue" stroke="midnightblue" points="889.457,-73.8011 899.818,-71.585 890.336,-66.8565 889.457,-73.8011"/>
</g>
<!-- Node7 -->
<g id="node7" class="node"><title>Node7</title>
<g id="a_node7"><a xlink:href="runBasic_8cxx.html" target="_top" xlink:title="This is an executable showing QC Task&#39;s usage in Data Processing Layer. ">
<polygon fill="none" stroke="black" points="1250.5,-6 1250.5,-25 1392.5,-25 1392.5,-6 1250.5,-6"/>
<text text-anchor="middle" x="1321.5" y="-13" font-family="Helvetica,sans-Serif" font-size="10.00">Framework/src/runBasic.cxx</text>
</a>
</g>
</g>
<!-- Node3&#45;&gt;Node7 -->
<g id="edge6" class="edge"><title>Node3&#45;&gt;Node7</title>
<path fill="none" stroke="midnightblue" d="M1043.43,-67.4136C1113.91,-54.5089 1215.96,-35.8234 1274.84,-25.0441"/>
<polygon fill="midnightblue" stroke="midnightblue" points="1042.48,-64.0301 1033.27,-69.274 1043.74,-70.9156 1042.48,-64.0301"/>
</g>
<!-- Node8 -->
<g id="node8" class="node"><title>Node8</title>
<g id="a_node8"><a xlink:href="runMergerTest_8cxx.html" target="_top" xlink:title="This is DPL workflow to see HistoMerger in action. ">
<polygon fill="none" stroke="black" points="883,-6 883,-25 1050,-25 1050,-6 883,-6"/>
<text text-anchor="middle" x="966.5" y="-13" font-family="Helvetica,sans-Serif" font-size="10.00">Framework/src/runMergerTest.cxx</text>
</a>
</g>
</g>
<!-- Node3&#45;&gt;Node8 -->
<g id="edge7" class="edge"><title>Node3&#45;&gt;Node8</title>
<path fill="none" stroke="midnightblue" d="M966.5,-57.2495C966.5,-46.017 966.5,-33.3767 966.5,-25.1945"/>
<polygon fill="midnightblue" stroke="midnightblue" points="963,-57.3959 966.5,-67.396 970,-57.396 963,-57.3959"/>
</g>
<!-- Node9 -->
<g id="node9" class="node"><title>Node9</title>
<g id="a_node9"><a xlink:href="runTPCQCPID_8cxx.html" target="_top" xlink:title="run TPC PID QC task, reading tracks from file for the moment ">
<polygon fill="none" stroke="black" points="1410.5,-6 1410.5,-25 1580.5,-25 1580.5,-6 1410.5,-6"/>
<text text-anchor="middle" x="1495.5" y="-13" font-family="Helvetica,sans-Serif" font-size="10.00">Framework/src/runTPCQCPID.cxx</text>
</a>
</g>
</g>
<!-- Node3&#45;&gt;Node9 -->
<g id="edge8" class="edge"><title>Node3&#45;&gt;Node9</title>
<path fill="none" stroke="midnightblue" d="M1042.95,-68.7519C1047.19,-68.1359 1051.4,-67.5472 1055.5,-67 1208.75,-46.5609 1248.16,-50.7912 1401.5,-31 1415.09,-29.2456 1429.75,-27.1046 1443.36,-25.0121"/>
<polygon fill="midnightblue" stroke="midnightblue" points="1042.39,-65.2964 1033.02,-70.2318 1043.43,-72.22 1042.39,-65.2964"/>
</g>
<!-- Node10 -->
<g id="node10" class="node"><title>Node10</title>
<g id="a_node10"><a xlink:href="testCheckRunner_8cxx.html" target="_top" xlink:title="Framework/test/testCheck\lRunner.cxx">
<polygon fill="none" stroke="black" points="332,-0.5 332,-30.5 465,-30.5 465,-0.5 332,-0.5"/>
<text text-anchor="start" x="340" y="-18.5" font-family="Helvetica,sans-Serif" font-size="10.00">Framework/test/testCheck</text>
<text text-anchor="middle" x="398.5" y="-7.5" font-family="Helvetica,sans-Serif" font-size="10.00">Runner.cxx</text>
</a>
</g>
</g>
<!-- Node3&#45;&gt;Node10 -->
<g id="edge9" class="edge"><title>Node3&#45;&gt;Node10</title>
<path fill="none" stroke="midnightblue" d="M889.691,-70.701C879.545,-69.3892 869.278,-68.1192 859.5,-67 688.757,-47.4567 644.655,-55.1312 474.5,-31 471.441,-30.5662 468.318,-30.0933 465.168,-29.5918"/>
<polygon fill="midnightblue" stroke="midnightblue" points="889.402,-74.193 899.772,-72.0228 890.312,-67.2524 889.402,-74.193"/>
</g>
<!-- Node11 -->
<g id="node11" class="node"><title>Node11</title>
<g id="a_node11"><a xlink:href="testCheckWorkflow_8cxx.html" target="_top" xlink:title="Framework/test/testCheck\lWorkflow.cxx">
<polygon fill="none" stroke="black" points="1599,-0.5 1599,-30.5 1732,-30.5 1732,-0.5 1599,-0.5"/>
<text text-anchor="start" x="1607" y="-18.5" font-family="Helvetica,sans-Serif" font-size="10.00">Framework/test/testCheck</text>
<text text-anchor="middle" x="1665.5" y="-7.5" font-family="Helvetica,sans-Serif" font-size="10.00">Workflow.cxx</text>
</a>
</g>
</g>
<!-- Node3&#45;&gt;Node11 -->
<g id="edge10" class="edge"><title>Node3&#45;&gt;Node11</title>
<path fill="none" stroke="midnightblue" d="M1043.55,-68.4892C1047.58,-67.9508 1051.59,-67.4496 1055.5,-67 1291.82,-39.8448 1353.57,-61.3454 1589.5,-31 1592.56,-30.6059 1595.69,-30.1655 1598.85,-29.6904"/>
<polygon fill="midnightblue" stroke="midnightblue" points="1042.89,-65.047 1033.47,-69.8959 1043.86,-71.9797 1042.89,-65.047"/>
</g>
<!-- Node12 -->
<g id="node12" class="node"><title>Node12</title>
<g id="a_node12"><a xlink:href="testWorkflow_8cxx.html" target="_top" xlink:title="Framework/test/testWorkflow.cxx">
<polygon fill="none" stroke="black" points="1750.5,-6 1750.5,-25 1914.5,-25 1914.5,-6 1750.5,-6"/>
<text text-anchor="middle" x="1832.5" y="-13" font-family="Helvetica,sans-Serif" font-size="10.00">Framework/test/testWorkflow.cxx</text>
</a>
</g>
</g>
<!-- Node3&#45;&gt;Node12 -->
<g id="edge11" class="edge"><title>Node3&#45;&gt;Node12</title>
<path fill="none" stroke="midnightblue" d="M1043.54,-68.4185C1047.58,-67.8986 1051.58,-67.4206 1055.5,-67 1358.62,-34.4404 1437.3,-62.7745 1740.5,-31 1754.81,-29.5001 1770.29,-27.2906 1784.4,-25.0461"/>
<polygon fill="midnightblue" stroke="midnightblue" points="1042.89,-64.9738 1033.46,-69.7889 1043.84,-71.91 1042.89,-64.9738"/>
</g>
<!-- Node13 -->
<g id="node13" class="node"><title>Node13</title>
<polygon fill="none" stroke="#bfbfbf" points="483.5,-6 483.5,-25 701.5,-25 701.5,-6 483.5,-6"/>
<text text-anchor="middle" x="592.5" y="-13" font-family="Helvetica,sans-Serif" font-size="10.00">Modules/EMCAL/src/runQCEMCALDigits.cxx</text>
</g>
<!-- Node3&#45;&gt;Node13 -->
<g id="edge12" class="edge"><title>Node3&#45;&gt;Node13</title>
<path fill="none" stroke="midnightblue" d="M889.385,-68.0976C814.981,-55.1664 704.607,-35.9838 641.505,-25.0169"/>
<polygon fill="midnightblue" stroke="midnightblue" points="889.185,-71.6152 899.636,-69.8793 890.383,-64.7186 889.185,-71.6152"/>
</g>
<!-- Node14 -->
<g id="node14" class="node"><title>Node14</title>
<g id="a_node14"><a xlink:href="runTOF_8cxx.html" target="_top" xlink:title="This is an executable showing QC Task&#39;s usage in Data Processing Layer. ">
<polygon fill="none" stroke="black" points="1933,-6 1933,-25 2080,-25 2080,-6 1933,-6"/>
<text text-anchor="middle" x="2006.5" y="-13" font-family="Helvetica,sans-Serif" font-size="10.00">Modules/TOF/src/runTOF.cxx</text>
</a>
</g>
</g>
<!-- Node3&#45;&gt;Node14 -->
<g id="edge13" class="edge"><title>Node3&#45;&gt;Node14</title>
<path fill="none" stroke="midnightblue" d="M1043.53,-68.3657C1047.57,-67.8595 1051.58,-67.399 1055.5,-67 1439.62,-27.8861 1539.61,-72.3125 1923.5,-31 1936.74,-29.5757 1951.05,-27.3318 1964,-25.031"/>
<polygon fill="midnightblue" stroke="midnightblue" points="1042.9,-64.9192 1033.45,-69.709 1043.82,-71.8579 1042.9,-64.9192"/>
</g>
<!-- Node15&#45;&gt;Node5 -->
<g id="edge15" class="edge"><title>Node15&#45;&gt;Node5</title>
<path fill="none" stroke="midnightblue" d="M645.645,-64.2278C677.998,-53.7131 718.805,-40.4508 749.188,-30.5765"/>
<polygon fill="midnightblue" stroke="midnightblue" points="644.326,-60.9764 635.897,-67.396 646.489,-67.6337 644.326,-60.9764"/>
</g>
<!-- Node15&#45;&gt;Node6 -->
<g id="edge16" class="edge"><title>Node15&#45;&gt;Node6</title>
<path fill="none" stroke="midnightblue" d="M506.366,-73.2309C417.511,-64.3219 275.015,-48.9784 152.5,-31 149.39,-30.5437 146.217,-30.0587 143.014,-29.5534"/>
<polygon fill="midnightblue" stroke="midnightblue" points="506.098,-76.7215 516.396,-74.2321 506.793,-69.7561 506.098,-76.7215"/>
</g>
<!-- Node15&#45;&gt;Node8 -->
<g id="edge17" class="edge"><title>Node15&#45;&gt;Node8</title>
<path fill="none" stroke="midnightblue" d="M678.881,-66.4873C752.953,-53.6137 857.021,-35.527 917.546,-25.0081"/>
<polygon fill="midnightblue" stroke="midnightblue" points="677.888,-63.1072 668.635,-68.2679 679.087,-70.0039 677.888,-63.1072"/>
</g>
<!-- Node15&#45;&gt;Node10 -->
<g id="edge19" class="edge"><title>Node15&#45;&gt;Node10</title>
<path fill="none" stroke="midnightblue" d="M540.543,-64.0917C509.226,-53.5988 469.857,-40.4082 440.513,-30.5765"/>
<polygon fill="midnightblue" stroke="midnightblue" points="539.811,-67.5376 550.405,-67.396 542.035,-60.9003 539.811,-67.5376"/>
</g>
<!-- Node15&#45;&gt;Node13 -->
<g id="edge20" class="edge"><title>Node15&#45;&gt;Node13</title>
<path fill="none" stroke="midnightblue" d="M592.5,-57.2495C592.5,-46.017 592.5,-33.3767 592.5,-25.1945"/>
<polygon fill="midnightblue" stroke="midnightblue" points="589,-57.3959 592.5,-67.396 596,-57.396 589,-57.3959"/>
</g>
<!-- Node16 -->
<g id="node16" class="node"><title>Node16</title>
<polygon fill="none" stroke="#bfbfbf" points="161.5,-6 161.5,-25 313.5,-25 313.5,-6 161.5,-6"/>
<text text-anchor="middle" x="237.5" y="-13" font-family="Helvetica,sans-Serif" font-size="10.00">Framework/test/testCheck.cxx</text>
</g>
<!-- Node15&#45;&gt;Node16 -->
<g id="edge18" class="edge"><title>Node15&#45;&gt;Node16</title>
<path fill="none" stroke="midnightblue" d="M506.212,-65.7008C436.213,-52.8841 340.227,-35.3093 283.942,-25.0035"/>
<polygon fill="midnightblue" stroke="midnightblue" points="505.877,-69.1975 516.344,-67.5559 507.138,-62.312 505.877,-69.1975"/>
</g>
<!-- Node21 -->
<g id="node21" class="node"><title>Node21</title>
<g id="a_node21"><a xlink:href="MeanIsAbove_8cxx.html" target="_top" xlink:title="Modules/Common/src\l/MeanIsAbove.cxx">
<polygon fill="none" stroke="black" points="1199,-67.5 1199,-97.5 1312,-97.5 1312,-67.5 1199,-67.5"/>
<text text-anchor="start" x="1207" y="-85.5" font-family="Helvetica,sans-Serif" font-size="10.00">Modules/Common/src</text>
<text text-anchor="middle" x="1255.5" y="-74.5" font-family="Helvetica,sans-Serif" font-size="10.00">/MeanIsAbove.cxx</text>
</a>
</g>
</g>
<!-- Node20&#45;&gt;Node21 -->
<g id="edge27" class="edge"><title>Node20&#45;&gt;Node21</title>
<path fill="none" stroke="midnightblue" d="M1348.92,-129.853C1328.21,-119.576 1302.91,-107.025 1283.87,-97.5765"/>
<polygon fill="midnightblue" stroke="midnightblue" points="1347.56,-133.086 1358.07,-134.396 1350.67,-126.816 1347.56,-133.086"/>
</g>
<!-- Node22 -->
<g id="node22" class="node"><title>Node22</title>
<polygon fill="none" stroke="#bfbfbf" points="1064.5,-67.5 1064.5,-97.5 1180.5,-97.5 1180.5,-67.5 1064.5,-67.5"/>
<text text-anchor="start" x="1072.5" y="-85.5" font-family="Helvetica,sans-Serif" font-size="10.00">Modules/Common/test</text>
<text text-anchor="middle" x="1122.5" y="-74.5" font-family="Helvetica,sans-Serif" font-size="10.00">/testMeanIsAbove.cxx</text>
</g>
<!-- Node20&#45;&gt;Node22 -->
<g id="edge28" class="edge"><title>Node20&#45;&gt;Node22</title>
<path fill="none" stroke="midnightblue" d="M1319.69,-132.052C1276.53,-121.425 1220.96,-107.741 1179.81,-97.6109"/>
<polygon fill="midnightblue" stroke="midnightblue" points="1318.99,-135.484 1329.54,-134.476 1320.67,-128.687 1318.99,-135.484"/>
</g>
<!-- Node24 -->
<g id="node24" class="node"><title>Node24</title>
<g id="a_node24"><a xlink:href="NonEmpty_8cxx.html" target="_top" xlink:title="Modules/Common/src\l/NonEmpty.cxx">
<polygon fill="none" stroke="black" points="1465,-67.5 1465,-97.5 1578,-97.5 1578,-67.5 1465,-67.5"/>
<text text-anchor="start" x="1473" y="-85.5" font-family="Helvetica,sans-Serif" font-size="10.00">Modules/Common/src</text>
<text text-anchor="middle" x="1521.5" y="-74.5" font-family="Helvetica,sans-Serif" font-size="10.00">/NonEmpty.cxx</text>
</a>
</g>
</g>
<!-- Node23&#45;&gt;Node24 -->
<g id="edge30" class="edge"><title>Node23&#45;&gt;Node24</title>
<path fill="none" stroke="midnightblue" d="M1530.31,-124.403C1528.36,-115.37 1526.22,-105.408 1524.53,-97.5765"/>
<polygon fill="midnightblue" stroke="midnightblue" points="1526.94,-125.357 1532.46,-134.396 1533.78,-123.883 1526.94,-125.357"/>
</g>
<!-- Node25 -->
<g id="node25" class="node"><title>Node25</title>
<g id="a_node25"><a xlink:href="testNonEmpty_8cxx.html" target="_top" xlink:title="Modules/Common/test\l/testNonEmpty.cxx">
<polygon fill="none" stroke="black" points="1330.5,-67.5 1330.5,-97.5 1446.5,-97.5 1446.5,-67.5 1330.5,-67.5"/>
<text text-anchor="start" x="1338.5" y="-85.5" font-family="Helvetica,sans-Serif" font-size="10.00">Modules/Common/test</text>
<text text-anchor="middle" x="1388.5" y="-74.5" font-family="Helvetica,sans-Serif" font-size="10.00">/testNonEmpty.cxx</text>
</a>
</g>
</g>
<!-- Node23&#45;&gt;Node25 -->
<g id="edge31" class="edge"><title>Node23&#45;&gt;Node25</title>
<path fill="none" stroke="midnightblue" d="M1494.27,-130.269C1470.86,-119.916 1441.99,-107.153 1420.33,-97.5765"/>
<polygon fill="midnightblue" stroke="midnightblue" points="1493.04,-133.553 1503.6,-134.396 1495.87,-127.151 1493.04,-133.553"/>
</g>
<!-- Node27 -->
<g id="node27" class="node"><title>Node27</title>
<g id="a_node27"><a xlink:href="EverIncreasingGraph_8cxx.html" target="_top" xlink:title="Modules/Daq/src/EverIncreasing\lGraph.cxx">
<polygon fill="none" stroke="black" points="1596,-67.5 1596,-97.5 1755,-97.5 1755,-67.5 1596,-67.5"/>
<text text-anchor="start" x="1604" y="-85.5" font-family="Helvetica,sans-Serif" font-size="10.00">Modules/Daq/src/EverIncreasing</text>
<text text-anchor="middle" x="1675.5" y="-74.5" font-family="Helvetica,sans-Serif" font-size="10.00">Graph.cxx</text>
</a>
</g>
</g>
<!-- Node26&#45;&gt;Node27 -->
<g id="edge33" class="edge"><title>Node26&#45;&gt;Node27</title>
<path fill="none" stroke="midnightblue" d="M1683.68,-124.403C1681.87,-115.37 1679.88,-105.408 1678.32,-97.5765"/>
<polygon fill="midnightblue" stroke="midnightblue" points="1680.29,-125.277 1685.68,-134.396 1687.15,-123.904 1680.29,-125.277"/>
</g>
<!-- Node29 -->
<g id="node29" class="node"><title>Node29</title>
<g id="a_node29"><a xlink:href="DigitCheck_8cxx.html" target="_top" xlink:title="Modules/EMCAL/src/DigitCheck.cxx">
<polygon fill="none" stroke="black" points="1772.5,-73 1772.5,-92 1950.5,-92 1950.5,-73 1772.5,-73"/>
<text text-anchor="middle" x="1861.5" y="-80" font-family="Helvetica,sans-Serif" font-size="10.00">Modules/EMCAL/src/DigitCheck.cxx</text>
</a>
</g>
</g>
<!-- Node28&#45;&gt;Node29 -->
<g id="edge35" class="edge"><title>Node28&#45;&gt;Node29</title>
<path fill="none" stroke="midnightblue" d="M1847.59,-124.596C1851.42,-113.278 1855.76,-100.461 1858.56,-92.1945"/>
<polygon fill="midnightblue" stroke="midnightblue" points="1844.16,-123.802 1844.27,-134.396 1850.79,-126.046 1844.16,-123.802"/>
</g>
<!-- Node31 -->
<g id="node31" class="node"><title>Node31</title>
<g id="a_node31"><a xlink:href="FakeCheck_8cxx.html" target="_top" xlink:title="Modules/Example/src\l/FakeCheck.cxx">
<polygon fill="none" stroke="black" points="1968,-67.5 1968,-97.5 2079,-97.5 2079,-67.5 1968,-67.5"/>
<text text-anchor="start" x="1976" y="-85.5" font-family="Helvetica,sans-Serif" font-size="10.00">Modules/Example/src</text>
<text text-anchor="middle" x="2023.5" y="-74.5" font-family="Helvetica,sans-Serif" font-size="10.00">/FakeCheck.cxx</text>
</a>
</g>
</g>
<!-- Node30&#45;&gt;Node31 -->
<g id="edge37" class="edge"><title>Node30&#45;&gt;Node31</title>
<path fill="none" stroke="midnightblue" d="M1998.25,-125.576C2003.86,-116.241 2010.15,-105.748 2015.05,-97.5765"/>
<polygon fill="midnightblue" stroke="midnightblue" points="1995.11,-124.02 1992.96,-134.396 2001.11,-127.622 1995.11,-124.02"/>
</g>
<!-- Node33 -->
<g id="node33" class="node"><title>Node33</title>
<g id="a_node33"><a xlink:href="SkeletonCheck_8cxx.html" target="_top" xlink:title="Modules/Skeleton/src\l/SkeletonCheck.cxx">
<polygon fill="none" stroke="black" points="2097,-67.5 2097,-97.5 2208,-97.5 2208,-67.5 2097,-67.5"/>
<text text-anchor="start" x="2105" y="-85.5" font-family="Helvetica,sans-Serif" font-size="10.00">Modules/Skeleton/src</text>
<text text-anchor="middle" x="2152.5" y="-74.5" font-family="Helvetica,sans-Serif" font-size="10.00">/SkeletonCheck.cxx</text>
</a>
</g>
</g>
<!-- Node32&#45;&gt;Node33 -->
<g id="edge39" class="edge"><title>Node32&#45;&gt;Node33</title>
<path fill="none" stroke="midnightblue" d="M2141.09,-124.697C2143.61,-115.587 2146.41,-105.493 2148.6,-97.5765"/>
<polygon fill="midnightblue" stroke="midnightblue" points="2137.7,-123.825 2138.41,-134.396 2144.45,-125.693 2137.7,-123.825"/>
</g>
<!-- Node35 -->
<g id="node35" class="node"><title>Node35</title>
<g id="a_node35"><a xlink:href="TOFCheckRawsMulti_8cxx.html" target="_top" xlink:title="Modules/TOF/src/TOFCheck\lRawsMulti.cxx">
<polygon fill="none" stroke="black" points="2226,-67.5 2226,-97.5 2369,-97.5 2369,-67.5 2226,-67.5"/>
<text text-anchor="start" x="2234" y="-85.5" font-family="Helvetica,sans-Serif" font-size="10.00">Modules/TOF/src/TOFCheck</text>
<text text-anchor="middle" x="2297.5" y="-74.5" font-family="Helvetica,sans-Serif" font-size="10.00">RawsMulti.cxx</text>
</a>
</g>
</g>
<!-- Node34&#45;&gt;Node35 -->
<g id="edge41" class="edge"><title>Node34&#45;&gt;Node35</title>
<path fill="none" stroke="midnightblue" d="M2294.98,-124.403C2295.54,-115.37 2296.15,-105.408 2296.63,-97.5765"/>
<polygon fill="midnightblue" stroke="midnightblue" points="2291.49,-124.2 2294.37,-134.396 2298.48,-124.63 2291.49,-124.2"/>
</g>
<!-- Node37 -->
<g id="node37" class="node"><title>Node37</title>
<g id="a_node37"><a xlink:href="TOFCheckRawsTime_8cxx.html" target="_top" xlink:title="Modules/TOF/src/TOFCheck\lRawsTime.cxx">
<polygon fill="none" stroke="black" points="2387,-67.5 2387,-97.5 2530,-97.5 2530,-67.5 2387,-67.5"/>
<text text-anchor="start" x="2395" y="-85.5" font-family="Helvetica,sans-Serif" font-size="10.00">Modules/TOF/src/TOFCheck</text>
<text text-anchor="middle" x="2458.5" y="-74.5" font-family="Helvetica,sans-Serif" font-size="10.00">RawsTime.cxx</text>
</a>
</g>
</g>
<!-- Node36&#45;&gt;Node37 -->
<g id="edge43" class="edge"><title>Node36&#45;&gt;Node37</title>
<path fill="none" stroke="midnightblue" d="M2457.88,-124.108C2458.01,-115.154 2458.16,-105.323 2458.28,-97.5765"/>
<polygon fill="midnightblue" stroke="midnightblue" points="2454.37,-124.343 2457.72,-134.396 2461.37,-124.451 2454.37,-124.343"/>
</g>
<!-- Node39 -->
<g id="node39" class="node"><title>Node39</title>
<g id="a_node39"><a xlink:href="TOFCheckRawsToT_8cxx.html" target="_top" xlink:title="Modules/TOF/src/TOFCheck\lRawsToT.cxx">
<polygon fill="none" stroke="black" points="2548,-67.5 2548,-97.5 2691,-97.5 2691,-67.5 2548,-67.5"/>
<text text-anchor="start" x="2556" y="-85.5" font-family="Helvetica,sans-Serif" font-size="10.00">Modules/TOF/src/TOFCheck</text>
<text text-anchor="middle" x="2619.5" y="-74.5" font-family="Helvetica,sans-Serif" font-size="10.00">RawsToT.cxx</text>
</a>
</g>
</g>
<!-- Node38&#45;&gt;Node39 -->
<g id="edge45" class="edge"><title>Node38&#45;&gt;Node39</title>
<path fill="none" stroke="midnightblue" d="M2619.5,-124.108C2619.5,-115.154 2619.5,-105.323 2619.5,-97.5765"/>
<polygon fill="midnightblue" stroke="midnightblue" points="2616,-124.396 2619.5,-134.396 2623,-124.396 2616,-124.396"/>
</g>
</g>
</svg>
