<?xml version="1.0" encoding="UTF-8" standalone="no"?>
<!DOCTYPE svg PUBLIC "-//W3C//DTD SVG 1.1//EN"
 "http://www.w3.org/Graphics/SVG/1.1/DTD/svg11.dtd">
<!-- Generated by graphviz version 2.38.0 (20140413.2041)
 -->
<!-- Title: Framework/include/QualityControl/CheckRunner.h Pages: 1 -->
<svg width="1443pt" height="319pt"
 viewBox="0.00 0.00 1443.38 319.00" xmlns="http://www.w3.org/2000/svg" xmlns:xlink="http://www.w3.org/1999/xlink">
<g id="graph0" class="graph" transform="scale(1 1) rotate(0) translate(4 315)">
<title>Framework/include/QualityControl/CheckRunner.h</title>
<!-- Node1 -->
<g id="node1" class="node"><title>Node1</title>
<polygon fill="#bfbfbf" stroke="black" points="617.5,-280.5 617.5,-310.5 750.5,-310.5 750.5,-280.5 617.5,-280.5"/>
<text text-anchor="start" x="625.5" y="-298.5" font-family="Helvetica,sans-Serif" font-size="10.00">Framework/include/Quality</text>
<text text-anchor="middle" x="684" y="-287.5" font-family="Helvetica,sans-Serif" font-size="10.00">Control/CheckRunner.h</text>
</g>
<!-- Node2 -->
<g id="node2" class="node"><title>Node2</title>
<polygon fill="none" stroke="#bfbfbf" points="0,-224.5 0,-243.5 46,-243.5 46,-224.5 0,-224.5"/>
<text text-anchor="middle" x="23" y="-231.5" font-family="Helvetica,sans-Serif" font-size="10.00">chrono</text>
</g>
<!-- Node1&#45;&gt;Node2 -->
<g id="edge1" class="edge"><title>Node1&#45;&gt;Node2</title>
<path fill="none" stroke="midnightblue" d="M617.094,-292.548C502.411,-288.431 261.196,-276.403 60,-244 58.7517,-243.799 57.4835,-243.578 56.2052,-243.34"/>
<polygon fill="midnightblue" stroke="midnightblue" points="56.8803,-239.906 46.3744,-241.276 55.4415,-246.757 56.8803,-239.906"/>
</g>
<!-- Node3 -->
<g id="node3" class="node"><title>Node3</title>
<polygon fill="none" stroke="#bfbfbf" points="412,-168.5 412,-187.5 464,-187.5 464,-168.5 412,-168.5"/>
<text text-anchor="middle" x="438" y="-175.5" font-family="Helvetica,sans-Serif" font-size="10.00">memory</text>
</g>
<!-- Node1&#45;&gt;Node3 -->
<g id="edge2" class="edge"><title>Node1&#45;&gt;Node3</title>
<path fill="none" stroke="midnightblue" d="M617.432,-294.021C531.72,-291.827 389.857,-282.321 357,-244 338.626,-222.571 373.019,-203.042 402.511,-191.104"/>
<polygon fill="midnightblue" stroke="midnightblue" points="403.773,-194.368 411.841,-187.502 401.251,-187.838 403.773,-194.368"/>
</g>
<!-- Node4 -->
<g id="node4" class="node"><title>Node4</title>
<polygon fill="none" stroke="#bfbfbf" points="535.5,-0.5 535.5,-19.5 576.5,-19.5 576.5,-0.5 535.5,-0.5"/>
<text text-anchor="middle" x="556" y="-7.5" font-family="Helvetica,sans-Serif" font-size="10.00">string</text>
</g>
<!-- Node1&#45;&gt;Node4 -->
<g id="edge3" class="edge"><title>Node1&#45;&gt;Node4</title>
<path fill="none" stroke="midnightblue" d="M617.369,-292.181C474.995,-286.723 150.641,-271.414 109,-244 81.5952,-225.958 74,-211.811 74,-179 74,-179 74,-179 74,-121 74,-28.06 418.932,-13.6457 525.208,-11.4103"/>
<polygon fill="midnightblue" stroke="midnightblue" points="525.357,-14.9082 535.289,-11.2204 525.225,-7.90944 525.357,-14.9082"/>
</g>
<!-- Node5 -->
<g id="node5" class="node"><title>Node5</title>
<polygon fill="none" stroke="#bfbfbf" points="1048.5,-56.5 1048.5,-75.5 1083.5,-75.5 1083.5,-56.5 1048.5,-56.5"/>
<text text-anchor="middle" x="1066" y="-63.5" font-family="Helvetica,sans-Serif" font-size="10.00">map</text>
</g>
<!-- Node1&#45;&gt;Node5 -->
<g id="edge4" class="edge"><title>Node1&#45;&gt;Node5</title>
<path fill="none" stroke="midnightblue" d="M750.701,-293.294C857.529,-290.309 1073.17,-279.946 1252,-244 1332.48,-227.824 1379.55,-254.262 1428,-188 1439.9,-171.722 1436.96,-130.042 1418,-112 1371.63,-67.8766 1168.65,-65.7337 1093.82,-66.4919"/>
<polygon fill="midnightblue" stroke="midnightblue" points="1093.7,-62.993 1083.75,-66.6201 1093.79,-69.9925 1093.7,-62.993"/>
</g>
<!-- Node6 -->
<g id="node6" class="node"><title>Node6</title>
<polygon fill="none" stroke="#bfbfbf" points="620,-168.5 620,-187.5 664,-187.5 664,-168.5 620,-168.5"/>
<text text-anchor="middle" x="642" y="-175.5" font-family="Helvetica,sans-Serif" font-size="10.00">vector</text>
</g>
<!-- Node1&#45;&gt;Node6 -->
<g id="edge5" class="edge"><title>Node1&#45;&gt;Node6</title>
<path fill="none" stroke="midnightblue" d="M750.574,-292.944C829.691,-289.525 954.711,-278.631 984,-244 989.74,-237.213 989.913,-230.637 984,-224 939.618,-174.184 757.069,-199.448 674.295,-187.664"/>
<polygon fill="midnightblue" stroke="midnightblue" points="674.688,-184.18 664.24,-185.94 673.505,-191.08 674.688,-184.18"/>
</g>
<!-- Node7 -->
<g id="node7" class="node"><title>Node7</title>
<polygon fill="none" stroke="#bfbfbf" points="366,-224.5 366,-243.5 444,-243.5 444,-224.5 366,-224.5"/>
<text text-anchor="middle" x="405" y="-231.5" font-family="Helvetica,sans-Serif" font-size="10.00">unordered_set</text>
</g>
<!-- Node1&#45;&gt;Node7 -->
<g id="edge6" class="edge"><title>Node1&#45;&gt;Node7</title>
<path fill="none" stroke="midnightblue" d="M618.234,-280.475C567.91,-269.742 499.62,-255.179 454.018,-245.454"/>
<polygon fill="midnightblue" stroke="midnightblue" points="454.588,-241.997 444.078,-243.334 453.128,-248.843 454.588,-241.997"/>
</g>
<!-- Node8 -->
<g id="node8" class="node"><title>Node8</title>
<polygon fill="none" stroke="#bfbfbf" points="462,-224.5 462,-243.5 554,-243.5 554,-224.5 462,-224.5"/>
<text text-anchor="middle" x="508" y="-231.5" font-family="Helvetica,sans-Serif" font-size="10.00">Common/Timer.h</text>
</g>
<!-- Node1&#45;&gt;Node8 -->
<g id="edge7" class="edge"><title>Node1&#45;&gt;Node8</title>
<path fill="none" stroke="midnightblue" d="M642.29,-280.399C612.011,-270.163 571.509,-256.47 542.928,-246.808"/>
<polygon fill="midnightblue" stroke="midnightblue" points="543.947,-243.458 533.353,-243.571 541.705,-250.089 543.947,-243.458"/>
</g>
<!-- Node9 -->
<g id="node9" class="node"><title>Node9</title>
<polygon fill="none" stroke="#bfbfbf" points="572,-224.5 572,-243.5 670,-243.5 670,-224.5 572,-224.5"/>
<text text-anchor="middle" x="621" y="-231.5" font-family="Helvetica,sans-Serif" font-size="10.00">Framework/Task.h</text>
</g>
<!-- Node1&#45;&gt;Node9 -->
<g id="edge8" class="edge"><title>Node1&#45;&gt;Node9</title>
<path fill="none" stroke="midnightblue" d="M669.07,-280.399C659.632,-271.486 647.42,-259.952 637.667,-250.741"/>
<polygon fill="midnightblue" stroke="midnightblue" points="639.84,-247.979 630.167,-243.658 635.034,-253.069 639.84,-247.979"/>
</g>
<!-- Node10 -->
<g id="node10" class="node"><title>Node10</title>
<polygon fill="none" stroke="#bfbfbf" points="688.5,-224.5 688.5,-243.5 805.5,-243.5 805.5,-224.5 688.5,-224.5"/>
<text text-anchor="middle" x="747" y="-231.5" font-family="Helvetica,sans-Serif" font-size="10.00">Headers/DataHeader.h</text>
</g>
<!-- Node1&#45;&gt;Node10 -->
<g id="edge9" class="edge"><title>Node1&#45;&gt;Node10</title>
<path fill="none" stroke="midnightblue" d="M698.93,-280.399C708.368,-271.486 720.58,-259.952 730.333,-250.741"/>
<polygon fill="midnightblue" stroke="midnightblue" points="732.966,-253.069 737.833,-243.658 728.16,-247.979 732.966,-253.069"/>
</g>
<!-- Node11 -->
<g id="node11" class="node"><title>Node11</title>
<polygon fill="none" stroke="#bfbfbf" points="823.5,-224.5 823.5,-243.5 974.5,-243.5 974.5,-224.5 823.5,-224.5"/>
<text text-anchor="middle" x="899" y="-231.5" font-family="Helvetica,sans-Serif" font-size="10.00">Monitoring/MonitoringFactory.h</text>
</g>
<!-- Node1&#45;&gt;Node11 -->
<g id="edge10" class="edge"><title>Node1&#45;&gt;Node11</title>
<path fill="none" stroke="midnightblue" d="M734.68,-280.475C772.42,-270.03 823.271,-255.958 858.36,-246.247"/>
<polygon fill="midnightblue" stroke="midnightblue" points="859.558,-249.547 868.263,-243.506 857.691,-242.8 859.558,-249.547"/>
</g>
<!-- Node12 -->
<g id="node12" class="node"><title>Node12</title>
<polygon fill="none" stroke="#bfbfbf" points="682,-168.5 682,-187.5 846,-187.5 846,-168.5 682,-168.5"/>
<text text-anchor="middle" x="764" y="-175.5" font-family="Helvetica,sans-Serif" font-size="10.00">Framework/DataProcessorSpec.h</text>
</g>
<!-- Node1&#45;&gt;Node12 -->
<g id="edge11" class="edge"><title>Node1&#45;&gt;Node12</title>
<path fill="none" stroke="midnightblue" d="M750.841,-293.595C833.922,-290.889 968.635,-280.776 1000,-244 1005.77,-237.237 1005.67,-230.849 1000,-224 989.794,-211.664 906.941,-197.939 842.252,-188.928"/>
<polygon fill="midnightblue" stroke="midnightblue" points="842.423,-185.418 832.04,-187.523 841.469,-192.353 842.423,-185.418"/>
</g>
<!-- Node13 -->
<g id="node13" class="node"><title>Node13</title>
<g id="a_node13"><a xlink:href="CheckInterface_8h.html" target="_top" xlink:title="QualityControl/CheckInterface.h">
<polygon fill="none" stroke="black" points="1094.5,-168.5 1094.5,-187.5 1251.5,-187.5 1251.5,-168.5 1094.5,-168.5"/>
<text text-anchor="middle" x="1173" y="-175.5" font-family="Helvetica,sans-Serif" font-size="10.00">QualityControl/CheckInterface.h</text>
</a>
</g>
</g>
<!-- Node1&#45;&gt;Node13 -->
<g id="edge12" class="edge"><title>Node1&#45;&gt;Node13</title>
<path fill="none" stroke="midnightblue" d="M750.606,-292.842C882.87,-288.86 1168.49,-276.551 1198,-244 1210.37,-230.351 1199.16,-209.922 1188.05,-195.62"/>
<polygon fill="midnightblue" stroke="midnightblue" points="1190.47,-193.047 1181.37,-187.621 1185.1,-197.538 1190.47,-193.047"/>
</g>
<!-- Node15 -->
<g id="node15" class="node"><title>Node15</title>
<g id="a_node15"><a xlink:href="MonitorObject_8h.html" target="_top" xlink:title="QualityControl/MonitorObject.h">
<polygon fill="none" stroke="black" points="604.5,-112.5 604.5,-131.5 755.5,-131.5 755.5,-112.5 604.5,-112.5"/>
<text text-anchor="middle" x="680" y="-119.5" font-family="Helvetica,sans-Serif" font-size="10.00">QualityControl/MonitorObject.h</text>
</a>
</g>
</g>
<!-- Node1&#45;&gt;Node15 -->
<g id="edge38" class="edge"><title>Node1&#45;&gt;Node15</title>
<path fill="none" stroke="midnightblue" d="M617.454,-293.343C477.574,-290.221 163.234,-279.312 131,-244 76.2169,-183.986 57.4828,-222.069 241,-168 360.061,-132.921 504.241,-124.219 594.066,-122.558"/>
<polygon fill="midnightblue" stroke="midnightblue" points="594.262,-126.055 604.205,-122.396 594.151,-119.056 594.262,-126.055"/>
</g>
<!-- Node19 -->
<g id="node19" class="node"><title>Node19</title>
<g id="a_node19"><a xlink:href="DatabaseInterface_8h.html" target="_top" xlink:title="QualityControl/DatabaseInterface.h">
<polygon fill="none" stroke="black" points="140,-224.5 140,-243.5 310,-243.5 310,-224.5 140,-224.5"/>
<text text-anchor="middle" x="225" y="-231.5" font-family="Helvetica,sans-Serif" font-size="10.00">QualityControl/DatabaseInterface.h</text>
</a>
</g>
</g>
<!-- Node1&#45;&gt;Node19 -->
<g id="edge26" class="edge"><title>Node1&#45;&gt;Node19</title>
<path fill="none" stroke="midnightblue" d="M617.257,-285.848C533.104,-274.939 388.8,-256.233 300.643,-244.806"/>
<polygon fill="midnightblue" stroke="midnightblue" points="301.074,-241.332 290.707,-243.518 300.174,-248.274 301.074,-241.332"/>
</g>
<!-- Node23 -->
<g id="node23" class="node"><title>Node23</title>
<g id="a_node23"><a xlink:href="QcInfoLogger_8h.html" target="_top" xlink:title="QualityControl/QcInfoLogger.h">
<polygon fill="none" stroke="black" points="1269.5,-168.5 1269.5,-187.5 1418.5,-187.5 1418.5,-168.5 1269.5,-168.5"/>
<text text-anchor="middle" x="1344" y="-175.5" font-family="Helvetica,sans-Serif" font-size="10.00">QualityControl/QcInfoLogger.h</text>
</a>
</g>
</g>
<!-- Node1&#45;&gt;Node23 -->
<g id="edge39" class="edge"><title>Node1&#45;&gt;Node23</title>
<path fill="none" stroke="midnightblue" d="M750.82,-291.196C873.228,-284.638 1128.71,-268.464 1214,-244 1254.43,-232.403 1297.33,-208.347 1322.34,-192.976"/>
<polygon fill="midnightblue" stroke="midnightblue" points="1324.39,-195.825 1331.01,-187.554 1320.67,-189.89 1324.39,-195.825"/>
</g>
<!-- Node25 -->
<g id="node25" class="node"><title>Node25</title>
<g id="a_node25"><a xlink:href="Check_8h_source.html" target="_top" xlink:title="QualityControl/Check.h">
<polygon fill="none" stroke="black" points="1069.5,-224.5 1069.5,-243.5 1188.5,-243.5 1188.5,-224.5 1069.5,-224.5"/>
<text text-anchor="middle" x="1129" y="-231.5" font-family="Helvetica,sans-Serif" font-size="10.00">QualityControl/Check.h</text>
</a>
</g>
</g>
<!-- Node1&#45;&gt;Node25 -->
<g id="edge41" class="edge"><title>Node1&#45;&gt;Node25</title>
<path fill="none" stroke="midnightblue" d="M750.621,-285.592C833.682,-274.486 974.986,-255.593 1059.41,-244.305"/>
<polygon fill="midnightblue" stroke="midnightblue" points="1059.97,-247.762 1069.41,-242.967 1059.04,-240.823 1059.97,-247.762"/>
</g>
<!-- Node13&#45;&gt;Node4 -->
<g id="edge13" class="edge"><title>Node13&#45;&gt;Node4</title>
<path fill="none" stroke="midnightblue" d="M1170.26,-168.32C1162.47,-145.289 1137.84,-82.5826 1093,-56 1049.38,-30.142 694.493,-15.8067 586.843,-12.0232"/>
<polygon fill="midnightblue" stroke="midnightblue" points="586.764,-8.51844 576.649,-11.6706 586.522,-15.5143 586.764,-8.51844"/>
</g>
<!-- Node13&#45;&gt;Node5 -->
<g id="edge14" class="edge"><title>Node13&#45;&gt;Node5</title>
<path fill="none" stroke="midnightblue" d="M1164.31,-168.433C1155.2,-159.424 1140.51,-144.805 1128,-132 1111.94,-115.554 1093.82,-96.4966 1081.33,-83.2877"/>
<polygon fill="midnightblue" stroke="midnightblue" points="1083.77,-80.7663 1074.36,-75.8948 1078.68,-85.5702 1083.77,-80.7663"/>
</g>
<!-- Node14 -->
<g id="node14" class="node"><title>Node14</title>
<polygon fill="none" stroke="#bfbfbf" points="939,-0.5 939,-19.5 995,-19.5 995,-0.5 939,-0.5"/>
<text text-anchor="middle" x="967" y="-7.5" font-family="Helvetica,sans-Serif" font-size="10.00">Rtypes.h</text>
</g>
<!-- Node13&#45;&gt;Node14 -->
<g id="edge15" class="edge"><title>Node13&#45;&gt;Node14</title>
<path fill="none" stroke="midnightblue" d="M1174.73,-168.336C1178.56,-146.406 1185.27,-88.1632 1156,-56 1136.02,-34.0492 1054.2,-21.0125 1005,-15.0073"/>
<polygon fill="midnightblue" stroke="midnightblue" points="1005.37,-11.5269 995.028,-13.8319 1004.55,-18.4787 1005.37,-11.5269"/>
</g>
<!-- Node13&#45;&gt;Node15 -->
<g id="edge16" class="edge"><title>Node13&#45;&gt;Node15</title>
<path fill="none" stroke="midnightblue" d="M1095.15,-168.473C1005.58,-158.662 858.922,-142.598 766.032,-132.423"/>
<polygon fill="midnightblue" stroke="midnightblue" points="766.14,-128.914 755.818,-131.305 765.377,-135.873 766.14,-128.914"/>
</g>
<!-- Node18 -->
<g id="node18" class="node"><title>Node18</title>
<g id="a_node18"><a xlink:href="Quality_8h.html" target="_top" xlink:title="QualityControl/Quality.h">
<polygon fill="none" stroke="black" points="906.5,-56.5 906.5,-75.5 1027.5,-75.5 1027.5,-56.5 906.5,-56.5"/>
<text text-anchor="middle" x="967" y="-63.5" font-family="Helvetica,sans-Serif" font-size="10.00">QualityControl/Quality.h</text>
</a>
</g>
</g>
<!-- Node13&#45;&gt;Node18 -->
<g id="edge25" class="edge"><title>Node13&#45;&gt;Node18</title>
<path fill="none" stroke="midnightblue" d="M1156.84,-168.368C1121.03,-149.251 1034.85,-103.229 992.021,-80.361"/>
<polygon fill="midnightblue" stroke="midnightblue" points="993.559,-77.2144 983.089,-75.5914 990.262,-83.3892 993.559,-77.2144"/>
</g>
<!-- Node15&#45;&gt;Node4 -->
<g id="edge17" class="edge"><title>Node15&#45;&gt;Node4</title>
<path fill="none" stroke="midnightblue" d="M644.41,-112.487C623.196,-105.763 597.145,-94.3733 580,-76 568.085,-63.2307 561.965,-44.0384 558.9,-29.8156"/>
<polygon fill="midnightblue" stroke="midnightblue" points="562.29,-28.8973 557.044,-19.6924 555.405,-30.1596 562.29,-28.8973"/>
</g>
<!-- Node15&#45;&gt;Node5 -->
<g id="edge18" class="edge"><title>Node15&#45;&gt;Node5</title>
<path fill="none" stroke="midnightblue" d="M753.29,-112.459C849.664,-101.121 1009.98,-81.8477 1037,-76 1037.46,-75.8996 1037.93,-75.7952 1038.4,-75.6871"/>
<polygon fill="midnightblue" stroke="midnightblue" points="1039.59,-78.9919 1048.34,-73.0203 1037.78,-72.231 1039.59,-78.9919"/>
</g>
<!-- Node15&#45;&gt;Node14 -->
<g id="edge19" class="edge"><title>Node15&#45;&gt;Node14</title>
<path fill="none" stroke="midnightblue" d="M659.38,-112.4C633.326,-100.357 594.038,-77.5245 613,-56 633.66,-32.5474 841.713,-18.1072 928.889,-13.0436"/>
<polygon fill="midnightblue" stroke="midnightblue" points="929.116,-16.5365 938.901,-12.4726 928.718,-9.54785 929.116,-16.5365"/>
</g>
<!-- Node16 -->
<g id="node16" class="node"><title>Node16</title>
<polygon fill="none" stroke="#bfbfbf" points="756.5,-56.5 756.5,-75.5 815.5,-75.5 815.5,-56.5 756.5,-56.5"/>
<text text-anchor="middle" x="786" y="-63.5" font-family="Helvetica,sans-Serif" font-size="10.00">TObject.h</text>
</g>
<!-- Node15&#45;&gt;Node16 -->
<g id="edge20" class="edge"><title>Node15&#45;&gt;Node16</title>
<path fill="none" stroke="midnightblue" d="M697.031,-112.324C714.03,-103.664 740.376,-90.2424 759.993,-80.249"/>
<polygon fill="midnightblue" stroke="midnightblue" points="761.69,-83.3125 769.012,-75.6545 758.512,-77.0752 761.69,-83.3125"/>
</g>
<!-- Node17 -->
<g id="node17" class="node"><title>Node17</title>
<polygon fill="none" stroke="#bfbfbf" points="622,-56.5 622,-75.5 738,-75.5 738,-56.5 622,-56.5"/>
<text text-anchor="middle" x="680" y="-63.5" font-family="Helvetica,sans-Serif" font-size="10.00">Common/Exceptions.h</text>
</g>
<!-- Node15&#45;&gt;Node17 -->
<g id="edge21" class="edge"><title>Node15&#45;&gt;Node17</title>
<path fill="none" stroke="midnightblue" d="M680,-112.083C680,-105.006 680,-94.8611 680,-85.9865"/>
<polygon fill="midnightblue" stroke="midnightblue" points="683.5,-85.751 680,-75.7511 676.5,-85.7511 683.5,-85.751"/>
</g>
<!-- Node15&#45;&gt;Node18 -->
<g id="edge22" class="edge"><title>Node15&#45;&gt;Node18</title>
<path fill="none" stroke="midnightblue" d="M725.476,-112.444C775.962,-102.944 857.456,-87.611 911.62,-77.4198"/>
<polygon fill="midnightblue" stroke="midnightblue" points="912.556,-80.8052 921.737,-75.5164 911.262,-73.9259 912.556,-80.8052"/>
</g>
<!-- Node18&#45;&gt;Node4 -->
<g id="edge24" class="edge"><title>Node18&#45;&gt;Node4</title>
<path fill="none" stroke="midnightblue" d="M906.356,-57.0321C817.334,-45.3359 654.525,-23.9448 586.812,-15.0483"/>
<polygon fill="midnightblue" stroke="midnightblue" points="587.158,-11.5637 576.787,-13.7311 586.246,-18.5041 587.158,-11.5637"/>
</g>
<!-- Node18&#45;&gt;Node14 -->
<g id="edge23" class="edge"><title>Node18&#45;&gt;Node14</title>
<path fill="none" stroke="midnightblue" d="M967,-56.083C967,-49.0059 967,-38.8611 967,-29.9865"/>
<polygon fill="midnightblue" stroke="midnightblue" points="970.5,-29.751 967,-19.7511 963.5,-29.7511 970.5,-29.751"/>
</g>
<!-- Node19&#45;&gt;Node3 -->
<g id="edge28" class="edge"><title>Node19&#45;&gt;Node3</title>
<path fill="none" stroke="midnightblue" d="M258.75,-224.444C297.814,-214.54 361.892,-198.295 401.92,-188.147"/>
<polygon fill="midnightblue" stroke="midnightblue" points="402.96,-191.494 411.794,-185.644 401.24,-184.709 402.96,-191.494"/>
</g>
<!-- Node19&#45;&gt;Node4 -->
<g id="edge27" class="edge"><title>Node19&#45;&gt;Node4</title>
<path fill="none" stroke="midnightblue" d="M224.914,-224.429C225.219,-210.971 227.639,-184.696 241,-168 316.223,-73.9996 462.25,-31.6931 525.533,-17.1905"/>
<polygon fill="midnightblue" stroke="midnightblue" points="526.301,-20.6052 535.306,-15.0227 524.785,-13.7713 526.301,-20.6052"/>
</g>
<!-- Node19&#45;&gt;Node6 -->
<g id="edge29" class="edge"><title>Node19&#45;&gt;Node6</title>
<path fill="none" stroke="midnightblue" d="M291.075,-224.444C381.759,-212.7 541.299,-192.04 609.546,-183.203"/>
<polygon fill="midnightblue" stroke="midnightblue" points="610.223,-186.644 619.691,-181.889 609.324,-179.702 610.223,-186.644"/>
</g>
<!-- Node19&#45;&gt;Node15 -->
<g id="edge37" class="edge"><title>Node19&#45;&gt;Node15</title>
<path fill="none" stroke="midnightblue" d="M227.392,-224.042C231.779,-209.54 242.592,-181.215 263,-168 315.994,-133.685 488.526,-125.211 594.339,-123.314"/>
<polygon fill="midnightblue" stroke="midnightblue" points="594.423,-126.813 604.364,-123.151 594.308,-119.814 594.423,-126.813"/>
</g>
<!-- Node20 -->
<g id="node20" class="node"><title>Node20</title>
<polygon fill="none" stroke="#bfbfbf" points="272.5,-168.5 272.5,-187.5 355.5,-187.5 355.5,-168.5 272.5,-168.5"/>
<text text-anchor="middle" x="314" y="-175.5" font-family="Helvetica,sans-Serif" font-size="10.00">unordered_map</text>
</g>
<!-- Node19&#45;&gt;Node20 -->
<g id="edge30" class="edge"><title>Node19&#45;&gt;Node20</title>
<path fill="none" stroke="midnightblue" d="M239.299,-224.324C253.183,-215.9 274.492,-202.971 290.804,-193.074"/>
<polygon fill="midnightblue" stroke="midnightblue" points="293.002,-195.834 299.736,-187.655 289.371,-189.85 293.002,-195.834"/>
</g>
<!-- Node21 -->
<g id="node21" class="node"><title>Node21</title>
<g id="a_node21"><a xlink:href="QualityObject_8h_source.html" target="_top" xlink:title="QualityControl/QualityObject.h">
<polygon fill="none" stroke="black" points="773.5,-112.5 773.5,-131.5 922.5,-131.5 922.5,-112.5 773.5,-112.5"/>
<text text-anchor="middle" x="848" y="-119.5" font-family="Helvetica,sans-Serif" font-size="10.00">QualityControl/QualityObject.h</text>
</a>
</g>
</g>
<!-- Node19&#45;&gt;Node21 -->
<g id="edge31" class="edge"><title>Node19&#45;&gt;Node21</title>
<path fill="none" stroke="midnightblue" d="M256.156,-224.473C284.671,-216.305 327.806,-203.025 364,-188 381.991,-180.532 384.314,-173.505 403,-168 554.912,-123.248 602.248,-147.662 763.092,-132.154"/>
<polygon fill="midnightblue" stroke="midnightblue" points="763.746,-135.606 773.347,-131.127 763.047,-128.641 763.746,-135.606"/>
</g>
<!-- Node21&#45;&gt;Node5 -->
<g id="edge33" class="edge"><title>Node21&#45;&gt;Node5</title>
<path fill="none" stroke="midnightblue" d="M887.288,-112.454C925.653,-103.92 985.6,-90.0778 1037,-76 1037.46,-75.8747 1037.92,-75.747 1038.38,-75.6174"/>
<polygon fill="midnightblue" stroke="midnightblue" points="1039.66,-78.8904 1048.26,-72.7108 1037.68,-72.1749 1039.66,-78.8904"/>
</g>
<!-- Node21&#45;&gt;Node16 -->
<g id="edge34" class="edge"><title>Node21&#45;&gt;Node16</title>
<path fill="none" stroke="midnightblue" d="M838.039,-112.324C828.873,-104.341 815.063,-92.3128 803.972,-82.6529"/>
<polygon fill="midnightblue" stroke="midnightblue" points="805.982,-79.7624 796.143,-75.8339 801.385,-85.041 805.982,-79.7624"/>
</g>
<!-- Node21&#45;&gt;Node17 -->
<g id="edge35" class="edge"><title>Node21&#45;&gt;Node17</title>
<path fill="none" stroke="midnightblue" d="M821.38,-112.444C792.994,-103.32 747.863,-88.8133 716.247,-78.6509"/>
<polygon fill="midnightblue" stroke="midnightblue" points="717.087,-75.2445 706.496,-75.5164 714.945,-81.9087 717.087,-75.2445"/>
</g>
<!-- Node21&#45;&gt;Node18 -->
<g id="edge36" class="edge"><title>Node21&#45;&gt;Node18</title>
<path fill="none" stroke="midnightblue" d="M866.856,-112.444C886.266,-103.636 916.73,-89.8116 938.965,-79.722"/>
<polygon fill="midnightblue" stroke="midnightblue" points="940.572,-82.836 948.232,-75.5164 937.68,-76.4615 940.572,-82.836"/>
</g>
<!-- Node22 -->
<g id="node22" class="node"><title>Node22</title>
<polygon fill="none" stroke="#bfbfbf" points="834,-56.5 834,-75.5 888,-75.5 888,-56.5 834,-56.5"/>
<text text-anchor="middle" x="861" y="-63.5" font-family="Helvetica,sans-Serif" font-size="10.00">iostream</text>
</g>
<!-- Node21&#45;&gt;Node22 -->
<g id="edge32" class="edge"><title>Node21&#45;&gt;Node22</title>
<path fill="none" stroke="midnightblue" d="M850.147,-112.083C851.869,-104.927 854.347,-94.6353 856.5,-85.6911"/>
<polygon fill="midnightblue" stroke="midnightblue" points="859.955,-86.2925 858.893,-75.7511 853.15,-84.6541 859.955,-86.2925"/>
</g>
<!-- Node24 -->
<g id="node24" class="node"><title>Node24</title>
<polygon fill="none" stroke="#bfbfbf" points="1279,-112.5 1279,-131.5 1409,-131.5 1409,-112.5 1279,-112.5"/>
<text text-anchor="middle" x="1344" y="-119.5" font-family="Helvetica,sans-Serif" font-size="10.00">InfoLogger/InfoLogger.hxx</text>
</g>
<!-- Node23&#45;&gt;Node24 -->
<g id="edge40" class="edge"><title>Node23&#45;&gt;Node24</title>
<path fill="none" stroke="midnightblue" d="M1344,-168.083C1344,-161.006 1344,-150.861 1344,-141.986"/>
<polygon fill="midnightblue" stroke="midnightblue" points="1347.5,-141.751 1344,-131.751 1340.5,-141.751 1347.5,-141.751"/>
</g>
<!-- Node25&#45;&gt;Node3 -->
<g id="edge45" class="edge"><title>Node25&#45;&gt;Node3</title>
<path fill="none" stroke="midnightblue" d="M1069.49,-228.349C930.265,-217.469 586.637,-190.616 474.228,-181.831"/>
<polygon fill="midnightblue" stroke="midnightblue" points="474.329,-178.328 464.087,-181.039 473.783,-185.307 474.329,-178.328"/>
</g>
<!-- Node25&#45;&gt;Node5 -->
<g id="edge43" class="edge"><title>Node25&#45;&gt;Node5</title>
<path fill="none" stroke="midnightblue" d="M1117.5,-224.351C1107.49,-216.148 1093.44,-202.887 1086,-188 1069.41,-154.784 1066.14,-110.675 1065.74,-85.9259"/>
<polygon fill="midnightblue" stroke="midnightblue" points="1069.24,-85.7392 1065.73,-75.7442 1062.24,-85.7491 1069.24,-85.7392"/>
</g>
<!-- Node25&#45;&gt;Node6 -->
<g id="edge44" class="edge"><title>Node25&#45;&gt;Node6</title>
<path fill="none" stroke="midnightblue" d="M1069.27,-227.724C961.199,-218.094 739.074,-197.88 674.41,-187.754"/>
<polygon fill="midnightblue" stroke="midnightblue" points="674.683,-184.249 664.231,-185.986 673.485,-191.146 674.683,-184.249"/>
</g>
<!-- Node25&#45;&gt;Node12 -->
<g id="edge46" class="edge"><title>Node25&#45;&gt;Node12</title>
<path fill="none" stroke="midnightblue" d="M1071.16,-224.444C1006.16,-214.826 900.723,-199.228 831.869,-189.041"/>
<polygon fill="midnightblue" stroke="midnightblue" points="831.969,-185.518 821.565,-187.516 830.945,-192.442 831.969,-185.518"/>
</g>
<!-- Node25&#45;&gt;Node13 -->
<g id="edge50" class="edge"><title>Node25&#45;&gt;Node13</title>
<path fill="none" stroke="midnightblue" d="M1136.27,-224.083C1142.54,-216.377 1151.79,-205.033 1159.43,-195.653"/>
<polygon fill="midnightblue" stroke="midnightblue" points="1162.27,-197.714 1165.87,-187.751 1156.84,-193.293 1162.27,-197.714"/>
</g>
<!-- Node25&#45;&gt;Node15 -->
<g id="edge49" class="edge"><title>Node25&#45;&gt;Node15</title>
<path fill="none" stroke="midnightblue" d="M1069.13,-225.416C1021.89,-218.464 954.738,-206.418 898,-188 877.953,-181.493 874.846,-175.099 855,-168 814.54,-153.527 767.275,-141.659 732.071,-133.751"/>
<polygon fill="midnightblue" stroke="midnightblue" points="732.537,-130.27 722.017,-131.527 731.025,-137.104 732.537,-130.27"/>
</g>
<!-- Node25&#45;&gt;Node18 -->
<g id="edge47" class="edge"><title>Node25&#45;&gt;Node18</title>
<path fill="none" stroke="midnightblue" d="M1073.69,-224.457C1033.09,-216.94 982.882,-204.603 970,-188 947.006,-158.366 954.619,-111.23 961.336,-85.4062"/>
<polygon fill="midnightblue" stroke="midnightblue" points="964.712,-86.3323 964.068,-75.757 957.976,-84.4253 964.712,-86.3323"/>
</g>
<!-- Node25&#45;&gt;Node21 -->
<g id="edge48" class="edge"><title>Node25&#45;&gt;Node21</title>
<path fill="none" stroke="midnightblue" d="M1069.1,-225.467C1029.91,-219.007 978.324,-207.546 936,-188 908.688,-175.387 881.485,-153.499 864.712,-138.642"/>
<polygon fill="midnightblue" stroke="midnightblue" points="866.705,-135.724 856.946,-131.6 862.003,-140.91 866.705,-135.724"/>
</g>
<!-- Node25&#45;&gt;Node23 -->
<g id="edge51" class="edge"><title>Node25&#45;&gt;Node23</title>
<path fill="none" stroke="midnightblue" d="M1163.07,-224.444C1200.18,-215.122 1259.66,-200.183 1300.21,-189.997"/>
<polygon fill="midnightblue" stroke="midnightblue" points="1301.25,-193.347 1310.09,-187.516 1299.54,-186.558 1301.25,-193.347"/>
</g>
<!-- Node26 -->
<g id="node26" class="node"><title>Node26</title>
<polygon fill="none" stroke="#bfbfbf" points="978.5,-168.5 978.5,-187.5 1037.5,-187.5 1037.5,-168.5 978.5,-168.5"/>
<text text-anchor="middle" x="1008" y="-175.5" font-family="Helvetica,sans-Serif" font-size="10.00">functional</text>
</g>
<!-- Node25&#45;&gt;Node26 -->
<g id="edge42" class="edge"><title>Node25&#45;&gt;Node26</title>
<path fill="none" stroke="midnightblue" d="M1109.83,-224.444C1090.09,-215.636 1059.11,-201.812 1036.51,-191.722"/>
<polygon fill="midnightblue" stroke="midnightblue" points="1037.64,-188.396 1027.08,-187.516 1034.79,-194.788 1037.64,-188.396"/>
</g>
</g>
</svg>
