<?xml version="1.0" encoding="UTF-8" standalone="no"?>
<!DOCTYPE svg PUBLIC "-//W3C//DTD SVG 1.1//EN"
 "http://www.w3.org/Graphics/SVG/1.1/DTD/svg11.dtd">
<!-- Generated by graphviz version 2.38.0 (20140413.2041)
 -->
<!-- Title: Framework/include/QualityControl/CheckRunnerFactory.h Pages: 1 -->
<svg width="1012pt" height="319pt"
 viewBox="0.00 0.00 1011.99 319.00" xmlns="http://www.w3.org/2000/svg" xmlns:xlink="http://www.w3.org/1999/xlink">
<g id="graph0" class="graph" transform="scale(1 1) rotate(0) translate(4 315)">
<title>Framework/include/QualityControl/CheckRunnerFactory.h</title>
<!-- Node1 -->
<g id="node1" class="node"><title>Node1</title>
<polygon fill="#bfbfbf" stroke="black" points="349.992,-280.5 349.992,-310.5 501.992,-310.5 501.992,-280.5 349.992,-280.5"/>
<text text-anchor="start" x="357.992" y="-298.5" font-family="Helvetica,sans-Serif" font-size="10.00">Framework/include/Quality</text>
<text text-anchor="middle" x="425.992" y="-287.5" font-family="Helvetica,sans-Serif" font-size="10.00">Control/CheckRunnerFactory.h</text>
</g>
<!-- Node2 -->
<g id="node2" class="node"><title>Node2</title>
<polygon fill="none" stroke="#bfbfbf" points="375.492,-0.5 375.492,-19.5 416.492,-19.5 416.492,-0.5 375.492,-0.5"/>
<text text-anchor="middle" x="395.992" y="-7.5" font-family="Helvetica,sans-Serif" font-size="10.00">string</text>
</g>
<!-- Node1&#45;&gt;Node2 -->
<g id="edge1" class="edge"><title>Node1&#45;&gt;Node2</title>
<path fill="none" stroke="midnightblue" d="M349.519,-289.39C227.159,-279.09 0.991599,-250.395 0.991599,-179 0.991599,-179 0.991599,-179 0.991599,-121 0.991599,-90.9022 -2.9748,-75.4531 19.9916,-56 71.7373,-12.1702 284.255,-9.7581 364.827,-10.4737"/>
<polygon fill="midnightblue" stroke="midnightblue" points="365.251,-13.9786 375.289,-10.5914 365.329,-6.979 365.251,-13.9786"/>
</g>
<!-- Node3 -->
<g id="node3" class="node"><title>Node3</title>
<polygon fill="none" stroke="#bfbfbf" points="839.992,-168.5 839.992,-187.5 1003.99,-187.5 1003.99,-168.5 839.992,-168.5"/>
<text text-anchor="middle" x="921.992" y="-175.5" font-family="Helvetica,sans-Serif" font-size="10.00">Framework/DataProcessorSpec.h</text>
</g>
<!-- Node1&#45;&gt;Node3 -->
<g id="edge2" class="edge"><title>Node1&#45;&gt;Node3</title>
<path fill="none" stroke="midnightblue" d="M434.132,-280.277C444.516,-263.622 464.145,-236.701 488.992,-224 492.764,-222.072 703.874,-200.749 829.886,-188.159"/>
<polygon fill="midnightblue" stroke="midnightblue" points="830.328,-191.633 839.93,-187.156 829.632,-184.667 830.328,-191.633"/>
</g>
<!-- Node4 -->
<g id="node4" class="node"><title>Node4</title>
<polygon fill="none" stroke="#bfbfbf" points="498.492,-224.5 498.492,-243.5 651.492,-243.5 651.492,-224.5 498.492,-224.5"/>
<text text-anchor="middle" x="574.992" y="-231.5" font-family="Helvetica,sans-Serif" font-size="10.00">Framework/CompletionPolicy.h</text>
</g>
<!-- Node1&#45;&gt;Node4 -->
<g id="edge3" class="edge"><title>Node1&#45;&gt;Node4</title>
<path fill="none" stroke="midnightblue" d="M461.303,-280.399C486.414,-270.372 519.829,-257.028 543.927,-247.405"/>
<polygon fill="midnightblue" stroke="midnightblue" points="545.322,-250.617 553.311,-243.658 542.726,-244.116 545.322,-250.617"/>
</g>
<!-- Node5 -->
<g id="node5" class="node"><title>Node5</title>
<g id="a_node5"><a xlink:href="Check_8h_source.html" target="_top" xlink:title="QualityControl/Check.h">
<polygon fill="none" stroke="black" points="322.492,-224.5 322.492,-243.5 441.492,-243.5 441.492,-224.5 322.492,-224.5"/>
<text text-anchor="middle" x="381.992" y="-231.5" font-family="Helvetica,sans-Serif" font-size="10.00">QualityControl/Check.h</text>
</a>
</g>
</g>
<!-- Node1&#45;&gt;Node5 -->
<g id="edge4" class="edge"><title>Node1&#45;&gt;Node5</title>
<path fill="none" stroke="midnightblue" d="M415.564,-280.399C409.236,-271.842 401.123,-260.871 394.457,-251.857"/>
<polygon fill="midnightblue" stroke="midnightblue" points="397.154,-249.617 388.394,-243.658 391.526,-253.779 397.154,-249.617"/>
</g>
<!-- Node5&#45;&gt;Node3 -->
<g id="edge9" class="edge"><title>Node5&#45;&gt;Node3</title>
<path fill="none" stroke="midnightblue" d="M441.751,-225.602C446.568,-225.045 451.36,-224.504 455.992,-224 618.758,-206.271 662.102,-204.205 829.575,-188.037"/>
<polygon fill="midnightblue" stroke="midnightblue" points="830.117,-191.501 839.733,-187.053 829.443,-184.533 830.117,-191.501"/>
</g>
<!-- Node6 -->
<g id="node6" class="node"><title>Node6</title>
<polygon fill="none" stroke="#bfbfbf" points="249.492,-168.5 249.492,-187.5 308.492,-187.5 308.492,-168.5 249.492,-168.5"/>
<text text-anchor="middle" x="278.992" y="-175.5" font-family="Helvetica,sans-Serif" font-size="10.00">functional</text>
</g>
<!-- Node5&#45;&gt;Node6 -->
<g id="edge5" class="edge"><title>Node5&#45;&gt;Node6</title>
<path fill="none" stroke="midnightblue" d="M365.443,-224.324C349,-215.703 323.557,-202.364 304.523,-192.386"/>
<polygon fill="midnightblue" stroke="midnightblue" points="305.981,-189.198 295.499,-187.655 302.731,-195.398 305.981,-189.198"/>
</g>
<!-- Node7 -->
<g id="node7" class="node"><title>Node7</title>
<polygon fill="none" stroke="#bfbfbf" points="29.4916,-56.5 29.4916,-75.5 64.4916,-75.5 64.4916,-56.5 29.4916,-56.5"/>
<text text-anchor="middle" x="46.9916" y="-63.5" font-family="Helvetica,sans-Serif" font-size="10.00">map</text>
</g>
<!-- Node5&#45;&gt;Node7 -->
<g id="edge6" class="edge"><title>Node5&#45;&gt;Node7</title>
<path fill="none" stroke="midnightblue" d="M322.374,-229.481C253.144,-222.208 139.917,-199.96 72.9916,-132 60.61,-119.427 53.9098,-100.208 50.4292,-85.9259"/>
<polygon fill="midnightblue" stroke="midnightblue" points="53.7713,-84.8127 48.281,-75.7514 46.9223,-86.2588 53.7713,-84.8127"/>
</g>
<!-- Node8 -->
<g id="node8" class="node"><title>Node8</title>
<polygon fill="none" stroke="#bfbfbf" points="326.992,-168.5 326.992,-187.5 370.992,-187.5 370.992,-168.5 326.992,-168.5"/>
<text text-anchor="middle" x="348.992" y="-175.5" font-family="Helvetica,sans-Serif" font-size="10.00">vector</text>
</g>
<!-- Node5&#45;&gt;Node8 -->
<g id="edge7" class="edge"><title>Node5&#45;&gt;Node8</title>
<path fill="none" stroke="midnightblue" d="M376.542,-224.083C371.977,-216.613 365.323,-205.724 359.698,-196.52"/>
<polygon fill="midnightblue" stroke="midnightblue" points="362.541,-194.459 354.339,-187.751 356.568,-198.109 362.541,-194.459"/>
</g>
<!-- Node9 -->
<g id="node9" class="node"><title>Node9</title>
<polygon fill="none" stroke="#bfbfbf" points="388.992,-168.5 388.992,-187.5 440.992,-187.5 440.992,-168.5 388.992,-168.5"/>
<text text-anchor="middle" x="414.992" y="-175.5" font-family="Helvetica,sans-Serif" font-size="10.00">memory</text>
</g>
<!-- Node5&#45;&gt;Node9 -->
<g id="edge8" class="edge"><title>Node5&#45;&gt;Node9</title>
<path fill="none" stroke="midnightblue" d="M387.441,-224.083C392.006,-216.613 398.66,-205.724 404.285,-196.52"/>
<polygon fill="midnightblue" stroke="midnightblue" points="407.416,-198.109 409.644,-187.751 401.443,-194.459 407.416,-198.109"/>
</g>
<!-- Node10 -->
<g id="node10" class="node"><title>Node10</title>
<g id="a_node10"><a xlink:href="Quality_8h.html" target="_top" xlink:title="QualityControl/Quality.h">
<polygon fill="none" stroke="black" points="481.492,-56.5 481.492,-75.5 602.492,-75.5 602.492,-56.5 481.492,-56.5"/>
<text text-anchor="middle" x="541.992" y="-63.5" font-family="Helvetica,sans-Serif" font-size="10.00">QualityControl/Quality.h</text>
</a>
</g>
</g>
<!-- Node5&#45;&gt;Node10 -->
<g id="edge10" class="edge"><title>Node5&#45;&gt;Node10</title>
<path fill="none" stroke="midnightblue" d="M441.589,-225.961C509.695,-217.308 613.314,-202.039 624.992,-188 655.199,-151.685 598.099,-104.494 564.323,-81.2365"/>
<polygon fill="midnightblue" stroke="midnightblue" points="566.162,-78.2558 555.905,-75.5996 562.267,-84.0721 566.162,-78.2558"/>
</g>
<!-- Node12 -->
<g id="node12" class="node"><title>Node12</title>
<g id="a_node12"><a xlink:href="QualityObject_8h_source.html" target="_top" xlink:title="QualityControl/QualityObject.h">
<polygon fill="none" stroke="black" points="108.492,-112.5 108.492,-131.5 257.492,-131.5 257.492,-112.5 108.492,-112.5"/>
<text text-anchor="middle" x="182.992" y="-119.5" font-family="Helvetica,sans-Serif" font-size="10.00">QualityControl/QualityObject.h</text>
</a>
</g>
</g>
<!-- Node5&#45;&gt;Node12 -->
<g id="edge13" class="edge"><title>Node5&#45;&gt;Node12</title>
<path fill="none" stroke="midnightblue" d="M322.536,-224.445C293.004,-218.022 257.968,-206.942 230.992,-188 213.641,-175.817 200.048,-155.366 191.823,-140.655"/>
<polygon fill="midnightblue" stroke="midnightblue" points="194.779,-138.758 187.006,-131.559 188.593,-142.034 194.779,-138.758"/>
</g>
<!-- Node16 -->
<g id="node16" class="node"><title>Node16</title>
<g id="a_node16"><a xlink:href="MonitorObject_8h.html" target="_top" xlink:title="QualityControl/MonitorObject.h">
<polygon fill="none" stroke="black" points="275.492,-112.5 275.492,-131.5 426.492,-131.5 426.492,-112.5 275.492,-112.5"/>
<text text-anchor="middle" x="350.992" y="-119.5" font-family="Helvetica,sans-Serif" font-size="10.00">QualityControl/MonitorObject.h</text>
</a>
</g>
</g>
<!-- Node5&#45;&gt;Node16 -->
<g id="edge19" class="edge"><title>Node5&#45;&gt;Node16</title>
<path fill="none" stroke="midnightblue" d="M322.411,-230.025C292.569,-225.149 258.858,-213.77 239.992,-188 220.737,-161.7 259.521,-144.26 296.421,-134.127"/>
<polygon fill="midnightblue" stroke="midnightblue" points="297.424,-137.483 306.225,-131.584 295.667,-130.707 297.424,-137.483"/>
</g>
<!-- Node17 -->
<g id="node17" class="node"><title>Node17</title>
<g id="a_node17"><a xlink:href="CheckInterface_8h.html" target="_top" xlink:title="QualityControl/CheckInterface.h">
<polygon fill="none" stroke="black" points="459.492,-168.5 459.492,-187.5 616.492,-187.5 616.492,-168.5 459.492,-168.5"/>
<text text-anchor="middle" x="537.992" y="-175.5" font-family="Helvetica,sans-Serif" font-size="10.00">QualityControl/CheckInterface.h</text>
</a>
</g>
</g>
<!-- Node5&#45;&gt;Node17 -->
<g id="edge26" class="edge"><title>Node5&#45;&gt;Node17</title>
<path fill="none" stroke="midnightblue" d="M406.71,-224.444C432.84,-215.399 474.251,-201.064 503.568,-190.916"/>
<polygon fill="midnightblue" stroke="midnightblue" points="505.084,-194.095 513.389,-187.516 502.794,-187.48 505.084,-194.095"/>
</g>
<!-- Node18 -->
<g id="node18" class="node"><title>Node18</title>
<g id="a_node18"><a xlink:href="QcInfoLogger_8h.html" target="_top" xlink:title="QualityControl/QcInfoLogger.h">
<polygon fill="none" stroke="black" points="672.492,-168.5 672.492,-187.5 821.492,-187.5 821.492,-168.5 672.492,-168.5"/>
<text text-anchor="middle" x="746.992" y="-175.5" font-family="Helvetica,sans-Serif" font-size="10.00">QualityControl/QcInfoLogger.h</text>
</a>
</g>
</g>
<!-- Node5&#45;&gt;Node18 -->
<g id="edge32" class="edge"><title>Node5&#45;&gt;Node18</title>
<path fill="none" stroke="midnightblue" d="M439.827,-224.444C504.835,-214.826 610.268,-199.228 679.123,-189.041"/>
<polygon fill="midnightblue" stroke="midnightblue" points="680.047,-192.442 689.427,-187.516 679.022,-185.518 680.047,-192.442"/>
</g>
<!-- Node10&#45;&gt;Node2 -->
<g id="edge12" class="edge"><title>Node10&#45;&gt;Node2</title>
<path fill="none" stroke="midnightblue" d="M518.857,-56.4435C493.793,-47.1732 453.706,-32.3464 426.179,-22.1652"/>
<polygon fill="midnightblue" stroke="midnightblue" points="427.25,-18.8297 416.657,-18.6433 424.822,-25.395 427.25,-18.8297"/>
</g>
<!-- Node11 -->
<g id="node11" class="node"><title>Node11</title>
<polygon fill="none" stroke="#bfbfbf" points="513.992,-0.5 513.992,-19.5 569.992,-19.5 569.992,-0.5 513.992,-0.5"/>
<text text-anchor="middle" x="541.992" y="-7.5" font-family="Helvetica,sans-Serif" font-size="10.00">Rtypes.h</text>
</g>
<!-- Node10&#45;&gt;Node11 -->
<g id="edge11" class="edge"><title>Node10&#45;&gt;Node11</title>
<path fill="none" stroke="midnightblue" d="M541.992,-56.083C541.992,-49.0059 541.992,-38.8611 541.992,-29.9865"/>
<polygon fill="midnightblue" stroke="midnightblue" points="545.492,-29.751 541.992,-19.7511 538.492,-29.7511 545.492,-29.751"/>
</g>
<!-- Node12&#45;&gt;Node7 -->
<g id="edge15" class="edge"><title>Node12&#45;&gt;Node7</title>
<path fill="none" stroke="midnightblue" d="M161.442,-112.444C137.77,-103.045 99.7133,-87.9336 74.0502,-77.7438"/>
<polygon fill="midnightblue" stroke="midnightblue" points="75.1339,-74.4084 64.5481,-73.971 72.5507,-80.9143 75.1339,-74.4084"/>
</g>
<!-- Node12&#45;&gt;Node10 -->
<g id="edge18" class="edge"><title>Node12&#45;&gt;Node10</title>
<path fill="none" stroke="midnightblue" d="M239.876,-112.444C303.816,-102.826 407.516,-87.2275 475.238,-77.0409"/>
<polygon fill="midnightblue" stroke="midnightblue" points="476.005,-80.465 485.373,-75.5164 474.964,-73.5429 476.005,-80.465"/>
</g>
<!-- Node13 -->
<g id="node13" class="node"><title>Node13</title>
<polygon fill="none" stroke="#bfbfbf" points="82.9916,-56.5 82.9916,-75.5 136.992,-75.5 136.992,-56.5 82.9916,-56.5"/>
<text text-anchor="middle" x="109.992" y="-63.5" font-family="Helvetica,sans-Serif" font-size="10.00">iostream</text>
</g>
<!-- Node12&#45;&gt;Node13 -->
<g id="edge14" class="edge"><title>Node12&#45;&gt;Node13</title>
<path fill="none" stroke="midnightblue" d="M171.263,-112.324C160.154,-104.107 143.249,-91.6017 130.008,-81.8069"/>
<polygon fill="midnightblue" stroke="midnightblue" points="132.055,-78.9671 121.934,-75.8339 127.892,-84.5948 132.055,-78.9671"/>
</g>
<!-- Node14 -->
<g id="node14" class="node"><title>Node14</title>
<polygon fill="none" stroke="#bfbfbf" points="289.492,-56.5 289.492,-75.5 348.492,-75.5 348.492,-56.5 289.492,-56.5"/>
<text text-anchor="middle" x="318.992" y="-63.5" font-family="Helvetica,sans-Serif" font-size="10.00">TObject.h</text>
</g>
<!-- Node12&#45;&gt;Node14 -->
<g id="edge16" class="edge"><title>Node12&#45;&gt;Node14</title>
<path fill="none" stroke="midnightblue" d="M204.541,-112.444C227.023,-103.517 262.479,-89.4387 287.971,-79.3168"/>
<polygon fill="midnightblue" stroke="midnightblue" points="289.54,-82.4598 297.543,-75.5164 286.957,-75.9539 289.54,-82.4598"/>
</g>
<!-- Node15 -->
<g id="node15" class="node"><title>Node15</title>
<polygon fill="none" stroke="#bfbfbf" points="154.992,-56.5 154.992,-75.5 270.992,-75.5 270.992,-56.5 154.992,-56.5"/>
<text text-anchor="middle" x="212.992" y="-63.5" font-family="Helvetica,sans-Serif" font-size="10.00">Common/Exceptions.h</text>
</g>
<!-- Node12&#45;&gt;Node15 -->
<g id="edge17" class="edge"><title>Node12&#45;&gt;Node15</title>
<path fill="none" stroke="midnightblue" d="M187.945,-112.083C192.096,-104.613 198.145,-93.7244 203.258,-84.5199"/>
<polygon fill="midnightblue" stroke="midnightblue" points="206.333,-86.1924 208.13,-75.7511 200.214,-82.7929 206.333,-86.1924"/>
</g>
<!-- Node16&#45;&gt;Node2 -->
<g id="edge20" class="edge"><title>Node16&#45;&gt;Node2</title>
<path fill="none" stroke="midnightblue" d="M354.523,-112.368C361.85,-94.4563 378.841,-52.9233 388.649,-28.9482"/>
<polygon fill="midnightblue" stroke="midnightblue" points="391.93,-30.1721 392.477,-19.5914 385.451,-27.5217 391.93,-30.1721"/>
</g>
<!-- Node16&#45;&gt;Node7 -->
<g id="edge21" class="edge"><title>Node16&#45;&gt;Node7</title>
<path fill="none" stroke="midnightblue" d="M278.61,-112.481C224.762,-105.4 149.399,-93.9276 74.6533,-75.8001"/>
<polygon fill="midnightblue" stroke="midnightblue" points="75.1385,-72.315 64.5912,-73.318 73.4619,-79.1113 75.1385,-72.315"/>
</g>
<!-- Node16&#45;&gt;Node10 -->
<g id="edge25" class="edge"><title>Node16&#45;&gt;Node10</title>
<path fill="none" stroke="midnightblue" d="M381.256,-112.444C413.947,-103.201 466.173,-88.4356 502.174,-78.2572"/>
<polygon fill="midnightblue" stroke="midnightblue" points="503.198,-81.6051 511.869,-75.5164 501.294,-74.8691 503.198,-81.6051"/>
</g>
<!-- Node16&#45;&gt;Node11 -->
<g id="edge22" class="edge"><title>Node16&#45;&gt;Node11</title>
<path fill="none" stroke="midnightblue" d="M365.979,-112.368C399.034,-93.3318 478.414,-47.6153 518.289,-24.6505"/>
<polygon fill="midnightblue" stroke="midnightblue" points="520.155,-27.6151 527.074,-19.5914 516.661,-21.5492 520.155,-27.6151"/>
</g>
<!-- Node16&#45;&gt;Node14 -->
<g id="edge23" class="edge"><title>Node16&#45;&gt;Node14</title>
<path fill="none" stroke="midnightblue" d="M345.707,-112.083C341.281,-104.613 334.828,-93.7244 329.374,-84.5199"/>
<polygon fill="midnightblue" stroke="midnightblue" points="332.287,-82.5697 324.177,-75.7511 326.264,-86.1383 332.287,-82.5697"/>
</g>
<!-- Node16&#45;&gt;Node15 -->
<g id="edge24" class="edge"><title>Node16&#45;&gt;Node15</title>
<path fill="none" stroke="midnightblue" d="M329.125,-112.444C306.212,-103.478 270.016,-89.314 244.125,-79.1827"/>
<polygon fill="midnightblue" stroke="midnightblue" points="245.344,-75.9011 234.756,-75.5164 242.793,-82.4198 245.344,-75.9011"/>
</g>
<!-- Node17&#45;&gt;Node2 -->
<g id="edge27" class="edge"><title>Node17&#45;&gt;Node2</title>
<path fill="none" stroke="midnightblue" d="M530.357,-168.075C507.521,-141.38 439.503,-61.865 409.954,-27.3218"/>
<polygon fill="midnightblue" stroke="midnightblue" points="412.481,-24.892 403.321,-19.5681 407.162,-29.4423 412.481,-24.892"/>
</g>
<!-- Node17&#45;&gt;Node7 -->
<g id="edge28" class="edge"><title>Node17&#45;&gt;Node7</title>
<path fill="none" stroke="midnightblue" d="M459.254,-168.929C332.922,-155.979 98.9916,-132 98.9916,-132 79.4234,-121.333 64.5605,-99.9288 55.8352,-84.5954"/>
<polygon fill="midnightblue" stroke="midnightblue" points="58.8074,-82.7316 51,-75.5696 52.6371,-86.0372 58.8074,-82.7316"/>
</g>
<!-- Node17&#45;&gt;Node10 -->
<g id="edge31" class="edge"><title>Node17&#45;&gt;Node10</title>
<path fill="none" stroke="midnightblue" d="M538.305,-168.368C538.951,-150.617 540.44,-109.666 541.315,-85.5974"/>
<polygon fill="midnightblue" stroke="midnightblue" points="544.813,-85.712 541.679,-75.5914 537.818,-85.4576 544.813,-85.712"/>
</g>
<!-- Node17&#45;&gt;Node11 -->
<g id="edge29" class="edge"><title>Node17&#45;&gt;Node11</title>
<path fill="none" stroke="midnightblue" d="M547.26,-168.377C563.896,-152.188 598.271,-115.317 610.992,-76 613.728,-67.5428 615.225,-63.8158 610.992,-56 603.243,-41.6958 588.757,-31.2188 575.052,-23.992"/>
<polygon fill="midnightblue" stroke="midnightblue" points="576.306,-20.7104 565.78,-19.501 573.254,-27.0103 576.306,-20.7104"/>
</g>
<!-- Node17&#45;&gt;Node16 -->
<g id="edge30" class="edge"><title>Node17&#45;&gt;Node16</title>
<path fill="none" stroke="midnightblue" d="M508.361,-168.444C476.491,-159.241 425.659,-144.562 390.428,-134.388"/>
<polygon fill="midnightblue" stroke="midnightblue" points="391.062,-130.928 380.484,-131.516 389.12,-137.653 391.062,-130.928"/>
</g>
<!-- Node19 -->
<g id="node19" class="node"><title>Node19</title>
<polygon fill="none" stroke="#bfbfbf" points="681.992,-112.5 681.992,-131.5 811.992,-131.5 811.992,-112.5 681.992,-112.5"/>
<text text-anchor="middle" x="746.992" y="-119.5" font-family="Helvetica,sans-Serif" font-size="10.00">InfoLogger/InfoLogger.hxx</text>
</g>
<!-- Node18&#45;&gt;Node19 -->
<g id="edge33" class="edge"><title>Node18&#45;&gt;Node19</title>
<path fill="none" stroke="midnightblue" d="M746.992,-168.083C746.992,-161.006 746.992,-150.861 746.992,-141.986"/>
<polygon fill="midnightblue" stroke="midnightblue" points="750.492,-141.751 746.992,-131.751 743.492,-141.751 750.492,-141.751"/>
</g>
</g>
</svg>
