<?xml version="1.0" encoding="UTF-8" standalone="no"?>
<!DOCTYPE svg PUBLIC "-//W3C//DTD SVG 1.1//EN"
 "http://www.w3.org/Graphics/SVG/1.1/DTD/svg11.dtd">
<!-- Generated by graphviz version 2.38.0 (20140413.2041)
 -->
<!-- Title: Framework/include/QualityControl/CheckRunnerFactory.h Pages: 1 -->
<svg width="1058pt" height="106pt"
 viewBox="0.00 0.00 1057.50 106.00" xmlns="http://www.w3.org/2000/svg" xmlns:xlink="http://www.w3.org/1999/xlink">
<g id="graph0" class="graph" transform="scale(1 1) rotate(0) translate(4 102)">
<title>Framework/include/QualityControl/CheckRunnerFactory.h</title>
<!-- Node1 -->
<g id="node1" class="node"><title>Node1</title>
<polygon fill="#bfbfbf" stroke="black" points="420.5,-67.5 420.5,-97.5 572.5,-97.5 572.5,-67.5 420.5,-67.5"/>
<text text-anchor="start" x="428.5" y="-85.5" font-family="Helvetica,sans-Serif" font-size="10.00">Framework/include/Quality</text>
<text text-anchor="middle" x="496.5" y="-74.5" font-family="Helvetica,sans-Serif" font-size="10.00">Control/CheckRunnerFactory.h</text>
</g>
<!-- Node2 -->
<g id="node2" class="node"><title>Node2</title>
<g id="a_node2"><a xlink:href="CheckRunnerFactory_8cxx.html" target="_top" xlink:title="Framework/src/CheckRunner\lFactory.cxx">
<polygon fill="none" stroke="black" points="0,-0.5 0,-30.5 145,-30.5 145,-0.5 0,-0.5"/>
<text text-anchor="start" x="8" y="-18.5" font-family="Helvetica,sans-Serif" font-size="10.00">Framework/src/CheckRunner</text>
<text text-anchor="middle" x="72.5" y="-7.5" font-family="Helvetica,sans-Serif" font-size="10.00">Factory.cxx</text>
</a>
</g>
</g>
<!-- Node1&#45;&gt;Node2 -->
<g id="edge1" class="edge"><title>Node1&#45;&gt;Node2</title>
<path fill="none" stroke="midnightblue" d="M410.427,-69.5801C340.987,-59.7825 240.838,-45.2432 153.5,-31 150.821,-30.5631 148.094,-30.1112 145.34,-29.6489"/>
<polygon fill="midnightblue" stroke="midnightblue" points="410.054,-73.062 420.444,-70.9906 411.03,-66.1304 410.054,-73.062"/>
</g>
<!-- Node3 -->
<g id="node3" class="node"><title>Node3</title>
<g id="a_node3"><a xlink:href="InfrastructureGenerator_8cxx.html" target="_top" xlink:title="Framework/src/Infrastructure\lGenerator.cxx">
<polygon fill="none" stroke="black" points="163,-0.5 163,-30.5 306,-30.5 306,-0.5 163,-0.5"/>
<text text-anchor="start" x="171" y="-18.5" font-family="Helvetica,sans-Serif" font-size="10.00">Framework/src/Infrastructure</text>
<text text-anchor="middle" x="234.5" y="-7.5" font-family="Helvetica,sans-Serif" font-size="10.00">Generator.cxx</text>
</a>
</g>
</g>
<!-- Node1&#45;&gt;Node3 -->
<g id="edge2" class="edge"><title>Node1&#45;&gt;Node3</title>
<path fill="none" stroke="midnightblue" d="M430.2,-65.0515C387.367,-54.425 332.212,-40.7414 291.378,-30.6109"/>
<polygon fill="midnightblue" stroke="midnightblue" points="429.424,-68.465 439.972,-67.476 431.109,-61.671 429.424,-68.465"/>
</g>
<!-- Node4 -->
<g id="node4" class="node"><title>Node4</title>
<g id="a_node4"><a xlink:href="runMergerTest_8cxx.html" target="_top" xlink:title="This is DPL workflow to see HistoMerger in action. ">
<polygon fill="none" stroke="black" points="324,-6 324,-25 491,-25 491,-6 324,-6"/>
<text text-anchor="middle" x="407.5" y="-13" font-family="Helvetica,sans-Serif" font-size="10.00">Framework/src/runMergerTest.cxx</text>
</a>
</g>
</g>
<!-- Node1&#45;&gt;Node4 -->
<g id="edge3" class="edge"><title>Node1&#45;&gt;Node4</title>
<path fill="none" stroke="midnightblue" d="M468.849,-61.3056C452.137,-49.0999 431.704,-34.1772 419.148,-25.007"/>
<polygon fill="midnightblue" stroke="midnightblue" points="467.048,-64.3245 477.188,-67.396 471.177,-58.6716 467.048,-64.3245"/>
</g>
<!-- Node5 -->
<g id="node5" class="node"><title>Node5</title>
<polygon fill="none" stroke="#bfbfbf" points="509.5,-6 509.5,-25 661.5,-25 661.5,-6 509.5,-6"/>
<text text-anchor="middle" x="585.5" y="-13" font-family="Helvetica,sans-Serif" font-size="10.00">Framework/test/testCheck.cxx</text>
</g>
<!-- Node1&#45;&gt;Node5 -->
<g id="edge4" class="edge"><title>Node1&#45;&gt;Node5</title>
<path fill="none" stroke="midnightblue" d="M524.151,-61.3056C540.863,-49.0999 561.296,-34.1772 573.852,-25.007"/>
<polygon fill="midnightblue" stroke="midnightblue" points="521.823,-58.6716 515.812,-67.396 525.952,-64.3245 521.823,-58.6716"/>
</g>
<!-- Node6 -->
<g id="node6" class="node"><title>Node6</title>
<g id="a_node6"><a xlink:href="testCheckRunner_8cxx.html" target="_top" xlink:title="Framework/test/testCheck\lRunner.cxx">
<polygon fill="none" stroke="black" points="680,-0.5 680,-30.5 813,-30.5 813,-0.5 680,-0.5"/>
<text text-anchor="start" x="688" y="-18.5" font-family="Helvetica,sans-Serif" font-size="10.00">Framework/test/testCheck</text>
<text text-anchor="middle" x="746.5" y="-7.5" font-family="Helvetica,sans-Serif" font-size="10.00">Runner.cxx</text>
</a>
</g>
</g>
<!-- Node1&#45;&gt;Node6 -->
<g id="edge5" class="edge"><title>Node1&#45;&gt;Node6</title>
<path fill="none" stroke="midnightblue" d="M560.28,-64.9171C601.077,-54.3099 653.428,-40.6988 692.227,-30.6109"/>
<polygon fill="midnightblue" stroke="midnightblue" points="559.236,-61.5722 550.438,-67.476 560.997,-68.347 559.236,-61.5722"/>
</g>
<!-- Node7 -->
<g id="node7" class="node"><title>Node7</title>
<polygon fill="none" stroke="#bfbfbf" points="831.5,-6 831.5,-25 1049.5,-25 1049.5,-6 831.5,-6"/>
<text text-anchor="middle" x="940.5" y="-13" font-family="Helvetica,sans-Serif" font-size="10.00">Modules/EMCAL/src/runQCEMCALDigits.cxx</text>
</g>
<!-- Node1&#45;&gt;Node7 -->
<g id="edge6" class="edge"><title>Node1&#45;&gt;Node7</title>
<path fill="none" stroke="midnightblue" d="M582.574,-68.8991C670.918,-55.9658 805.95,-36.1976 882.41,-25.0041"/>
<polygon fill="midnightblue" stroke="midnightblue" points="581.961,-65.4514 572.574,-70.3631 582.975,-72.3775 581.961,-65.4514"/>
</g>
</g>
</svg>
