<?xml version="1.0" encoding="UTF-8" standalone="no"?>
<!DOCTYPE svg PUBLIC "-//W3C//DTD SVG 1.1//EN"
 "http://www.w3.org/Graphics/SVG/1.1/DTD/svg11.dtd">
<!-- Generated by graphviz version 2.38.0 (20140413.2041)
 -->
<!-- Title: Framework/src/CheckRunnerFactory.cxx Pages: 1 -->
<svg width="1830pt" height="386pt"
 viewBox="0.00 0.00 1830.00 386.00" xmlns="http://www.w3.org/2000/svg" xmlns:xlink="http://www.w3.org/1999/xlink">
<g id="graph0" class="graph" transform="scale(1 1) rotate(0) translate(4 382)">
<title>Framework/src/CheckRunnerFactory.cxx</title>
<!-- Node1 -->
<g id="node1" class="node"><title>Node1</title>
<polygon fill="#bfbfbf" stroke="black" points="823.5,-347.5 823.5,-377.5 968.5,-377.5 968.5,-347.5 823.5,-347.5"/>
<text text-anchor="start" x="831.5" y="-365.5" font-family="Helvetica,sans-Serif" font-size="10.00">Framework/src/CheckRunner</text>
<text text-anchor="middle" x="896" y="-354.5" font-family="Helvetica,sans-Serif" font-size="10.00">Factory.cxx</text>
</g>
<!-- Node2 -->
<g id="node2" class="node"><title>Node2</title>
<polygon fill="none" stroke="#bfbfbf" points="1154,-168.5 1154,-187.5 1198,-187.5 1198,-168.5 1154,-168.5"/>
<text text-anchor="middle" x="1176" y="-175.5" font-family="Helvetica,sans-Serif" font-size="10.00">vector</text>
</g>
<!-- Node1&#45;&gt;Node2 -->
<g id="edge1" class="edge"><title>Node1&#45;&gt;Node2</title>
<path fill="none" stroke="midnightblue" d="M968.783,-360.843C1133.25,-357.658 1525.61,-339.944 1607,-244 1659.88,-181.661 1316.51,-178.248 1208.07,-178.701"/>
<polygon fill="midnightblue" stroke="midnightblue" points="1208.02,-175.201 1198.04,-178.757 1208.06,-182.201 1208.02,-175.201"/>
</g>
<!-- Node3 -->
<g id="node3" class="node"><title>Node3</title>
<polygon fill="none" stroke="#bfbfbf" points="0,-168.5 0,-187.5 164,-187.5 164,-168.5 0,-168.5"/>
<text text-anchor="middle" x="82" y="-175.5" font-family="Helvetica,sans-Serif" font-size="10.00">Framework/DataProcessorSpec.h</text>
</g>
<!-- Node1&#45;&gt;Node3 -->
<g id="edge2" class="edge"><title>Node1&#45;&gt;Node3</title>
<path fill="none" stroke="midnightblue" d="M823.486,-362.456C643.178,-363.13 182.237,-353.848 87,-244 76.2356,-231.584 76.0728,-212.344 77.9488,-198.014"/>
<polygon fill="midnightblue" stroke="midnightblue" points="81.4602,-198.251 79.7267,-187.799 74.5638,-197.05 81.4602,-198.251"/>
</g>
<!-- Node4 -->
<g id="node4" class="node"><title>Node4</title>
<polygon fill="none" stroke="#bfbfbf" points="1692,-286 1692,-305 1822,-305 1822,-286 1692,-286"/>
<text text-anchor="middle" x="1757" y="-293" font-family="Helvetica,sans-Serif" font-size="10.00">Framework/DeviceSpec.h</text>
</g>
<!-- Node1&#45;&gt;Node4 -->
<g id="edge3" class="edge"><title>Node1&#45;&gt;Node4</title>
<path fill="none" stroke="midnightblue" d="M968.769,-359.643C1107.29,-355.479 1418.26,-343.112 1678,-311 1687.05,-309.882 1696.62,-308.389 1705.87,-306.787"/>
<polygon fill="midnightblue" stroke="midnightblue" points="1706.51,-310.228 1715.73,-305.017 1705.27,-303.338 1706.51,-310.228"/>
</g>
<!-- Node5 -->
<g id="node5" class="node"><title>Node5</title>
<g id="a_node5"><a xlink:href="CheckRunner_8h.html" target="_top" xlink:title="QualityControl/CheckRunner.h">
<polygon fill="none" stroke="black" points="821,-286 821,-305 971,-305 971,-286 821,-286"/>
<text text-anchor="middle" x="896" y="-293" font-family="Helvetica,sans-Serif" font-size="10.00">QualityControl/CheckRunner.h</text>
</a>
</g>
</g>
<!-- Node1&#45;&gt;Node5 -->
<g id="edge4" class="edge"><title>Node1&#45;&gt;Node5</title>
<path fill="none" stroke="midnightblue" d="M896,-347.396C896,-338.064 896,-325.714 896,-315.517"/>
<polygon fill="midnightblue" stroke="midnightblue" points="899.5,-315.195 896,-305.195 892.5,-315.195 899.5,-315.195"/>
</g>
<!-- Node29 -->
<g id="node29" class="node"><title>Node29</title>
<g id="a_node29"><a xlink:href="CheckRunnerFactory_8h.html" target="_top" xlink:title="QualityControl/CheckRunner\lFactory.h">
<polygon fill="none" stroke="black" points="397,-280.5 397,-310.5 539,-310.5 539,-280.5 397,-280.5"/>
<text text-anchor="start" x="405" y="-298.5" font-family="Helvetica,sans-Serif" font-size="10.00">QualityControl/CheckRunner</text>
<text text-anchor="middle" x="468" y="-287.5" font-family="Helvetica,sans-Serif" font-size="10.00">Factory.h</text>
</a>
</g>
</g>
<!-- Node1&#45;&gt;Node29 -->
<g id="edge56" class="edge"><title>Node1&#45;&gt;Node29</title>
<path fill="none" stroke="midnightblue" d="M823.396,-350.474C747.348,-338.924 628.181,-320.827 549.097,-308.816"/>
<polygon fill="midnightblue" stroke="midnightblue" points="549.589,-305.351 539.177,-307.31 548.538,-312.271 549.589,-305.351"/>
</g>
<!-- Node5&#45;&gt;Node2 -->
<g id="edge9" class="edge"><title>Node5&#45;&gt;Node2</title>
<path fill="none" stroke="midnightblue" d="M971.089,-287.195C1014.16,-280.549 1068.04,-267.922 1111,-244 1132.48,-232.042 1151.64,-210.942 1163.5,-196.031"/>
<polygon fill="midnightblue" stroke="midnightblue" points="1166.59,-197.75 1169.9,-187.683 1161.04,-193.493 1166.59,-197.75"/>
</g>
<!-- Node5&#45;&gt;Node3 -->
<g id="edge15" class="edge"><title>Node5&#45;&gt;Node3</title>
<path fill="none" stroke="midnightblue" d="M820.995,-291.094C686.995,-284.484 411.818,-268.39 319,-244 298.224,-238.541 295.337,-230.917 275,-224 230.746,-208.948 179.106,-197.199 140.384,-189.485"/>
<polygon fill="midnightblue" stroke="midnightblue" points="140.813,-186.003 130.327,-187.515 139.467,-192.872 140.813,-186.003"/>
</g>
<!-- Node6 -->
<g id="node6" class="node"><title>Node6</title>
<polygon fill="none" stroke="#bfbfbf" points="1056,-224.5 1056,-243.5 1102,-243.5 1102,-224.5 1056,-224.5"/>
<text text-anchor="middle" x="1079" y="-231.5" font-family="Helvetica,sans-Serif" font-size="10.00">chrono</text>
</g>
<!-- Node5&#45;&gt;Node6 -->
<g id="edge5" class="edge"><title>Node5&#45;&gt;Node6</title>
<path fill="none" stroke="midnightblue" d="M922.219,-285.975C954.782,-275.388 1010.36,-257.318 1045.85,-245.779"/>
<polygon fill="midnightblue" stroke="midnightblue" points="1047.3,-248.987 1055.73,-242.567 1045.13,-242.33 1047.3,-248.987"/>
</g>
<!-- Node7 -->
<g id="node7" class="node"><title>Node7</title>
<polygon fill="none" stroke="#bfbfbf" points="868,-168.5 868,-187.5 920,-187.5 920,-168.5 868,-168.5"/>
<text text-anchor="middle" x="894" y="-175.5" font-family="Helvetica,sans-Serif" font-size="10.00">memory</text>
</g>
<!-- Node5&#45;&gt;Node7 -->
<g id="edge6" class="edge"><title>Node5&#45;&gt;Node7</title>
<path fill="none" stroke="midnightblue" d="M886.912,-285.843C877.837,-276.512 864.474,-260.735 859,-244 856.236,-235.552 856.115,-232.408 859,-224 862.719,-213.161 870.233,-202.922 877.349,-194.957"/>
<polygon fill="midnightblue" stroke="midnightblue" points="880.054,-197.192 884.444,-187.55 874.999,-192.35 880.054,-197.192"/>
</g>
<!-- Node8 -->
<g id="node8" class="node"><title>Node8</title>
<polygon fill="none" stroke="#bfbfbf" points="1005.5,-0.5 1005.5,-19.5 1046.5,-19.5 1046.5,-0.5 1005.5,-0.5"/>
<text text-anchor="middle" x="1026" y="-7.5" font-family="Helvetica,sans-Serif" font-size="10.00">string</text>
</g>
<!-- Node5&#45;&gt;Node8 -->
<g id="edge7" class="edge"><title>Node5&#45;&gt;Node8</title>
<path fill="none" stroke="midnightblue" d="M971.067,-293.944C1143.8,-291.992 1558.35,-283.23 1607,-244 1630.43,-225.106 1626,-209.098 1626,-179 1626,-179 1626,-179 1626,-121 1626,-62.5324 1179.51,-23.0818 1056.85,-13.3468"/>
<polygon fill="midnightblue" stroke="midnightblue" points="1056.9,-9.83955 1046.65,-12.5469 1056.35,-16.8181 1056.9,-9.83955"/>
</g>
<!-- Node9 -->
<g id="node9" class="node"><title>Node9</title>
<polygon fill="none" stroke="#bfbfbf" points="444.5,-56.5 444.5,-75.5 479.5,-75.5 479.5,-56.5 444.5,-56.5"/>
<text text-anchor="middle" x="462" y="-63.5" font-family="Helvetica,sans-Serif" font-size="10.00">map</text>
</g>
<!-- Node5&#45;&gt;Node9 -->
<g id="edge8" class="edge"><title>Node5&#45;&gt;Node9</title>
<path fill="none" stroke="midnightblue" d="M820.872,-295.096C715.324,-294.228 517.925,-286.337 356,-244 334.825,-238.464 331.323,-232.124 311,-224 266.75,-206.31 237.464,-226.945 210,-188 198.498,-171.689 202.18,-129.948 220,-112 249.701,-82.0864 377.346,-71.5531 434.336,-68.295"/>
<polygon fill="midnightblue" stroke="midnightblue" points="434.632,-71.7842 444.43,-67.7524 434.256,-64.7943 434.632,-71.7842"/>
</g>
<!-- Node10 -->
<g id="node10" class="node"><title>Node10</title>
<polygon fill="none" stroke="#bfbfbf" points="1158,-224.5 1158,-243.5 1236,-243.5 1236,-224.5 1158,-224.5"/>
<text text-anchor="middle" x="1197" y="-231.5" font-family="Helvetica,sans-Serif" font-size="10.00">unordered_set</text>
</g>
<!-- Node5&#45;&gt;Node10 -->
<g id="edge10" class="edge"><title>Node5&#45;&gt;Node10</title>
<path fill="none" stroke="midnightblue" d="M939.126,-285.975C994.332,-275.062 1089.76,-256.199 1147.76,-244.734"/>
<polygon fill="midnightblue" stroke="midnightblue" points="1148.65,-248.125 1157.78,-242.752 1147.3,-241.258 1148.65,-248.125"/>
</g>
<!-- Node11 -->
<g id="node11" class="node"><title>Node11</title>
<polygon fill="none" stroke="#bfbfbf" points="1254,-224.5 1254,-243.5 1346,-243.5 1346,-224.5 1254,-224.5"/>
<text text-anchor="middle" x="1300" y="-231.5" font-family="Helvetica,sans-Serif" font-size="10.00">Common/Timer.h</text>
</g>
<!-- Node5&#45;&gt;Node11 -->
<g id="edge11" class="edge"><title>Node5&#45;&gt;Node11</title>
<path fill="none" stroke="midnightblue" d="M957.204,-285.993C1024.82,-276.517 1137.2,-260.534 1243.83,-244.159"/>
<polygon fill="midnightblue" stroke="midnightblue" points="1244.45,-247.605 1253.8,-242.624 1243.38,-240.687 1244.45,-247.605"/>
</g>
<!-- Node12 -->
<g id="node12" class="node"><title>Node12</title>
<polygon fill="none" stroke="#bfbfbf" points="1364,-224.5 1364,-243.5 1462,-243.5 1462,-224.5 1364,-224.5"/>
<text text-anchor="middle" x="1413" y="-231.5" font-family="Helvetica,sans-Serif" font-size="10.00">Framework/Task.h</text>
</g>
<!-- Node5&#45;&gt;Node12 -->
<g id="edge12" class="edge"><title>Node5&#45;&gt;Node12</title>
<path fill="none" stroke="midnightblue" d="M971.257,-287.254C1060.15,-278.463 1212.73,-262.643 1353.84,-244.103"/>
<polygon fill="midnightblue" stroke="midnightblue" points="1354.52,-247.544 1363.97,-242.764 1353.6,-240.604 1354.52,-247.544"/>
</g>
<!-- Node13 -->
<g id="node13" class="node"><title>Node13</title>
<polygon fill="none" stroke="#bfbfbf" points="1480.5,-224.5 1480.5,-243.5 1597.5,-243.5 1597.5,-224.5 1480.5,-224.5"/>
<text text-anchor="middle" x="1539" y="-231.5" font-family="Helvetica,sans-Serif" font-size="10.00">Headers/DataHeader.h</text>
</g>
<!-- Node5&#45;&gt;Node13 -->
<g id="edge13" class="edge"><title>Node5&#45;&gt;Node13</title>
<path fill="none" stroke="midnightblue" d="M971.453,-288.937C1079.51,-280.733 1284.82,-264.266 1470.47,-244.011"/>
<polygon fill="midnightblue" stroke="midnightblue" points="1470.86,-247.49 1480.41,-242.92 1470.09,-240.532 1470.86,-247.49"/>
</g>
<!-- Node14 -->
<g id="node14" class="node"><title>Node14</title>
<polygon fill="none" stroke="#bfbfbf" points="584.5,-224.5 584.5,-243.5 735.5,-243.5 735.5,-224.5 584.5,-224.5"/>
<text text-anchor="middle" x="660" y="-231.5" font-family="Helvetica,sans-Serif" font-size="10.00">Monitoring/MonitoringFactory.h</text>
</g>
<!-- Node5&#45;&gt;Node14 -->
<g id="edge14" class="edge"><title>Node5&#45;&gt;Node14</title>
<path fill="none" stroke="midnightblue" d="M862.187,-285.975C820.478,-275.459 749.488,-257.562 703.686,-246.014"/>
<polygon fill="midnightblue" stroke="midnightblue" points="704.303,-242.56 693.75,-243.509 702.591,-249.348 704.303,-242.56"/>
</g>
<!-- Node15 -->
<g id="node15" class="node"><title>Node15</title>
<g id="a_node15"><a xlink:href="CheckInterface_8h.html" target="_top" xlink:title="QualityControl/CheckInterface.h">
<polygon fill="none" stroke="black" points="540.5,-168.5 540.5,-187.5 697.5,-187.5 697.5,-168.5 540.5,-168.5"/>
<text text-anchor="middle" x="619" y="-175.5" font-family="Helvetica,sans-Serif" font-size="10.00">QualityControl/CheckInterface.h</text>
</a>
</g>
</g>
<!-- Node5&#45;&gt;Node15 -->
<g id="edge16" class="edge"><title>Node5&#45;&gt;Node15</title>
<path fill="none" stroke="midnightblue" d="M877.897,-285.993C840.54,-268.456 757.285,-229.459 744,-224 714.243,-211.771 679.804,-199.509 654.619,-190.88"/>
<polygon fill="midnightblue" stroke="midnightblue" points="655.705,-187.553 645.111,-187.645 653.45,-194.18 655.705,-187.553"/>
</g>
<!-- Node17 -->
<g id="node17" class="node"><title>Node17</title>
<g id="a_node17"><a xlink:href="MonitorObject_8h.html" target="_top" xlink:title="QualityControl/MonitorObject.h">
<polygon fill="none" stroke="black" points="756.5,-112.5 756.5,-131.5 907.5,-131.5 907.5,-112.5 756.5,-112.5"/>
<text text-anchor="middle" x="832" y="-119.5" font-family="Helvetica,sans-Serif" font-size="10.00">QualityControl/MonitorObject.h</text>
</a>
</g>
</g>
<!-- Node5&#45;&gt;Node17 -->
<g id="edge42" class="edge"><title>Node5&#45;&gt;Node17</title>
<path fill="none" stroke="midnightblue" d="M886.069,-285.905C876.037,-276.625 860.922,-260.889 853,-244 837.211,-210.339 833.188,-166.391 832.228,-141.79"/>
<polygon fill="midnightblue" stroke="midnightblue" points="835.724,-141.582 831.968,-131.675 828.726,-141.762 835.724,-141.582"/>
</g>
<!-- Node21 -->
<g id="node21" class="node"><title>Node21</title>
<g id="a_node21"><a xlink:href="DatabaseInterface_8h.html" target="_top" xlink:title="QualityControl/DatabaseInterface.h">
<polygon fill="none" stroke="black" points="868,-224.5 868,-243.5 1038,-243.5 1038,-224.5 868,-224.5"/>
<text text-anchor="middle" x="953" y="-231.5" font-family="Helvetica,sans-Serif" font-size="10.00">QualityControl/DatabaseInterface.h</text>
</a>
</g>
</g>
<!-- Node5&#45;&gt;Node21 -->
<g id="edge30" class="edge"><title>Node5&#45;&gt;Node21</title>
<path fill="none" stroke="midnightblue" d="M904.167,-285.975C912.886,-276.873 926.904,-262.241 937.689,-250.983"/>
<polygon fill="midnightblue" stroke="midnightblue" points="940.458,-253.151 944.848,-243.509 935.403,-248.309 940.458,-253.151"/>
</g>
<!-- Node25 -->
<g id="node25" class="node"><title>Node25</title>
<g id="a_node25"><a xlink:href="QcInfoLogger_8h.html" target="_top" xlink:title="QualityControl/QcInfoLogger.h">
<polygon fill="none" stroke="black" points="219.5,-168.5 219.5,-187.5 368.5,-187.5 368.5,-168.5 219.5,-168.5"/>
<text text-anchor="middle" x="294" y="-175.5" font-family="Helvetica,sans-Serif" font-size="10.00">QualityControl/QcInfoLogger.h</text>
</a>
</g>
</g>
<!-- Node5&#45;&gt;Node25 -->
<g id="edge43" class="edge"><title>Node5&#45;&gt;Node25</title>
<path fill="none" stroke="midnightblue" d="M820.528,-290.987C701.29,-284.739 475.056,-269.863 399,-244 365.759,-232.696 332.078,-209.255 312.123,-193.831"/>
<polygon fill="midnightblue" stroke="midnightblue" points="314.227,-191.032 304.212,-187.575 309.886,-196.523 314.227,-191.032"/>
</g>
<!-- Node27 -->
<g id="node27" class="node"><title>Node27</title>
<g id="a_node27"><a xlink:href="Check_8h_source.html" target="_top" xlink:title="QualityControl/Check.h">
<polygon fill="none" stroke="black" points="408.5,-224.5 408.5,-243.5 527.5,-243.5 527.5,-224.5 408.5,-224.5"/>
<text text-anchor="middle" x="468" y="-231.5" font-family="Helvetica,sans-Serif" font-size="10.00">QualityControl/Check.h</text>
</a>
</g>
</g>
<!-- Node5&#45;&gt;Node27 -->
<g id="edge45" class="edge"><title>Node5&#45;&gt;Node27</title>
<path fill="none" stroke="midnightblue" d="M834.678,-285.975C756.129,-275.055 620.318,-256.175 537.86,-244.712"/>
<polygon fill="midnightblue" stroke="midnightblue" points="538.215,-241.228 527.828,-243.317 537.251,-248.161 538.215,-241.228"/>
</g>
<!-- Node15&#45;&gt;Node8 -->
<g id="edge17" class="edge"><title>Node15&#45;&gt;Node8</title>
<path fill="none" stroke="midnightblue" d="M697.545,-170.528C772.267,-163.404 878.658,-150.46 916,-132 962.92,-108.805 999.309,-56.265 1016,-28.6749"/>
<polygon fill="midnightblue" stroke="midnightblue" points="1019.2,-30.136 1021.24,-19.7396 1013.16,-26.5941 1019.2,-30.136"/>
</g>
<!-- Node15&#45;&gt;Node9 -->
<g id="edge18" class="edge"><title>Node15&#45;&gt;Node9</title>
<path fill="none" stroke="midnightblue" d="M606.68,-168.368C579.854,-149.573 515.906,-104.768 482.743,-81.5334"/>
<polygon fill="midnightblue" stroke="midnightblue" points="484.461,-78.4631 474.262,-75.5914 480.444,-84.196 484.461,-78.4631"/>
</g>
<!-- Node16 -->
<g id="node16" class="node"><title>Node16</title>
<polygon fill="none" stroke="#bfbfbf" points="530,-0.5 530,-19.5 586,-19.5 586,-0.5 530,-0.5"/>
<text text-anchor="middle" x="558" y="-7.5" font-family="Helvetica,sans-Serif" font-size="10.00">Rtypes.h</text>
</g>
<!-- Node15&#45;&gt;Node16 -->
<g id="edge19" class="edge"><title>Node15&#45;&gt;Node16</title>
<path fill="none" stroke="midnightblue" d="M579.164,-168.425C534.496,-156.392 464.46,-129.666 435,-76 415.094,-39.7384 476.877,-22.903 519.955,-15.7311"/>
<polygon fill="midnightblue" stroke="midnightblue" points="520.558,-19.1795 529.903,-14.1875 519.485,-12.2623 520.558,-19.1795"/>
</g>
<!-- Node15&#45;&gt;Node17 -->
<g id="edge20" class="edge"><title>Node15&#45;&gt;Node17</title>
<path fill="none" stroke="midnightblue" d="M652.75,-168.444C689.518,-159.122 748.446,-144.183 788.622,-133.997"/>
<polygon fill="midnightblue" stroke="midnightblue" points="789.574,-137.367 798.407,-131.516 787.854,-130.581 789.574,-137.367"/>
</g>
<!-- Node20 -->
<g id="node20" class="node"><title>Node20</title>
<g id="a_node20"><a xlink:href="Quality_8h.html" target="_top" xlink:title="QualityControl/Quality.h">
<polygon fill="none" stroke="black" points="497.5,-56.5 497.5,-75.5 618.5,-75.5 618.5,-56.5 497.5,-56.5"/>
<text text-anchor="middle" x="558" y="-63.5" font-family="Helvetica,sans-Serif" font-size="10.00">QualityControl/Quality.h</text>
</a>
</g>
</g>
<!-- Node15&#45;&gt;Node20 -->
<g id="edge29" class="edge"><title>Node15&#45;&gt;Node20</title>
<path fill="none" stroke="midnightblue" d="M609.8,-168.497C601.072,-159.993 588.119,-146.174 580,-132 571.672,-117.463 565.855,-99.2831 562.303,-85.8491"/>
<polygon fill="midnightblue" stroke="midnightblue" points="565.635,-84.7393 559.847,-75.8649 558.837,-86.4115 565.635,-84.7393"/>
</g>
<!-- Node17&#45;&gt;Node8 -->
<g id="edge21" class="edge"><title>Node17&#45;&gt;Node8</title>
<path fill="none" stroke="midnightblue" d="M860.001,-112.446C883.541,-104.656 917.633,-91.9473 945,-76 969.186,-61.9066 993.827,-41.0016 1009.48,-26.7298"/>
<polygon fill="midnightblue" stroke="midnightblue" points="1012.24,-28.9392 1017.18,-19.5689 1007.48,-23.8105 1012.24,-28.9392"/>
</g>
<!-- Node17&#45;&gt;Node9 -->
<g id="edge22" class="edge"><title>Node17&#45;&gt;Node9</title>
<path fill="none" stroke="midnightblue" d="M756.218,-112.906C675.465,-103.976 551.837,-89.3607 489.876,-75.9888"/>
<polygon fill="midnightblue" stroke="midnightblue" points="490.29,-72.4934 479.762,-73.6819 488.733,-79.3181 490.29,-72.4934"/>
</g>
<!-- Node17&#45;&gt;Node16 -->
<g id="edge23" class="edge"><title>Node17&#45;&gt;Node16</title>
<path fill="none" stroke="midnightblue" d="M857.701,-112.457C888.228,-100.997 932.583,-79.365 912,-56 891.34,-32.5474 683.287,-18.1072 596.111,-13.0436"/>
<polygon fill="midnightblue" stroke="midnightblue" points="596.282,-9.54785 586.099,-12.4726 595.884,-16.5365 596.282,-9.54785"/>
</g>
<!-- Node18 -->
<g id="node18" class="node"><title>Node18</title>
<polygon fill="none" stroke="#bfbfbf" points="709.5,-56.5 709.5,-75.5 768.5,-75.5 768.5,-56.5 709.5,-56.5"/>
<text text-anchor="middle" x="739" y="-63.5" font-family="Helvetica,sans-Serif" font-size="10.00">TObject.h</text>
</g>
<!-- Node17&#45;&gt;Node18 -->
<g id="edge24" class="edge"><title>Node17&#45;&gt;Node18</title>
<path fill="none" stroke="midnightblue" d="M817.058,-112.324C802.415,-103.822 779.866,-90.7288 762.762,-80.7975"/>
<polygon fill="midnightblue" stroke="midnightblue" points="764.31,-77.6491 753.905,-75.6545 760.795,-83.7027 764.31,-77.6491"/>
</g>
<!-- Node19 -->
<g id="node19" class="node"><title>Node19</title>
<polygon fill="none" stroke="#bfbfbf" points="787,-56.5 787,-75.5 903,-75.5 903,-56.5 787,-56.5"/>
<text text-anchor="middle" x="845" y="-63.5" font-family="Helvetica,sans-Serif" font-size="10.00">Common/Exceptions.h</text>
</g>
<!-- Node17&#45;&gt;Node19 -->
<g id="edge25" class="edge"><title>Node17&#45;&gt;Node19</title>
<path fill="none" stroke="midnightblue" d="M834.147,-112.083C835.869,-104.927 838.347,-94.6353 840.5,-85.6911"/>
<polygon fill="midnightblue" stroke="midnightblue" points="843.955,-86.2925 842.893,-75.7511 837.15,-84.6541 843.955,-86.2925"/>
</g>
<!-- Node17&#45;&gt;Node20 -->
<g id="edge26" class="edge"><title>Node17&#45;&gt;Node20</title>
<path fill="none" stroke="midnightblue" d="M788.584,-112.444C740.485,-102.964 662.905,-87.6747 611.194,-77.4835"/>
<polygon fill="midnightblue" stroke="midnightblue" points="611.701,-74.0162 601.213,-75.5164 610.347,-80.8841 611.701,-74.0162"/>
</g>
<!-- Node20&#45;&gt;Node8 -->
<g id="edge28" class="edge"><title>Node20&#45;&gt;Node8</title>
<path fill="none" stroke="midnightblue" d="M618.699,-57.1382C621.844,-56.7489 624.959,-56.3674 628,-56 764.675,-39.4881 927.988,-21.6019 994.996,-14.3424"/>
<polygon fill="midnightblue" stroke="midnightblue" points="995.705,-17.7862 1005.27,-13.2308 994.952,-10.8268 995.705,-17.7862"/>
</g>
<!-- Node20&#45;&gt;Node16 -->
<g id="edge27" class="edge"><title>Node20&#45;&gt;Node16</title>
<path fill="none" stroke="midnightblue" d="M558,-56.083C558,-49.0059 558,-38.8611 558,-29.9865"/>
<polygon fill="midnightblue" stroke="midnightblue" points="561.5,-29.751 558,-19.7511 554.5,-29.7511 561.5,-29.751"/>
</g>
<!-- Node21&#45;&gt;Node2 -->
<g id="edge33" class="edge"><title>Node21&#45;&gt;Node2</title>
<path fill="none" stroke="midnightblue" d="M988.872,-224.467C1026.53,-215.485 1087.46,-200.888 1140,-188 1141.27,-187.689 1142.56,-187.371 1143.86,-187.049"/>
<polygon fill="midnightblue" stroke="midnightblue" points="1145.06,-190.358 1153.92,-184.552 1143.37,-183.565 1145.06,-190.358"/>
</g>
<!-- Node21&#45;&gt;Node7 -->
<g id="edge32" class="edge"><title>Node21&#45;&gt;Node7</title>
<path fill="none" stroke="midnightblue" d="M943.521,-224.324C934.799,-216.341 921.657,-204.313 911.102,-194.653"/>
<polygon fill="midnightblue" stroke="midnightblue" points="913.392,-192.004 903.652,-187.834 908.666,-197.167 913.392,-192.004"/>
</g>
<!-- Node21&#45;&gt;Node8 -->
<g id="edge31" class="edge"><title>Node21&#45;&gt;Node8</title>
<path fill="none" stroke="midnightblue" d="M1005.16,-224.49C1044.51,-216.882 1093.73,-204.405 1106,-188 1145.65,-135.007 1077.48,-59.234 1043.51,-26.7579"/>
<polygon fill="midnightblue" stroke="midnightblue" points="1045.77,-24.0804 1036.07,-19.816 1041,-29.1979 1045.77,-24.0804"/>
</g>
<!-- Node21&#45;&gt;Node17 -->
<g id="edge41" class="edge"><title>Node21&#45;&gt;Node17</title>
<path fill="none" stroke="midnightblue" d="M957.836,-224.08C964.404,-210.618 974.027,-184.89 962,-168 950.445,-151.773 932.62,-141.343 913.836,-134.655"/>
<polygon fill="midnightblue" stroke="midnightblue" points="914.851,-131.305 904.26,-131.576 912.708,-137.969 914.851,-131.305"/>
</g>
<!-- Node22 -->
<g id="node22" class="node"><title>Node22</title>
<polygon fill="none" stroke="#bfbfbf" points="1014.5,-168.5 1014.5,-187.5 1097.5,-187.5 1097.5,-168.5 1014.5,-168.5"/>
<text text-anchor="middle" x="1056" y="-175.5" font-family="Helvetica,sans-Serif" font-size="10.00">unordered_map</text>
</g>
<!-- Node21&#45;&gt;Node22 -->
<g id="edge34" class="edge"><title>Node21&#45;&gt;Node22</title>
<path fill="none" stroke="midnightblue" d="M969.549,-224.324C985.992,-215.703 1011.43,-202.364 1030.47,-192.386"/>
<polygon fill="midnightblue" stroke="midnightblue" points="1032.26,-195.398 1039.49,-187.655 1029.01,-189.198 1032.26,-195.398"/>
</g>
<!-- Node23 -->
<g id="node23" class="node"><title>Node23</title>
<g id="a_node23"><a xlink:href="QualityObject_8h_source.html" target="_top" xlink:title="QualityControl/QualityObject.h">
<polygon fill="none" stroke="black" points="589.5,-112.5 589.5,-131.5 738.5,-131.5 738.5,-112.5 589.5,-112.5"/>
<text text-anchor="middle" x="664" y="-119.5" font-family="Helvetica,sans-Serif" font-size="10.00">QualityControl/QualityObject.h</text>
</a>
</g>
</g>
<!-- Node21&#45;&gt;Node23 -->
<g id="edge35" class="edge"><title>Node21&#45;&gt;Node23</title>
<path fill="none" stroke="midnightblue" d="M952.46,-224.283C951.086,-210.127 946.219,-182.288 929,-168 914.938,-156.331 818.879,-142.095 746.426,-132.802"/>
<polygon fill="midnightblue" stroke="midnightblue" points="746.732,-129.313 736.371,-131.524 745.85,-136.257 746.732,-129.313"/>
</g>
<!-- Node23&#45;&gt;Node9 -->
<g id="edge37" class="edge"><title>Node23&#45;&gt;Node9</title>
<path fill="none" stroke="midnightblue" d="M627.012,-112.487C593.324,-104.524 542.027,-91.8809 489.397,-76.2515"/>
<polygon fill="midnightblue" stroke="midnightblue" points="490.142,-72.8209 479.558,-73.2988 488.13,-79.5255 490.142,-72.8209"/>
</g>
<!-- Node23&#45;&gt;Node18 -->
<g id="edge38" class="edge"><title>Node23&#45;&gt;Node18</title>
<path fill="none" stroke="midnightblue" d="M676.05,-112.324C687.463,-104.107 704.831,-91.6017 718.435,-81.8069"/>
<polygon fill="midnightblue" stroke="midnightblue" points="720.66,-84.5174 726.731,-75.8339 716.57,-78.8366 720.66,-84.5174"/>
</g>
<!-- Node23&#45;&gt;Node19 -->
<g id="edge39" class="edge"><title>Node23&#45;&gt;Node19</title>
<path fill="none" stroke="midnightblue" d="M692.68,-112.444C723.527,-103.241 772.728,-88.5617 806.829,-78.3879"/>
<polygon fill="midnightblue" stroke="midnightblue" points="807.872,-81.7293 816.454,-75.5164 805.871,-75.0215 807.872,-81.7293"/>
</g>
<!-- Node23&#45;&gt;Node20 -->
<g id="edge40" class="edge"><title>Node23&#45;&gt;Node20</title>
<path fill="none" stroke="midnightblue" d="M646.969,-112.324C629.97,-103.664 603.624,-90.2424 584.007,-80.249"/>
<polygon fill="midnightblue" stroke="midnightblue" points="585.488,-77.0752 574.988,-75.6545 582.31,-83.3125 585.488,-77.0752"/>
</g>
<!-- Node24 -->
<g id="node24" class="node"><title>Node24</title>
<polygon fill="none" stroke="#bfbfbf" points="637,-56.5 637,-75.5 691,-75.5 691,-56.5 637,-56.5"/>
<text text-anchor="middle" x="664" y="-63.5" font-family="Helvetica,sans-Serif" font-size="10.00">iostream</text>
</g>
<!-- Node23&#45;&gt;Node24 -->
<g id="edge36" class="edge"><title>Node23&#45;&gt;Node24</title>
<path fill="none" stroke="midnightblue" d="M664,-112.083C664,-105.006 664,-94.8611 664,-85.9865"/>
<polygon fill="midnightblue" stroke="midnightblue" points="667.5,-85.751 664,-75.7511 660.5,-85.7511 667.5,-85.751"/>
</g>
<!-- Node26 -->
<g id="node26" class="node"><title>Node26</title>
<polygon fill="none" stroke="#bfbfbf" points="229,-112.5 229,-131.5 359,-131.5 359,-112.5 229,-112.5"/>
<text text-anchor="middle" x="294" y="-119.5" font-family="Helvetica,sans-Serif" font-size="10.00">InfoLogger/InfoLogger.hxx</text>
</g>
<!-- Node25&#45;&gt;Node26 -->
<g id="edge44" class="edge"><title>Node25&#45;&gt;Node26</title>
<path fill="none" stroke="midnightblue" d="M294,-168.083C294,-161.006 294,-150.861 294,-141.986"/>
<polygon fill="midnightblue" stroke="midnightblue" points="297.5,-141.751 294,-131.751 290.5,-141.751 297.5,-141.751"/>
</g>
<!-- Node27&#45;&gt;Node2 -->
<g id="edge48" class="edge"><title>Node27&#45;&gt;Node2</title>
<path fill="none" stroke="midnightblue" d="M527.693,-227.807C543.101,-226.513 559.665,-225.165 575,-224 810.862,-206.086 870.588,-211.093 1106,-188 1118.45,-186.779 1132.1,-185.1 1144.02,-183.523"/>
<polygon fill="midnightblue" stroke="midnightblue" points="1144.53,-186.986 1153.97,-182.178 1143.59,-180.049 1144.53,-186.986"/>
</g>
<!-- Node27&#45;&gt;Node3 -->
<g id="edge50" class="edge"><title>Node27&#45;&gt;Node3</title>
<path fill="none" stroke="midnightblue" d="M408.111,-224.622C339.246,-214.988 226.298,-199.187 153.05,-188.94"/>
<polygon fill="midnightblue" stroke="midnightblue" points="153.375,-185.451 142.986,-187.532 152.405,-192.384 153.375,-185.451"/>
</g>
<!-- Node27&#45;&gt;Node7 -->
<g id="edge49" class="edge"><title>Node27&#45;&gt;Node7</title>
<path fill="none" stroke="midnightblue" d="M527.682,-225.435C617.384,-214.064 784.261,-192.911 857.708,-183.6"/>
<polygon fill="midnightblue" stroke="midnightblue" points="858.366,-187.045 867.846,-182.315 857.486,-180.101 858.366,-187.045"/>
</g>
<!-- Node27&#45;&gt;Node9 -->
<g id="edge47" class="edge"><title>Node27&#45;&gt;Node9</title>
<path fill="none" stroke="midnightblue" d="M451.666,-224.387C439.045,-216.72 422.503,-204.213 415,-188 398.057,-151.387 427.792,-106.812 447.209,-83.313"/>
<polygon fill="midnightblue" stroke="midnightblue" points="449.921,-85.5264 453.79,-75.663 444.615,-80.9613 449.921,-85.5264"/>
</g>
<!-- Node27&#45;&gt;Node15 -->
<g id="edge54" class="edge"><title>Node27&#45;&gt;Node15</title>
<path fill="none" stroke="midnightblue" d="M491.926,-224.444C517.219,-215.399 557.302,-201.064 585.68,-190.916"/>
<polygon fill="midnightblue" stroke="midnightblue" points="586.948,-194.179 595.186,-187.516 584.591,-187.588 586.948,-194.179"/>
</g>
<!-- Node27&#45;&gt;Node17 -->
<g id="edge53" class="edge"><title>Node27&#45;&gt;Node17</title>
<path fill="none" stroke="midnightblue" d="M527.712,-225.009C591.483,-216.024 688.082,-200.992 723,-188 756.608,-175.496 791.538,-152.62 812.526,-137.613"/>
<polygon fill="midnightblue" stroke="midnightblue" points="814.6,-140.433 820.623,-131.717 810.479,-134.774 814.6,-140.433"/>
</g>
<!-- Node27&#45;&gt;Node20 -->
<g id="edge51" class="edge"><title>Node27&#45;&gt;Node20</title>
<path fill="none" stroke="midnightblue" d="M472.839,-224.075C487.128,-197.719 529.331,-119.878 548.425,-84.6608"/>
<polygon fill="midnightblue" stroke="midnightblue" points="551.665,-86.0274 553.355,-75.5681 545.511,-82.691 551.665,-86.0274"/>
</g>
<!-- Node27&#45;&gt;Node23 -->
<g id="edge52" class="edge"><title>Node27&#45;&gt;Node23</title>
<path fill="none" stroke="midnightblue" d="M527.556,-225.72C594.277,-216.955 694.647,-201.701 706,-188 719.213,-172.055 701.29,-151.747 684.935,-138.111"/>
<polygon fill="midnightblue" stroke="midnightblue" points="686.725,-135.067 676.698,-131.647 682.404,-140.574 686.725,-135.067"/>
</g>
<!-- Node27&#45;&gt;Node25 -->
<g id="edge55" class="edge"><title>Node27&#45;&gt;Node25</title>
<path fill="none" stroke="midnightblue" d="M440.429,-224.444C410.903,-215.28 363.882,-200.688 331.117,-190.519"/>
<polygon fill="midnightblue" stroke="midnightblue" points="332.03,-187.138 321.442,-187.516 329.955,-193.823 332.03,-187.138"/>
</g>
<!-- Node28 -->
<g id="node28" class="node"><title>Node28</title>
<polygon fill="none" stroke="#bfbfbf" points="424.5,-168.5 424.5,-187.5 483.5,-187.5 483.5,-168.5 424.5,-168.5"/>
<text text-anchor="middle" x="454" y="-175.5" font-family="Helvetica,sans-Serif" font-size="10.00">functional</text>
</g>
<!-- Node27&#45;&gt;Node28 -->
<g id="edge46" class="edge"><title>Node27&#45;&gt;Node28</title>
<path fill="none" stroke="midnightblue" d="M465.688,-224.083C463.833,-216.927 461.165,-206.635 458.846,-197.691"/>
<polygon fill="midnightblue" stroke="midnightblue" points="462.166,-196.553 456.269,-187.751 455.391,-198.309 462.166,-196.553"/>
</g>
<!-- Node29&#45;&gt;Node3 -->
<g id="edge58" class="edge"><title>Node29&#45;&gt;Node3</title>
<path fill="none" stroke="midnightblue" d="M396.647,-293.285C303.527,-290.266 147.321,-279.838 104,-244 90.3941,-232.744 85.1685,-212.733 83.1801,-197.878"/>
<polygon fill="midnightblue" stroke="midnightblue" points="86.6477,-197.372 82.2054,-187.754 79.6799,-198.043 86.6477,-197.372"/>
</g>
<!-- Node29&#45;&gt;Node8 -->
<g id="edge57" class="edge"><title>Node29&#45;&gt;Node8</title>
<path fill="none" stroke="midnightblue" d="M484.977,-280.253C505.139,-264.093 540.41,-238.154 575,-224 651.718,-192.607 677.535,-207.913 758,-188 842.217,-167.158 869.933,-175.495 945,-132 976.282,-113.875 984.523,-106.459 1004,-76 1013.13,-61.7287 1018.9,-43.2586 1022.23,-29.6564"/>
<polygon fill="midnightblue" stroke="midnightblue" points="1025.72,-30.0962 1024.48,-19.5746 1018.89,-28.5756 1025.72,-30.0962"/>
</g>
<!-- Node29&#45;&gt;Node27 -->
<g id="edge60" class="edge"><title>Node29&#45;&gt;Node27</title>
<path fill="none" stroke="midnightblue" d="M468,-280.399C468,-272.466 468,-262.458 468,-253.858"/>
<polygon fill="midnightblue" stroke="midnightblue" points="471.5,-253.658 468,-243.658 464.5,-253.658 471.5,-253.658"/>
</g>
<!-- Node30 -->
<g id="node30" class="node"><title>Node30</title>
<polygon fill="none" stroke="#bfbfbf" points="113.5,-224.5 113.5,-243.5 266.5,-243.5 266.5,-224.5 113.5,-224.5"/>
<text text-anchor="middle" x="190" y="-231.5" font-family="Helvetica,sans-Serif" font-size="10.00">Framework/CompletionPolicy.h</text>
</g>
<!-- Node29&#45;&gt;Node30 -->
<g id="edge59" class="edge"><title>Node29&#45;&gt;Node30</title>
<path fill="none" stroke="midnightblue" d="M402.47,-280.475C352.624,-269.806 285.09,-255.352 239.656,-245.628"/>
<polygon fill="midnightblue" stroke="midnightblue" points="240.255,-242.177 229.744,-243.506 238.79,-249.022 240.255,-242.177"/>
</g>
</g>
</svg>
