<?xml version="1.0" encoding="UTF-8" standalone="no"?>
<!DOCTYPE svg PUBLIC "-//W3C//DTD SVG 1.1//EN"
 "http://www.w3.org/Graphics/SVG/1.1/DTD/svg11.dtd">
<!-- Generated by graphviz version 2.38.0 (20140413.2041)
 -->
<!-- Title: Framework/include/QualityControl/CheckInterface.h Pages: 1 -->
<svg width="501pt" height="207pt"
 viewBox="0.00 0.00 501.15 207.00" xmlns="http://www.w3.org/2000/svg" xmlns:xlink="http://www.w3.org/1999/xlink">
<g id="graph0" class="graph" transform="scale(1 1) rotate(0) translate(4 203)">
<title>Framework/include/QualityControl/CheckInterface.h</title>
<!-- Node1 -->
<g id="node1" class="node"><title>Node1</title>
<polygon fill="#bfbfbf" stroke="black" points="56.5064,-168.5 56.5064,-198.5 189.506,-198.5 189.506,-168.5 56.5064,-168.5"/>
<text text-anchor="start" x="64.5064" y="-186.5" font-family="Helvetica,sans-Serif" font-size="10.00">Framework/include/Quality</text>
<text text-anchor="middle" x="123.006" y="-175.5" font-family="Helvetica,sans-Serif" font-size="10.00">Control/CheckInterface.h</text>
</g>
<!-- Node2 -->
<g id="node2" class="node"><title>Node2</title>
<polygon fill="none" stroke="#bfbfbf" points="110.506,-0.5 110.506,-19.5 151.506,-19.5 151.506,-0.5 110.506,-0.5"/>
<text text-anchor="middle" x="131.006" y="-7.5" font-family="Helvetica,sans-Serif" font-size="10.00">string</text>
</g>
<!-- Node1&#45;&gt;Node2 -->
<g id="edge1" class="edge"><title>Node1&#45;&gt;Node2</title>
<path fill="none" stroke="midnightblue" d="M92.6954,-168.368C49.0252,-146.031 -23.1106,-100.518 8.00641,-56 28.6579,-26.4544 70.9008,-16.2449 100.074,-12.7536"/>
<polygon fill="midnightblue" stroke="midnightblue" points="100.563,-16.2223 110.167,-11.7479 99.8687,-9.2568 100.563,-16.2223"/>
</g>
<!-- Node3 -->
<g id="node3" class="node"><title>Node3</title>
<polygon fill="none" stroke="#bfbfbf" points="17.5064,-56.5 17.5064,-75.5 52.5064,-75.5 52.5064,-56.5 17.5064,-56.5"/>
<text text-anchor="middle" x="35.0064" y="-63.5" font-family="Helvetica,sans-Serif" font-size="10.00">map</text>
</g>
<!-- Node1&#45;&gt;Node3 -->
<g id="edge2" class="edge"><title>Node1&#45;&gt;Node3</title>
<path fill="none" stroke="midnightblue" d="M112.216,-168.337C95.928,-146.96 65.1245,-106.53 47.7538,-83.7309"/>
<polygon fill="midnightblue" stroke="midnightblue" points="50.4562,-81.5026 41.6117,-75.6695 44.8882,-85.745 50.4562,-81.5026"/>
</g>
<!-- Node4 -->
<g id="node4" class="node"><title>Node4</title>
<polygon fill="none" stroke="#bfbfbf" points="230.006,-0.5 230.006,-19.5 286.006,-19.5 286.006,-0.5 230.006,-0.5"/>
<text text-anchor="middle" x="258.006" y="-7.5" font-family="Helvetica,sans-Serif" font-size="10.00">Rtypes.h</text>
</g>
<!-- Node1&#45;&gt;Node4 -->
<g id="edge3" class="edge"><title>Node1&#45;&gt;Node4</title>
<path fill="none" stroke="midnightblue" d="M189.719,-172.867C285.286,-157.532 453.578,-124.287 489.006,-76 494.265,-68.8333 494.659,-62.86 489.006,-56 465.047,-26.9229 355.72,-16.3861 296.461,-12.7671"/>
<polygon fill="midnightblue" stroke="midnightblue" points="296.542,-9.26603 286.358,-12.1875 296.141,-16.2545 296.542,-9.26603"/>
</g>
<!-- Node5 -->
<g id="node5" class="node"><title>Node5</title>
<g id="a_node5"><a xlink:href="MonitorObject_8h.html" target="_top" xlink:title="QualityControl/MonitorObject.h">
<polygon fill="none" stroke="black" points="151.506,-112.5 151.506,-131.5 302.506,-131.5 302.506,-112.5 151.506,-112.5"/>
<text text-anchor="middle" x="227.006" y="-119.5" font-family="Helvetica,sans-Serif" font-size="10.00">QualityControl/MonitorObject.h</text>
</a>
</g>
</g>
<!-- Node1&#45;&gt;Node5 -->
<g id="edge4" class="edge"><title>Node1&#45;&gt;Node5</title>
<path fill="none" stroke="midnightblue" d="M147.653,-168.399C164.323,-158.862 186.237,-146.325 202.812,-136.842"/>
<polygon fill="midnightblue" stroke="midnightblue" points="204.932,-139.662 211.873,-131.658 201.456,-133.586 204.932,-139.662"/>
</g>
<!-- Node8 -->
<g id="node8" class="node"><title>Node8</title>
<g id="a_node8"><a xlink:href="Quality_8h.html" target="_top" xlink:title="QualityControl/Quality.h">
<polygon fill="none" stroke="black" points="70.5064,-56.5 70.5064,-75.5 191.506,-75.5 191.506,-56.5 70.5064,-56.5"/>
<text text-anchor="middle" x="131.006" y="-63.5" font-family="Helvetica,sans-Serif" font-size="10.00">QualityControl/Quality.h</text>
</a>
</g>
</g>
<!-- Node1&#45;&gt;Node8 -->
<g id="edge13" class="edge"><title>Node1&#45;&gt;Node8</title>
<path fill="none" stroke="midnightblue" d="M123.987,-168.337C125.422,-147.622 128.096,-109.016 129.697,-85.8991"/>
<polygon fill="midnightblue" stroke="midnightblue" points="133.206,-85.8874 130.406,-75.6695 126.223,-85.4037 133.206,-85.8874"/>
</g>
<!-- Node5&#45;&gt;Node2 -->
<g id="edge5" class="edge"><title>Node5&#45;&gt;Node2</title>
<path fill="none" stroke="midnightblue" d="M225.105,-112.134C221.87,-98.7422 214.219,-73.1054 200.006,-56 189.016,-42.7725 173.126,-32.0427 159.365,-24.3827"/>
<polygon fill="midnightblue" stroke="midnightblue" points="160.741,-21.1515 150.264,-19.577 157.472,-27.3415 160.741,-21.1515"/>
</g>
<!-- Node5&#45;&gt;Node3 -->
<g id="edge6" class="edge"><title>Node5&#45;&gt;Node3</title>
<path fill="none" stroke="midnightblue" d="M192.792,-112.456C161.131,-104.389 112.565,-91.6073 62.3086,-76.2623"/>
<polygon fill="midnightblue" stroke="midnightblue" points="63.1621,-72.863 52.5748,-73.2641 61.1014,-79.5528 63.1621,-72.863"/>
</g>
<!-- Node5&#45;&gt;Node4 -->
<g id="edge7" class="edge"><title>Node5&#45;&gt;Node4</title>
<path fill="none" stroke="midnightblue" d="M229.439,-112.368C234.464,-94.5366 246.087,-53.2953 252.857,-29.2717"/>
<polygon fill="midnightblue" stroke="midnightblue" points="256.241,-30.1659 255.585,-19.5914 249.504,-28.2671 256.241,-30.1659"/>
</g>
<!-- Node6 -->
<g id="node6" class="node"><title>Node6</title>
<polygon fill="none" stroke="#bfbfbf" points="286.506,-56.5 286.506,-75.5 345.506,-75.5 345.506,-56.5 286.506,-56.5"/>
<text text-anchor="middle" x="316.006" y="-63.5" font-family="Helvetica,sans-Serif" font-size="10.00">TObject.h</text>
</g>
<!-- Node5&#45;&gt;Node6 -->
<g id="edge8" class="edge"><title>Node5&#45;&gt;Node6</title>
<path fill="none" stroke="midnightblue" d="M241.306,-112.324C255.189,-103.9 276.499,-90.9709 292.81,-81.0741"/>
<polygon fill="midnightblue" stroke="midnightblue" points="295.009,-83.8341 301.743,-75.6545 291.378,-77.8495 295.009,-83.8341"/>
</g>
<!-- Node7 -->
<g id="node7" class="node"><title>Node7</title>
<polygon fill="none" stroke="#bfbfbf" points="364.006,-56.5 364.006,-75.5 480.006,-75.5 480.006,-56.5 364.006,-56.5"/>
<text text-anchor="middle" x="422.006" y="-63.5" font-family="Helvetica,sans-Serif" font-size="10.00">Common/Exceptions.h</text>
</g>
<!-- Node5&#45;&gt;Node7 -->
<g id="edge9" class="edge"><title>Node5&#45;&gt;Node7</title>
<path fill="none" stroke="midnightblue" d="M257.905,-112.444C291.28,-103.201 344.6,-88.4356 381.355,-78.2572"/>
<polygon fill="midnightblue" stroke="midnightblue" points="382.549,-81.5583 391.253,-75.5164 380.681,-74.8122 382.549,-81.5583"/>
</g>
<!-- Node5&#45;&gt;Node8 -->
<g id="edge10" class="edge"><title>Node5&#45;&gt;Node8</title>
<path fill="none" stroke="midnightblue" d="M211.582,-112.324C196.467,-103.822 173.191,-90.7288 155.535,-80.7975"/>
<polygon fill="midnightblue" stroke="midnightblue" points="156.824,-77.5066 146.392,-75.6545 153.392,-83.6077 156.824,-77.5066"/>
</g>
<!-- Node8&#45;&gt;Node2 -->
<g id="edge12" class="edge"><title>Node8&#45;&gt;Node2</title>
<path fill="none" stroke="midnightblue" d="M131.006,-56.083C131.006,-49.0059 131.006,-38.8611 131.006,-29.9865"/>
<polygon fill="midnightblue" stroke="midnightblue" points="134.507,-29.751 131.006,-19.7511 127.507,-29.7511 134.507,-29.751"/>
</g>
<!-- Node8&#45;&gt;Node4 -->
<g id="edge11" class="edge"><title>Node8&#45;&gt;Node4</title>
<path fill="none" stroke="midnightblue" d="M151.13,-56.4435C172.031,-47.5566 204.941,-33.5632 228.723,-23.4514"/>
<polygon fill="midnightblue" stroke="midnightblue" points="230.144,-26.6504 237.977,-19.5164 227.405,-20.2085 230.144,-26.6504"/>
</g>
</g>
</svg>
