<?xml version="1.0" encoding="UTF-8" standalone="no"?>
<!DOCTYPE svg PUBLIC "-//W3C//DTD SVG 1.1//EN"
 "http://www.w3.org/Graphics/SVG/1.1/DTD/svg11.dtd">
<!-- Generated by graphviz version 2.38.0 (20140413.2041)
 -->
<!-- Title: o2::quality_control_modules::common::QualityReductor Pages: 1 -->
<svg width="392pt" height="281pt"
 viewBox="0.00 0.00 392.00 281.00" xmlns="http://www.w3.org/2000/svg" xmlns:xlink="http://www.w3.org/1999/xlink">
<g id="graph0" class="graph" transform="scale(1 1) rotate(0) translate(4 277)">
<title>o2::quality_control_modules::common::QualityReductor</title>
<!-- Node1 -->
<g id="node1" class="node"><title>Node1</title>
<polygon fill="#bfbfbf" stroke="black" points="167.5,-0.5 167.5,-112.5 346.5,-112.5 346.5,-0.5 167.5,-0.5"/>
<text text-anchor="start" x="175.5" y="-100.5" font-family="Helvetica,sans-Serif" font-size="10.00">o2::quality_control</text>
<text text-anchor="middle" x="257" y="-89.5" font-family="Helvetica,sans-Serif" font-size="10.00">_modules::common::QualityReductor</text>
<polyline fill="none" stroke="black" points="167.5,-82.5 346.5,-82.5 "/>
<text text-anchor="middle" x="257" y="-70.5" font-family="Helvetica,sans-Serif" font-size="10.00"> </text>
<polyline fill="none" stroke="black" points="167.5,-63.5 346.5,-63.5 "/>
<text text-anchor="start" x="175.5" y="-51.5" font-family="Helvetica,sans-Serif" font-size="10.00">+ QualityReductor()</text>
<text text-anchor="start" x="175.5" y="-40.5" font-family="Helvetica,sans-Serif" font-size="10.00">+ ~QualityReductor()</text>
<text text-anchor="start" x="175.5" y="-29.5" font-family="Helvetica,sans-Serif" font-size="10.00">+ getBranchAddress()</text>
<text text-anchor="start" x="175.5" y="-18.5" font-family="Helvetica,sans-Serif" font-size="10.00">+ getBranchLeafList()</text>
<text text-anchor="start" x="175.5" y="-7.5" font-family="Helvetica,sans-Serif" font-size="10.00">+ update()</text>
</g>
<!-- Node2 -->
<g id="node2" class="node"><title>Node2</title>
<g id="a_node2"><a xlink:href="classo2_1_1quality__control_1_1postprocessing_1_1Reductor.html" target="_top" xlink:title="An interface for storing data derived from QC objects into a TTree. ">
<polygon fill="none" stroke="black" points="0,-160.5 0,-272.5 134,-272.5 134,-160.5 0,-160.5"/>
<text text-anchor="start" x="8" y="-260.5" font-family="Helvetica,sans-Serif" font-size="10.00">o2::quality_control</text>
<text text-anchor="middle" x="67" y="-249.5" font-family="Helvetica,sans-Serif" font-size="10.00">::postprocessing::Reductor</text>
<polyline fill="none" stroke="black" points="0,-242.5 134,-242.5 "/>
<text text-anchor="middle" x="67" y="-230.5" font-family="Helvetica,sans-Serif" font-size="10.00"> </text>
<polyline fill="none" stroke="black" points="0,-223.5 134,-223.5 "/>
<text text-anchor="start" x="8" y="-211.5" font-family="Helvetica,sans-Serif" font-size="10.00">+ Reductor()</text>
<text text-anchor="start" x="8" y="-200.5" font-family="Helvetica,sans-Serif" font-size="10.00">+ ~Reductor()</text>
<text text-anchor="start" x="8" y="-189.5" font-family="Helvetica,sans-Serif" font-size="10.00">+ getBranchAddress()</text>
<text text-anchor="start" x="8" y="-178.5" font-family="Helvetica,sans-Serif" font-size="10.00">+ getBranchLeafList()</text>
<text text-anchor="start" x="8" y="-167.5" font-family="Helvetica,sans-Serif" font-size="10.00">+ update()</text>
</a>
</g>
</g>
<!-- Node2&#45;&gt;Node1 -->
<g id="edge1" class="edge"><title>Node2&#45;&gt;Node1</title>
<path fill="none" stroke="midnightblue" d="M141.136,-153.85C157.489,-140.251 174.711,-125.93 190.73,-112.609"/>
<polygon fill="none" stroke="midnightblue" points="138.637,-151.376 133.186,-160.461 143.113,-156.758 138.637,-151.376"/>
</g>
<!-- Node3 -->
<g id="node3" class="node"><title>Node3</title>
<polygon fill="none" stroke="#bfbfbf" points="152,-188 152,-245 268,-245 268,-188 152,-188"/>
<text text-anchor="middle" x="210" y="-233" font-family="Helvetica,sans-Serif" font-size="10.00">static constexpr size_t</text>
<polyline fill="none" stroke="#bfbfbf" points="152,-226 268,-226 "/>
<text text-anchor="middle" x="210" y="-214" font-family="Helvetica,sans-Serif" font-size="10.00"> </text>
<polyline fill="none" stroke="#bfbfbf" points="152,-207 268,-207 "/>
<text text-anchor="middle" x="210" y="-195" font-family="Helvetica,sans-Serif" font-size="10.00"> </text>
</g>
<!-- Node3&#45;&gt;Node1 -->
<g id="edge2" class="edge"><title>Node3&#45;&gt;Node1</title>
<path fill="none" stroke="#404040" d="M208.486,-187.933C208.331,-171.147 209.511,-149.452 215,-131 215.676,-128.729 216.433,-126.452 217.259,-124.179"/>
<polygon fill="none" stroke="#404040" points="217.335,-123.994 215.917,-116.923 221.899,-112.896 223.316,-119.966 217.335,-123.994"/>
<text text-anchor="middle" x="248.5" y="-134" font-family="Helvetica,sans-Serif" font-size="10.00"> +NAME_SIZE</text>
</g>
<!-- Node4 -->
<g id="node4" class="node"><title>Node4</title>
<polygon fill="none" stroke="#bfbfbf" points="286.5,-188 286.5,-245 321.5,-245 321.5,-188 286.5,-188"/>
<text text-anchor="middle" x="304" y="-233" font-family="Helvetica,sans-Serif" font-size="10.00">char</text>
<polyline fill="none" stroke="#bfbfbf" points="286.5,-226 321.5,-226 "/>
<text text-anchor="middle" x="304" y="-214" font-family="Helvetica,sans-Serif" font-size="10.00"> </text>
<polyline fill="none" stroke="#bfbfbf" points="286.5,-207 321.5,-207 "/>
<text text-anchor="middle" x="304" y="-195" font-family="Helvetica,sans-Serif" font-size="10.00"> </text>
</g>
<!-- Node4&#45;&gt;Node1 -->
<g id="edge3" class="edge"><title>Node4&#45;&gt;Node1</title>
<path fill="none" stroke="#404040" d="M297.371,-187.959C293.244,-171.372 287.659,-149.877 282,-131 281.332,-128.773 280.641,-126.512 279.933,-124.233"/>
<polygon fill="none" stroke="#404040" points="279.915,-124.179 274.283,-119.675 276.274,-112.744 281.906,-117.248 279.915,-124.179"/>
<text text-anchor="middle" x="302" y="-134" font-family="Helvetica,sans-Serif" font-size="10.00"> +name</text>
</g>
<!-- Node5 -->
<g id="node5" class="node"><title>Node5</title>
<polygon fill="none" stroke="#bfbfbf" points="340,-188 340,-245 384,-245 384,-188 340,-188"/>
<text text-anchor="middle" x="362" y="-233" font-family="Helvetica,sans-Serif" font-size="10.00">UInt_t</text>
<polyline fill="none" stroke="#bfbfbf" points="340,-226 384,-226 "/>
<text text-anchor="middle" x="362" y="-214" font-family="Helvetica,sans-Serif" font-size="10.00"> </text>
<polyline fill="none" stroke="#bfbfbf" points="340,-207 384,-207 "/>
<text text-anchor="middle" x="362" y="-195" font-family="Helvetica,sans-Serif" font-size="10.00"> </text>
</g>
<!-- Node5&#45;&gt;Node1 -->
<g id="edge4" class="edge"><title>Node5&#45;&gt;Node1</title>
<path fill="none" stroke="#404040" d="M351.666,-187.77C344.727,-170.725 334.725,-148.816 323,-131 321.1,-128.112 319.089,-125.224 316.998,-122.352"/>
<polygon fill="none" stroke="#404040" points="316.899,-122.222 310.079,-119.878 309.62,-112.682 316.439,-115.026 316.899,-122.222"/>
<text text-anchor="middle" x="345" y="-134" font-family="Helvetica,sans-Serif" font-size="10.00"> +level</text>
</g>
</g>
</svg>
