<?xml version="1.0" encoding="UTF-8" standalone="no"?>
<!DOCTYPE svg PUBLIC "-//W3C//DTD SVG 1.1//EN"
 "http://www.w3.org/Graphics/SVG/1.1/DTD/svg11.dtd">
<!-- Generated by graphviz version 2.38.0 (20140413.2041)
 -->
<!-- Title: o2::quality_control::checker::CheckInterface Pages: 1 -->
<svg width="1800pt" height="336pt"
 viewBox="0.00 0.00 1800.00 336.00" xmlns="http://www.w3.org/2000/svg" xmlns:xlink="http://www.w3.org/1999/xlink">
<g id="graph0" class="graph" transform="scale(1 1) rotate(0) translate(4 332)">
<title>o2::quality_control::checker::CheckInterface</title>
<!-- Node1 -->
<g id="node1" class="node"><title>Node1</title>
<polygon fill="#bfbfbf" stroke="black" points="834,-182.5 834,-327.5 964,-327.5 964,-182.5 834,-182.5"/>
<text text-anchor="start" x="842" y="-315.5" font-family="Helvetica,sans-Serif" font-size="10.00">o2::quality_control</text>
<text text-anchor="middle" x="899" y="-304.5" font-family="Helvetica,sans-Serif" font-size="10.00">::checker::CheckInterface</text>
<polyline fill="none" stroke="black" points="834,-297.5 964,-297.5 "/>
<text text-anchor="middle" x="899" y="-285.5" font-family="Helvetica,sans-Serif" font-size="10.00"> </text>
<polyline fill="none" stroke="black" points="834,-278.5 964,-278.5 "/>
<text text-anchor="start" x="842" y="-266.5" font-family="Helvetica,sans-Serif" font-size="10.00">+ CheckInterface()</text>
<text text-anchor="start" x="842" y="-255.5" font-family="Helvetica,sans-Serif" font-size="10.00">+ ~CheckInterface()</text>
<text text-anchor="start" x="842" y="-244.5" font-family="Helvetica,sans-Serif" font-size="10.00">+ configure()</text>
<text text-anchor="start" x="842" y="-233.5" font-family="Helvetica,sans-Serif" font-size="10.00">+ check()</text>
<text text-anchor="start" x="842" y="-222.5" font-family="Helvetica,sans-Serif" font-size="10.00">+ beautify()</text>
<text text-anchor="start" x="842" y="-211.5" font-family="Helvetica,sans-Serif" font-size="10.00">+ getAcceptedType()</text>
<text text-anchor="start" x="842" y="-200.5" font-family="Helvetica,sans-Serif" font-size="10.00">+ isObjectCheckable()</text>
<text text-anchor="start" x="842" y="-189.5" font-family="Helvetica,sans-Serif" font-size="10.00">+ isObjectCheckable()</text>
</g>
<!-- Node2 -->
<g id="node2" class="node"><title>Node2</title>
<g id="a_node2"><a xlink:href="classo2_1_1quality__control_1_1test_1_1TestCheck.html" target="_top" xlink:title="{o2::quality_control\l::test::TestCheck\n|+ mValidString\l|+ TestCheck()\l+ ~TestCheck()\l+ configure()\l+ check()\l+ beautify()\l+ getAcceptedType()\l}">
<polygon fill="none" stroke="black" points="0,-11.5 0,-134.5 108,-134.5 108,-11.5 0,-11.5"/>
<text text-anchor="start" x="8" y="-122.5" font-family="Helvetica,sans-Serif" font-size="10.00">o2::quality_control</text>
<text text-anchor="middle" x="54" y="-111.5" font-family="Helvetica,sans-Serif" font-size="10.00">::test::TestCheck</text>
<polyline fill="none" stroke="black" points="0,-104.5 108,-104.5 "/>
<text text-anchor="start" x="8" y="-92.5" font-family="Helvetica,sans-Serif" font-size="10.00">+ mValidString</text>
<polyline fill="none" stroke="black" points="0,-85.5 108,-85.5 "/>
<text text-anchor="start" x="8" y="-73.5" font-family="Helvetica,sans-Serif" font-size="10.00">+ TestCheck()</text>
<text text-anchor="start" x="8" y="-62.5" font-family="Helvetica,sans-Serif" font-size="10.00">+ ~TestCheck()</text>
<text text-anchor="start" x="8" y="-51.5" font-family="Helvetica,sans-Serif" font-size="10.00">+ configure()</text>
<text text-anchor="start" x="8" y="-40.5" font-family="Helvetica,sans-Serif" font-size="10.00">+ check()</text>
<text text-anchor="start" x="8" y="-29.5" font-family="Helvetica,sans-Serif" font-size="10.00">+ beautify()</text>
<text text-anchor="start" x="8" y="-18.5" font-family="Helvetica,sans-Serif" font-size="10.00">+ getAcceptedType()</text>
</a>
</g>
</g>
<!-- Node1&#45;&gt;Node2 -->
<g id="edge1" class="edge"><title>Node1&#45;&gt;Node2</title>
<path fill="none" stroke="midnightblue" d="M823.685,-250.278C652.254,-240.749 238.39,-211.467 117,-146 111.152,-142.846 105.594,-138.92 100.377,-134.54"/>
<polygon fill="none" stroke="midnightblue" points="823.707,-253.784 833.883,-250.837 824.09,-246.795 823.707,-253.784"/>
</g>
<!-- Node3 -->
<g id="node3" class="node"><title>Node3</title>
<g id="a_node3"><a xlink:href="classo2_1_1quality__control__modules_1_1common_1_1MeanIsAbove.html" target="_top" xlink:title="Check whether the mean of the plot is above a certain limit. ">
<polygon fill="none" stroke="black" points="126,-11.5 126,-134.5 294,-134.5 294,-11.5 126,-11.5"/>
<text text-anchor="start" x="134" y="-122.5" font-family="Helvetica,sans-Serif" font-size="10.00">o2::quality_control</text>
<text text-anchor="middle" x="210" y="-111.5" font-family="Helvetica,sans-Serif" font-size="10.00">_modules::common::MeanIsAbove</text>
<polyline fill="none" stroke="black" points="126,-104.5 294,-104.5 "/>
<text text-anchor="middle" x="210" y="-92.5" font-family="Helvetica,sans-Serif" font-size="10.00"> </text>
<polyline fill="none" stroke="black" points="126,-85.5 294,-85.5 "/>
<text text-anchor="start" x="134" y="-73.5" font-family="Helvetica,sans-Serif" font-size="10.00">+ MeanIsAbove()</text>
<text text-anchor="start" x="134" y="-62.5" font-family="Helvetica,sans-Serif" font-size="10.00">+ ~MeanIsAbove()</text>
<text text-anchor="start" x="134" y="-51.5" font-family="Helvetica,sans-Serif" font-size="10.00">+ configure()</text>
<text text-anchor="start" x="134" y="-40.5" font-family="Helvetica,sans-Serif" font-size="10.00">+ check()</text>
<text text-anchor="start" x="134" y="-29.5" font-family="Helvetica,sans-Serif" font-size="10.00">+ beautify()</text>
<text text-anchor="start" x="134" y="-18.5" font-family="Helvetica,sans-Serif" font-size="10.00">+ getAcceptedType()</text>
</a>
</g>
</g>
<!-- Node1&#45;&gt;Node3 -->
<g id="edge2" class="edge"><title>Node1&#45;&gt;Node3</title>
<path fill="none" stroke="midnightblue" d="M823.626,-251.737C707.148,-245.78 478.534,-224.185 303,-146 295.726,-142.76 288.509,-138.836 281.502,-134.512"/>
<polygon fill="none" stroke="midnightblue" points="823.703,-255.245 833.861,-252.235 824.043,-248.253 823.703,-255.245"/>
</g>
<!-- Node4 -->
<g id="node4" class="node"><title>Node4</title>
<g id="a_node4"><a xlink:href="classo2_1_1quality__control__modules_1_1common_1_1NonEmpty.html" target="_top" xlink:title="Check whether a plot is empty or not. ">
<polygon fill="none" stroke="black" points="312.5,-6 312.5,-140 467.5,-140 467.5,-6 312.5,-6"/>
<text text-anchor="start" x="320.5" y="-128" font-family="Helvetica,sans-Serif" font-size="10.00">o2::quality_control</text>
<text text-anchor="middle" x="390" y="-117" font-family="Helvetica,sans-Serif" font-size="10.00">_modules::common::NonEmpty</text>
<polyline fill="none" stroke="black" points="312.5,-110 467.5,-110 "/>
<text text-anchor="middle" x="390" y="-98" font-family="Helvetica,sans-Serif" font-size="10.00"> </text>
<polyline fill="none" stroke="black" points="312.5,-91 467.5,-91 "/>
<text text-anchor="start" x="320.5" y="-79" font-family="Helvetica,sans-Serif" font-size="10.00">+ NonEmpty()</text>
<text text-anchor="start" x="320.5" y="-68" font-family="Helvetica,sans-Serif" font-size="10.00">+ ~NonEmpty()</text>
<text text-anchor="start" x="320.5" y="-57" font-family="Helvetica,sans-Serif" font-size="10.00">+ configure()</text>
<text text-anchor="start" x="320.5" y="-46" font-family="Helvetica,sans-Serif" font-size="10.00">+ check()</text>
<text text-anchor="start" x="320.5" y="-35" font-family="Helvetica,sans-Serif" font-size="10.00">+ beautify()</text>
<text text-anchor="start" x="320.5" y="-24" font-family="Helvetica,sans-Serif" font-size="10.00">+ getAcceptedType()</text>
<text text-anchor="start" x="320.5" y="-13" font-family="Helvetica,sans-Serif" font-size="10.00">+ ClassDefOverride()</text>
</a>
</g>
</g>
<!-- Node1&#45;&gt;Node4 -->
<g id="edge3" class="edge"><title>Node1&#45;&gt;Node4</title>
<path fill="none" stroke="midnightblue" d="M823.595,-244.89C736.324,-232.094 590.121,-203.596 477,-146 473.418,-144.176 469.852,-142.183 466.323,-140.059"/>
<polygon fill="none" stroke="midnightblue" points="823.282,-248.381 833.678,-246.337 824.276,-241.452 823.282,-248.381"/>
</g>
<!-- Node5 -->
<g id="node5" class="node"><title>Node5</title>
<g id="a_node5"><a xlink:href="classo2_1_1quality__control__modules_1_1daq_1_1EverIncreasingGraph.html" target="_top" xlink:title="Check whether a plot is empty or not. ">
<polygon fill="none" stroke="black" points="486,-6 486,-140 638,-140 638,-6 486,-6"/>
<text text-anchor="start" x="494" y="-128" font-family="Helvetica,sans-Serif" font-size="10.00">o2::quality_control</text>
<text text-anchor="start" x="494" y="-117" font-family="Helvetica,sans-Serif" font-size="10.00">_modules::daq::EverIncreasing</text>
<text text-anchor="middle" x="562" y="-106" font-family="Helvetica,sans-Serif" font-size="10.00">Graph</text>
<polyline fill="none" stroke="black" points="486,-99 638,-99 "/>
<text text-anchor="middle" x="562" y="-87" font-family="Helvetica,sans-Serif" font-size="10.00"> </text>
<polyline fill="none" stroke="black" points="486,-80 638,-80 "/>
<text text-anchor="start" x="494" y="-68" font-family="Helvetica,sans-Serif" font-size="10.00">+ EverIncreasingGraph()</text>
<text text-anchor="start" x="494" y="-57" font-family="Helvetica,sans-Serif" font-size="10.00">+ ~EverIncreasingGraph()</text>
<text text-anchor="start" x="494" y="-46" font-family="Helvetica,sans-Serif" font-size="10.00">+ configure()</text>
<text text-anchor="start" x="494" y="-35" font-family="Helvetica,sans-Serif" font-size="10.00">+ check()</text>
<text text-anchor="start" x="494" y="-24" font-family="Helvetica,sans-Serif" font-size="10.00">+ beautify()</text>
<text text-anchor="start" x="494" y="-13" font-family="Helvetica,sans-Serif" font-size="10.00">+ getAcceptedType()</text>
</a>
</g>
</g>
<!-- Node1&#45;&gt;Node5 -->
<g id="edge4" class="edge"><title>Node1&#45;&gt;Node5</title>
<path fill="none" stroke="midnightblue" d="M824.305,-228.691C772.587,-209.589 703.214,-180.763 647,-146 644.039,-144.169 641.075,-142.24 638.121,-140.235"/>
<polygon fill="none" stroke="midnightblue" points="823.155,-231.997 833.749,-232.144 825.559,-225.423 823.155,-231.997"/>
</g>
<!-- Node6 -->
<g id="node6" class="node"><title>Node6</title>
<g id="a_node6"><a xlink:href="classo2_1_1quality__control__modules_1_1emcal_1_1DigitCheck.html" target="_top" xlink:title="Check whether a plot is empty or not. ">
<polygon fill="none" stroke="black" points="656,-6 656,-140 802,-140 802,-6 656,-6"/>
<text text-anchor="start" x="664" y="-128" font-family="Helvetica,sans-Serif" font-size="10.00">o2::quality_control</text>
<text text-anchor="middle" x="729" y="-117" font-family="Helvetica,sans-Serif" font-size="10.00">_modules::emcal::DigitCheck</text>
<polyline fill="none" stroke="black" points="656,-110 802,-110 "/>
<text text-anchor="middle" x="729" y="-98" font-family="Helvetica,sans-Serif" font-size="10.00"> </text>
<polyline fill="none" stroke="black" points="656,-91 802,-91 "/>
<text text-anchor="start" x="664" y="-79" font-family="Helvetica,sans-Serif" font-size="10.00">+ DigitCheck()</text>
<text text-anchor="start" x="664" y="-68" font-family="Helvetica,sans-Serif" font-size="10.00">+ ~DigitCheck()</text>
<text text-anchor="start" x="664" y="-57" font-family="Helvetica,sans-Serif" font-size="10.00">+ configure()</text>
<text text-anchor="start" x="664" y="-46" font-family="Helvetica,sans-Serif" font-size="10.00">+ check()</text>
<text text-anchor="start" x="664" y="-35" font-family="Helvetica,sans-Serif" font-size="10.00">+ beautify()</text>
<text text-anchor="start" x="664" y="-24" font-family="Helvetica,sans-Serif" font-size="10.00">+ getAcceptedType()</text>
<text text-anchor="start" x="664" y="-13" font-family="Helvetica,sans-Serif" font-size="10.00">+ ClassDefOverride()</text>
</a>
</g>
</g>
<!-- Node1&#45;&gt;Node6 -->
<g id="edge5" class="edge"><title>Node1&#45;&gt;Node6</title>
<path fill="none" stroke="midnightblue" d="M826.886,-177.644C815.134,-165.201 803.045,-152.401 791.547,-140.227"/>
<polygon fill="none" stroke="midnightblue" points="824.349,-180.055 833.76,-184.922 829.438,-175.249 824.349,-180.055"/>
</g>
<!-- Node7 -->
<g id="node7" class="node"><title>Node7</title>
<g id="a_node7"><a xlink:href="classo2_1_1quality__control__modules_1_1example_1_1FakeCheck.html" target="_top" xlink:title="Check whether a plot is empty or not. ">
<polygon fill="none" stroke="black" points="820,-6 820,-140 978,-140 978,-6 820,-6"/>
<text text-anchor="start" x="828" y="-128" font-family="Helvetica,sans-Serif" font-size="10.00">o2::quality_control</text>
<text text-anchor="middle" x="899" y="-117" font-family="Helvetica,sans-Serif" font-size="10.00">_modules::example::FakeCheck</text>
<polyline fill="none" stroke="black" points="820,-110 978,-110 "/>
<text text-anchor="middle" x="899" y="-98" font-family="Helvetica,sans-Serif" font-size="10.00"> </text>
<polyline fill="none" stroke="black" points="820,-91 978,-91 "/>
<text text-anchor="start" x="828" y="-79" font-family="Helvetica,sans-Serif" font-size="10.00">+ FakeCheck()</text>
<text text-anchor="start" x="828" y="-68" font-family="Helvetica,sans-Serif" font-size="10.00">+ ~FakeCheck()</text>
<text text-anchor="start" x="828" y="-57" font-family="Helvetica,sans-Serif" font-size="10.00">+ configure()</text>
<text text-anchor="start" x="828" y="-46" font-family="Helvetica,sans-Serif" font-size="10.00">+ check()</text>
<text text-anchor="start" x="828" y="-35" font-family="Helvetica,sans-Serif" font-size="10.00">+ beautify()</text>
<text text-anchor="start" x="828" y="-24" font-family="Helvetica,sans-Serif" font-size="10.00">+ getAcceptedType()</text>
<text text-anchor="start" x="828" y="-13" font-family="Helvetica,sans-Serif" font-size="10.00">+ ClassDefOverride()</text>
</a>
</g>
</g>
<!-- Node1&#45;&gt;Node7 -->
<g id="edge6" class="edge"><title>Node1&#45;&gt;Node7</title>
<path fill="none" stroke="midnightblue" d="M899,-172.14C899,-161.428 899,-150.561 899,-140.153"/>
<polygon fill="none" stroke="midnightblue" points="895.5,-172.342 899,-182.342 902.5,-172.342 895.5,-172.342"/>
</g>
<!-- Node8 -->
<g id="node8" class="node"><title>Node8</title>
<g id="a_node8"><a xlink:href="classo2_1_1quality__control__modules_1_1skeleton_1_1SkeletonCheck.html" target="_top" xlink:title="Check whether a plot is empty or not. ">
<polygon fill="none" stroke="black" points="996,-0.5 996,-145.5 1106,-145.5 1106,-0.5 996,-0.5"/>
<text text-anchor="start" x="1004" y="-133.5" font-family="Helvetica,sans-Serif" font-size="10.00">o2::quality_control</text>
<text text-anchor="start" x="1004" y="-122.5" font-family="Helvetica,sans-Serif" font-size="10.00">_modules::skeleton::</text>
<text text-anchor="middle" x="1051" y="-111.5" font-family="Helvetica,sans-Serif" font-size="10.00">SkeletonCheck</text>
<polyline fill="none" stroke="black" points="996,-104.5 1106,-104.5 "/>
<text text-anchor="middle" x="1051" y="-92.5" font-family="Helvetica,sans-Serif" font-size="10.00"> </text>
<polyline fill="none" stroke="black" points="996,-85.5 1106,-85.5 "/>
<text text-anchor="start" x="1004" y="-73.5" font-family="Helvetica,sans-Serif" font-size="10.00">+ SkeletonCheck()</text>
<text text-anchor="start" x="1004" y="-62.5" font-family="Helvetica,sans-Serif" font-size="10.00">+ ~SkeletonCheck()</text>
<text text-anchor="start" x="1004" y="-51.5" font-family="Helvetica,sans-Serif" font-size="10.00">+ configure()</text>
<text text-anchor="start" x="1004" y="-40.5" font-family="Helvetica,sans-Serif" font-size="10.00">+ check()</text>
<text text-anchor="start" x="1004" y="-29.5" font-family="Helvetica,sans-Serif" font-size="10.00">+ beautify()</text>
<text text-anchor="start" x="1004" y="-18.5" font-family="Helvetica,sans-Serif" font-size="10.00">+ getAcceptedType()</text>
<text text-anchor="start" x="1004" y="-7.5" font-family="Helvetica,sans-Serif" font-size="10.00">+ ClassDefOverride()</text>
</a>
</g>
</g>
<!-- Node1&#45;&gt;Node8 -->
<g id="edge7" class="edge"><title>Node1&#45;&gt;Node8</title>
<path fill="none" stroke="midnightblue" d="M966.027,-174.626C976,-162.816 986.181,-150.759 995.872,-139.283"/>
<polygon fill="none" stroke="midnightblue" points="963.289,-172.444 959.511,-182.342 968.637,-176.96 963.289,-172.444"/>
</g>
<!-- Node9 -->
<g id="node9" class="node"><title>Node9</title>
<g id="a_node9"><a xlink:href="classo2_1_1quality__control__modules_1_1tof_1_1TOFCheckRawsMulti.html" target="_top" xlink:title="Check whether a plot is empty or not. ">
<polygon fill="none" stroke="black" points="1124.5,-0.5 1124.5,-145.5 1279.5,-145.5 1279.5,-0.5 1124.5,-0.5"/>
<text text-anchor="start" x="1132.5" y="-133.5" font-family="Helvetica,sans-Serif" font-size="10.00">o2::quality_control</text>
<text text-anchor="start" x="1132.5" y="-122.5" font-family="Helvetica,sans-Serif" font-size="10.00">_modules::tof::TOFCheckRaws</text>
<text text-anchor="middle" x="1202" y="-111.5" font-family="Helvetica,sans-Serif" font-size="10.00">Multi</text>
<polyline fill="none" stroke="black" points="1124.5,-104.5 1279.5,-104.5 "/>
<text text-anchor="start" x="1132.5" y="-92.5" font-family="Helvetica,sans-Serif" font-size="10.00">+ minTOFrawhits</text>
<text text-anchor="start" x="1132.5" y="-81.5" font-family="Helvetica,sans-Serif" font-size="10.00">+ maxTOFrawhits</text>
<polyline fill="none" stroke="black" points="1124.5,-74.5 1279.5,-74.5 "/>
<text text-anchor="start" x="1132.5" y="-62.5" font-family="Helvetica,sans-Serif" font-size="10.00">+ TOFCheckRawsMulti()</text>
<text text-anchor="start" x="1132.5" y="-51.5" font-family="Helvetica,sans-Serif" font-size="10.00">+ ~TOFCheckRawsMulti()</text>
<text text-anchor="start" x="1132.5" y="-40.5" font-family="Helvetica,sans-Serif" font-size="10.00">+ configure()</text>
<text text-anchor="start" x="1132.5" y="-29.5" font-family="Helvetica,sans-Serif" font-size="10.00">+ check()</text>
<text text-anchor="start" x="1132.5" y="-18.5" font-family="Helvetica,sans-Serif" font-size="10.00">+ beautify()</text>
<text text-anchor="start" x="1132.5" y="-7.5" font-family="Helvetica,sans-Serif" font-size="10.00">+ getAcceptedType()</text>
</a>
</g>
</g>
<!-- Node1&#45;&gt;Node9 -->
<g id="edge8" class="edge"><title>Node1&#45;&gt;Node9</title>
<path fill="none" stroke="midnightblue" d="M973.644,-221.804C1016.35,-202.143 1070.17,-175.214 1115,-146 1118.12,-143.966 1121.26,-141.838 1124.39,-139.64"/>
<polygon fill="none" stroke="midnightblue" points="972.073,-218.674 964.432,-226.013 974.982,-225.041 972.073,-218.674"/>
</g>
<!-- Node10 -->
<g id="node10" class="node"><title>Node10</title>
<g id="a_node10"><a xlink:href="classo2_1_1quality__control__modules_1_1tof_1_1TOFCheckRawsTime.html" target="_top" xlink:title="Check whether a plot is empty or not. ">
<polygon fill="none" stroke="black" points="1297.5,-6 1297.5,-140 1474.5,-140 1474.5,-6 1297.5,-6"/>
<text text-anchor="start" x="1305.5" y="-128" font-family="Helvetica,sans-Serif" font-size="10.00">o2::quality_control</text>
<text text-anchor="middle" x="1386" y="-117" font-family="Helvetica,sans-Serif" font-size="10.00">_modules::tof::TOFCheckRawsTime</text>
<polyline fill="none" stroke="black" points="1297.5,-110 1474.5,-110 "/>
<text text-anchor="start" x="1305.5" y="-98" font-family="Helvetica,sans-Serif" font-size="10.00">+ minTOFrawTime</text>
<text text-anchor="start" x="1305.5" y="-87" font-family="Helvetica,sans-Serif" font-size="10.00">+ maxTOFrawTime</text>
<polyline fill="none" stroke="black" points="1297.5,-80 1474.5,-80 "/>
<text text-anchor="start" x="1305.5" y="-68" font-family="Helvetica,sans-Serif" font-size="10.00">+ TOFCheckRawsTime()</text>
<text text-anchor="start" x="1305.5" y="-57" font-family="Helvetica,sans-Serif" font-size="10.00">+ ~TOFCheckRawsTime()</text>
<text text-anchor="start" x="1305.5" y="-46" font-family="Helvetica,sans-Serif" font-size="10.00">+ configure()</text>
<text text-anchor="start" x="1305.5" y="-35" font-family="Helvetica,sans-Serif" font-size="10.00">+ check()</text>
<text text-anchor="start" x="1305.5" y="-24" font-family="Helvetica,sans-Serif" font-size="10.00">+ beautify()</text>
<text text-anchor="start" x="1305.5" y="-13" font-family="Helvetica,sans-Serif" font-size="10.00">+ getAcceptedType()</text>
</a>
</g>
</g>
<!-- Node1&#45;&gt;Node10 -->
<g id="edge9" class="edge"><title>Node1&#45;&gt;Node10</title>
<path fill="none" stroke="midnightblue" d="M974.165,-241.703C1054.94,-226.575 1185.63,-196.489 1289,-146 1292.77,-144.159 1296.54,-142.166 1300.29,-140.057"/>
<polygon fill="none" stroke="midnightblue" points="973.281,-238.307 964.081,-243.562 974.55,-245.191 973.281,-238.307"/>
</g>
<!-- Node11 -->
<g id="node11" class="node"><title>Node11</title>
<g id="a_node11"><a xlink:href="classo2_1_1quality__control__modules_1_1tof_1_1TOFCheckRawsToT.html" target="_top" xlink:title="Check whether a plot is empty or not. ">
<polygon fill="none" stroke="black" points="1492.5,-0.5 1492.5,-145.5 1665.5,-145.5 1665.5,-0.5 1492.5,-0.5"/>
<text text-anchor="start" x="1500.5" y="-133.5" font-family="Helvetica,sans-Serif" font-size="10.00">o2::quality_control</text>
<text text-anchor="middle" x="1579" y="-122.5" font-family="Helvetica,sans-Serif" font-size="10.00">_modules::tof::TOFCheckRawsToT</text>
<polyline fill="none" stroke="black" points="1492.5,-115.5 1665.5,-115.5 "/>
<text text-anchor="start" x="1500.5" y="-103.5" font-family="Helvetica,sans-Serif" font-size="10.00">+ minTOFrawTot</text>
<text text-anchor="start" x="1500.5" y="-92.5" font-family="Helvetica,sans-Serif" font-size="10.00">+ maxTOFrawTot</text>
<polyline fill="none" stroke="black" points="1492.5,-85.5 1665.5,-85.5 "/>
<text text-anchor="start" x="1500.5" y="-73.5" font-family="Helvetica,sans-Serif" font-size="10.00">+ TOFCheckRawsToT()</text>
<text text-anchor="start" x="1500.5" y="-62.5" font-family="Helvetica,sans-Serif" font-size="10.00">+ ~TOFCheckRawsToT()</text>
<text text-anchor="start" x="1500.5" y="-51.5" font-family="Helvetica,sans-Serif" font-size="10.00">+ configure()</text>
<text text-anchor="start" x="1500.5" y="-40.5" font-family="Helvetica,sans-Serif" font-size="10.00">+ check()</text>
<text text-anchor="start" x="1500.5" y="-29.5" font-family="Helvetica,sans-Serif" font-size="10.00">+ beautify()</text>
<text text-anchor="start" x="1500.5" y="-18.5" font-family="Helvetica,sans-Serif" font-size="10.00">+ getAcceptedType()</text>
<text text-anchor="start" x="1500.5" y="-7.5" font-family="Helvetica,sans-Serif" font-size="10.00">+ ClassDefOverride()</text>
</a>
</g>
</g>
<!-- Node1&#45;&gt;Node11 -->
<g id="edge10" class="edge"><title>Node1&#45;&gt;Node11</title>
<path fill="none" stroke="midnightblue" d="M974.262,-251.166C1088.88,-244.457 1312.02,-221.884 1484,-146 1486.84,-144.747 1489.67,-143.393 1492.49,-141.956"/>
<polygon fill="none" stroke="midnightblue" points="973.973,-247.677 964.185,-251.732 974.365,-254.666 973.973,-247.677"/>
</g>
<!-- Node12 -->
<g id="node12" class="node"><title>Node12</title>
<g id="a_node12"><a xlink:href="classTestCheck.html" target="_top" xlink:title="{TestCheck\n|+ mCheck\l+ mBeautify\l|+ TestCheck()\l+ configure()\l+ check()\l+ beautify()\l+ getAcceptedType()\l}">
<polygon fill="none" stroke="black" points="1684,-17 1684,-129 1792,-129 1792,-17 1684,-17"/>
<text text-anchor="middle" x="1738" y="-117" font-family="Helvetica,sans-Serif" font-size="10.00">TestCheck</text>
<polyline fill="none" stroke="black" points="1684,-110 1792,-110 "/>
<text text-anchor="start" x="1692" y="-98" font-family="Helvetica,sans-Serif" font-size="10.00">+ mCheck</text>
<text text-anchor="start" x="1692" y="-87" font-family="Helvetica,sans-Serif" font-size="10.00">+ mBeautify</text>
<polyline fill="none" stroke="black" points="1684,-80 1792,-80 "/>
<text text-anchor="start" x="1692" y="-68" font-family="Helvetica,sans-Serif" font-size="10.00">+ TestCheck()</text>
<text text-anchor="start" x="1692" y="-57" font-family="Helvetica,sans-Serif" font-size="10.00">+ configure()</text>
<text text-anchor="start" x="1692" y="-46" font-family="Helvetica,sans-Serif" font-size="10.00">+ check()</text>
<text text-anchor="start" x="1692" y="-35" font-family="Helvetica,sans-Serif" font-size="10.00">+ beautify()</text>
<text text-anchor="start" x="1692" y="-24" font-family="Helvetica,sans-Serif" font-size="10.00">+ getAcceptedType()</text>
</a>
</g>
</g>
<!-- Node1&#45;&gt;Node12 -->
<g id="edge11" class="edge"><title>Node1&#45;&gt;Node12</title>
<path fill="none" stroke="midnightblue" d="M974.361,-250.184C1144.86,-240.493 1554.7,-210.958 1675,-146 1683.18,-141.581 1690.8,-135.649 1697.71,-129.079"/>
<polygon fill="none" stroke="midnightblue" points="974.005,-246.698 964.217,-250.753 974.397,-253.687 974.005,-246.698"/>
</g>
</g>
</svg>
