<?xml version="1.0" encoding="UTF-8" standalone="no"?>
<!DOCTYPE svg PUBLIC "-//W3C//DTD SVG 1.1//EN"
 "http://www.w3.org/Graphics/SVG/1.1/DTD/svg11.dtd">
<!-- Generated by graphviz version 2.38.0 (20140413.2041)
 -->
<!-- Title: o2::quality_control_modules::tof::TOFCheckRawsTime Pages: 1 -->
<svg width="238pt" height="336pt"
 viewBox="0.00 0.00 238.00 336.00" xmlns="http://www.w3.org/2000/svg" xmlns:xlink="http://www.w3.org/1999/xlink">
<g id="graph0" class="graph" transform="scale(1 1) rotate(0) translate(4 332)">
<title>o2::quality_control_modules::tof::TOFCheckRawsTime</title>
<!-- Node1 -->
<g id="node1" class="node"><title>Node1</title>
<polygon fill="#bfbfbf" stroke="black" points="29.5,-0.5 29.5,-123.5 206.5,-123.5 206.5,-0.5 29.5,-0.5"/>
<text text-anchor="start" x="37.5" y="-111.5" font-family="Helvetica,sans-Serif" font-size="10.00">o2::quality_control</text>
<text text-anchor="middle" x="118" y="-100.5" font-family="Helvetica,sans-Serif" font-size="10.00">_modules::tof::TOFCheckRawsTime</text>
<polyline fill="none" stroke="black" points="29.5,-93.5 206.5,-93.5 "/>
<text text-anchor="middle" x="118" y="-81.5" font-family="Helvetica,sans-Serif" font-size="10.00"> </text>
<polyline fill="none" stroke="black" points="29.5,-74.5 206.5,-74.5 "/>
<text text-anchor="start" x="37.5" y="-62.5" font-family="Helvetica,sans-Serif" font-size="10.00">+ TOFCheckRawsTime()</text>
<text text-anchor="start" x="37.5" y="-51.5" font-family="Helvetica,sans-Serif" font-size="10.00">+ ~TOFCheckRawsTime()</text>
<text text-anchor="start" x="37.5" y="-40.5" font-family="Helvetica,sans-Serif" font-size="10.00">+ configure()</text>
<text text-anchor="start" x="37.5" y="-29.5" font-family="Helvetica,sans-Serif" font-size="10.00">+ check()</text>
<text text-anchor="start" x="37.5" y="-18.5" font-family="Helvetica,sans-Serif" font-size="10.00">+ beautify()</text>
<text text-anchor="start" x="37.5" y="-7.5" font-family="Helvetica,sans-Serif" font-size="10.00">+ getAcceptedType()</text>
</g>
<!-- Node2 -->
<g id="node2" class="node"><title>Node2</title>
<g id="a_node2"><a xlink:href="classo2_1_1quality__control_1_1checker_1_1CheckInterface.html" target="_top" xlink:title="Skeleton of a check. ">
<polygon fill="none" stroke="black" points="0,-182.5 0,-327.5 130,-327.5 130,-182.5 0,-182.5"/>
<text text-anchor="start" x="8" y="-315.5" font-family="Helvetica,sans-Serif" font-size="10.00">o2::quality_control</text>
<text text-anchor="middle" x="65" y="-304.5" font-family="Helvetica,sans-Serif" font-size="10.00">::checker::CheckInterface</text>
<polyline fill="none" stroke="black" points="0,-297.5 130,-297.5 "/>
<text text-anchor="middle" x="65" y="-285.5" font-family="Helvetica,sans-Serif" font-size="10.00"> </text>
<polyline fill="none" stroke="black" points="0,-278.5 130,-278.5 "/>
<text text-anchor="start" x="8" y="-266.5" font-family="Helvetica,sans-Serif" font-size="10.00">+ CheckInterface()</text>
<text text-anchor="start" x="8" y="-255.5" font-family="Helvetica,sans-Serif" font-size="10.00">+ ~CheckInterface()</text>
<text text-anchor="start" x="8" y="-244.5" font-family="Helvetica,sans-Serif" font-size="10.00">+ configure()</text>
<text text-anchor="start" x="8" y="-233.5" font-family="Helvetica,sans-Serif" font-size="10.00">+ check()</text>
<text text-anchor="start" x="8" y="-222.5" font-family="Helvetica,sans-Serif" font-size="10.00">+ beautify()</text>
<text text-anchor="start" x="8" y="-211.5" font-family="Helvetica,sans-Serif" font-size="10.00">+ getAcceptedType()</text>
<text text-anchor="start" x="8" y="-200.5" font-family="Helvetica,sans-Serif" font-size="10.00">+ isObjectCheckable()</text>
<text text-anchor="start" x="8" y="-189.5" font-family="Helvetica,sans-Serif" font-size="10.00">+ isObjectCheckable()</text>
</a>
</g>
</g>
<!-- Node2&#45;&gt;Node1 -->
<g id="edge1" class="edge"><title>Node2&#45;&gt;Node1</title>
<path fill="none" stroke="midnightblue" d="M87.6871,-172.241C92.2253,-155.886 96.9159,-138.982 101.211,-123.502"/>
<polygon fill="none" stroke="midnightblue" points="84.1874,-171.763 84.886,-182.335 90.9325,-173.635 84.1874,-171.763"/>
</g>
<!-- Node3 -->
<g id="node3" class="node"><title>Node3</title>
<polygon fill="none" stroke="#bfbfbf" points="148.5,-226.5 148.5,-283.5 195.5,-283.5 195.5,-226.5 148.5,-226.5"/>
<text text-anchor="middle" x="172" y="-271.5" font-family="Helvetica,sans-Serif" font-size="10.00">Float_t</text>
<polyline fill="none" stroke="#bfbfbf" points="148.5,-264.5 195.5,-264.5 "/>
<text text-anchor="middle" x="172" y="-252.5" font-family="Helvetica,sans-Serif" font-size="10.00"> </text>
<polyline fill="none" stroke="#bfbfbf" points="148.5,-245.5 195.5,-245.5 "/>
<text text-anchor="middle" x="172" y="-233.5" font-family="Helvetica,sans-Serif" font-size="10.00"> </text>
</g>
<!-- Node3&#45;&gt;Node1 -->
<g id="edge2" class="edge"><title>Node3&#45;&gt;Node1</title>
<path fill="none" stroke="#404040" d="M164.148,-226.227C157.43,-202.465 147.454,-167.179 138.494,-135.488"/>
<polygon fill="none" stroke="#404040" points="138.383,-135.097 132.902,-130.411 135.119,-123.549 140.6,-128.235 138.383,-135.097"/>
<text text-anchor="middle" x="187.5" y="-156" font-family="Helvetica,sans-Serif" font-size="10.00"> +maxTOFrawTime</text>
<text text-anchor="middle" x="187.5" y="-145" font-family="Helvetica,sans-Serif" font-size="10.00">+minTOFrawTime</text>
</g>
</g>
</svg>
