<?xml version="1.0" encoding="UTF-8" standalone="no"?>
<!DOCTYPE svg PUBLIC "-//W3C//DTD SVG 1.1//EN"
 "http://www.w3.org/Graphics/SVG/1.1/DTD/svg11.dtd">
<!-- Generated by graphviz version 2.38.0 (20140413.2041)
 -->
<!-- Title: Framework/src/DatabaseFactory.cxx Pages: 1 -->
<!--zoomable 308 -->
<svg id="main" version="1.1" xmlns="http://www.w3.org/2000/svg" xmlns:xlink="http://www.w3.org/1999/xlink" xml:space="preserve" onload="init(evt)">
<style type="text/css"><![CDATA[
.edge:hover path { stroke: red; }
.edge:hover polygon { stroke: red; fill: red; }
]]></style>
<script type="text/javascript"><![CDATA[
var edges = document.getElementsByTagName('g');
if (edges && edges.length) {
  for (var i=0;i<edges.length;i++) {
    if (edges[i].id.substr(0,4)=='edge') {
      edges[i].setAttribute('class','edge');
    }
  }
}
]]></script>
        <defs>
                <circle id="rim" cx="0" cy="0" r="7"/>
                <circle id="rim2" cx="0" cy="0" r="3.5"/>
                <g id="zoomPlus">
                        <use xlink:href="#rim" fill="#404040">
                                <set attributeName="fill" to="#808080" begin="zoomplus.mouseover" end="zoomplus.mouseout"/>
                        </use>
                        <path d="M-4,0h8M0,-4v8" fill="none" stroke="white" stroke-width="1.5" pointer-events="none"/>
                </g>
                <g id="zoomMin">
                        <use xlink:href="#rim" fill="#404040">
                                <set attributeName="fill" to="#808080" begin="zoomminus.mouseover" end="zoomminus.mouseout"/>
                        </use>
                        <path d="M-4,0h8" fill="none" stroke="white" stroke-width="1.5" pointer-events="none"/>
                </g>
                <g id="dirArrow">
                        <path fill="none" stroke="white" stroke-width="1.5" d="M0,-3.0v7 M-2.5,-0.5L0,-3.0L2.5,-0.5"/>
                </g>
               <g id="resetDef">
                       <use xlink:href="#rim2" fill="#404040">
                               <set attributeName="fill" to="#808080" begin="reset.mouseover" end="reset.mouseout"/>
                       </use>
               </g>
        </defs>

<script type="text/javascript">
var viewWidth = 918;
var viewHeight = 308;
var sectionId = 'dynsection-0';
</script>
<script xlink:href="svgpan.js"/>
<svg id="graph" class="graph">
<g id="viewport">
<title>Framework/src/DatabaseFactory.cxx</title>
<!-- Node1 -->
<g id="node1" class="node"><title>Node1</title>
<polygon fill="#bfbfbf" stroke="black" points="386.5,-280.5 386.5,-299.5 565.5,-299.5 565.5,-280.5 386.5,-280.5"/>
<text text-anchor="middle" x="476" y="-287.5" font-family="Helvetica,sans-Serif" font-size="10.00">Framework/src/DatabaseFactory.cxx</text>
</g>
<!-- Node2 -->
<g id="node2" class="node"><title>Node2</title>
<g id="a_node2"><a xlink:href="CcdbDatabase_8h.html" target="_top" xlink:title="QualityControl/CcdbDatabase.h">
<polygon fill="none" stroke="black" points="219.5,-224.5 219.5,-243.5 374.5,-243.5 374.5,-224.5 219.5,-224.5"/>
<text text-anchor="middle" x="297" y="-231.5" font-family="Helvetica,sans-Serif" font-size="10.00">QualityControl/CcdbDatabase.h</text>
</a>
</g>
</g>
<!-- Node1&#45;&gt;Node2 -->
<g id="edge1" class="edge"><title>Node1&#45;&gt;Node2</title>
<path fill="none" stroke="midnightblue" d="M447.637,-280.444C417.262,-271.28 368.89,-256.688 335.184,-246.519"/>
<polygon fill="midnightblue" stroke="midnightblue" points="335.815,-243.054 325.23,-243.516 333.793,-249.756 335.815,-243.054"/>
</g>
<!-- Node13 -->
<g id="node13" class="node"><title>Node13</title>
<polygon fill="none" stroke="#bfbfbf" points="0,-56.5 0,-75.5 116,-75.5 116,-56.5 0,-56.5"/>
<text text-anchor="middle" x="58" y="-63.5" font-family="Helvetica,sans-Serif" font-size="10.00">Common/Exceptions.h</text>
</g>
<!-- Node1&#45;&gt;Node13 -->
<g id="edge23" class="edge"><title>Node1&#45;&gt;Node13</title>
<path fill="none" stroke="midnightblue" d="M386.342,-288.046C332.447,-284.121 264.061,-273.017 210,-244 139.537,-206.179 87.3503,-121.414 67.1614,-84.6123"/>
<polygon fill="midnightblue" stroke="midnightblue" points="70.1328,-82.7468 62.327,-75.5829 63.9616,-86.0509 70.1328,-82.7468"/>
</g>
<!-- Node17 -->
<g id="node17" class="node"><title>Node17</title>
<g id="a_node17"><a xlink:href="DummyDatabase_8h.html" target="_top" xlink:title="QualityControl/DummyDatabase.h">
<polygon fill="none" stroke="black" points="392.5,-224.5 392.5,-243.5 559.5,-243.5 559.5,-224.5 392.5,-224.5"/>
<text text-anchor="middle" x="476" y="-231.5" font-family="Helvetica,sans-Serif" font-size="10.00">QualityControl/DummyDatabase.h</text>
</a>
</g>
</g>
<!-- Node1&#45;&gt;Node17 -->
<g id="edge24" class="edge"><title>Node1&#45;&gt;Node17</title>
<path fill="none" stroke="midnightblue" d="M476,-280.083C476,-273.006 476,-262.861 476,-253.986"/>
<polygon fill="midnightblue" stroke="midnightblue" points="479.5,-253.751 476,-243.751 472.5,-253.751 479.5,-253.751"/>
</g>
<!-- Node18 -->
<g id="node18" class="node"><title>Node18</title>
<g id="a_node18"><a xlink:href="DatabaseFactory_8h.html" target="_top" xlink:title="QualityControl/DatabaseFactory.h">
<polygon fill="none" stroke="black" points="577.5,-224.5 577.5,-243.5 742.5,-243.5 742.5,-224.5 577.5,-224.5"/>
<text text-anchor="middle" x="660" y="-231.5" font-family="Helvetica,sans-Serif" font-size="10.00">QualityControl/DatabaseFactory.h</text>
</a>
</g>
</g>
<!-- Node1&#45;&gt;Node18 -->
<g id="edge26" class="edge"><title>Node1&#45;&gt;Node18</title>
<path fill="none" stroke="midnightblue" d="M505.155,-280.444C536.513,-271.241 586.531,-256.562 621.197,-246.388"/>
<polygon fill="midnightblue" stroke="midnightblue" points="622.371,-249.691 630.981,-243.516 620.4,-242.974 622.371,-249.691"/>
</g>
<!-- Node19 -->
<g id="node19" class="node"><title>Node19</title>
<g id="a_node19"><a xlink:href="QcInfoLogger_8h.html" target="_top" xlink:title="QualityControl/QcInfoLogger.h">
<polygon fill="none" stroke="black" points="760.5,-224.5 760.5,-243.5 909.5,-243.5 909.5,-224.5 760.5,-224.5"/>
<text text-anchor="middle" x="835" y="-231.5" font-family="Helvetica,sans-Serif" font-size="10.00">QualityControl/QcInfoLogger.h</text>
</a>
</g>
</g>
<!-- Node1&#45;&gt;Node19 -->
<g id="edge29" class="edge"><title>Node1&#45;&gt;Node19</title>
<path fill="none" stroke="midnightblue" d="M532.885,-280.444C596.824,-270.826 700.524,-255.228 768.247,-245.041"/>
<polygon fill="midnightblue" stroke="midnightblue" points="769.013,-248.465 778.382,-243.516 767.972,-241.543 769.013,-248.465"/>
</g>
<!-- Node3 -->
<g id="node3" class="node"><title>Node3</title>
<polygon fill="none" stroke="#bfbfbf" points="249.5,-168.5 249.5,-187.5 344.5,-187.5 344.5,-168.5 249.5,-168.5"/>
<text text-anchor="middle" x="297" y="-175.5" font-family="Helvetica,sans-Serif" font-size="10.00">CCDB/CcdbApi.h</text>
</g>
<!-- Node2&#45;&gt;Node3 -->
<g id="edge2" class="edge"><title>Node2&#45;&gt;Node3</title>
<path fill="none" stroke="midnightblue" d="M297,-224.083C297,-217.006 297,-206.861 297,-197.986"/>
<polygon fill="midnightblue" stroke="midnightblue" points="300.5,-197.751 297,-187.751 293.5,-197.751 300.5,-197.751"/>
</g>
<!-- Node4 -->
<g id="node4" class="node"><title>Node4</title>
<g id="a_node4"><a xlink:href="DatabaseInterface_8h.html" target="_top" xlink:title="QualityControl/DatabaseInterface.h">
<polygon fill="none" stroke="black" points="391,-168.5 391,-187.5 561,-187.5 561,-168.5 391,-168.5"/>
<text text-anchor="middle" x="476" y="-175.5" font-family="Helvetica,sans-Serif" font-size="10.00">QualityControl/DatabaseInterface.h</text>
</a>
</g>
</g>
<!-- Node2&#45;&gt;Node4 -->
<g id="edge3" class="edge"><title>Node2&#45;&gt;Node4</title>
<path fill="none" stroke="midnightblue" d="M325.363,-224.444C355.738,-215.28 404.11,-200.688 437.816,-190.519"/>
<polygon fill="midnightblue" stroke="midnightblue" points="439.207,-193.756 447.77,-187.516 437.185,-187.054 439.207,-193.756"/>
</g>
<!-- Node5 -->
<g id="node5" class="node"><title>Node5</title>
<polygon fill="none" stroke="#bfbfbf" points="503.5,-0.5 503.5,-19.5 544.5,-19.5 544.5,-0.5 503.5,-0.5"/>
<text text-anchor="middle" x="524" y="-7.5" font-family="Helvetica,sans-Serif" font-size="10.00">string</text>
</g>
<!-- Node4&#45;&gt;Node5 -->
<g id="edge4" class="edge"><title>Node4&#45;&gt;Node5</title>
<path fill="none" stroke="midnightblue" d="M498.459,-168.382C513.769,-161.184 532.863,-149.288 542,-132 559.627,-98.6473 544.127,-53.3256 532.985,-28.701"/>
<polygon fill="midnightblue" stroke="midnightblue" points="536.06,-27.0189 528.585,-19.5101 529.746,-30.0412 536.06,-27.0189"/>
</g>
<!-- Node6 -->
<g id="node6" class="node"><title>Node6</title>
<polygon fill="none" stroke="#bfbfbf" points="652,-112.5 652,-131.5 704,-131.5 704,-112.5 652,-112.5"/>
<text text-anchor="middle" x="678" y="-119.5" font-family="Helvetica,sans-Serif" font-size="10.00">memory</text>
</g>
<!-- Node4&#45;&gt;Node6 -->
<g id="edge5" class="edge"><title>Node4&#45;&gt;Node6</title>
<path fill="none" stroke="midnightblue" d="M508.008,-168.444C544.411,-158.712 603.721,-142.857 641.787,-132.681"/>
<polygon fill="midnightblue" stroke="midnightblue" points="643.167,-135.935 651.923,-129.971 641.359,-129.172 643.167,-135.935"/>
</g>
<!-- Node7 -->
<g id="node7" class="node"><title>Node7</title>
<polygon fill="none" stroke="#bfbfbf" points="590,-112.5 590,-131.5 634,-131.5 634,-112.5 590,-112.5"/>
<text text-anchor="middle" x="612" y="-119.5" font-family="Helvetica,sans-Serif" font-size="10.00">vector</text>
</g>
<!-- Node4&#45;&gt;Node7 -->
<g id="edge6" class="edge"><title>Node4&#45;&gt;Node7</title>
<path fill="none" stroke="midnightblue" d="M497.55,-168.444C520.031,-159.517 555.488,-145.439 580.98,-135.317"/>
<polygon fill="midnightblue" stroke="midnightblue" points="582.549,-138.46 590.551,-131.516 579.965,-131.954 582.549,-138.46"/>
</g>
<!-- Node8 -->
<g id="node8" class="node"><title>Node8</title>
<polygon fill="none" stroke="#bfbfbf" points="281.5,-112.5 281.5,-131.5 364.5,-131.5 364.5,-112.5 281.5,-112.5"/>
<text text-anchor="middle" x="323" y="-119.5" font-family="Helvetica,sans-Serif" font-size="10.00">unordered_map</text>
</g>
<!-- Node4&#45;&gt;Node8 -->
<g id="edge7" class="edge"><title>Node4&#45;&gt;Node8</title>
<path fill="none" stroke="midnightblue" d="M451.757,-168.444C426.129,-159.399 385.515,-145.064 356.762,-134.916"/>
<polygon fill="midnightblue" stroke="midnightblue" points="357.725,-131.544 347.13,-131.516 355.395,-138.145 357.725,-131.544"/>
</g>
<!-- Node9 -->
<g id="node9" class="node"><title>Node9</title>
<g id="a_node9"><a xlink:href="QualityObject_8h_source.html" target="_top" xlink:title="QualityControl/QualityObject.h">
<polygon fill="none" stroke="black" points="114.5,-112.5 114.5,-131.5 263.5,-131.5 263.5,-112.5 114.5,-112.5"/>
<text text-anchor="middle" x="189" y="-119.5" font-family="Helvetica,sans-Serif" font-size="10.00">QualityControl/QualityObject.h</text>
</a>
</g>
</g>
<!-- Node4&#45;&gt;Node9 -->
<g id="edge8" class="edge"><title>Node4&#45;&gt;Node9</title>
<path fill="none" stroke="midnightblue" d="M430.524,-168.444C380.038,-158.944 298.544,-143.611 244.38,-133.42"/>
<polygon fill="midnightblue" stroke="midnightblue" points="244.738,-129.926 234.263,-131.516 243.444,-136.805 244.738,-129.926"/>
</g>
<!-- Node16 -->
<g id="node16" class="node"><title>Node16</title>
<g id="a_node16"><a xlink:href="MonitorObject_8h.html" target="_top" xlink:title="QualityControl/MonitorObject.h">
<polygon fill="none" stroke="black" points="382.5,-112.5 382.5,-131.5 533.5,-131.5 533.5,-112.5 382.5,-112.5"/>
<text text-anchor="middle" x="458" y="-119.5" font-family="Helvetica,sans-Serif" font-size="10.00">QualityControl/MonitorObject.h</text>
</a>
</g>
</g>
<!-- Node4&#45;&gt;Node16 -->
<g id="edge16" class="edge"><title>Node4&#45;&gt;Node16</title>
<path fill="none" stroke="midnightblue" d="M473.028,-168.083C470.616,-160.849 467.136,-150.409 464.132,-141.397"/>
<polygon fill="midnightblue" stroke="midnightblue" points="467.4,-140.131 460.917,-131.751 460.759,-142.345 467.4,-140.131"/>
</g>
<!-- Node10 -->
<g id="node10" class="node"><title>Node10</title>
<polygon fill="none" stroke="#bfbfbf" points="134,-56.5 134,-75.5 188,-75.5 188,-56.5 134,-56.5"/>
<text text-anchor="middle" x="161" y="-63.5" font-family="Helvetica,sans-Serif" font-size="10.00">iostream</text>
</g>
<!-- Node9&#45;&gt;Node10 -->
<g id="edge9" class="edge"><title>Node9&#45;&gt;Node10</title>
<path fill="none" stroke="midnightblue" d="M184.376,-112.083C180.544,-104.691 174.976,-93.9533 170.235,-84.8111"/>
<polygon fill="midnightblue" stroke="midnightblue" points="173.248,-83.0175 165.538,-75.7511 167.034,-86.2398 173.248,-83.0175"/>
</g>
<!-- Node11 -->
<g id="node11" class="node"><title>Node11</title>
<polygon fill="none" stroke="#bfbfbf" points="422.5,-56.5 422.5,-75.5 457.5,-75.5 457.5,-56.5 422.5,-56.5"/>
<text text-anchor="middle" x="440" y="-63.5" font-family="Helvetica,sans-Serif" font-size="10.00">map</text>
</g>
<!-- Node9&#45;&gt;Node11 -->
<g id="edge10" class="edge"><title>Node9&#45;&gt;Node11</title>
<path fill="none" stroke="midnightblue" d="M241.021,-112.428C284.46,-104.847 348.143,-92.7536 412.467,-75.8613"/>
<polygon fill="midnightblue" stroke="midnightblue" points="413.614,-79.178 422.376,-73.2219 411.812,-72.4139 413.614,-79.178"/>
</g>
<!-- Node12 -->
<g id="node12" class="node"><title>Node12</title>
<polygon fill="none" stroke="#bfbfbf" points="206.5,-56.5 206.5,-75.5 265.5,-75.5 265.5,-56.5 206.5,-56.5"/>
<text text-anchor="middle" x="236" y="-63.5" font-family="Helvetica,sans-Serif" font-size="10.00">TObject.h</text>
</g>
<!-- Node9&#45;&gt;Node12 -->
<g id="edge11" class="edge"><title>Node9&#45;&gt;Node12</title>
<path fill="none" stroke="midnightblue" d="M196.761,-112.083C203.537,-104.298 213.543,-92.8015 221.755,-83.3665"/>
<polygon fill="midnightblue" stroke="midnightblue" points="224.458,-85.592 228.383,-75.7511 219.178,-80.9963 224.458,-85.592"/>
</g>
<!-- Node9&#45;&gt;Node13 -->
<g id="edge12" class="edge"><title>Node9&#45;&gt;Node13</title>
<path fill="none" stroke="midnightblue" d="M168.243,-112.444C146.684,-103.557 112.737,-89.5632 88.2062,-79.4514"/>
<polygon fill="midnightblue" stroke="midnightblue" points="89.2394,-76.0917 78.6602,-75.5164 86.5717,-82.5634 89.2394,-76.0917"/>
</g>
<!-- Node14 -->
<g id="node14" class="node"><title>Node14</title>
<g id="a_node14"><a xlink:href="Quality_8h.html" target="_top" xlink:title="QualityControl/Quality.h">
<polygon fill="none" stroke="black" points="283.5,-56.5 283.5,-75.5 404.5,-75.5 404.5,-56.5 283.5,-56.5"/>
<text text-anchor="middle" x="344" y="-63.5" font-family="Helvetica,sans-Serif" font-size="10.00">QualityControl/Quality.h</text>
</a>
</g>
</g>
<!-- Node9&#45;&gt;Node14 -->
<g id="edge13" class="edge"><title>Node9&#45;&gt;Node14</title>
<path fill="none" stroke="midnightblue" d="M213.56,-112.444C239.523,-103.399 280.668,-89.064 309.797,-78.9158"/>
<polygon fill="midnightblue" stroke="midnightblue" points="311.263,-82.1116 319.555,-75.5164 308.96,-75.5013 311.263,-82.1116"/>
</g>
<!-- Node14&#45;&gt;Node5 -->
<g id="edge15" class="edge"><title>Node14&#45;&gt;Node5</title>
<path fill="none" stroke="midnightblue" d="M372.522,-56.4435C405.582,-46.5255 459.842,-30.2473 493.658,-20.1025"/>
<polygon fill="midnightblue" stroke="midnightblue" points="494.878,-23.3908 503.45,-17.1649 492.866,-16.686 494.878,-23.3908"/>
</g>
<!-- Node15 -->
<g id="node15" class="node"><title>Node15</title>
<polygon fill="none" stroke="#bfbfbf" points="373,-0.5 373,-19.5 429,-19.5 429,-0.5 373,-0.5"/>
<text text-anchor="middle" x="401" y="-7.5" font-family="Helvetica,sans-Serif" font-size="10.00">Rtypes.h</text>
</g>
<!-- Node14&#45;&gt;Node15 -->
<g id="edge14" class="edge"><title>Node14&#45;&gt;Node15</title>
<path fill="none" stroke="midnightblue" d="M353.158,-56.324C361.501,-48.4196 374.032,-36.5482 384.177,-26.9377"/>
<polygon fill="midnightblue" stroke="midnightblue" points="386.823,-29.2522 391.675,-19.8339 382.009,-24.1705 386.823,-29.2522"/>
</g>
<!-- Node16&#45;&gt;Node5 -->
<g id="edge17" class="edge"><title>Node16&#45;&gt;Node5</title>
<path fill="none" stroke="midnightblue" d="M463.179,-112.368C474.023,-94.2957 499.294,-52.1764 513.616,-28.3074"/>
<polygon fill="midnightblue" stroke="midnightblue" points="516.701,-29.9671 518.845,-19.5914 510.699,-26.3656 516.701,-29.9671"/>
</g>
<!-- Node16&#45;&gt;Node11 -->
<g id="edge18" class="edge"><title>Node16&#45;&gt;Node11</title>
<path fill="none" stroke="midnightblue" d="M455.028,-112.083C452.616,-104.849 449.136,-94.4087 446.132,-85.3968"/>
<polygon fill="midnightblue" stroke="midnightblue" points="449.4,-84.1311 442.917,-75.7511 442.759,-86.3447 449.4,-84.1311"/>
</g>
<!-- Node16&#45;&gt;Node12 -->
<g id="edge20" class="edge"><title>Node16&#45;&gt;Node12</title>
<path fill="none" stroke="midnightblue" d="M422.823,-112.444C382.727,-102.69 317.344,-86.7864 275.521,-76.6132"/>
<polygon fill="midnightblue" stroke="midnightblue" points="276.227,-73.1831 265.684,-74.2203 274.573,-79.9847 276.227,-73.1831"/>
</g>
<!-- Node16&#45;&gt;Node13 -->
<g id="edge21" class="edge"><title>Node16&#45;&gt;Node13</title>
<path fill="none" stroke="midnightblue" d="M394.619,-112.444C321.506,-102.573 201.736,-86.4043 126.518,-76.2499"/>
<polygon fill="midnightblue" stroke="midnightblue" points="126.588,-72.7277 116.209,-74.8583 125.651,-79.6648 126.588,-72.7277"/>
</g>
<!-- Node16&#45;&gt;Node14 -->
<g id="edge22" class="edge"><title>Node16&#45;&gt;Node14</title>
<path fill="none" stroke="midnightblue" d="M439.936,-112.444C421.425,-103.675 392.419,-89.9355 371.145,-79.8579"/>
<polygon fill="midnightblue" stroke="midnightblue" points="372.515,-76.6343 361.979,-75.5164 369.518,-82.9604 372.515,-76.6343"/>
</g>
<!-- Node16&#45;&gt;Node15 -->
<g id="edge19" class="edge"><title>Node16&#45;&gt;Node15</title>
<path fill="none" stroke="midnightblue" d="M462.026,-112.441C467.509,-99.4499 475.604,-74.3296 466,-56 458.721,-42.1082 444.991,-31.6523 432.017,-24.3328"/>
<polygon fill="midnightblue" stroke="midnightblue" points="433.296,-21.0532 422.808,-19.553 430.072,-27.2662 433.296,-21.0532"/>
</g>
<!-- Node17&#45;&gt;Node4 -->
<g id="edge25" class="edge"><title>Node17&#45;&gt;Node4</title>
<path fill="none" stroke="midnightblue" d="M476,-224.083C476,-217.006 476,-206.861 476,-197.986"/>
<polygon fill="midnightblue" stroke="midnightblue" points="479.5,-197.751 476,-187.751 472.5,-197.751 479.5,-197.751"/>
</g>
<!-- Node18&#45;&gt;Node4 -->
<g id="edge28" class="edge"><title>Node18&#45;&gt;Node4</title>
<path fill="none" stroke="midnightblue" d="M630.845,-224.444C599.487,-215.241 549.469,-200.562 514.803,-190.388"/>
<polygon fill="midnightblue" stroke="midnightblue" points="515.6,-186.974 505.019,-187.516 513.629,-193.691 515.6,-186.974"/>
</g>
<!-- Node18&#45;&gt;Node6 -->
<g id="edge27" class="edge"><title>Node18&#45;&gt;Node6</title>
<path fill="none" stroke="midnightblue" d="M661.412,-224.368C664.317,-206.617 671.018,-165.666 674.957,-141.597"/>
<polygon fill="midnightblue" stroke="midnightblue" points="678.433,-142.025 676.594,-131.591 671.525,-140.895 678.433,-142.025"/>
</g>
<!-- Node20 -->
<g id="node20" class="node"><title>Node20</title>
<polygon fill="none" stroke="#bfbfbf" points="770,-168.5 770,-187.5 900,-187.5 900,-168.5 770,-168.5"/>
<text text-anchor="middle" x="835" y="-175.5" font-family="Helvetica,sans-Serif" font-size="10.00">InfoLogger/InfoLogger.hxx</text>
</g>
<!-- Node19&#45;&gt;Node20 -->
<g id="edge30" class="edge"><title>Node19&#45;&gt;Node20</title>
<path fill="none" stroke="midnightblue" d="M835,-224.083C835,-217.006 835,-206.861 835,-197.986"/>
<polygon fill="midnightblue" stroke="midnightblue" points="838.5,-197.751 835,-187.751 831.5,-197.751 838.5,-197.751"/>
</g>
</g>
</svg>
        <g id="navigator" transform="translate(0 0)" fill="#404254">
                <rect fill="#f2f5e9" fill-opacity="0.5" stroke="#606060" stroke-width=".5" x="0" y="0" width="60" height="60"/>
                <use id="zoomplus" xlink:href="#zoomPlus" x="17" y="9" onmousedown="handleZoom(evt,'in')"/>
                <use id="zoomminus" xlink:href="#zoomMin" x="42" y="9" onmousedown="handleZoom(evt,'out')"/>
                <use id="reset" xlink:href="#resetDef" x="30" y="36" onmousedown="handleReset()"/>
                <g id="arrowUp" xlink:href="#dirArrow" transform="translate(30 24)" onmousedown="handlePan(0,-1)">
                  <use xlink:href="#rim" fill="#404040">
                        <set attributeName="fill" to="#808080" begin="arrowUp.mouseover" end="arrowUp.mouseout"/>
                  </use>
                  <path fill="none" stroke="white" stroke-width="1.5" d="M0,-3.0v7 M-2.5,-0.5L0,-3.0L2.5,-0.5"/>
                </g>
                <g id="arrowRight" xlink:href="#dirArrow" transform="rotate(90) translate(36 -43)" onmousedown="handlePan(1,0)">
                  <use xlink:href="#rim" fill="#404040">
                        <set attributeName="fill" to="#808080" begin="arrowRight.mouseover" end="arrowRight.mouseout"/>
                  </use>
                  <path fill="none" stroke="white" stroke-width="1.5" d="M0,-3.0v7 M-2.5,-0.5L0,-3.0L2.5,-0.5"/>
                </g>
                <g id="arrowDown" xlink:href="#dirArrow" transform="rotate(180) translate(-30 -48)" onmousedown="handlePan(0,1)">
                  <use xlink:href="#rim" fill="#404040">
                        <set attributeName="fill" to="#808080" begin="arrowDown.mouseover" end="arrowDown.mouseout"/>
                  </use>
                  <path fill="none" stroke="white" stroke-width="1.5" d="M0,-3.0v7 M-2.5,-0.5L0,-3.0L2.5,-0.5"/>
                </g>
                <g id="arrowLeft" xlink:href="#dirArrow" transform="rotate(270) translate(-36 17)" onmousedown="handlePan(-1,0)">
                  <use xlink:href="#rim" fill="#404040">
                        <set attributeName="fill" to="#808080" begin="arrowLeft.mouseover" end="arrowLeft.mouseout"/>
                  </use>
                  <path fill="none" stroke="white" stroke-width="1.5" d="M0,-3.0v7 M-2.5,-0.5L0,-3.0L2.5,-0.5"/>
                </g>
        </g>
        <svg viewBox="0 0 15 15" width="100%" height="30px" preserveAspectRatio="xMaxYMin meet">
         <g id="arrow_out" transform="scale(0.3 0.3)">
          <a xlink:href="DatabaseFactory_8cxx__incl_org.svg" target="_base">
           <rect id="button" ry="5" rx="5" y="6" x="6" height="38" width="38"
                fill="#f2f5e9" fill-opacity="0.5" stroke="#606060" stroke-width="1.0"/>
           <path id="arrow"
             d="M 11.500037,31.436501 C 11.940474,20.09759 22.043105,11.32322 32.158766,21.979434 L 37.068811,17.246167 C 37.068811,17.246167 37.088388,32 37.088388,32 L 22.160133,31.978069 C 22.160133,31.978069 26.997745,27.140456 26.997745,27.140456 C 18.528582,18.264221 13.291696,25.230495 11.500037,31.436501 z"
             style="fill:#404040;"/>
          </a>
         </g>
        </svg>
</svg>
