<?xml version="1.0" encoding="UTF-8" standalone="no"?>
<!DOCTYPE svg PUBLIC "-//W3C//DTD SVG 1.1//EN"
 "http://www.w3.org/Graphics/SVG/1.1/DTD/svg11.dtd">
<!-- Generated by graphviz version 2.38.0 (20140413.2041)
 -->
<!-- Title: Framework/src/DataProducer.cxx Pages: 1 -->
<svg width="512pt" height="140pt"
 viewBox="0.00 0.00 511.50 140.00" xmlns="http://www.w3.org/2000/svg" xmlns:xlink="http://www.w3.org/1999/xlink">
<g id="graph0" class="graph" transform="scale(1 1) rotate(0) translate(4 136)">
<title>Framework/src/DataProducer.cxx</title>
<!-- Node1 -->
<g id="node1" class="node"><title>Node1</title>
<polygon fill="#bfbfbf" stroke="black" points="161,-112.5 161,-131.5 325,-131.5 325,-112.5 161,-112.5"/>
<text text-anchor="middle" x="243" y="-119.5" font-family="Helvetica,sans-Serif" font-size="10.00">Framework/src/DataProducer.cxx</text>
</g>
<!-- Node2 -->
<g id="node2" class="node"><title>Node2</title>
<g id="a_node2"><a xlink:href="DataProducer_8h.html" target="_top" xlink:title="QualityControl/DataProducer.h">
<polygon fill="none" stroke="black" points="7,-56.5 7,-75.5 157,-75.5 157,-56.5 7,-56.5"/>
<text text-anchor="middle" x="82" y="-63.5" font-family="Helvetica,sans-Serif" font-size="10.00">QualityControl/DataProducer.h</text>
</a>
</g>
</g>
<!-- Node1&#45;&gt;Node2 -->
<g id="edge1" class="edge"><title>Node1&#45;&gt;Node2</title>
<path fill="none" stroke="midnightblue" d="M217.489,-112.444C190.404,-103.359 147.41,-88.9388 117.131,-78.7831"/>
<polygon fill="midnightblue" stroke="midnightblue" points="117.986,-75.3781 107.392,-75.5164 115.76,-82.0148 117.986,-75.3781"/>
</g>
<!-- Node4 -->
<g id="node4" class="node"><title>Node4</title>
<polygon fill="none" stroke="#bfbfbf" points="174.5,-56.5 174.5,-75.5 223.5,-75.5 223.5,-56.5 174.5,-56.5"/>
<text text-anchor="middle" x="199" y="-63.5" font-family="Helvetica,sans-Serif" font-size="10.00">random</text>
</g>
<!-- Node1&#45;&gt;Node4 -->
<g id="edge3" class="edge"><title>Node1&#45;&gt;Node4</title>
<path fill="none" stroke="midnightblue" d="M235.734,-112.083C229.455,-104.377 220.212,-93.0333 212.569,-83.6531"/>
<polygon fill="midnightblue" stroke="midnightblue" points="215.161,-81.2926 206.131,-75.7511 209.734,-85.7143 215.161,-81.2926"/>
</g>
<!-- Node5 -->
<g id="node5" class="node"><title>Node5</title>
<polygon fill="none" stroke="#bfbfbf" points="242,-56.5 242,-75.5 334,-75.5 334,-56.5 242,-56.5"/>
<text text-anchor="middle" x="288" y="-63.5" font-family="Helvetica,sans-Serif" font-size="10.00">Common/Timer.h</text>
</g>
<!-- Node1&#45;&gt;Node5 -->
<g id="edge4" class="edge"><title>Node1&#45;&gt;Node5</title>
<path fill="none" stroke="midnightblue" d="M250.431,-112.083C256.853,-104.377 266.306,-93.0333 274.122,-83.6531"/>
<polygon fill="midnightblue" stroke="midnightblue" points="276.994,-85.674 280.707,-75.7511 271.617,-81.1927 276.994,-85.674"/>
</g>
<!-- Node6 -->
<g id="node6" class="node"><title>Node6</title>
<polygon fill="none" stroke="#bfbfbf" points="352.5,-56.5 352.5,-75.5 503.5,-75.5 503.5,-56.5 352.5,-56.5"/>
<text text-anchor="middle" x="428" y="-63.5" font-family="Helvetica,sans-Serif" font-size="10.00">Monitoring/MonitoringFactory.h</text>
</g>
<!-- Node1&#45;&gt;Node6 -->
<g id="edge5" class="edge"><title>Node1&#45;&gt;Node6</title>
<path fill="none" stroke="midnightblue" d="M272.314,-112.444C303.842,-103.241 354.131,-88.5617 388.986,-78.3879"/>
<polygon fill="midnightblue" stroke="midnightblue" points="390.205,-81.6783 398.823,-75.5164 388.243,-74.9587 390.205,-81.6783"/>
</g>
<!-- Node3 -->
<g id="node3" class="node"><title>Node3</title>
<polygon fill="none" stroke="#bfbfbf" points="0,-0.5 0,-19.5 164,-19.5 164,-0.5 0,-0.5"/>
<text text-anchor="middle" x="82" y="-7.5" font-family="Helvetica,sans-Serif" font-size="10.00">Framework/DataProcessorSpec.h</text>
</g>
<!-- Node2&#45;&gt;Node3 -->
<g id="edge2" class="edge"><title>Node2&#45;&gt;Node3</title>
<path fill="none" stroke="midnightblue" d="M82,-56.083C82,-49.0059 82,-38.8611 82,-29.9865"/>
<polygon fill="midnightblue" stroke="midnightblue" points="85.5001,-29.751 82,-19.7511 78.5001,-29.7511 85.5001,-29.751"/>
</g>
</g>
</svg>
