<?xml version="1.0" encoding="UTF-8" standalone="no"?>
<!DOCTYPE svg PUBLIC "-//W3C//DTD SVG 1.1//EN"
 "http://www.w3.org/Graphics/SVG/1.1/DTD/svg11.dtd">
<!-- Generated by graphviz version 2.38.0 (20140413.2041)
 -->
<!-- Title: Framework/include/QualityControl/DatabaseInterface.h Pages: 1 -->
<!--zoomable 173 -->
<svg id="main" version="1.1" xmlns="http://www.w3.org/2000/svg" xmlns:xlink="http://www.w3.org/1999/xlink" xml:space="preserve" onload="init(evt)">
<style type="text/css"><![CDATA[
.edge:hover path { stroke: red; }
.edge:hover polygon { stroke: red; fill: red; }
]]></style>
<script type="text/javascript"><![CDATA[
var edges = document.getElementsByTagName('g');
if (edges && edges.length) {
  for (var i=0;i<edges.length;i++) {
    if (edges[i].id.substr(0,4)=='edge') {
      edges[i].setAttribute('class','edge');
    }
  }
}
]]></script>
        <defs>
                <circle id="rim" cx="0" cy="0" r="7"/>
                <circle id="rim2" cx="0" cy="0" r="3.5"/>
                <g id="zoomPlus">
                        <use xlink:href="#rim" fill="#404040">
                                <set attributeName="fill" to="#808080" begin="zoomplus.mouseover" end="zoomplus.mouseout"/>
                        </use>
                        <path d="M-4,0h8M0,-4v8" fill="none" stroke="white" stroke-width="1.5" pointer-events="none"/>
                </g>
                <g id="zoomMin">
                        <use xlink:href="#rim" fill="#404040">
                                <set attributeName="fill" to="#808080" begin="zoomminus.mouseover" end="zoomminus.mouseout"/>
                        </use>
                        <path d="M-4,0h8" fill="none" stroke="white" stroke-width="1.5" pointer-events="none"/>
                </g>
                <g id="dirArrow">
                        <path fill="none" stroke="white" stroke-width="1.5" d="M0,-3.0v7 M-2.5,-0.5L0,-3.0L2.5,-0.5"/>
                </g>
               <g id="resetDef">
                       <use xlink:href="#rim2" fill="#404040">
                               <set attributeName="fill" to="#808080" begin="reset.mouseover" end="reset.mouseout"/>
                       </use>
               </g>
        </defs>

<script type="text/javascript">
var viewWidth = 4317;
var viewHeight = 173;
var sectionId = 'dynsection-1';
</script>
<script xlink:href="svgpan.js"/>
<svg id="graph" class="graph">
<g id="viewport">
<title>Framework/include/QualityControl/DatabaseInterface.h</title>
<!-- Node1 -->
<g id="node1" class="node"><title>Node1</title>
<polygon fill="#bfbfbf" stroke="black" points="2756,-134.5 2756,-164.5 2896,-164.5 2896,-134.5 2756,-134.5"/>
<text text-anchor="start" x="2764" y="-152.5" font-family="Helvetica,sans-Serif" font-size="10.00">Framework/include/Quality</text>
<text text-anchor="middle" x="2826" y="-141.5" font-family="Helvetica,sans-Serif" font-size="10.00">Control/DatabaseInterface.h</text>
</g>
<!-- Node2 -->
<g id="node2" class="node"><title>Node2</title>
<g id="a_node2"><a xlink:href="CcdbDatabase_8h.html" target="_top" xlink:title="Framework/include/Quality\lControl/CcdbDatabase.h">
<polygon fill="none" stroke="black" points="775.5,-67.5 775.5,-97.5 908.5,-97.5 908.5,-67.5 775.5,-67.5"/>
<text text-anchor="start" x="783.5" y="-85.5" font-family="Helvetica,sans-Serif" font-size="10.00">Framework/include/Quality</text>
<text text-anchor="middle" x="842" y="-74.5" font-family="Helvetica,sans-Serif" font-size="10.00">Control/CcdbDatabase.h</text>
</a>
</g>
</g>
<!-- Node1&#45;&gt;Node2 -->
<g id="edge1" class="edge"><title>Node1&#45;&gt;Node2</title>
<path fill="none" stroke="midnightblue" d="M2745.65,-146.505C2505.01,-140.438 1769.05,-121.191 1159,-98 1072.57,-94.7142 972.922,-90.005 908.778,-86.8541"/>
<polygon fill="midnightblue" stroke="midnightblue" points="2745.62,-150.006 2755.71,-146.759 2745.8,-143.008 2745.62,-150.006"/>
</g>
<!-- Node8 -->
<g id="node8" class="node"><title>Node8</title>
<g id="a_node8"><a xlink:href="CheckRunner_8h.html" target="_top" xlink:title="Framework/include/Quality\lControl/CheckRunner.h">
<polygon fill="none" stroke="black" points="2327.5,-67.5 2327.5,-97.5 2460.5,-97.5 2460.5,-67.5 2327.5,-67.5"/>
<text text-anchor="start" x="2335.5" y="-85.5" font-family="Helvetica,sans-Serif" font-size="10.00">Framework/include/Quality</text>
<text text-anchor="middle" x="2394" y="-74.5" font-family="Helvetica,sans-Serif" font-size="10.00">Control/CheckRunner.h</text>
</a>
</g>
</g>
<!-- Node1&#45;&gt;Node8 -->
<g id="edge7" class="edge"><title>Node1&#45;&gt;Node8</title>
<path fill="none" stroke="midnightblue" d="M2745.59,-136.402C2663.51,-124.051 2537.56,-105.1 2460.79,-93.5491"/>
<polygon fill="midnightblue" stroke="midnightblue" points="2745.22,-139.885 2755.63,-137.912 2746.26,-132.963 2745.22,-139.885"/>
</g>
<!-- Node20 -->
<g id="node20" class="node"><title>Node20</title>
<g id="a_node20"><a xlink:href="DatabaseFactory_8h.html" target="_top" xlink:title="Framework/include/Quality\lControl/DatabaseFactory.h">
<polygon fill="none" stroke="black" points="1168,-67.5 1168,-97.5 1302,-97.5 1302,-67.5 1168,-67.5"/>
<text text-anchor="start" x="1176" y="-85.5" font-family="Helvetica,sans-Serif" font-size="10.00">Framework/include/Quality</text>
<text text-anchor="middle" x="1235" y="-74.5" font-family="Helvetica,sans-Serif" font-size="10.00">Control/DatabaseFactory.h</text>
</a>
</g>
</g>
<!-- Node1&#45;&gt;Node20 -->
<g id="edge19" class="edge"><title>Node1&#45;&gt;Node20</title>
<path fill="none" stroke="midnightblue" d="M2745.48,-145.21C2468.53,-133.896 1558.23,-96.7056 1302.41,-86.2541"/>
<polygon fill="midnightblue" stroke="midnightblue" points="2745.71,-148.722 2755.84,-145.634 2745.99,-141.728 2745.71,-148.722"/>
</g>
<!-- Node24 -->
<g id="node24" class="node"><title>Node24</title>
<g id="a_node24"><a xlink:href="DummyDatabase_8h.html" target="_top" xlink:title="Framework/include/Quality\lControl/DummyDatabase.h">
<polygon fill="none" stroke="black" points="503,-67.5 503,-97.5 639,-97.5 639,-67.5 503,-67.5"/>
<text text-anchor="start" x="511" y="-85.5" font-family="Helvetica,sans-Serif" font-size="10.00">Framework/include/Quality</text>
<text text-anchor="middle" x="571" y="-74.5" font-family="Helvetica,sans-Serif" font-size="10.00">Control/DummyDatabase.h</text>
</a>
</g>
</g>
<!-- Node1&#45;&gt;Node24 -->
<g id="edge28" class="edge"><title>Node1&#45;&gt;Node24</title>
<path fill="none" stroke="midnightblue" d="M2745.37,-147.964C2469.22,-145.821 1535.93,-136.039 766,-98 723.787,-95.9144 676.512,-92.4279 639.083,-89.3964"/>
<polygon fill="midnightblue" stroke="midnightblue" points="2745.67,-151.466 2755.7,-148.043 2745.73,-144.466 2745.67,-151.466"/>
</g>
<!-- Node26 -->
<g id="node26" class="node"><title>Node26</title>
<g id="a_node26"><a xlink:href="MySqlDatabase_8h.html" target="_top" xlink:title="Framework/include/Quality\lControl/MySqlDatabase.h">
<polygon fill="none" stroke="black" points="3690.5,-67.5 3690.5,-97.5 3823.5,-97.5 3823.5,-67.5 3690.5,-67.5"/>
<text text-anchor="start" x="3698.5" y="-85.5" font-family="Helvetica,sans-Serif" font-size="10.00">Framework/include/Quality</text>
<text text-anchor="middle" x="3757" y="-74.5" font-family="Helvetica,sans-Serif" font-size="10.00">Control/MySqlDatabase.h</text>
</a>
</g>
</g>
<!-- Node1&#45;&gt;Node26 -->
<g id="edge32" class="edge"><title>Node1&#45;&gt;Node26</title>
<path fill="none" stroke="midnightblue" d="M2906.27,-147.222C3058.1,-144.037 3397.56,-133.259 3681,-98 3684.07,-97.6186 3687.19,-97.1887 3690.35,-96.7221"/>
<polygon fill="midnightblue" stroke="midnightblue" points="2906.03,-143.726 2896.1,-147.429 2906.17,-150.724 2906.03,-143.726"/>
</g>
<!-- Node28 -->
<g id="node28" class="node"><title>Node28</title>
<g id="a_node28"><a xlink:href="PostProcessingRunner_8h.html" target="_top" xlink:title="Framework/include/Quality\lControl/PostProcessingRunner.h">
<polygon fill="none" stroke="black" points="3186,-67.5 3186,-97.5 3346,-97.5 3346,-67.5 3186,-67.5"/>
<text text-anchor="start" x="3194" y="-85.5" font-family="Helvetica,sans-Serif" font-size="10.00">Framework/include/Quality</text>
<text text-anchor="middle" x="3266" y="-74.5" font-family="Helvetica,sans-Serif" font-size="10.00">Control/PostProcessingRunner.h</text>
</a>
</g>
</g>
<!-- Node1&#45;&gt;Node28 -->
<g id="edge34" class="edge"><title>Node1&#45;&gt;Node28</title>
<path fill="none" stroke="midnightblue" d="M2906.16,-136.658C2985.61,-124.922 3106.59,-107.049 3185.98,-95.3206"/>
<polygon fill="midnightblue" stroke="midnightblue" points="2905.59,-133.205 2896.21,-138.129 2906.61,-140.13 2905.59,-133.205"/>
</g>
<!-- Node31 -->
<g id="node31" class="node"><title>Node31</title>
<g id="a_node31"><a xlink:href="RepositoryBenchmark_8h.html" target="_top" xlink:title="Framework/src/Repository\lBenchmark.h">
<polygon fill="none" stroke="black" points="3540,-67.5 3540,-97.5 3672,-97.5 3672,-67.5 3540,-67.5"/>
<text text-anchor="start" x="3548" y="-85.5" font-family="Helvetica,sans-Serif" font-size="10.00">Framework/src/Repository</text>
<text text-anchor="middle" x="3606" y="-74.5" font-family="Helvetica,sans-Serif" font-size="10.00">Benchmark.h</text>
</a>
</g>
</g>
<!-- Node1&#45;&gt;Node31 -->
<g id="edge38" class="edge"><title>Node1&#45;&gt;Node31</title>
<path fill="none" stroke="midnightblue" d="M2906.63,-141.781C3061.39,-128.884 3397.38,-100.885 3539.93,-89.0061"/>
<polygon fill="midnightblue" stroke="midnightblue" points="2905.93,-138.327 2896.25,-142.646 2906.51,-145.303 2905.93,-138.327"/>
</g>
<!-- Node33 -->
<g id="node33" class="node"><title>Node33</title>
<g id="a_node33"><a xlink:href="TrendingTask_8cxx.html" target="_top" xlink:title="Framework/src/TrendingTask.cxx">
<polygon fill="none" stroke="black" points="3841.5,-73 3841.5,-92 4004.5,-92 4004.5,-73 3841.5,-73"/>
<text text-anchor="middle" x="3923" y="-80" font-family="Helvetica,sans-Serif" font-size="10.00">Framework/src/TrendingTask.cxx</text>
</a>
</g>
</g>
<!-- Node1&#45;&gt;Node33 -->
<g id="edge41" class="edge"><title>Node1&#45;&gt;Node33</title>
<path fill="none" stroke="midnightblue" d="M2906.27,-147.459C3077.17,-144.588 3489.46,-134.178 3833,-98 3847.17,-96.5082 3862.49,-94.2732 3876.42,-92.0019"/>
<polygon fill="midnightblue" stroke="midnightblue" points="2906.04,-143.962 2896.1,-147.626 2906.15,-150.962 2906.04,-143.962"/>
</g>
<!-- Node3 -->
<g id="node3" class="node"><title>Node3</title>
<g id="a_node3"><a xlink:href="CcdbDatabase_8cxx.html" target="_top" xlink:title="Framework/src/CcdbDatabase.cxx">
<polygon fill="none" stroke="black" points="198.5,-6 198.5,-25 367.5,-25 367.5,-6 198.5,-6"/>
<text text-anchor="middle" x="283" y="-13" font-family="Helvetica,sans-Serif" font-size="10.00">Framework/src/CcdbDatabase.cxx</text>
</a>
</g>
</g>
<!-- Node2&#45;&gt;Node3 -->
<g id="edge2" class="edge"><title>Node2&#45;&gt;Node3</title>
<path fill="none" stroke="midnightblue" d="M765.016,-74.2693C672.51,-65.3238 512.665,-49.0491 376,-31 362.716,-29.2456 348.4,-27.1274 335.076,-25.0585"/>
<polygon fill="midnightblue" stroke="midnightblue" points="764.842,-77.7686 775.131,-75.2441 765.513,-70.8008 764.842,-77.7686"/>
</g>
<!-- Node4 -->
<g id="node4" class="node"><title>Node4</title>
<g id="a_node4"><a xlink:href="DatabaseFactory_8cxx.html" target="_top" xlink:title="Framework/src/DatabaseFactory.cxx">
<polygon fill="none" stroke="black" points="385.5,-6 385.5,-25 564.5,-25 564.5,-6 385.5,-6"/>
<text text-anchor="middle" x="475" y="-13" font-family="Helvetica,sans-Serif" font-size="10.00">Framework/src/DatabaseFactory.cxx</text>
</a>
</g>
</g>
<!-- Node2&#45;&gt;Node4 -->
<g id="edge3" class="edge"><title>Node2&#45;&gt;Node4</title>
<path fill="none" stroke="midnightblue" d="M765.046,-67.8706C692.023,-54.9374 584.558,-35.904 523.011,-25.0033"/>
<polygon fill="midnightblue" stroke="midnightblue" points="764.656,-71.3559 775.113,-69.6536 765.877,-64.4632 764.656,-71.3559"/>
</g>
<!-- Node5 -->
<g id="node5" class="node"><title>Node5</title>
<g id="a_node5"><a xlink:href="testCcdbDatabase_8cxx.html" target="_top" xlink:title="Framework/test/testCcdbDatabase.cxx">
<polygon fill="none" stroke="black" points="770,-6 770,-25 958,-25 958,-6 770,-6"/>
<text text-anchor="middle" x="864" y="-13" font-family="Helvetica,sans-Serif" font-size="10.00">Framework/test/testCcdbDatabase.cxx</text>
</a>
</g>
</g>
<!-- Node2&#45;&gt;Node5 -->
<g id="edge4" class="edge"><title>Node2&#45;&gt;Node5</title>
<path fill="none" stroke="midnightblue" d="M850.09,-57.5965C853.921,-46.2781 858.259,-33.4611 861.057,-25.1945"/>
<polygon fill="midnightblue" stroke="midnightblue" points="846.664,-56.8017 846.774,-67.396 853.295,-59.0459 846.664,-56.8017"/>
</g>
<!-- Node6 -->
<g id="node6" class="node"><title>Node6</title>
<polygon fill="none" stroke="#bfbfbf" points="976,-0.5 976,-30.5 1146,-30.5 1146,-0.5 976,-0.5"/>
<text text-anchor="start" x="984" y="-18.5" font-family="Helvetica,sans-Serif" font-size="10.00">Framework/test/testCcdbDatabase</text>
<text text-anchor="middle" x="1061" y="-7.5" font-family="Helvetica,sans-Serif" font-size="10.00">Extra.cxx</text>
</g>
<!-- Node2&#45;&gt;Node6 -->
<g id="edge5" class="edge"><title>Node2&#45;&gt;Node6</title>
<path fill="none" stroke="midnightblue" d="M899.008,-64.5797C934.578,-54.0225 979.828,-40.5921 1013.46,-30.6109"/>
<polygon fill="midnightblue" stroke="midnightblue" points="897.841,-61.2752 889.25,-67.476 899.833,-67.9859 897.841,-61.2752"/>
</g>
<!-- Node7 -->
<g id="node7" class="node"><title>Node7</title>
<g id="a_node7"><a xlink:href="testDbFactory_8cxx.html" target="_top" xlink:title="Framework/test/testDbFactory.cxx">
<polygon fill="none" stroke="black" points="582.5,-6 582.5,-25 751.5,-25 751.5,-6 582.5,-6"/>
<text text-anchor="middle" x="667" y="-13" font-family="Helvetica,sans-Serif" font-size="10.00">Framework/test/testDbFactory.cxx</text>
</a>
</g>
</g>
<!-- Node2&#45;&gt;Node7 -->
<g id="edge6" class="edge"><title>Node2&#45;&gt;Node7</title>
<path fill="none" stroke="midnightblue" d="M794.303,-63.7838C760.371,-51.1807 716.291,-34.8082 689.903,-25.007"/>
<polygon fill="midnightblue" stroke="midnightblue" points="793.435,-67.195 804.028,-67.396 795.872,-60.633 793.435,-67.195"/>
</g>
<!-- Node9 -->
<g id="node9" class="node"><title>Node9</title>
<g id="a_node9"><a xlink:href="CheckRunner_8cxx.html" target="_top" xlink:title="Framework/src/CheckRunner.cxx">
<polygon fill="none" stroke="black" points="1324,-6 1324,-25 1488,-25 1488,-6 1324,-6"/>
<text text-anchor="middle" x="1406" y="-13" font-family="Helvetica,sans-Serif" font-size="10.00">Framework/src/CheckRunner.cxx</text>
</a>
</g>
</g>
<!-- Node8&#45;&gt;Node9 -->
<g id="edge8" class="edge"><title>Node8&#45;&gt;Node9</title>
<path fill="none" stroke="midnightblue" d="M2317.04,-79.8051C2161.64,-75.8013 1799.44,-63.5235 1497,-31 1482.84,-29.4776 1467.53,-27.2613 1453.58,-25.0174"/>
<polygon fill="midnightblue" stroke="midnightblue" points="2317.33,-83.3136 2327.42,-80.0681 2317.51,-76.3158 2317.33,-83.3136"/>
</g>
<!-- Node10 -->
<g id="node10" class="node"><title>Node10</title>
<g id="a_node10"><a xlink:href="CheckRunnerFactory_8cxx.html" target="_top" xlink:title="Framework/src/CheckRunner\lFactory.cxx">
<polygon fill="none" stroke="black" points="2402.5,-0.5 2402.5,-30.5 2547.5,-30.5 2547.5,-0.5 2402.5,-0.5"/>
<text text-anchor="start" x="2410.5" y="-18.5" font-family="Helvetica,sans-Serif" font-size="10.00">Framework/src/CheckRunner</text>
<text text-anchor="middle" x="2475" y="-7.5" font-family="Helvetica,sans-Serif" font-size="10.00">Factory.cxx</text>
</a>
</g>
</g>
<!-- Node8&#45;&gt;Node10 -->
<g id="edge9" class="edge"><title>Node8&#45;&gt;Node10</title>
<path fill="none" stroke="midnightblue" d="M2419.69,-60.8832C2432,-51.0054 2446.43,-39.4293 2457.46,-30.5765"/>
<polygon fill="midnightblue" stroke="midnightblue" points="2417.18,-58.4075 2411.58,-67.396 2421.57,-63.867 2417.18,-58.4075"/>
</g>
<!-- Node11 -->
<g id="node11" class="node"><title>Node11</title>
<g id="a_node11"><a xlink:href="InfrastructureGenerator_8cxx.html" target="_top" xlink:title="Framework/src/Infrastructure\lGenerator.cxx">
<polygon fill="none" stroke="black" points="2754.5,-0.5 2754.5,-30.5 2897.5,-30.5 2897.5,-0.5 2754.5,-0.5"/>
<text text-anchor="start" x="2762.5" y="-18.5" font-family="Helvetica,sans-Serif" font-size="10.00">Framework/src/Infrastructure</text>
<text text-anchor="middle" x="2826" y="-7.5" font-family="Helvetica,sans-Serif" font-size="10.00">Generator.cxx</text>
</a>
</g>
</g>
<!-- Node8&#45;&gt;Node11 -->
<g id="edge10" class="edge"><title>Node8&#45;&gt;Node11</title>
<path fill="none" stroke="midnightblue" d="M2470.96,-71.1987C2542.16,-61.4871 2650.86,-46.193 2745,-31 2748.1,-30.4992 2751.27,-29.9774 2754.47,-29.4419"/>
<polygon fill="midnightblue" stroke="midnightblue" points="2470.18,-67.7737 2460.74,-72.5904 2471.12,-74.7097 2470.18,-67.7737"/>
</g>
<!-- Node12 -->
<g id="node12" class="node"><title>Node12</title>
<g id="a_node12"><a xlink:href="runBasic_8cxx.html" target="_top" xlink:title="This is an executable showing QC Task&#39;s usage in Data Processing Layer. ">
<polygon fill="none" stroke="black" points="2242,-6 2242,-25 2384,-25 2384,-6 2242,-6"/>
<text text-anchor="middle" x="2313" y="-13" font-family="Helvetica,sans-Serif" font-size="10.00">Framework/src/runBasic.cxx</text>
</a>
</g>
</g>
<!-- Node8&#45;&gt;Node12 -->
<g id="edge11" class="edge"><title>Node8&#45;&gt;Node12</title>
<path fill="none" stroke="midnightblue" d="M2368.46,-61.008C2353.43,-48.9412 2335.19,-34.3046 2323.83,-25.1945"/>
<polygon fill="midnightblue" stroke="midnightblue" points="2366.43,-63.867 2376.42,-67.396 2370.82,-58.4075 2366.43,-63.867"/>
</g>
<!-- Node13 -->
<g id="node13" class="node"><title>Node13</title>
<g id="a_node13"><a xlink:href="runMergerTest_8cxx.html" target="_top" xlink:title="This is DPL workflow to see HistoMerger in action. ">
<polygon fill="none" stroke="black" points="2915.5,-6 2915.5,-25 3082.5,-25 3082.5,-6 2915.5,-6"/>
<text text-anchor="middle" x="2999" y="-13" font-family="Helvetica,sans-Serif" font-size="10.00">Framework/src/runMergerTest.cxx</text>
</a>
</g>
</g>
<!-- Node8&#45;&gt;Node13 -->
<g id="edge12" class="edge"><title>Node8&#45;&gt;Node13</title>
<path fill="none" stroke="midnightblue" d="M2470.86,-75.2786C2571.15,-66.8494 2752.02,-50.582 2906,-31 2919.45,-29.289 2933.96,-27.1632 2947.42,-25.0715"/>
<polygon fill="midnightblue" stroke="midnightblue" points="2470.49,-71.7972 2460.82,-76.1191 2471.08,-78.7728 2470.49,-71.7972"/>
</g>
<!-- Node14 -->
<g id="node14" class="node"><title>Node14</title>
<g id="a_node14"><a xlink:href="runTPCQCPID_8cxx.html" target="_top" xlink:title="run TPC PID QC task, reading tracks from file for the moment ">
<polygon fill="none" stroke="black" points="2566,-6 2566,-25 2736,-25 2736,-6 2566,-6"/>
<text text-anchor="middle" x="2651" y="-13" font-family="Helvetica,sans-Serif" font-size="10.00">Framework/src/runTPCQCPID.cxx</text>
</a>
</g>
</g>
<!-- Node8&#45;&gt;Node14 -->
<g id="edge13" class="edge"><title>Node8&#45;&gt;Node14</title>
<path fill="none" stroke="midnightblue" d="M2459.28,-64.9899C2509.64,-52.2516 2577.27,-35.1484 2617.28,-25.0287"/>
<polygon fill="midnightblue" stroke="midnightblue" points="2458.29,-61.6308 2449.45,-67.476 2460,-68.4171 2458.29,-61.6308"/>
</g>
<!-- Node15 -->
<g id="node15" class="node"><title>Node15</title>
<g id="a_node15"><a xlink:href="testCheckRunner_8cxx.html" target="_top" xlink:title="Framework/test/testCheck\lRunner.cxx">
<polygon fill="none" stroke="black" points="3273.5,-0.5 3273.5,-30.5 3406.5,-30.5 3406.5,-0.5 3273.5,-0.5"/>
<text text-anchor="start" x="3281.5" y="-18.5" font-family="Helvetica,sans-Serif" font-size="10.00">Framework/test/testCheck</text>
<text text-anchor="middle" x="3340" y="-7.5" font-family="Helvetica,sans-Serif" font-size="10.00">Runner.cxx</text>
</a>
</g>
</g>
<!-- Node8&#45;&gt;Node15 -->
<g id="edge14" class="edge"><title>Node8&#45;&gt;Node15</title>
<path fill="none" stroke="midnightblue" d="M2470.73,-80.4056C2622.69,-77.4972 2972.47,-67.1152 3264,-31 3267.07,-30.6202 3270.19,-30.1916 3273.35,-29.726"/>
<polygon fill="midnightblue" stroke="midnightblue" points="2470.51,-76.909 2460.57,-80.5944 2470.64,-83.9078 2470.51,-76.909"/>
</g>
<!-- Node16 -->
<g id="node16" class="node"><title>Node16</title>
<g id="a_node16"><a xlink:href="testCheckWorkflow_8cxx.html" target="_top" xlink:title="Framework/test/testCheck\lWorkflow.cxx">
<polygon fill="none" stroke="black" points="1506.5,-0.5 1506.5,-30.5 1639.5,-30.5 1639.5,-0.5 1506.5,-0.5"/>
<text text-anchor="start" x="1514.5" y="-18.5" font-family="Helvetica,sans-Serif" font-size="10.00">Framework/test/testCheck</text>
<text text-anchor="middle" x="1573" y="-7.5" font-family="Helvetica,sans-Serif" font-size="10.00">Workflow.cxx</text>
</a>
</g>
</g>
<!-- Node8&#45;&gt;Node16 -->
<g id="edge15" class="edge"><title>Node8&#45;&gt;Node16</title>
<path fill="none" stroke="midnightblue" d="M2317.19,-79.3534C2181.75,-74.8871 1891.79,-62.2731 1649,-31 1645.94,-30.6053 1642.81,-30.1645 1639.65,-29.689"/>
<polygon fill="midnightblue" stroke="midnightblue" points="2317.35,-82.8604 2327.46,-79.6861 2317.58,-75.864 2317.35,-82.8604"/>
</g>
<!-- Node17 -->
<g id="node17" class="node"><title>Node17</title>
<g id="a_node17"><a xlink:href="testWorkflow_8cxx.html" target="_top" xlink:title="Framework/test/testWorkflow.cxx">
<polygon fill="none" stroke="black" points="1658,-6 1658,-25 1822,-25 1822,-6 1658,-6"/>
<text text-anchor="middle" x="1740" y="-13" font-family="Helvetica,sans-Serif" font-size="10.00">Framework/test/testWorkflow.cxx</text>
</a>
</g>
</g>
<!-- Node8&#45;&gt;Node17 -->
<g id="edge16" class="edge"><title>Node8&#45;&gt;Node17</title>
<path fill="none" stroke="midnightblue" d="M2316.9,-76.2661C2208.28,-68.5102 2004.12,-52.5308 1831,-31 1817.51,-29.3217 1802.94,-27.1594 1789.5,-25.0194"/>
<polygon fill="midnightblue" stroke="midnightblue" points="2316.89,-79.7738 2327.11,-76.9909 2317.38,-72.7914 2316.89,-79.7738"/>
</g>
<!-- Node18 -->
<g id="node18" class="node"><title>Node18</title>
<polygon fill="none" stroke="#bfbfbf" points="1840,-6 1840,-25 2058,-25 2058,-6 1840,-6"/>
<text text-anchor="middle" x="1949" y="-13" font-family="Helvetica,sans-Serif" font-size="10.00">Modules/EMCAL/src/runQCEMCALDigits.cxx</text>
</g>
<!-- Node8&#45;&gt;Node18 -->
<g id="edge17" class="edge"><title>Node8&#45;&gt;Node18</title>
<path fill="none" stroke="midnightblue" d="M2317.45,-70.3179C2229.37,-57.4522 2086.69,-36.6116 2007.2,-25.0009"/>
<polygon fill="midnightblue" stroke="midnightblue" points="2316.98,-73.7867 2327.38,-71.7688 2317.99,-66.8602 2316.98,-73.7867"/>
</g>
<!-- Node19 -->
<g id="node19" class="node"><title>Node19</title>
<g id="a_node19"><a xlink:href="runTOF_8cxx.html" target="_top" xlink:title="This is an executable showing QC Task&#39;s usage in Data Processing Layer. ">
<polygon fill="none" stroke="black" points="2076.5,-6 2076.5,-25 2223.5,-25 2223.5,-6 2076.5,-6"/>
<text text-anchor="middle" x="2150" y="-13" font-family="Helvetica,sans-Serif" font-size="10.00">Modules/TOF/src/runTOF.cxx</text>
</a>
</g>
</g>
<!-- Node8&#45;&gt;Node19 -->
<g id="edge18" class="edge"><title>Node8&#45;&gt;Node19</title>
<path fill="none" stroke="midnightblue" d="M2331.43,-64.8304C2283.67,-52.1091 2219.84,-35.1062 2182.02,-25.0287"/>
<polygon fill="midnightblue" stroke="midnightblue" points="2330.79,-68.2838 2341.36,-67.476 2332.59,-61.5197 2330.79,-68.2838"/>
</g>
<!-- Node20&#45;&gt;Node4 -->
<g id="edge21" class="edge"><title>Node20&#45;&gt;Node4</title>
<path fill="none" stroke="midnightblue" d="M1157.53,-77.3725C1033.75,-70.3773 783.855,-54.6115 573,-31 558.301,-29.354 542.418,-27.1775 527.805,-25.0127"/>
<polygon fill="midnightblue" stroke="midnightblue" points="1157.48,-80.8754 1167.66,-77.9416 1157.88,-73.8864 1157.48,-80.8754"/>
</g>
<!-- Node20&#45;&gt;Node5 -->
<g id="edge24" class="edge"><title>Node20&#45;&gt;Node5</title>
<path fill="none" stroke="midnightblue" d="M1157.65,-67.9473C1083.87,-55.0209 975.013,-35.9498 912.653,-25.0241"/>
<polygon fill="midnightblue" stroke="midnightblue" points="1157.36,-71.4507 1167.81,-69.729 1158.57,-64.5557 1157.36,-71.4507"/>
</g>
<!-- Node20&#45;&gt;Node6 -->
<g id="edge25" class="edge"><title>Node20&#45;&gt;Node6</title>
<path fill="none" stroke="midnightblue" d="M1187.67,-63.8185C1159.7,-53.3707 1124.77,-40.3231 1098.68,-30.5765"/>
<polygon fill="midnightblue" stroke="midnightblue" points="1186.65,-67.1752 1197.24,-67.396 1189.1,-60.6178 1186.65,-67.1752"/>
</g>
<!-- Node20&#45;&gt;Node7 -->
<g id="edge26" class="edge"><title>Node20&#45;&gt;Node7</title>
<path fill="none" stroke="midnightblue" d="M1157.78,-74.3957C1063.86,-65.4953 900.552,-49.1871 761,-31 747.573,-29.2502 733.104,-27.1336 719.637,-25.0648"/>
<polygon fill="midnightblue" stroke="midnightblue" points="1157.48,-77.8829 1167.77,-75.3388 1158.14,-70.914 1157.48,-77.8829"/>
</g>
<!-- Node20&#45;&gt;Node9 -->
<g id="edge20" class="edge"><title>Node20&#45;&gt;Node9</title>
<path fill="none" stroke="midnightblue" d="M1281.61,-63.7838C1314.76,-51.1807 1357.84,-34.8082 1383.62,-25.007"/>
<polygon fill="midnightblue" stroke="midnightblue" points="1280.21,-60.5712 1272.1,-67.396 1282.7,-67.1144 1280.21,-60.5712"/>
</g>
<!-- Node21 -->
<g id="node21" class="node"><title>Node21</title>
<polygon fill="none" stroke="#bfbfbf" points="3101,-0.5 3101,-30.5 3255,-30.5 3255,-0.5 3101,-0.5"/>
<text text-anchor="start" x="3109" y="-18.5" font-family="Helvetica,sans-Serif" font-size="10.00">Framework/src/PostProcessing</text>
<text text-anchor="middle" x="3178" y="-7.5" font-family="Helvetica,sans-Serif" font-size="10.00">Runner.cxx</text>
</g>
<!-- Node20&#45;&gt;Node21 -->
<g id="edge22" class="edge"><title>Node20&#45;&gt;Node21</title>
<path fill="none" stroke="midnightblue" d="M1312.3,-80.8197C1617.25,-77.9151 2737.47,-65.1065 3091,-31 3094.2,-30.6912 3097.46,-30.3355 3100.75,-29.9427"/>
<polygon fill="midnightblue" stroke="midnightblue" points="1312.19,-77.3204 1302.22,-80.9148 1312.26,-84.3201 1312.19,-77.3204"/>
</g>
<!-- Node22 -->
<g id="node22" class="node"><title>Node22</title>
<g id="a_node22"><a xlink:href="RepositoryBenchmark_8cxx.html" target="_top" xlink:title="Framework/src/Repository\lBenchmark.cxx">
<polygon fill="none" stroke="black" points="3629,-0.5 3629,-30.5 3761,-30.5 3761,-0.5 3629,-0.5"/>
<text text-anchor="start" x="3637" y="-18.5" font-family="Helvetica,sans-Serif" font-size="10.00">Framework/src/Repository</text>
<text text-anchor="middle" x="3695" y="-7.5" font-family="Helvetica,sans-Serif" font-size="10.00">Benchmark.cxx</text>
</a>
</g>
</g>
<!-- Node20&#45;&gt;Node22 -->
<g id="edge23" class="edge"><title>Node20&#45;&gt;Node22</title>
<path fill="none" stroke="midnightblue" d="M1312.17,-80.6461C1695.59,-76.2986 3386.55,-55.8563 3620,-31 3622.9,-30.6911 3625.86,-30.3282 3628.84,-29.9229"/>
<polygon fill="midnightblue" stroke="midnightblue" points="1311.97,-77.148 1302.01,-80.761 1312.05,-84.1476 1311.97,-77.148"/>
</g>
<!-- Node23 -->
<g id="node23" class="node"><title>Node23</title>
<g id="a_node23"><a xlink:href="testTrendingTask_8cxx.html" target="_top" xlink:title="Framework/test/testTrending\lTask.cxx">
<polygon fill="none" stroke="black" points="1164,-0.5 1164,-30.5 1306,-30.5 1306,-0.5 1164,-0.5"/>
<text text-anchor="start" x="1172" y="-18.5" font-family="Helvetica,sans-Serif" font-size="10.00">Framework/test/testTrending</text>
<text text-anchor="middle" x="1235" y="-7.5" font-family="Helvetica,sans-Serif" font-size="10.00">Task.cxx</text>
</a>
</g>
</g>
<!-- Node20&#45;&gt;Node23 -->
<g id="edge27" class="edge"><title>Node20&#45;&gt;Node23</title>
<path fill="none" stroke="midnightblue" d="M1235,-57.1081C1235,-48.1539 1235,-38.3227 1235,-30.5765"/>
<polygon fill="midnightblue" stroke="midnightblue" points="1231.5,-57.3959 1235,-67.396 1238.5,-57.396 1231.5,-57.3959"/>
</g>
<!-- Node24&#45;&gt;Node4 -->
<g id="edge29" class="edge"><title>Node24&#45;&gt;Node4</title>
<path fill="none" stroke="midnightblue" d="M541.67,-61.6409C523.553,-49.3742 501.232,-34.2613 487.564,-25.007"/>
<polygon fill="midnightblue" stroke="midnightblue" points="539.927,-64.6875 550.169,-67.396 543.851,-58.8912 539.927,-64.6875"/>
</g>
<!-- Node24&#45;&gt;Node7 -->
<g id="edge31" class="edge"><title>Node24&#45;&gt;Node7</title>
<path fill="none" stroke="midnightblue" d="M600.33,-61.6409C618.447,-49.3742 640.768,-34.2613 654.436,-25.007"/>
<polygon fill="midnightblue" stroke="midnightblue" points="598.149,-58.8912 591.831,-67.396 602.073,-64.6875 598.149,-58.8912"/>
</g>
<!-- Node25 -->
<g id="node25" class="node"><title>Node25</title>
<g id="a_node25"><a xlink:href="DummyDatabase_8cxx.html" target="_top" xlink:title="Framework/src/DummyDatabase.cxx">
<polygon fill="none" stroke="black" points="0,-6 0,-25 180,-25 180,-6 0,-6"/>
<text text-anchor="middle" x="90" y="-13" font-family="Helvetica,sans-Serif" font-size="10.00">Framework/src/DummyDatabase.cxx</text>
</a>
</g>
</g>
<!-- Node24&#45;&gt;Node25 -->
<g id="edge30" class="edge"><title>Node24&#45;&gt;Node25</title>
<path fill="none" stroke="midnightblue" d="M492.862,-71.4952C415.623,-61.5291 294.101,-45.6432 189,-31 175.494,-29.1183 160.963,-27.0272 147.304,-25.0321"/>
<polygon fill="midnightblue" stroke="midnightblue" points="492.626,-74.9938 502.992,-72.8012 493.522,-68.0513 492.626,-74.9938"/>
</g>
<!-- Node27 -->
<g id="node27" class="node"><title>Node27</title>
<g id="a_node27"><a xlink:href="MySqlDatabase_8cxx.html" target="_top" xlink:title="Framework/src/MySqlDatabase.cxx">
<polygon fill="none" stroke="black" points="4135.5,-6 4135.5,-25 4308.5,-25 4308.5,-6 4135.5,-6"/>
<text text-anchor="middle" x="4222" y="-13" font-family="Helvetica,sans-Serif" font-size="10.00">Framework/src/MySqlDatabase.cxx</text>
</a>
</g>
</g>
<!-- Node26&#45;&gt;Node27 -->
<g id="edge33" class="edge"><title>Node26&#45;&gt;Node27</title>
<path fill="none" stroke="midnightblue" d="M3833.67,-66.9621C3964.31,-46.7856 3999.19,-48.3645 4126,-31 4139.44,-29.1592 4153.92,-27.0424 4167.46,-25.005"/>
<polygon fill="midnightblue" stroke="midnightblue" points="3833.03,-63.5207 3823.68,-68.5183 3834.1,-70.4373 3833.03,-63.5207"/>
</g>
<!-- Node28&#45;&gt;Node21 -->
<g id="edge35" class="edge"><title>Node28&#45;&gt;Node21</title>
<path fill="none" stroke="midnightblue" d="M3238.86,-61.4511C3225.32,-51.4517 3209.27,-39.5995 3197.06,-30.5765"/>
<polygon fill="midnightblue" stroke="midnightblue" points="3236.78,-64.2699 3246.91,-67.396 3240.94,-58.6393 3236.78,-64.2699"/>
</g>
<!-- Node29 -->
<g id="node29" class="node"><title>Node29</title>
<g id="a_node29"><a xlink:href="runPostProcessing_8cxx.html" target="_top" xlink:title="This is a standalone executable to run postprocessing. ">
<polygon fill="none" stroke="black" points="3425,-6 3425,-25 3611,-25 3611,-6 3425,-6"/>
<text text-anchor="middle" x="3518" y="-13" font-family="Helvetica,sans-Serif" font-size="10.00">Framework/src/runPostProcessing.cxx</text>
</a>
</g>
</g>
<!-- Node28&#45;&gt;Node29 -->
<g id="edge36" class="edge"><title>Node28&#45;&gt;Node29</title>
<path fill="none" stroke="midnightblue" d="M3330.32,-64.9102C3379.67,-52.1803 3445.78,-35.1273 3484.94,-25.0287"/>
<polygon fill="midnightblue" stroke="midnightblue" points="3329.18,-61.5892 3320.37,-67.476 3330.93,-68.3674 3329.18,-61.5892"/>
</g>
<!-- Node30 -->
<g id="node30" class="node"><title>Node30</title>
<g id="a_node30"><a xlink:href="testPostProcessingRunner_8cxx.html" target="_top" xlink:title="Framework/test/testPostProcessing\lRunner.cxx">
<polygon fill="none" stroke="black" points="3779.5,-0.5 3779.5,-30.5 3952.5,-30.5 3952.5,-0.5 3779.5,-0.5"/>
<text text-anchor="start" x="3787.5" y="-18.5" font-family="Helvetica,sans-Serif" font-size="10.00">Framework/test/testPostProcessing</text>
<text text-anchor="middle" x="3866" y="-7.5" font-family="Helvetica,sans-Serif" font-size="10.00">Runner.cxx</text>
</a>
</g>
</g>
<!-- Node28&#45;&gt;Node30 -->
<g id="edge37" class="edge"><title>Node28&#45;&gt;Node30</title>
<path fill="none" stroke="midnightblue" d="M3356.17,-73.8358C3457.13,-64.9357 3625.54,-49.1355 3770,-31 3773.09,-30.6116 3776.24,-30.2036 3779.42,-29.7808"/>
<polygon fill="midnightblue" stroke="midnightblue" points="3355.66,-70.3665 3346.01,-74.7282 3356.28,-77.3397 3355.66,-70.3665"/>
</g>
<!-- Node31&#45;&gt;Node22 -->
<g id="edge39" class="edge"><title>Node31&#45;&gt;Node22</title>
<path fill="none" stroke="midnightblue" d="M3633.45,-61.4511C3647.14,-51.4517 3663.37,-39.5995 3675.73,-30.5765"/>
<polygon fill="midnightblue" stroke="midnightblue" points="3631.32,-58.6716 3625.31,-67.396 3635.45,-64.3245 3631.32,-58.6716"/>
</g>
<!-- Node32 -->
<g id="node32" class="node"><title>Node32</title>
<g id="a_node32"><a xlink:href="runRepositoryBenchmark_8cxx.html" target="_top" xlink:title="Framework/src/runRepository\lBenchmark.cxx">
<polygon fill="none" stroke="black" points="3971,-0.5 3971,-30.5 4117,-30.5 4117,-0.5 3971,-0.5"/>
<text text-anchor="start" x="3979" y="-18.5" font-family="Helvetica,sans-Serif" font-size="10.00">Framework/src/runRepository</text>
<text text-anchor="middle" x="4044" y="-7.5" font-family="Helvetica,sans-Serif" font-size="10.00">Benchmark.cxx</text>
</a>
</g>
</g>
<!-- Node31&#45;&gt;Node32 -->
<g id="edge40" class="edge"><title>Node31&#45;&gt;Node32</title>
<path fill="none" stroke="midnightblue" d="M3682.16,-66.8767C3807.01,-47.1745 3840.69,-49.486 3962,-31 3964.86,-30.5644 3967.77,-30.1084 3970.71,-29.6378"/>
<polygon fill="midnightblue" stroke="midnightblue" points="3681.54,-63.4317 3672.21,-68.4622 3682.64,-70.3444 3681.54,-63.4317"/>
</g>
</g>
</svg>
        <g id="navigator" transform="translate(0 0)" fill="#404254">
                <rect fill="#f2f5e9" fill-opacity="0.5" stroke="#606060" stroke-width=".5" x="0" y="0" width="60" height="60"/>
                <use id="zoomplus" xlink:href="#zoomPlus" x="17" y="9" onmousedown="handleZoom(evt,'in')"/>
                <use id="zoomminus" xlink:href="#zoomMin" x="42" y="9" onmousedown="handleZoom(evt,'out')"/>
                <use id="reset" xlink:href="#resetDef" x="30" y="36" onmousedown="handleReset()"/>
                <g id="arrowUp" xlink:href="#dirArrow" transform="translate(30 24)" onmousedown="handlePan(0,-1)">
                  <use xlink:href="#rim" fill="#404040">
                        <set attributeName="fill" to="#808080" begin="arrowUp.mouseover" end="arrowUp.mouseout"/>
                  </use>
                  <path fill="none" stroke="white" stroke-width="1.5" d="M0,-3.0v7 M-2.5,-0.5L0,-3.0L2.5,-0.5"/>
                </g>
                <g id="arrowRight" xlink:href="#dirArrow" transform="rotate(90) translate(36 -43)" onmousedown="handlePan(1,0)">
                  <use xlink:href="#rim" fill="#404040">
                        <set attributeName="fill" to="#808080" begin="arrowRight.mouseover" end="arrowRight.mouseout"/>
                  </use>
                  <path fill="none" stroke="white" stroke-width="1.5" d="M0,-3.0v7 M-2.5,-0.5L0,-3.0L2.5,-0.5"/>
                </g>
                <g id="arrowDown" xlink:href="#dirArrow" transform="rotate(180) translate(-30 -48)" onmousedown="handlePan(0,1)">
                  <use xlink:href="#rim" fill="#404040">
                        <set attributeName="fill" to="#808080" begin="arrowDown.mouseover" end="arrowDown.mouseout"/>
                  </use>
                  <path fill="none" stroke="white" stroke-width="1.5" d="M0,-3.0v7 M-2.5,-0.5L0,-3.0L2.5,-0.5"/>
                </g>
                <g id="arrowLeft" xlink:href="#dirArrow" transform="rotate(270) translate(-36 17)" onmousedown="handlePan(-1,0)">
                  <use xlink:href="#rim" fill="#404040">
                        <set attributeName="fill" to="#808080" begin="arrowLeft.mouseover" end="arrowLeft.mouseout"/>
                  </use>
                  <path fill="none" stroke="white" stroke-width="1.5" d="M0,-3.0v7 M-2.5,-0.5L0,-3.0L2.5,-0.5"/>
                </g>
        </g>
        <svg viewBox="0 0 15 15" width="100%" height="30px" preserveAspectRatio="xMaxYMin meet">
         <g id="arrow_out" transform="scale(0.3 0.3)">
          <a xlink:href="DatabaseInterface_8h__dep__incl_org.svg" target="_base">
           <rect id="button" ry="5" rx="5" y="6" x="6" height="38" width="38"
                fill="#f2f5e9" fill-opacity="0.5" stroke="#606060" stroke-width="1.0"/>
           <path id="arrow"
             d="M 11.500037,31.436501 C 11.940474,20.09759 22.043105,11.32322 32.158766,21.979434 L 37.068811,17.246167 C 37.068811,17.246167 37.088388,32 37.088388,32 L 22.160133,31.978069 C 22.160133,31.978069 26.997745,27.140456 26.997745,27.140456 C 18.528582,18.264221 13.291696,25.230495 11.500037,31.436501 z"
             style="fill:#404040;"/>
          </a>
         </g>
        </svg>
</svg>
