<?xml version="1.0" encoding="UTF-8" standalone="no"?>
<!DOCTYPE svg PUBLIC "-//W3C//DTD SVG 1.1//EN"
 "http://www.w3.org/Graphics/SVG/1.1/DTD/svg11.dtd">
<!-- Generated by graphviz version 2.38.0 (20140413.2041)
 -->
<!-- Title: Modules/EMCAL/src/DigitCheck.cxx Pages: 1 -->
<svg width="932pt" height="308pt"
 viewBox="0.00 0.00 932.09 308.00" xmlns="http://www.w3.org/2000/svg" xmlns:xlink="http://www.w3.org/1999/xlink">
<g id="graph0" class="graph" transform="scale(1 1) rotate(0) translate(4 304)">
<title>Modules/EMCAL/src/DigitCheck.cxx</title>
<!-- Node1 -->
<g id="node1" class="node"><title>Node1</title>
<polygon fill="#bfbfbf" stroke="black" points="522.085,-280.5 522.085,-299.5 700.085,-299.5 700.085,-280.5 522.085,-280.5"/>
<text text-anchor="middle" x="611.085" y="-287.5" font-family="Helvetica,sans-Serif" font-size="10.00">Modules/EMCAL/src/DigitCheck.cxx</text>
</g>
<!-- Node2 -->
<g id="node2" class="node"><title>Node2</title>
<g id="a_node2"><a xlink:href="DigitCheck_8h.html" target="_top" xlink:title="EMCAL/DigitCheck.h">
<polygon fill="none" stroke="black" points="294.585,-224.5 294.585,-243.5 405.585,-243.5 405.585,-224.5 294.585,-224.5"/>
<text text-anchor="middle" x="350.085" y="-231.5" font-family="Helvetica,sans-Serif" font-size="10.00">EMCAL/DigitCheck.h</text>
</a>
</g>
</g>
<!-- Node1&#45;&gt;Node2 -->
<g id="edge1" class="edge"><title>Node1&#45;&gt;Node2</title>
<path fill="none" stroke="midnightblue" d="M569.729,-280.444C524.007,-270.984 450.321,-255.738 401.064,-245.547"/>
<polygon fill="midnightblue" stroke="midnightblue" points="401.75,-242.115 391.248,-243.516 400.331,-248.97 401.75,-242.115"/>
</g>
<!-- Node7 -->
<g id="node7" class="node"><title>Node7</title>
<g id="a_node7"><a xlink:href="MonitorObject_8h.html" target="_top" xlink:title="QualityControl/MonitorObject.h">
<polygon fill="none" stroke="black" points="159.585,-112.5 159.585,-131.5 310.585,-131.5 310.585,-112.5 159.585,-112.5"/>
<text text-anchor="middle" x="235.085" y="-119.5" font-family="Helvetica,sans-Serif" font-size="10.00">QualityControl/MonitorObject.h</text>
</a>
</g>
</g>
<!-- Node1&#45;&gt;Node7 -->
<g id="edge16" class="edge"><title>Node1&#45;&gt;Node7</title>
<path fill="none" stroke="midnightblue" d="M521.711,-285.207C438.88,-280.185 322.93,-268.858 285.085,-244 250.521,-221.298 239.832,-169.751 236.54,-141.824"/>
<polygon fill="midnightblue" stroke="midnightblue" points="240.013,-141.375 235.557,-131.763 233.046,-142.056 240.013,-141.375"/>
</g>
<!-- Node10 -->
<g id="node10" class="node"><title>Node10</title>
<g id="a_node10"><a xlink:href="Quality_8h.html" target="_top" xlink:title="QualityControl/Quality.h">
<polygon fill="none" stroke="black" points="354.585,-56.5 354.585,-75.5 475.585,-75.5 475.585,-56.5 354.585,-56.5"/>
<text text-anchor="middle" x="415.085" y="-63.5" font-family="Helvetica,sans-Serif" font-size="10.00">QualityControl/Quality.h</text>
</a>
</g>
</g>
<!-- Node1&#45;&gt;Node10 -->
<g id="edge17" class="edge"><title>Node1&#45;&gt;Node10</title>
<path fill="none" stroke="midnightblue" d="M535.537,-280.47C510.212,-274.103 483.71,-263.071 465.085,-244 442.857,-221.239 424.939,-126.671 418.089,-85.8731"/>
<polygon fill="midnightblue" stroke="midnightblue" points="421.525,-85.1994 416.456,-75.8961 414.617,-86.3302 421.525,-85.1994"/>
</g>
<!-- Node11 -->
<g id="node11" class="node"><title>Node11</title>
<polygon fill="none" stroke="#bfbfbf" points="474.585,-224.5 474.585,-243.5 571.585,-243.5 571.585,-224.5 474.585,-224.5"/>
<text text-anchor="middle" x="523.085" y="-231.5" font-family="Helvetica,sans-Serif" font-size="10.00">fairlogger/Logger.h</text>
</g>
<!-- Node1&#45;&gt;Node11 -->
<g id="edge18" class="edge"><title>Node1&#45;&gt;Node11</title>
<path fill="none" stroke="midnightblue" d="M596.947,-280.324C583.219,-271.9 562.149,-258.971 546.021,-249.074"/>
<polygon fill="midnightblue" stroke="midnightblue" points="547.543,-245.902 537.189,-243.655 543.882,-251.868 547.543,-245.902"/>
</g>
<!-- Node12 -->
<g id="node12" class="node"><title>Node12</title>
<polygon fill="none" stroke="#bfbfbf" points="589.085,-224.5 589.085,-243.5 633.085,-243.5 633.085,-224.5 589.085,-224.5"/>
<text text-anchor="middle" x="611.085" y="-231.5" font-family="Helvetica,sans-Serif" font-size="10.00">TH1.h</text>
</g>
<!-- Node1&#45;&gt;Node12 -->
<g id="edge19" class="edge"><title>Node1&#45;&gt;Node12</title>
<path fill="none" stroke="midnightblue" d="M611.085,-280.083C611.085,-273.006 611.085,-262.861 611.085,-253.986"/>
<polygon fill="midnightblue" stroke="midnightblue" points="614.585,-253.751 611.085,-243.751 607.585,-253.751 614.585,-253.751"/>
</g>
<!-- Node13 -->
<g id="node13" class="node"><title>Node13</title>
<polygon fill="none" stroke="#bfbfbf" points="651.085,-224.5 651.085,-243.5 695.085,-243.5 695.085,-224.5 651.085,-224.5"/>
<text text-anchor="middle" x="673.085" y="-231.5" font-family="Helvetica,sans-Serif" font-size="10.00">TH2.h</text>
</g>
<!-- Node1&#45;&gt;Node13 -->
<g id="edge20" class="edge"><title>Node1&#45;&gt;Node13</title>
<path fill="none" stroke="midnightblue" d="M621.047,-280.324C630.212,-272.341 644.022,-260.313 655.113,-250.653"/>
<polygon fill="midnightblue" stroke="midnightblue" points="657.701,-253.041 662.943,-243.834 653.103,-247.762 657.701,-253.041"/>
</g>
<!-- Node14 -->
<g id="node14" class="node"><title>Node14</title>
<polygon fill="none" stroke="#bfbfbf" points="713.585,-224.5 713.585,-243.5 786.585,-243.5 786.585,-224.5 713.585,-224.5"/>
<text text-anchor="middle" x="750.085" y="-231.5" font-family="Helvetica,sans-Serif" font-size="10.00">TPaveText.h</text>
</g>
<!-- Node1&#45;&gt;Node14 -->
<g id="edge21" class="edge"><title>Node1&#45;&gt;Node14</title>
<path fill="none" stroke="midnightblue" d="M633.11,-280.444C656.189,-271.478 692.647,-257.314 718.726,-247.183"/>
<polygon fill="midnightblue" stroke="midnightblue" points="720.109,-250.4 728.163,-243.516 717.575,-243.875 720.109,-250.4"/>
</g>
<!-- Node15 -->
<g id="node15" class="node"><title>Node15</title>
<polygon fill="none" stroke="#bfbfbf" points="804.585,-224.5 804.585,-243.5 851.585,-243.5 851.585,-224.5 804.585,-224.5"/>
<text text-anchor="middle" x="828.085" y="-231.5" font-family="Helvetica,sans-Serif" font-size="10.00">TList.h</text>
</g>
<!-- Node1&#45;&gt;Node15 -->
<g id="edge22" class="edge"><title>Node1&#45;&gt;Node15</title>
<path fill="none" stroke="midnightblue" d="M648.038,-280.42C683.405,-272.117 738.487,-258.951 794.6,-244.33"/>
<polygon fill="midnightblue" stroke="midnightblue" points="795.558,-247.697 804.345,-241.778 793.785,-240.925 795.558,-247.697"/>
</g>
<!-- Node16 -->
<g id="node16" class="node"><title>Node16</title>
<polygon fill="none" stroke="#bfbfbf" points="870.085,-224.5 870.085,-243.5 924.085,-243.5 924.085,-224.5 870.085,-224.5"/>
<text text-anchor="middle" x="897.085" y="-231.5" font-family="Helvetica,sans-Serif" font-size="10.00">iostream</text>
</g>
<!-- Node1&#45;&gt;Node16 -->
<g id="edge23" class="edge"><title>Node1&#45;&gt;Node16</title>
<path fill="none" stroke="midnightblue" d="M664.446,-280.458C713.02,-272.442 786.92,-259.649 860.147,-244.089"/>
<polygon fill="midnightblue" stroke="midnightblue" points="860.959,-247.494 870.004,-241.977 859.492,-240.65 860.959,-247.494"/>
</g>
<!-- Node3 -->
<g id="node3" class="node"><title>Node3</title>
<g id="a_node3"><a xlink:href="CheckInterface_8h.html" target="_top" xlink:title="QualityControl/CheckInterface.h">
<polygon fill="none" stroke="black" points="260.585,-168.5 260.585,-187.5 417.585,-187.5 417.585,-168.5 260.585,-168.5"/>
<text text-anchor="middle" x="339.085" y="-175.5" font-family="Helvetica,sans-Serif" font-size="10.00">QualityControl/CheckInterface.h</text>
</a>
</g>
</g>
<!-- Node2&#45;&gt;Node3 -->
<g id="edge2" class="edge"><title>Node2&#45;&gt;Node3</title>
<path fill="none" stroke="midnightblue" d="M348.269,-224.083C346.811,-216.927 344.715,-206.635 342.893,-197.691"/>
<polygon fill="midnightblue" stroke="midnightblue" points="346.294,-196.851 340.868,-187.751 339.434,-198.248 346.294,-196.851"/>
</g>
<!-- Node4 -->
<g id="node4" class="node"><title>Node4</title>
<polygon fill="none" stroke="#bfbfbf" points="214.585,-0.5 214.585,-19.5 255.585,-19.5 255.585,-0.5 214.585,-0.5"/>
<text text-anchor="middle" x="235.085" y="-7.5" font-family="Helvetica,sans-Serif" font-size="10.00">string</text>
</g>
<!-- Node3&#45;&gt;Node4 -->
<g id="edge3" class="edge"><title>Node3&#45;&gt;Node4</title>
<path fill="none" stroke="midnightblue" d="M282.007,-168.455C194.956,-154.081 35.7454,-122.053 4.08523,-76 -0.950453,-68.6751 -1.56739,-62.86 4.08523,-56 29.1048,-25.6362 147.215,-15.4898 204.192,-12.3263"/>
<polygon fill="midnightblue" stroke="midnightblue" points="204.599,-15.81 214.405,-11.7981 204.238,-8.81929 204.599,-15.81"/>
</g>
<!-- Node5 -->
<g id="node5" class="node"><title>Node5</title>
<polygon fill="none" stroke="#bfbfbf" points="301.585,-56.5 301.585,-75.5 336.585,-75.5 336.585,-56.5 301.585,-56.5"/>
<text text-anchor="middle" x="319.085" y="-63.5" font-family="Helvetica,sans-Serif" font-size="10.00">map</text>
</g>
<!-- Node3&#45;&gt;Node5 -->
<g id="edge4" class="edge"><title>Node3&#45;&gt;Node5</title>
<path fill="none" stroke="midnightblue" d="M337.516,-168.368C334.288,-150.617 326.843,-109.666 322.467,-85.5974"/>
<polygon fill="midnightblue" stroke="midnightblue" points="325.88,-84.804 320.647,-75.5914 318.993,-86.0562 325.88,-84.804"/>
</g>
<!-- Node6 -->
<g id="node6" class="node"><title>Node6</title>
<polygon fill="none" stroke="#bfbfbf" points="387.085,-0.5 387.085,-19.5 443.085,-19.5 443.085,-0.5 387.085,-0.5"/>
<text text-anchor="middle" x="415.085" y="-7.5" font-family="Helvetica,sans-Serif" font-size="10.00">Rtypes.h</text>
</g>
<!-- Node3&#45;&gt;Node6 -->
<g id="edge5" class="edge"><title>Node3&#45;&gt;Node6</title>
<path fill="none" stroke="midnightblue" d="M363.363,-168.41C397.564,-154.83 458.598,-124.815 484.085,-76 495.466,-54.2027 470.058,-35.7073 446.927,-24.0848"/>
<polygon fill="midnightblue" stroke="midnightblue" points="448.135,-20.7849 437.598,-19.6815 445.147,-27.1152 448.135,-20.7849"/>
</g>
<!-- Node3&#45;&gt;Node7 -->
<g id="edge6" class="edge"><title>Node3&#45;&gt;Node7</title>
<path fill="none" stroke="midnightblue" d="M322.376,-168.324C305.773,-159.703 280.083,-146.364 260.865,-136.386"/>
<polygon fill="midnightblue" stroke="midnightblue" points="262.241,-133.156 251.753,-131.655 259.015,-139.369 262.241,-133.156"/>
</g>
<!-- Node3&#45;&gt;Node10 -->
<g id="edge15" class="edge"><title>Node3&#45;&gt;Node10</title>
<path fill="none" stroke="midnightblue" d="M345.049,-168.368C357.591,-150.215 386.895,-107.802 403.347,-83.9902"/>
<polygon fill="midnightblue" stroke="midnightblue" points="406.345,-85.8083 409.149,-75.5914 400.585,-81.8292 406.345,-85.8083"/>
</g>
<!-- Node7&#45;&gt;Node4 -->
<g id="edge7" class="edge"><title>Node7&#45;&gt;Node4</title>
<path fill="none" stroke="midnightblue" d="M235.085,-112.368C235.085,-94.617 235.085,-53.6664 235.085,-29.5974"/>
<polygon fill="midnightblue" stroke="midnightblue" points="238.585,-29.5914 235.085,-19.5914 231.585,-29.5915 238.585,-29.5914"/>
</g>
<!-- Node7&#45;&gt;Node5 -->
<g id="edge8" class="edge"><title>Node7&#45;&gt;Node5</title>
<path fill="none" stroke="midnightblue" d="M248.581,-112.324C261.685,-103.9 281.797,-90.9709 297.192,-81.0741"/>
<polygon fill="midnightblue" stroke="midnightblue" points="299.104,-84.0063 305.623,-75.6545 295.318,-78.118 299.104,-84.0063"/>
</g>
<!-- Node7&#45;&gt;Node6 -->
<g id="edge9" class="edge"><title>Node7&#45;&gt;Node6</title>
<path fill="none" stroke="midnightblue" d="M240.669,-112.172C249.825,-98.3608 269.305,-71.6119 292.085,-56 317.916,-38.2974 351.552,-26.6183 377.119,-19.6051"/>
<polygon fill="midnightblue" stroke="midnightblue" points="378.053,-22.9787 386.837,-17.0557 376.276,-16.2078 378.053,-22.9787"/>
</g>
<!-- Node8 -->
<g id="node8" class="node"><title>Node8</title>
<polygon fill="none" stroke="#bfbfbf" points="147.585,-56.5 147.585,-75.5 206.585,-75.5 206.585,-56.5 147.585,-56.5"/>
<text text-anchor="middle" x="177.085" y="-63.5" font-family="Helvetica,sans-Serif" font-size="10.00">TObject.h</text>
</g>
<!-- Node7&#45;&gt;Node8 -->
<g id="edge10" class="edge"><title>Node7&#45;&gt;Node8</title>
<path fill="none" stroke="midnightblue" d="M225.767,-112.324C217.193,-104.341 204.273,-92.3128 193.898,-82.6529"/>
<polygon fill="midnightblue" stroke="midnightblue" points="196.277,-80.0865 186.573,-75.8339 191.507,-85.2098 196.277,-80.0865"/>
</g>
<!-- Node9 -->
<g id="node9" class="node"><title>Node9</title>
<polygon fill="none" stroke="#bfbfbf" points="13.0852,-56.5 13.0852,-75.5 129.085,-75.5 129.085,-56.5 13.0852,-56.5"/>
<text text-anchor="middle" x="71.0852" y="-63.5" font-family="Helvetica,sans-Serif" font-size="10.00">Common/Exceptions.h</text>
</g>
<!-- Node7&#45;&gt;Node9 -->
<g id="edge11" class="edge"><title>Node7&#45;&gt;Node9</title>
<path fill="none" stroke="midnightblue" d="M209.099,-112.444C181.389,-103.32 137.333,-88.8133 106.47,-78.6509"/>
<polygon fill="midnightblue" stroke="midnightblue" points="107.543,-75.3196 96.9499,-75.5164 105.354,-81.9684 107.543,-75.3196"/>
</g>
<!-- Node7&#45;&gt;Node10 -->
<g id="edge12" class="edge"><title>Node7&#45;&gt;Node10</title>
<path fill="none" stroke="midnightblue" d="M263.607,-112.444C294.152,-103.28 342.793,-88.6876 376.688,-78.5192"/>
<polygon fill="midnightblue" stroke="midnightblue" points="378.125,-81.7424 386.697,-75.5164 376.113,-75.0376 378.125,-81.7424"/>
</g>
<!-- Node10&#45;&gt;Node4 -->
<g id="edge14" class="edge"><title>Node10&#45;&gt;Node4</title>
<path fill="none" stroke="midnightblue" d="M386.564,-56.4435C353.503,-46.5255 299.243,-30.2473 265.427,-20.1025"/>
<polygon fill="midnightblue" stroke="midnightblue" points="266.219,-16.686 255.635,-17.1649 264.207,-23.3908 266.219,-16.686"/>
</g>
<!-- Node10&#45;&gt;Node6 -->
<g id="edge13" class="edge"><title>Node10&#45;&gt;Node6</title>
<path fill="none" stroke="midnightblue" d="M415.085,-56.083C415.085,-49.0059 415.085,-38.8611 415.085,-29.9865"/>
<polygon fill="midnightblue" stroke="midnightblue" points="418.585,-29.751 415.085,-19.7511 411.585,-29.7511 418.585,-29.751"/>
</g>
</g>
</svg>
