<?xml version="1.0" encoding="UTF-8" standalone="no"?>
<!DOCTYPE svg PUBLIC "-//W3C//DTD SVG 1.1//EN"
 "http://www.w3.org/Graphics/SVG/1.1/DTD/svg11.dtd">
<!-- Generated by graphviz version 2.38.0 (20140413.2041)
 -->
<!-- Title: Modules/EMCAL/src/DigitsQcTask.cxx Pages: 1 -->
<svg width="1311pt" height="386pt"
 viewBox="0.00 0.00 1311.00 386.00" xmlns="http://www.w3.org/2000/svg" xmlns:xlink="http://www.w3.org/1999/xlink">
<g id="graph0" class="graph" transform="scale(1 1) rotate(0) translate(4 382)">
<title>Modules/EMCAL/src/DigitsQcTask.cxx</title>
<!-- Node1 -->
<g id="node1" class="node"><title>Node1</title>
<polygon fill="#bfbfbf" stroke="black" points="335.5,-347.5 335.5,-377.5 471.5,-377.5 471.5,-347.5 335.5,-347.5"/>
<text text-anchor="start" x="343.5" y="-365.5" font-family="Helvetica,sans-Serif" font-size="10.00">Modules/EMCAL/src/Digits</text>
<text text-anchor="middle" x="403.5" y="-354.5" font-family="Helvetica,sans-Serif" font-size="10.00">QcTask.cxx</text>
</g>
<!-- Node2 -->
<g id="node2" class="node"><title>Node2</title>
<polygon fill="none" stroke="#bfbfbf" points="0,-286 0,-305 65,-305 65,-286 0,-286"/>
<text text-anchor="middle" x="32.5" y="-293" font-family="Helvetica,sans-Serif" font-size="10.00">TCanvas.h</text>
</g>
<!-- Node1&#45;&gt;Node2 -->
<g id="edge1" class="edge"><title>Node1&#45;&gt;Node2</title>
<path fill="none" stroke="midnightblue" d="M335.376,-354.67C268.346,-347.103 163.415,-332.982 74.5,-311 71.2799,-310.204 67.9566,-309.266 64.6557,-308.257"/>
<polygon fill="midnightblue" stroke="midnightblue" points="65.5376,-304.863 54.9451,-305.084 63.3635,-311.517 65.5376,-304.863"/>
</g>
<!-- Node3 -->
<g id="node3" class="node"><title>Node3</title>
<polygon fill="none" stroke="#bfbfbf" points="83.5,-286 83.5,-305 127.5,-305 127.5,-286 83.5,-286"/>
<text text-anchor="middle" x="105.5" y="-293" font-family="Helvetica,sans-Serif" font-size="10.00">TH2.h</text>
</g>
<!-- Node1&#45;&gt;Node3 -->
<g id="edge2" class="edge"><title>Node1&#45;&gt;Node3</title>
<path fill="none" stroke="midnightblue" d="M335.399,-353.416C280.737,-345.791 202.496,-332.302 136.5,-311 134.828,-310.46 133.13,-309.852 131.432,-309.198"/>
<polygon fill="midnightblue" stroke="midnightblue" points="132.492,-305.844 121.922,-305.114 129.729,-312.276 132.492,-305.844"/>
</g>
<!-- Node4 -->
<g id="node4" class="node"><title>Node4</title>
<polygon fill="none" stroke="#bfbfbf" points="145.5,-280.5 145.5,-310.5 315.5,-310.5 315.5,-280.5 145.5,-280.5"/>
<text text-anchor="start" x="153.5" y="-298.5" font-family="Helvetica,sans-Serif" font-size="10.00">DataFormatsEMCAL/EMCALBlock</text>
<text text-anchor="middle" x="230.5" y="-287.5" font-family="Helvetica,sans-Serif" font-size="10.00">Header.h</text>
</g>
<!-- Node1&#45;&gt;Node4 -->
<g id="edge3" class="edge"><title>Node1&#45;&gt;Node4</title>
<path fill="none" stroke="midnightblue" d="M365.962,-347.396C340.004,-337.643 305.276,-324.595 277.481,-314.152"/>
<polygon fill="midnightblue" stroke="midnightblue" points="278.557,-310.817 267.965,-310.577 276.095,-317.37 278.557,-310.817"/>
</g>
<!-- Node5 -->
<g id="node5" class="node"><title>Node5</title>
<polygon fill="none" stroke="#bfbfbf" points="333.5,-286 333.5,-305 473.5,-305 473.5,-286 333.5,-286"/>
<text text-anchor="middle" x="403.5" y="-293" font-family="Helvetica,sans-Serif" font-size="10.00">DataFormatsEMCAL/Digit.h</text>
</g>
<!-- Node1&#45;&gt;Node5 -->
<g id="edge4" class="edge"><title>Node1&#45;&gt;Node5</title>
<path fill="none" stroke="midnightblue" d="M403.5,-347.396C403.5,-338.064 403.5,-325.714 403.5,-315.517"/>
<polygon fill="midnightblue" stroke="midnightblue" points="407,-315.195 403.5,-305.195 400,-315.195 407,-315.195"/>
</g>
<!-- Node6 -->
<g id="node6" class="node"><title>Node6</title>
<g id="a_node6"><a xlink:href="QcInfoLogger_8h.html" target="_top" xlink:title="QualityControl/QcInfoLogger.h">
<polygon fill="none" stroke="black" points="492,-286 492,-305 641,-305 641,-286 492,-286"/>
<text text-anchor="middle" x="566.5" y="-293" font-family="Helvetica,sans-Serif" font-size="10.00">QualityControl/QcInfoLogger.h</text>
</a>
</g>
</g>
<!-- Node1&#45;&gt;Node6 -->
<g id="edge5" class="edge"><title>Node1&#45;&gt;Node6</title>
<path fill="none" stroke="midnightblue" d="M438.869,-347.396C467.722,-335.89 508.077,-319.797 535.637,-308.807"/>
<polygon fill="midnightblue" stroke="midnightblue" points="537.175,-311.962 545.167,-305.007 534.582,-305.46 537.175,-311.962"/>
</g>
<!-- Node8 -->
<g id="node8" class="node"><title>Node8</title>
<g id="a_node8"><a xlink:href="DigitsQcTask_8h.html" target="_top" xlink:title="EMCAL/DigitsQcTask.h">
<polygon fill="none" stroke="black" points="659.5,-286 659.5,-305 781.5,-305 781.5,-286 659.5,-286"/>
<text text-anchor="middle" x="720.5" y="-293" font-family="Helvetica,sans-Serif" font-size="10.00">EMCAL/DigitsQcTask.h</text>
</a>
</g>
</g>
<!-- Node1&#45;&gt;Node8 -->
<g id="edge7" class="edge"><title>Node1&#45;&gt;Node8</title>
<path fill="none" stroke="midnightblue" d="M471.504,-347.556C530.639,-335.43 615.047,-318.123 668.804,-307.1"/>
<polygon fill="midnightblue" stroke="midnightblue" points="669.708,-310.488 678.801,-305.05 668.301,-303.63 669.708,-310.488"/>
</g>
<!-- Node25 -->
<g id="node25" class="node"><title>Node25</title>
<polygon fill="none" stroke="#bfbfbf" points="799.5,-286 799.5,-305 927.5,-305 927.5,-286 799.5,-286"/>
<text text-anchor="middle" x="863.5" y="-293" font-family="Helvetica,sans-Serif" font-size="10.00">EMCALBase/Geometry.h</text>
</g>
<!-- Node1&#45;&gt;Node25 -->
<g id="edge33" class="edge"><title>Node1&#45;&gt;Node25</title>
<path fill="none" stroke="midnightblue" d="M471.511,-354.008C548.958,-345.157 679.178,-329.298 790.5,-311 797.858,-309.79 805.609,-308.389 813.201,-306.945"/>
<polygon fill="midnightblue" stroke="midnightblue" points="813.895,-310.375 823.044,-305.033 812.56,-303.504 813.895,-310.375"/>
</g>
<!-- Node7 -->
<g id="node7" class="node"><title>Node7</title>
<polygon fill="none" stroke="#bfbfbf" points="501.5,-224.5 501.5,-243.5 631.5,-243.5 631.5,-224.5 501.5,-224.5"/>
<text text-anchor="middle" x="566.5" y="-231.5" font-family="Helvetica,sans-Serif" font-size="10.00">InfoLogger/InfoLogger.hxx</text>
</g>
<!-- Node6&#45;&gt;Node7 -->
<g id="edge6" class="edge"><title>Node6&#45;&gt;Node7</title>
<path fill="none" stroke="midnightblue" d="M566.5,-285.975C566.5,-277.58 566.5,-264.481 566.5,-253.663"/>
<polygon fill="midnightblue" stroke="midnightblue" points="570,-253.509 566.5,-243.509 563,-253.509 570,-253.509"/>
</g>
<!-- Node9 -->
<g id="node9" class="node"><title>Node9</title>
<g id="a_node9"><a xlink:href="TaskInterface_8h.html" target="_top" xlink:title="QualityControl/TaskInterface.h">
<polygon fill="none" stroke="black" points="731.5,-224.5 731.5,-243.5 881.5,-243.5 881.5,-224.5 731.5,-224.5"/>
<text text-anchor="middle" x="806.5" y="-231.5" font-family="Helvetica,sans-Serif" font-size="10.00">QualityControl/TaskInterface.h</text>
</a>
</g>
</g>
<!-- Node8&#45;&gt;Node9 -->
<g id="edge8" class="edge"><title>Node8&#45;&gt;Node9</title>
<path fill="none" stroke="midnightblue" d="M732.822,-285.975C746.616,-276.431 769.199,-260.807 785.732,-249.368"/>
<polygon fill="midnightblue" stroke="midnightblue" points="787.969,-252.077 794.201,-243.509 783.986,-246.32 787.969,-252.077"/>
</g>
<!-- Node24 -->
<g id="node24" class="node"><title>Node24</title>
<polygon fill="none" stroke="#bfbfbf" points="675.5,-224.5 675.5,-243.5 713.5,-243.5 713.5,-224.5 675.5,-224.5"/>
<text text-anchor="middle" x="694.5" y="-231.5" font-family="Helvetica,sans-Serif" font-size="10.00">array</text>
</g>
<!-- Node8&#45;&gt;Node24 -->
<g id="edge32" class="edge"><title>Node8&#45;&gt;Node24</title>
<path fill="none" stroke="midnightblue" d="M716.775,-285.975C713.029,-277.404 707.14,-263.927 702.358,-252.983"/>
<polygon fill="midnightblue" stroke="midnightblue" points="705.43,-251.271 698.218,-243.509 699.015,-254.074 705.43,-251.271"/>
</g>
<!-- Node10 -->
<g id="node10" class="node"><title>Node10</title>
<polygon fill="none" stroke="#bfbfbf" points="273,-56.5 273,-75.5 308,-75.5 308,-56.5 273,-56.5"/>
<text text-anchor="middle" x="290.5" y="-63.5" font-family="Helvetica,sans-Serif" font-size="10.00">map</text>
</g>
<!-- Node9&#45;&gt;Node10 -->
<g id="edge9" class="edge"><title>Node9&#45;&gt;Node10</title>
<path fill="none" stroke="midnightblue" d="M744.155,-224.48C674.559,-214.704 566.462,-198.654 526.5,-188 458.545,-169.883 440.255,-165.653 378.5,-132 352.368,-117.759 325.258,-96.6007 308.157,-82.3275"/>
<polygon fill="midnightblue" stroke="midnightblue" points="310.075,-79.3645 300.185,-75.5642 305.546,-84.7024 310.075,-79.3645"/>
</g>
<!-- Node11 -->
<g id="node11" class="node"><title>Node11</title>
<polygon fill="none" stroke="#bfbfbf" points="753.5,-112.5 753.5,-131.5 805.5,-131.5 805.5,-112.5 753.5,-112.5"/>
<text text-anchor="middle" x="779.5" y="-119.5" font-family="Helvetica,sans-Serif" font-size="10.00">memory</text>
</g>
<!-- Node9&#45;&gt;Node11 -->
<g id="edge10" class="edge"><title>Node9&#45;&gt;Node11</title>
<path fill="none" stroke="midnightblue" d="M804.381,-224.368C800.024,-206.617 789.973,-165.666 784.065,-141.597"/>
<polygon fill="midnightblue" stroke="midnightblue" points="787.392,-140.469 781.609,-131.591 780.594,-142.137 787.392,-140.469"/>
</g>
<!-- Node12 -->
<g id="node12" class="node"><title>Node12</title>
<polygon fill="none" stroke="#bfbfbf" points="527,-0.5 527,-19.5 568,-19.5 568,-0.5 527,-0.5"/>
<text text-anchor="middle" x="547.5" y="-7.5" font-family="Helvetica,sans-Serif" font-size="10.00">string</text>
</g>
<!-- Node9&#45;&gt;Node12 -->
<g id="edge11" class="edge"><title>Node9&#45;&gt;Node12</title>
<path fill="none" stroke="midnightblue" d="M731.417,-224.831C635.683,-214.198 479.39,-196.028 453.5,-188 401.48,-171.869 391.747,-159.093 344.5,-132 304.284,-108.939 278.808,-116.638 256.5,-76 252.223,-68.2079 250.715,-62.7486 256.5,-56 289.819,-17.1325 449.122,-11.5378 516.884,-10.9436"/>
<polygon fill="midnightblue" stroke="midnightblue" points="516.96,-14.4434 526.94,-10.8869 516.92,-7.44348 516.96,-14.4434"/>
</g>
<!-- Node13 -->
<g id="node13" class="node"><title>Node13</title>
<polygon fill="none" stroke="#bfbfbf" points="792,-56.5 792,-75.5 875,-75.5 875,-56.5 792,-56.5"/>
<text text-anchor="middle" x="833.5" y="-63.5" font-family="Helvetica,sans-Serif" font-size="10.00">unordered_map</text>
</g>
<!-- Node9&#45;&gt;Node13 -->
<g id="edge12" class="edge"><title>Node9&#45;&gt;Node13</title>
<path fill="none" stroke="midnightblue" d="M807.952,-224.075C812.202,-197.945 824.683,-121.211 830.478,-85.577"/>
<polygon fill="midnightblue" stroke="midnightblue" points="833.956,-86.0003 832.106,-75.5681 827.046,-84.8765 833.956,-86.0003"/>
</g>
<!-- Node14 -->
<g id="node14" class="node"><title>Node14</title>
<polygon fill="none" stroke="#bfbfbf" points="858,-168.5 858,-187.5 983,-187.5 983,-168.5 858,-168.5"/>
<text text-anchor="middle" x="920.5" y="-175.5" font-family="Helvetica,sans-Serif" font-size="10.00">Framework/InitContext.h</text>
</g>
<!-- Node9&#45;&gt;Node14 -->
<g id="edge13" class="edge"><title>Node9&#45;&gt;Node14</title>
<path fill="none" stroke="midnightblue" d="M824.564,-224.444C843.075,-215.675 872.081,-201.935 893.355,-191.858"/>
<polygon fill="midnightblue" stroke="midnightblue" points="894.982,-194.96 902.521,-187.516 891.985,-188.634 894.982,-194.96"/>
</g>
<!-- Node15 -->
<g id="node15" class="node"><title>Node15</title>
<polygon fill="none" stroke="#bfbfbf" points="1001.5,-168.5 1001.5,-187.5 1161.5,-187.5 1161.5,-168.5 1001.5,-168.5"/>
<text text-anchor="middle" x="1081.5" y="-175.5" font-family="Helvetica,sans-Serif" font-size="10.00">Framework/ProcessingContext.h</text>
</g>
<!-- Node9&#45;&gt;Node15 -->
<g id="edge14" class="edge"><title>Node9&#45;&gt;Node15</title>
<path fill="none" stroke="midnightblue" d="M850.075,-224.444C898.349,-214.964 976.212,-199.675 1028.11,-189.483"/>
<polygon fill="midnightblue" stroke="midnightblue" points="1028.99,-192.878 1038.13,-187.516 1027.64,-186.009 1028.99,-192.878"/>
</g>
<!-- Node16 -->
<g id="node16" class="node"><title>Node16</title>
<g id="a_node16"><a xlink:href="Activity_8h.html" target="_top" xlink:title="QualityControl/Activity.h">
<polygon fill="none" stroke="black" points="1180,-168.5 1180,-187.5 1303,-187.5 1303,-168.5 1180,-168.5"/>
<text text-anchor="middle" x="1241.5" y="-175.5" font-family="Helvetica,sans-Serif" font-size="10.00">QualityControl/Activity.h</text>
</a>
</g>
</g>
<!-- Node9&#45;&gt;Node16 -->
<g id="edge15" class="edge"><title>Node9&#45;&gt;Node16</title>
<path fill="none" stroke="midnightblue" d="M875.95,-224.479C946.985,-215.748 1060.84,-201.715 1169.74,-188.091"/>
<polygon fill="midnightblue" stroke="midnightblue" points="1170.44,-191.532 1179.93,-186.817 1169.57,-184.586 1170.44,-191.532"/>
</g>
<!-- Node17 -->
<g id="node17" class="node"><title>Node17</title>
<g id="a_node17"><a xlink:href="ObjectsManager_8h.html" target="_top" xlink:title="QualityControl/ObjectsManager.h">
<polygon fill="none" stroke="black" points="536,-168.5 536,-187.5 697,-187.5 697,-168.5 536,-168.5"/>
<text text-anchor="middle" x="616.5" y="-175.5" font-family="Helvetica,sans-Serif" font-size="10.00">QualityControl/ObjectsManager.h</text>
</a>
</g>
</g>
<!-- Node9&#45;&gt;Node17 -->
<g id="edge16" class="edge"><title>Node9&#45;&gt;Node17</title>
<path fill="none" stroke="midnightblue" d="M776.394,-224.444C743.874,-215.201 691.921,-200.436 656.109,-190.257"/>
<polygon fill="midnightblue" stroke="midnightblue" points="657.041,-186.884 646.465,-187.516 655.127,-193.617 657.041,-186.884"/>
</g>
<!-- Node17&#45;&gt;Node11 -->
<g id="edge31" class="edge"><title>Node17&#45;&gt;Node11</title>
<path fill="none" stroke="midnightblue" d="M642.328,-168.444C669.749,-159.359 713.277,-144.939 743.932,-134.783"/>
<polygon fill="midnightblue" stroke="midnightblue" points="745.401,-137.984 753.793,-131.516 743.2,-131.339 745.401,-137.984"/>
</g>
<!-- Node17&#45;&gt;Node12 -->
<g id="edge30" class="edge"><title>Node17&#45;&gt;Node12</title>
<path fill="none" stroke="midnightblue" d="M550.07,-168.498C456.528,-154.898 293.959,-124.71 263.5,-76 258.787,-68.4633 257.727,-62.7594 263.5,-56 295.746,-18.2429 449.361,-11.9928 516.254,-11.0827"/>
<polygon fill="midnightblue" stroke="midnightblue" points="516.62,-14.5792 526.584,-10.9758 516.548,-7.57955 516.62,-14.5792"/>
</g>
<!-- Node18 -->
<g id="node18" class="node"><title>Node18</title>
<g id="a_node18"><a xlink:href="MonitorObject_8h.html" target="_top" xlink:title="QualityControl/MonitorObject.h">
<polygon fill="none" stroke="black" points="388,-112.5 388,-131.5 539,-131.5 539,-112.5 388,-112.5"/>
<text text-anchor="middle" x="463.5" y="-119.5" font-family="Helvetica,sans-Serif" font-size="10.00">QualityControl/MonitorObject.h</text>
</a>
</g>
</g>
<!-- Node17&#45;&gt;Node18 -->
<g id="edge17" class="edge"><title>Node17&#45;&gt;Node18</title>
<path fill="none" stroke="midnightblue" d="M592.257,-168.444C566.629,-159.399 526.015,-145.064 497.262,-134.916"/>
<polygon fill="midnightblue" stroke="midnightblue" points="498.225,-131.544 487.63,-131.516 495.895,-138.145 498.225,-131.544"/>
</g>
<!-- Node22 -->
<g id="node22" class="node"><title>Node22</title>
<g id="a_node22"><a xlink:href="Quality_8h.html" target="_top" xlink:title="QualityControl/Quality.h">
<polygon fill="none" stroke="black" points="576,-56.5 576,-75.5 697,-75.5 697,-56.5 576,-56.5"/>
<text text-anchor="middle" x="636.5" y="-63.5" font-family="Helvetica,sans-Serif" font-size="10.00">QualityControl/Quality.h</text>
</a>
</g>
</g>
<!-- Node17&#45;&gt;Node22 -->
<g id="edge26" class="edge"><title>Node17&#45;&gt;Node22</title>
<path fill="none" stroke="midnightblue" d="M607.335,-168.203C595.519,-155.74 577.5,-132.209 586.5,-112 592.068,-99.4981 603.016,-89.0124 613.251,-81.3167"/>
<polygon fill="midnightblue" stroke="midnightblue" points="615.351,-84.1193 621.548,-75.5256 611.344,-78.3794 615.351,-84.1193"/>
</g>
<!-- Node23 -->
<g id="node23" class="node"><title>Node23</title>
<g id="a_node23"><a xlink:href="TaskConfig_8h.html" target="_top" xlink:title="QualityControl/TaskConfig.h">
<polygon fill="none" stroke="black" points="595.5,-112.5 595.5,-131.5 735.5,-131.5 735.5,-112.5 595.5,-112.5"/>
<text text-anchor="middle" x="665.5" y="-119.5" font-family="Helvetica,sans-Serif" font-size="10.00">QualityControl/TaskConfig.h</text>
</a>
</g>
</g>
<!-- Node17&#45;&gt;Node23 -->
<g id="edge27" class="edge"><title>Node17&#45;&gt;Node23</title>
<path fill="none" stroke="midnightblue" d="M624.591,-168.083C631.655,-160.298 642.088,-148.801 650.649,-139.367"/>
<polygon fill="midnightblue" stroke="midnightblue" points="653.431,-141.509 657.559,-131.751 648.247,-136.805 653.431,-141.509"/>
</g>
<!-- Node18&#45;&gt;Node10 -->
<g id="edge19" class="edge"><title>Node18&#45;&gt;Node10</title>
<path fill="none" stroke="midnightblue" d="M434.395,-112.429C406.642,-104.181 363.45,-91.1552 317.854,-76.3676"/>
<polygon fill="midnightblue" stroke="midnightblue" points="318.685,-72.9572 308.093,-73.1864 316.516,-79.6127 318.685,-72.9572"/>
</g>
<!-- Node18&#45;&gt;Node12 -->
<g id="edge18" class="edge"><title>Node18&#45;&gt;Node12</title>
<path fill="none" stroke="midnightblue" d="M482.398,-112.373C497.018,-104.773 516.698,-92.3641 528.5,-76 538.279,-62.4414 543.056,-43.8923 545.371,-30.0791"/>
<polygon fill="midnightblue" stroke="midnightblue" points="548.889,-30.1886 546.793,-19.8033 541.955,-29.2294 548.889,-30.1886"/>
</g>
<!-- Node19 -->
<g id="node19" class="node"><title>Node19</title>
<polygon fill="none" stroke="#bfbfbf" points="671.5,-0.5 671.5,-19.5 727.5,-19.5 727.5,-0.5 671.5,-0.5"/>
<text text-anchor="middle" x="699.5" y="-7.5" font-family="Helvetica,sans-Serif" font-size="10.00">Rtypes.h</text>
</g>
<!-- Node18&#45;&gt;Node19 -->
<g id="edge20" class="edge"><title>Node18&#45;&gt;Node19</title>
<path fill="none" stroke="midnightblue" d="M534.492,-112.493C602.191,-103.652 695.456,-89.2764 706.5,-76 717.247,-63.0804 713.221,-43.3622 707.915,-29.0313"/>
<polygon fill="midnightblue" stroke="midnightblue" points="711.109,-27.5957 704.019,-19.7226 704.652,-30.2986 711.109,-27.5957"/>
</g>
<!-- Node20 -->
<g id="node20" class="node"><title>Node20</title>
<polygon fill="none" stroke="#bfbfbf" points="326,-56.5 326,-75.5 385,-75.5 385,-56.5 326,-56.5"/>
<text text-anchor="middle" x="355.5" y="-63.5" font-family="Helvetica,sans-Serif" font-size="10.00">TObject.h</text>
</g>
<!-- Node18&#45;&gt;Node20 -->
<g id="edge21" class="edge"><title>Node18&#45;&gt;Node20</title>
<path fill="none" stroke="midnightblue" d="M446.148,-112.324C428.828,-103.664 401.985,-90.2424 381.998,-80.249"/>
<polygon fill="midnightblue" stroke="midnightblue" points="383.319,-76.9962 372.809,-75.6545 380.188,-83.2572 383.319,-76.9962"/>
</g>
<!-- Node21 -->
<g id="node21" class="node"><title>Node21</title>
<polygon fill="none" stroke="#bfbfbf" points="403.5,-56.5 403.5,-75.5 519.5,-75.5 519.5,-56.5 403.5,-56.5"/>
<text text-anchor="middle" x="461.5" y="-63.5" font-family="Helvetica,sans-Serif" font-size="10.00">Common/Exceptions.h</text>
</g>
<!-- Node18&#45;&gt;Node21 -->
<g id="edge22" class="edge"><title>Node18&#45;&gt;Node21</title>
<path fill="none" stroke="midnightblue" d="M463.17,-112.083C462.908,-105.006 462.532,-94.8611 462.203,-85.9865"/>
<polygon fill="midnightblue" stroke="midnightblue" points="465.692,-85.6147 461.824,-75.7511 458.697,-85.8738 465.692,-85.6147"/>
</g>
<!-- Node18&#45;&gt;Node22 -->
<g id="edge23" class="edge"><title>Node18&#45;&gt;Node22</title>
<path fill="none" stroke="midnightblue" d="M490.912,-112.444C520.269,-103.28 567.019,-88.6876 599.596,-78.5192"/>
<polygon fill="midnightblue" stroke="midnightblue" points="600.713,-81.8371 609.216,-75.5164 598.627,-75.1551 600.713,-81.8371"/>
</g>
<!-- Node22&#45;&gt;Node12 -->
<g id="edge25" class="edge"><title>Node22&#45;&gt;Node12</title>
<path fill="none" stroke="midnightblue" d="M622.201,-56.324C608.317,-47.9002 587.008,-34.9709 570.696,-25.0741"/>
<polygon fill="midnightblue" stroke="midnightblue" points="572.129,-21.8495 561.764,-19.6545 568.498,-27.8341 572.129,-21.8495"/>
</g>
<!-- Node22&#45;&gt;Node19 -->
<g id="edge24" class="edge"><title>Node22&#45;&gt;Node19</title>
<path fill="none" stroke="midnightblue" d="M646.622,-56.324C656.026,-48.2631 670.244,-36.0765 681.569,-26.3695"/>
<polygon fill="midnightblue" stroke="midnightblue" points="683.879,-28.9993 689.194,-19.8339 679.323,-23.6844 683.879,-28.9993"/>
</g>
<!-- Node23&#45;&gt;Node12 -->
<g id="edge28" class="edge"><title>Node23&#45;&gt;Node12</title>
<path fill="none" stroke="midnightblue" d="M677.746,-112.492C694.539,-99.779 721.067,-75.2613 706.5,-56 691.026,-35.5387 619.572,-21.7038 577.906,-15.2231"/>
<polygon fill="midnightblue" stroke="midnightblue" points="578.417,-11.7606 568.007,-13.7343 577.376,-18.6827 578.417,-11.7606"/>
</g>
<!-- Node23&#45;&gt;Node13 -->
<g id="edge29" class="edge"><title>Node23&#45;&gt;Node13</title>
<path fill="none" stroke="midnightblue" d="M692.12,-112.444C720.506,-103.32 765.637,-88.8133 797.253,-78.6509"/>
<polygon fill="midnightblue" stroke="midnightblue" points="798.555,-81.9087 807.004,-75.5164 796.413,-75.2445 798.555,-81.9087"/>
</g>
</g>
</svg>
