<?xml version="1.0" encoding="UTF-8" standalone="no"?>
<!DOCTYPE svg PUBLIC "-//W3C//DTD SVG 1.1//EN"
 "http://www.w3.org/Graphics/SVG/1.1/DTD/svg11.dtd">
<!-- Generated by graphviz version 2.38.0 (20140413.2041)
 -->
<!-- Title: Modules/Daq/src/EverIncreasingGraph.cxx Pages: 1 -->
<svg width="925pt" height="319pt"
 viewBox="0.00 0.00 924.59 319.00" xmlns="http://www.w3.org/2000/svg" xmlns:xlink="http://www.w3.org/1999/xlink">
<g id="graph0" class="graph" transform="scale(1 1) rotate(0) translate(4 315)">
<title>Modules/Daq/src/EverIncreasingGraph.cxx</title>
<!-- Node1 -->
<g id="node1" class="node"><title>Node1</title>
<polygon fill="#bfbfbf" stroke="black" points="528.585,-280.5 528.585,-310.5 687.585,-310.5 687.585,-280.5 528.585,-280.5"/>
<text text-anchor="start" x="536.585" y="-298.5" font-family="Helvetica,sans-Serif" font-size="10.00">Modules/Daq/src/EverIncreasing</text>
<text text-anchor="middle" x="608.085" y="-287.5" font-family="Helvetica,sans-Serif" font-size="10.00">Graph.cxx</text>
</g>
<!-- Node2 -->
<g id="node2" class="node"><title>Node2</title>
<g id="a_node2"><a xlink:href="EverIncreasingGraph_8h.html" target="_top" xlink:title="Daq/EverIncreasingGraph.h">
<polygon fill="none" stroke="black" points="270.585,-224.5 270.585,-243.5 407.585,-243.5 407.585,-224.5 270.585,-224.5"/>
<text text-anchor="middle" x="339.085" y="-231.5" font-family="Helvetica,sans-Serif" font-size="10.00">Daq/EverIncreasingGraph.h</text>
</a>
</g>
</g>
<!-- Node1&#45;&gt;Node2 -->
<g id="edge1" class="edge"><title>Node1&#45;&gt;Node2</title>
<path fill="none" stroke="midnightblue" d="M544.677,-280.475C496.546,-269.829 431.371,-255.413 387.411,-245.689"/>
<polygon fill="midnightblue" stroke="midnightblue" points="388.063,-242.249 377.543,-243.506 386.551,-249.084 388.063,-242.249"/>
</g>
<!-- Node8 -->
<g id="node8" class="node"><title>Node8</title>
<g id="a_node8"><a xlink:href="MonitorObject_8h.html" target="_top" xlink:title="QualityControl/MonitorObject.h">
<polygon fill="none" stroke="black" points="159.585,-112.5 159.585,-131.5 310.585,-131.5 310.585,-112.5 159.585,-112.5"/>
<text text-anchor="middle" x="235.085" y="-119.5" font-family="Helvetica,sans-Serif" font-size="10.00">QualityControl/MonitorObject.h</text>
</a>
</g>
</g>
<!-- Node1&#45;&gt;Node8 -->
<g id="edge17" class="edge"><title>Node1&#45;&gt;Node8</title>
<path fill="none" stroke="midnightblue" d="M528.483,-289.914C402.149,-280.676 165.349,-254.68 120.085,-188 101.699,-160.914 139.572,-143.825 176.68,-134.006"/>
<polygon fill="midnightblue" stroke="midnightblue" points="177.711,-137.356 186.57,-131.545 176.021,-130.563 177.711,-137.356"/>
</g>
<!-- Node11 -->
<g id="node11" class="node"><title>Node11</title>
<g id="a_node11"><a xlink:href="Quality_8h.html" target="_top" xlink:title="QualityControl/Quality.h">
<polygon fill="none" stroke="black" points="354.585,-56.5 354.585,-75.5 475.585,-75.5 475.585,-56.5 354.585,-56.5"/>
<text text-anchor="middle" x="415.085" y="-63.5" font-family="Helvetica,sans-Serif" font-size="10.00">QualityControl/Quality.h</text>
</a>
</g>
</g>
<!-- Node1&#45;&gt;Node11 -->
<g id="edge18" class="edge"><title>Node1&#45;&gt;Node11</title>
<path fill="none" stroke="midnightblue" d="M528.505,-281.28C505.025,-273.832 481.093,-262.191 464.085,-244 442.39,-220.795 424.781,-126.474 418.042,-85.8076"/>
<polygon fill="midnightblue" stroke="midnightblue" points="421.485,-85.1775 416.435,-75.864 414.575,-86.2943 421.485,-85.1775"/>
</g>
<!-- Node12 -->
<g id="node12" class="node"><title>Node12</title>
<g id="a_node12"><a xlink:href="QcInfoLogger_8h.html" target="_top" xlink:title="QualityControl/QcInfoLogger.h">
<polygon fill="none" stroke="black" points="473.585,-224.5 473.585,-243.5 622.585,-243.5 622.585,-224.5 473.585,-224.5"/>
<text text-anchor="middle" x="548.085" y="-231.5" font-family="Helvetica,sans-Serif" font-size="10.00">QualityControl/QcInfoLogger.h</text>
</a>
</g>
</g>
<!-- Node1&#45;&gt;Node12 -->
<g id="edge19" class="edge"><title>Node1&#45;&gt;Node12</title>
<path fill="none" stroke="midnightblue" d="M593.866,-280.399C584.878,-271.486 573.247,-259.952 563.958,-250.741"/>
<polygon fill="midnightblue" stroke="midnightblue" points="566.381,-248.214 556.816,-243.658 561.452,-253.184 566.381,-248.214"/>
</g>
<!-- Node14 -->
<g id="node14" class="node"><title>Node14</title>
<polygon fill="none" stroke="#bfbfbf" points="640.585,-224.5 640.585,-243.5 697.585,-243.5 697.585,-224.5 640.585,-224.5"/>
<text text-anchor="middle" x="669.085" y="-231.5" font-family="Helvetica,sans-Serif" font-size="10.00">TGraph.h</text>
</g>
<!-- Node1&#45;&gt;Node14 -->
<g id="edge21" class="edge"><title>Node1&#45;&gt;Node14</title>
<path fill="none" stroke="midnightblue" d="M622.541,-280.399C631.68,-271.486 643.504,-259.952 652.948,-250.741"/>
<polygon fill="midnightblue" stroke="midnightblue" points="655.495,-253.146 660.209,-243.658 650.607,-248.135 655.495,-253.146"/>
</g>
<!-- Node15 -->
<g id="node15" class="node"><title>Node15</title>
<polygon fill="none" stroke="#bfbfbf" points="716.085,-224.5 716.085,-243.5 760.085,-243.5 760.085,-224.5 716.085,-224.5"/>
<text text-anchor="middle" x="738.085" y="-231.5" font-family="Helvetica,sans-Serif" font-size="10.00">TH1.h</text>
</g>
<!-- Node1&#45;&gt;Node15 -->
<g id="edge22" class="edge"><title>Node1&#45;&gt;Node15</title>
<path fill="none" stroke="midnightblue" d="M638.893,-280.399C660.413,-270.55 688.923,-257.501 709.853,-247.922"/>
<polygon fill="midnightblue" stroke="midnightblue" points="711.533,-251.002 719.169,-243.658 708.62,-244.637 711.533,-251.002"/>
</g>
<!-- Node16 -->
<g id="node16" class="node"><title>Node16</title>
<polygon fill="none" stroke="#bfbfbf" points="778.585,-224.5 778.585,-243.5 825.585,-243.5 825.585,-224.5 778.585,-224.5"/>
<text text-anchor="middle" x="802.085" y="-231.5" font-family="Helvetica,sans-Serif" font-size="10.00">TList.h</text>
</g>
<!-- Node1&#45;&gt;Node16 -->
<g id="edge23" class="edge"><title>Node1&#45;&gt;Node16</title>
<path fill="none" stroke="midnightblue" d="M654.061,-280.399C689.346,-269.577 737.226,-254.893 768.857,-245.191"/>
<polygon fill="midnightblue" stroke="midnightblue" points="769.986,-248.506 778.52,-242.228 767.933,-241.814 769.986,-248.506"/>
</g>
<!-- Node17 -->
<g id="node17" class="node"><title>Node17</title>
<polygon fill="none" stroke="#bfbfbf" points="843.585,-224.5 843.585,-243.5 916.585,-243.5 916.585,-224.5 843.585,-224.5"/>
<text text-anchor="middle" x="880.085" y="-231.5" font-family="Helvetica,sans-Serif" font-size="10.00">TPaveText.h</text>
</g>
<!-- Node1&#45;&gt;Node17 -->
<g id="edge24" class="edge"><title>Node1&#45;&gt;Node17</title>
<path fill="none" stroke="midnightblue" d="M672.201,-280.475C721.743,-269.637 789.143,-254.894 833.595,-245.17"/>
<polygon fill="midnightblue" stroke="midnightblue" points="834.524,-248.549 843.546,-242.993 833.029,-241.711 834.524,-248.549"/>
</g>
<!-- Node3 -->
<g id="node3" class="node"><title>Node3</title>
<polygon fill="none" stroke="#bfbfbf" points="129.585,-168.5 129.585,-187.5 242.585,-187.5 242.585,-168.5 129.585,-168.5"/>
<text text-anchor="middle" x="186.085" y="-175.5" font-family="Helvetica,sans-Serif" font-size="10.00">Common/DataBlock.h</text>
</g>
<!-- Node2&#45;&gt;Node3 -->
<g id="edge2" class="edge"><title>Node2&#45;&gt;Node3</title>
<path fill="none" stroke="midnightblue" d="M314.842,-224.444C289.215,-215.399 248.6,-201.064 219.847,-190.916"/>
<polygon fill="midnightblue" stroke="midnightblue" points="220.81,-187.544 210.215,-187.516 218.48,-194.145 220.81,-187.544"/>
</g>
<!-- Node4 -->
<g id="node4" class="node"><title>Node4</title>
<g id="a_node4"><a xlink:href="CheckInterface_8h.html" target="_top" xlink:title="QualityControl/CheckInterface.h">
<polygon fill="none" stroke="black" points="260.585,-168.5 260.585,-187.5 417.585,-187.5 417.585,-168.5 260.585,-168.5"/>
<text text-anchor="middle" x="339.085" y="-175.5" font-family="Helvetica,sans-Serif" font-size="10.00">QualityControl/CheckInterface.h</text>
</a>
</g>
</g>
<!-- Node2&#45;&gt;Node4 -->
<g id="edge3" class="edge"><title>Node2&#45;&gt;Node4</title>
<path fill="none" stroke="midnightblue" d="M339.085,-224.083C339.085,-217.006 339.085,-206.861 339.085,-197.986"/>
<polygon fill="midnightblue" stroke="midnightblue" points="342.585,-197.751 339.085,-187.751 335.585,-197.751 342.585,-197.751"/>
</g>
<!-- Node5 -->
<g id="node5" class="node"><title>Node5</title>
<polygon fill="none" stroke="#bfbfbf" points="214.585,-0.5 214.585,-19.5 255.585,-19.5 255.585,-0.5 214.585,-0.5"/>
<text text-anchor="middle" x="235.085" y="-7.5" font-family="Helvetica,sans-Serif" font-size="10.00">string</text>
</g>
<!-- Node4&#45;&gt;Node5 -->
<g id="edge4" class="edge"><title>Node4&#45;&gt;Node5</title>
<path fill="none" stroke="midnightblue" d="M282.007,-168.455C194.956,-154.081 35.7454,-122.053 4.08523,-76 -0.950453,-68.6751 -1.56739,-62.86 4.08523,-56 29.1048,-25.6362 147.215,-15.4898 204.192,-12.3263"/>
<polygon fill="midnightblue" stroke="midnightblue" points="204.599,-15.81 214.405,-11.7981 204.238,-8.81929 204.599,-15.81"/>
</g>
<!-- Node6 -->
<g id="node6" class="node"><title>Node6</title>
<polygon fill="none" stroke="#bfbfbf" points="301.585,-56.5 301.585,-75.5 336.585,-75.5 336.585,-56.5 301.585,-56.5"/>
<text text-anchor="middle" x="319.085" y="-63.5" font-family="Helvetica,sans-Serif" font-size="10.00">map</text>
</g>
<!-- Node4&#45;&gt;Node6 -->
<g id="edge5" class="edge"><title>Node4&#45;&gt;Node6</title>
<path fill="none" stroke="midnightblue" d="M337.516,-168.368C334.288,-150.617 326.843,-109.666 322.467,-85.5974"/>
<polygon fill="midnightblue" stroke="midnightblue" points="325.88,-84.804 320.647,-75.5914 318.993,-86.0562 325.88,-84.804"/>
</g>
<!-- Node7 -->
<g id="node7" class="node"><title>Node7</title>
<polygon fill="none" stroke="#bfbfbf" points="387.085,-0.5 387.085,-19.5 443.085,-19.5 443.085,-0.5 387.085,-0.5"/>
<text text-anchor="middle" x="415.085" y="-7.5" font-family="Helvetica,sans-Serif" font-size="10.00">Rtypes.h</text>
</g>
<!-- Node4&#45;&gt;Node7 -->
<g id="edge6" class="edge"><title>Node4&#45;&gt;Node7</title>
<path fill="none" stroke="midnightblue" d="M363.363,-168.41C397.564,-154.83 458.598,-124.815 484.085,-76 495.466,-54.2027 470.058,-35.7073 446.927,-24.0848"/>
<polygon fill="midnightblue" stroke="midnightblue" points="448.135,-20.7849 437.598,-19.6815 445.147,-27.1152 448.135,-20.7849"/>
</g>
<!-- Node4&#45;&gt;Node8 -->
<g id="edge7" class="edge"><title>Node4&#45;&gt;Node8</title>
<path fill="none" stroke="midnightblue" d="M322.376,-168.324C305.773,-159.703 280.083,-146.364 260.865,-136.386"/>
<polygon fill="midnightblue" stroke="midnightblue" points="262.241,-133.156 251.753,-131.655 259.015,-139.369 262.241,-133.156"/>
</g>
<!-- Node4&#45;&gt;Node11 -->
<g id="edge16" class="edge"><title>Node4&#45;&gt;Node11</title>
<path fill="none" stroke="midnightblue" d="M345.049,-168.368C357.591,-150.215 386.895,-107.802 403.347,-83.9902"/>
<polygon fill="midnightblue" stroke="midnightblue" points="406.345,-85.8083 409.149,-75.5914 400.585,-81.8292 406.345,-85.8083"/>
</g>
<!-- Node8&#45;&gt;Node5 -->
<g id="edge8" class="edge"><title>Node8&#45;&gt;Node5</title>
<path fill="none" stroke="midnightblue" d="M235.085,-112.368C235.085,-94.617 235.085,-53.6664 235.085,-29.5974"/>
<polygon fill="midnightblue" stroke="midnightblue" points="238.585,-29.5914 235.085,-19.5914 231.585,-29.5915 238.585,-29.5914"/>
</g>
<!-- Node8&#45;&gt;Node6 -->
<g id="edge9" class="edge"><title>Node8&#45;&gt;Node6</title>
<path fill="none" stroke="midnightblue" d="M248.581,-112.324C261.685,-103.9 281.797,-90.9709 297.192,-81.0741"/>
<polygon fill="midnightblue" stroke="midnightblue" points="299.104,-84.0063 305.623,-75.6545 295.318,-78.118 299.104,-84.0063"/>
</g>
<!-- Node8&#45;&gt;Node7 -->
<g id="edge10" class="edge"><title>Node8&#45;&gt;Node7</title>
<path fill="none" stroke="midnightblue" d="M240.669,-112.172C249.825,-98.3608 269.305,-71.6119 292.085,-56 317.916,-38.2974 351.552,-26.6183 377.119,-19.6051"/>
<polygon fill="midnightblue" stroke="midnightblue" points="378.053,-22.9787 386.837,-17.0557 376.276,-16.2078 378.053,-22.9787"/>
</g>
<!-- Node9 -->
<g id="node9" class="node"><title>Node9</title>
<polygon fill="none" stroke="#bfbfbf" points="147.585,-56.5 147.585,-75.5 206.585,-75.5 206.585,-56.5 147.585,-56.5"/>
<text text-anchor="middle" x="177.085" y="-63.5" font-family="Helvetica,sans-Serif" font-size="10.00">TObject.h</text>
</g>
<!-- Node8&#45;&gt;Node9 -->
<g id="edge11" class="edge"><title>Node8&#45;&gt;Node9</title>
<path fill="none" stroke="midnightblue" d="M225.767,-112.324C217.193,-104.341 204.273,-92.3128 193.898,-82.6529"/>
<polygon fill="midnightblue" stroke="midnightblue" points="196.277,-80.0865 186.573,-75.8339 191.507,-85.2098 196.277,-80.0865"/>
</g>
<!-- Node10 -->
<g id="node10" class="node"><title>Node10</title>
<polygon fill="none" stroke="#bfbfbf" points="13.0852,-56.5 13.0852,-75.5 129.085,-75.5 129.085,-56.5 13.0852,-56.5"/>
<text text-anchor="middle" x="71.0852" y="-63.5" font-family="Helvetica,sans-Serif" font-size="10.00">Common/Exceptions.h</text>
</g>
<!-- Node8&#45;&gt;Node10 -->
<g id="edge12" class="edge"><title>Node8&#45;&gt;Node10</title>
<path fill="none" stroke="midnightblue" d="M209.099,-112.444C181.389,-103.32 137.333,-88.8133 106.47,-78.6509"/>
<polygon fill="midnightblue" stroke="midnightblue" points="107.543,-75.3196 96.9499,-75.5164 105.354,-81.9684 107.543,-75.3196"/>
</g>
<!-- Node8&#45;&gt;Node11 -->
<g id="edge13" class="edge"><title>Node8&#45;&gt;Node11</title>
<path fill="none" stroke="midnightblue" d="M263.607,-112.444C294.152,-103.28 342.793,-88.6876 376.688,-78.5192"/>
<polygon fill="midnightblue" stroke="midnightblue" points="378.125,-81.7424 386.697,-75.5164 376.113,-75.0376 378.125,-81.7424"/>
</g>
<!-- Node11&#45;&gt;Node5 -->
<g id="edge15" class="edge"><title>Node11&#45;&gt;Node5</title>
<path fill="none" stroke="midnightblue" d="M386.564,-56.4435C353.503,-46.5255 299.243,-30.2473 265.427,-20.1025"/>
<polygon fill="midnightblue" stroke="midnightblue" points="266.219,-16.686 255.635,-17.1649 264.207,-23.3908 266.219,-16.686"/>
</g>
<!-- Node11&#45;&gt;Node7 -->
<g id="edge14" class="edge"><title>Node11&#45;&gt;Node7</title>
<path fill="none" stroke="midnightblue" d="M415.085,-56.083C415.085,-49.0059 415.085,-38.8611 415.085,-29.9865"/>
<polygon fill="midnightblue" stroke="midnightblue" points="418.585,-29.751 415.085,-19.7511 411.585,-29.7511 418.585,-29.751"/>
</g>
<!-- Node13 -->
<g id="node13" class="node"><title>Node13</title>
<polygon fill="none" stroke="#bfbfbf" points="483.085,-168.5 483.085,-187.5 613.085,-187.5 613.085,-168.5 483.085,-168.5"/>
<text text-anchor="middle" x="548.085" y="-175.5" font-family="Helvetica,sans-Serif" font-size="10.00">InfoLogger/InfoLogger.hxx</text>
</g>
<!-- Node12&#45;&gt;Node13 -->
<g id="edge20" class="edge"><title>Node12&#45;&gt;Node13</title>
<path fill="none" stroke="midnightblue" d="M548.085,-224.083C548.085,-217.006 548.085,-206.861 548.085,-197.986"/>
<polygon fill="midnightblue" stroke="midnightblue" points="551.585,-197.751 548.085,-187.751 544.585,-197.751 551.585,-197.751"/>
</g>
</g>
</svg>
