<?xml version="1.0" encoding="UTF-8" standalone="no"?>
<!DOCTYPE svg PUBLIC "-//W3C//DTD SVG 1.1//EN"
 "http://www.w3.org/Graphics/SVG/1.1/DTD/svg11.dtd">
<!-- Generated by graphviz version 2.38.0 (20140413.2041)
 -->
<!-- Title: Modules/Daq/include/Daq/EverIncreasingGraph.h Pages: 1 -->
<svg width="588pt" height="263pt"
 viewBox="0.00 0.00 587.64 263.00" xmlns="http://www.w3.org/2000/svg" xmlns:xlink="http://www.w3.org/1999/xlink">
<g id="graph0" class="graph" transform="scale(1 1) rotate(0) translate(4 259)">
<title>Modules/Daq/include/Daq/EverIncreasingGraph.h</title>
<!-- Node1 -->
<g id="node1" class="node"><title>Node1</title>
<polygon fill="#bfbfbf" stroke="black" points="62.5,-224.5 62.5,-254.5 202.5,-254.5 202.5,-224.5 62.5,-224.5"/>
<text text-anchor="start" x="70.5" y="-242.5" font-family="Helvetica,sans-Serif" font-size="10.00">Modules/Daq/include</text>
<text text-anchor="middle" x="132.5" y="-231.5" font-family="Helvetica,sans-Serif" font-size="10.00">/Daq/EverIncreasingGraph.h</text>
</g>
<!-- Node2 -->
<g id="node2" class="node"><title>Node2</title>
<polygon fill="none" stroke="#bfbfbf" points="0,-168.5 0,-187.5 113,-187.5 113,-168.5 0,-168.5"/>
<text text-anchor="middle" x="56.5" y="-175.5" font-family="Helvetica,sans-Serif" font-size="10.00">Common/DataBlock.h</text>
</g>
<!-- Node1&#45;&gt;Node2 -->
<g id="edge1" class="edge"><title>Node1&#45;&gt;Node2</title>
<path fill="none" stroke="midnightblue" d="M114.489,-224.399C102.762,-215.218 87.4849,-203.258 75.5551,-193.918"/>
<polygon fill="midnightblue" stroke="midnightblue" points="77.5902,-191.066 67.5587,-187.658 73.2751,-196.578 77.5902,-191.066"/>
</g>
<!-- Node3 -->
<g id="node3" class="node"><title>Node3</title>
<g id="a_node3"><a xlink:href="CheckInterface_8h.html" target="_top" xlink:title="QualityControl/CheckInterface.h">
<polygon fill="none" stroke="black" points="131,-168.5 131,-187.5 288,-187.5 288,-168.5 131,-168.5"/>
<text text-anchor="middle" x="209.5" y="-175.5" font-family="Helvetica,sans-Serif" font-size="10.00">QualityControl/CheckInterface.h</text>
</a>
</g>
</g>
<!-- Node1&#45;&gt;Node3 -->
<g id="edge2" class="edge"><title>Node1&#45;&gt;Node3</title>
<path fill="none" stroke="midnightblue" d="M150.748,-224.399C162.629,-215.218 178.107,-203.258 190.194,-193.918"/>
<polygon fill="midnightblue" stroke="midnightblue" points="192.523,-196.542 198.296,-187.658 188.243,-191.003 192.523,-196.542"/>
</g>
<!-- Node4 -->
<g id="node4" class="node"><title>Node4</title>
<polygon fill="none" stroke="#bfbfbf" points="197,-0.5 197,-19.5 238,-19.5 238,-0.5 197,-0.5"/>
<text text-anchor="middle" x="217.5" y="-7.5" font-family="Helvetica,sans-Serif" font-size="10.00">string</text>
</g>
<!-- Node3&#45;&gt;Node4 -->
<g id="edge3" class="edge"><title>Node3&#45;&gt;Node4</title>
<path fill="none" stroke="midnightblue" d="M189.403,-168.424C148.398,-149.694 61.6258,-103.032 94.5,-56 115.151,-26.4544 157.394,-16.2449 186.568,-12.7536"/>
<polygon fill="midnightblue" stroke="midnightblue" points="187.056,-16.2223 196.66,-11.7479 186.362,-9.2568 187.056,-16.2223"/>
</g>
<!-- Node5 -->
<g id="node5" class="node"><title>Node5</title>
<polygon fill="none" stroke="#bfbfbf" points="104,-56.5 104,-75.5 139,-75.5 139,-56.5 104,-56.5"/>
<text text-anchor="middle" x="121.5" y="-63.5" font-family="Helvetica,sans-Serif" font-size="10.00">map</text>
</g>
<!-- Node3&#45;&gt;Node5 -->
<g id="edge4" class="edge"><title>Node3&#45;&gt;Node5</title>
<path fill="none" stroke="midnightblue" d="M202.595,-168.368C188.008,-150.135 153.841,-107.426 134.84,-83.6752"/>
<polygon fill="midnightblue" stroke="midnightblue" points="137.353,-81.2137 128.373,-75.5914 131.887,-85.5866 137.353,-81.2137"/>
</g>
<!-- Node6 -->
<g id="node6" class="node"><title>Node6</title>
<polygon fill="none" stroke="#bfbfbf" points="316.5,-0.5 316.5,-19.5 372.5,-19.5 372.5,-0.5 316.5,-0.5"/>
<text text-anchor="middle" x="344.5" y="-7.5" font-family="Helvetica,sans-Serif" font-size="10.00">Rtypes.h</text>
</g>
<!-- Node3&#45;&gt;Node6 -->
<g id="edge5" class="edge"><title>Node3&#45;&gt;Node6</title>
<path fill="none" stroke="midnightblue" d="M276.259,-168.465C371.884,-154.688 540.249,-124.126 575.5,-76 580.753,-68.829 581.153,-62.86 575.5,-56 551.541,-26.9229 442.214,-16.3861 382.954,-12.7671"/>
<polygon fill="midnightblue" stroke="midnightblue" points="383.035,-9.26603 372.851,-12.1875 382.634,-16.2545 383.035,-9.26603"/>
</g>
<!-- Node7 -->
<g id="node7" class="node"><title>Node7</title>
<g id="a_node7"><a xlink:href="MonitorObject_8h.html" target="_top" xlink:title="QualityControl/MonitorObject.h">
<polygon fill="none" stroke="black" points="238,-112.5 238,-131.5 389,-131.5 389,-112.5 238,-112.5"/>
<text text-anchor="middle" x="313.5" y="-119.5" font-family="Helvetica,sans-Serif" font-size="10.00">QualityControl/MonitorObject.h</text>
</a>
</g>
</g>
<!-- Node3&#45;&gt;Node7 -->
<g id="edge6" class="edge"><title>Node3&#45;&gt;Node7</title>
<path fill="none" stroke="midnightblue" d="M226.209,-168.324C242.812,-159.703 268.502,-146.364 287.72,-136.386"/>
<polygon fill="midnightblue" stroke="midnightblue" points="289.57,-139.369 296.832,-131.655 286.344,-133.156 289.57,-139.369"/>
</g>
<!-- Node10 -->
<g id="node10" class="node"><title>Node10</title>
<g id="a_node10"><a xlink:href="Quality_8h.html" target="_top" xlink:title="QualityControl/Quality.h">
<polygon fill="none" stroke="black" points="157,-56.5 157,-75.5 278,-75.5 278,-56.5 157,-56.5"/>
<text text-anchor="middle" x="217.5" y="-63.5" font-family="Helvetica,sans-Serif" font-size="10.00">QualityControl/Quality.h</text>
</a>
</g>
</g>
<!-- Node3&#45;&gt;Node10 -->
<g id="edge15" class="edge"><title>Node3&#45;&gt;Node10</title>
<path fill="none" stroke="midnightblue" d="M210.128,-168.368C211.419,-150.617 214.397,-109.666 216.147,-85.5974"/>
<polygon fill="midnightblue" stroke="midnightblue" points="219.641,-85.819 216.875,-75.5914 212.659,-85.3112 219.641,-85.819"/>
</g>
<!-- Node7&#45;&gt;Node4 -->
<g id="edge7" class="edge"><title>Node7&#45;&gt;Node4</title>
<path fill="none" stroke="midnightblue" d="M311.599,-112.134C308.363,-98.7422 300.713,-73.1054 286.5,-56 275.509,-42.7725 259.62,-32.0427 245.858,-24.3827"/>
<polygon fill="midnightblue" stroke="midnightblue" points="247.235,-21.1515 236.757,-19.577 243.966,-27.3415 247.235,-21.1515"/>
</g>
<!-- Node7&#45;&gt;Node5 -->
<g id="edge8" class="edge"><title>Node7&#45;&gt;Node5</title>
<path fill="none" stroke="midnightblue" d="M279.286,-112.456C247.625,-104.389 199.058,-91.6073 148.802,-76.2623"/>
<polygon fill="midnightblue" stroke="midnightblue" points="149.656,-72.863 139.068,-73.2641 147.595,-79.5528 149.656,-72.863"/>
</g>
<!-- Node7&#45;&gt;Node6 -->
<g id="edge9" class="edge"><title>Node7&#45;&gt;Node6</title>
<path fill="none" stroke="midnightblue" d="M315.933,-112.368C320.958,-94.5366 332.58,-53.2953 339.351,-29.2717"/>
<polygon fill="midnightblue" stroke="midnightblue" points="342.735,-30.1659 342.079,-19.5914 335.997,-28.2671 342.735,-30.1659"/>
</g>
<!-- Node8 -->
<g id="node8" class="node"><title>Node8</title>
<polygon fill="none" stroke="#bfbfbf" points="373,-56.5 373,-75.5 432,-75.5 432,-56.5 373,-56.5"/>
<text text-anchor="middle" x="402.5" y="-63.5" font-family="Helvetica,sans-Serif" font-size="10.00">TObject.h</text>
</g>
<!-- Node7&#45;&gt;Node8 -->
<g id="edge10" class="edge"><title>Node7&#45;&gt;Node8</title>
<path fill="none" stroke="midnightblue" d="M327.799,-112.324C341.683,-103.9 362.992,-90.9709 379.304,-81.0741"/>
<polygon fill="midnightblue" stroke="midnightblue" points="381.502,-83.8341 388.236,-75.6545 377.871,-77.8495 381.502,-83.8341"/>
</g>
<!-- Node9 -->
<g id="node9" class="node"><title>Node9</title>
<polygon fill="none" stroke="#bfbfbf" points="450.5,-56.5 450.5,-75.5 566.5,-75.5 566.5,-56.5 450.5,-56.5"/>
<text text-anchor="middle" x="508.5" y="-63.5" font-family="Helvetica,sans-Serif" font-size="10.00">Common/Exceptions.h</text>
</g>
<!-- Node7&#45;&gt;Node9 -->
<g id="edge11" class="edge"><title>Node7&#45;&gt;Node9</title>
<path fill="none" stroke="midnightblue" d="M344.398,-112.444C377.774,-103.201 431.094,-88.4356 467.849,-78.2572"/>
<polygon fill="midnightblue" stroke="midnightblue" points="469.043,-81.5583 477.746,-75.5164 467.175,-74.8122 469.043,-81.5583"/>
</g>
<!-- Node7&#45;&gt;Node10 -->
<g id="edge12" class="edge"><title>Node7&#45;&gt;Node10</title>
<path fill="none" stroke="midnightblue" d="M298.076,-112.324C282.96,-103.822 259.685,-90.7288 242.029,-80.7975"/>
<polygon fill="midnightblue" stroke="midnightblue" points="243.317,-77.5066 232.886,-75.6545 239.886,-83.6077 243.317,-77.5066"/>
</g>
<!-- Node10&#45;&gt;Node4 -->
<g id="edge14" class="edge"><title>Node10&#45;&gt;Node4</title>
<path fill="none" stroke="midnightblue" d="M217.5,-56.083C217.5,-49.0059 217.5,-38.8611 217.5,-29.9865"/>
<polygon fill="midnightblue" stroke="midnightblue" points="221,-29.751 217.5,-19.7511 214,-29.7511 221,-29.751"/>
</g>
<!-- Node10&#45;&gt;Node6 -->
<g id="edge13" class="edge"><title>Node10&#45;&gt;Node6</title>
<path fill="none" stroke="midnightblue" d="M237.624,-56.4435C258.524,-47.5566 291.435,-33.5632 315.216,-23.4514"/>
<polygon fill="midnightblue" stroke="midnightblue" points="316.638,-26.6504 324.471,-19.5164 313.898,-20.2085 316.638,-26.6504"/>
</g>
</g>
</svg>
