<?xml version="1.0" encoding="UTF-8" standalone="no"?>
<!DOCTYPE svg PUBLIC "-//W3C//DTD SVG 1.1//EN"
 "http://www.w3.org/Graphics/SVG/1.1/DTD/svg11.dtd">
<!-- Generated by graphviz version 2.38.0 (20140413.2041)
 -->
<!-- Title: Modules/Example/src/FakeCheck.cxx Pages: 1 -->
<svg width="495pt" height="319pt"
 viewBox="0.00 0.00 495.05 319.00" xmlns="http://www.w3.org/2000/svg" xmlns:xlink="http://www.w3.org/1999/xlink">
<g id="graph0" class="graph" transform="scale(1 1) rotate(0) translate(4 315)">
<title>Modules/Example/src/FakeCheck.cxx</title>
<!-- Node1 -->
<g id="node1" class="node"><title>Node1</title>
<polygon fill="#bfbfbf" stroke="black" points="283.585,-280.5 283.585,-310.5 394.585,-310.5 394.585,-280.5 283.585,-280.5"/>
<text text-anchor="start" x="291.585" y="-298.5" font-family="Helvetica,sans-Serif" font-size="10.00">Modules/Example/src</text>
<text text-anchor="middle" x="339.085" y="-287.5" font-family="Helvetica,sans-Serif" font-size="10.00">/FakeCheck.cxx</text>
</g>
<!-- Node2 -->
<g id="node2" class="node"><title>Node2</title>
<g id="a_node2"><a xlink:href="FakeCheck_8h.html" target="_top" xlink:title="Example/FakeCheck.h">
<polygon fill="none" stroke="black" points="281.085,-224.5 281.085,-243.5 397.085,-243.5 397.085,-224.5 281.085,-224.5"/>
<text text-anchor="middle" x="339.085" y="-231.5" font-family="Helvetica,sans-Serif" font-size="10.00">Example/FakeCheck.h</text>
</a>
</g>
</g>
<!-- Node1&#45;&gt;Node2 -->
<g id="edge1" class="edge"><title>Node1&#45;&gt;Node2</title>
<path fill="none" stroke="midnightblue" d="M339.085,-280.399C339.085,-272.466 339.085,-262.458 339.085,-253.858"/>
<polygon fill="midnightblue" stroke="midnightblue" points="342.585,-253.658 339.085,-243.658 335.585,-253.658 342.585,-253.658"/>
</g>
<!-- Node7 -->
<g id="node7" class="node"><title>Node7</title>
<g id="a_node7"><a xlink:href="MonitorObject_8h.html" target="_top" xlink:title="QualityControl/MonitorObject.h">
<polygon fill="none" stroke="black" points="159.585,-112.5 159.585,-131.5 310.585,-131.5 310.585,-112.5 159.585,-112.5"/>
<text text-anchor="middle" x="235.085" y="-119.5" font-family="Helvetica,sans-Serif" font-size="10.00">QualityControl/MonitorObject.h</text>
</a>
</g>
</g>
<!-- Node1&#45;&gt;Node7 -->
<g id="edge16" class="edge"><title>Node1&#45;&gt;Node7</title>
<path fill="none" stroke="midnightblue" d="M313.957,-280.451C299.997,-271.559 283.247,-258.934 272.085,-244 248.82,-212.872 240.04,-166.984 236.836,-141.6"/>
<polygon fill="midnightblue" stroke="midnightblue" points="240.298,-141.063 235.724,-131.506 233.34,-141.829 240.298,-141.063"/>
</g>
<!-- Node10 -->
<g id="node10" class="node"><title>Node10</title>
<g id="a_node10"><a xlink:href="Quality_8h.html" target="_top" xlink:title="QualityControl/Quality.h">
<polygon fill="none" stroke="black" points="354.585,-56.5 354.585,-75.5 475.585,-75.5 475.585,-56.5 354.585,-56.5"/>
<text text-anchor="middle" x="415.085" y="-63.5" font-family="Helvetica,sans-Serif" font-size="10.00">QualityControl/Quality.h</text>
</a>
</g>
</g>
<!-- Node1&#45;&gt;Node10 -->
<g id="edge17" class="edge"><title>Node1&#45;&gt;Node10</title>
<path fill="none" stroke="midnightblue" d="M364.631,-280.308C378.553,-271.449 395.128,-258.904 406.085,-244 421.74,-222.707 421.575,-214.041 426.085,-188 432.332,-151.936 425.057,-109.17 419.72,-85.3567"/>
<polygon fill="midnightblue" stroke="midnightblue" points="423.112,-84.489 417.392,-75.5706 416.302,-86.1091 423.112,-84.489"/>
</g>
<!-- Node3 -->
<g id="node3" class="node"><title>Node3</title>
<g id="a_node3"><a xlink:href="CheckInterface_8h.html" target="_top" xlink:title="QualityControl/CheckInterface.h">
<polygon fill="none" stroke="black" points="260.585,-168.5 260.585,-187.5 417.585,-187.5 417.585,-168.5 260.585,-168.5"/>
<text text-anchor="middle" x="339.085" y="-175.5" font-family="Helvetica,sans-Serif" font-size="10.00">QualityControl/CheckInterface.h</text>
</a>
</g>
</g>
<!-- Node2&#45;&gt;Node3 -->
<g id="edge2" class="edge"><title>Node2&#45;&gt;Node3</title>
<path fill="none" stroke="midnightblue" d="M339.085,-224.083C339.085,-217.006 339.085,-206.861 339.085,-197.986"/>
<polygon fill="midnightblue" stroke="midnightblue" points="342.585,-197.751 339.085,-187.751 335.585,-197.751 342.585,-197.751"/>
</g>
<!-- Node4 -->
<g id="node4" class="node"><title>Node4</title>
<polygon fill="none" stroke="#bfbfbf" points="214.585,-0.5 214.585,-19.5 255.585,-19.5 255.585,-0.5 214.585,-0.5"/>
<text text-anchor="middle" x="235.085" y="-7.5" font-family="Helvetica,sans-Serif" font-size="10.00">string</text>
</g>
<!-- Node3&#45;&gt;Node4 -->
<g id="edge3" class="edge"><title>Node3&#45;&gt;Node4</title>
<path fill="none" stroke="midnightblue" d="M282.007,-168.455C194.956,-154.081 35.7454,-122.053 4.08523,-76 -0.950453,-68.6751 -1.56739,-62.86 4.08523,-56 29.1048,-25.6362 147.215,-15.4898 204.192,-12.3263"/>
<polygon fill="midnightblue" stroke="midnightblue" points="204.599,-15.81 214.405,-11.7981 204.238,-8.81929 204.599,-15.81"/>
</g>
<!-- Node5 -->
<g id="node5" class="node"><title>Node5</title>
<polygon fill="none" stroke="#bfbfbf" points="301.585,-56.5 301.585,-75.5 336.585,-75.5 336.585,-56.5 301.585,-56.5"/>
<text text-anchor="middle" x="319.085" y="-63.5" font-family="Helvetica,sans-Serif" font-size="10.00">map</text>
</g>
<!-- Node3&#45;&gt;Node5 -->
<g id="edge4" class="edge"><title>Node3&#45;&gt;Node5</title>
<path fill="none" stroke="midnightblue" d="M337.516,-168.368C334.288,-150.617 326.843,-109.666 322.467,-85.5974"/>
<polygon fill="midnightblue" stroke="midnightblue" points="325.88,-84.804 320.647,-75.5914 318.993,-86.0562 325.88,-84.804"/>
</g>
<!-- Node6 -->
<g id="node6" class="node"><title>Node6</title>
<polygon fill="none" stroke="#bfbfbf" points="387.085,-0.5 387.085,-19.5 443.085,-19.5 443.085,-0.5 387.085,-0.5"/>
<text text-anchor="middle" x="415.085" y="-7.5" font-family="Helvetica,sans-Serif" font-size="10.00">Rtypes.h</text>
</g>
<!-- Node3&#45;&gt;Node6 -->
<g id="edge5" class="edge"><title>Node3&#45;&gt;Node6</title>
<path fill="none" stroke="midnightblue" d="M363.363,-168.41C397.564,-154.83 458.598,-124.815 484.085,-76 495.466,-54.2027 470.058,-35.7073 446.927,-24.0848"/>
<polygon fill="midnightblue" stroke="midnightblue" points="448.135,-20.7849 437.598,-19.6815 445.147,-27.1152 448.135,-20.7849"/>
</g>
<!-- Node3&#45;&gt;Node7 -->
<g id="edge6" class="edge"><title>Node3&#45;&gt;Node7</title>
<path fill="none" stroke="midnightblue" d="M322.376,-168.324C305.773,-159.703 280.083,-146.364 260.865,-136.386"/>
<polygon fill="midnightblue" stroke="midnightblue" points="262.241,-133.156 251.753,-131.655 259.015,-139.369 262.241,-133.156"/>
</g>
<!-- Node3&#45;&gt;Node10 -->
<g id="edge15" class="edge"><title>Node3&#45;&gt;Node10</title>
<path fill="none" stroke="midnightblue" d="M345.049,-168.368C357.591,-150.215 386.895,-107.802 403.347,-83.9902"/>
<polygon fill="midnightblue" stroke="midnightblue" points="406.345,-85.8083 409.149,-75.5914 400.585,-81.8292 406.345,-85.8083"/>
</g>
<!-- Node7&#45;&gt;Node4 -->
<g id="edge7" class="edge"><title>Node7&#45;&gt;Node4</title>
<path fill="none" stroke="midnightblue" d="M235.085,-112.368C235.085,-94.617 235.085,-53.6664 235.085,-29.5974"/>
<polygon fill="midnightblue" stroke="midnightblue" points="238.585,-29.5914 235.085,-19.5914 231.585,-29.5915 238.585,-29.5914"/>
</g>
<!-- Node7&#45;&gt;Node5 -->
<g id="edge8" class="edge"><title>Node7&#45;&gt;Node5</title>
<path fill="none" stroke="midnightblue" d="M248.581,-112.324C261.685,-103.9 281.797,-90.9709 297.192,-81.0741"/>
<polygon fill="midnightblue" stroke="midnightblue" points="299.104,-84.0063 305.623,-75.6545 295.318,-78.118 299.104,-84.0063"/>
</g>
<!-- Node7&#45;&gt;Node6 -->
<g id="edge9" class="edge"><title>Node7&#45;&gt;Node6</title>
<path fill="none" stroke="midnightblue" d="M240.669,-112.172C249.825,-98.3608 269.305,-71.6119 292.085,-56 317.916,-38.2974 351.552,-26.6183 377.119,-19.6051"/>
<polygon fill="midnightblue" stroke="midnightblue" points="378.053,-22.9787 386.837,-17.0557 376.276,-16.2078 378.053,-22.9787"/>
</g>
<!-- Node8 -->
<g id="node8" class="node"><title>Node8</title>
<polygon fill="none" stroke="#bfbfbf" points="147.585,-56.5 147.585,-75.5 206.585,-75.5 206.585,-56.5 147.585,-56.5"/>
<text text-anchor="middle" x="177.085" y="-63.5" font-family="Helvetica,sans-Serif" font-size="10.00">TObject.h</text>
</g>
<!-- Node7&#45;&gt;Node8 -->
<g id="edge10" class="edge"><title>Node7&#45;&gt;Node8</title>
<path fill="none" stroke="midnightblue" d="M225.767,-112.324C217.193,-104.341 204.273,-92.3128 193.898,-82.6529"/>
<polygon fill="midnightblue" stroke="midnightblue" points="196.277,-80.0865 186.573,-75.8339 191.507,-85.2098 196.277,-80.0865"/>
</g>
<!-- Node9 -->
<g id="node9" class="node"><title>Node9</title>
<polygon fill="none" stroke="#bfbfbf" points="13.0852,-56.5 13.0852,-75.5 129.085,-75.5 129.085,-56.5 13.0852,-56.5"/>
<text text-anchor="middle" x="71.0852" y="-63.5" font-family="Helvetica,sans-Serif" font-size="10.00">Common/Exceptions.h</text>
</g>
<!-- Node7&#45;&gt;Node9 -->
<g id="edge11" class="edge"><title>Node7&#45;&gt;Node9</title>
<path fill="none" stroke="midnightblue" d="M209.099,-112.444C181.389,-103.32 137.333,-88.8133 106.47,-78.6509"/>
<polygon fill="midnightblue" stroke="midnightblue" points="107.543,-75.3196 96.9499,-75.5164 105.354,-81.9684 107.543,-75.3196"/>
</g>
<!-- Node7&#45;&gt;Node10 -->
<g id="edge12" class="edge"><title>Node7&#45;&gt;Node10</title>
<path fill="none" stroke="midnightblue" d="M263.607,-112.444C294.152,-103.28 342.793,-88.6876 376.688,-78.5192"/>
<polygon fill="midnightblue" stroke="midnightblue" points="378.125,-81.7424 386.697,-75.5164 376.113,-75.0376 378.125,-81.7424"/>
</g>
<!-- Node10&#45;&gt;Node4 -->
<g id="edge14" class="edge"><title>Node10&#45;&gt;Node4</title>
<path fill="none" stroke="midnightblue" d="M386.564,-56.4435C353.503,-46.5255 299.243,-30.2473 265.427,-20.1025"/>
<polygon fill="midnightblue" stroke="midnightblue" points="266.219,-16.686 255.635,-17.1649 264.207,-23.3908 266.219,-16.686"/>
</g>
<!-- Node10&#45;&gt;Node6 -->
<g id="edge13" class="edge"><title>Node10&#45;&gt;Node6</title>
<path fill="none" stroke="midnightblue" d="M415.085,-56.083C415.085,-49.0059 415.085,-38.8611 415.085,-29.9865"/>
<polygon fill="midnightblue" stroke="midnightblue" points="418.585,-29.751 415.085,-19.7511 411.585,-29.7511 418.585,-29.751"/>
</g>
</g>
</svg>
