<?xml version="1.0" encoding="UTF-8" standalone="no"?>
<!DOCTYPE svg PUBLIC "-//W3C//DTD SVG 1.1//EN"
 "http://www.w3.org/Graphics/SVG/1.1/DTD/svg11.dtd">
<!-- Generated by graphviz version 2.38.0 (20140413.2041)
 -->
<!-- Title: Framework/include/QualityControl/InfrastructureGenerator.h Pages: 1 -->
<svg width="1744pt" height="106pt"
 viewBox="0.00 0.00 1744.00 106.00" xmlns="http://www.w3.org/2000/svg" xmlns:xlink="http://www.w3.org/1999/xlink">
<g id="graph0" class="graph" transform="scale(1 1) rotate(0) translate(4 102)">
<title>Framework/include/QualityControl/InfrastructureGenerator.h</title>
<!-- Node1 -->
<g id="node1" class="node"><title>Node1</title>
<polygon fill="#bfbfbf" stroke="black" points="740.5,-67.5 740.5,-97.5 900.5,-97.5 900.5,-67.5 740.5,-67.5"/>
<text text-anchor="start" x="748.5" y="-85.5" font-family="Helvetica,sans-Serif" font-size="10.00">Framework/include/Quality</text>
<text text-anchor="middle" x="820.5" y="-74.5" font-family="Helvetica,sans-Serif" font-size="10.00">Control/InfrastructureGenerator.h</text>
</g>
<!-- Node2 -->
<g id="node2" class="node"><title>Node2</title>
<g id="a_node2"><a xlink:href="InfrastructureGenerator_8cxx.html" target="_top" xlink:title="Framework/src/Infrastructure\lGenerator.cxx">
<polygon fill="none" stroke="black" points="0,-0.5 0,-30.5 143,-30.5 143,-0.5 0,-0.5"/>
<text text-anchor="start" x="8" y="-18.5" font-family="Helvetica,sans-Serif" font-size="10.00">Framework/src/Infrastructure</text>
<text text-anchor="middle" x="71.5" y="-7.5" font-family="Helvetica,sans-Serif" font-size="10.00">Generator.cxx</text>
</a>
</g>
</g>
<!-- Node1&#45;&gt;Node2 -->
<g id="edge1" class="edge"><title>Node1&#45;&gt;Node2</title>
<path fill="none" stroke="midnightblue" d="M730.209,-77.6677C601.395,-71.5237 357.633,-57.3882 151.5,-31 148.84,-30.6595 146.134,-30.2896 143.404,-29.8966"/>
<polygon fill="midnightblue" stroke="midnightblue" points="730.265,-81.1742 740.418,-78.1494 730.595,-74.1819 730.265,-81.1742"/>
</g>
<!-- Node3 -->
<g id="node3" class="node"><title>Node3</title>
<g id="a_node3"><a xlink:href="runAdvanced_8cxx.html" target="_top" xlink:title="This is an executable showing a more complicated QC topology. ">
<polygon fill="none" stroke="black" points="161,-6 161,-25 322,-25 322,-6 161,-6"/>
<text text-anchor="middle" x="241.5" y="-13" font-family="Helvetica,sans-Serif" font-size="10.00">Framework/src/runAdvanced.cxx</text>
</a>
</g>
</g>
<!-- Node1&#45;&gt;Node3 -->
<g id="edge2" class="edge"><title>Node1&#45;&gt;Node3</title>
<path fill="none" stroke="midnightblue" d="M730.1,-73.7144C631.82,-64.8889 470.22,-49.3226 331.5,-31 318.477,-29.2799 304.438,-27.151 291.411,-25.0591"/>
<polygon fill="midnightblue" stroke="midnightblue" points="730.02,-77.2212 740.292,-74.6259 730.644,-70.249 730.02,-77.2212"/>
</g>
<!-- Node4 -->
<g id="node4" class="node"><title>Node4</title>
<g id="a_node4"><a xlink:href="runBasic_8cxx.html" target="_top" xlink:title="This is an executable showing QC Task&#39;s usage in Data Processing Layer. ">
<polygon fill="none" stroke="black" points="340.5,-6 340.5,-25 482.5,-25 482.5,-6 340.5,-6"/>
<text text-anchor="middle" x="411.5" y="-13" font-family="Helvetica,sans-Serif" font-size="10.00">Framework/src/runBasic.cxx</text>
</a>
</g>
</g>
<!-- Node1&#45;&gt;Node4 -->
<g id="edge3" class="edge"><title>Node1&#45;&gt;Node4</title>
<path fill="none" stroke="midnightblue" d="M730.309,-68.3263C664.139,-58.4982 572.14,-44.4944 491.5,-31 480.502,-29.1596 468.673,-27.0742 457.574,-25.0703"/>
<polygon fill="midnightblue" stroke="midnightblue" points="729.885,-71.8016 740.29,-69.8063 730.912,-64.8773 729.885,-71.8016"/>
</g>
<!-- Node5 -->
<g id="node5" class="node"><title>Node5</title>
<g id="a_node5"><a xlink:href="runQC_8cxx.html" target="_top" xlink:title="This is an executable which generates a QC topology given a configuration file. ">
<polygon fill="none" stroke="black" points="500.5,-6 500.5,-25 632.5,-25 632.5,-6 500.5,-6"/>
<text text-anchor="middle" x="566.5" y="-13" font-family="Helvetica,sans-Serif" font-size="10.00">Framework/src/runQC.cxx</text>
</a>
</g>
</g>
<!-- Node1&#45;&gt;Node5 -->
<g id="edge4" class="edge"><title>Node1&#45;&gt;Node5</title>
<path fill="none" stroke="midnightblue" d="M755.984,-64.9899C706.206,-52.2516 639.372,-35.1484 599.827,-25.0287"/>
<polygon fill="midnightblue" stroke="midnightblue" points="755.143,-68.3875 765.698,-67.476 756.878,-61.606 755.143,-68.3875"/>
</g>
<!-- Node6 -->
<g id="node6" class="node"><title>Node6</title>
<g id="a_node6"><a xlink:href="runTPCQCPID_8cxx.html" target="_top" xlink:title="run TPC PID QC task, reading tracks from file for the moment ">
<polygon fill="none" stroke="black" points="650.5,-6 650.5,-25 820.5,-25 820.5,-6 650.5,-6"/>
<text text-anchor="middle" x="735.5" y="-13" font-family="Helvetica,sans-Serif" font-size="10.00">Framework/src/runTPCQCPID.cxx</text>
</a>
</g>
</g>
<!-- Node1&#45;&gt;Node6 -->
<g id="edge5" class="edge"><title>Node1&#45;&gt;Node6</title>
<path fill="none" stroke="midnightblue" d="M793.703,-61.008C777.923,-48.9412 758.783,-34.3046 746.87,-25.1945"/>
<polygon fill="midnightblue" stroke="midnightblue" points="791.987,-64.1017 802.056,-67.396 796.239,-58.5412 791.987,-64.1017"/>
</g>
<!-- Node7 -->
<g id="node7" class="node"><title>Node7</title>
<g id="a_node7"><a xlink:href="testCheckWorkflow_8cxx.html" target="_top" xlink:title="Framework/test/testCheck\lWorkflow.cxx">
<polygon fill="none" stroke="black" points="839,-0.5 839,-30.5 972,-30.5 972,-0.5 839,-0.5"/>
<text text-anchor="start" x="847" y="-18.5" font-family="Helvetica,sans-Serif" font-size="10.00">Framework/test/testCheck</text>
<text text-anchor="middle" x="905.5" y="-7.5" font-family="Helvetica,sans-Serif" font-size="10.00">Workflow.cxx</text>
</a>
</g>
</g>
<!-- Node1&#45;&gt;Node7 -->
<g id="edge6" class="edge"><title>Node1&#45;&gt;Node7</title>
<path fill="none" stroke="midnightblue" d="M847.088,-61.1677C860.086,-51.2283 875.404,-39.5144 887.092,-30.5765"/>
<polygon fill="midnightblue" stroke="midnightblue" points="844.761,-58.5412 838.944,-67.396 849.013,-64.1017 844.761,-58.5412"/>
</g>
<!-- Node8 -->
<g id="node8" class="node"><title>Node8</title>
<g id="a_node8"><a xlink:href="testInfrastructureGenerator_8cxx.html" target="_top" xlink:title="Framework/test/testInfrastructure\lGenerator.cxx">
<polygon fill="none" stroke="black" points="990.5,-0.5 990.5,-30.5 1152.5,-30.5 1152.5,-0.5 990.5,-0.5"/>
<text text-anchor="start" x="998.5" y="-18.5" font-family="Helvetica,sans-Serif" font-size="10.00">Framework/test/testInfrastructure</text>
<text text-anchor="middle" x="1071.5" y="-7.5" font-family="Helvetica,sans-Serif" font-size="10.00">Generator.cxx</text>
</a>
</g>
</g>
<!-- Node1&#45;&gt;Node8 -->
<g id="edge7" class="edge"><title>Node1&#45;&gt;Node8</title>
<path fill="none" stroke="midnightblue" d="M884.535,-64.9171C925.496,-54.3099 978.055,-40.6988 1017.01,-30.6109"/>
<polygon fill="midnightblue" stroke="midnightblue" points="883.457,-61.5807 874.654,-67.476 885.212,-68.3572 883.457,-61.5807"/>
</g>
<!-- Node9 -->
<g id="node9" class="node"><title>Node9</title>
<g id="a_node9"><a xlink:href="testWorkflow_8cxx.html" target="_top" xlink:title="Framework/test/testWorkflow.cxx">
<polygon fill="none" stroke="black" points="1170.5,-6 1170.5,-25 1334.5,-25 1334.5,-6 1170.5,-6"/>
<text text-anchor="middle" x="1252.5" y="-13" font-family="Helvetica,sans-Serif" font-size="10.00">Framework/test/testWorkflow.cxx</text>
</a>
</g>
</g>
<!-- Node1&#45;&gt;Node9 -->
<g id="edge8" class="edge"><title>Node1&#45;&gt;Node9</title>
<path fill="none" stroke="midnightblue" d="M910.74,-68.4118C979.501,-58.372 1076.51,-44.0644 1161.5,-31 1173.83,-29.1042 1187.1,-27.0175 1199.58,-25.0323"/>
<polygon fill="midnightblue" stroke="midnightblue" points="910.195,-64.9542 900.805,-69.8614 911.205,-71.8809 910.195,-64.9542"/>
</g>
<!-- Node10 -->
<g id="node10" class="node"><title>Node10</title>
<polygon fill="none" stroke="#bfbfbf" points="1352.5,-6 1352.5,-25 1570.5,-25 1570.5,-6 1352.5,-6"/>
<text text-anchor="middle" x="1461.5" y="-13" font-family="Helvetica,sans-Serif" font-size="10.00">Modules/EMCAL/src/runQCEMCALDigits.cxx</text>
</g>
<!-- Node1&#45;&gt;Node10 -->
<g id="edge9" class="edge"><title>Node1&#45;&gt;Node10</title>
<path fill="none" stroke="midnightblue" d="M910.934,-73.4873C1015.26,-64.077 1191.9,-47.6303 1343.5,-31 1360.12,-29.1769 1378.03,-27.0558 1394.76,-25.0079"/>
<polygon fill="midnightblue" stroke="midnightblue" points="910.402,-70.0209 900.757,-74.4037 911.03,-76.9927 910.402,-70.0209"/>
</g>
<!-- Node11 -->
<g id="node11" class="node"><title>Node11</title>
<g id="a_node11"><a xlink:href="runTOF_8cxx.html" target="_top" xlink:title="This is an executable showing QC Task&#39;s usage in Data Processing Layer. ">
<polygon fill="none" stroke="black" points="1589,-6 1589,-25 1736,-25 1736,-6 1589,-6"/>
<text text-anchor="middle" x="1662.5" y="-13" font-family="Helvetica,sans-Serif" font-size="10.00">Modules/TOF/src/runTOF.cxx</text>
</a>
</g>
</g>
<!-- Node1&#45;&gt;Node11 -->
<g id="edge10" class="edge"><title>Node1&#45;&gt;Node11</title>
<path fill="none" stroke="midnightblue" d="M910.535,-78.6139C1052.96,-73.3506 1338.78,-59.9518 1579.5,-31 1592.28,-29.4629 1606.08,-27.2692 1618.69,-25.0519"/>
<polygon fill="midnightblue" stroke="midnightblue" points="910.397,-75.1165 900.531,-78.9789 910.652,-82.1118 910.397,-75.1165"/>
</g>
</g>
</svg>
