<?xml version="1.0" encoding="UTF-8" standalone="no"?>
<!DOCTYPE svg PUBLIC "-//W3C//DTD SVG 1.1//EN"
 "http://www.w3.org/Graphics/SVG/1.1/DTD/svg11.dtd">
<!-- Generated by graphviz version 2.38.0 (20140413.2041)
 -->
<!-- Title: Graphical Class Hierarchy Pages: 1 -->
<svg width="330pt" height="441pt"
 viewBox="0.00 0.00 330.00 441.00" xmlns="http://www.w3.org/2000/svg" xmlns:xlink="http://www.w3.org/1999/xlink">
<g id="graph0" class="graph" transform="scale(1 1) rotate(0) translate(4 437)">
<title>Graphical Class Hierarchy</title>
<!-- Node1 -->
<g id="node1" class="node"><title>Node1</title>
<g id="a_node1"><a xlink:href="classo2_1_1quality__control_1_1core_1_1TaskInterface.html" target="_top" xlink:title="Skeleton of a QC task. ">
<polygon fill="none" stroke="black" points="0,-206.5 0,-236.5 107,-236.5 107,-206.5 0,-206.5"/>
<text text-anchor="start" x="8" y="-224.5" font-family="Helvetica,sans-Serif" font-size="10.00">o2::quality_control</text>
<text text-anchor="middle" x="53.5" y="-213.5" font-family="Helvetica,sans-Serif" font-size="10.00">::core::TaskInterface</text>
</a>
</g>
</g>
<!-- Node2 -->
<g id="node2" class="node"><title>Node2</title>
<g id="a_node2"><a xlink:href="classo2_1_1quality__control_1_1test_1_1TestTask.html" target="_top" xlink:title="o2::quality_control\l::test::TestTask">
<polygon fill="none" stroke="black" points="184.5,-402.5 184.5,-432.5 280.5,-432.5 280.5,-402.5 184.5,-402.5"/>
<text text-anchor="start" x="192.5" y="-420.5" font-family="Helvetica,sans-Serif" font-size="10.00">o2::quality_control</text>
<text text-anchor="middle" x="232.5" y="-409.5" font-family="Helvetica,sans-Serif" font-size="10.00">::test::TestTask</text>
</a>
</g>
</g>
<!-- Node1&#45;&gt;Node2 -->
<g id="edge1" class="edge"><title>Node1&#45;&gt;Node2</title>
<path fill="none" stroke="midnightblue" d="M60.4928,-246.651C70.79,-284.318 95.4749,-355.052 143,-393.5 154.758,-403.012 169.976,-408.769 184.468,-412.249"/>
<polygon fill="midnightblue" stroke="midnightblue" points="63.7633,-245.321 57.8559,-236.526 56.9893,-247.086 63.7633,-245.321"/>
</g>
<!-- Node3 -->
<g id="node3" class="node"><title>Node3</title>
<g id="a_node3"><a xlink:href="classo2_1_1quality__control__modules_1_1daq_1_1DaqTask.html" target="_top" xlink:title="Example Quality Control Task It is final because there is no reason to derive from it...">
<polygon fill="none" stroke="black" points="169.5,-353.5 169.5,-383.5 295.5,-383.5 295.5,-353.5 169.5,-353.5"/>
<text text-anchor="start" x="177.5" y="-371.5" font-family="Helvetica,sans-Serif" font-size="10.00">o2::quality_control</text>
<text text-anchor="middle" x="232.5" y="-360.5" font-family="Helvetica,sans-Serif" font-size="10.00">_modules::daq::DaqTask</text>
</a>
</g>
</g>
<!-- Node1&#45;&gt;Node3 -->
<g id="edge2" class="edge"><title>Node1&#45;&gt;Node3</title>
<path fill="none" stroke="midnightblue" d="M65.5382,-245.655C79.5718,-273.649 106.442,-319.168 143,-344.5 150.851,-349.94 159.883,-354.149 169.112,-357.404"/>
<polygon fill="midnightblue" stroke="midnightblue" points="68.6315,-244.013 61.1148,-236.546 62.3346,-247.071 68.6315,-244.013"/>
</g>
<!-- Node4 -->
<g id="node4" class="node"><title>Node4</title>
<g id="a_node4"><a xlink:href="classo2_1_1quality__control__modules_1_1emcal_1_1DigitsQcTask.html" target="_top" xlink:title="QC Task for EMCAL digits. ">
<polygon fill="none" stroke="black" points="154,-304.5 154,-334.5 311,-334.5 311,-304.5 154,-304.5"/>
<text text-anchor="start" x="162" y="-322.5" font-family="Helvetica,sans-Serif" font-size="10.00">o2::quality_control</text>
<text text-anchor="middle" x="232.5" y="-311.5" font-family="Helvetica,sans-Serif" font-size="10.00">_modules::emcal::DigitsQcTask</text>
</a>
</g>
</g>
<!-- Node1&#45;&gt;Node4 -->
<g id="edge3" class="edge"><title>Node1&#45;&gt;Node4</title>
<path fill="none" stroke="midnightblue" d="M75.5253,-243.661C92.339,-260.171 117.281,-282.091 143,-295.5 149.493,-298.886 156.511,-301.829 163.654,-304.381"/>
<polygon fill="midnightblue" stroke="midnightblue" points="77.9354,-241.121 68.3985,-236.506 72.9759,-246.061 77.9354,-241.121"/>
</g>
<!-- Node5 -->
<g id="node5" class="node"><title>Node5</title>
<g id="a_node5"><a xlink:href="classo2_1_1quality__control__modules_1_1emcal_1_1RawTask.html" target="_top" xlink:title="Example Quality Control DPL Task It is final because there is no reason to derive from it...">
<polygon fill="none" stroke="black" points="163,-255.5 163,-285.5 302,-285.5 302,-255.5 163,-255.5"/>
<text text-anchor="start" x="171" y="-273.5" font-family="Helvetica,sans-Serif" font-size="10.00">o2::quality_control</text>
<text text-anchor="middle" x="232.5" y="-262.5" font-family="Helvetica,sans-Serif" font-size="10.00">_modules::emcal::RawTask</text>
</a>
</g>
</g>
<!-- Node1&#45;&gt;Node5 -->
<g id="edge4" class="edge"><title>Node1&#45;&gt;Node5</title>
<path fill="none" stroke="midnightblue" d="M117.092,-239.27C125.79,-241.713 134.615,-244.179 143,-246.5 153.586,-249.431 164.895,-252.525 175.768,-255.482"/>
<polygon fill="midnightblue" stroke="midnightblue" points="117.93,-235.87 107.356,-236.529 116.033,-242.608 117.93,-235.87"/>
</g>
<!-- Node6 -->
<g id="node6" class="node"><title>Node6</title>
<g id="a_node6"><a xlink:href="classo2_1_1quality__control__modules_1_1example_1_1BenchmarkTask.html" target="_top" xlink:title="Quality Control Task for benchmarking It publishes a number of TH1F (configurable, see example.ini in module QualityControl). The histos are reset and refilled (1000 random) at EOC. They have 1000 bins. The monitoring of data blocks is empty (sleep 100 ms). ">
<polygon fill="none" stroke="black" points="143,-206.5 143,-236.5 322,-236.5 322,-206.5 143,-206.5"/>
<text text-anchor="start" x="151" y="-224.5" font-family="Helvetica,sans-Serif" font-size="10.00">o2::quality_control</text>
<text text-anchor="middle" x="232.5" y="-213.5" font-family="Helvetica,sans-Serif" font-size="10.00">_modules::example::BenchmarkTask</text>
</a>
</g>
</g>
<!-- Node1&#45;&gt;Node6 -->
<g id="edge5" class="edge"><title>Node1&#45;&gt;Node6</title>
<path fill="none" stroke="midnightblue" d="M117.149,-221.5C125.522,-221.5 134.233,-221.5 142.944,-221.5"/>
<polygon fill="midnightblue" stroke="midnightblue" points="117.127,-218 107.127,-221.5 117.127,-225 117.127,-218"/>
</g>
<!-- Node7 -->
<g id="node7" class="node"><title>Node7</title>
<g id="a_node7"><a xlink:href="classo2_1_1quality__control__modules_1_1example_1_1ExampleTask.html" target="_top" xlink:title="Example Quality Control Task It is final because there is no reason to derive from it...">
<polygon fill="none" stroke="black" points="149,-157.5 149,-187.5 316,-187.5 316,-157.5 149,-157.5"/>
<text text-anchor="start" x="157" y="-175.5" font-family="Helvetica,sans-Serif" font-size="10.00">o2::quality_control</text>
<text text-anchor="middle" x="232.5" y="-164.5" font-family="Helvetica,sans-Serif" font-size="10.00">_modules::example::ExampleTask</text>
</a>
</g>
</g>
<!-- Node1&#45;&gt;Node7 -->
<g id="edge6" class="edge"><title>Node1&#45;&gt;Node7</title>
<path fill="none" stroke="midnightblue" d="M116.919,-204.22C136.6,-198.772 158.171,-192.8 177.236,-187.522"/>
<polygon fill="midnightblue" stroke="midnightblue" points="115.83,-200.89 107.127,-206.931 117.698,-207.636 115.83,-200.89"/>
</g>
<!-- Node8 -->
<g id="node8" class="node"><title>Node8</title>
<g id="a_node8"><a xlink:href="classo2_1_1quality__control__modules_1_1skeleton_1_1SkeletonTask.html" target="_top" xlink:title="Example Quality Control DPL Task It is final because there is no reason to derive from it...">
<polygon fill="none" stroke="black" points="179,-98 179,-139 286,-139 286,-98 179,-98"/>
<text text-anchor="start" x="187" y="-127" font-family="Helvetica,sans-Serif" font-size="10.00">o2::quality_control</text>
<text text-anchor="start" x="187" y="-116" font-family="Helvetica,sans-Serif" font-size="10.00">_modules::skeleton::</text>
<text text-anchor="middle" x="232.5" y="-105" font-family="Helvetica,sans-Serif" font-size="10.00">SkeletonTask</text>
</a>
</g>
</g>
<!-- Node1&#45;&gt;Node8 -->
<g id="edge7" class="edge"><title>Node1&#45;&gt;Node8</title>
<path fill="none" stroke="midnightblue" d="M76.4333,-199.517C93.3906,-183.54 118.104,-162.369 143,-148.5 154.055,-142.342 166.589,-137.151 178.674,-132.91"/>
<polygon fill="midnightblue" stroke="midnightblue" points="74.0043,-196.997 69.2151,-206.448 78.8525,-202.047 74.0043,-196.997"/>
</g>
<!-- Node9 -->
<g id="node9" class="node"><title>Node9</title>
<g id="a_node9"><a xlink:href="classo2_1_1quality__control__modules_1_1tof_1_1TOFTask.html" target="_top" xlink:title="TOF Quality Control DPL Task. ">
<polygon fill="none" stroke="black" points="171,-49.5 171,-79.5 294,-79.5 294,-49.5 171,-49.5"/>
<text text-anchor="start" x="179" y="-67.5" font-family="Helvetica,sans-Serif" font-size="10.00">o2::quality_control</text>
<text text-anchor="middle" x="232.5" y="-56.5" font-family="Helvetica,sans-Serif" font-size="10.00">_modules::tof::TOFTask</text>
</a>
</g>
</g>
<!-- Node1&#45;&gt;Node9 -->
<g id="edge8" class="edge"><title>Node1&#45;&gt;Node9</title>
<path fill="none" stroke="midnightblue" d="M64.4226,-196.735C77.7713,-166.602 104.382,-116.318 143,-88.5 151.267,-82.545 160.932,-78.0675 170.779,-74.701"/>
<polygon fill="midnightblue" stroke="midnightblue" points="61.1231,-195.549 60.4058,-206.119 67.5584,-198.303 61.1231,-195.549"/>
</g>
<!-- Node10 -->
<g id="node10" class="node"><title>Node10</title>
<g id="a_node10"><a xlink:href="classo2_1_1quality__control__modules_1_1tpc_1_1PID.html" target="_top" xlink:title="Example Quality Control DPL Task It is final because there is no reason to derive from it...">
<polygon fill="none" stroke="black" points="182,-0.5 182,-30.5 283,-30.5 283,-0.5 182,-0.5"/>
<text text-anchor="start" x="190" y="-18.5" font-family="Helvetica,sans-Serif" font-size="10.00">o2::quality_control</text>
<text text-anchor="middle" x="232.5" y="-7.5" font-family="Helvetica,sans-Serif" font-size="10.00">_modules::tpc::PID</text>
</a>
</g>
</g>
<!-- Node1&#45;&gt;Node10 -->
<g id="edge9" class="edge"><title>Node1&#45;&gt;Node10</title>
<path fill="none" stroke="midnightblue" d="M59.8209,-196.466C69.4592,-157.305 93.563,-81.7756 143,-40.5 153.908,-31.3931 167.928,-25.5967 181.578,-21.9097"/>
<polygon fill="midnightblue" stroke="midnightblue" points="56.3984,-195.731 57.5263,-206.266 63.214,-197.327 56.3984,-195.731"/>
</g>
</g>
</svg>
