<?xml version="1.0" encoding="UTF-8" standalone="no"?>
<!DOCTYPE svg PUBLIC "-//W3C//DTD SVG 1.1//EN"
 "http://www.w3.org/Graphics/SVG/1.1/DTD/svg11.dtd">
<!-- Generated by graphviz version 2.38.0 (20140413.2041)
 -->
<!-- Title: Graphical Class Hierarchy Pages: 1 -->
<svg width="351pt" height="550pt"
 viewBox="0.00 0.00 351.00 549.50" xmlns="http://www.w3.org/2000/svg" xmlns:xlink="http://www.w3.org/1999/xlink">
<g id="graph0" class="graph" transform="scale(1 1) rotate(0) translate(4 545.5)">
<title>Graphical Class Hierarchy</title>
<!-- Node1 -->
<g id="node1" class="node"><title>Node1</title>
<g id="a_node1"><a xlink:href="classo2_1_1quality__control_1_1checker_1_1CheckInterface.html" target="_top" xlink:title="Skeleton of a check. ">
<polygon fill="none" stroke="black" points="0,-256 0,-286 130,-286 130,-256 0,-256"/>
<text text-anchor="start" x="8" y="-274" font-family="Helvetica,sans-Serif" font-size="10.00">o2::quality_control</text>
<text text-anchor="middle" x="65" y="-263" font-family="Helvetica,sans-Serif" font-size="10.00">::checker::CheckInterface</text>
</a>
</g>
</g>
<!-- Node2 -->
<g id="node2" class="node"><title>Node2</title>
<g id="a_node2"><a xlink:href="classo2_1_1quality__control_1_1test_1_1TestCheck.html" target="_top" xlink:title="o2::quality_control\l::test::TestCheck">
<polygon fill="none" stroke="black" points="206.5,-511 206.5,-541 302.5,-541 302.5,-511 206.5,-511"/>
<text text-anchor="start" x="214.5" y="-529" font-family="Helvetica,sans-Serif" font-size="10.00">o2::quality_control</text>
<text text-anchor="middle" x="254.5" y="-518" font-family="Helvetica,sans-Serif" font-size="10.00">::test::TestCheck</text>
</a>
</g>
</g>
<!-- Node1&#45;&gt;Node2 -->
<g id="edge1" class="edge"><title>Node1&#45;&gt;Node2</title>
<path fill="none" stroke="midnightblue" d="M69.6207,-296.061C77.8242,-343.523 102.323,-446.714 166,-502 177.181,-511.707 191.948,-517.522 206.16,-520.993"/>
<polygon fill="midnightblue" stroke="midnightblue" points="73.0497,-295.341 67.9894,-286.033 66.1405,-296.465 73.0497,-295.341"/>
</g>
<!-- Node3 -->
<g id="node3" class="node"><title>Node3</title>
<g id="a_node3"><a xlink:href="classo2_1_1quality__control__modules_1_1common_1_1MeanIsAbove.html" target="_top" xlink:title="Check whether the mean of the plot is above a certain limit. ">
<polygon fill="none" stroke="black" points="170.5,-462 170.5,-492 338.5,-492 338.5,-462 170.5,-462"/>
<text text-anchor="start" x="178.5" y="-480" font-family="Helvetica,sans-Serif" font-size="10.00">o2::quality_control</text>
<text text-anchor="middle" x="254.5" y="-469" font-family="Helvetica,sans-Serif" font-size="10.00">_modules::common::MeanIsAbove</text>
</a>
</g>
</g>
<!-- Node1&#45;&gt;Node3 -->
<g id="edge2" class="edge"><title>Node1&#45;&gt;Node3</title>
<path fill="none" stroke="midnightblue" d="M72.7324,-295.718C84.7425,-335.061 113.648,-411.691 166,-453 170.328,-456.415 175.108,-459.345 180.136,-461.859"/>
<polygon fill="midnightblue" stroke="midnightblue" points="76.0885,-294.724 69.9128,-286.115 69.3721,-296.696 76.0885,-294.724"/>
</g>
<!-- Node4 -->
<g id="node4" class="node"><title>Node4</title>
<g id="a_node4"><a xlink:href="classo2_1_1quality__control__modules_1_1common_1_1NonEmpty.html" target="_top" xlink:title="Check whether a plot is empty or not. ">
<polygon fill="none" stroke="black" points="177,-413 177,-443 332,-443 332,-413 177,-413"/>
<text text-anchor="start" x="185" y="-431" font-family="Helvetica,sans-Serif" font-size="10.00">o2::quality_control</text>
<text text-anchor="middle" x="254.5" y="-420" font-family="Helvetica,sans-Serif" font-size="10.00">_modules::common::NonEmpty</text>
</a>
</g>
</g>
<!-- Node1&#45;&gt;Node4 -->
<g id="edge3" class="edge"><title>Node1&#45;&gt;Node4</title>
<path fill="none" stroke="midnightblue" d="M77.8636,-295.358C93.7632,-325.429 124.82,-376.014 166,-404 171.081,-407.453 176.645,-410.411 182.426,-412.945"/>
<polygon fill="midnightblue" stroke="midnightblue" points="80.927,-293.662 73.2404,-286.37 74.7023,-296.864 80.927,-293.662"/>
</g>
<!-- Node5 -->
<g id="node5" class="node"><title>Node5</title>
<g id="a_node5"><a xlink:href="classo2_1_1quality__control__modules_1_1daq_1_1EverIncreasingGraph.html" target="_top" xlink:title="Check whether a plot is empty or not. ">
<polygon fill="none" stroke="black" points="178.5,-353.5 178.5,-394.5 330.5,-394.5 330.5,-353.5 178.5,-353.5"/>
<text text-anchor="start" x="186.5" y="-382.5" font-family="Helvetica,sans-Serif" font-size="10.00">o2::quality_control</text>
<text text-anchor="start" x="186.5" y="-371.5" font-family="Helvetica,sans-Serif" font-size="10.00">_modules::daq::EverIncreasing</text>
<text text-anchor="middle" x="254.5" y="-360.5" font-family="Helvetica,sans-Serif" font-size="10.00">Graph</text>
</a>
</g>
</g>
<!-- Node1&#45;&gt;Node5 -->
<g id="edge4" class="edge"><title>Node1&#45;&gt;Node5</title>
<path fill="none" stroke="midnightblue" d="M90.6702,-292.749C110.057,-308.942 138.321,-330.641 166,-345 171.824,-348.022 178.027,-350.819 184.339,-353.387"/>
<polygon fill="midnightblue" stroke="midnightblue" points="92.8224,-289.985 82.9329,-286.183 88.2933,-295.322 92.8224,-289.985"/>
</g>
<!-- Node6 -->
<g id="node6" class="node"><title>Node6</title>
<g id="a_node6"><a xlink:href="classo2_1_1quality__control__modules_1_1emcal_1_1DigitCheck.html" target="_top" xlink:title="Check whether a plot is empty or not. ">
<polygon fill="none" stroke="black" points="181.5,-305 181.5,-335 327.5,-335 327.5,-305 181.5,-305"/>
<text text-anchor="start" x="189.5" y="-323" font-family="Helvetica,sans-Serif" font-size="10.00">o2::quality_control</text>
<text text-anchor="middle" x="254.5" y="-312" font-family="Helvetica,sans-Serif" font-size="10.00">_modules::emcal::DigitCheck</text>
</a>
</g>
</g>
<!-- Node1&#45;&gt;Node6 -->
<g id="edge5" class="edge"><title>Node1&#45;&gt;Node6</title>
<path fill="none" stroke="midnightblue" d="M133.434,-288.623C153.948,-293.984 176.29,-299.823 196.078,-304.994"/>
<polygon fill="midnightblue" stroke="midnightblue" points="134.09,-285.177 123.53,-286.035 132.321,-291.949 134.09,-285.177"/>
</g>
<!-- Node7 -->
<g id="node7" class="node"><title>Node7</title>
<g id="a_node7"><a xlink:href="classo2_1_1quality__control__modules_1_1example_1_1FakeCheck.html" target="_top" xlink:title="Check whether a plot is empty or not. ">
<polygon fill="none" stroke="black" points="175.5,-256 175.5,-286 333.5,-286 333.5,-256 175.5,-256"/>
<text text-anchor="start" x="183.5" y="-274" font-family="Helvetica,sans-Serif" font-size="10.00">o2::quality_control</text>
<text text-anchor="middle" x="254.5" y="-263" font-family="Helvetica,sans-Serif" font-size="10.00">_modules::example::FakeCheck</text>
</a>
</g>
</g>
<!-- Node1&#45;&gt;Node7 -->
<g id="edge6" class="edge"><title>Node1&#45;&gt;Node7</title>
<path fill="none" stroke="midnightblue" d="M140.026,-271C151.577,-271 163.545,-271 175.187,-271"/>
<polygon fill="midnightblue" stroke="midnightblue" points="140.002,-267.5 130.002,-271 140.002,-274.5 140.002,-267.5"/>
</g>
<!-- Node8 -->
<g id="node8" class="node"><title>Node8</title>
<g id="a_node8"><a xlink:href="classo2_1_1quality__control__modules_1_1skeleton_1_1SkeletonCheck.html" target="_top" xlink:title="Check whether a plot is empty or not. ">
<polygon fill="none" stroke="black" points="201,-196.5 201,-237.5 308,-237.5 308,-196.5 201,-196.5"/>
<text text-anchor="start" x="209" y="-225.5" font-family="Helvetica,sans-Serif" font-size="10.00">o2::quality_control</text>
<text text-anchor="start" x="209" y="-214.5" font-family="Helvetica,sans-Serif" font-size="10.00">_modules::skeleton::</text>
<text text-anchor="middle" x="254.5" y="-203.5" font-family="Helvetica,sans-Serif" font-size="10.00">SkeletonCheck</text>
</a>
</g>
</g>
<!-- Node1&#45;&gt;Node8 -->
<g id="edge7" class="edge"><title>Node1&#45;&gt;Node8</title>
<path fill="none" stroke="midnightblue" d="M128.126,-253.108C151.698,-246.319 178.291,-238.66 200.901,-232.149"/>
<polygon fill="midnightblue" stroke="midnightblue" points="126.87,-249.827 118.229,-255.958 128.807,-256.554 126.87,-249.827"/>
</g>
<!-- Node9 -->
<g id="node9" class="node"><title>Node9</title>
<g id="a_node9"><a xlink:href="classo2_1_1quality__control__modules_1_1tof_1_1TOFCheckRawsMulti.html" target="_top" xlink:title="Check whether a plot is empty or not. ">
<polygon fill="none" stroke="black" points="177,-136.5 177,-177.5 332,-177.5 332,-136.5 177,-136.5"/>
<text text-anchor="start" x="185" y="-165.5" font-family="Helvetica,sans-Serif" font-size="10.00">o2::quality_control</text>
<text text-anchor="start" x="185" y="-154.5" font-family="Helvetica,sans-Serif" font-size="10.00">_modules::tof::TOFCheckRaws</text>
<text text-anchor="middle" x="254.5" y="-143.5" font-family="Helvetica,sans-Serif" font-size="10.00">Multi</text>
</a>
</g>
</g>
<!-- Node1&#45;&gt;Node9 -->
<g id="edge8" class="edge"><title>Node1&#45;&gt;Node9</title>
<path fill="none" stroke="midnightblue" d="M87.8959,-248.438C107.035,-229.8 136.335,-203.768 166,-187 172.011,-183.602 178.472,-180.499 185.062,-177.688"/>
<polygon fill="midnightblue" stroke="midnightblue" points="85.2296,-246.153 80.5894,-255.678 90.1565,-251.126 85.2296,-246.153"/>
</g>
<!-- Node10 -->
<g id="node10" class="node"><title>Node10</title>
<g id="a_node10"><a xlink:href="classo2_1_1quality__control__modules_1_1tof_1_1TOFCheckRawsTime.html" target="_top" xlink:title="Check whether a plot is empty or not. ">
<polygon fill="none" stroke="black" points="166,-88 166,-118 343,-118 343,-88 166,-88"/>
<text text-anchor="start" x="174" y="-106" font-family="Helvetica,sans-Serif" font-size="10.00">o2::quality_control</text>
<text text-anchor="middle" x="254.5" y="-95" font-family="Helvetica,sans-Serif" font-size="10.00">_modules::tof::TOFCheckRawsTime</text>
</a>
</g>
</g>
<!-- Node1&#45;&gt;Node10 -->
<g id="edge9" class="edge"><title>Node1&#45;&gt;Node10</title>
<path fill="none" stroke="midnightblue" d="M76.4298,-246.563C91.4686,-214.28 122.316,-157.907 166,-127 170.886,-123.543 176.25,-120.583 181.842,-118.049"/>
<polygon fill="midnightblue" stroke="midnightblue" points="73.205,-245.2 72.2734,-255.753 79.5831,-248.084 73.205,-245.2"/>
</g>
<!-- Node11 -->
<g id="node11" class="node"><title>Node11</title>
<g id="a_node11"><a xlink:href="classo2_1_1quality__control__modules_1_1tof_1_1TOFCheckRawsToT.html" target="_top" xlink:title="Check whether a plot is empty or not. ">
<polygon fill="none" stroke="black" points="168,-39 168,-69 341,-69 341,-39 168,-39"/>
<text text-anchor="start" x="176" y="-57" font-family="Helvetica,sans-Serif" font-size="10.00">o2::quality_control</text>
<text text-anchor="middle" x="254.5" y="-46" font-family="Helvetica,sans-Serif" font-size="10.00">_modules::tof::TOFCheckRawsToT</text>
</a>
</g>
</g>
<!-- Node1&#45;&gt;Node11 -->
<g id="edge10" class="edge"><title>Node1&#45;&gt;Node11</title>
<path fill="none" stroke="midnightblue" d="M72.0573,-246.19C83.3664,-205.178 111.623,-123.375 166,-79 170.774,-75.1043 176.124,-71.8154 181.764,-69.0388"/>
<polygon fill="midnightblue" stroke="midnightblue" points="68.6568,-245.359 69.4831,-255.922 75.424,-247.149 68.6568,-245.359"/>
</g>
<!-- Node12 -->
<g id="node12" class="node"><title>Node12</title>
<g id="a_node12"><a xlink:href="classTestCheck.html" target="_top" xlink:title="TestCheck">
<polygon fill="none" stroke="black" points="222,-0.5 222,-19.5 287,-19.5 287,-0.5 222,-0.5"/>
<text text-anchor="middle" x="254.5" y="-7.5" font-family="Helvetica,sans-Serif" font-size="10.00">TestCheck</text>
</a>
</g>
</g>
<!-- Node1&#45;&gt;Node12 -->
<g id="edge11" class="edge"><title>Node1&#45;&gt;Node12</title>
<path fill="none" stroke="midnightblue" d="M68.9055,-245.648C75.9735,-196.203 98.7419,-86.7767 166,-30 181.36,-17.0333 203.459,-12.0561 221.604,-10.3091"/>
<polygon fill="midnightblue" stroke="midnightblue" points="65.4058,-245.415 67.5588,-255.788 72.3449,-246.336 65.4058,-245.415"/>
</g>
</g>
</svg>
