<?xml version="1.0" encoding="UTF-8" standalone="no"?>
<!DOCTYPE svg PUBLIC "-//W3C//DTD SVG 1.1//EN"
 "http://www.w3.org/Graphics/SVG/1.1/DTD/svg11.dtd">
<!-- Generated by graphviz version 2.38.0 (20140413.2041)
 -->
<!-- Title: Graphical Class Hierarchy Pages: 1 -->
<svg width="267pt" height="274pt"
 viewBox="0.00 0.00 267.00 273.50" xmlns="http://www.w3.org/2000/svg" xmlns:xlink="http://www.w3.org/1999/xlink">
<g id="graph0" class="graph" transform="scale(1 1) rotate(0) translate(4 269.5)">
<title>Graphical Class Hierarchy</title>
<!-- Node1 -->
<g id="node1" class="node"><title>Node1</title>
<polygon fill="none" stroke="#bfbfbf" points="0,-117.5 0,-136.5 38,-136.5 38,-117.5 0,-117.5"/>
<text text-anchor="middle" x="19" y="-124.5" font-family="Helvetica,sans-Serif" font-size="10.00">Task</text>
</g>
<!-- Node2 -->
<g id="node2" class="node"><title>Node2</title>
<g id="a_node2"><a xlink:href="classo2_1_1quality__control_1_1checker_1_1CheckRunner.html" target="_top" xlink:title="The class in charge of running the checks on a MonitorObject. ">
<polygon fill="none" stroke="black" points="105,-235 105,-265 228,-265 228,-235 105,-235"/>
<text text-anchor="start" x="113" y="-253" font-family="Helvetica,sans-Serif" font-size="10.00">o2::quality_control</text>
<text text-anchor="middle" x="166.5" y="-242" font-family="Helvetica,sans-Serif" font-size="10.00">::checker::CheckRunner</text>
</a>
</g>
</g>
<!-- Node1&#45;&gt;Node2 -->
<g id="edge1" class="edge"><title>Node1&#45;&gt;Node2</title>
<path fill="none" stroke="midnightblue" d="M25.4041,-146.347C32.7022,-168.868 47.8968,-205.574 74,-226 82.9242,-232.983 93.6849,-237.946 104.644,-241.469"/>
<polygon fill="midnightblue" stroke="midnightblue" points="28.69,-145.121 22.4426,-136.564 21.9903,-147.149 28.69,-145.121"/>
</g>
<!-- Node3 -->
<g id="node3" class="node"><title>Node3</title>
<g id="a_node3"><a xlink:href="classo2_1_1quality__control_1_1core_1_1HistoMerger.html" target="_top" xlink:title="A crude histogram merger for development purposes. ">
<polygon fill="none" stroke="black" points="116,-186 116,-216 217,-216 217,-186 116,-186"/>
<text text-anchor="start" x="124" y="-204" font-family="Helvetica,sans-Serif" font-size="10.00">o2::quality_control</text>
<text text-anchor="middle" x="166.5" y="-193" font-family="Helvetica,sans-Serif" font-size="10.00">::core::HistoMerger</text>
</a>
</g>
</g>
<!-- Node1&#45;&gt;Node3 -->
<g id="edge2" class="edge"><title>Node1&#45;&gt;Node3</title>
<path fill="none" stroke="midnightblue" d="M34.5476,-144.278C44.589,-155.16 58.8249,-168.676 74,-177 86.8148,-184.03 101.778,-189.072 115.848,-192.66"/>
<polygon fill="midnightblue" stroke="midnightblue" points="36.9934,-141.761 27.7405,-136.6 31.7554,-146.405 36.9934,-141.761"/>
</g>
<!-- Node4 -->
<g id="node4" class="node"><title>Node4</title>
<g id="a_node4"><a xlink:href="classo2_1_1quality__control_1_1core_1_1TaskRunner.html" target="_top" xlink:title="A class driving the execution of a QC task inside DPL. ">
<polygon fill="none" stroke="black" points="116,-137 116,-167 217,-167 217,-137 116,-137"/>
<text text-anchor="start" x="124" y="-155" font-family="Helvetica,sans-Serif" font-size="10.00">o2::quality_control</text>
<text text-anchor="middle" x="166.5" y="-144" font-family="Helvetica,sans-Serif" font-size="10.00">::core::TaskRunner</text>
</a>
</g>
</g>
<!-- Node1&#45;&gt;Node4 -->
<g id="edge3" class="edge"><title>Node1&#45;&gt;Node4</title>
<path fill="none" stroke="midnightblue" d="M48.0292,-131.816C67.212,-135.112 93.1725,-139.573 115.81,-143.462"/>
<polygon fill="midnightblue" stroke="midnightblue" points="48.5818,-128.36 38.1335,-130.116 47.3963,-135.259 48.5818,-128.36"/>
</g>
<!-- Node5 -->
<g id="node5" class="node"><title>Node5</title>
<g id="a_node5"><a xlink:href="classo2_1_1quality__control_1_1example_1_1ExamplePrinterSpec.html" target="_top" xlink:title="Example DPL task to be plugged after a QC task. ">
<polygon fill="none" stroke="black" points="89,-88 89,-118 244,-118 244,-88 89,-88"/>
<text text-anchor="start" x="97" y="-106" font-family="Helvetica,sans-Serif" font-size="10.00">o2::quality_control</text>
<text text-anchor="middle" x="166.5" y="-95" font-family="Helvetica,sans-Serif" font-size="10.00">::example::ExamplePrinterSpec</text>
</a>
</g>
</g>
<!-- Node1&#45;&gt;Node5 -->
<g id="edge4" class="edge"><title>Node1&#45;&gt;Node5</title>
<path fill="none" stroke="midnightblue" d="M48.1972,-122.349C60.0086,-120.401 74.3679,-118.032 88.9318,-115.63"/>
<polygon fill="midnightblue" stroke="midnightblue" points="47.4305,-118.928 38.1335,-124.009 48.5698,-125.835 47.4305,-118.928"/>
</g>
<!-- Node6 -->
<g id="node6" class="node"><title>Node6</title>
<g id="a_node6"><a xlink:href="classo2_1_1quality__control_1_1example_1_1ExampleQualityPrinterSpec.html" target="_top" xlink:title="Example DPL task to be plugged after a QC check. ">
<polygon fill="none" stroke="black" points="74,-39 74,-69 259,-69 259,-39 74,-39"/>
<text text-anchor="start" x="82" y="-57" font-family="Helvetica,sans-Serif" font-size="10.00">o2::quality_control</text>
<text text-anchor="middle" x="166.5" y="-46" font-family="Helvetica,sans-Serif" font-size="10.00">::example::ExampleQualityPrinterSpec</text>
</a>
</g>
</g>
<!-- Node1&#45;&gt;Node6 -->
<g id="edge5" class="edge"><title>Node1&#45;&gt;Node6</title>
<path fill="none" stroke="midnightblue" d="M35.063,-110.114C45.1466,-99.7613 59.2366,-87.0017 74,-79 81.0942,-75.155 88.8248,-71.866 96.6884,-69.061"/>
<polygon fill="midnightblue" stroke="midnightblue" points="32.4769,-107.755 28.1882,-117.443 37.5824,-112.544 32.4769,-107.755"/>
</g>
<!-- Node7 -->
<g id="node7" class="node"><title>Node7</title>
<g id="a_node7"><a xlink:href="classReceiver.html" target="_top" xlink:title="Receiver">
<polygon fill="none" stroke="black" points="138.5,-0.5 138.5,-19.5 194.5,-19.5 194.5,-0.5 138.5,-0.5"/>
<text text-anchor="middle" x="166.5" y="-7.5" font-family="Helvetica,sans-Serif" font-size="10.00">Receiver</text>
</a>
</g>
</g>
<!-- Node1&#45;&gt;Node7 -->
<g id="edge6" class="edge"><title>Node1&#45;&gt;Node7</title>
<path fill="none" stroke="midnightblue" d="M25.4849,-107.514C32.7964,-85.2374 47.9411,-49.3619 74,-30 92.5339,-16.2292 118.659,-11.5818 138.252,-10.1735"/>
<polygon fill="midnightblue" stroke="midnightblue" points="22.0925,-106.639 22.5114,-117.225 28.7858,-108.688 22.0925,-106.639"/>
</g>
</g>
</svg>
