<?xml version="1.0" encoding="UTF-8" standalone="no"?>
<!DOCTYPE svg PUBLIC "-//W3C//DTD SVG 1.1//EN"
 "http://www.w3.org/Graphics/SVG/1.1/DTD/svg11.dtd">
<!-- Generated by graphviz version 2.38.0 (20140413.2041)
 -->
<!-- Title: Modules/Common/src/MeanIsAbove.cxx Pages: 1 -->
<svg width="773pt" height="319pt"
 viewBox="0.00 0.00 772.83 319.00" xmlns="http://www.w3.org/2000/svg" xmlns:xlink="http://www.w3.org/1999/xlink">
<g id="graph0" class="graph" transform="scale(1 1) rotate(0) translate(4 315)">
<title>Modules/Common/src/MeanIsAbove.cxx</title>
<!-- Node1 -->
<g id="node1" class="node"><title>Node1</title>
<polygon fill="#bfbfbf" stroke="black" points="352.83,-280.5 352.83,-310.5 465.83,-310.5 465.83,-280.5 352.83,-280.5"/>
<text text-anchor="start" x="360.83" y="-298.5" font-family="Helvetica,sans-Serif" font-size="10.00">Modules/Common/src</text>
<text text-anchor="middle" x="409.33" y="-287.5" font-family="Helvetica,sans-Serif" font-size="10.00">/MeanIsAbove.cxx</text>
</g>
<!-- Node2 -->
<g id="node2" class="node"><title>Node2</title>
<g id="a_node2"><a xlink:href="MeanIsAbove_8h.html" target="_top" xlink:title="Common/MeanIsAbove.h">
<polygon fill="none" stroke="black" points="38.3295,-224.5 38.3295,-243.5 166.33,-243.5 166.33,-224.5 38.3295,-224.5"/>
<text text-anchor="middle" x="102.33" y="-231.5" font-family="Helvetica,sans-Serif" font-size="10.00">Common/MeanIsAbove.h</text>
</a>
</g>
</g>
<!-- Node1&#45;&gt;Node2 -->
<g id="edge1" class="edge"><title>Node1&#45;&gt;Node2</title>
<path fill="none" stroke="midnightblue" d="M352.663,-283.517C296.556,-272.643 211.275,-256.115 156.173,-245.435"/>
<polygon fill="midnightblue" stroke="midnightblue" points="156.732,-241.979 146.249,-243.512 155.4,-248.851 156.732,-241.979"/>
</g>
<!-- Node7 -->
<g id="node7" class="node"><title>Node7</title>
<g id="a_node7"><a xlink:href="MonitorObject_8h.html" target="_top" xlink:title="QualityControl/MonitorObject.h">
<polygon fill="none" stroke="black" points="101.83,-112.5 101.83,-131.5 252.83,-131.5 252.83,-112.5 101.83,-112.5"/>
<text text-anchor="middle" x="177.33" y="-119.5" font-family="Helvetica,sans-Serif" font-size="10.00">QualityControl/MonitorObject.h</text>
</a>
</g>
</g>
<!-- Node1&#45;&gt;Node7 -->
<g id="edge20" class="edge"><title>Node1&#45;&gt;Node7</title>
<path fill="none" stroke="midnightblue" d="M373.666,-280.414C352.872,-271.428 326.631,-258.72 305.33,-244 259.421,-212.277 213.922,-164.297 191.576,-139.356"/>
<polygon fill="midnightblue" stroke="midnightblue" points="193.924,-136.728 184.675,-131.559 188.682,-141.367 193.924,-136.728"/>
</g>
<!-- Node10 -->
<g id="node10" class="node"><title>Node10</title>
<g id="a_node10"><a xlink:href="Quality_8h.html" target="_top" xlink:title="QualityControl/Quality.h">
<polygon fill="none" stroke="black" points="397.83,-56.5 397.83,-75.5 518.83,-75.5 518.83,-56.5 397.83,-56.5"/>
<text text-anchor="middle" x="458.33" y="-63.5" font-family="Helvetica,sans-Serif" font-size="10.00">QualityControl/Quality.h</text>
</a>
</g>
</g>
<!-- Node1&#45;&gt;Node10 -->
<g id="edge21" class="edge"><title>Node1&#45;&gt;Node10</title>
<path fill="none" stroke="midnightblue" d="M377.182,-280.336C362.504,-272.034 346.582,-259.997 338.33,-244 334.254,-236.1 335.48,-232.42 338.33,-224 358.748,-163.663 412.672,-108.261 440.759,-82.3754"/>
<polygon fill="midnightblue" stroke="midnightblue" points="443.189,-84.8964 448.264,-75.596 438.497,-79.7018 443.189,-84.8964"/>
</g>
<!-- Node11 -->
<g id="node11" class="node"><title>Node11</title>
<polygon fill="none" stroke="#bfbfbf" points="347.33,-224.5 347.33,-243.5 403.33,-243.5 403.33,-224.5 347.33,-224.5"/>
<text text-anchor="middle" x="375.33" y="-231.5" font-family="Helvetica,sans-Serif" font-size="10.00">TClass.h</text>
</g>
<!-- Node1&#45;&gt;Node11 -->
<g id="edge16" class="edge"><title>Node1&#45;&gt;Node11</title>
<path fill="none" stroke="midnightblue" d="M401.272,-280.399C396.484,-272.021 390.373,-261.327 385.285,-252.423"/>
<polygon fill="midnightblue" stroke="midnightblue" points="388.277,-250.604 380.277,-243.658 382.199,-254.077 388.277,-250.604"/>
</g>
<!-- Node12 -->
<g id="node12" class="node"><title>Node12</title>
<polygon fill="none" stroke="#bfbfbf" points="421.33,-224.5 421.33,-243.5 465.33,-243.5 465.33,-224.5 421.33,-224.5"/>
<text text-anchor="middle" x="443.33" y="-231.5" font-family="Helvetica,sans-Serif" font-size="10.00">TH1.h</text>
</g>
<!-- Node1&#45;&gt;Node12 -->
<g id="edge17" class="edge"><title>Node1&#45;&gt;Node12</title>
<path fill="none" stroke="midnightblue" d="M417.387,-280.399C422.175,-272.021 428.286,-261.327 433.374,-252.423"/>
<polygon fill="midnightblue" stroke="midnightblue" points="436.46,-254.077 438.382,-243.658 430.382,-250.604 436.46,-254.077"/>
</g>
<!-- Node13 -->
<g id="node13" class="node"><title>Node13</title>
<polygon fill="none" stroke="#bfbfbf" points="483.83,-224.5 483.83,-243.5 532.83,-243.5 532.83,-224.5 483.83,-224.5"/>
<text text-anchor="middle" x="508.33" y="-231.5" font-family="Helvetica,sans-Serif" font-size="10.00">TLine.h</text>
</g>
<!-- Node1&#45;&gt;Node13 -->
<g id="edge18" class="edge"><title>Node1&#45;&gt;Node13</title>
<path fill="none" stroke="midnightblue" d="M432.791,-280.399C448.66,-270.862 469.52,-258.325 485.298,-248.842"/>
<polygon fill="midnightblue" stroke="midnightblue" points="487.156,-251.809 493.924,-243.658 483.55,-245.809 487.156,-251.809"/>
</g>
<!-- Node14 -->
<g id="node14" class="node"><title>Node14</title>
<polygon fill="none" stroke="#bfbfbf" points="550.83,-224.5 550.83,-243.5 597.83,-243.5 597.83,-224.5 550.83,-224.5"/>
<text text-anchor="middle" x="574.33" y="-231.5" font-family="Helvetica,sans-Serif" font-size="10.00">TList.h</text>
</g>
<!-- Node1&#45;&gt;Node14 -->
<g id="edge19" class="edge"><title>Node1&#45;&gt;Node14</title>
<path fill="none" stroke="midnightblue" d="M448.432,-280.399C476.656,-270.222 514.353,-256.628 541.12,-246.975"/>
<polygon fill="midnightblue" stroke="midnightblue" points="542.582,-250.169 550.801,-243.484 540.207,-243.584 542.582,-250.169"/>
</g>
<!-- Node15 -->
<g id="node15" class="node"><title>Node15</title>
<g id="a_node15"><a xlink:href="QcInfoLogger_8h.html" target="_top" xlink:title="QualityControl/QcInfoLogger.h">
<polygon fill="none" stroke="black" points="615.83,-224.5 615.83,-243.5 764.83,-243.5 764.83,-224.5 615.83,-224.5"/>
<text text-anchor="middle" x="690.33" y="-231.5" font-family="Helvetica,sans-Serif" font-size="10.00">QualityControl/QcInfoLogger.h</text>
</a>
</g>
</g>
<!-- Node1&#45;&gt;Node15 -->
<g id="edge22" class="edge"><title>Node1&#45;&gt;Node15</title>
<path fill="none" stroke="midnightblue" d="M465.856,-282.531C516.728,-271.759 590.8,-256.075 639.753,-245.709"/>
<polygon fill="midnightblue" stroke="midnightblue" points="640.742,-249.077 649.8,-243.582 639.292,-242.229 640.742,-249.077"/>
</g>
<!-- Node3 -->
<g id="node3" class="node"><title>Node3</title>
<g id="a_node3"><a xlink:href="CheckInterface_8h.html" target="_top" xlink:title="QualityControl/CheckInterface.h">
<polygon fill="none" stroke="black" points="8.82953,-168.5 8.82953,-187.5 165.83,-187.5 165.83,-168.5 8.82953,-168.5"/>
<text text-anchor="middle" x="87.3295" y="-175.5" font-family="Helvetica,sans-Serif" font-size="10.00">QualityControl/CheckInterface.h</text>
</a>
</g>
</g>
<!-- Node2&#45;&gt;Node3 -->
<g id="edge2" class="edge"><title>Node2&#45;&gt;Node3</title>
<path fill="none" stroke="midnightblue" d="M99.8526,-224.083C97.843,-216.849 94.9431,-206.409 92.4397,-197.397"/>
<polygon fill="midnightblue" stroke="midnightblue" points="95.8092,-196.449 89.7604,-187.751 89.0646,-198.323 95.8092,-196.449"/>
</g>
<!-- Node4 -->
<g id="node4" class="node"><title>Node4</title>
<polygon fill="none" stroke="#bfbfbf" points="98.8295,-0.5 98.8295,-19.5 139.83,-19.5 139.83,-0.5 98.8295,-0.5"/>
<text text-anchor="middle" x="119.33" y="-7.5" font-family="Helvetica,sans-Serif" font-size="10.00">string</text>
</g>
<!-- Node3&#45;&gt;Node4 -->
<g id="edge3" class="edge"><title>Node3&#45;&gt;Node4</title>
<path fill="none" stroke="midnightblue" d="M60.4003,-168.356C43.6103,-161.411 23.3519,-149.825 13.3295,-132 -3.22537,-102.557 -5.31304,-84.1672 13.3295,-56 29.936,-30.9092 63.6521,-19.767 88.6212,-14.8446"/>
<polygon fill="midnightblue" stroke="midnightblue" points="89.4572,-18.252 98.7114,-13.0934 88.2601,-11.3551 89.4572,-18.252"/>
</g>
<!-- Node5 -->
<g id="node5" class="node"><title>Node5</title>
<polygon fill="none" stroke="#bfbfbf" points="55.8295,-56.5 55.8295,-75.5 90.8295,-75.5 90.8295,-56.5 55.8295,-56.5"/>
<text text-anchor="middle" x="73.3295" y="-63.5" font-family="Helvetica,sans-Serif" font-size="10.00">map</text>
</g>
<!-- Node3&#45;&gt;Node5 -->
<g id="edge4" class="edge"><title>Node3&#45;&gt;Node5</title>
<path fill="none" stroke="midnightblue" d="M86.231,-168.368C83.9717,-150.617 78.7598,-109.666 75.6965,-85.5974"/>
<polygon fill="midnightblue" stroke="midnightblue" points="79.1576,-85.0695 74.423,-75.5914 72.2136,-85.9533 79.1576,-85.0695"/>
</g>
<!-- Node6 -->
<g id="node6" class="node"><title>Node6</title>
<polygon fill="none" stroke="#bfbfbf" points="341.33,-0.5 341.33,-19.5 397.33,-19.5 397.33,-0.5 341.33,-0.5"/>
<text text-anchor="middle" x="369.33" y="-7.5" font-family="Helvetica,sans-Serif" font-size="10.00">Rtypes.h</text>
</g>
<!-- Node3&#45;&gt;Node6 -->
<g id="edge5" class="edge"><title>Node3&#45;&gt;Node6</title>
<path fill="none" stroke="midnightblue" d="M79.2649,-168.276C60.2971,-146.702 16.6241,-90.1309 46.3295,-56 82.8507,-14.038 253.622,-9.9817 331.022,-10.3626"/>
<polygon fill="midnightblue" stroke="midnightblue" points="331.273,-13.8646 341.3,-10.4424 331.328,-6.86481 331.273,-13.8646"/>
</g>
<!-- Node3&#45;&gt;Node7 -->
<g id="edge6" class="edge"><title>Node3&#45;&gt;Node7</title>
<path fill="none" stroke="midnightblue" d="M101.79,-168.324C115.829,-159.9 137.378,-146.971 153.873,-137.074"/>
<polygon fill="midnightblue" stroke="midnightblue" points="156.131,-139.801 162.905,-131.655 152.53,-133.798 156.131,-139.801"/>
</g>
<!-- Node3&#45;&gt;Node10 -->
<g id="edge15" class="edge"><title>Node3&#45;&gt;Node10</title>
<path fill="none" stroke="midnightblue" d="M128.714,-168.426C164.353,-160.54 216.909,-147.706 261.33,-132 281.582,-124.839 285.198,-119.494 305.33,-112 341.348,-98.5929 383.289,-86.4949 414.14,-78.228"/>
<polygon fill="midnightblue" stroke="midnightblue" points="415.383,-81.5195 424.153,-75.575 413.59,-74.753 415.383,-81.5195"/>
</g>
<!-- Node7&#45;&gt;Node4 -->
<g id="edge7" class="edge"><title>Node7&#45;&gt;Node4</title>
<path fill="none" stroke="midnightblue" d="M167.66,-112.247C158.844,-103.772 146.051,-90.1592 138.33,-76 130.414,-61.4847 125.462,-43.3027 122.605,-29.8624"/>
<polygon fill="midnightblue" stroke="midnightblue" points="126.009,-29.0293 120.68,-19.8723 119.136,-30.354 126.009,-29.0293"/>
</g>
<!-- Node7&#45;&gt;Node5 -->
<g id="edge8" class="edge"><title>Node7&#45;&gt;Node5</title>
<path fill="none" stroke="midnightblue" d="M160.62,-112.324C144.018,-103.703 118.327,-90.3643 99.109,-80.3855"/>
<polygon fill="midnightblue" stroke="midnightblue" points="100.485,-77.1565 89.9975,-75.6545 97.2596,-83.3689 100.485,-77.1565"/>
</g>
<!-- Node7&#45;&gt;Node6 -->
<g id="edge9" class="edge"><title>Node7&#45;&gt;Node6</title>
<path fill="none" stroke="midnightblue" d="M234.038,-112.427C277.855,-104.705 333.738,-92.1023 350.33,-76 362.712,-63.9826 367.141,-44.3804 368.667,-29.8401"/>
<polygon fill="midnightblue" stroke="midnightblue" points="372.183,-29.7189 369.365,-19.5058 365.199,-29.2474 372.183,-29.7189"/>
</g>
<!-- Node8 -->
<g id="node8" class="node"><title>Node8</title>
<polygon fill="none" stroke="#bfbfbf" points="147.83,-56.5 147.83,-75.5 206.83,-75.5 206.83,-56.5 147.83,-56.5"/>
<text text-anchor="middle" x="177.33" y="-63.5" font-family="Helvetica,sans-Serif" font-size="10.00">TObject.h</text>
</g>
<!-- Node7&#45;&gt;Node8 -->
<g id="edge10" class="edge"><title>Node7&#45;&gt;Node8</title>
<path fill="none" stroke="midnightblue" d="M177.33,-112.083C177.33,-105.006 177.33,-94.8611 177.33,-85.9865"/>
<polygon fill="midnightblue" stroke="midnightblue" points="180.83,-85.751 177.33,-75.7511 173.83,-85.7511 180.83,-85.751"/>
</g>
<!-- Node9 -->
<g id="node9" class="node"><title>Node9</title>
<polygon fill="none" stroke="#bfbfbf" points="225.33,-56.5 225.33,-75.5 341.33,-75.5 341.33,-56.5 225.33,-56.5"/>
<text text-anchor="middle" x="283.33" y="-63.5" font-family="Helvetica,sans-Serif" font-size="10.00">Common/Exceptions.h</text>
</g>
<!-- Node7&#45;&gt;Node9 -->
<g id="edge11" class="edge"><title>Node7&#45;&gt;Node9</title>
<path fill="none" stroke="midnightblue" d="M194.36,-112.324C211.359,-103.664 237.706,-90.2424 257.322,-80.249"/>
<polygon fill="midnightblue" stroke="midnightblue" points="259.019,-83.3125 266.341,-75.6545 255.842,-77.0752 259.019,-83.3125"/>
</g>
<!-- Node7&#45;&gt;Node10 -->
<g id="edge12" class="edge"><title>Node7&#45;&gt;Node10</title>
<path fill="none" stroke="midnightblue" d="M221.855,-112.444C271.286,-102.944 351.076,-87.611 404.108,-77.4198"/>
<polygon fill="midnightblue" stroke="midnightblue" points="404.853,-80.8408 414.013,-75.5164 403.532,-73.9666 404.853,-80.8408"/>
</g>
<!-- Node10&#45;&gt;Node4 -->
<g id="edge14" class="edge"><title>Node10&#45;&gt;Node4</title>
<path fill="none" stroke="midnightblue" d="M404.614,-56.4435C332.729,-44.9929 207.623,-25.0645 149.997,-15.8851"/>
<polygon fill="midnightblue" stroke="midnightblue" points="150.476,-12.4174 140.05,-14.3006 149.375,-19.3302 150.476,-12.4174"/>
</g>
<!-- Node10&#45;&gt;Node6 -->
<g id="edge13" class="edge"><title>Node10&#45;&gt;Node6</title>
<path fill="none" stroke="midnightblue" d="M444.03,-56.324C430.147,-47.9002 408.837,-34.9709 392.526,-25.0741"/>
<polygon fill="midnightblue" stroke="midnightblue" points="393.958,-21.8495 383.593,-19.6545 390.327,-27.8341 393.958,-21.8495"/>
</g>
<!-- Node16 -->
<g id="node16" class="node"><title>Node16</title>
<polygon fill="none" stroke="#bfbfbf" points="625.33,-168.5 625.33,-187.5 755.33,-187.5 755.33,-168.5 625.33,-168.5"/>
<text text-anchor="middle" x="690.33" y="-175.5" font-family="Helvetica,sans-Serif" font-size="10.00">InfoLogger/InfoLogger.hxx</text>
</g>
<!-- Node15&#45;&gt;Node16 -->
<g id="edge23" class="edge"><title>Node15&#45;&gt;Node16</title>
<path fill="none" stroke="midnightblue" d="M690.33,-224.083C690.33,-217.006 690.33,-206.861 690.33,-197.986"/>
<polygon fill="midnightblue" stroke="midnightblue" points="693.83,-197.751 690.33,-187.751 686.83,-197.751 693.83,-197.751"/>
</g>
</g>
</svg>
