<?xml version="1.0" encoding="UTF-8" standalone="no"?>
<!DOCTYPE svg PUBLIC "-//W3C//DTD SVG 1.1//EN"
 "http://www.w3.org/Graphics/SVG/1.1/DTD/svg11.dtd">
<!-- Generated by graphviz version 2.38.0 (20140413.2041)
 -->
<!-- Title: Framework/src/MySqlDatabase.cxx Pages: 1 -->
<svg width="1366pt" height="308pt"
 viewBox="0.00 0.00 1366.00 308.00" xmlns="http://www.w3.org/2000/svg" xmlns:xlink="http://www.w3.org/1999/xlink">
<g id="graph0" class="graph" transform="scale(1 1) rotate(0) translate(4 304)">
<title>Framework/src/MySqlDatabase.cxx</title>
<!-- Node1 -->
<g id="node1" class="node"><title>Node1</title>
<polygon fill="#bfbfbf" stroke="black" points="392.5,-280.5 392.5,-299.5 565.5,-299.5 565.5,-280.5 392.5,-280.5"/>
<text text-anchor="middle" x="479" y="-287.5" font-family="Helvetica,sans-Serif" font-size="10.00">Framework/src/MySqlDatabase.cxx</text>
</g>
<!-- Node2 -->
<g id="node2" class="node"><title>Node2</title>
<polygon fill="none" stroke="#bfbfbf" points="0,-224.5 0,-243.5 52,-243.5 52,-224.5 0,-224.5"/>
<text text-anchor="middle" x="26" y="-231.5" font-family="Helvetica,sans-Serif" font-size="10.00">sstream</text>
</g>
<!-- Node1&#45;&gt;Node2 -->
<g id="edge1" class="edge"><title>Node1&#45;&gt;Node2</title>
<path fill="none" stroke="midnightblue" d="M392.419,-283.346C309.841,-277.116 181.88,-265.288 62.3435,-244.01"/>
<polygon fill="midnightblue" stroke="midnightblue" points="62.7462,-240.526 52.2833,-242.193 61.5019,-247.414 62.7462,-240.526"/>
</g>
<!-- Node3 -->
<g id="node3" class="node"><title>Node3</title>
<polygon fill="none" stroke="#bfbfbf" points="70.5,-224.5 70.5,-243.5 141.5,-243.5 141.5,-224.5 70.5,-224.5"/>
<text text-anchor="middle" x="106" y="-231.5" font-family="Helvetica,sans-Serif" font-size="10.00">TMessage.h</text>
</g>
<!-- Node1&#45;&gt;Node3 -->
<g id="edge2" class="edge"><title>Node1&#45;&gt;Node3</title>
<path fill="none" stroke="midnightblue" d="M407.467,-280.463C343.168,-272.498 245.919,-259.731 151.804,-244.046"/>
<polygon fill="midnightblue" stroke="midnightblue" points="152.267,-240.575 141.825,-242.37 151.107,-247.478 152.267,-240.575"/>
</g>
<!-- Node4 -->
<g id="node4" class="node"><title>Node4</title>
<polygon fill="none" stroke="#bfbfbf" points="160,-224.5 160,-243.5 252,-243.5 252,-224.5 160,-224.5"/>
<text text-anchor="middle" x="206" y="-231.5" font-family="Helvetica,sans-Serif" font-size="10.00">TMySQLServer.h</text>
</g>
<!-- Node1&#45;&gt;Node4 -->
<g id="edge3" class="edge"><title>Node1&#45;&gt;Node4</title>
<path fill="none" stroke="midnightblue" d="M435.742,-280.444C387.819,-270.964 310.522,-255.675 259,-245.483"/>
<polygon fill="midnightblue" stroke="midnightblue" points="259.544,-242.023 249.055,-243.516 258.186,-248.89 259.544,-242.023"/>
</g>
<!-- Node5 -->
<g id="node5" class="node"><title>Node5</title>
<polygon fill="none" stroke="#bfbfbf" points="270,-224.5 270,-243.5 362,-243.5 362,-224.5 270,-224.5"/>
<text text-anchor="middle" x="316" y="-231.5" font-family="Helvetica,sans-Serif" font-size="10.00">TMySQLResult.h</text>
</g>
<!-- Node1&#45;&gt;Node5 -->
<g id="edge4" class="edge"><title>Node1&#45;&gt;Node5</title>
<path fill="none" stroke="midnightblue" d="M453.172,-280.444C425.751,-271.359 382.223,-256.939 351.568,-246.783"/>
<polygon fill="midnightblue" stroke="midnightblue" points="352.3,-243.339 341.707,-243.516 350.099,-249.984 352.3,-243.339"/>
</g>
<!-- Node6 -->
<g id="node6" class="node"><title>Node6</title>
<polygon fill="none" stroke="#bfbfbf" points="380,-224.5 380,-243.5 464,-243.5 464,-224.5 380,-224.5"/>
<text text-anchor="middle" x="422" y="-231.5" font-family="Helvetica,sans-Serif" font-size="10.00">TMySQLRow.h</text>
</g>
<!-- Node1&#45;&gt;Node6 -->
<g id="edge5" class="edge"><title>Node1&#45;&gt;Node6</title>
<path fill="none" stroke="midnightblue" d="M469.842,-280.324C461.499,-272.42 448.968,-260.548 438.823,-250.938"/>
<polygon fill="midnightblue" stroke="midnightblue" points="440.991,-248.171 431.325,-243.834 436.177,-253.252 440.991,-248.171"/>
</g>
<!-- Node7 -->
<g id="node7" class="node"><title>Node7</title>
<polygon fill="none" stroke="#bfbfbf" points="482.5,-224.5 482.5,-243.5 591.5,-243.5 591.5,-224.5 482.5,-224.5"/>
<text text-anchor="middle" x="537" y="-231.5" font-family="Helvetica,sans-Serif" font-size="10.00">TMySQLStatement.h</text>
</g>
<!-- Node1&#45;&gt;Node7 -->
<g id="edge6" class="edge"><title>Node1&#45;&gt;Node7</title>
<path fill="none" stroke="midnightblue" d="M488.319,-280.324C496.893,-272.341 509.812,-260.313 520.188,-250.653"/>
<polygon fill="midnightblue" stroke="midnightblue" points="522.578,-253.21 527.512,-243.834 517.808,-248.086 522.578,-253.21"/>
</g>
<!-- Node8 -->
<g id="node8" class="node"><title>Node8</title>
<polygon fill="none" stroke="#bfbfbf" points="610,-224.5 610,-243.5 694,-243.5 694,-224.5 610,-224.5"/>
<text text-anchor="middle" x="652" y="-231.5" font-family="Helvetica,sans-Serif" font-size="10.00">TBufferJSON.h</text>
</g>
<!-- Node1&#45;&gt;Node8 -->
<g id="edge7" class="edge"><title>Node1&#45;&gt;Node8</title>
<path fill="none" stroke="midnightblue" d="M506.412,-280.444C535.769,-271.28 582.519,-256.688 615.096,-246.519"/>
<polygon fill="midnightblue" stroke="midnightblue" points="616.213,-249.837 624.716,-243.516 614.127,-243.155 616.213,-249.837"/>
</g>
<!-- Node9 -->
<g id="node9" class="node"><title>Node9</title>
<polygon fill="none" stroke="#bfbfbf" points="654,-56.5 654,-75.5 770,-75.5 770,-56.5 654,-56.5"/>
<text text-anchor="middle" x="712" y="-63.5" font-family="Helvetica,sans-Serif" font-size="10.00">Common/Exceptions.h</text>
</g>
<!-- Node1&#45;&gt;Node9 -->
<g id="edge8" class="edge"><title>Node1&#45;&gt;Node9</title>
<path fill="none" stroke="midnightblue" d="M565.614,-282.442C620.736,-276.308 685.028,-264.839 703,-244 741.804,-199.007 727.189,-121.182 717.665,-85.656"/>
<polygon fill="midnightblue" stroke="midnightblue" points="720.934,-84.3592 714.825,-75.703 714.203,-86.2795 720.934,-84.3592"/>
</g>
<!-- Node10 -->
<g id="node10" class="node"><title>Node10</title>
<g id="a_node10"><a xlink:href="MySqlDatabase_8h.html" target="_top" xlink:title="QualityControl/MySqlDatabase.h">
<polygon fill="none" stroke="black" points="779,-224.5 779,-243.5 939,-243.5 939,-224.5 779,-224.5"/>
<text text-anchor="middle" x="859" y="-231.5" font-family="Helvetica,sans-Serif" font-size="10.00">QualityControl/MySqlDatabase.h</text>
</a>
</g>
</g>
<!-- Node1&#45;&gt;Node10 -->
<g id="edge9" class="edge"><title>Node1&#45;&gt;Node10</title>
<path fill="none" stroke="midnightblue" d="M539.212,-280.444C607.031,-270.806 717.109,-255.163 788.783,-244.978"/>
<polygon fill="midnightblue" stroke="midnightblue" points="789.661,-248.389 799.07,-243.516 788.677,-241.458 789.661,-248.389"/>
</g>
<!-- Node24 -->
<g id="node24" class="node"><title>Node24</title>
<g id="a_node24"><a xlink:href="QcInfoLogger_8h.html" target="_top" xlink:title="QualityControl/QcInfoLogger.h">
<polygon fill="none" stroke="black" points="1057.5,-224.5 1057.5,-243.5 1206.5,-243.5 1206.5,-224.5 1057.5,-224.5"/>
<text text-anchor="middle" x="1132" y="-231.5" font-family="Helvetica,sans-Serif" font-size="10.00">QualityControl/QcInfoLogger.h</text>
</a>
</g>
</g>
<!-- Node1&#45;&gt;Node24 -->
<g id="edge31" class="edge"><title>Node1&#45;&gt;Node24</title>
<path fill="none" stroke="midnightblue" d="M565.713,-281.829C691.243,-271.449 922.164,-252.352 1046.83,-242.044"/>
<polygon fill="midnightblue" stroke="midnightblue" points="1047.41,-245.508 1057.08,-241.195 1046.83,-238.531 1047.41,-245.508"/>
</g>
<!-- Node11 -->
<g id="node11" class="node"><title>Node11</title>
<polygon fill="none" stroke="#bfbfbf" points="813,-168.5 813,-187.5 905,-187.5 905,-168.5 813,-168.5"/>
<text text-anchor="middle" x="859" y="-175.5" font-family="Helvetica,sans-Serif" font-size="10.00">Common/Timer.h</text>
</g>
<!-- Node10&#45;&gt;Node11 -->
<g id="edge10" class="edge"><title>Node10&#45;&gt;Node11</title>
<path fill="none" stroke="midnightblue" d="M859,-224.083C859,-217.006 859,-206.861 859,-197.986"/>
<polygon fill="midnightblue" stroke="midnightblue" points="862.5,-197.751 859,-187.751 855.5,-197.751 862.5,-197.751"/>
</g>
<!-- Node12 -->
<g id="node12" class="node"><title>Node12</title>
<g id="a_node12"><a xlink:href="DatabaseInterface_8h.html" target="_top" xlink:title="QualityControl/DatabaseInterface.h">
<polygon fill="none" stroke="black" points="980,-168.5 980,-187.5 1150,-187.5 1150,-168.5 980,-168.5"/>
<text text-anchor="middle" x="1065" y="-175.5" font-family="Helvetica,sans-Serif" font-size="10.00">QualityControl/DatabaseInterface.h</text>
</a>
</g>
</g>
<!-- Node10&#45;&gt;Node12 -->
<g id="edge11" class="edge"><title>Node10&#45;&gt;Node12</title>
<path fill="none" stroke="midnightblue" d="M891.641,-224.444C927.05,-215.162 983.709,-200.309 1022.55,-190.127"/>
<polygon fill="midnightblue" stroke="midnightblue" points="1023.73,-193.438 1032.51,-187.516 1021.95,-186.667 1023.73,-193.438"/>
</g>
<!-- Node13 -->
<g id="node13" class="node"><title>Node13</title>
<polygon fill="none" stroke="#bfbfbf" points="1157.5,-0.5 1157.5,-19.5 1198.5,-19.5 1198.5,-0.5 1157.5,-0.5"/>
<text text-anchor="middle" x="1178" y="-7.5" font-family="Helvetica,sans-Serif" font-size="10.00">string</text>
</g>
<!-- Node12&#45;&gt;Node13 -->
<g id="edge12" class="edge"><title>Node12&#45;&gt;Node13</title>
<path fill="none" stroke="midnightblue" d="M1121.69,-168.495C1143.35,-162.18 1165.95,-151.176 1179,-132 1200,-101.135 1191.36,-54.8163 1184.12,-29.3708"/>
<polygon fill="midnightblue" stroke="midnightblue" points="1187.38,-28.0872 1181.09,-19.5633 1180.69,-30.1507 1187.38,-28.0872"/>
</g>
<!-- Node14 -->
<g id="node14" class="node"><title>Node14</title>
<polygon fill="none" stroke="#bfbfbf" points="1244,-112.5 1244,-131.5 1296,-131.5 1296,-112.5 1244,-112.5"/>
<text text-anchor="middle" x="1270" y="-119.5" font-family="Helvetica,sans-Serif" font-size="10.00">memory</text>
</g>
<!-- Node12&#45;&gt;Node14 -->
<g id="edge13" class="edge"><title>Node12&#45;&gt;Node14</title>
<path fill="none" stroke="midnightblue" d="M1097.48,-168.444C1134.69,-158.643 1195.47,-142.632 1234.07,-132.465"/>
<polygon fill="midnightblue" stroke="midnightblue" points="1235.07,-135.82 1243.85,-129.889 1233.29,-129.051 1235.07,-135.82"/>
</g>
<!-- Node15 -->
<g id="node15" class="node"><title>Node15</title>
<polygon fill="none" stroke="#bfbfbf" points="1314,-112.5 1314,-131.5 1358,-131.5 1358,-112.5 1314,-112.5"/>
<text text-anchor="middle" x="1336" y="-119.5" font-family="Helvetica,sans-Serif" font-size="10.00">vector</text>
</g>
<!-- Node12&#45;&gt;Node15 -->
<g id="edge14" class="edge"><title>Node12&#45;&gt;Node15</title>
<path fill="none" stroke="midnightblue" d="M1118.69,-168.469C1165.35,-160.71 1234.9,-148.311 1303.98,-132.067"/>
<polygon fill="midnightblue" stroke="midnightblue" points="1304.8,-135.469 1313.72,-129.75 1303.18,-128.659 1304.8,-135.469"/>
</g>
<!-- Node16 -->
<g id="node16" class="node"><title>Node16</title>
<polygon fill="none" stroke="#bfbfbf" points="750.5,-112.5 750.5,-131.5 833.5,-131.5 833.5,-112.5 750.5,-112.5"/>
<text text-anchor="middle" x="792" y="-119.5" font-family="Helvetica,sans-Serif" font-size="10.00">unordered_map</text>
</g>
<!-- Node12&#45;&gt;Node16 -->
<g id="edge15" class="edge"><title>Node12&#45;&gt;Node16</title>
<path fill="none" stroke="midnightblue" d="M1021.74,-168.444C973.396,-158.88 895.156,-143.404 843.642,-133.215"/>
<polygon fill="midnightblue" stroke="midnightblue" points="844.201,-129.758 833.712,-131.251 842.843,-136.625 844.201,-129.758"/>
</g>
<!-- Node17 -->
<g id="node17" class="node"><title>Node17</title>
<g id="a_node17"><a xlink:href="QualityObject_8h_source.html" target="_top" xlink:title="QualityControl/QualityObject.h">
<polygon fill="none" stroke="black" points="851.5,-112.5 851.5,-131.5 1000.5,-131.5 1000.5,-112.5 851.5,-112.5"/>
<text text-anchor="middle" x="926" y="-119.5" font-family="Helvetica,sans-Serif" font-size="10.00">QualityControl/QualityObject.h</text>
</a>
</g>
</g>
<!-- Node12&#45;&gt;Node17 -->
<g id="edge16" class="edge"><title>Node12&#45;&gt;Node17</title>
<path fill="none" stroke="midnightblue" d="M1042.98,-168.444C1019.9,-159.478 983.438,-145.314 957.359,-135.183"/>
<polygon fill="midnightblue" stroke="midnightblue" points="958.511,-131.875 947.922,-131.516 955.976,-138.4 958.511,-131.875"/>
</g>
<!-- Node23 -->
<g id="node23" class="node"><title>Node23</title>
<g id="a_node23"><a xlink:href="MonitorObject_8h.html" target="_top" xlink:title="QualityControl/MonitorObject.h">
<polygon fill="none" stroke="black" points="1018.5,-112.5 1018.5,-131.5 1169.5,-131.5 1169.5,-112.5 1018.5,-112.5"/>
<text text-anchor="middle" x="1094" y="-119.5" font-family="Helvetica,sans-Serif" font-size="10.00">QualityControl/MonitorObject.h</text>
</a>
</g>
</g>
<!-- Node12&#45;&gt;Node23 -->
<g id="edge24" class="edge"><title>Node12&#45;&gt;Node23</title>
<path fill="none" stroke="midnightblue" d="M1069.79,-168.083C1073.76,-160.691 1079.53,-149.953 1084.43,-140.811"/>
<polygon fill="midnightblue" stroke="midnightblue" points="1087.65,-142.217 1089.3,-131.751 1081.49,-138.905 1087.65,-142.217"/>
</g>
<!-- Node17&#45;&gt;Node9 -->
<g id="edge20" class="edge"><title>Node17&#45;&gt;Node9</title>
<path fill="none" stroke="midnightblue" d="M892.091,-112.444C855.151,-103.122 795.946,-88.1828 755.582,-77.9972"/>
<polygon fill="midnightblue" stroke="midnightblue" points="756.303,-74.5695 745.75,-75.5164 754.59,-81.3568 756.303,-74.5695"/>
</g>
<!-- Node18 -->
<g id="node18" class="node"><title>Node18</title>
<polygon fill="none" stroke="#bfbfbf" points="788,-56.5 788,-75.5 842,-75.5 842,-56.5 788,-56.5"/>
<text text-anchor="middle" x="815" y="-63.5" font-family="Helvetica,sans-Serif" font-size="10.00">iostream</text>
</g>
<!-- Node17&#45;&gt;Node18 -->
<g id="edge17" class="edge"><title>Node17&#45;&gt;Node18</title>
<path fill="none" stroke="midnightblue" d="M908.166,-112.324C890.284,-103.625 862.525,-90.1202 841.954,-80.113"/>
<polygon fill="midnightblue" stroke="midnightblue" points="843.313,-76.8819 832.79,-75.6545 840.251,-83.1765 843.313,-76.8819"/>
</g>
<!-- Node19 -->
<g id="node19" class="node"><title>Node19</title>
<polygon fill="none" stroke="#bfbfbf" points="1076.5,-56.5 1076.5,-75.5 1111.5,-75.5 1111.5,-56.5 1076.5,-56.5"/>
<text text-anchor="middle" x="1094" y="-63.5" font-family="Helvetica,sans-Serif" font-size="10.00">map</text>
</g>
<!-- Node17&#45;&gt;Node19 -->
<g id="edge18" class="edge"><title>Node17&#45;&gt;Node19</title>
<path fill="none" stroke="midnightblue" d="M953.824,-112.42C980.599,-104.112 1022.45,-90.991 1066.88,-76.3166"/>
<polygon fill="midnightblue" stroke="midnightblue" points="1068.01,-79.631 1076.4,-73.1629 1065.81,-72.9863 1068.01,-79.631"/>
</g>
<!-- Node20 -->
<g id="node20" class="node"><title>Node20</title>
<polygon fill="none" stroke="#bfbfbf" points="860.5,-56.5 860.5,-75.5 919.5,-75.5 919.5,-56.5 860.5,-56.5"/>
<text text-anchor="middle" x="890" y="-63.5" font-family="Helvetica,sans-Serif" font-size="10.00">TObject.h</text>
</g>
<!-- Node17&#45;&gt;Node20 -->
<g id="edge19" class="edge"><title>Node17&#45;&gt;Node20</title>
<path fill="none" stroke="midnightblue" d="M920.055,-112.083C915.023,-104.534 907.663,-93.4948 901.487,-84.2298"/>
<polygon fill="midnightblue" stroke="midnightblue" points="904.293,-82.1301 895.834,-75.7511 898.469,-86.0131 904.293,-82.1301"/>
</g>
<!-- Node21 -->
<g id="node21" class="node"><title>Node21</title>
<g id="a_node21"><a xlink:href="Quality_8h.html" target="_top" xlink:title="QualityControl/Quality.h">
<polygon fill="none" stroke="black" points="937.5,-56.5 937.5,-75.5 1058.5,-75.5 1058.5,-56.5 937.5,-56.5"/>
<text text-anchor="middle" x="998" y="-63.5" font-family="Helvetica,sans-Serif" font-size="10.00">QualityControl/Quality.h</text>
</a>
</g>
</g>
<!-- Node17&#45;&gt;Node21 -->
<g id="edge21" class="edge"><title>Node17&#45;&gt;Node21</title>
<path fill="none" stroke="midnightblue" d="M937.568,-112.324C948.42,-104.185 964.881,-91.8395 977.883,-82.0874"/>
<polygon fill="midnightblue" stroke="midnightblue" points="980.321,-84.6339 986.221,-75.8339 976.121,-79.0339 980.321,-84.6339"/>
</g>
<!-- Node21&#45;&gt;Node13 -->
<g id="edge23" class="edge"><title>Node21&#45;&gt;Node13</title>
<path fill="none" stroke="midnightblue" d="M1026.52,-56.4435C1059.58,-46.5255 1113.84,-30.2473 1147.66,-20.1025"/>
<polygon fill="midnightblue" stroke="midnightblue" points="1148.88,-23.3908 1157.45,-17.1649 1146.87,-16.686 1148.88,-23.3908"/>
</g>
<!-- Node22 -->
<g id="node22" class="node"><title>Node22</title>
<polygon fill="none" stroke="#bfbfbf" points="1026,-0.5 1026,-19.5 1082,-19.5 1082,-0.5 1026,-0.5"/>
<text text-anchor="middle" x="1054" y="-7.5" font-family="Helvetica,sans-Serif" font-size="10.00">Rtypes.h</text>
</g>
<!-- Node21&#45;&gt;Node22 -->
<g id="edge22" class="edge"><title>Node21&#45;&gt;Node22</title>
<path fill="none" stroke="midnightblue" d="M1007,-56.324C1015.19,-48.4196 1027.51,-36.5482 1037.47,-26.9377"/>
<polygon fill="midnightblue" stroke="midnightblue" points="1040.07,-29.2947 1044.84,-19.8339 1035.21,-24.2558 1040.07,-29.2947"/>
</g>
<!-- Node23&#45;&gt;Node9 -->
<g id="edge29" class="edge"><title>Node23&#45;&gt;Node9</title>
<path fill="none" stroke="midnightblue" d="M1033.47,-112.444C964.593,-102.707 852.355,-86.8408 780.374,-76.6654"/>
<polygon fill="midnightblue" stroke="midnightblue" points="780.447,-73.1411 770.056,-75.2068 779.467,-80.0722 780.447,-73.1411"/>
</g>
<!-- Node23&#45;&gt;Node13 -->
<g id="edge25" class="edge"><title>Node23&#45;&gt;Node13</title>
<path fill="none" stroke="midnightblue" d="M1102.85,-112.45C1111.71,-103.691 1125.49,-89.4836 1136,-76 1147.97,-60.6538 1159.84,-41.8651 1167.89,-28.4421"/>
<polygon fill="midnightblue" stroke="midnightblue" points="1170.96,-30.1332 1173.02,-19.7424 1164.93,-26.5749 1170.96,-30.1332"/>
</g>
<!-- Node23&#45;&gt;Node19 -->
<g id="edge26" class="edge"><title>Node23&#45;&gt;Node19</title>
<path fill="none" stroke="midnightblue" d="M1094,-112.083C1094,-105.006 1094,-94.8611 1094,-85.9865"/>
<polygon fill="midnightblue" stroke="midnightblue" points="1097.5,-85.751 1094,-75.7511 1090.5,-85.7511 1097.5,-85.751"/>
</g>
<!-- Node23&#45;&gt;Node20 -->
<g id="edge28" class="edge"><title>Node23&#45;&gt;Node20</title>
<path fill="none" stroke="midnightblue" d="M1061.68,-112.444C1025.79,-102.943 967.85,-87.6072 929.35,-77.4161"/>
<polygon fill="midnightblue" stroke="midnightblue" points="930.086,-73.9906 919.524,-74.8151 928.295,-80.7576 930.086,-73.9906"/>
</g>
<!-- Node23&#45;&gt;Node21 -->
<g id="edge30" class="edge"><title>Node23&#45;&gt;Node21</title>
<path fill="none" stroke="midnightblue" d="M1078.58,-112.324C1063.46,-103.822 1040.18,-90.7288 1022.53,-80.7975"/>
<polygon fill="midnightblue" stroke="midnightblue" points="1023.82,-77.5066 1013.39,-75.6545 1020.39,-83.6077 1023.82,-77.5066"/>
</g>
<!-- Node23&#45;&gt;Node22 -->
<g id="edge27" class="edge"><title>Node23&#45;&gt;Node22</title>
<path fill="none" stroke="midnightblue" d="M1102.46,-112.347C1113.79,-99.6599 1131.35,-75.4104 1121,-56 1113.45,-41.8339 1099.24,-31.3348 1085.84,-24.0576"/>
<polygon fill="midnightblue" stroke="midnightblue" points="1087.3,-20.8724 1076.79,-19.5289 1084.17,-27.1329 1087.3,-20.8724"/>
</g>
<!-- Node25 -->
<g id="node25" class="node"><title>Node25</title>
<polygon fill="none" stroke="#bfbfbf" points="1168,-168.5 1168,-187.5 1298,-187.5 1298,-168.5 1168,-168.5"/>
<text text-anchor="middle" x="1233" y="-175.5" font-family="Helvetica,sans-Serif" font-size="10.00">InfoLogger/InfoLogger.hxx</text>
</g>
<!-- Node24&#45;&gt;Node25 -->
<g id="edge32" class="edge"><title>Node24&#45;&gt;Node25</title>
<path fill="none" stroke="midnightblue" d="M1148.23,-224.324C1164.35,-215.703 1189.3,-202.364 1207.96,-192.386"/>
<polygon fill="midnightblue" stroke="midnightblue" points="1209.64,-195.456 1216.81,-187.655 1206.34,-189.283 1209.64,-195.456"/>
</g>
</g>
</svg>
