<?xml version="1.0" encoding="UTF-8" standalone="no"?>
<!DOCTYPE svg PUBLIC "-//W3C//DTD SVG 1.1//EN"
 "http://www.w3.org/Graphics/SVG/1.1/DTD/svg11.dtd">
<!-- Generated by graphviz version 2.38.0 (20140413.2041)
 -->
<!-- Title: Modules/Common/src/NonEmpty.cxx Pages: 1 -->
<!--zoomable 319 -->
<svg id="main" version="1.1" xmlns="http://www.w3.org/2000/svg" xmlns:xlink="http://www.w3.org/1999/xlink" xml:space="preserve" onload="init(evt)">
<style type="text/css"><![CDATA[
.edge:hover path { stroke: red; }
.edge:hover polygon { stroke: red; fill: red; }
]]></style>
<script type="text/javascript"><![CDATA[
var edges = document.getElementsByTagName('g');
if (edges && edges.length) {
  for (var i=0;i<edges.length;i++) {
    if (edges[i].id.substr(0,4)=='edge') {
      edges[i].setAttribute('class','edge');
    }
  }
}
]]></script>
        <defs>
                <circle id="rim" cx="0" cy="0" r="7"/>
                <circle id="rim2" cx="0" cy="0" r="3.5"/>
                <g id="zoomPlus">
                        <use xlink:href="#rim" fill="#404040">
                                <set attributeName="fill" to="#808080" begin="zoomplus.mouseover" end="zoomplus.mouseout"/>
                        </use>
                        <path d="M-4,0h8M0,-4v8" fill="none" stroke="white" stroke-width="1.5" pointer-events="none"/>
                </g>
                <g id="zoomMin">
                        <use xlink:href="#rim" fill="#404040">
                                <set attributeName="fill" to="#808080" begin="zoomminus.mouseover" end="zoomminus.mouseout"/>
                        </use>
                        <path d="M-4,0h8" fill="none" stroke="white" stroke-width="1.5" pointer-events="none"/>
                </g>
                <g id="dirArrow">
                        <path fill="none" stroke="white" stroke-width="1.5" d="M0,-3.0v7 M-2.5,-0.5L0,-3.0L2.5,-0.5"/>
                </g>
               <g id="resetDef">
                       <use xlink:href="#rim2" fill="#404040">
                               <set attributeName="fill" to="#808080" begin="reset.mouseover" end="reset.mouseout"/>
                       </use>
               </g>
        </defs>

<script type="text/javascript">
var viewWidth = 526;
var viewHeight = 319;
var sectionId = 'dynsection-0';
</script>
<script xlink:href="svgpan.js"/>
<svg id="graph" class="graph">
<g id="viewport">
<title>Modules/Common/src/NonEmpty.cxx</title>
<!-- Node1 -->
<g id="node1" class="node"><title>Node1</title>
<polygon fill="#bfbfbf" stroke="black" points="341.585,-280.5 341.585,-310.5 454.585,-310.5 454.585,-280.5 341.585,-280.5"/>
<text text-anchor="start" x="349.585" y="-298.5" font-family="Helvetica,sans-Serif" font-size="10.00">Modules/Common/src</text>
<text text-anchor="middle" x="398.085" y="-287.5" font-family="Helvetica,sans-Serif" font-size="10.00">/NonEmpty.cxx</text>
</g>
<!-- Node2 -->
<g id="node2" class="node"><title>Node2</title>
<g id="a_node2"><a xlink:href="NonEmpty_8h.html" target="_top" xlink:title="Common/NonEmpty.h">
<polygon fill="none" stroke="black" points="293.085,-224.5 293.085,-243.5 407.085,-243.5 407.085,-224.5 293.085,-224.5"/>
<text text-anchor="middle" x="350.085" y="-231.5" font-family="Helvetica,sans-Serif" font-size="10.00">Common/NonEmpty.h</text>
</a>
</g>
</g>
<!-- Node1&#45;&gt;Node2 -->
<g id="edge1" class="edge"><title>Node1&#45;&gt;Node2</title>
<path fill="none" stroke="midnightblue" d="M386.71,-280.399C379.735,-271.753 370.771,-260.642 363.457,-251.576"/>
<polygon fill="midnightblue" stroke="midnightblue" points="366.073,-249.243 357.07,-243.658 360.624,-253.638 366.073,-249.243"/>
</g>
<!-- Node7 -->
<g id="node7" class="node"><title>Node7</title>
<g id="a_node7"><a xlink:href="MonitorObject_8h.html" target="_top" xlink:title="QualityControl/MonitorObject.h">
<polygon fill="none" stroke="black" points="159.585,-112.5 159.585,-131.5 310.585,-131.5 310.585,-112.5 159.585,-112.5"/>
<text text-anchor="middle" x="235.085" y="-119.5" font-family="Helvetica,sans-Serif" font-size="10.00">QualityControl/MonitorObject.h</text>
</a>
</g>
</g>
<!-- Node1&#45;&gt;Node7 -->
<g id="edge16" class="edge"><title>Node1&#45;&gt;Node7</title>
<path fill="none" stroke="midnightblue" d="M349.349,-280.485C327.567,-272.429 302.674,-260.557 284.085,-244 253.727,-216.961 241.855,-168.407 237.468,-141.764"/>
<polygon fill="midnightblue" stroke="midnightblue" points="240.923,-141.203 236.014,-131.814 233.997,-142.215 240.923,-141.203"/>
</g>
<!-- Node10 -->
<g id="node10" class="node"><title>Node10</title>
<g id="a_node10"><a xlink:href="Quality_8h.html" target="_top" xlink:title="QualityControl/Quality.h">
<polygon fill="none" stroke="black" points="354.585,-56.5 354.585,-75.5 475.585,-75.5 475.585,-56.5 354.585,-56.5"/>
<text text-anchor="middle" x="415.085" y="-63.5" font-family="Helvetica,sans-Serif" font-size="10.00">QualityControl/Quality.h</text>
</a>
</g>
</g>
<!-- Node1&#45;&gt;Node10 -->
<g id="edge17" class="edge"><title>Node1&#45;&gt;Node10</title>
<path fill="none" stroke="midnightblue" d="M403.932,-280.116C407.816,-270.119 412.789,-256.414 416.085,-244 422.574,-219.564 423.854,-213.184 426.085,-188 429.3,-151.706 423.169,-109.302 418.84,-85.5566"/>
<polygon fill="midnightblue" stroke="midnightblue" points="422.233,-84.667 416.908,-75.5073 415.359,-85.9882 422.233,-84.667"/>
</g>
<!-- Node11 -->
<g id="node11" class="node"><title>Node11</title>
<polygon fill="none" stroke="#bfbfbf" points="474.085,-224.5 474.085,-243.5 518.085,-243.5 518.085,-224.5 474.085,-224.5"/>
<text text-anchor="middle" x="496.085" y="-231.5" font-family="Helvetica,sans-Serif" font-size="10.00">TH1.h</text>
</g>
<!-- Node1&#45;&gt;Node11 -->
<g id="edge18" class="edge"><title>Node1&#45;&gt;Node11</title>
<path fill="none" stroke="midnightblue" d="M421.31,-280.399C436.872,-270.951 457.282,-258.559 472.847,-249.109"/>
<polygon fill="midnightblue" stroke="midnightblue" points="475.094,-251.839 481.825,-243.658 471.461,-245.856 475.094,-251.839"/>
</g>
<!-- Node3 -->
<g id="node3" class="node"><title>Node3</title>
<g id="a_node3"><a xlink:href="CheckInterface_8h.html" target="_top" xlink:title="QualityControl/CheckInterface.h">
<polygon fill="none" stroke="black" points="260.585,-168.5 260.585,-187.5 417.585,-187.5 417.585,-168.5 260.585,-168.5"/>
<text text-anchor="middle" x="339.085" y="-175.5" font-family="Helvetica,sans-Serif" font-size="10.00">QualityControl/CheckInterface.h</text>
</a>
</g>
</g>
<!-- Node2&#45;&gt;Node3 -->
<g id="edge2" class="edge"><title>Node2&#45;&gt;Node3</title>
<path fill="none" stroke="midnightblue" d="M348.269,-224.083C346.811,-216.927 344.715,-206.635 342.893,-197.691"/>
<polygon fill="midnightblue" stroke="midnightblue" points="346.294,-196.851 340.868,-187.751 339.434,-198.248 346.294,-196.851"/>
</g>
<!-- Node4 -->
<g id="node4" class="node"><title>Node4</title>
<polygon fill="none" stroke="#bfbfbf" points="214.585,-0.5 214.585,-19.5 255.585,-19.5 255.585,-0.5 214.585,-0.5"/>
<text text-anchor="middle" x="235.085" y="-7.5" font-family="Helvetica,sans-Serif" font-size="10.00">string</text>
</g>
<!-- Node3&#45;&gt;Node4 -->
<g id="edge3" class="edge"><title>Node3&#45;&gt;Node4</title>
<path fill="none" stroke="midnightblue" d="M282.007,-168.455C194.956,-154.081 35.7454,-122.053 4.08523,-76 -0.950453,-68.6751 -1.56739,-62.86 4.08523,-56 29.1048,-25.6362 147.215,-15.4898 204.192,-12.3263"/>
<polygon fill="midnightblue" stroke="midnightblue" points="204.599,-15.81 214.405,-11.7981 204.238,-8.81929 204.599,-15.81"/>
</g>
<!-- Node5 -->
<g id="node5" class="node"><title>Node5</title>
<polygon fill="none" stroke="#bfbfbf" points="301.585,-56.5 301.585,-75.5 336.585,-75.5 336.585,-56.5 301.585,-56.5"/>
<text text-anchor="middle" x="319.085" y="-63.5" font-family="Helvetica,sans-Serif" font-size="10.00">map</text>
</g>
<!-- Node3&#45;&gt;Node5 -->
<g id="edge4" class="edge"><title>Node3&#45;&gt;Node5</title>
<path fill="none" stroke="midnightblue" d="M337.516,-168.368C334.288,-150.617 326.843,-109.666 322.467,-85.5974"/>
<polygon fill="midnightblue" stroke="midnightblue" points="325.88,-84.804 320.647,-75.5914 318.993,-86.0562 325.88,-84.804"/>
</g>
<!-- Node6 -->
<g id="node6" class="node"><title>Node6</title>
<polygon fill="none" stroke="#bfbfbf" points="387.085,-0.5 387.085,-19.5 443.085,-19.5 443.085,-0.5 387.085,-0.5"/>
<text text-anchor="middle" x="415.085" y="-7.5" font-family="Helvetica,sans-Serif" font-size="10.00">Rtypes.h</text>
</g>
<!-- Node3&#45;&gt;Node6 -->
<g id="edge5" class="edge"><title>Node3&#45;&gt;Node6</title>
<path fill="none" stroke="midnightblue" d="M363.363,-168.41C397.564,-154.83 458.598,-124.815 484.085,-76 495.466,-54.2027 470.058,-35.7073 446.927,-24.0848"/>
<polygon fill="midnightblue" stroke="midnightblue" points="448.135,-20.7849 437.598,-19.6815 445.147,-27.1152 448.135,-20.7849"/>
</g>
<!-- Node3&#45;&gt;Node7 -->
<g id="edge6" class="edge"><title>Node3&#45;&gt;Node7</title>
<path fill="none" stroke="midnightblue" d="M322.376,-168.324C305.773,-159.703 280.083,-146.364 260.865,-136.386"/>
<polygon fill="midnightblue" stroke="midnightblue" points="262.241,-133.156 251.753,-131.655 259.015,-139.369 262.241,-133.156"/>
</g>
<!-- Node3&#45;&gt;Node10 -->
<g id="edge15" class="edge"><title>Node3&#45;&gt;Node10</title>
<path fill="none" stroke="midnightblue" d="M345.049,-168.368C357.591,-150.215 386.895,-107.802 403.347,-83.9902"/>
<polygon fill="midnightblue" stroke="midnightblue" points="406.345,-85.8083 409.149,-75.5914 400.585,-81.8292 406.345,-85.8083"/>
</g>
<!-- Node7&#45;&gt;Node4 -->
<g id="edge7" class="edge"><title>Node7&#45;&gt;Node4</title>
<path fill="none" stroke="midnightblue" d="M235.085,-112.368C235.085,-94.617 235.085,-53.6664 235.085,-29.5974"/>
<polygon fill="midnightblue" stroke="midnightblue" points="238.585,-29.5914 235.085,-19.5914 231.585,-29.5915 238.585,-29.5914"/>
</g>
<!-- Node7&#45;&gt;Node5 -->
<g id="edge8" class="edge"><title>Node7&#45;&gt;Node5</title>
<path fill="none" stroke="midnightblue" d="M248.581,-112.324C261.685,-103.9 281.797,-90.9709 297.192,-81.0741"/>
<polygon fill="midnightblue" stroke="midnightblue" points="299.104,-84.0063 305.623,-75.6545 295.318,-78.118 299.104,-84.0063"/>
</g>
<!-- Node7&#45;&gt;Node6 -->
<g id="edge9" class="edge"><title>Node7&#45;&gt;Node6</title>
<path fill="none" stroke="midnightblue" d="M240.669,-112.172C249.825,-98.3608 269.305,-71.6119 292.085,-56 317.916,-38.2974 351.552,-26.6183 377.119,-19.6051"/>
<polygon fill="midnightblue" stroke="midnightblue" points="378.053,-22.9787 386.837,-17.0557 376.276,-16.2078 378.053,-22.9787"/>
</g>
<!-- Node8 -->
<g id="node8" class="node"><title>Node8</title>
<polygon fill="none" stroke="#bfbfbf" points="147.585,-56.5 147.585,-75.5 206.585,-75.5 206.585,-56.5 147.585,-56.5"/>
<text text-anchor="middle" x="177.085" y="-63.5" font-family="Helvetica,sans-Serif" font-size="10.00">TObject.h</text>
</g>
<!-- Node7&#45;&gt;Node8 -->
<g id="edge10" class="edge"><title>Node7&#45;&gt;Node8</title>
<path fill="none" stroke="midnightblue" d="M225.767,-112.324C217.193,-104.341 204.273,-92.3128 193.898,-82.6529"/>
<polygon fill="midnightblue" stroke="midnightblue" points="196.277,-80.0865 186.573,-75.8339 191.507,-85.2098 196.277,-80.0865"/>
</g>
<!-- Node9 -->
<g id="node9" class="node"><title>Node9</title>
<polygon fill="none" stroke="#bfbfbf" points="13.0852,-56.5 13.0852,-75.5 129.085,-75.5 129.085,-56.5 13.0852,-56.5"/>
<text text-anchor="middle" x="71.0852" y="-63.5" font-family="Helvetica,sans-Serif" font-size="10.00">Common/Exceptions.h</text>
</g>
<!-- Node7&#45;&gt;Node9 -->
<g id="edge11" class="edge"><title>Node7&#45;&gt;Node9</title>
<path fill="none" stroke="midnightblue" d="M209.099,-112.444C181.389,-103.32 137.333,-88.8133 106.47,-78.6509"/>
<polygon fill="midnightblue" stroke="midnightblue" points="107.543,-75.3196 96.9499,-75.5164 105.354,-81.9684 107.543,-75.3196"/>
</g>
<!-- Node7&#45;&gt;Node10 -->
<g id="edge12" class="edge"><title>Node7&#45;&gt;Node10</title>
<path fill="none" stroke="midnightblue" d="M263.607,-112.444C294.152,-103.28 342.793,-88.6876 376.688,-78.5192"/>
<polygon fill="midnightblue" stroke="midnightblue" points="378.125,-81.7424 386.697,-75.5164 376.113,-75.0376 378.125,-81.7424"/>
</g>
<!-- Node10&#45;&gt;Node4 -->
<g id="edge14" class="edge"><title>Node10&#45;&gt;Node4</title>
<path fill="none" stroke="midnightblue" d="M386.564,-56.4435C353.503,-46.5255 299.243,-30.2473 265.427,-20.1025"/>
<polygon fill="midnightblue" stroke="midnightblue" points="266.219,-16.686 255.635,-17.1649 264.207,-23.3908 266.219,-16.686"/>
</g>
<!-- Node10&#45;&gt;Node6 -->
<g id="edge13" class="edge"><title>Node10&#45;&gt;Node6</title>
<path fill="none" stroke="midnightblue" d="M415.085,-56.083C415.085,-49.0059 415.085,-38.8611 415.085,-29.9865"/>
<polygon fill="midnightblue" stroke="midnightblue" points="418.585,-29.751 415.085,-19.7511 411.585,-29.7511 418.585,-29.751"/>
</g>
</g>
</svg>
        <g id="navigator" transform="translate(0 0)" fill="#404254">
                <rect fill="#f2f5e9" fill-opacity="0.5" stroke="#606060" stroke-width=".5" x="0" y="0" width="60" height="60"/>
                <use id="zoomplus" xlink:href="#zoomPlus" x="17" y="9" onmousedown="handleZoom(evt,'in')"/>
                <use id="zoomminus" xlink:href="#zoomMin" x="42" y="9" onmousedown="handleZoom(evt,'out')"/>
                <use id="reset" xlink:href="#resetDef" x="30" y="36" onmousedown="handleReset()"/>
                <g id="arrowUp" xlink:href="#dirArrow" transform="translate(30 24)" onmousedown="handlePan(0,-1)">
                  <use xlink:href="#rim" fill="#404040">
                        <set attributeName="fill" to="#808080" begin="arrowUp.mouseover" end="arrowUp.mouseout"/>
                  </use>
                  <path fill="none" stroke="white" stroke-width="1.5" d="M0,-3.0v7 M-2.5,-0.5L0,-3.0L2.5,-0.5"/>
                </g>
                <g id="arrowRight" xlink:href="#dirArrow" transform="rotate(90) translate(36 -43)" onmousedown="handlePan(1,0)">
                  <use xlink:href="#rim" fill="#404040">
                        <set attributeName="fill" to="#808080" begin="arrowRight.mouseover" end="arrowRight.mouseout"/>
                  </use>
                  <path fill="none" stroke="white" stroke-width="1.5" d="M0,-3.0v7 M-2.5,-0.5L0,-3.0L2.5,-0.5"/>
                </g>
                <g id="arrowDown" xlink:href="#dirArrow" transform="rotate(180) translate(-30 -48)" onmousedown="handlePan(0,1)">
                  <use xlink:href="#rim" fill="#404040">
                        <set attributeName="fill" to="#808080" begin="arrowDown.mouseover" end="arrowDown.mouseout"/>
                  </use>
                  <path fill="none" stroke="white" stroke-width="1.5" d="M0,-3.0v7 M-2.5,-0.5L0,-3.0L2.5,-0.5"/>
                </g>
                <g id="arrowLeft" xlink:href="#dirArrow" transform="rotate(270) translate(-36 17)" onmousedown="handlePan(-1,0)">
                  <use xlink:href="#rim" fill="#404040">
                        <set attributeName="fill" to="#808080" begin="arrowLeft.mouseover" end="arrowLeft.mouseout"/>
                  </use>
                  <path fill="none" stroke="white" stroke-width="1.5" d="M0,-3.0v7 M-2.5,-0.5L0,-3.0L2.5,-0.5"/>
                </g>
        </g>
        <svg viewBox="0 0 15 15" width="100%" height="30px" preserveAspectRatio="xMaxYMin meet">
         <g id="arrow_out" transform="scale(0.3 0.3)">
          <a xlink:href="NonEmpty_8cxx__incl_org.svg" target="_base">
           <rect id="button" ry="5" rx="5" y="6" x="6" height="38" width="38"
                fill="#f2f5e9" fill-opacity="0.5" stroke="#606060" stroke-width="1.0"/>
           <path id="arrow"
             d="M 11.500037,31.436501 C 11.940474,20.09759 22.043105,11.32322 32.158766,21.979434 L 37.068811,17.246167 C 37.068811,17.246167 37.088388,32 37.088388,32 L 22.160133,31.978069 C 22.160133,31.978069 26.997745,27.140456 26.997745,27.140456 C 18.528582,18.264221 13.291696,25.230495 11.500037,31.436501 z"
             style="fill:#404040;"/>
          </a>
         </g>
        </svg>
</svg>
