<?xml version="1.0" encoding="UTF-8" standalone="no"?>
<!DOCTYPE svg PUBLIC "-//W3C//DTD SVG 1.1//EN"
 "http://www.w3.org/Graphics/SVG/1.1/DTD/svg11.dtd">
<!-- Generated by graphviz version 2.38.0 (20140413.2041)
 -->
<!-- Title: Framework/src/ObjectsManager.cxx Pages: 1 -->
<!--zoomable 263 -->
<svg id="main" version="1.1" xmlns="http://www.w3.org/2000/svg" xmlns:xlink="http://www.w3.org/1999/xlink" xml:space="preserve" onload="init(evt)">
<style type="text/css"><![CDATA[
.edge:hover path { stroke: red; }
.edge:hover polygon { stroke: red; fill: red; }
]]></style>
<script type="text/javascript"><![CDATA[
var edges = document.getElementsByTagName('g');
if (edges && edges.length) {
  for (var i=0;i<edges.length;i++) {
    if (edges[i].id.substr(0,4)=='edge') {
      edges[i].setAttribute('class','edge');
    }
  }
}
]]></script>
        <defs>
                <circle id="rim" cx="0" cy="0" r="7"/>
                <circle id="rim2" cx="0" cy="0" r="3.5"/>
                <g id="zoomPlus">
                        <use xlink:href="#rim" fill="#404040">
                                <set attributeName="fill" to="#808080" begin="zoomplus.mouseover" end="zoomplus.mouseout"/>
                        </use>
                        <path d="M-4,0h8M0,-4v8" fill="none" stroke="white" stroke-width="1.5" pointer-events="none"/>
                </g>
                <g id="zoomMin">
                        <use xlink:href="#rim" fill="#404040">
                                <set attributeName="fill" to="#808080" begin="zoomminus.mouseover" end="zoomminus.mouseout"/>
                        </use>
                        <path d="M-4,0h8" fill="none" stroke="white" stroke-width="1.5" pointer-events="none"/>
                </g>
                <g id="dirArrow">
                        <path fill="none" stroke="white" stroke-width="1.5" d="M0,-3.0v7 M-2.5,-0.5L0,-3.0L2.5,-0.5"/>
                </g>
               <g id="resetDef">
                       <use xlink:href="#rim2" fill="#404040">
                               <set attributeName="fill" to="#808080" begin="reset.mouseover" end="reset.mouseout"/>
                       </use>
               </g>
        </defs>

<script type="text/javascript">
var viewWidth = 1225;
var viewHeight = 263;
var sectionId = 'dynsection-0';
</script>
<script xlink:href="svgpan.js"/>
<svg id="graph" class="graph">
<g id="viewport">
<title>Framework/src/ObjectsManager.cxx</title>
<!-- Node1 -->
<g id="node1" class="node"><title>Node1</title>
<polygon fill="#bfbfbf" stroke="black" points="640.5,-235.5 640.5,-254.5 815.5,-254.5 815.5,-235.5 640.5,-235.5"/>
<text text-anchor="middle" x="728" y="-242.5" font-family="Helvetica,sans-Serif" font-size="10.00">Framework/src/ObjectsManager.cxx</text>
</g>
<!-- Node2 -->
<g id="node2" class="node"><title>Node2</title>
<g id="a_node2"><a xlink:href="ObjectsManager_8h.html" target="_top" xlink:title="QualityControl/ObjectsManager.h">
<polygon fill="none" stroke="black" points="435.5,-179.5 435.5,-198.5 596.5,-198.5 596.5,-179.5 435.5,-179.5"/>
<text text-anchor="middle" x="516" y="-186.5" font-family="Helvetica,sans-Serif" font-size="10.00">QualityControl/ObjectsManager.h</text>
</a>
</g>
</g>
<!-- Node1&#45;&gt;Node2 -->
<g id="edge1" class="edge"><title>Node1&#45;&gt;Node2</title>
<path fill="none" stroke="midnightblue" d="M694.408,-235.444C657.813,-226.122 599.162,-211.183 559.174,-200.997"/>
<polygon fill="midnightblue" stroke="midnightblue" points="559.989,-197.593 549.435,-198.516 558.261,-204.377 559.989,-197.593"/>
</g>
<!-- Node8 -->
<g id="node8" class="node"><title>Node8</title>
<polygon fill="none" stroke="#bfbfbf" points="0,-56.5 0,-75.5 116,-75.5 116,-56.5 0,-56.5"/>
<text text-anchor="middle" x="58" y="-63.5" font-family="Helvetica,sans-Serif" font-size="10.00">Common/Exceptions.h</text>
</g>
<!-- Node1&#45;&gt;Node8 -->
<g id="edge26" class="edge"><title>Node1&#45;&gt;Node8</title>
<path fill="none" stroke="midnightblue" d="M640.101,-240.15C527.315,-232.541 327.552,-209.952 171,-143 134.317,-127.312 96.8951,-99.2831 75.6476,-81.9997"/>
<polygon fill="midnightblue" stroke="midnightblue" points="77.7654,-79.2093 67.8306,-75.5282 73.3015,-84.6013 77.7654,-79.2093"/>
</g>
<!-- Node13 -->
<g id="node13" class="node"><title>Node13</title>
<g id="a_node13"><a xlink:href="QcInfoLogger_8h.html" target="_top" xlink:title="QualityControl/QcInfoLogger.h">
<polygon fill="none" stroke="black" points="653.5,-179.5 653.5,-198.5 802.5,-198.5 802.5,-179.5 653.5,-179.5"/>
<text text-anchor="middle" x="728" y="-186.5" font-family="Helvetica,sans-Serif" font-size="10.00">QualityControl/QcInfoLogger.h</text>
</a>
</g>
</g>
<!-- Node1&#45;&gt;Node13 -->
<g id="edge17" class="edge"><title>Node1&#45;&gt;Node13</title>
<path fill="none" stroke="midnightblue" d="M728,-235.083C728,-228.006 728,-217.861 728,-208.986"/>
<polygon fill="midnightblue" stroke="midnightblue" points="731.5,-208.751 728,-198.751 724.5,-208.751 731.5,-208.751"/>
</g>
<!-- Node15 -->
<g id="node15" class="node"><title>Node15</title>
<g id="a_node15"><a xlink:href="ServiceDiscovery_8h_source.html" target="_top" xlink:title="QualityControl/ServiceDiscovery.h">
<polygon fill="none" stroke="black" points="839.5,-179.5 839.5,-198.5 1006.5,-198.5 1006.5,-179.5 839.5,-179.5"/>
<text text-anchor="middle" x="923" y="-186.5" font-family="Helvetica,sans-Serif" font-size="10.00">QualityControl/ServiceDiscovery.h</text>
</a>
</g>
</g>
<!-- Node1&#45;&gt;Node15 -->
<g id="edge19" class="edge"><title>Node1&#45;&gt;Node15</title>
<path fill="none" stroke="midnightblue" d="M758.898,-235.444C792.274,-226.201 845.594,-211.436 882.349,-201.257"/>
<polygon fill="midnightblue" stroke="midnightblue" points="883.543,-204.558 892.246,-198.516 881.675,-197.812 883.543,-204.558"/>
</g>
<!-- Node20 -->
<g id="node20" class="node"><title>Node20</title>
<polygon fill="none" stroke="#bfbfbf" points="1024.5,-179.5 1024.5,-198.5 1093.5,-198.5 1093.5,-179.5 1024.5,-179.5"/>
<text text-anchor="middle" x="1059" y="-186.5" font-family="Helvetica,sans-Serif" font-size="10.00">TObjArray.h</text>
</g>
<!-- Node1&#45;&gt;Node20 -->
<g id="edge27" class="edge"><title>Node1&#45;&gt;Node20</title>
<path fill="none" stroke="midnightblue" d="M787.499,-235.491C843.422,-227.307 929.701,-214.205 1014.39,-199.037"/>
<polygon fill="midnightblue" stroke="midnightblue" points="1015.22,-202.444 1024.44,-197.226 1013.98,-195.555 1015.22,-202.444"/>
</g>
<!-- Node3 -->
<g id="node3" class="node"><title>Node3</title>
<g id="a_node3"><a xlink:href="MonitorObject_8h.html" target="_top" xlink:title="QualityControl/MonitorObject.h">
<polygon fill="none" stroke="black" points="180.5,-118 180.5,-137 331.5,-137 331.5,-118 180.5,-118"/>
<text text-anchor="middle" x="256" y="-125" font-family="Helvetica,sans-Serif" font-size="10.00">QualityControl/MonitorObject.h</text>
</a>
</g>
</g>
<!-- Node2&#45;&gt;Node3 -->
<g id="edge2" class="edge"><title>Node2&#45;&gt;Node3</title>
<path fill="none" stroke="midnightblue" d="M478.748,-179.475C432.508,-168.893 353.601,-150.836 303.178,-139.297"/>
<polygon fill="midnightblue" stroke="midnightblue" points="303.711,-135.828 293.183,-137.009 302.15,-142.652 303.711,-135.828"/>
</g>
<!-- Node4 -->
<g id="node4" class="node"><title>Node4</title>
<polygon fill="none" stroke="#bfbfbf" points="470.5,-0.5 470.5,-19.5 511.5,-19.5 511.5,-0.5 470.5,-0.5"/>
<text text-anchor="middle" x="491" y="-7.5" font-family="Helvetica,sans-Serif" font-size="10.00">string</text>
</g>
<!-- Node2&#45;&gt;Node4 -->
<g id="edge15" class="edge"><title>Node2&#45;&gt;Node4</title>
<path fill="none" stroke="midnightblue" d="M510.976,-179.383C506.132,-170.572 499.092,-156.325 496,-143 486.873,-103.674 487.934,-56.0149 489.487,-30.0792"/>
<polygon fill="midnightblue" stroke="midnightblue" points="493,-30.0178 490.201,-19.7994 486.017,-29.5331 493,-30.0178"/>
</g>
<!-- Node9 -->
<g id="node9" class="node"><title>Node9</title>
<g id="a_node9"><a xlink:href="Quality_8h.html" target="_top" xlink:title="QualityControl/Quality.h">
<polygon fill="none" stroke="black" points="303.5,-56.5 303.5,-75.5 424.5,-75.5 424.5,-56.5 303.5,-56.5"/>
<text text-anchor="middle" x="364" y="-63.5" font-family="Helvetica,sans-Serif" font-size="10.00">QualityControl/Quality.h</text>
</a>
</g>
</g>
<!-- Node2&#45;&gt;Node9 -->
<g id="edge11" class="edge"><title>Node2&#45;&gt;Node9</title>
<path fill="none" stroke="midnightblue" d="M505.069,-179.298C479.434,-158.891 415.19,-107.75 383.002,-82.1267"/>
<polygon fill="midnightblue" stroke="midnightblue" points="384.836,-79.113 374.832,-75.6232 380.476,-84.5896 384.836,-79.113"/>
</g>
<!-- Node10 -->
<g id="node10" class="node"><title>Node10</title>
<g id="a_node10"><a xlink:href="TaskConfig_8h.html" target="_top" xlink:title="QualityControl/TaskConfig.h">
<polygon fill="none" stroke="black" points="505,-118 505,-137 645,-137 645,-118 505,-118"/>
<text text-anchor="middle" x="575" y="-125" font-family="Helvetica,sans-Serif" font-size="10.00">QualityControl/TaskConfig.h</text>
</a>
</g>
</g>
<!-- Node2&#45;&gt;Node10 -->
<g id="edge12" class="edge"><title>Node2&#45;&gt;Node10</title>
<path fill="none" stroke="midnightblue" d="M524.453,-179.475C533.566,-170.285 548.27,-155.456 559.476,-144.156"/>
<polygon fill="midnightblue" stroke="midnightblue" points="562.007,-146.574 566.562,-137.009 557.036,-141.646 562.007,-146.574"/>
</g>
<!-- Node12 -->
<g id="node12" class="node"><title>Node12</title>
<polygon fill="none" stroke="#bfbfbf" points="811,-118 811,-137 863,-137 863,-118 811,-118"/>
<text text-anchor="middle" x="837" y="-125" font-family="Helvetica,sans-Serif" font-size="10.00">memory</text>
</g>
<!-- Node2&#45;&gt;Node12 -->
<g id="edge16" class="edge"><title>Node2&#45;&gt;Node12</title>
<path fill="none" stroke="midnightblue" d="M596.607,-180.472C654.514,-173.823 734.022,-162.137 802,-143 804.437,-142.314 806.933,-141.506 809.415,-140.629"/>
<polygon fill="midnightblue" stroke="midnightblue" points="810.699,-143.885 818.762,-137.011 808.173,-137.357 810.699,-143.885"/>
</g>
<!-- Node3&#45;&gt;Node4 -->
<g id="edge3" class="edge"><title>Node3&#45;&gt;Node4</title>
<path fill="none" stroke="midnightblue" d="M316.435,-117.963C352.364,-110.845 397.67,-98.1545 433,-76 452.55,-63.7406 469.399,-43.0049 479.822,-28.2517"/>
<polygon fill="midnightblue" stroke="midnightblue" points="482.994,-29.8112 485.708,-19.5698 477.199,-25.8834 482.994,-29.8112"/>
</g>
<!-- Node5 -->
<g id="node5" class="node"><title>Node5</title>
<polygon fill="none" stroke="#bfbfbf" points="134.5,-56.5 134.5,-75.5 169.5,-75.5 169.5,-56.5 134.5,-56.5"/>
<text text-anchor="middle" x="152" y="-63.5" font-family="Helvetica,sans-Serif" font-size="10.00">map</text>
</g>
<!-- Node3&#45;&gt;Node5 -->
<g id="edge4" class="edge"><title>Node3&#45;&gt;Node5</title>
<path fill="none" stroke="midnightblue" d="M241.099,-117.975C224.032,-108.211 195.839,-92.0807 175.738,-80.5808"/>
<polygon fill="midnightblue" stroke="midnightblue" points="177.291,-77.4371 166.873,-75.5091 173.815,-83.513 177.291,-77.4371"/>
</g>
<!-- Node6 -->
<g id="node6" class="node"><title>Node6</title>
<polygon fill="none" stroke="#bfbfbf" points="253,-0.5 253,-19.5 309,-19.5 309,-0.5 253,-0.5"/>
<text text-anchor="middle" x="281" y="-7.5" font-family="Helvetica,sans-Serif" font-size="10.00">Rtypes.h</text>
</g>
<!-- Node3&#45;&gt;Node6 -->
<g id="edge5" class="edge"><title>Node3&#45;&gt;Node6</title>
<path fill="none" stroke="midnightblue" d="M245.167,-117.897C229.929,-104.694 205.267,-78.5924 217,-56 224.153,-42.2262 237.671,-31.783 250.447,-24.4413"/>
<polygon fill="midnightblue" stroke="midnightblue" points="252.317,-27.412 259.517,-19.6403 249.042,-21.2252 252.317,-27.412"/>
</g>
<!-- Node7 -->
<g id="node7" class="node"><title>Node7</title>
<polygon fill="none" stroke="#bfbfbf" points="226.5,-56.5 226.5,-75.5 285.5,-75.5 285.5,-56.5 226.5,-56.5"/>
<text text-anchor="middle" x="256" y="-63.5" font-family="Helvetica,sans-Serif" font-size="10.00">TObject.h</text>
</g>
<!-- Node3&#45;&gt;Node7 -->
<g id="edge6" class="edge"><title>Node3&#45;&gt;Node7</title>
<path fill="none" stroke="midnightblue" d="M256,-117.975C256,-109.58 256,-96.4806 256,-85.6631"/>
<polygon fill="midnightblue" stroke="midnightblue" points="259.5,-85.5091 256,-75.5091 252.5,-85.5091 259.5,-85.5091"/>
</g>
<!-- Node3&#45;&gt;Node8 -->
<g id="edge7" class="edge"><title>Node3&#45;&gt;Node8</title>
<path fill="none" stroke="midnightblue" d="M227.631,-117.975C193.079,-107.592 134.576,-90.0116 96.1153,-78.4538"/>
<polygon fill="midnightblue" stroke="midnightblue" points="96.9002,-75.0351 86.3159,-75.5091 94.8856,-81.739 96.9002,-75.0351"/>
</g>
<!-- Node3&#45;&gt;Node9 -->
<g id="edge8" class="edge"><title>Node3&#45;&gt;Node9</title>
<path fill="none" stroke="midnightblue" d="M271.474,-117.975C289.278,-108.166 318.741,-91.9346 339.632,-80.425"/>
<polygon fill="midnightblue" stroke="midnightblue" points="341.485,-83.4001 348.555,-75.5091 338.107,-77.269 341.485,-83.4001"/>
</g>
<!-- Node9&#45;&gt;Node4 -->
<g id="edge10" class="edge"><title>Node9&#45;&gt;Node4</title>
<path fill="none" stroke="midnightblue" d="M384.124,-56.4435C405.024,-47.5566 437.935,-33.5632 461.716,-23.4514"/>
<polygon fill="midnightblue" stroke="midnightblue" points="463.138,-26.6504 470.971,-19.5164 460.398,-20.2085 463.138,-26.6504"/>
</g>
<!-- Node9&#45;&gt;Node6 -->
<g id="edge9" class="edge"><title>Node9&#45;&gt;Node6</title>
<path fill="none" stroke="midnightblue" d="M350.665,-56.324C337.838,-47.979 318.215,-35.2122 303.06,-25.3524"/>
<polygon fill="midnightblue" stroke="midnightblue" points="304.593,-22.1742 294.302,-19.6545 300.776,-28.0417 304.593,-22.1742"/>
</g>
<!-- Node10&#45;&gt;Node4 -->
<g id="edge13" class="edge"><title>Node10&#45;&gt;Node4</title>
<path fill="none" stroke="midnightblue" d="M585.359,-117.839C600.504,-104.111 625.403,-76.7841 611,-56 591.109,-27.2974 550.503,-16.8747 522.059,-13.1063"/>
<polygon fill="midnightblue" stroke="midnightblue" points="522.148,-9.59456 511.821,-11.9635 521.371,-16.5514 522.148,-9.59456"/>
</g>
<!-- Node11 -->
<g id="node11" class="node"><title>Node11</title>
<polygon fill="none" stroke="#bfbfbf" points="519.5,-56.5 519.5,-75.5 602.5,-75.5 602.5,-56.5 519.5,-56.5"/>
<text text-anchor="middle" x="561" y="-63.5" font-family="Helvetica,sans-Serif" font-size="10.00">unordered_map</text>
</g>
<!-- Node10&#45;&gt;Node11 -->
<g id="edge14" class="edge"><title>Node10&#45;&gt;Node11</title>
<path fill="none" stroke="midnightblue" d="M572.994,-117.975C570.998,-109.492 567.872,-96.2043 565.311,-85.3222"/>
<polygon fill="midnightblue" stroke="midnightblue" points="568.7,-84.4416 563.002,-75.5091 561.886,-86.0449 568.7,-84.4416"/>
</g>
<!-- Node14 -->
<g id="node14" class="node"><title>Node14</title>
<polygon fill="none" stroke="#bfbfbf" points="663,-118 663,-137 793,-137 793,-118 663,-118"/>
<text text-anchor="middle" x="728" y="-125" font-family="Helvetica,sans-Serif" font-size="10.00">InfoLogger/InfoLogger.hxx</text>
</g>
<!-- Node13&#45;&gt;Node14 -->
<g id="edge18" class="edge"><title>Node13&#45;&gt;Node14</title>
<path fill="none" stroke="midnightblue" d="M728,-179.475C728,-171.08 728,-157.981 728,-147.163"/>
<polygon fill="midnightblue" stroke="midnightblue" points="731.5,-147.009 728,-137.009 724.5,-147.009 731.5,-147.009"/>
</g>
<!-- Node15&#45;&gt;Node4 -->
<g id="edge23" class="edge"><title>Node15&#45;&gt;Node4</title>
<path fill="none" stroke="midnightblue" d="M919.689,-179.446C913.108,-163.606 896.84,-129.713 872,-112 760.673,-32.6157 591.026,-15.6231 521.918,-11.9881"/>
<polygon fill="midnightblue" stroke="midnightblue" points="521.866,-8.48197 511.714,-11.5119 521.54,-15.4744 521.866,-8.48197"/>
</g>
<!-- Node15&#45;&gt;Node12 -->
<g id="edge22" class="edge"><title>Node15&#45;&gt;Node12</title>
<path fill="none" stroke="midnightblue" d="M910.678,-179.475C896.884,-169.931 874.301,-154.307 857.768,-142.868"/>
<polygon fill="midnightblue" stroke="midnightblue" points="859.514,-139.82 849.299,-137.009 855.531,-145.577 859.514,-139.82"/>
</g>
<!-- Node16 -->
<g id="node16" class="node"><title>Node16</title>
<polygon fill="none" stroke="#bfbfbf" points="919,-118 919,-137 965,-137 965,-118 919,-118"/>
<text text-anchor="middle" x="942" y="-125" font-family="Helvetica,sans-Serif" font-size="10.00">atomic</text>
</g>
<!-- Node15&#45;&gt;Node16 -->
<g id="edge20" class="edge"><title>Node15&#45;&gt;Node16</title>
<path fill="none" stroke="midnightblue" d="M925.722,-179.475C928.431,-170.992 932.674,-157.704 936.149,-146.822"/>
<polygon fill="midnightblue" stroke="midnightblue" points="939.575,-147.6 939.283,-137.009 932.907,-145.47 939.575,-147.6"/>
</g>
<!-- Node17 -->
<g id="node17" class="node"><title>Node17</title>
<polygon fill="none" stroke="#bfbfbf" points="983.5,-118 983.5,-137 1042.5,-137 1042.5,-118 983.5,-118"/>
<text text-anchor="middle" x="1013" y="-125" font-family="Helvetica,sans-Serif" font-size="10.00">curl/curl.h</text>
</g>
<!-- Node15&#45;&gt;Node17 -->
<g id="edge21" class="edge"><title>Node15&#45;&gt;Node17</title>
<path fill="none" stroke="midnightblue" d="M935.895,-179.475C950.464,-169.843 974.402,-154.017 991.745,-142.552"/>
<polygon fill="midnightblue" stroke="midnightblue" points="993.717,-145.444 1000.13,-137.009 989.857,-139.604 993.717,-145.444"/>
</g>
<!-- Node18 -->
<g id="node18" class="node"><title>Node18</title>
<polygon fill="none" stroke="#bfbfbf" points="1061,-118 1061,-137 1105,-137 1105,-118 1061,-118"/>
<text text-anchor="middle" x="1083" y="-125" font-family="Helvetica,sans-Serif" font-size="10.00">thread</text>
</g>
<!-- Node15&#45;&gt;Node18 -->
<g id="edge24" class="edge"><title>Node15&#45;&gt;Node18</title>
<path fill="none" stroke="midnightblue" d="M949.728,-179.361C975.799,-170.757 1016.46,-156.866 1051,-143 1052.42,-142.432 1053.86,-141.837 1055.31,-141.225"/>
<polygon fill="midnightblue" stroke="midnightblue" points="1057.08,-144.271 1064.84,-137.059 1054.28,-137.857 1057.08,-144.271"/>
</g>
<!-- Node19 -->
<g id="node19" class="node"><title>Node19</title>
<polygon fill="none" stroke="#bfbfbf" points="1123,-112.5 1123,-142.5 1217,-142.5 1217,-112.5 1123,-112.5"/>
<text text-anchor="start" x="1131" y="-130.5" font-family="Helvetica,sans-Serif" font-size="10.00">boost/asio/ip/host</text>
<text text-anchor="middle" x="1170" y="-119.5" font-family="Helvetica,sans-Serif" font-size="10.00">_name.hpp</text>
</g>
<!-- Node15&#45;&gt;Node19 -->
<g id="edge25" class="edge"><title>Node15&#45;&gt;Node19</title>
<path fill="none" stroke="midnightblue" d="M960.389,-179.447C996.904,-171.037 1054.3,-157.668 1113.13,-143.187"/>
<polygon fill="midnightblue" stroke="midnightblue" points="1114.1,-146.554 1122.97,-140.759 1112.42,-139.758 1114.1,-146.554"/>
</g>
</g>
</svg>
        <g id="navigator" transform="translate(0 0)" fill="#404254">
                <rect fill="#f2f5e9" fill-opacity="0.5" stroke="#606060" stroke-width=".5" x="0" y="0" width="60" height="60"/>
                <use id="zoomplus" xlink:href="#zoomPlus" x="17" y="9" onmousedown="handleZoom(evt,'in')"/>
                <use id="zoomminus" xlink:href="#zoomMin" x="42" y="9" onmousedown="handleZoom(evt,'out')"/>
                <use id="reset" xlink:href="#resetDef" x="30" y="36" onmousedown="handleReset()"/>
                <g id="arrowUp" xlink:href="#dirArrow" transform="translate(30 24)" onmousedown="handlePan(0,-1)">
                  <use xlink:href="#rim" fill="#404040">
                        <set attributeName="fill" to="#808080" begin="arrowUp.mouseover" end="arrowUp.mouseout"/>
                  </use>
                  <path fill="none" stroke="white" stroke-width="1.5" d="M0,-3.0v7 M-2.5,-0.5L0,-3.0L2.5,-0.5"/>
                </g>
                <g id="arrowRight" xlink:href="#dirArrow" transform="rotate(90) translate(36 -43)" onmousedown="handlePan(1,0)">
                  <use xlink:href="#rim" fill="#404040">
                        <set attributeName="fill" to="#808080" begin="arrowRight.mouseover" end="arrowRight.mouseout"/>
                  </use>
                  <path fill="none" stroke="white" stroke-width="1.5" d="M0,-3.0v7 M-2.5,-0.5L0,-3.0L2.5,-0.5"/>
                </g>
                <g id="arrowDown" xlink:href="#dirArrow" transform="rotate(180) translate(-30 -48)" onmousedown="handlePan(0,1)">
                  <use xlink:href="#rim" fill="#404040">
                        <set attributeName="fill" to="#808080" begin="arrowDown.mouseover" end="arrowDown.mouseout"/>
                  </use>
                  <path fill="none" stroke="white" stroke-width="1.5" d="M0,-3.0v7 M-2.5,-0.5L0,-3.0L2.5,-0.5"/>
                </g>
                <g id="arrowLeft" xlink:href="#dirArrow" transform="rotate(270) translate(-36 17)" onmousedown="handlePan(-1,0)">
                  <use xlink:href="#rim" fill="#404040">
                        <set attributeName="fill" to="#808080" begin="arrowLeft.mouseover" end="arrowLeft.mouseout"/>
                  </use>
                  <path fill="none" stroke="white" stroke-width="1.5" d="M0,-3.0v7 M-2.5,-0.5L0,-3.0L2.5,-0.5"/>
                </g>
        </g>
        <svg viewBox="0 0 15 15" width="100%" height="30px" preserveAspectRatio="xMaxYMin meet">
         <g id="arrow_out" transform="scale(0.3 0.3)">
          <a xlink:href="ObjectsManager_8cxx__incl_org.svg" target="_base">
           <rect id="button" ry="5" rx="5" y="6" x="6" height="38" width="38"
                fill="#f2f5e9" fill-opacity="0.5" stroke="#606060" stroke-width="1.0"/>
           <path id="arrow"
             d="M 11.500037,31.436501 C 11.940474,20.09759 22.043105,11.32322 32.158766,21.979434 L 37.068811,17.246167 C 37.068811,17.246167 37.088388,32 37.088388,32 L 22.160133,31.978069 C 22.160133,31.978069 26.997745,27.140456 26.997745,27.140456 C 18.528582,18.264221 13.291696,25.230495 11.500037,31.436501 z"
             style="fill:#404040;"/>
          </a>
         </g>
        </svg>
</svg>
