<?xml version="1.0" encoding="UTF-8" standalone="no"?>
<!DOCTYPE svg PUBLIC "-//W3C//DTD SVG 1.1//EN"
 "http://www.w3.org/Graphics/SVG/1.1/DTD/svg11.dtd">
<!-- Generated by graphviz version 2.38.0 (20140413.2041)
 -->
<!-- Title: Framework/include/QualityControl/ObjectsManager.h Pages: 1 -->
<!--zoomable 240 -->
<svg id="main" version="1.1" xmlns="http://www.w3.org/2000/svg" xmlns:xlink="http://www.w3.org/1999/xlink" xml:space="preserve" onload="init(evt)">
<style type="text/css"><![CDATA[
.edge:hover path { stroke: red; }
.edge:hover polygon { stroke: red; fill: red; }
]]></style>
<script type="text/javascript"><![CDATA[
var edges = document.getElementsByTagName('g');
if (edges && edges.length) {
  for (var i=0;i<edges.length;i++) {
    if (edges[i].id.substr(0,4)=='edge') {
      edges[i].setAttribute('class','edge');
    }
  }
}
]]></script>
        <defs>
                <circle id="rim" cx="0" cy="0" r="7"/>
                <circle id="rim2" cx="0" cy="0" r="3.5"/>
                <g id="zoomPlus">
                        <use xlink:href="#rim" fill="#404040">
                                <set attributeName="fill" to="#808080" begin="zoomplus.mouseover" end="zoomplus.mouseout"/>
                        </use>
                        <path d="M-4,0h8M0,-4v8" fill="none" stroke="white" stroke-width="1.5" pointer-events="none"/>
                </g>
                <g id="zoomMin">
                        <use xlink:href="#rim" fill="#404040">
                                <set attributeName="fill" to="#808080" begin="zoomminus.mouseover" end="zoomminus.mouseout"/>
                        </use>
                        <path d="M-4,0h8" fill="none" stroke="white" stroke-width="1.5" pointer-events="none"/>
                </g>
                <g id="dirArrow">
                        <path fill="none" stroke="white" stroke-width="1.5" d="M0,-3.0v7 M-2.5,-0.5L0,-3.0L2.5,-0.5"/>
                </g>
               <g id="resetDef">
                       <use xlink:href="#rim2" fill="#404040">
                               <set attributeName="fill" to="#808080" begin="reset.mouseover" end="reset.mouseout"/>
                       </use>
               </g>
        </defs>

<script type="text/javascript">
var viewWidth = 3945;
var viewHeight = 240;
var sectionId = 'dynsection-1';
</script>
<script xlink:href="svgpan.js"/>
<svg id="graph" class="graph">
<g id="viewport">
<title>Framework/include/QualityControl/ObjectsManager.h</title>
<!-- Node1 -->
<g id="node1" class="node"><title>Node1</title>
<polygon fill="#bfbfbf" stroke="black" points="2944.5,-201.5 2944.5,-231.5 3077.5,-231.5 3077.5,-201.5 2944.5,-201.5"/>
<text text-anchor="start" x="2952.5" y="-219.5" font-family="Helvetica,sans-Serif" font-size="10.00">Framework/include/Quality</text>
<text text-anchor="middle" x="3011" y="-208.5" font-family="Helvetica,sans-Serif" font-size="10.00">Control/ObjectsManager.h</text>
</g>
<!-- Node2 -->
<g id="node2" class="node"><title>Node2</title>
<g id="a_node2"><a xlink:href="TaskInterface_8h.html" target="_top" xlink:title="Framework/include/Quality\lControl/TaskInterface.h">
<polygon fill="none" stroke="black" points="2772.5,-134.5 2772.5,-164.5 2905.5,-164.5 2905.5,-134.5 2772.5,-134.5"/>
<text text-anchor="start" x="2780.5" y="-152.5" font-family="Helvetica,sans-Serif" font-size="10.00">Framework/include/Quality</text>
<text text-anchor="middle" x="2839" y="-141.5" font-family="Helvetica,sans-Serif" font-size="10.00">Control/TaskInterface.h</text>
</a>
</g>
</g>
<!-- Node1&#45;&gt;Node2 -->
<g id="edge1" class="edge"><title>Node1&#45;&gt;Node2</title>
<path fill="none" stroke="midnightblue" d="M2964.21,-197.819C2936.57,-187.371 2902.04,-174.323 2876.25,-164.577"/>
<polygon fill="midnightblue" stroke="midnightblue" points="2963.09,-201.135 2973.68,-201.396 2965.56,-194.587 2963.09,-201.135"/>
</g>
<!-- Node8 -->
<g id="node8" class="node"><title>Node8</title>
<polygon fill="none" stroke="#bfbfbf" points="1525,-0.5 1525,-30.5 1639,-30.5 1639,-0.5 1525,-0.5"/>
<text text-anchor="start" x="1533" y="-18.5" font-family="Helvetica,sans-Serif" font-size="10.00">Modules/Example/test</text>
<text text-anchor="middle" x="1582" y="-7.5" font-family="Helvetica,sans-Serif" font-size="10.00">/testFactory.cxx</text>
</g>
<!-- Node1&#45;&gt;Node8 -->
<g id="edge47" class="edge"><title>Node1&#45;&gt;Node8</title>
<path fill="none" stroke="midnightblue" d="M2934.17,-212.742C2661.48,-202.436 1750.34,-163.383 1638,-98 1611.74,-82.7155 1595.02,-49.6061 1587.2,-30.627"/>
<polygon fill="midnightblue" stroke="midnightblue" points="2934.25,-216.248 2944.37,-213.126 2934.51,-209.253 2934.25,-216.248"/>
</g>
<!-- Node40 -->
<g id="node40" class="node"><title>Node40</title>
<g id="a_node40"><a xlink:href="ObjectsManager_8cxx.html" target="_top" xlink:title="Framework/src/ObjectsManager.cxx">
<polygon fill="none" stroke="black" points="2923.5,-140 2923.5,-159 3098.5,-159 3098.5,-140 2923.5,-140"/>
<text text-anchor="middle" x="3011" y="-147" font-family="Helvetica,sans-Serif" font-size="10.00">Framework/src/ObjectsManager.cxx</text>
</a>
</g>
</g>
<!-- Node1&#45;&gt;Node40 -->
<g id="edge44" class="edge"><title>Node1&#45;&gt;Node40</title>
<path fill="none" stroke="midnightblue" d="M3011,-191.25C3011,-180.017 3011,-167.377 3011,-159.195"/>
<polygon fill="midnightblue" stroke="midnightblue" points="3007.5,-191.396 3011,-201.396 3014.5,-191.396 3007.5,-191.396"/>
</g>
<!-- Node41 -->
<g id="node41" class="node"><title>Node41</title>
<polygon fill="none" stroke="#bfbfbf" points="3117,-134.5 3117,-164.5 3255,-164.5 3255,-134.5 3117,-134.5"/>
<text text-anchor="start" x="3125" y="-152.5" font-family="Helvetica,sans-Serif" font-size="10.00">Framework/test/testObjects</text>
<text text-anchor="middle" x="3186" y="-141.5" font-family="Helvetica,sans-Serif" font-size="10.00">Manager.cxx</text>
</g>
<!-- Node1&#45;&gt;Node41 -->
<g id="edge45" class="edge"><title>Node1&#45;&gt;Node41</title>
<path fill="none" stroke="midnightblue" d="M3058.6,-197.819C3086.73,-187.371 3121.86,-174.323 3148.1,-164.577"/>
<polygon fill="midnightblue" stroke="midnightblue" points="3057.13,-194.633 3048.97,-201.396 3059.57,-201.195 3057.13,-194.633"/>
</g>
<!-- Node42 -->
<g id="node42" class="node"><title>Node42</title>
<g id="a_node42"><a xlink:href="testPublisher_8cxx.html" target="_top" xlink:title="Framework/test/testPublisher.cxx">
<polygon fill="none" stroke="black" points="3273,-140 3273,-159 3437,-159 3437,-140 3273,-140"/>
<text text-anchor="middle" x="3355" y="-147" font-family="Helvetica,sans-Serif" font-size="10.00">Framework/test/testPublisher.cxx</text>
</a>
</g>
</g>
<!-- Node1&#45;&gt;Node42 -->
<g id="edge46" class="edge"><title>Node1&#45;&gt;Node42</title>
<path fill="none" stroke="midnightblue" d="M3087.58,-201.03C3155.81,-188.137 3253.35,-169.707 3309.83,-159.035"/>
<polygon fill="midnightblue" stroke="midnightblue" points="3086.91,-197.594 3077.73,-202.89 3088.21,-204.473 3086.91,-197.594"/>
</g>
<!-- Node3 -->
<g id="node3" class="node"><title>Node3</title>
<g id="a_node3"><a xlink:href="TaskFactory_8h.html" target="_top" xlink:title="Framework/include/Quality\lControl/TaskFactory.h">
<polygon fill="none" stroke="black" points="1647.5,-67.5 1647.5,-97.5 1780.5,-97.5 1780.5,-67.5 1647.5,-67.5"/>
<text text-anchor="start" x="1655.5" y="-85.5" font-family="Helvetica,sans-Serif" font-size="10.00">Framework/include/Quality</text>
<text text-anchor="middle" x="1714" y="-74.5" font-family="Helvetica,sans-Serif" font-size="10.00">Control/TaskFactory.h</text>
</a>
</g>
</g>
<!-- Node2&#45;&gt;Node3 -->
<g id="edge2" class="edge"><title>Node2&#45;&gt;Node3</title>
<path fill="none" stroke="midnightblue" d="M2762.15,-144.06C2553.19,-131.987 1977.25,-98.71 1780.73,-87.3553"/>
<polygon fill="midnightblue" stroke="midnightblue" points="2762.23,-147.57 2772.41,-144.653 2762.63,-140.582 2762.23,-147.57"/>
</g>
<!-- Node6 -->
<g id="node6" class="node"><title>Node6</title>
<g id="a_node6"><a xlink:href="testTaskInterface_8cxx.html" target="_top" xlink:title="Framework/test/testTaskInterface.cxx">
<polygon fill="none" stroke="black" points="1019.5,-6 1019.5,-25 1202.5,-25 1202.5,-6 1019.5,-6"/>
<text text-anchor="middle" x="1111" y="-13" font-family="Helvetica,sans-Serif" font-size="10.00">Framework/test/testTaskInterface.cxx</text>
</a>
</g>
</g>
<!-- Node2&#45;&gt;Node6 -->
<g id="edge21" class="edge"><title>Node2&#45;&gt;Node6</title>
<path fill="none" stroke="midnightblue" d="M2762.22,-148.233C2571.53,-146.925 2061.18,-139.489 1638,-98 1457.87,-80.3397 1245.52,-42.1224 1155.21,-25.0451"/>
<polygon fill="midnightblue" stroke="midnightblue" points="2762.4,-151.734 2772.42,-148.299 2762.44,-144.734 2762.4,-151.734"/>
</g>
<!-- Node14 -->
<g id="node14" class="node"><title>Node14</title>
<g id="a_node14"><a xlink:href="TaskRunner_8h.html" target="_top" xlink:title="Framework/include/Quality\lControl/TaskRunner.h">
<polygon fill="none" stroke="black" points="496.5,-67.5 496.5,-97.5 629.5,-97.5 629.5,-67.5 496.5,-67.5"/>
<text text-anchor="start" x="504.5" y="-85.5" font-family="Helvetica,sans-Serif" font-size="10.00">Framework/include/Quality</text>
<text text-anchor="middle" x="563" y="-74.5" font-family="Helvetica,sans-Serif" font-size="10.00">Control/TaskRunner.h</text>
</a>
</g>
</g>
<!-- Node2&#45;&gt;Node14 -->
<g id="edge13" class="edge"><title>Node2&#45;&gt;Node14</title>
<path fill="none" stroke="midnightblue" d="M2762.36,-146.311C2411.2,-136.283 959.028,-94.8101 629.647,-85.4034"/>
<polygon fill="midnightblue" stroke="midnightblue" points="2762.33,-149.812 2772.42,-146.599 2762.53,-142.814 2762.33,-149.812"/>
</g>
<!-- Node20 -->
<g id="node20" class="node"><title>Node20</title>
<g id="a_node20"><a xlink:href="TaskInterface_8cxx.html" target="_top" xlink:title="Framework/src/TaskInterface.cxx">
<polygon fill="none" stroke="black" points="2680,-73 2680,-92 2844,-92 2844,-73 2680,-73"/>
<text text-anchor="middle" x="2762" y="-80" font-family="Helvetica,sans-Serif" font-size="10.00">Framework/src/TaskInterface.cxx</text>
</a>
</g>
</g>
<!-- Node2&#45;&gt;Node20 -->
<g id="edge20" class="edge"><title>Node2&#45;&gt;Node20</title>
<path fill="none" stroke="midnightblue" d="M2814.33,-127.672C2800.11,-115.671 2782.99,-101.22 2772.3,-92.1945"/>
<polygon fill="midnightblue" stroke="midnightblue" points="2812.39,-130.62 2822.29,-134.396 2816.91,-125.271 2812.39,-130.62"/>
</g>
<!-- Node21 -->
<g id="node21" class="node"><title>Node21</title>
<g id="a_node21"><a xlink:href="DaqTask_8h.html" target="_top" xlink:title="Modules/Daq/include\l/Daq/DaqTask.h">
<polygon fill="none" stroke="black" points="2862,-67.5 2862,-97.5 2970,-97.5 2970,-67.5 2862,-67.5"/>
<text text-anchor="start" x="2870" y="-85.5" font-family="Helvetica,sans-Serif" font-size="10.00">Modules/Daq/include</text>
<text text-anchor="middle" x="2916" y="-74.5" font-family="Helvetica,sans-Serif" font-size="10.00">/Daq/DaqTask.h</text>
</a>
</g>
</g>
<!-- Node2&#45;&gt;Node21 -->
<g id="edge22" class="edge"><title>Node2&#45;&gt;Node21</title>
<path fill="none" stroke="midnightblue" d="M2863.42,-127.883C2875.12,-118.005 2888.84,-106.429 2899.32,-97.5765"/>
<polygon fill="midnightblue" stroke="midnightblue" points="2861.09,-125.271 2855.71,-134.396 2865.61,-130.62 2861.09,-125.271"/>
</g>
<!-- Node24 -->
<g id="node24" class="node"><title>Node24</title>
<g id="a_node24"><a xlink:href="DigitsQcTask_8h.html" target="_top" xlink:title="Modules/EMCAL/include\l/EMCAL/DigitsQcTask.h">
<polygon fill="none" stroke="black" points="2989.5,-67.5 2989.5,-97.5 3114.5,-97.5 3114.5,-67.5 2989.5,-67.5"/>
<text text-anchor="start" x="2997.5" y="-85.5" font-family="Helvetica,sans-Serif" font-size="10.00">Modules/EMCAL/include</text>
<text text-anchor="middle" x="3052" y="-74.5" font-family="Helvetica,sans-Serif" font-size="10.00">/EMCAL/DigitsQcTask.h</text>
</a>
</g>
</g>
<!-- Node2&#45;&gt;Node24 -->
<g id="edge25" class="edge"><title>Node2&#45;&gt;Node24</title>
<path fill="none" stroke="midnightblue" d="M2894.89,-131.444C2929.42,-120.908 2973.19,-107.549 3005.76,-97.6109"/>
<polygon fill="midnightblue" stroke="midnightblue" points="2893.5,-128.21 2884.96,-134.476 2895.54,-134.905 2893.5,-128.21"/>
</g>
<!-- Node26 -->
<g id="node26" class="node"><title>Node26</title>
<g id="a_node26"><a xlink:href="RawTask_8h.html" target="_top" xlink:title="Modules/EMCAL/include\l/EMCAL/RawTask.h">
<polygon fill="none" stroke="black" points="3135.5,-67.5 3135.5,-97.5 3260.5,-97.5 3260.5,-67.5 3135.5,-67.5"/>
<text text-anchor="start" x="3143.5" y="-85.5" font-family="Helvetica,sans-Serif" font-size="10.00">Modules/EMCAL/include</text>
<text text-anchor="middle" x="3198" y="-74.5" font-family="Helvetica,sans-Serif" font-size="10.00">/EMCAL/RawTask.h</text>
</a>
</g>
</g>
<!-- Node2&#45;&gt;Node26 -->
<g id="edge27" class="edge"><title>Node2&#45;&gt;Node26</title>
<path fill="none" stroke="midnightblue" d="M2915.74,-133.703C3008.41,-116.892 3033.45,-114.367 3123,-98 3127.04,-97.2608 3131.21,-96.4881 3135.41,-95.7007"/>
<polygon fill="midnightblue" stroke="midnightblue" points="2914.85,-130.307 2905.64,-135.543 2916.11,-137.194 2914.85,-130.307"/>
</g>
<!-- Node28 -->
<g id="node28" class="node"><title>Node28</title>
<g id="a_node28"><a xlink:href="BenchmarkTask_8h.html" target="_top" xlink:title="Modules/Example/include\l/Example/BenchmarkTask.h">
<polygon fill="none" stroke="black" points="3284,-67.5 3284,-97.5 3424,-97.5 3424,-67.5 3284,-67.5"/>
<text text-anchor="start" x="3292" y="-85.5" font-family="Helvetica,sans-Serif" font-size="10.00">Modules/Example/include</text>
<text text-anchor="middle" x="3354" y="-74.5" font-family="Helvetica,sans-Serif" font-size="10.00">/Example/BenchmarkTask.h</text>
</a>
</g>
</g>
<!-- Node2&#45;&gt;Node28 -->
<g id="edge29" class="edge"><title>Node2&#45;&gt;Node28</title>
<path fill="none" stroke="midnightblue" d="M2915.62,-133.842C3072.63,-111.258 3115.08,-118.908 3269,-98 3273.75,-97.3552 3278.64,-96.645 3283.56,-95.8959"/>
<polygon fill="midnightblue" stroke="midnightblue" points="2914.99,-130.396 2905.6,-135.301 2916,-137.323 2914.99,-130.396"/>
</g>
<!-- Node30 -->
<g id="node30" class="node"><title>Node30</title>
<g id="a_node30"><a xlink:href="ExampleCondition_8h.html" target="_top" xlink:title="Modules/Example/include\l/Example/ExampleCondition.h">
<polygon fill="none" stroke="black" points="3453.5,-67.5 3453.5,-97.5 3602.5,-97.5 3602.5,-67.5 3453.5,-67.5"/>
<text text-anchor="start" x="3461.5" y="-85.5" font-family="Helvetica,sans-Serif" font-size="10.00">Modules/Example/include</text>
<text text-anchor="middle" x="3528" y="-74.5" font-family="Helvetica,sans-Serif" font-size="10.00">/Example/ExampleCondition.h</text>
</a>
</g>
</g>
<!-- Node2&#45;&gt;Node30 -->
<g id="edge31" class="edge"><title>Node2&#45;&gt;Node30</title>
<path fill="none" stroke="midnightblue" d="M2915.58,-133.895C3145,-104.542 3206.44,-123.105 3433,-98 3439.63,-97.265 3446.51,-96.4057 3453.4,-95.4789"/>
<polygon fill="midnightblue" stroke="midnightblue" points="2915.05,-130.434 2905.59,-135.19 2915.95,-137.376 2915.05,-130.434"/>
</g>
<!-- Node32 -->
<g id="node32" class="node"><title>Node32</title>
<g id="a_node32"><a xlink:href="ExampleTask_8h.html" target="_top" xlink:title="Modules/Example/include\l/Example/ExampleTask.h">
<polygon fill="none" stroke="black" points="2204.5,-67.5 2204.5,-97.5 2333.5,-97.5 2333.5,-67.5 2204.5,-67.5"/>
<text text-anchor="start" x="2212.5" y="-85.5" font-family="Helvetica,sans-Serif" font-size="10.00">Modules/Example/include</text>
<text text-anchor="middle" x="2269" y="-74.5" font-family="Helvetica,sans-Serif" font-size="10.00">/Example/ExampleTask.h</text>
</a>
</g>
</g>
<!-- Node2&#45;&gt;Node32 -->
<g id="edge33" class="edge"><title>Node2&#45;&gt;Node32</title>
<path fill="none" stroke="midnightblue" d="M2762.53,-139.78C2649.47,-126.887 2439.68,-102.964 2333.77,-90.8855"/>
<polygon fill="midnightblue" stroke="midnightblue" points="2762.17,-143.261 2772.5,-140.916 2762.96,-136.306 2762.17,-143.261"/>
</g>
<!-- Node34 -->
<g id="node34" class="node"><title>Node34</title>
<g id="a_node34"><a xlink:href="SkeletonTask_8h.html" target="_top" xlink:title="Modules/Skeleton/include\l/Skeleton/SkeletonTask.h">
<polygon fill="none" stroke="black" points="2531.5,-67.5 2531.5,-97.5 2660.5,-97.5 2660.5,-67.5 2531.5,-67.5"/>
<text text-anchor="start" x="2539.5" y="-85.5" font-family="Helvetica,sans-Serif" font-size="10.00">Modules/Skeleton/include</text>
<text text-anchor="middle" x="2596" y="-74.5" font-family="Helvetica,sans-Serif" font-size="10.00">/Skeleton/SkeletonTask.h</text>
</a>
</g>
</g>
<!-- Node2&#45;&gt;Node34 -->
<g id="edge37" class="edge"><title>Node2&#45;&gt;Node34</title>
<path fill="none" stroke="midnightblue" d="M2776.75,-131.85C2737.14,-121.252 2686.39,-107.677 2648.75,-97.6109"/>
<polygon fill="midnightblue" stroke="midnightblue" points="2776.01,-135.273 2786.57,-134.476 2777.82,-128.511 2776.01,-135.273"/>
</g>
<!-- Node36 -->
<g id="node36" class="node"><title>Node36</title>
<g id="a_node36"><a xlink:href="TOFTask_8h.html" target="_top" xlink:title="Modules/TOF/include\l/TOF/TOFTask.h">
<polygon fill="none" stroke="black" points="3643,-67.5 3643,-97.5 3753,-97.5 3753,-67.5 3643,-67.5"/>
<text text-anchor="start" x="3651" y="-85.5" font-family="Helvetica,sans-Serif" font-size="10.00">Modules/TOF/include</text>
<text text-anchor="middle" x="3698" y="-74.5" font-family="Helvetica,sans-Serif" font-size="10.00">/TOF/TOFTask.h</text>
</a>
</g>
</g>
<!-- Node2&#45;&gt;Node36 -->
<g id="edge40" class="edge"><title>Node2&#45;&gt;Node36</title>
<path fill="none" stroke="midnightblue" d="M2915.69,-133.908C3223.67,-97.2148 3305.94,-131.191 3611,-98 3621.35,-96.8737 3632.34,-95.3227 3642.9,-93.6521"/>
<polygon fill="midnightblue" stroke="midnightblue" points="2915.09,-130.456 2905.58,-135.129 2915.93,-137.405 2915.09,-130.456"/>
</g>
<!-- Node38 -->
<g id="node38" class="node"><title>Node38</title>
<g id="a_node38"><a xlink:href="PID_8h.html" target="_top" xlink:title="Modules/TPC/include\l/TPC/PID.h">
<polygon fill="none" stroke="black" points="3815,-67.5 3815,-97.5 3925,-97.5 3925,-67.5 3815,-67.5"/>
<text text-anchor="start" x="3823" y="-85.5" font-family="Helvetica,sans-Serif" font-size="10.00">Modules/TPC/include</text>
<text text-anchor="middle" x="3870" y="-74.5" font-family="Helvetica,sans-Serif" font-size="10.00">/TPC/PID.h</text>
</a>
</g>
</g>
<!-- Node2&#45;&gt;Node38 -->
<g id="edge42" class="edge"><title>Node2&#45;&gt;Node38</title>
<path fill="none" stroke="midnightblue" d="M2915.61,-133.929C3290.4,-90.7924 3389.53,-130.841 3762,-98 3779.24,-96.4796 3797.96,-94.1937 3814.89,-91.8837"/>
<polygon fill="midnightblue" stroke="midnightblue" points="2915.1,-130.464 2905.58,-135.096 2915.91,-137.418 2915.1,-130.464"/>
</g>
<!-- Node4 -->
<g id="node4" class="node"><title>Node4</title>
<g id="a_node4"><a xlink:href="TaskFactory_8cxx.html" target="_top" xlink:title="Framework/src/TaskFactory.cxx">
<polygon fill="none" stroke="black" points="1221,-6 1221,-25 1379,-25 1379,-6 1221,-6"/>
<text text-anchor="middle" x="1300" y="-13" font-family="Helvetica,sans-Serif" font-size="10.00">Framework/src/TaskFactory.cxx</text>
</a>
</g>
</g>
<!-- Node3&#45;&gt;Node4 -->
<g id="edge3" class="edge"><title>Node3&#45;&gt;Node4</title>
<path fill="none" stroke="midnightblue" d="M1637.56,-69.8709C1571.47,-59.7664 1473.4,-44.6495 1388,-31 1376.07,-29.0938 1363.25,-27.0031 1351.17,-25.0173"/>
<polygon fill="midnightblue" stroke="midnightblue" points="1637.06,-73.3357 1647.48,-71.3865 1638.12,-66.416 1637.06,-73.3357"/>
</g>
<!-- Node5 -->
<g id="node5" class="node"><title>Node5</title>
<g id="a_node5"><a xlink:href="TaskRunner_8cxx.html" target="_top" xlink:title="Framework/src/TaskRunner.cxx">
<polygon fill="none" stroke="black" points="844.5,-6 844.5,-25 1001.5,-25 1001.5,-6 844.5,-6"/>
<text text-anchor="middle" x="923" y="-13" font-family="Helvetica,sans-Serif" font-size="10.00">Framework/src/TaskRunner.cxx</text>
</a>
</g>
</g>
<!-- Node3&#45;&gt;Node5 -->
<g id="edge4" class="edge"><title>Node3&#45;&gt;Node5</title>
<path fill="none" stroke="midnightblue" d="M1637.09,-78.3409C1507.42,-72.487 1237.17,-58.0182 1010,-31 996.771,-29.4266 982.486,-27.248 969.39,-25.0572"/>
<polygon fill="midnightblue" stroke="midnightblue" points="1637.17,-81.8477 1647.32,-78.7977 1637.48,-74.8547 1637.17,-81.8477"/>
</g>
<!-- Node3&#45;&gt;Node6 -->
<g id="edge5" class="edge"><title>Node3&#45;&gt;Node6</title>
<path fill="none" stroke="midnightblue" d="M1637.14,-74.787C1538.55,-65.9417 1362.32,-49.3425 1212,-31 1197.49,-29.2298 1181.85,-27.0946 1167.3,-25.0136"/>
<polygon fill="midnightblue" stroke="midnightblue" points="1637.04,-78.2919 1647.31,-75.6967 1637.67,-71.3197 1637.04,-78.2919"/>
</g>
<!-- Node7 -->
<g id="node7" class="node"><title>Node7</title>
<g id="a_node7"><a xlink:href="testEMCAL_8cxx.html" target="_top" xlink:title="Modules/EMCAL/test\l/testEMCAL.cxx">
<polygon fill="none" stroke="black" points="1397,-0.5 1397,-30.5 1507,-30.5 1507,-0.5 1397,-0.5"/>
<text text-anchor="start" x="1405" y="-18.5" font-family="Helvetica,sans-Serif" font-size="10.00">Modules/EMCAL/test</text>
<text text-anchor="middle" x="1452" y="-7.5" font-family="Helvetica,sans-Serif" font-size="10.00">/testEMCAL.cxx</text>
</a>
</g>
</g>
<!-- Node3&#45;&gt;Node7 -->
<g id="edge6" class="edge"><title>Node3&#45;&gt;Node7</title>
<path fill="none" stroke="midnightblue" d="M1647.56,-65.0175C1604.12,-54.2388 1548.04,-40.326 1507.08,-30.1645"/>
<polygon fill="midnightblue" stroke="midnightblue" points="1646.92,-68.465 1657.47,-67.476 1648.61,-61.671 1646.92,-68.465"/>
</g>
<!-- Node3&#45;&gt;Node8 -->
<g id="edge7" class="edge"><title>Node3&#45;&gt;Node8</title>
<path fill="none" stroke="midnightblue" d="M1676.13,-62.8533C1655.26,-52.5761 1629.77,-40.0252 1610.59,-30.5765"/>
<polygon fill="midnightblue" stroke="midnightblue" points="1674.84,-66.1182 1685.36,-67.396 1677.93,-59.8383 1674.84,-66.1182"/>
</g>
<!-- Node9 -->
<g id="node9" class="node"><title>Node9</title>
<g id="a_node9"><a xlink:href="testQcExample_8cxx.html" target="_top" xlink:title="Modules/Example/test\l/testQcExample.cxx">
<polygon fill="none" stroke="black" points="2146,-0.5 2146,-30.5 2260,-30.5 2260,-0.5 2146,-0.5"/>
<text text-anchor="start" x="2154" y="-18.5" font-family="Helvetica,sans-Serif" font-size="10.00">Modules/Example/test</text>
<text text-anchor="middle" x="2203" y="-7.5" font-family="Helvetica,sans-Serif" font-size="10.00">/testQcExample.cxx</text>
</a>
</g>
</g>
<!-- Node3&#45;&gt;Node9 -->
<g id="edge8" class="edge"><title>Node3&#45;&gt;Node9</title>
<path fill="none" stroke="midnightblue" d="M1790.85,-74.4948C1875.67,-66.2543 2016.07,-51.1071 2136,-31 2139.17,-30.4687 2142.41,-29.8881 2145.69,-29.2746"/>
<polygon fill="midnightblue" stroke="midnightblue" points="1790.41,-71.0214 1780.79,-75.4653 1791.08,-77.989 1790.41,-71.0214"/>
</g>
<!-- Node10 -->
<g id="node10" class="node"><title>Node10</title>
<polygon fill="none" stroke="#bfbfbf" points="1657,-0.5 1657,-30.5 1771,-30.5 1771,-0.5 1657,-0.5"/>
<text text-anchor="start" x="1665" y="-18.5" font-family="Helvetica,sans-Serif" font-size="10.00">Modules/Skeleton/test</text>
<text text-anchor="middle" x="1714" y="-7.5" font-family="Helvetica,sans-Serif" font-size="10.00">/.testEmpty.cxx</text>
</g>
<!-- Node3&#45;&gt;Node10 -->
<g id="edge9" class="edge"><title>Node3&#45;&gt;Node10</title>
<path fill="none" stroke="midnightblue" d="M1714,-57.1081C1714,-48.1539 1714,-38.3227 1714,-30.5765"/>
<polygon fill="midnightblue" stroke="midnightblue" points="1710.5,-57.3959 1714,-67.396 1717.5,-57.396 1710.5,-57.3959"/>
</g>
<!-- Node11 -->
<g id="node11" class="node"><title>Node11</title>
<g id="a_node11"><a xlink:href="testQcSkeleton_8cxx.html" target="_top" xlink:title="Modules/Skeleton/test\l/testQcSkeleton.cxx">
<polygon fill="none" stroke="black" points="2408,-0.5 2408,-30.5 2522,-30.5 2522,-0.5 2408,-0.5"/>
<text text-anchor="start" x="2416" y="-18.5" font-family="Helvetica,sans-Serif" font-size="10.00">Modules/Skeleton/test</text>
<text text-anchor="middle" x="2465" y="-7.5" font-family="Helvetica,sans-Serif" font-size="10.00">/testQcSkeleton.cxx</text>
</a>
</g>
</g>
<!-- Node3&#45;&gt;Node11 -->
<g id="edge10" class="edge"><title>Node3&#45;&gt;Node11</title>
<path fill="none" stroke="midnightblue" d="M1790.86,-79.3179C1917.83,-74.9323 2179.13,-62.6064 2398,-31 2401.18,-30.5407 2404.44,-30.0171 2407.71,-29.4477"/>
<polygon fill="midnightblue" stroke="midnightblue" points="1790.72,-75.8206 1780.84,-79.657 1790.96,-82.8165 1790.72,-75.8206"/>
</g>
<!-- Node12 -->
<g id="node12" class="node"><title>Node12</title>
<g id="a_node12"><a xlink:href="testTOF_8cxx.html" target="_top" xlink:title="Modules/TOF/test/testTOF.cxx">
<polygon fill="none" stroke="black" points="1789.5,-6 1789.5,-25 1942.5,-25 1942.5,-6 1789.5,-6"/>
<text text-anchor="middle" x="1866" y="-13" font-family="Helvetica,sans-Serif" font-size="10.00">Modules/TOF/test/testTOF.cxx</text>
</a>
</g>
</g>
<!-- Node3&#45;&gt;Node12 -->
<g id="edge11" class="edge"><title>Node3&#45;&gt;Node12</title>
<path fill="none" stroke="midnightblue" d="M1756.19,-63.4585C1785.56,-50.9001 1823.38,-34.724 1846.11,-25.007"/>
<polygon fill="midnightblue" stroke="midnightblue" points="1754.8,-60.2459 1746.98,-67.396 1757.55,-66.6821 1754.8,-60.2459"/>
</g>
<!-- Node13 -->
<g id="node13" class="node"><title>Node13</title>
<polygon fill="none" stroke="#bfbfbf" points="1960.5,-6 1960.5,-25 2127.5,-25 2127.5,-6 1960.5,-6"/>
<text text-anchor="middle" x="2044" y="-13" font-family="Helvetica,sans-Serif" font-size="10.00">Modules/TPC/test/testQcTPC.cxx</text>
</g>
<!-- Node3&#45;&gt;Node13 -->
<g id="edge12" class="edge"><title>Node3&#45;&gt;Node13</title>
<path fill="none" stroke="midnightblue" d="M1790.6,-66.4112C1855.8,-53.5706 1947.11,-35.5851 2000.46,-25.077"/>
<polygon fill="midnightblue" stroke="midnightblue" points="1789.92,-62.9796 1780.78,-68.3463 1791.27,-69.8477 1789.92,-62.9796"/>
</g>
<!-- Node14&#45;&gt;Node5 -->
<g id="edge17" class="edge"><title>Node14&#45;&gt;Node5</title>
<path fill="none" stroke="midnightblue" d="M639.736,-67.6449C711.262,-54.7305 815.661,-35.8806 875.714,-25.0377"/>
<polygon fill="midnightblue" stroke="midnightblue" points="639.089,-64.2051 629.87,-69.4263 640.332,-71.0937 639.089,-64.2051"/>
</g>
<!-- Node15 -->
<g id="node15" class="node"><title>Node15</title>
<polygon fill="none" stroke="#bfbfbf" points="0,-6 0,-25 132,-25 132,-6 0,-6"/>
<text text-anchor="middle" x="66" y="-13" font-family="Helvetica,sans-Serif" font-size="10.00">Framework/src/Check.cxx</text>
</g>
<!-- Node14&#45;&gt;Node15 -->
<g id="edge14" class="edge"><title>Node14&#45;&gt;Node15</title>
<path fill="none" stroke="midnightblue" d="M486.231,-73.9885C401.485,-65.307 261.142,-49.7775 141,-31 129.994,-29.2798 118.135,-27.1273 107.169,-25.0114"/>
<polygon fill="midnightblue" stroke="midnightblue" points="485.982,-77.4812 496.285,-75.0131 486.691,-70.5172 485.982,-77.4812"/>
</g>
<!-- Node16 -->
<g id="node16" class="node"><title>Node16</title>
<g id="a_node16"><a xlink:href="CheckRunner_8cxx.html" target="_top" xlink:title="Framework/src/CheckRunner.cxx">
<polygon fill="none" stroke="black" points="150,-6 150,-25 314,-25 314,-6 150,-6"/>
<text text-anchor="middle" x="232" y="-13" font-family="Helvetica,sans-Serif" font-size="10.00">Framework/src/CheckRunner.cxx</text>
</a>
</g>
</g>
<!-- Node14&#45;&gt;Node16 -->
<g id="edge15" class="edge"><title>Node14&#45;&gt;Node16</title>
<path fill="none" stroke="midnightblue" d="M486.537,-66.4845C420.971,-53.6091 328.859,-35.5207 275.301,-25.0032"/>
<polygon fill="midnightblue" stroke="midnightblue" points="485.928,-69.9319 496.415,-68.4245 487.277,-63.063 485.928,-69.9319"/>
</g>
<!-- Node17 -->
<g id="node17" class="node"><title>Node17</title>
<g id="a_node17"><a xlink:href="InfrastructureGenerator_8cxx.html" target="_top" xlink:title="Framework/src/Infrastructure\lGenerator.cxx">
<polygon fill="none" stroke="black" points="332.5,-0.5 332.5,-30.5 475.5,-30.5 475.5,-0.5 332.5,-0.5"/>
<text text-anchor="start" x="340.5" y="-18.5" font-family="Helvetica,sans-Serif" font-size="10.00">Framework/src/Infrastructure</text>
<text text-anchor="middle" x="404" y="-7.5" font-family="Helvetica,sans-Serif" font-size="10.00">Generator.cxx</text>
</a>
</g>
</g>
<!-- Node14&#45;&gt;Node17 -->
<g id="edge16" class="edge"><title>Node14&#45;&gt;Node17</title>
<path fill="none" stroke="midnightblue" d="M519.077,-63.5442C493.634,-53.143 462.067,-40.238 438.433,-30.5765"/>
<polygon fill="midnightblue" stroke="midnightblue" points="517.919,-66.8516 528.499,-67.396 520.567,-60.3721 517.919,-66.8516"/>
</g>
<!-- Node18 -->
<g id="node18" class="node"><title>Node18</title>
<g id="a_node18"><a xlink:href="TaskRunnerFactory_8cxx.html" target="_top" xlink:title="Framework/src/TaskRunner\lFactory.cxx">
<polygon fill="none" stroke="black" points="494,-0.5 494,-30.5 632,-30.5 632,-0.5 494,-0.5"/>
<text text-anchor="start" x="502" y="-18.5" font-family="Helvetica,sans-Serif" font-size="10.00">Framework/src/TaskRunner</text>
<text text-anchor="middle" x="563" y="-7.5" font-family="Helvetica,sans-Serif" font-size="10.00">Factory.cxx</text>
</a>
</g>
</g>
<!-- Node14&#45;&gt;Node18 -->
<g id="edge18" class="edge"><title>Node14&#45;&gt;Node18</title>
<path fill="none" stroke="midnightblue" d="M563,-57.1081C563,-48.1539 563,-38.3227 563,-30.5765"/>
<polygon fill="midnightblue" stroke="midnightblue" points="559.5,-57.3959 563,-67.396 566.5,-57.396 559.5,-57.3959"/>
</g>
<!-- Node19 -->
<g id="node19" class="node"><title>Node19</title>
<g id="a_node19"><a xlink:href="testTaskRunner_8cxx.html" target="_top" xlink:title="Framework/test/testTaskRunner.cxx">
<polygon fill="none" stroke="black" points="650,-6 650,-25 826,-25 826,-6 650,-6"/>
<text text-anchor="middle" x="738" y="-13" font-family="Helvetica,sans-Serif" font-size="10.00">Framework/test/testTaskRunner.cxx</text>
</a>
</g>
</g>
<!-- Node14&#45;&gt;Node19 -->
<g id="edge19" class="edge"><title>Node14&#45;&gt;Node19</title>
<path fill="none" stroke="midnightblue" d="M610.697,-63.7838C644.629,-51.1807 688.709,-34.8082 715.097,-25.007"/>
<polygon fill="midnightblue" stroke="midnightblue" points="609.128,-60.633 600.972,-67.396 611.565,-67.195 609.128,-60.633"/>
</g>
<!-- Node22 -->
<g id="node22" class="node"><title>Node22</title>
<g id="a_node22"><a xlink:href="DaqTask_8cxx.html" target="_top" xlink:title="Modules/Daq/src/DaqTask.cxx">
<polygon fill="none" stroke="black" points="2670,-6 2670,-25 2822,-25 2822,-6 2670,-6"/>
<text text-anchor="middle" x="2746" y="-13" font-family="Helvetica,sans-Serif" font-size="10.00">Modules/Daq/src/DaqTask.cxx</text>
</a>
</g>
</g>
<!-- Node21&#45;&gt;Node22 -->
<g id="edge23" class="edge"><title>Node21&#45;&gt;Node22</title>
<path fill="none" stroke="midnightblue" d="M2869.67,-63.7838C2836.7,-51.1807 2793.88,-34.8082 2768.25,-25.007"/>
<polygon fill="midnightblue" stroke="midnightblue" points="2868.52,-67.0937 2879.11,-67.396 2871.02,-60.5553 2868.52,-67.0937"/>
</g>
<!-- Node23 -->
<g id="node23" class="node"><title>Node23</title>
<g id="a_node23"><a xlink:href="testQcDaq_8cxx.html" target="_top" xlink:title="Modules/Daq/test/testQcDaq.cxx">
<polygon fill="none" stroke="black" points="2840.5,-6 2840.5,-25 3003.5,-25 3003.5,-6 2840.5,-6"/>
<text text-anchor="middle" x="2922" y="-13" font-family="Helvetica,sans-Serif" font-size="10.00">Modules/Daq/test/testQcDaq.cxx</text>
</a>
</g>
</g>
<!-- Node21&#45;&gt;Node23 -->
<g id="edge24" class="edge"><title>Node21&#45;&gt;Node23</title>
<path fill="none" stroke="midnightblue" d="M2918.24,-57.2495C2919.28,-46.017 2920.44,-33.3767 2921.2,-25.1945"/>
<polygon fill="midnightblue" stroke="midnightblue" points="2914.74,-57.1166 2917.3,-67.396 2921.71,-57.76 2914.74,-57.1166"/>
</g>
<!-- Node25 -->
<g id="node25" class="node"><title>Node25</title>
<g id="a_node25"><a xlink:href="DigitsQcTask_8cxx.html" target="_top" xlink:title="Modules/EMCAL/src/Digits\lQcTask.cxx">
<polygon fill="none" stroke="black" points="3022,-0.5 3022,-30.5 3158,-30.5 3158,-0.5 3022,-0.5"/>
<text text-anchor="start" x="3030" y="-18.5" font-family="Helvetica,sans-Serif" font-size="10.00">Modules/EMCAL/src/Digits</text>
<text text-anchor="middle" x="3090" y="-7.5" font-family="Helvetica,sans-Serif" font-size="10.00">QcTask.cxx</text>
</a>
</g>
</g>
<!-- Node24&#45;&gt;Node25 -->
<g id="edge26" class="edge"><title>Node24&#45;&gt;Node25</title>
<path fill="none" stroke="midnightblue" d="M3065.4,-58.5756C3070.86,-49.2406 3076.99,-38.7483 3081.77,-30.5765"/>
<polygon fill="midnightblue" stroke="midnightblue" points="3062.27,-56.9965 3060.25,-67.396 3068.31,-60.5294 3062.27,-56.9965"/>
</g>
<!-- Node27 -->
<g id="node27" class="node"><title>Node27</title>
<g id="a_node27"><a xlink:href="RawTask_8cxx.html" target="_top" xlink:title="Modules/EMCAL/src/RawTask.cxx">
<polygon fill="none" stroke="black" points="3176.5,-6 3176.5,-25 3347.5,-25 3347.5,-6 3176.5,-6"/>
<text text-anchor="middle" x="3262" y="-13" font-family="Helvetica,sans-Serif" font-size="10.00">Modules/EMCAL/src/RawTask.cxx</text>
</a>
</g>
</g>
<!-- Node26&#45;&gt;Node27 -->
<g id="edge28" class="edge"><title>Node26&#45;&gt;Node27</title>
<path fill="none" stroke="midnightblue" d="M3219.17,-59.9967C3230.85,-48.1323 3244.72,-34.0516 3253.44,-25.1945"/>
<polygon fill="midnightblue" stroke="midnightblue" points="3216.41,-57.8146 3211.89,-67.396 3221.4,-62.7259 3216.41,-57.8146"/>
</g>
<!-- Node29 -->
<g id="node29" class="node"><title>Node29</title>
<g id="a_node29"><a xlink:href="BenchmarkTask_8cxx.html" target="_top" xlink:title="Modules/Example/src\l/BenchmarkTask.cxx">
<polygon fill="none" stroke="black" points="3365.5,-0.5 3365.5,-30.5 3476.5,-30.5 3476.5,-0.5 3365.5,-0.5"/>
<text text-anchor="start" x="3373.5" y="-18.5" font-family="Helvetica,sans-Serif" font-size="10.00">Modules/Example/src</text>
<text text-anchor="middle" x="3421" y="-7.5" font-family="Helvetica,sans-Serif" font-size="10.00">/BenchmarkTask.cxx</text>
</a>
</g>
</g>
<!-- Node28&#45;&gt;Node29 -->
<g id="edge30" class="edge"><title>Node28&#45;&gt;Node29</title>
<path fill="none" stroke="midnightblue" d="M3375.84,-60.3115C3385.89,-50.5612 3397.54,-39.259 3406.49,-30.5765"/>
<polygon fill="midnightblue" stroke="midnightblue" points="3373.28,-57.9207 3368.54,-67.396 3378.15,-62.9449 3373.28,-57.9207"/>
</g>
<!-- Node31 -->
<g id="node31" class="node"><title>Node31</title>
<g id="a_node31"><a xlink:href="ExampleCondition_8cxx.html" target="_top" xlink:title="Modules/Example/src\l/ExampleCondition.cxx">
<polygon fill="none" stroke="black" points="3495,-0.5 3495,-30.5 3613,-30.5 3613,-0.5 3495,-0.5"/>
<text text-anchor="start" x="3503" y="-18.5" font-family="Helvetica,sans-Serif" font-size="10.00">Modules/Example/src</text>
<text text-anchor="middle" x="3554" y="-7.5" font-family="Helvetica,sans-Serif" font-size="10.00">/ExampleCondition.cxx</text>
</a>
</g>
</g>
<!-- Node30&#45;&gt;Node31 -->
<g id="edge32" class="edge"><title>Node30&#45;&gt;Node31</title>
<path fill="none" stroke="midnightblue" d="M3537.4,-57.9907C3541.08,-48.8044 3545.17,-38.5781 3548.37,-30.5765"/>
<polygon fill="midnightblue" stroke="midnightblue" points="3534.11,-56.8113 3533.64,-67.396 3540.61,-59.4111 3534.11,-56.8113"/>
</g>
<!-- Node32&#45;&gt;Node8 -->
<g id="edge35" class="edge"><title>Node32&#45;&gt;Node8</title>
<path fill="none" stroke="midnightblue" d="M2194.02,-78.675C2076.92,-73.5278 1843.74,-60.3232 1648,-31 1645.1,-30.5655 1642.14,-30.0775 1639.15,-29.5508"/>
<polygon fill="midnightblue" stroke="midnightblue" points="2194.16,-82.1842 2204.3,-79.1192 2194.46,-75.1907 2194.16,-82.1842"/>
</g>
<!-- Node32&#45;&gt;Node9 -->
<g id="edge36" class="edge"><title>Node32&#45;&gt;Node9</title>
<path fill="none" stroke="midnightblue" d="M2247.49,-60.3115C2237.59,-50.5612 2226.11,-39.259 2217.29,-30.5765"/>
<polygon fill="midnightblue" stroke="midnightblue" points="2245.1,-62.8728 2254.68,-67.396 2250.01,-57.8853 2245.1,-62.8728"/>
</g>
<!-- Node33 -->
<g id="node33" class="node"><title>Node33</title>
<g id="a_node33"><a xlink:href="ExampleTask_8cxx.html" target="_top" xlink:title="Modules/Example/src\l/ExampleTask.cxx">
<polygon fill="none" stroke="black" points="2278.5,-0.5 2278.5,-30.5 2389.5,-30.5 2389.5,-0.5 2278.5,-0.5"/>
<text text-anchor="start" x="2286.5" y="-18.5" font-family="Helvetica,sans-Serif" font-size="10.00">Modules/Example/src</text>
<text text-anchor="middle" x="2334" y="-7.5" font-family="Helvetica,sans-Serif" font-size="10.00">/ExampleTask.cxx</text>
</a>
</g>
</g>
<!-- Node32&#45;&gt;Node33 -->
<g id="edge34" class="edge"><title>Node32&#45;&gt;Node33</title>
<path fill="none" stroke="midnightblue" d="M2290.19,-60.3115C2299.94,-50.5612 2311.24,-39.259 2319.92,-30.5765"/>
<polygon fill="midnightblue" stroke="midnightblue" points="2287.7,-57.85 2283.1,-67.396 2292.65,-62.7998 2287.7,-57.85"/>
</g>
<!-- Node34&#45;&gt;Node11 -->
<g id="edge39" class="edge"><title>Node34&#45;&gt;Node11</title>
<path fill="none" stroke="midnightblue" d="M2558.42,-62.8533C2537.71,-52.5761 2512.41,-40.0252 2493.37,-30.5765"/>
<polygon fill="midnightblue" stroke="midnightblue" points="2557.06,-66.0864 2567.57,-67.396 2560.17,-59.8159 2557.06,-66.0864"/>
</g>
<!-- Node35 -->
<g id="node35" class="node"><title>Node35</title>
<g id="a_node35"><a xlink:href="SkeletonTask_8cxx.html" target="_top" xlink:title="Modules/Skeleton/src\l/SkeletonTask.cxx">
<polygon fill="none" stroke="black" points="2540.5,-0.5 2540.5,-30.5 2651.5,-30.5 2651.5,-0.5 2540.5,-0.5"/>
<text text-anchor="start" x="2548.5" y="-18.5" font-family="Helvetica,sans-Serif" font-size="10.00">Modules/Skeleton/src</text>
<text text-anchor="middle" x="2596" y="-7.5" font-family="Helvetica,sans-Serif" font-size="10.00">/SkeletonTask.cxx</text>
</a>
</g>
</g>
<!-- Node34&#45;&gt;Node35 -->
<g id="edge38" class="edge"><title>Node34&#45;&gt;Node35</title>
<path fill="none" stroke="midnightblue" d="M2596,-57.1081C2596,-48.1539 2596,-38.3227 2596,-30.5765"/>
<polygon fill="midnightblue" stroke="midnightblue" points="2592.5,-57.3959 2596,-67.396 2599.5,-57.396 2592.5,-57.3959"/>
</g>
<!-- Node37 -->
<g id="node37" class="node"><title>Node37</title>
<g id="a_node37"><a xlink:href="TOFTask_8cxx.html" target="_top" xlink:title="Modules/TOF/src/TOFTask.cxx">
<polygon fill="none" stroke="black" points="3631.5,-6 3631.5,-25 3786.5,-25 3786.5,-6 3631.5,-6"/>
<text text-anchor="middle" x="3709" y="-13" font-family="Helvetica,sans-Serif" font-size="10.00">Modules/TOF/src/TOFTask.cxx</text>
</a>
</g>
</g>
<!-- Node36&#45;&gt;Node37 -->
<g id="edge41" class="edge"><title>Node36&#45;&gt;Node37</title>
<path fill="none" stroke="midnightblue" d="M3702.1,-57.2495C3704,-46.017 3706.14,-33.3767 3707.53,-25.1945"/>
<polygon fill="midnightblue" stroke="midnightblue" points="3698.6,-56.9521 3700.39,-67.396 3705.51,-58.1202 3698.6,-56.9521"/>
</g>
<!-- Node39 -->
<g id="node39" class="node"><title>Node39</title>
<g id="a_node39"><a xlink:href="PID_8cxx.html" target="_top" xlink:title="Modules/TPC/src/PID.cxx">
<polygon fill="none" stroke="black" points="3805,-6 3805,-25 3937,-25 3937,-6 3805,-6"/>
<text text-anchor="middle" x="3871" y="-13" font-family="Helvetica,sans-Serif" font-size="10.00">Modules/TPC/src/PID.cxx</text>
</a>
</g>
</g>
<!-- Node38&#45;&gt;Node39 -->
<g id="edge43" class="edge"><title>Node38&#45;&gt;Node39</title>
<path fill="none" stroke="midnightblue" d="M3870.37,-57.2495C3870.55,-46.017 3870.74,-33.3767 3870.87,-25.1945"/>
<polygon fill="midnightblue" stroke="midnightblue" points="3866.87,-57.3433 3870.22,-67.396 3873.87,-57.451 3866.87,-57.3433"/>
</g>
</g>
</svg>
        <g id="navigator" transform="translate(0 0)" fill="#404254">
                <rect fill="#f2f5e9" fill-opacity="0.5" stroke="#606060" stroke-width=".5" x="0" y="0" width="60" height="60"/>
                <use id="zoomplus" xlink:href="#zoomPlus" x="17" y="9" onmousedown="handleZoom(evt,'in')"/>
                <use id="zoomminus" xlink:href="#zoomMin" x="42" y="9" onmousedown="handleZoom(evt,'out')"/>
                <use id="reset" xlink:href="#resetDef" x="30" y="36" onmousedown="handleReset()"/>
                <g id="arrowUp" xlink:href="#dirArrow" transform="translate(30 24)" onmousedown="handlePan(0,-1)">
                  <use xlink:href="#rim" fill="#404040">
                        <set attributeName="fill" to="#808080" begin="arrowUp.mouseover" end="arrowUp.mouseout"/>
                  </use>
                  <path fill="none" stroke="white" stroke-width="1.5" d="M0,-3.0v7 M-2.5,-0.5L0,-3.0L2.5,-0.5"/>
                </g>
                <g id="arrowRight" xlink:href="#dirArrow" transform="rotate(90) translate(36 -43)" onmousedown="handlePan(1,0)">
                  <use xlink:href="#rim" fill="#404040">
                        <set attributeName="fill" to="#808080" begin="arrowRight.mouseover" end="arrowRight.mouseout"/>
                  </use>
                  <path fill="none" stroke="white" stroke-width="1.5" d="M0,-3.0v7 M-2.5,-0.5L0,-3.0L2.5,-0.5"/>
                </g>
                <g id="arrowDown" xlink:href="#dirArrow" transform="rotate(180) translate(-30 -48)" onmousedown="handlePan(0,1)">
                  <use xlink:href="#rim" fill="#404040">
                        <set attributeName="fill" to="#808080" begin="arrowDown.mouseover" end="arrowDown.mouseout"/>
                  </use>
                  <path fill="none" stroke="white" stroke-width="1.5" d="M0,-3.0v7 M-2.5,-0.5L0,-3.0L2.5,-0.5"/>
                </g>
                <g id="arrowLeft" xlink:href="#dirArrow" transform="rotate(270) translate(-36 17)" onmousedown="handlePan(-1,0)">
                  <use xlink:href="#rim" fill="#404040">
                        <set attributeName="fill" to="#808080" begin="arrowLeft.mouseover" end="arrowLeft.mouseout"/>
                  </use>
                  <path fill="none" stroke="white" stroke-width="1.5" d="M0,-3.0v7 M-2.5,-0.5L0,-3.0L2.5,-0.5"/>
                </g>
        </g>
        <svg viewBox="0 0 15 15" width="100%" height="30px" preserveAspectRatio="xMaxYMin meet">
         <g id="arrow_out" transform="scale(0.3 0.3)">
          <a xlink:href="ObjectsManager_8h__dep__incl_org.svg" target="_base">
           <rect id="button" ry="5" rx="5" y="6" x="6" height="38" width="38"
                fill="#f2f5e9" fill-opacity="0.5" stroke="#606060" stroke-width="1.0"/>
           <path id="arrow"
             d="M 11.500037,31.436501 C 11.940474,20.09759 22.043105,11.32322 32.158766,21.979434 L 37.068811,17.246167 C 37.068811,17.246167 37.088388,32 37.088388,32 L 22.160133,31.978069 C 22.160133,31.978069 26.997745,27.140456 26.997745,27.140456 C 18.528582,18.264221 13.291696,25.230495 11.500037,31.436501 z"
             style="fill:#404040;"/>
          </a>
         </g>
        </svg>
</svg>
