<?xml version="1.0" encoding="UTF-8" standalone="no"?>
<!DOCTYPE svg PUBLIC "-//W3C//DTD SVG 1.1//EN"
 "http://www.w3.org/Graphics/SVG/1.1/DTD/svg11.dtd">
<!-- Generated by graphviz version 2.38.0 (20140413.2041)
 -->
<!-- Title: Modules/TPC/src/PID.cxx Pages: 1 -->
<!--zoomable 364 -->
<svg id="main" version="1.1" xmlns="http://www.w3.org/2000/svg" xmlns:xlink="http://www.w3.org/1999/xlink" xml:space="preserve" onload="init(evt)">
<style type="text/css"><![CDATA[
.edge:hover path { stroke: red; }
.edge:hover polygon { stroke: red; fill: red; }
]]></style>
<script type="text/javascript"><![CDATA[
var edges = document.getElementsByTagName('g');
if (edges && edges.length) {
  for (var i=0;i<edges.length;i++) {
    if (edges[i].id.substr(0,4)=='edge') {
      edges[i].setAttribute('class','edge');
    }
  }
}
]]></script>
        <defs>
                <circle id="rim" cx="0" cy="0" r="7"/>
                <circle id="rim2" cx="0" cy="0" r="3.5"/>
                <g id="zoomPlus">
                        <use xlink:href="#rim" fill="#404040">
                                <set attributeName="fill" to="#808080" begin="zoomplus.mouseover" end="zoomplus.mouseout"/>
                        </use>
                        <path d="M-4,0h8M0,-4v8" fill="none" stroke="white" stroke-width="1.5" pointer-events="none"/>
                </g>
                <g id="zoomMin">
                        <use xlink:href="#rim" fill="#404040">
                                <set attributeName="fill" to="#808080" begin="zoomminus.mouseover" end="zoomminus.mouseout"/>
                        </use>
                        <path d="M-4,0h8" fill="none" stroke="white" stroke-width="1.5" pointer-events="none"/>
                </g>
                <g id="dirArrow">
                        <path fill="none" stroke="white" stroke-width="1.5" d="M0,-3.0v7 M-2.5,-0.5L0,-3.0L2.5,-0.5"/>
                </g>
               <g id="resetDef">
                       <use xlink:href="#rim2" fill="#404040">
                               <set attributeName="fill" to="#808080" begin="reset.mouseover" end="reset.mouseout"/>
                       </use>
               </g>
        </defs>

<script type="text/javascript">
var viewWidth = 866;
var viewHeight = 364;
var sectionId = 'dynsection-0';
</script>
<script xlink:href="svgpan.js"/>
<svg id="graph" class="graph">
<g id="viewport">
<title>Modules/TPC/src/PID.cxx</title>
<!-- Node1 -->
<g id="node1" class="node"><title>Node1</title>
<polygon fill="#bfbfbf" stroke="black" points="260,-336.5 260,-355.5 392,-355.5 392,-336.5 260,-336.5"/>
<text text-anchor="middle" x="326" y="-343.5" font-family="Helvetica,sans-Serif" font-size="10.00">Modules/TPC/src/PID.cxx</text>
</g>
<!-- Node2 -->
<g id="node2" class="node"><title>Node2</title>
<polygon fill="none" stroke="#bfbfbf" points="139.5,-280.5 139.5,-299.5 204.5,-299.5 204.5,-280.5 139.5,-280.5"/>
<text text-anchor="middle" x="172" y="-287.5" font-family="Helvetica,sans-Serif" font-size="10.00">TCanvas.h</text>
</g>
<!-- Node1&#45;&gt;Node2 -->
<g id="edge1" class="edge"><title>Node1&#45;&gt;Node2</title>
<path fill="none" stroke="midnightblue" d="M301.598,-336.444C275.803,-327.399 234.923,-313.064 205.982,-302.916"/>
<polygon fill="midnightblue" stroke="midnightblue" points="206.882,-299.523 196.288,-299.516 204.566,-306.128 206.882,-299.523"/>
</g>
<!-- Node3 -->
<g id="node3" class="node"><title>Node3</title>
<polygon fill="none" stroke="#bfbfbf" points="223,-280.5 223,-299.5 267,-299.5 267,-280.5 223,-280.5"/>
<text text-anchor="middle" x="245" y="-287.5" font-family="Helvetica,sans-Serif" font-size="10.00">TH1.h</text>
</g>
<!-- Node1&#45;&gt;Node3 -->
<g id="edge2" class="edge"><title>Node1&#45;&gt;Node3</title>
<path fill="none" stroke="midnightblue" d="M312.986,-336.324C300.468,-327.979 281.318,-315.212 266.529,-305.352"/>
<polygon fill="midnightblue" stroke="midnightblue" points="268.244,-302.289 257.982,-299.655 264.361,-308.114 268.244,-302.289"/>
</g>
<!-- Node4 -->
<g id="node4" class="node"><title>Node4</title>
<polygon fill="none" stroke="#bfbfbf" points="0,-168.5 0,-187.5 160,-187.5 160,-168.5 0,-168.5"/>
<text text-anchor="middle" x="80" y="-175.5" font-family="Helvetica,sans-Serif" font-size="10.00">Framework/ProcessingContext.h</text>
</g>
<!-- Node1&#45;&gt;Node4 -->
<g id="edge3" class="edge"><title>Node1&#45;&gt;Node4</title>
<path fill="none" stroke="midnightblue" d="M321.132,-336.451C313.143,-323.021 296.113,-296.785 276,-280 225.77,-238.081 155.251,-207.117 113.92,-191.164"/>
<polygon fill="midnightblue" stroke="midnightblue" points="114.911,-187.797 104.319,-187.526 112.431,-194.343 114.911,-187.797"/>
</g>
<!-- Node5 -->
<g id="node5" class="node"><title>Node5</title>
<polygon fill="none" stroke="#bfbfbf" points="407,-280.5 407,-299.5 557,-299.5 557,-280.5 407,-280.5"/>
<text text-anchor="middle" x="482" y="-287.5" font-family="Helvetica,sans-Serif" font-size="10.00">DataFormatsTPC/TrackTPC.h</text>
</g>
<!-- Node1&#45;&gt;Node5 -->
<g id="edge4" class="edge"><title>Node1&#45;&gt;Node5</title>
<path fill="none" stroke="midnightblue" d="M350.719,-336.444C376.848,-327.399 418.259,-313.064 447.576,-302.916"/>
<polygon fill="midnightblue" stroke="midnightblue" points="449.092,-306.095 457.397,-299.516 446.802,-299.48 449.092,-306.095"/>
</g>
<!-- Node6 -->
<g id="node6" class="node"><title>Node6</title>
<g id="a_node6"><a xlink:href="QcInfoLogger_8h.html" target="_top" xlink:title="QualityControl/QcInfoLogger.h">
<polygon fill="none" stroke="black" points="577.5,-280.5 577.5,-299.5 726.5,-299.5 726.5,-280.5 577.5,-280.5"/>
<text text-anchor="middle" x="652" y="-287.5" font-family="Helvetica,sans-Serif" font-size="10.00">QualityControl/QcInfoLogger.h</text>
</a>
</g>
</g>
<!-- Node1&#45;&gt;Node6 -->
<g id="edge5" class="edge"><title>Node1&#45;&gt;Node6</title>
<path fill="none" stroke="midnightblue" d="M377.656,-336.444C435.479,-326.865 529.113,-311.356 590.623,-301.167"/>
<polygon fill="midnightblue" stroke="midnightblue" points="591.292,-304.604 600.586,-299.516 590.148,-297.698 591.292,-304.604"/>
</g>
<!-- Node8 -->
<g id="node8" class="node"><title>Node8</title>
<g id="a_node8"><a xlink:href="PID_8h.html" target="_top" xlink:title="TPC/PID.h">
<polygon fill="none" stroke="black" points="324.5,-280.5 324.5,-299.5 389.5,-299.5 389.5,-280.5 324.5,-280.5"/>
<text text-anchor="middle" x="357" y="-287.5" font-family="Helvetica,sans-Serif" font-size="10.00">TPC/PID.h</text>
</a>
</g>
</g>
<!-- Node1&#45;&gt;Node8 -->
<g id="edge7" class="edge"><title>Node1&#45;&gt;Node8</title>
<path fill="none" stroke="midnightblue" d="M331.119,-336.083C335.408,-328.613 341.658,-317.724 346.942,-308.52"/>
<polygon fill="midnightblue" stroke="midnightblue" points="350.033,-310.166 351.976,-299.751 343.962,-306.681 350.033,-310.166"/>
</g>
<!-- Node7 -->
<g id="node7" class="node"><title>Node7</title>
<polygon fill="none" stroke="#bfbfbf" points="589,-224.5 589,-243.5 719,-243.5 719,-224.5 589,-224.5"/>
<text text-anchor="middle" x="654" y="-231.5" font-family="Helvetica,sans-Serif" font-size="10.00">InfoLogger/InfoLogger.hxx</text>
</g>
<!-- Node6&#45;&gt;Node7 -->
<g id="edge6" class="edge"><title>Node6&#45;&gt;Node7</title>
<path fill="none" stroke="midnightblue" d="M652.33,-280.083C652.592,-273.006 652.968,-262.861 653.297,-253.986"/>
<polygon fill="midnightblue" stroke="midnightblue" points="656.803,-253.874 653.676,-243.751 649.808,-253.615 656.803,-253.874"/>
</g>
<!-- Node9 -->
<g id="node9" class="node"><title>Node9</title>
<polygon fill="none" stroke="#bfbfbf" points="491,-224.5 491,-243.5 571,-243.5 571,-224.5 491,-224.5"/>
<text text-anchor="middle" x="531" y="-231.5" font-family="Helvetica,sans-Serif" font-size="10.00">TPCQC/PID.h</text>
</g>
<!-- Node8&#45;&gt;Node9 -->
<g id="edge8" class="edge"><title>Node8&#45;&gt;Node9</title>
<path fill="none" stroke="midnightblue" d="M384.571,-280.444C414.097,-271.28 461.118,-256.688 493.883,-246.519"/>
<polygon fill="midnightblue" stroke="midnightblue" points="495.045,-249.823 503.558,-243.516 492.97,-243.138 495.045,-249.823"/>
</g>
<!-- Node10 -->
<g id="node10" class="node"><title>Node10</title>
<g id="a_node10"><a xlink:href="TaskInterface_8h.html" target="_top" xlink:title="QualityControl/TaskInterface.h">
<polygon fill="none" stroke="black" points="323,-224.5 323,-243.5 473,-243.5 473,-224.5 323,-224.5"/>
<text text-anchor="middle" x="398" y="-231.5" font-family="Helvetica,sans-Serif" font-size="10.00">QualityControl/TaskInterface.h</text>
</a>
</g>
</g>
<!-- Node8&#45;&gt;Node10 -->
<g id="edge9" class="edge"><title>Node8&#45;&gt;Node10</title>
<path fill="none" stroke="midnightblue" d="M363.77,-280.083C369.562,-272.455 378.058,-261.264 385.138,-251.941"/>
<polygon fill="midnightblue" stroke="midnightblue" points="388.096,-253.832 391.356,-243.751 382.521,-249.599 388.096,-253.832"/>
</g>
<!-- Node10&#45;&gt;Node4 -->
<g id="edge15" class="edge"><title>Node10&#45;&gt;Node4</title>
<path fill="none" stroke="midnightblue" d="M347.612,-224.444C291.324,-214.885 200.248,-199.419 140.242,-189.23"/>
<polygon fill="midnightblue" stroke="midnightblue" points="140.597,-185.74 130.152,-187.516 139.425,-192.641 140.597,-185.74"/>
</g>
<!-- Node11 -->
<g id="node11" class="node"><title>Node11</title>
<polygon fill="none" stroke="#bfbfbf" points="822.5,-56.5 822.5,-75.5 857.5,-75.5 857.5,-56.5 822.5,-56.5"/>
<text text-anchor="middle" x="840" y="-63.5" font-family="Helvetica,sans-Serif" font-size="10.00">map</text>
</g>
<!-- Node10&#45;&gt;Node11 -->
<g id="edge10" class="edge"><title>Node10&#45;&gt;Node11</title>
<path fill="none" stroke="midnightblue" d="M473.095,-224.953C591.965,-212.197 810.212,-188.694 811,-188 840.221,-162.265 842.67,-112.784 841.561,-85.7535"/>
<polygon fill="midnightblue" stroke="midnightblue" points="845.048,-85.4424 840.935,-75.6785 838.062,-85.8762 845.048,-85.4424"/>
</g>
<!-- Node12 -->
<g id="node12" class="node"><title>Node12</title>
<polygon fill="none" stroke="#bfbfbf" points="694,-112.5 694,-131.5 746,-131.5 746,-112.5 694,-112.5"/>
<text text-anchor="middle" x="720" y="-119.5" font-family="Helvetica,sans-Serif" font-size="10.00">memory</text>
</g>
<!-- Node10&#45;&gt;Node12 -->
<g id="edge11" class="edge"><title>Node10&#45;&gt;Node12</title>
<path fill="none" stroke="midnightblue" d="M415.28,-224.425C433.418,-215.409 462.752,-200.785 488,-188 505.378,-179.2 508.694,-174.66 527,-168 591.773,-144.434 613.172,-148.545 683.824,-132.191"/>
<polygon fill="midnightblue" stroke="midnightblue" points="684.725,-135.574 693.646,-129.86 683.108,-128.763 684.725,-135.574"/>
</g>
<!-- Node13 -->
<g id="node13" class="node"><title>Node13</title>
<polygon fill="none" stroke="#bfbfbf" points="345.5,-0.5 345.5,-19.5 386.5,-19.5 386.5,-0.5 345.5,-0.5"/>
<text text-anchor="middle" x="366" y="-7.5" font-family="Helvetica,sans-Serif" font-size="10.00">string</text>
</g>
<!-- Node10&#45;&gt;Node13 -->
<g id="edge12" class="edge"><title>Node10&#45;&gt;Node13</title>
<path fill="none" stroke="midnightblue" d="M366.183,-224.5C343.585,-217.358 313.4,-205.482 291,-188 241.948,-149.718 226.676,-135.029 207,-76 189.215,-22.6465 283.918,-12.6264 335.029,-11.0489"/>
<polygon fill="midnightblue" stroke="midnightblue" points="335.296,-14.5441 345.218,-10.8279 335.144,-7.54571 335.296,-14.5441"/>
</g>
<!-- Node14 -->
<g id="node14" class="node"><title>Node14</title>
<polygon fill="none" stroke="#bfbfbf" points="216.5,-56.5 216.5,-75.5 299.5,-75.5 299.5,-56.5 216.5,-56.5"/>
<text text-anchor="middle" x="258" y="-63.5" font-family="Helvetica,sans-Serif" font-size="10.00">unordered_map</text>
</g>
<!-- Node10&#45;&gt;Node14 -->
<g id="edge13" class="edge"><title>Node10&#45;&gt;Node14</title>
<path fill="none" stroke="midnightblue" d="M368.731,-224.38C349.294,-217.345 324.424,-205.647 308,-188 280.482,-158.432 267.075,-111.61 261.448,-85.7348"/>
<polygon fill="midnightblue" stroke="midnightblue" points="264.843,-84.8618 259.441,-75.7476 257.98,-86.2413 264.843,-84.8618"/>
</g>
<!-- Node15 -->
<g id="node15" class="node"><title>Node15</title>
<polygon fill="none" stroke="#bfbfbf" points="535.5,-168.5 535.5,-187.5 660.5,-187.5 660.5,-168.5 535.5,-168.5"/>
<text text-anchor="middle" x="598" y="-175.5" font-family="Helvetica,sans-Serif" font-size="10.00">Framework/InitContext.h</text>
</g>
<!-- Node10&#45;&gt;Node15 -->
<g id="edge14" class="edge"><title>Node10&#45;&gt;Node15</title>
<path fill="none" stroke="midnightblue" d="M429.691,-224.444C464.068,-215.162 519.077,-200.309 556.789,-190.127"/>
<polygon fill="midnightblue" stroke="midnightblue" points="557.716,-193.502 566.458,-187.516 555.891,-186.744 557.716,-193.502"/>
</g>
<!-- Node16 -->
<g id="node16" class="node"><title>Node16</title>
<g id="a_node16"><a xlink:href="Activity_8h.html" target="_top" xlink:title="QualityControl/Activity.h">
<polygon fill="none" stroke="black" points="678.5,-168.5 678.5,-187.5 801.5,-187.5 801.5,-168.5 678.5,-168.5"/>
<text text-anchor="middle" x="740" y="-175.5" font-family="Helvetica,sans-Serif" font-size="10.00">QualityControl/Activity.h</text>
</a>
</g>
</g>
<!-- Node10&#45;&gt;Node16 -->
<g id="edge16" class="edge"><title>Node10&#45;&gt;Node16</title>
<path fill="none" stroke="midnightblue" d="M452.191,-224.444C512.978,-214.846 611.487,-199.292 676.01,-189.104"/>
<polygon fill="midnightblue" stroke="midnightblue" points="676.731,-192.533 686.063,-187.516 675.639,-185.619 676.731,-192.533"/>
</g>
<!-- Node17 -->
<g id="node17" class="node"><title>Node17</title>
<g id="a_node17"><a xlink:href="ObjectsManager_8h.html" target="_top" xlink:title="QualityControl/ObjectsManager.h">
<polygon fill="none" stroke="black" points="317.5,-168.5 317.5,-187.5 478.5,-187.5 478.5,-168.5 317.5,-168.5"/>
<text text-anchor="middle" x="398" y="-175.5" font-family="Helvetica,sans-Serif" font-size="10.00">QualityControl/ObjectsManager.h</text>
</a>
</g>
</g>
<!-- Node10&#45;&gt;Node17 -->
<g id="edge17" class="edge"><title>Node10&#45;&gt;Node17</title>
<path fill="none" stroke="midnightblue" d="M398,-224.083C398,-217.006 398,-206.861 398,-197.986"/>
<polygon fill="midnightblue" stroke="midnightblue" points="401.5,-197.751 398,-187.751 394.5,-197.751 401.5,-197.751"/>
</g>
<!-- Node17&#45;&gt;Node12 -->
<g id="edge32" class="edge"><title>Node17&#45;&gt;Node12</title>
<path fill="none" stroke="midnightblue" d="M464.153,-168.468C520.253,-160.813 603.025,-148.533 683.845,-132.081"/>
<polygon fill="midnightblue" stroke="midnightblue" points="684.601,-135.499 693.69,-130.055 683.19,-128.643 684.601,-135.499"/>
</g>
<!-- Node17&#45;&gt;Node13 -->
<g id="edge31" class="edge"><title>Node17&#45;&gt;Node13</title>
<path fill="none" stroke="midnightblue" d="M368.119,-168.387C350.46,-161.587 329.549,-150.15 319,-132 298.537,-96.7935 330.377,-51.0038 350.88,-27.1113"/>
<polygon fill="midnightblue" stroke="midnightblue" points="353.511,-29.4194 357.555,-19.6266 348.287,-24.7603 353.511,-29.4194"/>
</g>
<!-- Node18 -->
<g id="node18" class="node"><title>Node18</title>
<g id="a_node18"><a xlink:href="MonitorObject_8h.html" target="_top" xlink:title="QualityControl/MonitorObject.h">
<polygon fill="none" stroke="black" points="524.5,-112.5 524.5,-131.5 675.5,-131.5 675.5,-112.5 524.5,-112.5"/>
<text text-anchor="middle" x="600" y="-119.5" font-family="Helvetica,sans-Serif" font-size="10.00">QualityControl/MonitorObject.h</text>
</a>
</g>
</g>
<!-- Node17&#45;&gt;Node18 -->
<g id="edge18" class="edge"><title>Node17&#45;&gt;Node18</title>
<path fill="none" stroke="midnightblue" d="M430.008,-168.444C464.729,-159.162 520.288,-144.309 558.377,-134.127"/>
<polygon fill="midnightblue" stroke="midnightblue" points="559.385,-137.48 568.142,-131.516 557.578,-130.718 559.385,-137.48"/>
</g>
<!-- Node22 -->
<g id="node22" class="node"><title>Node22</title>
<g id="a_node22"><a xlink:href="Quality_8h.html" target="_top" xlink:title="QualityControl/Quality.h">
<polygon fill="none" stroke="black" points="394.5,-56.5 394.5,-75.5 515.5,-75.5 515.5,-56.5 394.5,-56.5"/>
<text text-anchor="middle" x="455" y="-63.5" font-family="Helvetica,sans-Serif" font-size="10.00">QualityControl/Quality.h</text>
</a>
</g>
</g>
<!-- Node17&#45;&gt;Node22 -->
<g id="edge27" class="edge"><title>Node17&#45;&gt;Node22</title>
<path fill="none" stroke="midnightblue" d="M427.881,-168.387C445.54,-161.587 466.451,-150.15 477,-132 485.756,-116.936 477.327,-97.8698 468.491,-84.2905"/>
<polygon fill="midnightblue" stroke="midnightblue" points="471.161,-82.0058 462.515,-75.8827 465.456,-86.0613 471.161,-82.0058"/>
</g>
<!-- Node23 -->
<g id="node23" class="node"><title>Node23</title>
<g id="a_node23"><a xlink:href="TaskConfig_8h.html" target="_top" xlink:title="QualityControl/TaskConfig.h">
<polygon fill="none" stroke="black" points="328,-112.5 328,-131.5 468,-131.5 468,-112.5 328,-112.5"/>
<text text-anchor="middle" x="398" y="-119.5" font-family="Helvetica,sans-Serif" font-size="10.00">QualityControl/TaskConfig.h</text>
</a>
</g>
</g>
<!-- Node17&#45;&gt;Node23 -->
<g id="edge28" class="edge"><title>Node17&#45;&gt;Node23</title>
<path fill="none" stroke="midnightblue" d="M398,-168.083C398,-161.006 398,-150.861 398,-141.986"/>
<polygon fill="midnightblue" stroke="midnightblue" points="401.5,-141.751 398,-131.751 394.5,-141.751 401.5,-141.751"/>
</g>
<!-- Node18&#45;&gt;Node11 -->
<g id="edge20" class="edge"><title>Node18&#45;&gt;Node11</title>
<path fill="none" stroke="midnightblue" d="M643.201,-112.456C685.394,-103.922 751.348,-90.0809 808,-76 809.47,-75.6346 810.975,-75.2495 812.493,-74.8526"/>
<polygon fill="midnightblue" stroke="midnightblue" points="813.715,-78.1473 822.446,-72.1454 811.878,-71.3927 813.715,-78.1473"/>
</g>
<!-- Node18&#45;&gt;Node13 -->
<g id="edge19" class="edge"><title>Node18&#45;&gt;Node13</title>
<path fill="none" stroke="midnightblue" d="M592.57,-112.492C580.015,-98.6379 553.203,-71.2226 525,-56 483.54,-33.6215 429.84,-21.436 396.666,-15.5752"/>
<polygon fill="midnightblue" stroke="midnightblue" points="397.101,-12.0992 386.658,-13.8897 395.938,-19.0019 397.101,-12.0992"/>
</g>
<!-- Node19 -->
<g id="node19" class="node"><title>Node19</title>
<polygon fill="none" stroke="#bfbfbf" points="596,-0.5 596,-19.5 652,-19.5 652,-0.5 596,-0.5"/>
<text text-anchor="middle" x="624" y="-7.5" font-family="Helvetica,sans-Serif" font-size="10.00">Rtypes.h</text>
</g>
<!-- Node18&#45;&gt;Node19 -->
<g id="edge21" class="edge"><title>Node18&#45;&gt;Node19</title>
<path fill="none" stroke="midnightblue" d="M666.012,-112.497C709.736,-105.354 761.448,-93.4776 775,-76 806.874,-34.8927 716.831,-19.3716 662.308,-13.8405"/>
<polygon fill="midnightblue" stroke="midnightblue" points="662.535,-10.3465 652.251,-12.8914 661.878,-17.3155 662.535,-10.3465"/>
</g>
<!-- Node20 -->
<g id="node20" class="node"><title>Node20</title>
<polygon fill="none" stroke="#bfbfbf" points="572.5,-56.5 572.5,-75.5 631.5,-75.5 631.5,-56.5 572.5,-56.5"/>
<text text-anchor="middle" x="602" y="-63.5" font-family="Helvetica,sans-Serif" font-size="10.00">TObject.h</text>
</g>
<!-- Node18&#45;&gt;Node20 -->
<g id="edge22" class="edge"><title>Node18&#45;&gt;Node20</title>
<path fill="none" stroke="midnightblue" d="M600.33,-112.083C600.592,-105.006 600.968,-94.8611 601.297,-85.9865"/>
<polygon fill="midnightblue" stroke="midnightblue" points="604.803,-85.8738 601.676,-75.7511 597.808,-85.6147 604.803,-85.8738"/>
</g>
<!-- Node21 -->
<g id="node21" class="node"><title>Node21</title>
<polygon fill="none" stroke="#bfbfbf" points="650,-56.5 650,-75.5 766,-75.5 766,-56.5 650,-56.5"/>
<text text-anchor="middle" x="708" y="-63.5" font-family="Helvetica,sans-Serif" font-size="10.00">Common/Exceptions.h</text>
</g>
<!-- Node18&#45;&gt;Node21 -->
<g id="edge23" class="edge"><title>Node18&#45;&gt;Node21</title>
<path fill="none" stroke="midnightblue" d="M617.352,-112.324C634.672,-103.664 661.515,-90.2424 681.502,-80.249"/>
<polygon fill="midnightblue" stroke="midnightblue" points="683.312,-83.2572 690.691,-75.6545 680.181,-76.9962 683.312,-83.2572"/>
</g>
<!-- Node18&#45;&gt;Node22 -->
<g id="edge24" class="edge"><title>Node18&#45;&gt;Node22</title>
<path fill="none" stroke="midnightblue" d="M577.024,-112.444C552.843,-103.438 514.582,-89.1891 487.354,-79.049"/>
<polygon fill="midnightblue" stroke="midnightblue" points="488.461,-75.7265 477.868,-75.5164 486.018,-82.2864 488.461,-75.7265"/>
</g>
<!-- Node22&#45;&gt;Node13 -->
<g id="edge26" class="edge"><title>Node22&#45;&gt;Node13</title>
<path fill="none" stroke="midnightblue" d="M440.701,-56.324C426.817,-47.9002 405.508,-34.9709 389.196,-25.0741"/>
<polygon fill="midnightblue" stroke="midnightblue" points="390.629,-21.8495 380.264,-19.6545 386.998,-27.8341 390.629,-21.8495"/>
</g>
<!-- Node22&#45;&gt;Node19 -->
<g id="edge25" class="edge"><title>Node22&#45;&gt;Node19</title>
<path fill="none" stroke="midnightblue" d="M481.779,-56.4435C510.333,-47.3196 555.733,-32.8133 587.537,-22.6509"/>
<polygon fill="midnightblue" stroke="midnightblue" points="588.886,-25.8941 597.347,-19.5164 586.756,-19.2262 588.886,-25.8941"/>
</g>
<!-- Node23&#45;&gt;Node13 -->
<g id="edge29" class="edge"><title>Node23&#45;&gt;Node13</title>
<path fill="none" stroke="midnightblue" d="M395.489,-112.368C390.302,-94.5366 378.304,-53.2953 371.315,-29.2717"/>
<polygon fill="midnightblue" stroke="midnightblue" points="374.653,-28.2157 368.499,-19.5914 367.932,-30.1711 374.653,-28.2157"/>
</g>
<!-- Node23&#45;&gt;Node14 -->
<g id="edge30" class="edge"><title>Node23&#45;&gt;Node14</title>
<path fill="none" stroke="midnightblue" d="M375.817,-112.444C352.572,-103.478 315.851,-89.314 289.585,-79.1827"/>
<polygon fill="midnightblue" stroke="midnightblue" points="290.669,-75.8497 280.08,-75.5164 288.15,-82.3807 290.669,-75.8497"/>
</g>
</g>
</svg>
        <g id="navigator" transform="translate(0 0)" fill="#404254">
                <rect fill="#f2f5e9" fill-opacity="0.5" stroke="#606060" stroke-width=".5" x="0" y="0" width="60" height="60"/>
                <use id="zoomplus" xlink:href="#zoomPlus" x="17" y="9" onmousedown="handleZoom(evt,'in')"/>
                <use id="zoomminus" xlink:href="#zoomMin" x="42" y="9" onmousedown="handleZoom(evt,'out')"/>
                <use id="reset" xlink:href="#resetDef" x="30" y="36" onmousedown="handleReset()"/>
                <g id="arrowUp" xlink:href="#dirArrow" transform="translate(30 24)" onmousedown="handlePan(0,-1)">
                  <use xlink:href="#rim" fill="#404040">
                        <set attributeName="fill" to="#808080" begin="arrowUp.mouseover" end="arrowUp.mouseout"/>
                  </use>
                  <path fill="none" stroke="white" stroke-width="1.5" d="M0,-3.0v7 M-2.5,-0.5L0,-3.0L2.5,-0.5"/>
                </g>
                <g id="arrowRight" xlink:href="#dirArrow" transform="rotate(90) translate(36 -43)" onmousedown="handlePan(1,0)">
                  <use xlink:href="#rim" fill="#404040">
                        <set attributeName="fill" to="#808080" begin="arrowRight.mouseover" end="arrowRight.mouseout"/>
                  </use>
                  <path fill="none" stroke="white" stroke-width="1.5" d="M0,-3.0v7 M-2.5,-0.5L0,-3.0L2.5,-0.5"/>
                </g>
                <g id="arrowDown" xlink:href="#dirArrow" transform="rotate(180) translate(-30 -48)" onmousedown="handlePan(0,1)">
                  <use xlink:href="#rim" fill="#404040">
                        <set attributeName="fill" to="#808080" begin="arrowDown.mouseover" end="arrowDown.mouseout"/>
                  </use>
                  <path fill="none" stroke="white" stroke-width="1.5" d="M0,-3.0v7 M-2.5,-0.5L0,-3.0L2.5,-0.5"/>
                </g>
                <g id="arrowLeft" xlink:href="#dirArrow" transform="rotate(270) translate(-36 17)" onmousedown="handlePan(-1,0)">
                  <use xlink:href="#rim" fill="#404040">
                        <set attributeName="fill" to="#808080" begin="arrowLeft.mouseover" end="arrowLeft.mouseout"/>
                  </use>
                  <path fill="none" stroke="white" stroke-width="1.5" d="M0,-3.0v7 M-2.5,-0.5L0,-3.0L2.5,-0.5"/>
                </g>
        </g>
        <svg viewBox="0 0 15 15" width="100%" height="30px" preserveAspectRatio="xMaxYMin meet">
         <g id="arrow_out" transform="scale(0.3 0.3)">
          <a xlink:href="PID_8cxx__incl_org.svg" target="_base">
           <rect id="button" ry="5" rx="5" y="6" x="6" height="38" width="38"
                fill="#f2f5e9" fill-opacity="0.5" stroke="#606060" stroke-width="1.0"/>
           <path id="arrow"
             d="M 11.500037,31.436501 C 11.940474,20.09759 22.043105,11.32322 32.158766,21.979434 L 37.068811,17.246167 C 37.068811,17.246167 37.088388,32 37.088388,32 L 22.160133,31.978069 C 22.160133,31.978069 26.997745,27.140456 26.997745,27.140456 C 18.528582,18.264221 13.291696,25.230495 11.500037,31.436501 z"
             style="fill:#404040;"/>
          </a>
         </g>
        </svg>
</svg>
