<?xml version="1.0" encoding="UTF-8" standalone="no"?>
<!DOCTYPE svg PUBLIC "-//W3C//DTD SVG 1.1//EN"
 "http://www.w3.org/Graphics/SVG/1.1/DTD/svg11.dtd">
<!-- Generated by graphviz version 2.38.0 (20140413.2041)
 -->
<!-- Title: Framework/include/QualityControl/PostProcessingConfig.h Pages: 1 -->
<!--zoomable 240 -->
<svg id="main" version="1.1" xmlns="http://www.w3.org/2000/svg" xmlns:xlink="http://www.w3.org/1999/xlink" xml:space="preserve" onload="init(evt)">
<style type="text/css"><![CDATA[
.edge:hover path { stroke: red; }
.edge:hover polygon { stroke: red; fill: red; }
]]></style>
<script type="text/javascript"><![CDATA[
var edges = document.getElementsByTagName('g');
if (edges && edges.length) {
  for (var i=0;i<edges.length;i++) {
    if (edges[i].id.substr(0,4)=='edge') {
      edges[i].setAttribute('class','edge');
    }
  }
}
]]></script>
        <defs>
                <circle id="rim" cx="0" cy="0" r="7"/>
                <circle id="rim2" cx="0" cy="0" r="3.5"/>
                <g id="zoomPlus">
                        <use xlink:href="#rim" fill="#404040">
                                <set attributeName="fill" to="#808080" begin="zoomplus.mouseover" end="zoomplus.mouseout"/>
                        </use>
                        <path d="M-4,0h8M0,-4v8" fill="none" stroke="white" stroke-width="1.5" pointer-events="none"/>
                </g>
                <g id="zoomMin">
                        <use xlink:href="#rim" fill="#404040">
                                <set attributeName="fill" to="#808080" begin="zoomminus.mouseover" end="zoomminus.mouseout"/>
                        </use>
                        <path d="M-4,0h8" fill="none" stroke="white" stroke-width="1.5" pointer-events="none"/>
                </g>
                <g id="dirArrow">
                        <path fill="none" stroke="white" stroke-width="1.5" d="M0,-3.0v7 M-2.5,-0.5L0,-3.0L2.5,-0.5"/>
                </g>
               <g id="resetDef">
                       <use xlink:href="#rim2" fill="#404040">
                               <set attributeName="fill" to="#808080" begin="reset.mouseover" end="reset.mouseout"/>
                       </use>
               </g>
        </defs>

<script type="text/javascript">
var viewWidth = 1394;
var viewHeight = 240;
var sectionId = 'dynsection-1';
</script>
<script xlink:href="svgpan.js"/>
<svg id="graph" class="graph">
<g id="viewport">
<title>Framework/include/QualityControl/PostProcessingConfig.h</title>
<!-- Node1 -->
<g id="node1" class="node"><title>Node1</title>
<polygon fill="#bfbfbf" stroke="black" points="869.5,-201.5 869.5,-231.5 1026.5,-231.5 1026.5,-201.5 869.5,-201.5"/>
<text text-anchor="start" x="877.5" y="-219.5" font-family="Helvetica,sans-Serif" font-size="10.00">Framework/include/Quality</text>
<text text-anchor="middle" x="948" y="-208.5" font-family="Helvetica,sans-Serif" font-size="10.00">Control/PostProcessingConfig.h</text>
</g>
<!-- Node2 -->
<g id="node2" class="node"><title>Node2</title>
<g id="a_node2"><a xlink:href="PostProcessingFactory_8h.html" target="_top" xlink:title="Framework/include/Quality\lControl/PostProcessingFactory.h">
<polygon fill="none" stroke="black" points="269.5,-134.5 269.5,-164.5 430.5,-164.5 430.5,-134.5 269.5,-134.5"/>
<text text-anchor="start" x="277.5" y="-152.5" font-family="Helvetica,sans-Serif" font-size="10.00">Framework/include/Quality</text>
<text text-anchor="middle" x="350" y="-141.5" font-family="Helvetica,sans-Serif" font-size="10.00">Control/PostProcessingFactory.h</text>
</a>
</g>
</g>
<!-- Node1&#45;&gt;Node2 -->
<g id="edge1" class="edge"><title>Node1&#45;&gt;Node2</title>
<path fill="none" stroke="midnightblue" d="M858.959,-205.822C743.157,-193.234 542.525,-171.427 430.881,-159.291"/>
<polygon fill="midnightblue" stroke="midnightblue" points="858.887,-209.334 869.207,-206.936 859.644,-202.375 858.887,-209.334"/>
</g>
<!-- Node6 -->
<g id="node6" class="node"><title>Node6</title>
<g id="a_node6"><a xlink:href="PostProcessingRunner_8h.html" target="_top" xlink:title="Framework/include/Quality\lControl/PostProcessingRunner.h">
<polygon fill="none" stroke="black" points="598,-134.5 598,-164.5 758,-164.5 758,-134.5 598,-134.5"/>
<text text-anchor="start" x="606" y="-152.5" font-family="Helvetica,sans-Serif" font-size="10.00">Framework/include/Quality</text>
<text text-anchor="middle" x="678" y="-141.5" font-family="Helvetica,sans-Serif" font-size="10.00">Control/PostProcessingRunner.h</text>
</a>
</g>
</g>
<!-- Node1&#45;&gt;Node6 -->
<g id="edge5" class="edge"><title>Node1&#45;&gt;Node6</title>
<path fill="none" stroke="midnightblue" d="M879.954,-199.119C835.774,-188.483 778.784,-174.763 736.615,-164.611"/>
<polygon fill="midnightblue" stroke="midnightblue" points="879.205,-202.538 889.746,-201.476 880.843,-195.733 879.205,-202.538"/>
</g>
<!-- Node9 -->
<g id="node9" class="node"><title>Node9</title>
<g id="a_node9"><a xlink:href="TrendingTaskConfig_8h.html" target="_top" xlink:title="Framework/include/Quality\lControl/TrendingTaskConfig.h">
<polygon fill="none" stroke="black" points="874.5,-134.5 874.5,-164.5 1021.5,-164.5 1021.5,-134.5 874.5,-134.5"/>
<text text-anchor="start" x="882.5" y="-152.5" font-family="Helvetica,sans-Serif" font-size="10.00">Framework/include/Quality</text>
<text text-anchor="middle" x="948" y="-141.5" font-family="Helvetica,sans-Serif" font-size="10.00">Control/TrendingTaskConfig.h</text>
</a>
</g>
</g>
<!-- Node1&#45;&gt;Node9 -->
<g id="edge9" class="edge"><title>Node1&#45;&gt;Node9</title>
<path fill="none" stroke="midnightblue" d="M948,-191.108C948,-182.154 948,-172.323 948,-164.577"/>
<polygon fill="midnightblue" stroke="midnightblue" points="944.5,-191.396 948,-201.396 951.5,-191.396 944.5,-191.396"/>
</g>
<!-- Node14 -->
<g id="node14" class="node"><title>Node14</title>
<g id="a_node14"><a xlink:href="PostProcessingConfig_8cxx.html" target="_top" xlink:title="Framework/src/PostProcessing\lConfig.cxx">
<polygon fill="none" stroke="black" points="1040,-134.5 1040,-164.5 1194,-164.5 1194,-134.5 1040,-134.5"/>
<text text-anchor="start" x="1048" y="-152.5" font-family="Helvetica,sans-Serif" font-size="10.00">Framework/src/PostProcessing</text>
<text text-anchor="middle" x="1117" y="-141.5" font-family="Helvetica,sans-Serif" font-size="10.00">Config.cxx</text>
</a>
</g>
</g>
<!-- Node1&#45;&gt;Node14 -->
<g id="edge14" class="edge"><title>Node1&#45;&gt;Node14</title>
<path fill="none" stroke="midnightblue" d="M994.328,-197.682C1021.43,-187.257 1055.17,-174.281 1080.4,-164.577"/>
<polygon fill="midnightblue" stroke="midnightblue" points="992.747,-194.539 984.67,-201.396 995.26,-201.073 992.747,-194.539"/>
</g>
<!-- Node15 -->
<g id="node15" class="node"><title>Node15</title>
<g id="a_node15"><a xlink:href="testPostProcessingConfig_8cxx.html" target="_top" xlink:title="Framework/test/testPostProcessing\lConfig.cxx">
<polygon fill="none" stroke="black" points="1212.5,-134.5 1212.5,-164.5 1385.5,-164.5 1385.5,-134.5 1212.5,-134.5"/>
<text text-anchor="start" x="1220.5" y="-152.5" font-family="Helvetica,sans-Serif" font-size="10.00">Framework/test/testPostProcessing</text>
<text text-anchor="middle" x="1299" y="-141.5" font-family="Helvetica,sans-Serif" font-size="10.00">Config.cxx</text>
</a>
</g>
</g>
<!-- Node1&#45;&gt;Node15 -->
<g id="edge15" class="edge"><title>Node1&#45;&gt;Node15</title>
<path fill="none" stroke="midnightblue" d="M1033.6,-199.649C1091.52,-188.923 1167.34,-174.882 1223.1,-164.555"/>
<polygon fill="midnightblue" stroke="midnightblue" points="1032.93,-196.214 1023.73,-201.476 1034.2,-203.097 1032.93,-196.214"/>
</g>
<!-- Node3 -->
<g id="node3" class="node"><title>Node3</title>
<g id="a_node3"><a xlink:href="PostProcessingFactory_8cxx.html" target="_top" xlink:title="Framework/src/PostProcessing\lFactory.cxx">
<polygon fill="none" stroke="black" points="0,-67.5 0,-97.5 154,-97.5 154,-67.5 0,-67.5"/>
<text text-anchor="start" x="8" y="-85.5" font-family="Helvetica,sans-Serif" font-size="10.00">Framework/src/PostProcessing</text>
<text text-anchor="middle" x="77" y="-74.5" font-family="Helvetica,sans-Serif" font-size="10.00">Factory.cxx</text>
</a>
</g>
</g>
<!-- Node2&#45;&gt;Node3 -->
<g id="edge2" class="edge"><title>Node2&#45;&gt;Node3</title>
<path fill="none" stroke="midnightblue" d="M281.198,-132.119C236.527,-121.483 178.904,-107.763 136.266,-97.6109"/>
<polygon fill="midnightblue" stroke="midnightblue" points="280.56,-135.565 291.099,-134.476 282.182,-128.755 280.56,-135.565"/>
</g>
<!-- Node4 -->
<g id="node4" class="node"><title>Node4</title>
<polygon fill="none" stroke="#bfbfbf" points="364,-67.5 364,-97.5 518,-97.5 518,-67.5 364,-67.5"/>
<text text-anchor="start" x="372" y="-85.5" font-family="Helvetica,sans-Serif" font-size="10.00">Framework/src/PostProcessing</text>
<text text-anchor="middle" x="441" y="-74.5" font-family="Helvetica,sans-Serif" font-size="10.00">Runner.cxx</text>
</g>
<!-- Node2&#45;&gt;Node4 -->
<g id="edge3" class="edge"><title>Node2&#45;&gt;Node4</title>
<path fill="none" stroke="midnightblue" d="M378.068,-128.451C392.068,-118.452 408.661,-106.6 421.293,-97.5765"/>
<polygon fill="midnightblue" stroke="midnightblue" points="375.849,-125.735 369.746,-134.396 379.917,-131.432 375.849,-125.735"/>
</g>
<!-- Node5 -->
<g id="node5" class="node"><title>Node5</title>
<g id="a_node5"><a xlink:href="testPostProcessingInterface_8cxx.html" target="_top" xlink:title="Framework/test/testPostProcessing\lInterface.cxx">
<polygon fill="none" stroke="black" points="172.5,-67.5 172.5,-97.5 345.5,-97.5 345.5,-67.5 172.5,-67.5"/>
<text text-anchor="start" x="180.5" y="-85.5" font-family="Helvetica,sans-Serif" font-size="10.00">Framework/test/testPostProcessing</text>
<text text-anchor="middle" x="259" y="-74.5" font-family="Helvetica,sans-Serif" font-size="10.00">Interface.cxx</text>
</a>
</g>
</g>
<!-- Node2&#45;&gt;Node5 -->
<g id="edge4" class="edge"><title>Node2&#45;&gt;Node5</title>
<path fill="none" stroke="midnightblue" d="M321.932,-128.451C307.932,-118.452 291.339,-106.6 278.707,-97.5765"/>
<polygon fill="midnightblue" stroke="midnightblue" points="320.083,-131.432 330.254,-134.396 324.151,-125.735 320.083,-131.432"/>
</g>
<!-- Node6&#45;&gt;Node4 -->
<g id="edge6" class="edge"><title>Node6&#45;&gt;Node4</title>
<path fill="none" stroke="midnightblue" d="M616.799,-131.715C578.232,-121.137 528.999,-107.635 492.451,-97.6109"/>
<polygon fill="midnightblue" stroke="midnightblue" points="616.297,-135.206 626.866,-134.476 618.148,-128.456 616.297,-135.206"/>
</g>
<!-- Node7 -->
<g id="node7" class="node"><title>Node7</title>
<g id="a_node7"><a xlink:href="runPostProcessing_8cxx.html" target="_top" xlink:title="This is a standalone executable to run postprocessing. ">
<polygon fill="none" stroke="black" points="536,-73 536,-92 722,-92 722,-73 536,-73"/>
<text text-anchor="middle" x="629" y="-80" font-family="Helvetica,sans-Serif" font-size="10.00">Framework/src/runPostProcessing.cxx</text>
</a>
</g>
</g>
<!-- Node6&#45;&gt;Node7 -->
<g id="edge7" class="edge"><title>Node6&#45;&gt;Node7</title>
<path fill="none" stroke="midnightblue" d="M661.277,-126.316C652.443,-114.598 642.104,-100.883 635.554,-92.1945"/>
<polygon fill="midnightblue" stroke="midnightblue" points="658.553,-128.518 667.368,-134.396 664.143,-124.304 658.553,-128.518"/>
</g>
<!-- Node8 -->
<g id="node8" class="node"><title>Node8</title>
<g id="a_node8"><a xlink:href="testPostProcessingRunner_8cxx.html" target="_top" xlink:title="Framework/test/testPostProcessing\lRunner.cxx">
<polygon fill="none" stroke="black" points="740.5,-67.5 740.5,-97.5 913.5,-97.5 913.5,-67.5 740.5,-67.5"/>
<text text-anchor="start" x="748.5" y="-85.5" font-family="Helvetica,sans-Serif" font-size="10.00">Framework/test/testPostProcessing</text>
<text text-anchor="middle" x="827" y="-74.5" font-family="Helvetica,sans-Serif" font-size="10.00">Runner.cxx</text>
</a>
</g>
</g>
<!-- Node6&#45;&gt;Node8 -->
<g id="edge8" class="edge"><title>Node6&#45;&gt;Node8</title>
<path fill="none" stroke="midnightblue" d="M719.792,-130.269C743.524,-119.916 772.78,-107.153 794.732,-97.5765"/>
<polygon fill="midnightblue" stroke="midnightblue" points="718.097,-127.189 710.331,-134.396 720.896,-133.605 718.097,-127.189"/>
</g>
<!-- Node10 -->
<g id="node10" class="node"><title>Node10</title>
<g id="a_node10"><a xlink:href="TrendingTask_8h.html" target="_top" xlink:title="Framework/include/Quality\lControl/TrendingTask.h">
<polygon fill="none" stroke="black" points="931.5,-67.5 931.5,-97.5 1064.5,-97.5 1064.5,-67.5 931.5,-67.5"/>
<text text-anchor="start" x="939.5" y="-85.5" font-family="Helvetica,sans-Serif" font-size="10.00">Framework/include/Quality</text>
<text text-anchor="middle" x="998" y="-74.5" font-family="Helvetica,sans-Serif" font-size="10.00">Control/TrendingTask.h</text>
</a>
</g>
</g>
<!-- Node9&#45;&gt;Node10 -->
<g id="edge10" class="edge"><title>Node9&#45;&gt;Node10</title>
<path fill="none" stroke="midnightblue" d="M964.964,-126.447C972.309,-116.899 980.689,-106.004 987.172,-97.5765"/>
<polygon fill="midnightblue" stroke="midnightblue" points="962.172,-124.336 958.849,-134.396 967.721,-128.604 962.172,-124.336"/>
</g>
<!-- Node13 -->
<g id="node13" class="node"><title>Node13</title>
<g id="a_node13"><a xlink:href="TrendingTaskConfig_8cxx.html" target="_top" xlink:title="Framework/src/TrendingTask\lConfig.cxx">
<polygon fill="none" stroke="black" points="1083,-67.5 1083,-97.5 1227,-97.5 1227,-67.5 1083,-67.5"/>
<text text-anchor="start" x="1091" y="-85.5" font-family="Helvetica,sans-Serif" font-size="10.00">Framework/src/TrendingTask</text>
<text text-anchor="middle" x="1155" y="-74.5" font-family="Helvetica,sans-Serif" font-size="10.00">Config.cxx</text>
</a>
</g>
</g>
<!-- Node9&#45;&gt;Node13 -->
<g id="edge13" class="edge"><title>Node9&#45;&gt;Node13</title>
<path fill="none" stroke="midnightblue" d="M1002.32,-131.444C1035.87,-120.908 1078.41,-107.549 1110.06,-97.6109"/>
<polygon fill="midnightblue" stroke="midnightblue" points="1001.15,-128.141 992.661,-134.476 1003.25,-134.819 1001.15,-128.141"/>
</g>
<!-- Node11 -->
<g id="node11" class="node"><title>Node11</title>
<g id="a_node11"><a xlink:href="TrendingTask_8cxx.html" target="_top" xlink:title="Framework/src/TrendingTask.cxx">
<polygon fill="none" stroke="black" points="830.5,-6 830.5,-25 993.5,-25 993.5,-6 830.5,-6"/>
<text text-anchor="middle" x="912" y="-13" font-family="Helvetica,sans-Serif" font-size="10.00">Framework/src/TrendingTask.cxx</text>
</a>
</g>
</g>
<!-- Node10&#45;&gt;Node11 -->
<g id="edge11" class="edge"><title>Node10&#45;&gt;Node11</title>
<path fill="none" stroke="midnightblue" d="M971.33,-61.3425C955.281,-49.2128 935.668,-34.389 923.504,-25.1945"/>
<polygon fill="midnightblue" stroke="midnightblue" points="969.251,-64.1585 979.339,-67.396 973.472,-58.5741 969.251,-64.1585"/>
</g>
<!-- Node12 -->
<g id="node12" class="node"><title>Node12</title>
<g id="a_node12"><a xlink:href="testTrendingTask_8cxx.html" target="_top" xlink:title="Framework/test/testTrending\lTask.cxx">
<polygon fill="none" stroke="black" points="1012,-0.5 1012,-30.5 1154,-30.5 1154,-0.5 1012,-0.5"/>
<text text-anchor="start" x="1020" y="-18.5" font-family="Helvetica,sans-Serif" font-size="10.00">Framework/test/testTrending</text>
<text text-anchor="middle" x="1083" y="-7.5" font-family="Helvetica,sans-Serif" font-size="10.00">Task.cxx</text>
</a>
</g>
</g>
<!-- Node10&#45;&gt;Node12 -->
<g id="edge12" class="edge"><title>Node10&#45;&gt;Node12</title>
<path fill="none" stroke="midnightblue" d="M1024.59,-61.1677C1037.59,-51.2283 1052.9,-39.5144 1064.59,-30.5765"/>
<polygon fill="midnightblue" stroke="midnightblue" points="1022.26,-58.5412 1016.44,-67.396 1026.51,-64.1017 1022.26,-58.5412"/>
</g>
</g>
</svg>
        <g id="navigator" transform="translate(0 0)" fill="#404254">
                <rect fill="#f2f5e9" fill-opacity="0.5" stroke="#606060" stroke-width=".5" x="0" y="0" width="60" height="60"/>
                <use id="zoomplus" xlink:href="#zoomPlus" x="17" y="9" onmousedown="handleZoom(evt,'in')"/>
                <use id="zoomminus" xlink:href="#zoomMin" x="42" y="9" onmousedown="handleZoom(evt,'out')"/>
                <use id="reset" xlink:href="#resetDef" x="30" y="36" onmousedown="handleReset()"/>
                <g id="arrowUp" xlink:href="#dirArrow" transform="translate(30 24)" onmousedown="handlePan(0,-1)">
                  <use xlink:href="#rim" fill="#404040">
                        <set attributeName="fill" to="#808080" begin="arrowUp.mouseover" end="arrowUp.mouseout"/>
                  </use>
                  <path fill="none" stroke="white" stroke-width="1.5" d="M0,-3.0v7 M-2.5,-0.5L0,-3.0L2.5,-0.5"/>
                </g>
                <g id="arrowRight" xlink:href="#dirArrow" transform="rotate(90) translate(36 -43)" onmousedown="handlePan(1,0)">
                  <use xlink:href="#rim" fill="#404040">
                        <set attributeName="fill" to="#808080" begin="arrowRight.mouseover" end="arrowRight.mouseout"/>
                  </use>
                  <path fill="none" stroke="white" stroke-width="1.5" d="M0,-3.0v7 M-2.5,-0.5L0,-3.0L2.5,-0.5"/>
                </g>
                <g id="arrowDown" xlink:href="#dirArrow" transform="rotate(180) translate(-30 -48)" onmousedown="handlePan(0,1)">
                  <use xlink:href="#rim" fill="#404040">
                        <set attributeName="fill" to="#808080" begin="arrowDown.mouseover" end="arrowDown.mouseout"/>
                  </use>
                  <path fill="none" stroke="white" stroke-width="1.5" d="M0,-3.0v7 M-2.5,-0.5L0,-3.0L2.5,-0.5"/>
                </g>
                <g id="arrowLeft" xlink:href="#dirArrow" transform="rotate(270) translate(-36 17)" onmousedown="handlePan(-1,0)">
                  <use xlink:href="#rim" fill="#404040">
                        <set attributeName="fill" to="#808080" begin="arrowLeft.mouseover" end="arrowLeft.mouseout"/>
                  </use>
                  <path fill="none" stroke="white" stroke-width="1.5" d="M0,-3.0v7 M-2.5,-0.5L0,-3.0L2.5,-0.5"/>
                </g>
        </g>
        <svg viewBox="0 0 15 15" width="100%" height="30px" preserveAspectRatio="xMaxYMin meet">
         <g id="arrow_out" transform="scale(0.3 0.3)">
          <a xlink:href="PostProcessingConfig_8h__dep__incl_org.svg" target="_base">
           <rect id="button" ry="5" rx="5" y="6" x="6" height="38" width="38"
                fill="#f2f5e9" fill-opacity="0.5" stroke="#606060" stroke-width="1.0"/>
           <path id="arrow"
             d="M 11.500037,31.436501 C 11.940474,20.09759 22.043105,11.32322 32.158766,21.979434 L 37.068811,17.246167 C 37.068811,17.246167 37.088388,32 37.088388,32 L 22.160133,31.978069 C 22.160133,31.978069 26.997745,27.140456 26.997745,27.140456 C 18.528582,18.264221 13.291696,25.230495 11.500037,31.436501 z"
             style="fill:#404040;"/>
          </a>
         </g>
        </svg>
</svg>
