<?xml version="1.0" encoding="UTF-8" standalone="no"?>
<!DOCTYPE svg PUBLIC "-//W3C//DTD SVG 1.1//EN"
 "http://www.w3.org/Graphics/SVG/1.1/DTD/svg11.dtd">
<!-- Generated by graphviz version 2.38.0 (20140413.2041)
 -->
<!-- Title: Modules/EMCAL/src/RawTask.cxx Pages: 1 -->
<!--zoomable 375 -->
<svg id="main" version="1.1" xmlns="http://www.w3.org/2000/svg" xmlns:xlink="http://www.w3.org/1999/xlink" xml:space="preserve" onload="init(evt)">
<style type="text/css"><![CDATA[
.edge:hover path { stroke: red; }
.edge:hover polygon { stroke: red; fill: red; }
]]></style>
<script type="text/javascript"><![CDATA[
var edges = document.getElementsByTagName('g');
if (edges && edges.length) {
  for (var i=0;i<edges.length;i++) {
    if (edges[i].id.substr(0,4)=='edge') {
      edges[i].setAttribute('class','edge');
    }
  }
}
]]></script>
        <defs>
                <circle id="rim" cx="0" cy="0" r="7"/>
                <circle id="rim2" cx="0" cy="0" r="3.5"/>
                <g id="zoomPlus">
                        <use xlink:href="#rim" fill="#404040">
                                <set attributeName="fill" to="#808080" begin="zoomplus.mouseover" end="zoomplus.mouseout"/>
                        </use>
                        <path d="M-4,0h8M0,-4v8" fill="none" stroke="white" stroke-width="1.5" pointer-events="none"/>
                </g>
                <g id="zoomMin">
                        <use xlink:href="#rim" fill="#404040">
                                <set attributeName="fill" to="#808080" begin="zoomminus.mouseover" end="zoomminus.mouseout"/>
                        </use>
                        <path d="M-4,0h8" fill="none" stroke="white" stroke-width="1.5" pointer-events="none"/>
                </g>
                <g id="dirArrow">
                        <path fill="none" stroke="white" stroke-width="1.5" d="M0,-3.0v7 M-2.5,-0.5L0,-3.0L2.5,-0.5"/>
                </g>
               <g id="resetDef">
                       <use xlink:href="#rim2" fill="#404040">
                               <set attributeName="fill" to="#808080" begin="reset.mouseover" end="reset.mouseout"/>
                       </use>
               </g>
        </defs>

<script type="text/javascript">
var viewWidth = 1150;
var viewHeight = 375;
var sectionId = 'dynsection-0';
</script>
<script xlink:href="svgpan.js"/>
<svg id="graph" class="graph">
<g id="viewport">
<title>Modules/EMCAL/src/RawTask.cxx</title>
<!-- Node1 -->
<g id="node1" class="node"><title>Node1</title>
<polygon fill="#bfbfbf" stroke="black" points="367,-347.5 367,-366.5 538,-366.5 538,-347.5 367,-347.5"/>
<text text-anchor="middle" x="452.5" y="-354.5" font-family="Helvetica,sans-Serif" font-size="10.00">Modules/EMCAL/src/RawTask.cxx</text>
</g>
<!-- Node2 -->
<g id="node2" class="node"><title>Node2</title>
<polygon fill="none" stroke="#bfbfbf" points="0,-286 0,-305 65,-305 65,-286 0,-286"/>
<text text-anchor="middle" x="32.5" y="-293" font-family="Helvetica,sans-Serif" font-size="10.00">TCanvas.h</text>
</g>
<!-- Node1&#45;&gt;Node2 -->
<g id="edge1" class="edge"><title>Node1&#45;&gt;Node2</title>
<path fill="none" stroke="midnightblue" d="M366.786,-351.042C289.583,-345.339 173.378,-333.678 74.5,-311 71.0884,-310.218 67.5666,-309.257 64.0811,-308.206"/>
<polygon fill="midnightblue" stroke="midnightblue" points="65.0672,-304.846 54.4748,-305.077 62.8993,-311.502 65.0672,-304.846"/>
</g>
<!-- Node3 -->
<g id="node3" class="node"><title>Node3</title>
<polygon fill="none" stroke="#bfbfbf" points="83.5,-286 83.5,-305 127.5,-305 127.5,-286 83.5,-286"/>
<text text-anchor="middle" x="105.5" y="-293" font-family="Helvetica,sans-Serif" font-size="10.00">TH1.h</text>
</g>
<!-- Node1&#45;&gt;Node3 -->
<g id="edge2" class="edge"><title>Node1&#45;&gt;Node3</title>
<path fill="none" stroke="midnightblue" d="M366.875,-350.689C302.46,-345.051 212.578,-333.66 136.5,-311 134.621,-310.44 132.711,-309.784 130.81,-309.065"/>
<polygon fill="midnightblue" stroke="midnightblue" points="132.126,-305.821 121.555,-305.109 129.375,-312.258 132.126,-305.821"/>
</g>
<!-- Node4 -->
<g id="node4" class="node"><title>Node4</title>
<polygon fill="none" stroke="#bfbfbf" points="146,-286 146,-305 217,-305 217,-286 146,-286"/>
<text text-anchor="middle" x="181.5" y="-293" font-family="Helvetica,sans-Serif" font-size="10.00">TProfile2D.h</text>
</g>
<!-- Node1&#45;&gt;Node4 -->
<g id="edge3" class="edge"><title>Node1&#45;&gt;Node4</title>
<path fill="none" stroke="midnightblue" d="M399.791,-347.44C353.515,-339.477 284.562,-326.524 225.5,-311 222.131,-310.114 218.642,-309.114 215.171,-308.062"/>
<polygon fill="midnightblue" stroke="midnightblue" points="216.138,-304.697 205.548,-305.015 214.025,-311.37 216.138,-304.697"/>
</g>
<!-- Node5 -->
<g id="node5" class="node"><title>Node5</title>
<polygon fill="none" stroke="#bfbfbf" points="235,-286 235,-305 288,-305 288,-286 235,-286"/>
<text text-anchor="middle" x="261.5" y="-293" font-family="Helvetica,sans-Serif" font-size="10.00">TMath.h</text>
</g>
<!-- Node1&#45;&gt;Node5 -->
<g id="edge4" class="edge"><title>Node1&#45;&gt;Node5</title>
<path fill="none" stroke="midnightblue" d="M419.542,-347.462C387.957,-339.039 339.08,-325.369 297.5,-311 295.589,-310.34 293.632,-309.635 291.666,-308.906"/>
<polygon fill="midnightblue" stroke="midnightblue" points="292.516,-305.482 281.926,-305.14 289.992,-312.011 292.516,-305.482"/>
</g>
<!-- Node6 -->
<g id="node6" class="node"><title>Node6</title>
<g id="a_node6"><a xlink:href="QcInfoLogger_8h.html" target="_top" xlink:title="QualityControl/QcInfoLogger.h">
<polygon fill="none" stroke="black" points="306,-286 306,-305 455,-305 455,-286 306,-286"/>
<text text-anchor="middle" x="380.5" y="-293" font-family="Helvetica,sans-Serif" font-size="10.00">QualityControl/QcInfoLogger.h</text>
</a>
</g>
</g>
<!-- Node1&#45;&gt;Node6 -->
<g id="edge5" class="edge"><title>Node1&#45;&gt;Node6</title>
<path fill="none" stroke="midnightblue" d="M442.184,-347.475C430.849,-338.108 412.427,-322.884 398.661,-311.508"/>
<polygon fill="midnightblue" stroke="midnightblue" points="400.735,-308.681 390.797,-305.009 396.276,-314.077 400.735,-308.681"/>
</g>
<!-- Node8 -->
<g id="node8" class="node"><title>Node8</title>
<g id="a_node8"><a xlink:href="RawTask_8h.html" target="_top" xlink:title="EMCAL/RawTask.h">
<polygon fill="none" stroke="black" points="473.5,-286 473.5,-305 577.5,-305 577.5,-286 473.5,-286"/>
<text text-anchor="middle" x="525.5" y="-293" font-family="Helvetica,sans-Serif" font-size="10.00">EMCAL/RawTask.h</text>
</a>
</g>
</g>
<!-- Node1&#45;&gt;Node8 -->
<g id="edge7" class="edge"><title>Node1&#45;&gt;Node8</title>
<path fill="none" stroke="midnightblue" d="M462.959,-347.475C474.451,-338.108 493.13,-322.884 507.087,-311.508"/>
<polygon fill="midnightblue" stroke="midnightblue" points="509.52,-314.04 515.06,-305.009 505.098,-308.614 509.52,-314.04"/>
</g>
<!-- Node26 -->
<g id="node26" class="node"><title>Node26</title>
<polygon fill="none" stroke="#bfbfbf" points="596,-286 596,-305 737,-305 737,-286 596,-286"/>
<text text-anchor="middle" x="666.5" y="-293" font-family="Helvetica,sans-Serif" font-size="10.00">Headers/RAWDataHeader.h</text>
</g>
<!-- Node1&#45;&gt;Node26 -->
<g id="edge35" class="edge"><title>Node1&#45;&gt;Node26</title>
<path fill="none" stroke="midnightblue" d="M483.161,-347.475C520.744,-337.026 584.544,-319.287 626.098,-307.733"/>
<polygon fill="midnightblue" stroke="midnightblue" points="627.199,-311.06 635.896,-305.009 625.324,-304.316 627.199,-311.06"/>
</g>
<!-- Node27 -->
<g id="node27" class="node"><title>Node27</title>
<polygon fill="none" stroke="#bfbfbf" points="755,-280.5 755,-310.5 872,-310.5 872,-280.5 755,-280.5"/>
<text text-anchor="start" x="763" y="-298.5" font-family="Helvetica,sans-Serif" font-size="10.00">EMCALReconstruction</text>
<text text-anchor="middle" x="813.5" y="-287.5" font-family="Helvetica,sans-Serif" font-size="10.00">/AltroDecoder.h</text>
</g>
<!-- Node1&#45;&gt;Node27 -->
<g id="edge36" class="edge"><title>Node1&#45;&gt;Node27</title>
<path fill="none" stroke="midnightblue" d="M515.487,-347.497C572.874,-339.492 660.197,-326.666 744.694,-311.275"/>
<polygon fill="midnightblue" stroke="midnightblue" points="745.511,-314.684 754.715,-309.435 744.247,-307.799 745.511,-314.684"/>
</g>
<!-- Node28 -->
<g id="node28" class="node"><title>Node28</title>
<polygon fill="none" stroke="#bfbfbf" points="890,-280.5 890,-310.5 1007,-310.5 1007,-280.5 890,-280.5"/>
<text text-anchor="start" x="898" y="-298.5" font-family="Helvetica,sans-Serif" font-size="10.00">EMCALReconstruction</text>
<text text-anchor="middle" x="948.5" y="-287.5" font-family="Helvetica,sans-Serif" font-size="10.00">/RawReaderMemory.h</text>
</g>
<!-- Node1&#45;&gt;Node28 -->
<g id="edge37" class="edge"><title>Node1&#45;&gt;Node28</title>
<path fill="none" stroke="midnightblue" d="M538.325,-349.756C622.897,-342.974 755.946,-330.623 879.709,-311.189"/>
<polygon fill="midnightblue" stroke="midnightblue" points="880.416,-314.62 889.742,-309.594 879.317,-307.707 880.416,-314.62"/>
</g>
<!-- Node29 -->
<g id="node29" class="node"><title>Node29</title>
<polygon fill="none" stroke="#bfbfbf" points="1025,-280.5 1025,-310.5 1142,-310.5 1142,-280.5 1025,-280.5"/>
<text text-anchor="start" x="1033" y="-298.5" font-family="Helvetica,sans-Serif" font-size="10.00">EMCALReconstruction</text>
<text text-anchor="middle" x="1083.5" y="-287.5" font-family="Helvetica,sans-Serif" font-size="10.00">/RawHeaderStream.h</text>
</g>
<!-- Node1&#45;&gt;Node29 -->
<g id="edge38" class="edge"><title>Node1&#45;&gt;Node29</title>
<path fill="none" stroke="midnightblue" d="M538.419,-352.714C647.233,-347.753 840.601,-336.269 1014.64,-311.156"/>
<polygon fill="midnightblue" stroke="midnightblue" points="1015.37,-314.587 1024.76,-309.678 1014.35,-307.661 1015.37,-314.587"/>
</g>
<!-- Node7 -->
<g id="node7" class="node"><title>Node7</title>
<polygon fill="none" stroke="#bfbfbf" points="280.5,-224.5 280.5,-243.5 410.5,-243.5 410.5,-224.5 280.5,-224.5"/>
<text text-anchor="middle" x="345.5" y="-231.5" font-family="Helvetica,sans-Serif" font-size="10.00">InfoLogger/InfoLogger.hxx</text>
</g>
<!-- Node6&#45;&gt;Node7 -->
<g id="edge6" class="edge"><title>Node6&#45;&gt;Node7</title>
<path fill="none" stroke="midnightblue" d="M375.485,-285.975C370.339,-277.227 362.188,-263.369 355.682,-252.309"/>
<polygon fill="midnightblue" stroke="midnightblue" points="358.592,-250.354 350.505,-243.509 352.559,-253.903 358.592,-250.354"/>
</g>
<!-- Node9 -->
<g id="node9" class="node"><title>Node9</title>
<g id="a_node9"><a xlink:href="TaskInterface_8h.html" target="_top" xlink:title="QualityControl/TaskInterface.h">
<polygon fill="none" stroke="black" points="658.5,-224.5 658.5,-243.5 808.5,-243.5 808.5,-224.5 658.5,-224.5"/>
<text text-anchor="middle" x="733.5" y="-231.5" font-family="Helvetica,sans-Serif" font-size="10.00">QualityControl/TaskInterface.h</text>
</a>
</g>
</g>
<!-- Node8&#45;&gt;Node9 -->
<g id="edge8" class="edge"><title>Node8&#45;&gt;Node9</title>
<path fill="none" stroke="midnightblue" d="M555.301,-285.975C591.753,-275.548 653.58,-257.862 693.974,-246.307"/>
<polygon fill="midnightblue" stroke="midnightblue" points="695.102,-249.624 703.754,-243.509 693.177,-242.894 695.102,-249.624"/>
</g>
<!-- Node11 -->
<g id="node11" class="node"><title>Node11</title>
<polygon fill="none" stroke="#bfbfbf" points="546.5,-112.5 546.5,-131.5 598.5,-131.5 598.5,-112.5 546.5,-112.5"/>
<text text-anchor="middle" x="572.5" y="-119.5" font-family="Helvetica,sans-Serif" font-size="10.00">memory</text>
</g>
<!-- Node8&#45;&gt;Node11 -->
<g id="edge33" class="edge"><title>Node8&#45;&gt;Node11</title>
<path fill="none" stroke="midnightblue" d="M505.885,-285.917C489.86,-277.717 468.313,-263.684 458.5,-244 454.534,-236.045 456.105,-232.56 458.5,-224 466.346,-195.96 471.572,-188.244 492.5,-168 506.538,-154.421 525.471,-143.53 541.395,-135.865"/>
<polygon fill="midnightblue" stroke="midnightblue" points="543.228,-138.874 550.85,-131.515 540.302,-132.515 543.228,-138.874"/>
</g>
<!-- Node24 -->
<g id="node24" class="node"><title>Node24</title>
<polygon fill="none" stroke="#bfbfbf" points="467,-224.5 467,-243.5 584,-243.5 584,-224.5 467,-224.5"/>
<text text-anchor="middle" x="525.5" y="-231.5" font-family="Helvetica,sans-Serif" font-size="10.00">EMCALBase/Mapper.h</text>
</g>
<!-- Node8&#45;&gt;Node24 -->
<g id="edge32" class="edge"><title>Node8&#45;&gt;Node24</title>
<path fill="none" stroke="midnightblue" d="M525.5,-285.975C525.5,-277.58 525.5,-264.481 525.5,-253.663"/>
<polygon fill="midnightblue" stroke="midnightblue" points="529,-253.509 525.5,-243.509 522,-253.509 529,-253.509"/>
</g>
<!-- Node25 -->
<g id="node25" class="node"><title>Node25</title>
<polygon fill="none" stroke="#bfbfbf" points="602.5,-224.5 602.5,-243.5 640.5,-243.5 640.5,-224.5 602.5,-224.5"/>
<text text-anchor="middle" x="621.5" y="-231.5" font-family="Helvetica,sans-Serif" font-size="10.00">array</text>
</g>
<!-- Node8&#45;&gt;Node25 -->
<g id="edge34" class="edge"><title>Node8&#45;&gt;Node25</title>
<path fill="none" stroke="midnightblue" d="M539.254,-285.975C554.866,-276.299 580.563,-260.372 599.083,-248.894"/>
<polygon fill="midnightblue" stroke="midnightblue" points="601.115,-251.752 607.771,-243.509 597.427,-245.802 601.115,-251.752"/>
</g>
<!-- Node10 -->
<g id="node10" class="node"><title>Node10</title>
<polygon fill="none" stroke="#bfbfbf" points="863,-56.5 863,-75.5 898,-75.5 898,-56.5 863,-56.5"/>
<text text-anchor="middle" x="880.5" y="-63.5" font-family="Helvetica,sans-Serif" font-size="10.00">map</text>
</g>
<!-- Node9&#45;&gt;Node10 -->
<g id="edge9" class="edge"><title>Node9&#45;&gt;Node10</title>
<path fill="none" stroke="midnightblue" d="M808.601,-228.488C868.294,-223.148 944.916,-211.768 964.5,-188 994.655,-151.404 937.054,-104.339 903.005,-81.1724"/>
<polygon fill="midnightblue" stroke="midnightblue" points="904.792,-78.1579 894.521,-75.5587 900.929,-83.9957 904.792,-78.1579"/>
</g>
<!-- Node9&#45;&gt;Node11 -->
<g id="edge10" class="edge"><title>Node9&#45;&gt;Node11</title>
<path fill="none" stroke="midnightblue" d="M667.207,-224.481C602.447,-215.48 512.088,-200.839 501.5,-188 484.928,-167.905 514.852,-148.185 540.8,-135.832"/>
<polygon fill="midnightblue" stroke="midnightblue" points="542.42,-138.941 550.086,-131.628 539.532,-132.564 542.42,-138.941"/>
</g>
<!-- Node12 -->
<g id="node12" class="node"><title>Node12</title>
<polygon fill="none" stroke="#bfbfbf" points="283,-0.5 283,-19.5 324,-19.5 324,-0.5 283,-0.5"/>
<text text-anchor="middle" x="303.5" y="-7.5" font-family="Helvetica,sans-Serif" font-size="10.00">string</text>
</g>
<!-- Node9&#45;&gt;Node12 -->
<g id="edge11" class="edge"><title>Node9&#45;&gt;Node12</title>
<path fill="none" stroke="midnightblue" d="M658.406,-224.833C655.399,-224.544 652.421,-224.266 649.5,-224 542.531,-214.277 261.414,-240.124 167.5,-188 113.43,-157.99 85.4428,-104.743 123.5,-56 141.707,-32.6808 226.462,-19.6576 272.888,-14.1611"/>
<polygon fill="midnightblue" stroke="midnightblue" points="273.45,-17.6199 282.99,-13.0123 272.659,-10.6647 273.45,-17.6199"/>
</g>
<!-- Node13 -->
<g id="node13" class="node"><title>Node13</title>
<polygon fill="none" stroke="#bfbfbf" points="133,-56.5 133,-75.5 216,-75.5 216,-56.5 133,-56.5"/>
<text text-anchor="middle" x="174.5" y="-63.5" font-family="Helvetica,sans-Serif" font-size="10.00">unordered_map</text>
</g>
<!-- Node9&#45;&gt;Node13 -->
<g id="edge12" class="edge"><title>Node9&#45;&gt;Node13</title>
<path fill="none" stroke="midnightblue" d="M658.401,-224.882C655.396,-224.58 652.42,-224.285 649.5,-224 467.439,-206.255 414.951,-239.747 239.5,-188 188.395,-172.927 161.003,-177.635 133.5,-132 123.099,-114.741 139.241,-95.2228 154.227,-82.118"/>
<polygon fill="midnightblue" stroke="midnightblue" points="156.731,-84.5916 162.258,-75.5524 152.3,-79.1721 156.731,-84.5916"/>
</g>
<!-- Node14 -->
<g id="node14" class="node"><title>Node14</title>
<polygon fill="none" stroke="#bfbfbf" points="510,-168.5 510,-187.5 635,-187.5 635,-168.5 510,-168.5"/>
<text text-anchor="middle" x="572.5" y="-175.5" font-family="Helvetica,sans-Serif" font-size="10.00">Framework/InitContext.h</text>
</g>
<!-- Node9&#45;&gt;Node14 -->
<g id="edge13" class="edge"><title>Node9&#45;&gt;Node14</title>
<path fill="none" stroke="midnightblue" d="M707.989,-224.444C680.904,-215.359 637.91,-200.939 607.631,-190.783"/>
<polygon fill="midnightblue" stroke="midnightblue" points="608.486,-187.378 597.892,-187.516 606.26,-194.015 608.486,-187.378"/>
</g>
<!-- Node15 -->
<g id="node15" class="node"><title>Node15</title>
<polygon fill="none" stroke="#bfbfbf" points="653.5,-168.5 653.5,-187.5 813.5,-187.5 813.5,-168.5 653.5,-168.5"/>
<text text-anchor="middle" x="733.5" y="-175.5" font-family="Helvetica,sans-Serif" font-size="10.00">Framework/ProcessingContext.h</text>
</g>
<!-- Node9&#45;&gt;Node15 -->
<g id="edge14" class="edge"><title>Node9&#45;&gt;Node15</title>
<path fill="none" stroke="midnightblue" d="M733.5,-224.083C733.5,-217.006 733.5,-206.861 733.5,-197.986"/>
<polygon fill="midnightblue" stroke="midnightblue" points="737,-197.751 733.5,-187.751 730,-197.751 737,-197.751"/>
</g>
<!-- Node16 -->
<g id="node16" class="node"><title>Node16</title>
<g id="a_node16"><a xlink:href="Activity_8h.html" target="_top" xlink:title="QualityControl/Activity.h">
<polygon fill="none" stroke="black" points="832,-168.5 832,-187.5 955,-187.5 955,-168.5 832,-168.5"/>
<text text-anchor="middle" x="893.5" y="-175.5" font-family="Helvetica,sans-Serif" font-size="10.00">QualityControl/Activity.h</text>
</a>
</g>
</g>
<!-- Node9&#45;&gt;Node16 -->
<g id="edge15" class="edge"><title>Node9&#45;&gt;Node16</title>
<path fill="none" stroke="midnightblue" d="M758.852,-224.444C785.769,-215.359 828.496,-200.939 858.587,-190.783"/>
<polygon fill="midnightblue" stroke="midnightblue" points="859.91,-194.031 868.266,-187.516 857.672,-187.398 859.91,-194.031"/>
</g>
<!-- Node17 -->
<g id="node17" class="node"><title>Node17</title>
<g id="a_node17"><a xlink:href="ObjectsManager_8h.html" target="_top" xlink:title="QualityControl/ObjectsManager.h">
<polygon fill="none" stroke="black" points="249,-168.5 249,-187.5 410,-187.5 410,-168.5 249,-168.5"/>
<text text-anchor="middle" x="329.5" y="-175.5" font-family="Helvetica,sans-Serif" font-size="10.00">QualityControl/ObjectsManager.h</text>
</a>
</g>
</g>
<!-- Node9&#45;&gt;Node17 -->
<g id="edge16" class="edge"><title>Node9&#45;&gt;Node17</title>
<path fill="none" stroke="midnightblue" d="M669.485,-224.444C597.087,-214.767 479.393,-199.035 403.217,-188.853"/>
<polygon fill="midnightblue" stroke="midnightblue" points="403.591,-185.372 393.216,-187.516 402.664,-192.311 403.591,-185.372"/>
</g>
<!-- Node17&#45;&gt;Node11 -->
<g id="edge31" class="edge"><title>Node17&#45;&gt;Node11</title>
<path fill="none" stroke="midnightblue" d="M371.439,-168.423C411.387,-160.143 473.45,-146.992 536.098,-132.267"/>
<polygon fill="midnightblue" stroke="midnightblue" points="537.227,-135.597 546.154,-129.891 535.617,-128.784 537.227,-135.597"/>
</g>
<!-- Node17&#45;&gt;Node12 -->
<g id="edge30" class="edge"><title>Node17&#45;&gt;Node12</title>
<path fill="none" stroke="midnightblue" d="M328.102,-168.075C324.01,-141.945 311.991,-65.2106 306.41,-29.577"/>
<polygon fill="midnightblue" stroke="midnightblue" points="309.847,-28.906 304.842,-19.5681 302.932,-29.9893 309.847,-28.906"/>
</g>
<!-- Node18 -->
<g id="node18" class="node"><title>Node18</title>
<g id="a_node18"><a xlink:href="MonitorObject_8h.html" target="_top" xlink:title="QualityControl/MonitorObject.h">
<polygon fill="none" stroke="black" points="377,-112.5 377,-131.5 528,-131.5 528,-112.5 377,-112.5"/>
<text text-anchor="middle" x="452.5" y="-119.5" font-family="Helvetica,sans-Serif" font-size="10.00">QualityControl/MonitorObject.h</text>
</a>
</g>
</g>
<!-- Node17&#45;&gt;Node18 -->
<g id="edge17" class="edge"><title>Node17&#45;&gt;Node18</title>
<path fill="none" stroke="midnightblue" d="M348.99,-168.444C369.142,-159.596 400.823,-145.687 423.831,-135.586"/>
<polygon fill="midnightblue" stroke="midnightblue" points="425.352,-138.741 433.101,-131.516 422.538,-132.332 425.352,-138.741"/>
</g>
<!-- Node22 -->
<g id="node22" class="node"><title>Node22</title>
<g id="a_node22"><a xlink:href="Quality_8h.html" target="_top" xlink:title="QualityControl/Quality.h">
<polygon fill="none" stroke="black" points="370,-56.5 370,-75.5 491,-75.5 491,-56.5 370,-56.5"/>
<text text-anchor="middle" x="430.5" y="-63.5" font-family="Helvetica,sans-Serif" font-size="10.00">QualityControl/Quality.h</text>
</a>
</g>
</g>
<!-- Node17&#45;&gt;Node22 -->
<g id="edge26" class="edge"><title>Node17&#45;&gt;Node22</title>
<path fill="none" stroke="midnightblue" d="M333.17,-168.251C339.022,-155.012 351.462,-129.572 367.5,-112 378.656,-99.7772 393.653,-88.9029 406.216,-80.907"/>
<polygon fill="midnightblue" stroke="midnightblue" points="408.149,-83.8271 414.844,-75.6154 404.489,-77.8599 408.149,-83.8271"/>
</g>
<!-- Node23 -->
<g id="node23" class="node"><title>Node23</title>
<g id="a_node23"><a xlink:href="TaskConfig_8h.html" target="_top" xlink:title="QualityControl/TaskConfig.h">
<polygon fill="none" stroke="black" points="142.5,-112.5 142.5,-131.5 282.5,-131.5 282.5,-112.5 142.5,-112.5"/>
<text text-anchor="middle" x="212.5" y="-119.5" font-family="Helvetica,sans-Serif" font-size="10.00">QualityControl/TaskConfig.h</text>
</a>
</g>
</g>
<!-- Node17&#45;&gt;Node23 -->
<g id="edge27" class="edge"><title>Node17&#45;&gt;Node23</title>
<path fill="none" stroke="midnightblue" d="M310.961,-168.444C291.877,-159.636 261.925,-145.812 240.064,-135.722"/>
<polygon fill="midnightblue" stroke="midnightblue" points="241.499,-132.529 230.952,-131.516 238.565,-138.885 241.499,-132.529"/>
</g>
<!-- Node18&#45;&gt;Node10 -->
<g id="edge19" class="edge"><title>Node18&#45;&gt;Node10</title>
<path fill="none" stroke="midnightblue" d="M520.318,-112.444C615.882,-100.386 785.947,-78.9296 852.603,-70.5197"/>
<polygon fill="midnightblue" stroke="midnightblue" points="853.26,-73.9647 862.743,-69.2404 852.383,-67.0197 853.26,-73.9647"/>
</g>
<!-- Node18&#45;&gt;Node12 -->
<g id="edge18" class="edge"><title>Node18&#45;&gt;Node12</title>
<path fill="none" stroke="midnightblue" d="M429.434,-112.481C410.161,-104.712 382.534,-92.015 361.5,-76 343.337,-62.1713 326.43,-42.0536 315.611,-27.8701"/>
<polygon fill="midnightblue" stroke="midnightblue" points="318.196,-25.4805 309.429,-19.5322 312.573,-29.6497 318.196,-25.4805"/>
</g>
<!-- Node19 -->
<g id="node19" class="node"><title>Node19</title>
<polygon fill="none" stroke="#bfbfbf" points="446.5,-0.5 446.5,-19.5 502.5,-19.5 502.5,-0.5 446.5,-0.5"/>
<text text-anchor="middle" x="474.5" y="-7.5" font-family="Helvetica,sans-Serif" font-size="10.00">Rtypes.h</text>
</g>
<!-- Node18&#45;&gt;Node19 -->
<g id="edge20" class="edge"><title>Node18&#45;&gt;Node19</title>
<path fill="none" stroke="midnightblue" d="M466.87,-112.33C478.38,-104.469 493.689,-91.7221 500.5,-76 507.488,-59.8708 498.282,-41.2204 488.949,-28.0452"/>
<polygon fill="midnightblue" stroke="midnightblue" points="491.544,-25.6783 482.665,-19.897 486.001,-29.9531 491.544,-25.6783"/>
</g>
<!-- Node20 -->
<g id="node20" class="node"><title>Node20</title>
<polygon fill="none" stroke="#bfbfbf" points="548,-56.5 548,-75.5 607,-75.5 607,-56.5 548,-56.5"/>
<text text-anchor="middle" x="577.5" y="-63.5" font-family="Helvetica,sans-Serif" font-size="10.00">TObject.h</text>
</g>
<!-- Node18&#45;&gt;Node20 -->
<g id="edge21" class="edge"><title>Node18&#45;&gt;Node20</title>
<path fill="none" stroke="midnightblue" d="M472.307,-112.444C492.787,-103.596 524.983,-89.6875 548.365,-79.5865"/>
<polygon fill="midnightblue" stroke="midnightblue" points="549.994,-82.6953 557.786,-75.5164 547.218,-76.2692 549.994,-82.6953"/>
</g>
<!-- Node21 -->
<g id="node21" class="node"><title>Node21</title>
<polygon fill="none" stroke="#bfbfbf" points="625.5,-56.5 625.5,-75.5 741.5,-75.5 741.5,-56.5 625.5,-56.5"/>
<text text-anchor="middle" x="683.5" y="-63.5" font-family="Helvetica,sans-Serif" font-size="10.00">Common/Exceptions.h</text>
</g>
<!-- Node18&#45;&gt;Node21 -->
<g id="edge22" class="edge"><title>Node18&#45;&gt;Node21</title>
<path fill="none" stroke="midnightblue" d="M489.103,-112.444C529.231,-103.063 593.698,-87.9926 637.285,-77.8036"/>
<polygon fill="midnightblue" stroke="midnightblue" points="638.128,-81.2009 647.069,-75.5164 636.534,-74.3847 638.128,-81.2009"/>
</g>
<!-- Node18&#45;&gt;Node22 -->
<g id="edge23" class="edge"><title>Node18&#45;&gt;Node22</title>
<path fill="none" stroke="midnightblue" d="M448.867,-112.083C445.888,-104.77 441.574,-94.1814 437.875,-85.1034"/>
<polygon fill="midnightblue" stroke="midnightblue" points="441.08,-83.6914 434.065,-75.7511 434.597,-86.3326 441.08,-83.6914"/>
</g>
<!-- Node22&#45;&gt;Node12 -->
<g id="edge25" class="edge"><title>Node22&#45;&gt;Node12</title>
<path fill="none" stroke="midnightblue" d="M410.376,-56.4435C389.476,-47.5566 356.565,-33.5632 332.784,-23.4514"/>
<polygon fill="midnightblue" stroke="midnightblue" points="334.102,-20.2085 323.529,-19.5164 331.362,-26.6504 334.102,-20.2085"/>
</g>
<!-- Node22&#45;&gt;Node19 -->
<g id="edge24" class="edge"><title>Node22&#45;&gt;Node19</title>
<path fill="none" stroke="midnightblue" d="M437.766,-56.083C444.045,-48.3768 453.288,-37.0333 460.931,-27.6531"/>
<polygon fill="midnightblue" stroke="midnightblue" points="463.766,-29.7143 467.369,-19.7511 458.339,-25.2926 463.766,-29.7143"/>
</g>
<!-- Node23&#45;&gt;Node12 -->
<g id="edge28" class="edge"><title>Node23&#45;&gt;Node12</title>
<path fill="none" stroke="midnightblue" d="M219.641,-112.368C234.791,-94.0547 270.369,-51.0489 289.964,-27.3624"/>
<polygon fill="midnightblue" stroke="midnightblue" points="292.715,-29.5276 296.393,-19.5914 287.321,-25.0656 292.715,-29.5276"/>
</g>
<!-- Node23&#45;&gt;Node13 -->
<g id="edge29" class="edge"><title>Node23&#45;&gt;Node13</title>
<path fill="none" stroke="midnightblue" d="M206.225,-112.083C200.858,-104.455 192.982,-93.2645 186.421,-83.9408"/>
<polygon fill="midnightblue" stroke="midnightblue" points="189.275,-81.9149 180.658,-75.7511 183.551,-85.9434 189.275,-81.9149"/>
</g>
</g>
</svg>
        <g id="navigator" transform="translate(0 0)" fill="#404254">
                <rect fill="#f2f5e9" fill-opacity="0.5" stroke="#606060" stroke-width=".5" x="0" y="0" width="60" height="60"/>
                <use id="zoomplus" xlink:href="#zoomPlus" x="17" y="9" onmousedown="handleZoom(evt,'in')"/>
                <use id="zoomminus" xlink:href="#zoomMin" x="42" y="9" onmousedown="handleZoom(evt,'out')"/>
                <use id="reset" xlink:href="#resetDef" x="30" y="36" onmousedown="handleReset()"/>
                <g id="arrowUp" xlink:href="#dirArrow" transform="translate(30 24)" onmousedown="handlePan(0,-1)">
                  <use xlink:href="#rim" fill="#404040">
                        <set attributeName="fill" to="#808080" begin="arrowUp.mouseover" end="arrowUp.mouseout"/>
                  </use>
                  <path fill="none" stroke="white" stroke-width="1.5" d="M0,-3.0v7 M-2.5,-0.5L0,-3.0L2.5,-0.5"/>
                </g>
                <g id="arrowRight" xlink:href="#dirArrow" transform="rotate(90) translate(36 -43)" onmousedown="handlePan(1,0)">
                  <use xlink:href="#rim" fill="#404040">
                        <set attributeName="fill" to="#808080" begin="arrowRight.mouseover" end="arrowRight.mouseout"/>
                  </use>
                  <path fill="none" stroke="white" stroke-width="1.5" d="M0,-3.0v7 M-2.5,-0.5L0,-3.0L2.5,-0.5"/>
                </g>
                <g id="arrowDown" xlink:href="#dirArrow" transform="rotate(180) translate(-30 -48)" onmousedown="handlePan(0,1)">
                  <use xlink:href="#rim" fill="#404040">
                        <set attributeName="fill" to="#808080" begin="arrowDown.mouseover" end="arrowDown.mouseout"/>
                  </use>
                  <path fill="none" stroke="white" stroke-width="1.5" d="M0,-3.0v7 M-2.5,-0.5L0,-3.0L2.5,-0.5"/>
                </g>
                <g id="arrowLeft" xlink:href="#dirArrow" transform="rotate(270) translate(-36 17)" onmousedown="handlePan(-1,0)">
                  <use xlink:href="#rim" fill="#404040">
                        <set attributeName="fill" to="#808080" begin="arrowLeft.mouseover" end="arrowLeft.mouseout"/>
                  </use>
                  <path fill="none" stroke="white" stroke-width="1.5" d="M0,-3.0v7 M-2.5,-0.5L0,-3.0L2.5,-0.5"/>
                </g>
        </g>
        <svg viewBox="0 0 15 15" width="100%" height="30px" preserveAspectRatio="xMaxYMin meet">
         <g id="arrow_out" transform="scale(0.3 0.3)">
          <a xlink:href="RawTask_8cxx__incl_org.svg" target="_base">
           <rect id="button" ry="5" rx="5" y="6" x="6" height="38" width="38"
                fill="#f2f5e9" fill-opacity="0.5" stroke="#606060" stroke-width="1.0"/>
           <path id="arrow"
             d="M 11.500037,31.436501 C 11.940474,20.09759 22.043105,11.32322 32.158766,21.979434 L 37.068811,17.246167 C 37.068811,17.246167 37.088388,32 37.088388,32 L 22.160133,31.978069 C 22.160133,31.978069 26.997745,27.140456 26.997745,27.140456 C 18.528582,18.264221 13.291696,25.230495 11.500037,31.436501 z"
             style="fill:#404040;"/>
          </a>
         </g>
        </svg>
</svg>
