<?xml version="1.0" encoding="UTF-8" standalone="no"?>
<!DOCTYPE svg PUBLIC "-//W3C//DTD SVG 1.1//EN"
 "http://www.w3.org/Graphics/SVG/1.1/DTD/svg11.dtd">
<!-- Generated by graphviz version 2.38.0 (20140413.2041)
 -->
<!-- Title: Modules/EMCAL/include/EMCAL/RawTask.h Pages: 1 -->
<svg width="988pt" height="319pt"
 viewBox="0.00 0.00 988.50 319.00" xmlns="http://www.w3.org/2000/svg" xmlns:xlink="http://www.w3.org/1999/xlink">
<g id="graph0" class="graph" transform="scale(1 1) rotate(0) translate(4 315)">
<title>Modules/EMCAL/include/EMCAL/RawTask.h</title>
<!-- Node1 -->
<g id="node1" class="node"><title>Node1</title>
<polygon fill="#bfbfbf" stroke="black" points="759,-280.5 759,-310.5 884,-310.5 884,-280.5 759,-280.5"/>
<text text-anchor="start" x="767" y="-298.5" font-family="Helvetica,sans-Serif" font-size="10.00">Modules/EMCAL/include</text>
<text text-anchor="middle" x="821.5" y="-287.5" font-family="Helvetica,sans-Serif" font-size="10.00">/EMCAL/RawTask.h</text>
</g>
<!-- Node2 -->
<g id="node2" class="node"><title>Node2</title>
<g id="a_node2"><a xlink:href="TaskInterface_8h.html" target="_top" xlink:title="QualityControl/TaskInterface.h">
<polygon fill="none" stroke="black" points="236.5,-224.5 236.5,-243.5 386.5,-243.5 386.5,-224.5 236.5,-224.5"/>
<text text-anchor="middle" x="311.5" y="-231.5" font-family="Helvetica,sans-Serif" font-size="10.00">QualityControl/TaskInterface.h</text>
</a>
</g>
</g>
<!-- Node1&#45;&gt;Node2 -->
<g id="edge1" class="edge"><title>Node1&#45;&gt;Node2</title>
<path fill="none" stroke="midnightblue" d="M758.964,-287.204C667.324,-276.513 496.402,-256.572 394.391,-244.671"/>
<polygon fill="midnightblue" stroke="midnightblue" points="394.773,-241.192 384.435,-243.509 393.962,-248.144 394.773,-241.192"/>
</g>
<!-- Node4 -->
<g id="node4" class="node"><title>Node4</title>
<polygon fill="none" stroke="#bfbfbf" points="714.5,-112.5 714.5,-131.5 766.5,-131.5 766.5,-112.5 714.5,-112.5"/>
<text text-anchor="middle" x="740.5" y="-119.5" font-family="Helvetica,sans-Serif" font-size="10.00">memory</text>
</g>
<!-- Node1&#45;&gt;Node4 -->
<g id="edge26" class="edge"><title>Node1&#45;&gt;Node4</title>
<path fill="none" stroke="midnightblue" d="M814.871,-280.465C800.216,-249.436 765.083,-175.049 748.909,-140.806"/>
<polygon fill="midnightblue" stroke="midnightblue" points="751.978,-139.107 744.542,-131.56 745.648,-142.097 751.978,-139.107"/>
</g>
<!-- Node17 -->
<g id="node17" class="node"><title>Node17</title>
<polygon fill="none" stroke="#bfbfbf" points="807,-224.5 807,-243.5 924,-243.5 924,-224.5 807,-224.5"/>
<text text-anchor="middle" x="865.5" y="-231.5" font-family="Helvetica,sans-Serif" font-size="10.00">EMCALBase/Mapper.h</text>
</g>
<!-- Node1&#45;&gt;Node17 -->
<g id="edge25" class="edge"><title>Node1&#45;&gt;Node17</title>
<path fill="none" stroke="midnightblue" d="M831.927,-280.399C838.255,-271.842 846.368,-260.871 853.034,-251.857"/>
<polygon fill="midnightblue" stroke="midnightblue" points="855.966,-253.779 859.097,-243.658 850.337,-249.617 855.966,-253.779"/>
</g>
<!-- Node18 -->
<g id="node18" class="node"><title>Node18</title>
<polygon fill="none" stroke="#bfbfbf" points="942.5,-224.5 942.5,-243.5 980.5,-243.5 980.5,-224.5 942.5,-224.5"/>
<text text-anchor="middle" x="961.5" y="-231.5" font-family="Helvetica,sans-Serif" font-size="10.00">array</text>
</g>
<!-- Node1&#45;&gt;Node18 -->
<g id="edge27" class="edge"><title>Node1&#45;&gt;Node18</title>
<path fill="none" stroke="midnightblue" d="M854.678,-280.399C878.485,-270.281 910.236,-256.787 932.922,-247.145"/>
<polygon fill="midnightblue" stroke="midnightblue" points="934.509,-250.274 942.343,-243.142 931.771,-243.832 934.509,-250.274"/>
</g>
<!-- Node3 -->
<g id="node3" class="node"><title>Node3</title>
<polygon fill="none" stroke="#bfbfbf" points="276,-56.5 276,-75.5 311,-75.5 311,-56.5 276,-56.5"/>
<text text-anchor="middle" x="293.5" y="-63.5" font-family="Helvetica,sans-Serif" font-size="10.00">map</text>
</g>
<!-- Node2&#45;&gt;Node3 -->
<g id="edge2" class="edge"><title>Node2&#45;&gt;Node3</title>
<path fill="none" stroke="midnightblue" d="M236.354,-228.633C176.063,-223.373 98.3322,-212.029 78.4997,-188 29.14,-128.195 57.9532,-193.911 190.5,-132 221.069,-117.721 253.546,-95.9903 273.676,-81.644"/>
<polygon fill="midnightblue" stroke="midnightblue" points="275.95,-84.3192 282.005,-75.6254 271.85,-78.6454 275.95,-84.3192"/>
</g>
<!-- Node2&#45;&gt;Node4 -->
<g id="edge3" class="edge"><title>Node2&#45;&gt;Node4</title>
<path fill="none" stroke="midnightblue" d="M386.836,-229.219C498.216,-222.963 696.432,-209.023 721.5,-188 734.852,-176.802 739.112,-156.782 740.332,-141.909"/>
<polygon fill="midnightblue" stroke="midnightblue" points="743.835,-141.913 740.773,-131.77 736.842,-141.609 743.835,-141.913"/>
</g>
<!-- Node5 -->
<g id="node5" class="node"><title>Node5</title>
<polygon fill="none" stroke="#bfbfbf" points="227,-0.5 227,-19.5 268,-19.5 268,-0.5 227,-0.5"/>
<text text-anchor="middle" x="247.5" y="-7.5" font-family="Helvetica,sans-Serif" font-size="10.00">string</text>
</g>
<!-- Node2&#45;&gt;Node5 -->
<g id="edge4" class="edge"><title>Node2&#45;&gt;Node5</title>
<path fill="none" stroke="midnightblue" d="M236.316,-230.393C163.959,-226.252 61.5115,-215.561 33.4997,-188 -8.36235,-146.812 -11.2317,-100.145 27.4997,-56 52.0259,-28.0458 162.18,-16.7646 216.714,-12.8308"/>
<polygon fill="midnightblue" stroke="midnightblue" points="217.1,-16.3128 226.838,-12.1393 216.623,-9.32906 217.1,-16.3128"/>
</g>
<!-- Node6 -->
<g id="node6" class="node"><title>Node6</title>
<polygon fill="none" stroke="#bfbfbf" points="36.9997,-56.5 36.9997,-75.5 120,-75.5 120,-56.5 36.9997,-56.5"/>
<text text-anchor="middle" x="78.4997" y="-63.5" font-family="Helvetica,sans-Serif" font-size="10.00">unordered_map</text>
</g>
<!-- Node2&#45;&gt;Node6 -->
<g id="edge5" class="edge"><title>Node2&#45;&gt;Node6</title>
<path fill="none" stroke="midnightblue" d="M236.233,-227.431C171.634,-221.278 84.7634,-209.297 57.4997,-188 29.4773,-166.111 18.7118,-144.776 32.4997,-112 37.5255,-100.053 47.4434,-89.6922 56.7872,-81.9339"/>
<polygon fill="midnightblue" stroke="midnightblue" points="58.9389,-84.6944 64.7132,-75.8113 54.6597,-79.1547 58.9389,-84.6944"/>
</g>
<!-- Node7 -->
<g id="node7" class="node"><title>Node7</title>
<polygon fill="none" stroke="#bfbfbf" points="87.9997,-168.5 87.9997,-187.5 213,-187.5 213,-168.5 87.9997,-168.5"/>
<text text-anchor="middle" x="150.5" y="-175.5" font-family="Helvetica,sans-Serif" font-size="10.00">Framework/InitContext.h</text>
</g>
<!-- Node2&#45;&gt;Node7 -->
<g id="edge6" class="edge"><title>Node2&#45;&gt;Node7</title>
<path fill="none" stroke="midnightblue" d="M285.989,-224.444C258.904,-215.359 215.91,-200.939 185.631,-190.783"/>
<polygon fill="midnightblue" stroke="midnightblue" points="186.485,-187.378 175.891,-187.516 184.259,-194.015 186.485,-187.378"/>
</g>
<!-- Node8 -->
<g id="node8" class="node"><title>Node8</title>
<polygon fill="none" stroke="#bfbfbf" points="231.5,-168.5 231.5,-187.5 391.5,-187.5 391.5,-168.5 231.5,-168.5"/>
<text text-anchor="middle" x="311.5" y="-175.5" font-family="Helvetica,sans-Serif" font-size="10.00">Framework/ProcessingContext.h</text>
</g>
<!-- Node2&#45;&gt;Node8 -->
<g id="edge7" class="edge"><title>Node2&#45;&gt;Node8</title>
<path fill="none" stroke="midnightblue" d="M311.5,-224.083C311.5,-217.006 311.5,-206.861 311.5,-197.986"/>
<polygon fill="midnightblue" stroke="midnightblue" points="315,-197.751 311.5,-187.751 308,-197.751 315,-197.751"/>
</g>
<!-- Node9 -->
<g id="node9" class="node"><title>Node9</title>
<g id="a_node9"><a xlink:href="Activity_8h.html" target="_top" xlink:title="QualityControl/Activity.h">
<polygon fill="none" stroke="black" points="410,-168.5 410,-187.5 533,-187.5 533,-168.5 410,-168.5"/>
<text text-anchor="middle" x="471.5" y="-175.5" font-family="Helvetica,sans-Serif" font-size="10.00">QualityControl/Activity.h</text>
</a>
</g>
</g>
<!-- Node2&#45;&gt;Node9 -->
<g id="edge8" class="edge"><title>Node2&#45;&gt;Node9</title>
<path fill="none" stroke="midnightblue" d="M336.852,-224.444C363.769,-215.359 406.496,-200.939 436.587,-190.783"/>
<polygon fill="midnightblue" stroke="midnightblue" points="437.91,-194.031 446.266,-187.516 435.672,-187.398 437.91,-194.031"/>
</g>
<!-- Node10 -->
<g id="node10" class="node"><title>Node10</title>
<g id="a_node10"><a xlink:href="ObjectsManager_8h.html" target="_top" xlink:title="QualityControl/ObjectsManager.h">
<polygon fill="none" stroke="black" points="551,-168.5 551,-187.5 712,-187.5 712,-168.5 551,-168.5"/>
<text text-anchor="middle" x="631.5" y="-175.5" font-family="Helvetica,sans-Serif" font-size="10.00">QualityControl/ObjectsManager.h</text>
</a>
</g>
</g>
<!-- Node2&#45;&gt;Node10 -->
<g id="edge9" class="edge"><title>Node2&#45;&gt;Node10</title>
<path fill="none" stroke="midnightblue" d="M362.205,-224.444C418.847,-214.885 510.495,-199.419 570.879,-189.23"/>
<polygon fill="midnightblue" stroke="midnightblue" points="571.754,-192.632 581.032,-187.516 570.589,-185.729 571.754,-192.632"/>
</g>
<!-- Node10&#45;&gt;Node4 -->
<g id="edge24" class="edge"><title>Node10&#45;&gt;Node4</title>
<path fill="none" stroke="midnightblue" d="M649.012,-168.324C666.572,-159.625 693.831,-146.12 714.031,-136.113"/>
<polygon fill="midnightblue" stroke="midnightblue" points="715.624,-139.23 723.03,-131.655 712.516,-132.958 715.624,-139.23"/>
</g>
<!-- Node10&#45;&gt;Node5 -->
<g id="edge23" class="edge"><title>Node10&#45;&gt;Node5</title>
<path fill="none" stroke="midnightblue" d="M573.542,-168.441C481.534,-153.671 308.173,-120.635 266.5,-76 254.851,-63.5231 250.304,-44.2915 248.55,-29.98"/>
<polygon fill="midnightblue" stroke="midnightblue" points="252.016,-29.4382 247.66,-19.7803 245.042,-30.0468 252.016,-29.4382"/>
</g>
<!-- Node11 -->
<g id="node11" class="node"><title>Node11</title>
<g id="a_node11"><a xlink:href="MonitorObject_8h.html" target="_top" xlink:title="QualityControl/MonitorObject.h">
<polygon fill="none" stroke="black" points="428,-112.5 428,-131.5 579,-131.5 579,-112.5 428,-112.5"/>
<text text-anchor="middle" x="503.5" y="-119.5" font-family="Helvetica,sans-Serif" font-size="10.00">QualityControl/MonitorObject.h</text>
</a>
</g>
</g>
<!-- Node10&#45;&gt;Node11 -->
<g id="edge10" class="edge"><title>Node10&#45;&gt;Node11</title>
<path fill="none" stroke="midnightblue" d="M611.218,-168.444C590.152,-159.557 556.983,-145.563 533.014,-135.451"/>
<polygon fill="midnightblue" stroke="midnightblue" points="534.261,-132.179 523.687,-131.516 531.54,-138.628 534.261,-132.179"/>
</g>
<!-- Node15 -->
<g id="node15" class="node"><title>Node15</title>
<g id="a_node15"><a xlink:href="Quality_8h.html" target="_top" xlink:title="QualityControl/Quality.h">
<polygon fill="none" stroke="black" points="580,-56.5 580,-75.5 701,-75.5 701,-56.5 580,-56.5"/>
<text text-anchor="middle" x="640.5" y="-63.5" font-family="Helvetica,sans-Serif" font-size="10.00">QualityControl/Quality.h</text>
</a>
</g>
</g>
<!-- Node10&#45;&gt;Node15 -->
<g id="edge19" class="edge"><title>Node10&#45;&gt;Node15</title>
<path fill="none" stroke="midnightblue" d="M632.206,-168.368C633.658,-150.617 637.009,-109.666 638.978,-85.5974"/>
<polygon fill="midnightblue" stroke="midnightblue" points="642.47,-85.8436 639.797,-75.5914 635.493,-85.2727 642.47,-85.8436"/>
</g>
<!-- Node16 -->
<g id="node16" class="node"><title>Node16</title>
<g id="a_node16"><a xlink:href="TaskConfig_8h.html" target="_top" xlink:title="QualityControl/TaskConfig.h">
<polygon fill="none" stroke="black" points="41.4997,-112.5 41.4997,-131.5 181.5,-131.5 181.5,-112.5 41.4997,-112.5"/>
<text text-anchor="middle" x="111.5" y="-119.5" font-family="Helvetica,sans-Serif" font-size="10.00">QualityControl/TaskConfig.h</text>
</a>
</g>
</g>
<!-- Node10&#45;&gt;Node16 -->
<g id="edge20" class="edge"><title>Node10&#45;&gt;Node16</title>
<path fill="none" stroke="midnightblue" d="M550.82,-168.622C453.011,-158.465 289.188,-141.452 191.628,-131.321"/>
<polygon fill="midnightblue" stroke="midnightblue" points="191.833,-127.824 181.525,-130.272 191.11,-134.786 191.833,-127.824"/>
</g>
<!-- Node11&#45;&gt;Node3 -->
<g id="edge12" class="edge"><title>Node11&#45;&gt;Node3</title>
<path fill="none" stroke="midnightblue" d="M468.639,-112.477C432.702,-103.623 375.082,-89.2374 325.5,-76 324.036,-75.6092 322.536,-75.204 321.023,-74.7913"/>
<polygon fill="midnightblue" stroke="midnightblue" points="321.653,-71.3342 311.082,-72.0355 319.783,-78.0798 321.653,-71.3342"/>
</g>
<!-- Node11&#45;&gt;Node5 -->
<g id="edge11" class="edge"><title>Node11&#45;&gt;Node5</title>
<path fill="none" stroke="midnightblue" d="M468.114,-112.449C438.239,-104.661 394.675,-91.9531 358.5,-76 340.953,-68.2619 296.989,-41.65 269.952,-24.972"/>
<polygon fill="midnightblue" stroke="midnightblue" points="271.511,-21.8207 261.165,-19.5343 267.827,-27.773 271.511,-21.8207"/>
</g>
<!-- Node12 -->
<g id="node12" class="node"><title>Node12</title>
<polygon fill="none" stroke="#bfbfbf" points="656.5,-0.5 656.5,-19.5 712.5,-19.5 712.5,-0.5 656.5,-0.5"/>
<text text-anchor="middle" x="684.5" y="-7.5" font-family="Helvetica,sans-Serif" font-size="10.00">Rtypes.h</text>
</g>
<!-- Node11&#45;&gt;Node12 -->
<g id="edge13" class="edge"><title>Node11&#45;&gt;Node12</title>
<path fill="none" stroke="midnightblue" d="M579.244,-114.404C631.343,-108.116 693.999,-96.4736 710.5,-76 721.995,-61.7373 710.942,-41.7385 699.908,-27.7015"/>
<polygon fill="midnightblue" stroke="midnightblue" points="702.377,-25.2016 693.241,-19.8364 697.037,-29.7278 702.377,-25.2016"/>
</g>
<!-- Node13 -->
<g id="node13" class="node"><title>Node13</title>
<polygon fill="none" stroke="#bfbfbf" points="368,-56.5 368,-75.5 427,-75.5 427,-56.5 368,-56.5"/>
<text text-anchor="middle" x="397.5" y="-63.5" font-family="Helvetica,sans-Serif" font-size="10.00">TObject.h</text>
</g>
<!-- Node11&#45;&gt;Node13 -->
<g id="edge14" class="edge"><title>Node11&#45;&gt;Node13</title>
<path fill="none" stroke="midnightblue" d="M486.469,-112.324C469.47,-103.664 443.124,-90.2424 423.507,-80.249"/>
<polygon fill="midnightblue" stroke="midnightblue" points="424.987,-77.0752 414.488,-75.6545 421.81,-83.3125 424.987,-77.0752"/>
</g>
<!-- Node14 -->
<g id="node14" class="node"><title>Node14</title>
<polygon fill="none" stroke="#bfbfbf" points="445.5,-56.5 445.5,-75.5 561.5,-75.5 561.5,-56.5 445.5,-56.5"/>
<text text-anchor="middle" x="503.5" y="-63.5" font-family="Helvetica,sans-Serif" font-size="10.00">Common/Exceptions.h</text>
</g>
<!-- Node11&#45;&gt;Node14 -->
<g id="edge15" class="edge"><title>Node11&#45;&gt;Node14</title>
<path fill="none" stroke="midnightblue" d="M503.5,-112.083C503.5,-105.006 503.5,-94.8611 503.5,-85.9865"/>
<polygon fill="midnightblue" stroke="midnightblue" points="507,-85.751 503.5,-75.7511 500,-85.7511 507,-85.751"/>
</g>
<!-- Node11&#45;&gt;Node15 -->
<g id="edge16" class="edge"><title>Node11&#45;&gt;Node15</title>
<path fill="none" stroke="midnightblue" d="M525.208,-112.444C547.854,-103.517 583.572,-89.4387 609.251,-79.3168"/>
<polygon fill="midnightblue" stroke="midnightblue" points="610.873,-82.4397 618.893,-75.5164 608.306,-75.9273 610.873,-82.4397"/>
</g>
<!-- Node15&#45;&gt;Node5 -->
<g id="edge18" class="edge"><title>Node15&#45;&gt;Node5</title>
<path fill="none" stroke="midnightblue" d="M579.955,-56.6808C494.904,-44.9945 343.204,-24.1502 278.319,-15.2347"/>
<polygon fill="midnightblue" stroke="midnightblue" points="278.699,-11.7542 268.316,-13.8602 277.746,-18.689 278.699,-11.7542"/>
</g>
<!-- Node15&#45;&gt;Node12 -->
<g id="edge17" class="edge"><title>Node15&#45;&gt;Node12</title>
<path fill="none" stroke="midnightblue" d="M647.765,-56.083C654.045,-48.3768 663.287,-37.0333 670.931,-27.6531"/>
<polygon fill="midnightblue" stroke="midnightblue" points="673.766,-29.7143 677.369,-19.7511 668.339,-25.2926 673.766,-29.7143"/>
</g>
<!-- Node16&#45;&gt;Node5 -->
<g id="edge21" class="edge"><title>Node16&#45;&gt;Node5</title>
<path fill="none" stroke="midnightblue" d="M122.171,-112.368C145.211,-93.7334 199.86,-49.5324 228.789,-26.1338"/>
<polygon fill="midnightblue" stroke="midnightblue" points="231.304,-28.6014 236.878,-19.5914 226.901,-23.1589 231.304,-28.6014"/>
</g>
<!-- Node16&#45;&gt;Node6 -->
<g id="edge22" class="edge"><title>Node16&#45;&gt;Node6</title>
<path fill="none" stroke="midnightblue" d="M106.05,-112.083C101.485,-104.613 94.8313,-93.7244 89.2063,-84.5199"/>
<polygon fill="midnightblue" stroke="midnightblue" points="92.0486,-82.4588 83.8476,-75.7511 86.0756,-86.109 92.0486,-82.4588"/>
</g>
</g>
</svg>
