<?xml version="1.0" encoding="UTF-8" standalone="no"?>
<!DOCTYPE svg PUBLIC "-//W3C//DTD SVG 1.1//EN"
 "http://www.w3.org/Graphics/SVG/1.1/DTD/svg11.dtd">
<!-- Generated by graphviz version 2.38.0 (20140413.2041)
 -->
<!-- Title: Framework/src/RepositoryBenchmark.h Pages: 1 -->
<svg width="950pt" height="263pt"
 viewBox="0.00 0.00 949.50 263.00" xmlns="http://www.w3.org/2000/svg" xmlns:xlink="http://www.w3.org/1999/xlink">
<g id="graph0" class="graph" transform="scale(1 1) rotate(0) translate(4 259)">
<title>Framework/src/RepositoryBenchmark.h</title>
<!-- Node1 -->
<g id="node1" class="node"><title>Node1</title>
<polygon fill="#bfbfbf" stroke="black" points="523.5,-224.5 523.5,-254.5 655.5,-254.5 655.5,-224.5 523.5,-224.5"/>
<text text-anchor="start" x="531.5" y="-242.5" font-family="Helvetica,sans-Serif" font-size="10.00">Framework/src/Repository</text>
<text text-anchor="middle" x="589.5" y="-231.5" font-family="Helvetica,sans-Serif" font-size="10.00">Benchmark.h</text>
</g>
<!-- Node2 -->
<g id="node2" class="node"><title>Node2</title>
<g id="a_node2"><a xlink:href="DatabaseInterface_8h.html" target="_top" xlink:title="QualityControl/DatabaseInterface.h">
<polygon fill="none" stroke="black" points="243.5,-168.5 243.5,-187.5 413.5,-187.5 413.5,-168.5 243.5,-168.5"/>
<text text-anchor="middle" x="328.5" y="-175.5" font-family="Helvetica,sans-Serif" font-size="10.00">QualityControl/DatabaseInterface.h</text>
</a>
</g>
</g>
<!-- Node1&#45;&gt;Node2 -->
<g id="edge1" class="edge"><title>Node1&#45;&gt;Node2</title>
<path fill="none" stroke="midnightblue" d="M527.977,-224.475C481.376,-213.851 418.307,-199.473 375.658,-189.751"/>
<polygon fill="midnightblue" stroke="midnightblue" points="376.341,-186.317 365.814,-187.506 374.786,-193.142 376.341,-186.317"/>
</g>
<!-- Node3 -->
<g id="node3" class="node"><title>Node3</title>
<polygon fill="none" stroke="#bfbfbf" points="0,-0.5 0,-19.5 41,-19.5 41,-0.5 0,-0.5"/>
<text text-anchor="middle" x="20.5" y="-7.5" font-family="Helvetica,sans-Serif" font-size="10.00">string</text>
</g>
<!-- Node1&#45;&gt;Node3 -->
<g id="edge26" class="edge"><title>Node1&#45;&gt;Node3</title>
<path fill="none" stroke="midnightblue" d="M523.36,-233.544C395.606,-222.697 121.325,-192.816 51.5,-132 22.0246,-106.328 18.688,-56.8204 19.2942,-29.7699"/>
<polygon fill="midnightblue" stroke="midnightblue" points="22.7948,-29.8287 19.7307,-19.6866 15.8014,-29.5259 22.7948,-29.8287"/>
</g>
<!-- Node15 -->
<g id="node15" class="node"><title>Node15</title>
<polygon fill="none" stroke="#bfbfbf" points="431.5,-168.5 431.5,-187.5 549.5,-187.5 549.5,-168.5 431.5,-168.5"/>
<text text-anchor="middle" x="490.5" y="-175.5" font-family="Helvetica,sans-Serif" font-size="10.00">fairmq/FairMQDevice.h</text>
</g>
<!-- Node1&#45;&gt;Node15 -->
<g id="edge21" class="edge"><title>Node1&#45;&gt;Node15</title>
<path fill="none" stroke="midnightblue" d="M566.038,-224.399C550.169,-214.862 529.309,-202.325 513.532,-192.842"/>
<polygon fill="midnightblue" stroke="midnightblue" points="515.279,-189.809 504.905,-187.658 511.674,-195.809 515.279,-189.809"/>
</g>
<!-- Node16 -->
<g id="node16" class="node"><title>Node16</title>
<polygon fill="none" stroke="#bfbfbf" points="567.5,-168.5 567.5,-187.5 611.5,-187.5 611.5,-168.5 567.5,-168.5"/>
<text text-anchor="middle" x="589.5" y="-175.5" font-family="Helvetica,sans-Serif" font-size="10.00">TH1.h</text>
</g>
<!-- Node1&#45;&gt;Node16 -->
<g id="edge22" class="edge"><title>Node1&#45;&gt;Node16</title>
<path fill="none" stroke="midnightblue" d="M589.5,-224.399C589.5,-216.466 589.5,-206.458 589.5,-197.858"/>
<polygon fill="midnightblue" stroke="midnightblue" points="593,-197.658 589.5,-187.658 586,-197.658 593,-197.658"/>
</g>
<!-- Node17 -->
<g id="node17" class="node"><title>Node17</title>
<polygon fill="none" stroke="#bfbfbf" points="630,-168.5 630,-187.5 781,-187.5 781,-168.5 630,-168.5"/>
<text text-anchor="middle" x="705.5" y="-175.5" font-family="Helvetica,sans-Serif" font-size="10.00">Monitoring/MonitoringFactory.h</text>
</g>
<!-- Node1&#45;&gt;Node17 -->
<g id="edge23" class="edge"><title>Node1&#45;&gt;Node17</title>
<path fill="none" stroke="midnightblue" d="M616.99,-224.399C635.932,-214.684 660.942,-201.855 679.544,-192.314"/>
<polygon fill="midnightblue" stroke="midnightblue" points="681.321,-195.336 688.621,-187.658 678.126,-189.108 681.321,-195.336"/>
</g>
<!-- Node18 -->
<g id="node18" class="node"><title>Node18</title>
<polygon fill="none" stroke="#bfbfbf" points="799.5,-168.5 799.5,-187.5 879.5,-187.5 879.5,-168.5 799.5,-168.5"/>
<text text-anchor="middle" x="839.5" y="-175.5" font-family="Helvetica,sans-Serif" font-size="10.00">boost/asio.hpp</text>
</g>
<!-- Node1&#45;&gt;Node18 -->
<g id="edge24" class="edge"><title>Node1&#45;&gt;Node18</title>
<path fill="none" stroke="midnightblue" d="M648.43,-224.475C692.878,-213.896 752.968,-199.595 793.811,-189.874"/>
<polygon fill="midnightblue" stroke="midnightblue" points="794.841,-193.227 803.759,-187.506 793.22,-186.417 794.841,-193.227"/>
</g>
<!-- Node19 -->
<g id="node19" class="node"><title>Node19</title>
<polygon fill="none" stroke="#bfbfbf" points="897.5,-168.5 897.5,-187.5 941.5,-187.5 941.5,-168.5 897.5,-168.5"/>
<text text-anchor="middle" x="919.5" y="-175.5" font-family="Helvetica,sans-Serif" font-size="10.00">thread</text>
</g>
<!-- Node1&#45;&gt;Node19 -->
<g id="edge25" class="edge"><title>Node1&#45;&gt;Node19</title>
<path fill="none" stroke="midnightblue" d="M655.549,-229.577C714.164,-221.151 802.251,-207.251 887.399,-188.043"/>
<polygon fill="midnightblue" stroke="midnightblue" points="888.259,-191.437 897.229,-185.799 886.701,-184.612 888.259,-191.437"/>
</g>
<!-- Node2&#45;&gt;Node3 -->
<g id="edge2" class="edge"><title>Node2&#45;&gt;Node3</title>
<path fill="none" stroke="midnightblue" d="M243.199,-169.181C180.812,-162.114 102.556,-150.027 75.5,-132 40.5631,-108.722 27.5055,-57.4176 22.8743,-29.6792"/>
<polygon fill="midnightblue" stroke="midnightblue" points="26.3231,-29.075 21.4047,-19.691 19.3977,-30.094 26.3231,-29.075"/>
</g>
<!-- Node4 -->
<g id="node4" class="node"><title>Node4</title>
<polygon fill="none" stroke="#bfbfbf" points="420.5,-112.5 420.5,-131.5 472.5,-131.5 472.5,-112.5 420.5,-112.5"/>
<text text-anchor="middle" x="446.5" y="-119.5" font-family="Helvetica,sans-Serif" font-size="10.00">memory</text>
</g>
<!-- Node2&#45;&gt;Node4 -->
<g id="edge3" class="edge"><title>Node2&#45;&gt;Node4</title>
<path fill="none" stroke="midnightblue" d="M347.197,-168.444C366.444,-159.636 396.652,-145.812 418.7,-135.722"/>
<polygon fill="midnightblue" stroke="midnightblue" points="420.253,-138.86 427.89,-131.516 417.34,-132.495 420.253,-138.86"/>
</g>
<!-- Node5 -->
<g id="node5" class="node"><title>Node5</title>
<polygon fill="none" stroke="#bfbfbf" points="490.5,-112.5 490.5,-131.5 534.5,-131.5 534.5,-112.5 490.5,-112.5"/>
<text text-anchor="middle" x="512.5" y="-119.5" font-family="Helvetica,sans-Serif" font-size="10.00">vector</text>
</g>
<!-- Node2&#45;&gt;Node5 -->
<g id="edge4" class="edge"><title>Node2&#45;&gt;Node5</title>
<path fill="none" stroke="midnightblue" d="M357.655,-168.444C391.227,-158.591 446.185,-142.462 480.796,-132.304"/>
<polygon fill="midnightblue" stroke="midnightblue" points="481.801,-135.657 490.411,-129.483 479.83,-128.94 481.801,-135.657"/>
</g>
<!-- Node6 -->
<g id="node6" class="node"><title>Node6</title>
<polygon fill="none" stroke="#bfbfbf" points="553,-112.5 553,-131.5 636,-131.5 636,-112.5 553,-112.5"/>
<text text-anchor="middle" x="594.5" y="-119.5" font-family="Helvetica,sans-Serif" font-size="10.00">unordered_map</text>
</g>
<!-- Node2&#45;&gt;Node6 -->
<g id="edge5" class="edge"><title>Node2&#45;&gt;Node6</title>
<path fill="none" stroke="midnightblue" d="M370.648,-168.444C417.383,-158.956 492.786,-143.649 542.987,-133.457"/>
<polygon fill="midnightblue" stroke="midnightblue" points="543.883,-136.847 552.987,-131.428 542.49,-129.987 543.883,-136.847"/>
</g>
<!-- Node7 -->
<g id="node7" class="node"><title>Node7</title>
<g id="a_node7"><a xlink:href="QualityObject_8h_source.html" target="_top" xlink:title="QualityControl/QualityObject.h">
<polygon fill="none" stroke="black" points="254,-112.5 254,-131.5 403,-131.5 403,-112.5 254,-112.5"/>
<text text-anchor="middle" x="328.5" y="-119.5" font-family="Helvetica,sans-Serif" font-size="10.00">QualityControl/QualityObject.h</text>
</a>
</g>
</g>
<!-- Node2&#45;&gt;Node7 -->
<g id="edge6" class="edge"><title>Node2&#45;&gt;Node7</title>
<path fill="none" stroke="midnightblue" d="M328.5,-168.083C328.5,-161.006 328.5,-150.861 328.5,-141.986"/>
<polygon fill="midnightblue" stroke="midnightblue" points="332,-141.751 328.5,-131.751 325,-141.751 332,-141.751"/>
</g>
<!-- Node14 -->
<g id="node14" class="node"><title>Node14</title>
<g id="a_node14"><a xlink:href="MonitorObject_8h.html" target="_top" xlink:title="QualityControl/MonitorObject.h">
<polygon fill="none" stroke="black" points="85,-112.5 85,-131.5 236,-131.5 236,-112.5 85,-112.5"/>
<text text-anchor="middle" x="160.5" y="-119.5" font-family="Helvetica,sans-Serif" font-size="10.00">QualityControl/MonitorObject.h</text>
</a>
</g>
</g>
<!-- Node2&#45;&gt;Node14 -->
<g id="edge14" class="edge"><title>Node2&#45;&gt;Node14</title>
<path fill="none" stroke="midnightblue" d="M301.88,-168.444C273.494,-159.32 228.363,-144.813 196.747,-134.651"/>
<polygon fill="midnightblue" stroke="midnightblue" points="197.587,-131.244 186.996,-131.516 195.445,-137.909 197.587,-131.244"/>
</g>
<!-- Node8 -->
<g id="node8" class="node"><title>Node8</title>
<polygon fill="none" stroke="#bfbfbf" points="510.5,-56.5 510.5,-75.5 564.5,-75.5 564.5,-56.5 510.5,-56.5"/>
<text text-anchor="middle" x="537.5" y="-63.5" font-family="Helvetica,sans-Serif" font-size="10.00">iostream</text>
</g>
<!-- Node7&#45;&gt;Node8 -->
<g id="edge7" class="edge"><title>Node7&#45;&gt;Node8</title>
<path fill="none" stroke="midnightblue" d="M361.617,-112.444C399.418,-102.677 461.089,-86.7425 500.456,-76.5711"/>
<polygon fill="midnightblue" stroke="midnightblue" points="501.393,-79.9441 510.2,-74.0537 499.642,-73.1666 501.393,-79.9441"/>
</g>
<!-- Node9 -->
<g id="node9" class="node"><title>Node9</title>
<polygon fill="none" stroke="#bfbfbf" points="246,-56.5 246,-75.5 281,-75.5 281,-56.5 246,-56.5"/>
<text text-anchor="middle" x="263.5" y="-63.5" font-family="Helvetica,sans-Serif" font-size="10.00">map</text>
</g>
<!-- Node7&#45;&gt;Node9 -->
<g id="edge8" class="edge"><title>Node7&#45;&gt;Node9</title>
<path fill="none" stroke="midnightblue" d="M318.057,-112.324C308.354,-104.263 293.685,-92.0765 282,-82.3695"/>
<polygon fill="midnightblue" stroke="midnightblue" points="284.062,-79.532 274.133,-75.8339 279.589,-84.9163 284.062,-79.532"/>
</g>
<!-- Node10 -->
<g id="node10" class="node"><title>Node10</title>
<polygon fill="none" stroke="#bfbfbf" points="299,-56.5 299,-75.5 358,-75.5 358,-56.5 299,-56.5"/>
<text text-anchor="middle" x="328.5" y="-63.5" font-family="Helvetica,sans-Serif" font-size="10.00">TObject.h</text>
</g>
<!-- Node7&#45;&gt;Node10 -->
<g id="edge9" class="edge"><title>Node7&#45;&gt;Node10</title>
<path fill="none" stroke="midnightblue" d="M328.5,-112.083C328.5,-105.006 328.5,-94.8611 328.5,-85.9865"/>
<polygon fill="midnightblue" stroke="midnightblue" points="332,-85.751 328.5,-75.7511 325,-85.7511 332,-85.751"/>
</g>
<!-- Node11 -->
<g id="node11" class="node"><title>Node11</title>
<polygon fill="none" stroke="#bfbfbf" points="376.5,-56.5 376.5,-75.5 492.5,-75.5 492.5,-56.5 376.5,-56.5"/>
<text text-anchor="middle" x="434.5" y="-63.5" font-family="Helvetica,sans-Serif" font-size="10.00">Common/Exceptions.h</text>
</g>
<!-- Node7&#45;&gt;Node11 -->
<g id="edge10" class="edge"><title>Node7&#45;&gt;Node11</title>
<path fill="none" stroke="midnightblue" d="M345.531,-112.324C362.53,-103.664 388.876,-90.2424 408.493,-80.249"/>
<polygon fill="midnightblue" stroke="midnightblue" points="410.19,-83.3125 417.512,-75.6545 407.012,-77.0752 410.19,-83.3125"/>
</g>
<!-- Node12 -->
<g id="node12" class="node"><title>Node12</title>
<g id="a_node12"><a xlink:href="Quality_8h.html" target="_top" xlink:title="QualityControl/Quality.h">
<polygon fill="none" stroke="black" points="68,-56.5 68,-75.5 189,-75.5 189,-56.5 68,-56.5"/>
<text text-anchor="middle" x="128.5" y="-63.5" font-family="Helvetica,sans-Serif" font-size="10.00">QualityControl/Quality.h</text>
</a>
</g>
</g>
<!-- Node7&#45;&gt;Node12 -->
<g id="edge11" class="edge"><title>Node7&#45;&gt;Node12</title>
<path fill="none" stroke="midnightblue" d="M296.809,-112.444C262.432,-103.162 207.423,-88.3093 169.711,-78.127"/>
<polygon fill="midnightblue" stroke="midnightblue" points="170.609,-74.7442 160.042,-75.5164 168.784,-81.5022 170.609,-74.7442"/>
</g>
<!-- Node12&#45;&gt;Node3 -->
<g id="edge13" class="edge"><title>Node12&#45;&gt;Node3</title>
<path fill="none" stroke="midnightblue" d="M111.148,-56.324C93.8281,-47.6641 66.9847,-34.2424 46.9981,-24.249"/>
<polygon fill="midnightblue" stroke="midnightblue" points="48.3186,-20.9962 37.809,-19.6545 45.188,-27.2572 48.3186,-20.9962"/>
</g>
<!-- Node13 -->
<g id="node13" class="node"><title>Node13</title>
<polygon fill="none" stroke="#bfbfbf" points="144.5,-0.5 144.5,-19.5 200.5,-19.5 200.5,-0.5 144.5,-0.5"/>
<text text-anchor="middle" x="172.5" y="-7.5" font-family="Helvetica,sans-Serif" font-size="10.00">Rtypes.h</text>
</g>
<!-- Node12&#45;&gt;Node13 -->
<g id="edge12" class="edge"><title>Node12&#45;&gt;Node13</title>
<path fill="none" stroke="midnightblue" d="M135.766,-56.083C142.045,-48.3768 151.288,-37.0333 158.931,-27.6531"/>
<polygon fill="midnightblue" stroke="midnightblue" points="161.766,-29.7143 165.369,-19.7511 156.339,-25.2926 161.766,-29.7143"/>
</g>
<!-- Node14&#45;&gt;Node3 -->
<g id="edge15" class="edge"><title>Node14&#45;&gt;Node3</title>
<path fill="none" stroke="midnightblue" d="M128.166,-112.467C106.511,-105.472 78.428,-93.7848 58.5,-76 44.06,-63.113 33.6119,-43.3897 27.3685,-29.0487"/>
<polygon fill="midnightblue" stroke="midnightblue" points="30.586,-27.6697 23.5684,-19.7323 24.1044,-30.3135 30.586,-27.6697"/>
</g>
<!-- Node14&#45;&gt;Node9 -->
<g id="edge16" class="edge"><title>Node14&#45;&gt;Node9</title>
<path fill="none" stroke="midnightblue" d="M177.049,-112.324C193.492,-103.703 218.935,-90.3643 237.968,-80.3855"/>
<polygon fill="midnightblue" stroke="midnightblue" points="239.761,-83.3977 246.992,-75.6545 236.511,-77.198 239.761,-83.3977"/>
</g>
<!-- Node14&#45;&gt;Node10 -->
<g id="edge18" class="edge"><title>Node14&#45;&gt;Node10</title>
<path fill="none" stroke="midnightblue" d="M187.12,-112.444C215.506,-103.32 260.637,-88.8133 292.253,-78.6509"/>
<polygon fill="midnightblue" stroke="midnightblue" points="293.555,-81.9087 302.004,-75.5164 291.413,-75.2445 293.555,-81.9087"/>
</g>
<!-- Node14&#45;&gt;Node11 -->
<g id="edge19" class="edge"><title>Node14&#45;&gt;Node11</title>
<path fill="none" stroke="midnightblue" d="M203.916,-112.444C252.015,-102.964 329.595,-87.6747 381.306,-77.4835"/>
<polygon fill="midnightblue" stroke="midnightblue" points="382.153,-80.8841 391.287,-75.5164 380.799,-74.0162 382.153,-80.8841"/>
</g>
<!-- Node14&#45;&gt;Node12 -->
<g id="edge20" class="edge"><title>Node14&#45;&gt;Node12</title>
<path fill="none" stroke="midnightblue" d="M155.216,-112.083C150.789,-104.613 144.337,-93.7244 138.882,-84.5199"/>
<polygon fill="midnightblue" stroke="midnightblue" points="141.795,-82.5697 133.686,-75.7511 135.773,-86.1383 141.795,-82.5697"/>
</g>
<!-- Node14&#45;&gt;Node13 -->
<g id="edge17" class="edge"><title>Node14&#45;&gt;Node13</title>
<path fill="none" stroke="midnightblue" d="M170.938,-112.245C179.924,-103.969 192.246,-90.663 197.5,-76 203.342,-59.6971 194.82,-41.2892 186.179,-28.2354"/>
<polygon fill="midnightblue" stroke="midnightblue" points="188.765,-25.8375 180.07,-19.7832 183.092,-29.9381 188.765,-25.8375"/>
</g>
</g>
</svg>
