<?xml version="1.0" encoding="UTF-8" standalone="no"?>
<!DOCTYPE svg PUBLIC "-//W3C//DTD SVG 1.1//EN"
 "http://www.w3.org/Graphics/SVG/1.1/DTD/svg11.dtd">
<!-- Generated by graphviz version 2.38.0 (20140413.2041)
 -->
<!-- Title: Framework/src/RepositoryBenchmark.cxx Pages: 1 -->
<svg width="1471pt" height="319pt"
 viewBox="0.00 0.00 1470.54 319.00" xmlns="http://www.w3.org/2000/svg" xmlns:xlink="http://www.w3.org/1999/xlink">
<g id="graph0" class="graph" transform="scale(1 1) rotate(0) translate(4 315)">
<title>Framework/src/RepositoryBenchmark.cxx</title>
<!-- Node1 -->
<g id="node1" class="node"><title>Node1</title>
<polygon fill="#bfbfbf" stroke="black" points="840.038,-280.5 840.038,-310.5 972.038,-310.5 972.038,-280.5 840.038,-280.5"/>
<text text-anchor="start" x="848.038" y="-298.5" font-family="Helvetica,sans-Serif" font-size="10.00">Framework/src/Repository</text>
<text text-anchor="middle" x="906.038" y="-287.5" font-family="Helvetica,sans-Serif" font-size="10.00">Benchmark.cxx</text>
</g>
<!-- Node2 -->
<g id="node2" class="node"><title>Node2</title>
<g id="a_node2"><a xlink:href="RepositoryBenchmark_8h.html" target="_top" xlink:title="RepositoryBenchmark.h">
<polygon fill="none" stroke="black" points="705.038,-224.5 705.038,-243.5 827.038,-243.5 827.038,-224.5 705.038,-224.5"/>
<text text-anchor="middle" x="766.038" y="-231.5" font-family="Helvetica,sans-Serif" font-size="10.00">RepositoryBenchmark.h</text>
</a>
</g>
</g>
<!-- Node1&#45;&gt;Node2 -->
<g id="edge1" class="edge"><title>Node1&#45;&gt;Node2</title>
<path fill="none" stroke="midnightblue" d="M872.86,-280.399C849.475,-270.461 818.426,-257.265 795.832,-247.662"/>
<polygon fill="midnightblue" stroke="midnightblue" points="796.982,-244.348 786.409,-243.658 794.244,-250.79 796.982,-244.348"/>
</g>
<!-- Node12 -->
<g id="node12" class="node"><title>Node12</title>
<polygon fill="none" stroke="#bfbfbf" points="1.03816,-56.5 1.03816,-75.5 117.038,-75.5 117.038,-56.5 1.03816,-56.5"/>
<text text-anchor="middle" x="59.0382" y="-63.5" font-family="Helvetica,sans-Serif" font-size="10.00">Common/Exceptions.h</text>
</g>
<!-- Node1&#45;&gt;Node12 -->
<g id="edge33" class="edge"><title>Node1&#45;&gt;Node12</title>
<path fill="none" stroke="midnightblue" d="M839.942,-292.108C698.248,-286.527 369.337,-271.026 261.038,-244 140.148,-213.832 72.311,-236.227 4.03816,-132 -8.32446,-113.127 13.6033,-93.6538 33.3284,-81.0046"/>
<polygon fill="midnightblue" stroke="midnightblue" points="35.3576,-83.8678 42.1053,-75.6996 31.7366,-77.8771 35.3576,-83.8678"/>
</g>
<!-- Node20 -->
<g id="node20" class="node"><title>Node20</title>
<polygon fill="none" stroke="#bfbfbf" points="1124.04,-168.5 1124.04,-187.5 1168.04,-187.5 1168.04,-168.5 1124.04,-168.5"/>
<text text-anchor="middle" x="1146.04" y="-175.5" font-family="Helvetica,sans-Serif" font-size="10.00">thread</text>
</g>
<!-- Node1&#45;&gt;Node20 -->
<g id="edge29" class="edge"><title>Node1&#45;&gt;Node20</title>
<path fill="none" stroke="midnightblue" d="M891.294,-280.477C877.039,-265.232 859.56,-240.801 874.038,-224 907.591,-185.062 1046.93,-198.038 1113.71,-187.718"/>
<polygon fill="midnightblue" stroke="midnightblue" points="1114.59,-191.116 1123.78,-185.85 1113.31,-184.233 1114.59,-191.116"/>
</g>
<!-- Node21 -->
<g id="node21" class="node"><title>Node21</title>
<polygon fill="none" stroke="#bfbfbf" points="883.038,-224.5 883.038,-243.5 929.038,-243.5 929.038,-224.5 883.038,-224.5"/>
<text text-anchor="middle" x="906.038" y="-231.5" font-family="Helvetica,sans-Serif" font-size="10.00">chrono</text>
</g>
<!-- Node1&#45;&gt;Node21 -->
<g id="edge28" class="edge"><title>Node1&#45;&gt;Node21</title>
<path fill="none" stroke="midnightblue" d="M906.038,-280.399C906.038,-272.466 906.038,-262.458 906.038,-253.858"/>
<polygon fill="midnightblue" stroke="midnightblue" points="909.538,-253.658 906.038,-243.658 902.538,-253.658 909.538,-253.658"/>
</g>
<!-- Node22 -->
<g id="node22" class="node"><title>Node22</title>
<polygon fill="none" stroke="#bfbfbf" points="947.038,-224.5 947.038,-243.5 997.038,-243.5 997.038,-224.5 947.038,-224.5"/>
<text text-anchor="middle" x="972.038" y="-231.5" font-family="Helvetica,sans-Serif" font-size="10.00">TH2F.h</text>
</g>
<!-- Node1&#45;&gt;Node22 -->
<g id="edge30" class="edge"><title>Node1&#45;&gt;Node22</title>
<path fill="none" stroke="midnightblue" d="M921.679,-280.399C931.665,-271.397 944.616,-259.721 954.884,-250.465"/>
<polygon fill="midnightblue" stroke="midnightblue" points="957.351,-252.953 962.435,-243.658 952.664,-247.754 957.351,-252.953"/>
</g>
<!-- Node23 -->
<g id="node23" class="node"><title>Node23</title>
<polygon fill="none" stroke="#bfbfbf" points="1015.04,-224.5 1015.04,-243.5 1131.04,-243.5 1131.04,-224.5 1015.04,-224.5"/>
<text text-anchor="middle" x="1073.04" y="-231.5" font-family="Helvetica,sans-Serif" font-size="10.00">fairmq/FairMQLogger.h</text>
</g>
<!-- Node1&#45;&gt;Node23 -->
<g id="edge31" class="edge"><title>Node1&#45;&gt;Node23</title>
<path fill="none" stroke="midnightblue" d="M945.615,-280.399C974.135,-270.238 1012.21,-256.672 1039.3,-247.022"/>
<polygon fill="midnightblue" stroke="midnightblue" points="1040.49,-250.311 1048.74,-243.658 1038.14,-243.717 1040.49,-250.311"/>
</g>
<!-- Node24 -->
<g id="node24" class="node"><title>Node24</title>
<polygon fill="none" stroke="#bfbfbf" points="1149.04,-224.5 1149.04,-243.5 1295.04,-243.5 1295.04,-224.5 1149.04,-224.5"/>
<text text-anchor="middle" x="1222.04" y="-231.5" font-family="Helvetica,sans-Serif" font-size="10.00">options/FairMQProgOptions.h</text>
</g>
<!-- Node1&#45;&gt;Node24 -->
<g id="edge32" class="edge"><title>Node1&#45;&gt;Node24</title>
<path fill="none" stroke="midnightblue" d="M972.282,-282.027C1029.92,-271.174 1112.49,-255.628 1166.67,-245.425"/>
<polygon fill="midnightblue" stroke="midnightblue" points="1167.6,-248.812 1176.78,-243.522 1166.3,-241.933 1167.6,-248.812"/>
</g>
<!-- Node25 -->
<g id="node25" class="node"><title>Node25</title>
<g id="a_node25"><a xlink:href="DatabaseFactory_8h.html" target="_top" xlink:title="QualityControl/DatabaseFactory.h">
<polygon fill="none" stroke="black" points="270.538,-224.5 270.538,-243.5 435.538,-243.5 435.538,-224.5 270.538,-224.5"/>
<text text-anchor="middle" x="353.038" y="-231.5" font-family="Helvetica,sans-Serif" font-size="10.00">QualityControl/DatabaseFactory.h</text>
</a>
</g>
</g>
<!-- Node1&#45;&gt;Node25 -->
<g id="edge34" class="edge"><title>Node1&#45;&gt;Node25</title>
<path fill="none" stroke="midnightblue" d="M839.883,-287.382C740.773,-276.718 553.546,-256.574 442.383,-244.613"/>
<polygon fill="midnightblue" stroke="midnightblue" points="442.516,-241.107 432.199,-243.517 441.767,-248.067 442.516,-241.107"/>
</g>
<!-- Node26 -->
<g id="node26" class="node"><title>Node26</title>
<g id="a_node26"><a xlink:href="QcInfoLogger_8h.html" target="_top" xlink:title="QualityControl/QcInfoLogger.h">
<polygon fill="none" stroke="black" points="1313.54,-224.5 1313.54,-243.5 1462.54,-243.5 1462.54,-224.5 1313.54,-224.5"/>
<text text-anchor="middle" x="1388.04" y="-231.5" font-family="Helvetica,sans-Serif" font-size="10.00">QualityControl/QcInfoLogger.h</text>
</a>
</g>
</g>
<!-- Node1&#45;&gt;Node26 -->
<g id="edge37" class="edge"><title>Node1&#45;&gt;Node26</title>
<path fill="none" stroke="midnightblue" d="M972.048,-286.352C1059.86,-275.511 1214.93,-256.37 1308.91,-244.768"/>
<polygon fill="midnightblue" stroke="midnightblue" points="1309.44,-248.229 1318.93,-243.531 1308.58,-241.282 1309.44,-248.229"/>
</g>
<!-- Node3 -->
<g id="node3" class="node"><title>Node3</title>
<g id="a_node3"><a xlink:href="DatabaseInterface_8h.html" target="_top" xlink:title="QualityControl/DatabaseInterface.h">
<polygon fill="none" stroke="black" points="268.038,-168.5 268.038,-187.5 438.038,-187.5 438.038,-168.5 268.038,-168.5"/>
<text text-anchor="middle" x="353.038" y="-175.5" font-family="Helvetica,sans-Serif" font-size="10.00">QualityControl/DatabaseInterface.h</text>
</a>
</g>
</g>
<!-- Node2&#45;&gt;Node3 -->
<g id="edge2" class="edge"><title>Node2&#45;&gt;Node3</title>
<path fill="none" stroke="midnightblue" d="M704.654,-224.974C630.957,-215.338 507.397,-199.183 428.096,-188.814"/>
<polygon fill="midnightblue" stroke="midnightblue" points="428.541,-185.342 418.171,-187.516 427.633,-192.283 428.541,-185.342"/>
</g>
<!-- Node4 -->
<g id="node4" class="node"><title>Node4</title>
<polygon fill="none" stroke="#bfbfbf" points="548.538,-0.5 548.538,-19.5 589.538,-19.5 589.538,-0.5 548.538,-0.5"/>
<text text-anchor="middle" x="569.038" y="-7.5" font-family="Helvetica,sans-Serif" font-size="10.00">string</text>
</g>
<!-- Node2&#45;&gt;Node4 -->
<g id="edge27" class="edge"><title>Node2&#45;&gt;Node4</title>
<path fill="none" stroke="midnightblue" d="M719.11,-224.469C695.44,-218.015 667.841,-206.899 649.038,-188 604.791,-143.527 627.732,-111.788 599.038,-56 594.046,-46.2934 587.401,-36.123 581.635,-27.9116"/>
<polygon fill="midnightblue" stroke="midnightblue" points="584.325,-25.6586 575.632,-19.6022 578.65,-29.7578 584.325,-25.6586"/>
</g>
<!-- Node16 -->
<g id="node16" class="node"><title>Node16</title>
<polygon fill="none" stroke="#bfbfbf" points="658.038,-168.5 658.038,-187.5 776.038,-187.5 776.038,-168.5 658.038,-168.5"/>
<text text-anchor="middle" x="717.038" y="-175.5" font-family="Helvetica,sans-Serif" font-size="10.00">fairmq/FairMQDevice.h</text>
</g>
<!-- Node2&#45;&gt;Node16 -->
<g id="edge22" class="edge"><title>Node2&#45;&gt;Node16</title>
<path fill="none" stroke="midnightblue" d="M757.947,-224.083C750.883,-216.298 740.451,-204.801 731.889,-195.367"/>
<polygon fill="midnightblue" stroke="midnightblue" points="734.291,-192.805 724.979,-187.751 729.107,-197.509 734.291,-192.805"/>
</g>
<!-- Node17 -->
<g id="node17" class="node"><title>Node17</title>
<polygon fill="none" stroke="#bfbfbf" points="794.038,-168.5 794.038,-187.5 838.038,-187.5 838.038,-168.5 794.038,-168.5"/>
<text text-anchor="middle" x="816.038" y="-175.5" font-family="Helvetica,sans-Serif" font-size="10.00">TH1.h</text>
</g>
<!-- Node2&#45;&gt;Node17 -->
<g id="edge23" class="edge"><title>Node2&#45;&gt;Node17</title>
<path fill="none" stroke="midnightblue" d="M774.295,-224.083C781.503,-216.298 792.148,-204.801 800.884,-195.367"/>
<polygon fill="midnightblue" stroke="midnightblue" points="803.709,-197.467 807.935,-187.751 798.573,-192.711 803.709,-197.467"/>
</g>
<!-- Node18 -->
<g id="node18" class="node"><title>Node18</title>
<polygon fill="none" stroke="#bfbfbf" points="856.538,-168.5 856.538,-187.5 1007.54,-187.5 1007.54,-168.5 856.538,-168.5"/>
<text text-anchor="middle" x="932.038" y="-175.5" font-family="Helvetica,sans-Serif" font-size="10.00">Monitoring/MonitoringFactory.h</text>
</g>
<!-- Node2&#45;&gt;Node18 -->
<g id="edge24" class="edge"><title>Node2&#45;&gt;Node18</title>
<path fill="none" stroke="midnightblue" d="M792.341,-224.444C820.389,-215.32 864.983,-200.813 896.222,-190.651"/>
<polygon fill="midnightblue" stroke="midnightblue" points="897.431,-193.938 905.858,-187.516 895.266,-187.282 897.431,-193.938"/>
</g>
<!-- Node19 -->
<g id="node19" class="node"><title>Node19</title>
<polygon fill="none" stroke="#bfbfbf" points="1026.04,-168.5 1026.04,-187.5 1106.04,-187.5 1106.04,-168.5 1026.04,-168.5"/>
<text text-anchor="middle" x="1066.04" y="-175.5" font-family="Helvetica,sans-Serif" font-size="10.00">boost/asio.hpp</text>
</g>
<!-- Node2&#45;&gt;Node19 -->
<g id="edge25" class="edge"><title>Node2&#45;&gt;Node19</title>
<path fill="none" stroke="midnightblue" d="M813.574,-224.444C868.79,-214.505 959.488,-198.179 1015.82,-188.039"/>
<polygon fill="midnightblue" stroke="midnightblue" points="1016.7,-191.437 1025.93,-186.22 1015.46,-184.547 1016.7,-191.437"/>
</g>
<!-- Node2&#45;&gt;Node20 -->
<g id="edge26" class="edge"><title>Node2&#45;&gt;Node20</title>
<path fill="none" stroke="midnightblue" d="M827.178,-225.638C913.038,-215.226 1063.7,-196.665 1113.95,-187.793"/>
<polygon fill="midnightblue" stroke="midnightblue" points="1114.63,-191.227 1123.79,-185.905 1113.31,-184.353 1114.63,-191.227"/>
</g>
<!-- Node3&#45;&gt;Node4 -->
<g id="edge3" class="edge"><title>Node3&#45;&gt;Node4</title>
<path fill="none" stroke="midnightblue" d="M438.067,-170.461C492.118,-164.336 555.021,-152.869 572.038,-132 595.858,-102.788 584.825,-55.1068 576.086,-29.1805"/>
<polygon fill="midnightblue" stroke="midnightblue" points="579.283,-27.7306 572.589,-19.5184 572.701,-30.1126 579.283,-27.7306"/>
</g>
<!-- Node5 -->
<g id="node5" class="node"><title>Node5</title>
<polygon fill="none" stroke="#bfbfbf" points="13.0382,-112.5 13.0382,-131.5 65.0382,-131.5 65.0382,-112.5 13.0382,-112.5"/>
<text text-anchor="middle" x="39.0382" y="-119.5" font-family="Helvetica,sans-Serif" font-size="10.00">memory</text>
</g>
<!-- Node3&#45;&gt;Node5 -->
<g id="edge4" class="edge"><title>Node3&#45;&gt;Node5</title>
<path fill="none" stroke="midnightblue" d="M288.479,-168.483C233.846,-160.853 153.303,-148.613 75.3231,-132.346"/>
<polygon fill="midnightblue" stroke="midnightblue" points="75.8411,-128.878 65.3338,-130.237 74.3949,-135.727 75.8411,-128.878"/>
</g>
<!-- Node6 -->
<g id="node6" class="node"><title>Node6</title>
<polygon fill="none" stroke="#bfbfbf" points="249.038,-112.5 249.038,-131.5 293.038,-131.5 293.038,-112.5 249.038,-112.5"/>
<text text-anchor="middle" x="271.038" y="-119.5" font-family="Helvetica,sans-Serif" font-size="10.00">vector</text>
</g>
<!-- Node3&#45;&gt;Node6 -->
<g id="edge5" class="edge"><title>Node3&#45;&gt;Node6</title>
<path fill="none" stroke="midnightblue" d="M339.863,-168.324C327.191,-159.979 307.805,-147.212 292.833,-137.352"/>
<polygon fill="midnightblue" stroke="midnightblue" points="294.457,-134.231 284.18,-131.655 290.607,-140.078 294.457,-134.231"/>
</g>
<!-- Node7 -->
<g id="node7" class="node"><title>Node7</title>
<polygon fill="none" stroke="#bfbfbf" points="311.538,-112.5 311.538,-131.5 394.538,-131.5 394.538,-112.5 311.538,-112.5"/>
<text text-anchor="middle" x="353.038" y="-119.5" font-family="Helvetica,sans-Serif" font-size="10.00">unordered_map</text>
</g>
<!-- Node3&#45;&gt;Node7 -->
<g id="edge6" class="edge"><title>Node3&#45;&gt;Node7</title>
<path fill="none" stroke="midnightblue" d="M353.038,-168.083C353.038,-161.006 353.038,-150.861 353.038,-141.986"/>
<polygon fill="midnightblue" stroke="midnightblue" points="356.538,-141.751 353.038,-131.751 349.538,-141.751 356.538,-141.751"/>
</g>
<!-- Node8 -->
<g id="node8" class="node"><title>Node8</title>
<g id="a_node8"><a xlink:href="QualityObject_8h_source.html" target="_top" xlink:title="QualityControl/QualityObject.h">
<polygon fill="none" stroke="black" points="82.5382,-112.5 82.5382,-131.5 231.538,-131.5 231.538,-112.5 82.5382,-112.5"/>
<text text-anchor="middle" x="157.038" y="-119.5" font-family="Helvetica,sans-Serif" font-size="10.00">QualityControl/QualityObject.h</text>
</a>
</g>
</g>
<!-- Node3&#45;&gt;Node8 -->
<g id="edge7" class="edge"><title>Node3&#45;&gt;Node8</title>
<path fill="none" stroke="midnightblue" d="M321.981,-168.444C288.435,-159.201 234.841,-144.436 197.898,-134.257"/>
<polygon fill="midnightblue" stroke="midnightblue" points="198.52,-130.798 187.95,-131.516 196.661,-137.547 198.52,-130.798"/>
</g>
<!-- Node15 -->
<g id="node15" class="node"><title>Node15</title>
<g id="a_node15"><a xlink:href="MonitorObject_8h.html" target="_top" xlink:title="QualityControl/MonitorObject.h">
<polygon fill="none" stroke="black" points="412.538,-112.5 412.538,-131.5 563.538,-131.5 563.538,-112.5 412.538,-112.5"/>
<text text-anchor="middle" x="488.038" y="-119.5" font-family="Helvetica,sans-Serif" font-size="10.00">QualityControl/MonitorObject.h</text>
</a>
</g>
</g>
<!-- Node3&#45;&gt;Node15 -->
<g id="edge15" class="edge"><title>Node3&#45;&gt;Node15</title>
<path fill="none" stroke="midnightblue" d="M374.429,-168.444C396.745,-159.517 431.941,-145.439 457.246,-135.317"/>
<polygon fill="midnightblue" stroke="midnightblue" points="458.762,-138.48 466.747,-131.516 456.162,-131.981 458.762,-138.48"/>
</g>
<!-- Node9 -->
<g id="node9" class="node"><title>Node9</title>
<polygon fill="none" stroke="#bfbfbf" points="135.038,-56.5 135.038,-75.5 189.038,-75.5 189.038,-56.5 135.038,-56.5"/>
<text text-anchor="middle" x="162.038" y="-63.5" font-family="Helvetica,sans-Serif" font-size="10.00">iostream</text>
</g>
<!-- Node8&#45;&gt;Node9 -->
<g id="edge8" class="edge"><title>Node8&#45;&gt;Node9</title>
<path fill="none" stroke="midnightblue" d="M157.864,-112.083C158.519,-105.006 159.458,-94.8611 160.28,-85.9865"/>
<polygon fill="midnightblue" stroke="midnightblue" points="163.791,-86.0312 161.228,-75.7511 156.821,-85.3858 163.791,-86.0312"/>
</g>
<!-- Node10 -->
<g id="node10" class="node"><title>Node10</title>
<polygon fill="none" stroke="#bfbfbf" points="431.538,-56.5 431.538,-75.5 466.538,-75.5 466.538,-56.5 431.538,-56.5"/>
<text text-anchor="middle" x="449.038" y="-63.5" font-family="Helvetica,sans-Serif" font-size="10.00">map</text>
</g>
<!-- Node8&#45;&gt;Node10 -->
<g id="edge9" class="edge"><title>Node8&#45;&gt;Node10</title>
<path fill="none" stroke="midnightblue" d="M224.334,-112.483C275.936,-105.287 348.997,-93.662 421.652,-75.7503"/>
<polygon fill="midnightblue" stroke="midnightblue" points="422.584,-79.125 431.434,-73.2995 420.883,-72.3349 422.584,-79.125"/>
</g>
<!-- Node11 -->
<g id="node11" class="node"><title>Node11</title>
<polygon fill="none" stroke="#bfbfbf" points="212.538,-56.5 212.538,-75.5 271.538,-75.5 271.538,-56.5 212.538,-56.5"/>
<text text-anchor="middle" x="242.038" y="-63.5" font-family="Helvetica,sans-Serif" font-size="10.00">TObject.h</text>
</g>
<!-- Node8&#45;&gt;Node11 -->
<g id="edge10" class="edge"><title>Node8&#45;&gt;Node11</title>
<path fill="none" stroke="midnightblue" d="M170.695,-112.324C183.954,-103.9 204.306,-90.9709 219.884,-81.0741"/>
<polygon fill="midnightblue" stroke="midnightblue" points="221.851,-83.9711 228.415,-75.6545 218.098,-78.0626 221.851,-83.9711"/>
</g>
<!-- Node8&#45;&gt;Node12 -->
<g id="edge11" class="edge"><title>Node8&#45;&gt;Node12</title>
<path fill="none" stroke="midnightblue" d="M141.293,-112.324C125.72,-103.743 101.661,-90.486 83.5788,-80.5224"/>
<polygon fill="midnightblue" stroke="midnightblue" points="85.192,-77.4152 74.7445,-75.6545 81.8137,-83.546 85.192,-77.4152"/>
</g>
<!-- Node13 -->
<g id="node13" class="node"><title>Node13</title>
<g id="a_node13"><a xlink:href="Quality_8h.html" target="_top" xlink:title="QualityControl/Quality.h">
<polygon fill="none" stroke="black" points="292.538,-56.5 292.538,-75.5 413.538,-75.5 413.538,-56.5 292.538,-56.5"/>
<text text-anchor="middle" x="353.038" y="-63.5" font-family="Helvetica,sans-Serif" font-size="10.00">QualityControl/Quality.h</text>
</a>
</g>
</g>
<!-- Node8&#45;&gt;Node13 -->
<g id="edge12" class="edge"><title>Node8&#45;&gt;Node13</title>
<path fill="none" stroke="midnightblue" d="M188.095,-112.444C221.642,-103.201 275.235,-88.4356 312.179,-78.2572"/>
<polygon fill="midnightblue" stroke="midnightblue" points="313.416,-81.5469 322.127,-75.5164 311.556,-74.7984 313.416,-81.5469"/>
</g>
<!-- Node13&#45;&gt;Node4 -->
<g id="edge14" class="edge"><title>Node13&#45;&gt;Node4</title>
<path fill="none" stroke="midnightblue" d="M387.264,-56.4435C428.869,-46.0423 498.453,-28.6462 538.378,-18.6651"/>
<polygon fill="midnightblue" stroke="midnightblue" points="539.477,-21.9981 548.329,-16.1772 537.779,-15.2071 539.477,-21.9981"/>
</g>
<!-- Node14 -->
<g id="node14" class="node"><title>Node14</title>
<polygon fill="none" stroke="#bfbfbf" points="411.038,-0.5 411.038,-19.5 467.038,-19.5 467.038,-0.5 411.038,-0.5"/>
<text text-anchor="middle" x="439.038" y="-7.5" font-family="Helvetica,sans-Serif" font-size="10.00">Rtypes.h</text>
</g>
<!-- Node13&#45;&gt;Node14 -->
<g id="edge13" class="edge"><title>Node13&#45;&gt;Node14</title>
<path fill="none" stroke="midnightblue" d="M366.856,-56.324C380.271,-47.9002 400.862,-34.9709 416.624,-25.0741"/>
<polygon fill="midnightblue" stroke="midnightblue" points="418.647,-27.9364 425.255,-19.6545 414.925,-22.0081 418.647,-27.9364"/>
</g>
<!-- Node15&#45;&gt;Node4 -->
<g id="edge16" class="edge"><title>Node15&#45;&gt;Node4</title>
<path fill="none" stroke="midnightblue" d="M494.394,-112.368C507.821,-94.135 539.27,-51.4257 556.759,-27.6752"/>
<polygon fill="midnightblue" stroke="midnightblue" points="559.601,-29.7192 562.712,-19.5914 553.964,-25.5685 559.601,-29.7192"/>
</g>
<!-- Node15&#45;&gt;Node10 -->
<g id="edge17" class="edge"><title>Node15&#45;&gt;Node10</title>
<path fill="none" stroke="midnightblue" d="M481.598,-112.083C476.089,-104.455 468.007,-93.2645 461.273,-83.9408"/>
<polygon fill="midnightblue" stroke="midnightblue" points="464.051,-81.8087 455.358,-75.7511 458.376,-85.9071 464.051,-81.8087"/>
</g>
<!-- Node15&#45;&gt;Node11 -->
<g id="edge19" class="edge"><title>Node15&#45;&gt;Node11</title>
<path fill="none" stroke="midnightblue" d="M449.059,-112.444C403.212,-102.38 327.532,-85.7669 281.484,-75.6588"/>
<polygon fill="midnightblue" stroke="midnightblue" points="282.088,-72.2082 271.57,-73.4826 280.587,-79.0454 282.088,-72.2082"/>
</g>
<!-- Node15&#45;&gt;Node12 -->
<g id="edge20" class="edge"><title>Node15&#45;&gt;Node12</title>
<path fill="none" stroke="midnightblue" d="M417.938,-112.494C347.204,-103.863 234.548,-89.9885 127.177,-76.1371"/>
<polygon fill="midnightblue" stroke="midnightblue" points="127.504,-72.6504 117.138,-74.8401 126.607,-79.5927 127.504,-72.6504"/>
</g>
<!-- Node15&#45;&gt;Node13 -->
<g id="edge21" class="edge"><title>Node15&#45;&gt;Node13</title>
<path fill="none" stroke="midnightblue" d="M466.647,-112.444C444.331,-103.517 409.135,-89.4387 383.83,-79.3168"/>
<polygon fill="midnightblue" stroke="midnightblue" points="384.914,-75.9807 374.329,-75.5164 382.314,-82.4801 384.914,-75.9807"/>
</g>
<!-- Node15&#45;&gt;Node14 -->
<g id="edge18" class="edge"><title>Node15&#45;&gt;Node14</title>
<path fill="none" stroke="midnightblue" d="M487.595,-112.18C486.66,-99.2834 483.788,-74.7763 475.038,-56 470.145,-45.5002 462.315,-35.2933 455.204,-27.2619"/>
<polygon fill="midnightblue" stroke="midnightblue" points="457.588,-24.6861 448.208,-19.7589 452.468,-29.4598 457.588,-24.6861"/>
</g>
<!-- Node25&#45;&gt;Node3 -->
<g id="edge36" class="edge"><title>Node25&#45;&gt;Node3</title>
<path fill="none" stroke="midnightblue" d="M353.038,-224.083C353.038,-217.006 353.038,-206.861 353.038,-197.986"/>
<polygon fill="midnightblue" stroke="midnightblue" points="356.538,-197.751 353.038,-187.751 349.538,-197.751 356.538,-197.751"/>
</g>
<!-- Node25&#45;&gt;Node5 -->
<g id="edge35" class="edge"><title>Node25&#45;&gt;Node5</title>
<path fill="none" stroke="midnightblue" d="M328.66,-224.46C273.129,-205.006 137.107,-157.355 73.2265,-134.977"/>
<polygon fill="midnightblue" stroke="midnightblue" points="74.2117,-131.613 63.6169,-131.61 71.8974,-138.22 74.2117,-131.613"/>
</g>
<!-- Node27 -->
<g id="node27" class="node"><title>Node27</title>
<polygon fill="none" stroke="#bfbfbf" points="1323.04,-168.5 1323.04,-187.5 1453.04,-187.5 1453.04,-168.5 1323.04,-168.5"/>
<text text-anchor="middle" x="1388.04" y="-175.5" font-family="Helvetica,sans-Serif" font-size="10.00">InfoLogger/InfoLogger.hxx</text>
</g>
<!-- Node26&#45;&gt;Node27 -->
<g id="edge38" class="edge"><title>Node26&#45;&gt;Node27</title>
<path fill="none" stroke="midnightblue" d="M1388.04,-224.083C1388.04,-217.006 1388.04,-206.861 1388.04,-197.986"/>
<polygon fill="midnightblue" stroke="midnightblue" points="1391.54,-197.751 1388.04,-187.751 1384.54,-197.751 1391.54,-197.751"/>
</g>
</g>
</svg>
