<?xml version="1.0" encoding="UTF-8" standalone="no"?>
<!DOCTYPE svg PUBLIC "-//W3C//DTD SVG 1.1//EN"
 "http://www.w3.org/Graphics/SVG/1.1/DTD/svg11.dtd">
<!-- Generated by graphviz version 2.38.0 (20140413.2041)
 -->
<!-- Title: Framework/src/runBasic.cxx Pages: 1 -->
<!--zoomable 375 -->
<svg id="main" version="1.1" xmlns="http://www.w3.org/2000/svg" xmlns:xlink="http://www.w3.org/1999/xlink" xml:space="preserve" onload="init(evt)">
<style type="text/css"><![CDATA[
.edge:hover path { stroke: red; }
.edge:hover polygon { stroke: red; fill: red; }
]]></style>
<script type="text/javascript"><![CDATA[
var edges = document.getElementsByTagName('g');
if (edges && edges.length) {
  for (var i=0;i<edges.length;i++) {
    if (edges[i].id.substr(0,4)=='edge') {
      edges[i].setAttribute('class','edge');
    }
  }
}
]]></script>
        <defs>
                <circle id="rim" cx="0" cy="0" r="7"/>
                <circle id="rim2" cx="0" cy="0" r="3.5"/>
                <g id="zoomPlus">
                        <use xlink:href="#rim" fill="#404040">
                                <set attributeName="fill" to="#808080" begin="zoomplus.mouseover" end="zoomplus.mouseout"/>
                        </use>
                        <path d="M-4,0h8M0,-4v8" fill="none" stroke="white" stroke-width="1.5" pointer-events="none"/>
                </g>
                <g id="zoomMin">
                        <use xlink:href="#rim" fill="#404040">
                                <set attributeName="fill" to="#808080" begin="zoomminus.mouseover" end="zoomminus.mouseout"/>
                        </use>
                        <path d="M-4,0h8" fill="none" stroke="white" stroke-width="1.5" pointer-events="none"/>
                </g>
                <g id="dirArrow">
                        <path fill="none" stroke="white" stroke-width="1.5" d="M0,-3.0v7 M-2.5,-0.5L0,-3.0L2.5,-0.5"/>
                </g>
               <g id="resetDef">
                       <use xlink:href="#rim2" fill="#404040">
                               <set attributeName="fill" to="#808080" begin="reset.mouseover" end="reset.mouseout"/>
                       </use>
               </g>
        </defs>

<script type="text/javascript">
var viewWidth = 2448;
var viewHeight = 375;
var sectionId = 'dynsection-0';
</script>
<script xlink:href="svgpan.js"/>
<svg id="graph" class="graph">
<g id="viewport">
<title>Framework/src/runBasic.cxx</title>
<!-- Node1 -->
<g id="node1" class="node"><title>Node1</title>
<polygon fill="#bfbfbf" stroke="black" points="586,-347.5 586,-366.5 728,-366.5 728,-347.5 586,-347.5"/>
<text text-anchor="middle" x="657" y="-354.5" font-family="Helvetica,sans-Serif" font-size="10.00">Framework/src/runBasic.cxx</text>
</g>
<!-- Node2 -->
<g id="node2" class="node"><title>Node2</title>
<polygon fill="none" stroke="#bfbfbf" points="0,-291.5 0,-310.5 138,-310.5 138,-291.5 0,-291.5"/>
<text text-anchor="middle" x="69" y="-298.5" font-family="Helvetica,sans-Serif" font-size="10.00">Framework/DataSampling.h</text>
</g>
<!-- Node1&#45;&gt;Node2 -->
<g id="edge1" class="edge"><title>Node1&#45;&gt;Node2</title>
<path fill="none" stroke="midnightblue" d="M585.989,-350.34C489.425,-342.509 311.025,-327.561 148.499,-311.129"/>
<polygon fill="midnightblue" stroke="midnightblue" points="148.614,-307.623 138.312,-310.095 147.907,-314.587 148.614,-307.623"/>
</g>
<!-- Node3 -->
<g id="node3" class="node"><title>Node3</title>
<g id="a_node3"><a xlink:href="InfrastructureGenerator_8h.html" target="_top" xlink:title="QualityControl/Infrastructure\lGenerator.h">
<polygon fill="none" stroke="black" points="706,-224.5 706,-254.5 846,-254.5 846,-224.5 706,-224.5"/>
<text text-anchor="start" x="714" y="-242.5" font-family="Helvetica,sans-Serif" font-size="10.00">QualityControl/Infrastructure</text>
<text text-anchor="middle" x="776" y="-231.5" font-family="Helvetica,sans-Serif" font-size="10.00">Generator.h</text>
</a>
</g>
</g>
<!-- Node1&#45;&gt;Node3 -->
<g id="edge2" class="edge"><title>Node1&#45;&gt;Node3</title>
<path fill="none" stroke="midnightblue" d="M665.944,-347.319C684.54,-329.27 727.837,-287.246 754.243,-261.617"/>
<polygon fill="midnightblue" stroke="midnightblue" points="756.791,-264.022 761.529,-254.545 751.916,-258.999 756.791,-264.022"/>
</g>
<!-- Node5 -->
<g id="node5" class="node"><title>Node5</title>
<polygon fill="none" stroke="#bfbfbf" points="838.5,-0.5 838.5,-19.5 879.5,-19.5 879.5,-0.5 838.5,-0.5"/>
<text text-anchor="middle" x="859" y="-7.5" font-family="Helvetica,sans-Serif" font-size="10.00">string</text>
</g>
<!-- Node1&#45;&gt;Node5 -->
<g id="edge6" class="edge"><title>Node1&#45;&gt;Node5</title>
<path fill="none" stroke="midnightblue" d="M625.832,-347.463C540.504,-323.398 306.613,-252.56 264,-188 259.103,-180.581 258.575,-175.042 264,-168 335.063,-75.7538 716.535,-26.7674 828.246,-14.2546"/>
<polygon fill="midnightblue" stroke="midnightblue" points="828.93,-17.7004 838.486,-13.1257 828.163,-10.7426 828.93,-17.7004"/>
</g>
<!-- Node7 -->
<g id="node7" class="node"><title>Node7</title>
<polygon fill="none" stroke="#bfbfbf" points="1568,-291.5 1568,-310.5 1728,-310.5 1728,-291.5 1568,-291.5"/>
<text text-anchor="middle" x="1648" y="-298.5" font-family="Helvetica,sans-Serif" font-size="10.00">Framework/runDataProcessing.h</text>
</g>
<!-- Node1&#45;&gt;Node7 -->
<g id="edge7" class="edge"><title>Node1&#45;&gt;Node7</title>
<path fill="none" stroke="midnightblue" d="M728.115,-353.684C878.91,-348.506 1242.11,-334.618 1557.7,-311.059"/>
<polygon fill="midnightblue" stroke="midnightblue" points="1558.25,-314.527 1567.96,-310.288 1557.73,-307.547 1558.25,-314.527"/>
</g>
<!-- Node8 -->
<g id="node8" class="node"><title>Node8</title>
<g id="a_node8"><a xlink:href="CheckRunner_8h.html" target="_top" xlink:title="QualityControl/CheckRunner.h">
<polygon fill="none" stroke="black" points="1232,-291.5 1232,-310.5 1382,-310.5 1382,-291.5 1232,-291.5"/>
<text text-anchor="middle" x="1307" y="-298.5" font-family="Helvetica,sans-Serif" font-size="10.00">QualityControl/CheckRunner.h</text>
</a>
</g>
</g>
<!-- Node1&#45;&gt;Node8 -->
<g id="edge8" class="edge"><title>Node1&#45;&gt;Node8</title>
<path fill="none" stroke="midnightblue" d="M728.109,-350.092C848.543,-340.087 1092.15,-319.849 1221.62,-309.093"/>
<polygon fill="midnightblue" stroke="midnightblue" points="1222.2,-312.557 1231.88,-308.241 1221.62,-305.581 1222.2,-312.557"/>
</g>
<!-- Node32 -->
<g id="node32" class="node"><title>Node32</title>
<g id="a_node32"><a xlink:href="runnerUtils_8h.html" target="_top" xlink:title="QualityControl/runnerUtils.h">
<polygon fill="none" stroke="black" points="156.5,-291.5 156.5,-310.5 293.5,-310.5 293.5,-291.5 156.5,-291.5"/>
<text text-anchor="middle" x="225" y="-298.5" font-family="Helvetica,sans-Serif" font-size="10.00">QualityControl/runnerUtils.h</text>
</a>
</g>
</g>
<!-- Node1&#45;&gt;Node32 -->
<g id="edge60" class="edge"><title>Node1&#45;&gt;Node32</title>
<path fill="none" stroke="midnightblue" d="M588.548,-347.444C510.975,-337.747 384.767,-321.971 303.328,-311.791"/>
<polygon fill="midnightblue" stroke="midnightblue" points="303.488,-308.284 293.131,-310.516 302.62,-315.23 303.488,-308.284"/>
</g>
<!-- Node34 -->
<g id="node34" class="node"><title>Node34</title>
<g id="a_node34"><a xlink:href="ExamplePrinterSpec_8h.html" target="_top" xlink:title="QualityControl/ExamplePrinter\lSpec.h">
<polygon fill="none" stroke="black" points="463.5,-224.5 463.5,-254.5 612.5,-254.5 612.5,-224.5 463.5,-224.5"/>
<text text-anchor="start" x="471.5" y="-242.5" font-family="Helvetica,sans-Serif" font-size="10.00">QualityControl/ExamplePrinter</text>
<text text-anchor="middle" x="538" y="-231.5" font-family="Helvetica,sans-Serif" font-size="10.00">Spec.h</text>
</a>
</g>
</g>
<!-- Node1&#45;&gt;Node34 -->
<g id="edge63" class="edge"><title>Node1&#45;&gt;Node34</title>
<path fill="none" stroke="midnightblue" d="M648.056,-347.319C629.46,-329.27 586.163,-287.246 559.757,-261.617"/>
<polygon fill="midnightblue" stroke="midnightblue" points="562.084,-258.999 552.471,-254.545 557.209,-264.022 562.084,-258.999"/>
</g>
<!-- Node38 -->
<g id="node38" class="node"><title>Node38</title>
<g id="a_node38"><a xlink:href="DataProducer_8h.html" target="_top" xlink:title="QualityControl/DataProducer.h">
<polygon fill="none" stroke="black" points="1400,-291.5 1400,-310.5 1550,-310.5 1550,-291.5 1400,-291.5"/>
<text text-anchor="middle" x="1475" y="-298.5" font-family="Helvetica,sans-Serif" font-size="10.00">QualityControl/DataProducer.h</text>
</a>
</g>
</g>
<!-- Node1&#45;&gt;Node38 -->
<g id="edge72" class="edge"><title>Node1&#45;&gt;Node38</title>
<path fill="none" stroke="midnightblue" d="M728.192,-352.714C857.67,-346.5 1140.58,-331.835 1389.93,-311.053"/>
<polygon fill="midnightblue" stroke="midnightblue" points="1390.24,-314.54 1399.91,-310.216 1389.65,-307.564 1390.24,-314.54"/>
</g>
<!-- Node4 -->
<g id="node4" class="node"><title>Node4</title>
<polygon fill="none" stroke="#bfbfbf" points="1565,-168.5 1565,-187.5 1609,-187.5 1609,-168.5 1565,-168.5"/>
<text text-anchor="middle" x="1587" y="-175.5" font-family="Helvetica,sans-Serif" font-size="10.00">vector</text>
</g>
<!-- Node3&#45;&gt;Node4 -->
<g id="edge3" class="edge"><title>Node3&#45;&gt;Node4</title>
<path fill="none" stroke="midnightblue" d="M846.14,-229.046C861.558,-227.18 877.814,-225.377 893,-224 1170.1,-198.876 1240.98,-214.01 1518,-188 1530.06,-186.867 1543.27,-185.241 1554.86,-183.681"/>
<polygon fill="midnightblue" stroke="midnightblue" points="1555.56,-187.119 1564.98,-182.284 1554.6,-180.184 1555.56,-187.119"/>
</g>
<!-- Node3&#45;&gt;Node5 -->
<g id="edge4" class="edge"><title>Node3&#45;&gt;Node5</title>
<path fill="none" stroke="midnightblue" d="M782.101,-224.438C786.414,-214.354 792.249,-200.415 797,-188 818.966,-130.604 842.244,-61.6266 852.959,-29.3456"/>
<polygon fill="midnightblue" stroke="midnightblue" points="856.386,-30.1302 856.202,-19.5369 849.74,-27.9325 856.386,-30.1302"/>
</g>
<!-- Node6 -->
<g id="node6" class="node"><title>Node6</title>
<polygon fill="none" stroke="#bfbfbf" points="887,-168.5 887,-187.5 1027,-187.5 1027,-168.5 887,-168.5"/>
<text text-anchor="middle" x="957" y="-175.5" font-family="Helvetica,sans-Serif" font-size="10.00">Framework/WorkflowSpec.h</text>
</g>
<!-- Node3&#45;&gt;Node6 -->
<g id="edge5" class="edge"><title>Node3&#45;&gt;Node6</title>
<path fill="none" stroke="midnightblue" d="M818.894,-224.399C850.035,-214.163 891.687,-200.47 921.079,-190.808"/>
<polygon fill="midnightblue" stroke="midnightblue" points="922.52,-194.019 930.927,-187.571 920.334,-187.369 922.52,-194.019"/>
</g>
<!-- Node8&#45;&gt;Node4 -->
<g id="edge13" class="edge"><title>Node8&#45;&gt;Node4</title>
<path fill="none" stroke="midnightblue" d="M1382.35,-291.532C1483.6,-279.977 1651.5,-260.118 1656,-255 1665.1,-244.653 1662.56,-236.115 1656,-224 1647.9,-209.042 1632.43,-198.27 1618.19,-191.022"/>
<polygon fill="midnightblue" stroke="midnightblue" points="1619.64,-187.836 1609.1,-186.76 1616.67,-194.174 1619.64,-187.836"/>
</g>
<!-- Node8&#45;&gt;Node5 -->
<g id="edge11" class="edge"><title>Node8&#45;&gt;Node5</title>
<path fill="none" stroke="midnightblue" d="M1231.88,-300.044C1076.81,-299.348 732.707,-293.439 697,-255 651.611,-206.139 754.106,-197.948 764,-188 810.827,-140.916 802.318,-114.36 834,-56 838.965,-46.8545 844.585,-36.719 849.238,-28.3861"/>
<polygon fill="midnightblue" stroke="midnightblue" points="852.326,-30.0347 854.157,-19.5993 846.218,-26.6149 852.326,-30.0347"/>
</g>
<!-- Node9 -->
<g id="node9" class="node"><title>Node9</title>
<polygon fill="none" stroke="#bfbfbf" points="902,-230 902,-249 948,-249 948,-230 902,-230"/>
<text text-anchor="middle" x="925" y="-237" font-family="Helvetica,sans-Serif" font-size="10.00">chrono</text>
</g>
<!-- Node8&#45;&gt;Node9 -->
<g id="edge9" class="edge"><title>Node8&#45;&gt;Node9</title>
<path fill="none" stroke="midnightblue" d="M1231.97,-296.803C1160.2,-292.245 1049.53,-281.272 957,-255 955.064,-254.45 953.095,-253.801 951.134,-253.088"/>
<polygon fill="midnightblue" stroke="midnightblue" points="952.164,-249.726 941.585,-249.144 949.491,-256.196 952.164,-249.726"/>
</g>
<!-- Node10 -->
<g id="node10" class="node"><title>Node10</title>
<polygon fill="none" stroke="#bfbfbf" points="1097,-168.5 1097,-187.5 1149,-187.5 1149,-168.5 1097,-168.5"/>
<text text-anchor="middle" x="1123" y="-175.5" font-family="Helvetica,sans-Serif" font-size="10.00">memory</text>
</g>
<!-- Node8&#45;&gt;Node10 -->
<g id="edge10" class="edge"><title>Node8&#45;&gt;Node10</title>
<path fill="none" stroke="midnightblue" d="M1231.99,-297.177C1118.81,-292.138 915.179,-279.721 893,-255 883.799,-244.745 884.243,-234.637 893,-224 905.223,-209.153 1024.84,-191.692 1086.56,-183.576"/>
<polygon fill="midnightblue" stroke="midnightblue" points="1087.19,-187.023 1096.65,-182.263 1086.29,-180.081 1087.19,-187.023"/>
</g>
<!-- Node11 -->
<g id="node11" class="node"><title>Node11</title>
<polygon fill="none" stroke="#bfbfbf" points="1695.5,-56.5 1695.5,-75.5 1730.5,-75.5 1730.5,-56.5 1695.5,-56.5"/>
<text text-anchor="middle" x="1713" y="-63.5" font-family="Helvetica,sans-Serif" font-size="10.00">map</text>
</g>
<!-- Node8&#45;&gt;Node11 -->
<g id="edge12" class="edge"><title>Node8&#45;&gt;Node11</title>
<path fill="none" stroke="midnightblue" d="M1382.2,-291.772C1493.23,-279.543 1688.29,-257.715 1691,-255 1736.48,-209.51 1725.27,-123.667 1717.48,-85.7795"/>
<polygon fill="midnightblue" stroke="midnightblue" points="1720.81,-84.6644 1715.23,-75.6588 1713.98,-86.1793 1720.81,-84.6644"/>
</g>
<!-- Node12 -->
<g id="node12" class="node"><title>Node12</title>
<polygon fill="none" stroke="#bfbfbf" points="966,-230 966,-249 1044,-249 1044,-230 966,-230"/>
<text text-anchor="middle" x="1005" y="-237" font-family="Helvetica,sans-Serif" font-size="10.00">unordered_set</text>
</g>
<!-- Node8&#45;&gt;Node12 -->
<g id="edge14" class="edge"><title>Node8&#45;&gt;Node12</title>
<path fill="none" stroke="midnightblue" d="M1247.31,-291.464C1195.58,-283.58 1118.88,-270.729 1053,-255 1049.11,-254.071 1045.07,-253.009 1041.06,-251.891"/>
<polygon fill="midnightblue" stroke="midnightblue" points="1041.83,-248.471 1031.26,-249.041 1039.88,-255.193 1041.83,-248.471"/>
</g>
<!-- Node13 -->
<g id="node13" class="node"><title>Node13</title>
<polygon fill="none" stroke="#bfbfbf" points="1062,-230 1062,-249 1154,-249 1154,-230 1062,-230"/>
<text text-anchor="middle" x="1108" y="-237" font-family="Helvetica,sans-Serif" font-size="10.00">Common/Timer.h</text>
</g>
<!-- Node8&#45;&gt;Node13 -->
<g id="edge15" class="edge"><title>Node8&#45;&gt;Node13</title>
<path fill="none" stroke="midnightblue" d="M1278.49,-291.475C1243.76,-281.092 1184.96,-263.512 1146.31,-251.954"/>
<polygon fill="midnightblue" stroke="midnightblue" points="1147.04,-248.52 1136.46,-249.009 1145.04,-255.227 1147.04,-248.52"/>
</g>
<!-- Node14 -->
<g id="node14" class="node"><title>Node14</title>
<polygon fill="none" stroke="#bfbfbf" points="657,-168.5 657,-187.5 755,-187.5 755,-168.5 657,-168.5"/>
<text text-anchor="middle" x="706" y="-175.5" font-family="Helvetica,sans-Serif" font-size="10.00">Framework/Task.h</text>
</g>
<!-- Node8&#45;&gt;Node14 -->
<g id="edge16" class="edge"><title>Node8&#45;&gt;Node14</title>
<path fill="none" stroke="midnightblue" d="M1231.82,-300.357C1070.37,-300.335 702.015,-295.769 664,-255 647.15,-236.929 669.091,-210.845 687.06,-194.416"/>
<polygon fill="midnightblue" stroke="midnightblue" points="689.635,-196.815 694.882,-187.61 685.041,-191.533 689.635,-196.815"/>
</g>
<!-- Node15 -->
<g id="node15" class="node"><title>Node15</title>
<polygon fill="none" stroke="#bfbfbf" points="1172.5,-230 1172.5,-249 1289.5,-249 1289.5,-230 1172.5,-230"/>
<text text-anchor="middle" x="1231" y="-237" font-family="Helvetica,sans-Serif" font-size="10.00">Headers/DataHeader.h</text>
</g>
<!-- Node8&#45;&gt;Node15 -->
<g id="edge17" class="edge"><title>Node8&#45;&gt;Node15</title>
<path fill="none" stroke="midnightblue" d="M1296.11,-291.475C1284.03,-282.02 1264.33,-266.596 1249.76,-255.187"/>
<polygon fill="midnightblue" stroke="midnightblue" points="1251.9,-252.418 1241.87,-249.009 1247.59,-257.929 1251.9,-252.418"/>
</g>
<!-- Node16 -->
<g id="node16" class="node"><title>Node16</title>
<polygon fill="none" stroke="#bfbfbf" points="1307.5,-230 1307.5,-249 1458.5,-249 1458.5,-230 1307.5,-230"/>
<text text-anchor="middle" x="1383" y="-237" font-family="Helvetica,sans-Serif" font-size="10.00">Monitoring/MonitoringFactory.h</text>
</g>
<!-- Node8&#45;&gt;Node16 -->
<g id="edge18" class="edge"><title>Node8&#45;&gt;Node16</title>
<path fill="none" stroke="midnightblue" d="M1317.89,-291.475C1329.97,-282.02 1349.67,-266.596 1364.24,-255.187"/>
<polygon fill="midnightblue" stroke="midnightblue" points="1366.41,-257.929 1372.13,-249.009 1362.1,-252.418 1366.41,-257.929"/>
</g>
<!-- Node17 -->
<g id="node17" class="node"><title>Node17</title>
<polygon fill="none" stroke="#bfbfbf" points="2276,-168.5 2276,-187.5 2440,-187.5 2440,-168.5 2276,-168.5"/>
<text text-anchor="middle" x="2358" y="-175.5" font-family="Helvetica,sans-Serif" font-size="10.00">Framework/DataProcessorSpec.h</text>
</g>
<!-- Node8&#45;&gt;Node17 -->
<g id="edge19" class="edge"><title>Node8&#45;&gt;Node17</title>
<path fill="none" stroke="midnightblue" d="M1382.09,-291.77C1385.1,-291.499 1388.08,-291.241 1391,-291 1668.3,-268.172 1740.41,-293.303 2016,-255 2126.14,-239.692 2253.39,-207.488 2317.14,-190.327"/>
<polygon fill="midnightblue" stroke="midnightblue" points="2318.45,-193.6 2327.18,-187.607 2316.62,-186.843 2318.45,-193.6"/>
</g>
<!-- Node18 -->
<g id="node18" class="node"><title>Node18</title>
<g id="a_node18"><a xlink:href="CheckInterface_8h.html" target="_top" xlink:title="QualityControl/CheckInterface.h">
<polygon fill="none" stroke="black" points="1933.5,-168.5 1933.5,-187.5 2090.5,-187.5 2090.5,-168.5 1933.5,-168.5"/>
<text text-anchor="middle" x="2012" y="-175.5" font-family="Helvetica,sans-Serif" font-size="10.00">QualityControl/CheckInterface.h</text>
</a>
</g>
</g>
<!-- Node8&#45;&gt;Node18 -->
<g id="edge20" class="edge"><title>Node8&#45;&gt;Node18</title>
<path fill="none" stroke="midnightblue" d="M1382.09,-291.814C1385.1,-291.531 1388.08,-291.258 1391,-291 1505.72,-280.864 1799.83,-294.523 1908,-255 1943.66,-241.973 1977.75,-212.806 1996.68,-194.631"/>
<polygon fill="midnightblue" stroke="midnightblue" points="1999.16,-197.105 2003.82,-187.594 1994.24,-192.118 1999.16,-197.105"/>
</g>
<!-- Node20 -->
<g id="node20" class="node"><title>Node20</title>
<g id="a_node20"><a xlink:href="MonitorObject_8h.html" target="_top" xlink:title="QualityControl/MonitorObject.h">
<polygon fill="none" stroke="black" points="1533.5,-112.5 1533.5,-131.5 1684.5,-131.5 1684.5,-112.5 1533.5,-112.5"/>
<text text-anchor="middle" x="1609" y="-119.5" font-family="Helvetica,sans-Serif" font-size="10.00">QualityControl/MonitorObject.h</text>
</a>
</g>
</g>
<!-- Node8&#45;&gt;Node20 -->
<g id="edge46" class="edge"><title>Node8&#45;&gt;Node20</title>
<path fill="none" stroke="midnightblue" d="M1381.13,-291.474C1487.13,-279.199 1669.6,-257.713 1672,-255 1703.54,-219.335 1655.09,-165.107 1626.9,-138.637"/>
<polygon fill="midnightblue" stroke="midnightblue" points="1628.98,-135.805 1619.24,-131.655 1624.27,-140.978 1628.98,-135.805"/>
</g>
<!-- Node24 -->
<g id="node24" class="node"><title>Node24</title>
<g id="a_node24"><a xlink:href="DatabaseInterface_8h.html" target="_top" xlink:title="QualityControl/DatabaseInterface.h">
<polygon fill="none" stroke="black" points="1477,-230 1477,-249 1647,-249 1647,-230 1477,-230"/>
<text text-anchor="middle" x="1562" y="-237" font-family="Helvetica,sans-Serif" font-size="10.00">QualityControl/DatabaseInterface.h</text>
</a>
</g>
</g>
<!-- Node8&#45;&gt;Node24 -->
<g id="edge34" class="edge"><title>Node8&#45;&gt;Node24</title>
<path fill="none" stroke="midnightblue" d="M1343.54,-291.475C1388.89,-280.893 1466.28,-262.836 1515.73,-251.297"/>
<polygon fill="midnightblue" stroke="midnightblue" points="1516.59,-254.69 1525.53,-249.009 1515,-247.873 1516.59,-254.69"/>
</g>
<!-- Node28 -->
<g id="node28" class="node"><title>Node28</title>
<g id="a_node28"><a xlink:href="QcInfoLogger_8h.html" target="_top" xlink:title="QualityControl/QcInfoLogger.h">
<polygon fill="none" stroke="black" points="2108.5,-168.5 2108.5,-187.5 2257.5,-187.5 2257.5,-168.5 2108.5,-168.5"/>
<text text-anchor="middle" x="2183" y="-175.5" font-family="Helvetica,sans-Serif" font-size="10.00">QualityControl/QcInfoLogger.h</text>
</a>
</g>
</g>
<!-- Node8&#45;&gt;Node28 -->
<g id="edge47" class="edge"><title>Node8&#45;&gt;Node28</title>
<path fill="none" stroke="midnightblue" d="M1382.09,-291.796C1385.1,-291.518 1388.08,-291.251 1391,-291 1637.72,-269.805 1703.74,-301.305 1947,-255 2023.07,-240.52 2108.77,-208.861 2153,-191.318"/>
<polygon fill="midnightblue" stroke="midnightblue" points="2154.32,-194.56 2162.3,-187.593 2151.71,-188.061 2154.32,-194.56"/>
</g>
<!-- Node30 -->
<g id="node30" class="node"><title>Node30</title>
<g id="a_node30"><a xlink:href="Check_8h_source.html" target="_top" xlink:title="QualityControl/Check.h">
<polygon fill="none" stroke="black" points="1779.5,-230 1779.5,-249 1898.5,-249 1898.5,-230 1779.5,-230"/>
<text text-anchor="middle" x="1839" y="-237" font-family="Helvetica,sans-Serif" font-size="10.00">QualityControl/Check.h</text>
</a>
</g>
</g>
<!-- Node8&#45;&gt;Node30 -->
<g id="edge49" class="edge"><title>Node8&#45;&gt;Node30</title>
<path fill="none" stroke="midnightblue" d="M1382.1,-291.913C1385.11,-291.602 1388.08,-291.297 1391,-291 1557.13,-274.105 1599.76,-279.084 1765,-255 1772.83,-253.858 1781.1,-252.447 1789.15,-250.957"/>
<polygon fill="midnightblue" stroke="midnightblue" points="1790.01,-254.354 1799.18,-249.042 1788.7,-247.478 1790.01,-254.354"/>
</g>
<!-- Node18&#45;&gt;Node5 -->
<g id="edge21" class="edge"><title>Node18&#45;&gt;Node5</title>
<path fill="none" stroke="midnightblue" d="M2009.01,-168.485C2003.95,-155.104 1992.63,-128.932 1976,-112 1941.11,-76.4888 1926.79,-69.9402 1879,-56 1782.11,-27.7353 1050.21,-14.144 889.947,-11.4899"/>
<polygon fill="midnightblue" stroke="midnightblue" points="889.876,-7.9884 879.82,-11.3243 889.762,-14.9875 889.876,-7.9884"/>
</g>
<!-- Node18&#45;&gt;Node11 -->
<g id="edge22" class="edge"><title>Node18&#45;&gt;Node11</title>
<path fill="none" stroke="midnightblue" d="M1988.54,-168.368C1933.86,-148.254 1798.22,-98.3514 1740.12,-76.9765"/>
<polygon fill="midnightblue" stroke="midnightblue" points="1741.12,-73.6155 1730.53,-73.4476 1738.7,-80.1851 1741.12,-73.6155"/>
</g>
<!-- Node19 -->
<g id="node19" class="node"><title>Node19</title>
<polygon fill="none" stroke="#bfbfbf" points="1781,-0.5 1781,-19.5 1837,-19.5 1837,-0.5 1781,-0.5"/>
<text text-anchor="middle" x="1809" y="-7.5" font-family="Helvetica,sans-Serif" font-size="10.00">Rtypes.h</text>
</g>
<!-- Node18&#45;&gt;Node19 -->
<g id="edge23" class="edge"><title>Node18&#45;&gt;Node19</title>
<path fill="none" stroke="midnightblue" d="M2016.87,-168.192C2028.17,-146.429 2053.23,-89.4586 2026,-56 2003.92,-28.8773 1903.78,-17.5834 1847.57,-13.3146"/>
<polygon fill="midnightblue" stroke="midnightblue" points="1847.51,-9.80119 1837.29,-12.5745 1847.01,-16.7831 1847.51,-9.80119"/>
</g>
<!-- Node18&#45;&gt;Node20 -->
<g id="edge24" class="edge"><title>Node18&#45;&gt;Node20</title>
<path fill="none" stroke="midnightblue" d="M1948.14,-168.444C1875.93,-158.767 1758.52,-143.035 1682.53,-132.853"/>
<polygon fill="midnightblue" stroke="midnightblue" points="1682.93,-129.376 1672.56,-131.516 1682,-136.314 1682.93,-129.376"/>
</g>
<!-- Node23 -->
<g id="node23" class="node"><title>Node23</title>
<g id="a_node23"><a xlink:href="Quality_8h.html" target="_top" xlink:title="QualityControl/Quality.h">
<polygon fill="none" stroke="black" points="1748.5,-56.5 1748.5,-75.5 1869.5,-75.5 1869.5,-56.5 1748.5,-56.5"/>
<text text-anchor="middle" x="1809" y="-63.5" font-family="Helvetica,sans-Serif" font-size="10.00">QualityControl/Quality.h</text>
</a>
</g>
</g>
<!-- Node18&#45;&gt;Node23 -->
<g id="edge33" class="edge"><title>Node18&#45;&gt;Node23</title>
<path fill="none" stroke="midnightblue" d="M2005.82,-168.079C1995.71,-154.139 1974.33,-127.217 1950,-112 1924.1,-95.798 1891.84,-84.9389 1864.72,-77.9547"/>
<polygon fill="midnightblue" stroke="midnightblue" points="1865.53,-74.5493 1854.98,-75.5542 1863.85,-81.3459 1865.53,-74.5493"/>
</g>
<!-- Node20&#45;&gt;Node5 -->
<g id="edge25" class="edge"><title>Node20&#45;&gt;Node5</title>
<path fill="none" stroke="midnightblue" d="M1612.57,-112.055C1617.49,-98.0823 1624.24,-71.1168 1610,-56 1584.93,-29.3849 1029.07,-14.8995 890.214,-11.6884"/>
<polygon fill="midnightblue" stroke="midnightblue" points="889.947,-8.1815 879.869,-11.4523 889.787,-15.1797 889.947,-8.1815"/>
</g>
<!-- Node20&#45;&gt;Node11 -->
<g id="edge26" class="edge"><title>Node20&#45;&gt;Node11</title>
<path fill="none" stroke="midnightblue" d="M1625.71,-112.324C1642.31,-103.703 1668,-90.3643 1687.22,-80.3855"/>
<polygon fill="midnightblue" stroke="midnightblue" points="1689.07,-83.3689 1696.33,-75.6545 1685.84,-77.1565 1689.07,-83.3689"/>
</g>
<!-- Node20&#45;&gt;Node19 -->
<g id="edge27" class="edge"><title>Node20&#45;&gt;Node19</title>
<path fill="none" stroke="midnightblue" d="M1617.38,-112.319C1630.91,-98.7084 1658.92,-72.2299 1687,-56 1713.46,-40.7098 1746.04,-29.0086 1770.88,-21.3755"/>
<polygon fill="midnightblue" stroke="midnightblue" points="1772.08,-24.6678 1780.67,-18.4535 1770.08,-17.9602 1772.08,-24.6678"/>
</g>
<!-- Node21 -->
<g id="node21" class="node"><title>Node21</title>
<polygon fill="none" stroke="#bfbfbf" points="1407.5,-56.5 1407.5,-75.5 1466.5,-75.5 1466.5,-56.5 1407.5,-56.5"/>
<text text-anchor="middle" x="1437" y="-63.5" font-family="Helvetica,sans-Serif" font-size="10.00">TObject.h</text>
</g>
<!-- Node20&#45;&gt;Node21 -->
<g id="edge28" class="edge"><title>Node20&#45;&gt;Node21</title>
<path fill="none" stroke="midnightblue" d="M1581.75,-112.444C1552.56,-103.28 1506.08,-88.6876 1473.69,-78.5192"/>
<polygon fill="midnightblue" stroke="midnightblue" points="1474.72,-75.1726 1464.13,-75.5164 1472.62,-81.8512 1474.72,-75.1726"/>
</g>
<!-- Node22 -->
<g id="node22" class="node"><title>Node22</title>
<polygon fill="none" stroke="#bfbfbf" points="1485,-56.5 1485,-75.5 1601,-75.5 1601,-56.5 1485,-56.5"/>
<text text-anchor="middle" x="1543" y="-63.5" font-family="Helvetica,sans-Serif" font-size="10.00">Common/Exceptions.h</text>
</g>
<!-- Node20&#45;&gt;Node22 -->
<g id="edge29" class="edge"><title>Node20&#45;&gt;Node22</title>
<path fill="none" stroke="midnightblue" d="M1598.4,-112.324C1588.54,-104.263 1573.65,-92.0765 1561.78,-82.3695"/>
<polygon fill="midnightblue" stroke="midnightblue" points="1563.75,-79.4575 1553.8,-75.8339 1559.32,-84.8752 1563.75,-79.4575"/>
</g>
<!-- Node20&#45;&gt;Node23 -->
<g id="edge30" class="edge"><title>Node20&#45;&gt;Node23</title>
<path fill="none" stroke="midnightblue" d="M1640.69,-112.444C1675.07,-103.162 1730.08,-88.3093 1767.79,-78.127"/>
<polygon fill="midnightblue" stroke="midnightblue" points="1768.72,-81.5022 1777.46,-75.5164 1766.89,-74.7442 1768.72,-81.5022"/>
</g>
<!-- Node23&#45;&gt;Node5 -->
<g id="edge32" class="edge"><title>Node23&#45;&gt;Node5</title>
<path fill="none" stroke="midnightblue" d="M1748.45,-56.828C1745.59,-56.5291 1742.77,-56.2508 1740,-56 1407.54,-25.8742 1002.54,-14.4263 889.542,-11.6897"/>
<polygon fill="midnightblue" stroke="midnightblue" points="889.611,-8.19049 879.53,-11.4518 889.444,-15.1885 889.611,-8.19049"/>
</g>
<!-- Node23&#45;&gt;Node19 -->
<g id="edge31" class="edge"><title>Node23&#45;&gt;Node19</title>
<path fill="none" stroke="midnightblue" d="M1809,-56.083C1809,-49.0059 1809,-38.8611 1809,-29.9865"/>
<polygon fill="midnightblue" stroke="midnightblue" points="1812.5,-29.751 1809,-19.7511 1805.5,-29.7511 1812.5,-29.751"/>
</g>
<!-- Node24&#45;&gt;Node4 -->
<g id="edge37" class="edge"><title>Node24&#45;&gt;Node4</title>
<path fill="none" stroke="midnightblue" d="M1565.58,-229.975C1569.18,-221.404 1574.85,-207.927 1579.44,-196.983"/>
<polygon fill="midnightblue" stroke="midnightblue" points="1582.78,-198.084 1583.42,-187.509 1576.32,-195.373 1582.78,-198.084"/>
</g>
<!-- Node24&#45;&gt;Node5 -->
<g id="edge35" class="edge"><title>Node24&#45;&gt;Node5</title>
<path fill="none" stroke="midnightblue" d="M1535.72,-229.997C1426.24,-194.565 1006.55,-58.7482 889.479,-20.8635"/>
<polygon fill="midnightblue" stroke="midnightblue" points="890.315,-17.4554 879.724,-17.7064 888.16,-24.1154 890.315,-17.4554"/>
</g>
<!-- Node24&#45;&gt;Node10 -->
<g id="edge36" class="edge"><title>Node24&#45;&gt;Node10</title>
<path fill="none" stroke="midnightblue" d="M1507.85,-229.926C1494.81,-227.923 1480.91,-225.838 1468,-224 1355.79,-208.029 1222.72,-191.294 1159.66,-183.496"/>
<polygon fill="midnightblue" stroke="midnightblue" points="1159.78,-179.985 1149.43,-182.234 1158.93,-186.932 1159.78,-179.985"/>
</g>
<!-- Node24&#45;&gt;Node20 -->
<g id="edge45" class="edge"><title>Node24&#45;&gt;Node20</title>
<path fill="none" stroke="midnightblue" d="M1558.59,-229.775C1553.76,-215.959 1546.51,-188.512 1556,-168 1561.92,-155.207 1573.47,-144.722 1584.28,-137.1"/>
<polygon fill="midnightblue" stroke="midnightblue" points="1586.21,-140.016 1592.67,-131.613 1582.38,-134.158 1586.21,-140.016"/>
</g>
<!-- Node25 -->
<g id="node25" class="node"><title>Node25</title>
<polygon fill="none" stroke="#bfbfbf" points="1425.5,-168.5 1425.5,-187.5 1508.5,-187.5 1508.5,-168.5 1425.5,-168.5"/>
<text text-anchor="middle" x="1467" y="-175.5" font-family="Helvetica,sans-Serif" font-size="10.00">unordered_map</text>
</g>
<!-- Node24&#45;&gt;Node25 -->
<g id="edge38" class="edge"><title>Node24&#45;&gt;Node25</title>
<path fill="none" stroke="midnightblue" d="M1548.39,-229.975C1532.94,-220.299 1507.51,-204.372 1489.18,-192.894"/>
<polygon fill="midnightblue" stroke="midnightblue" points="1490.92,-189.851 1480.59,-187.509 1487.2,-195.783 1490.92,-189.851"/>
</g>
<!-- Node26 -->
<g id="node26" class="node"><title>Node26</title>
<g id="a_node26"><a xlink:href="QualityObject_8h_source.html" target="_top" xlink:title="QualityControl/QualityObject.h">
<polygon fill="none" stroke="black" points="1364.5,-112.5 1364.5,-131.5 1513.5,-131.5 1513.5,-112.5 1364.5,-112.5"/>
<text text-anchor="middle" x="1439" y="-119.5" font-family="Helvetica,sans-Serif" font-size="10.00">QualityControl/QualityObject.h</text>
</a>
</g>
</g>
<!-- Node24&#45;&gt;Node26 -->
<g id="edge39" class="edge"><title>Node24&#45;&gt;Node26</title>
<path fill="none" stroke="midnightblue" d="M1521.42,-229.979C1482.7,-220.93 1428.49,-205.531 1416,-188 1405.63,-173.443 1415.18,-153.758 1424.94,-139.877"/>
<polygon fill="midnightblue" stroke="midnightblue" points="1427.89,-141.778 1431.18,-131.706 1422.33,-137.531 1427.89,-141.778"/>
</g>
<!-- Node26&#45;&gt;Node11 -->
<g id="edge41" class="edge"><title>Node26&#45;&gt;Node11</title>
<path fill="none" stroke="midnightblue" d="M1482.42,-112.444C1539.37,-101.218 1637.67,-81.8461 1685.4,-72.4397"/>
<polygon fill="midnightblue" stroke="midnightblue" points="1686.19,-75.852 1695.32,-70.4843 1684.83,-68.9841 1686.19,-75.852"/>
</g>
<!-- Node26&#45;&gt;Node21 -->
<g id="edge42" class="edge"><title>Node26&#45;&gt;Node21</title>
<path fill="none" stroke="midnightblue" d="M1438.67,-112.083C1438.41,-105.006 1438.03,-94.8611 1437.7,-85.9865"/>
<polygon fill="midnightblue" stroke="midnightblue" points="1441.19,-85.6147 1437.32,-75.7511 1434.2,-85.8738 1441.19,-85.6147"/>
</g>
<!-- Node26&#45;&gt;Node22 -->
<g id="edge43" class="edge"><title>Node26&#45;&gt;Node22</title>
<path fill="none" stroke="midnightblue" d="M1455.71,-112.324C1472.31,-103.703 1498,-90.3643 1517.22,-80.3855"/>
<polygon fill="midnightblue" stroke="midnightblue" points="1519.07,-83.3689 1526.33,-75.6545 1515.84,-77.1565 1519.07,-83.3689"/>
</g>
<!-- Node26&#45;&gt;Node23 -->
<g id="edge44" class="edge"><title>Node26&#45;&gt;Node23</title>
<path fill="none" stroke="midnightblue" d="M1497.63,-112.444C1563.66,-102.806 1670.84,-87.1635 1740.63,-76.9782"/>
<polygon fill="midnightblue" stroke="midnightblue" points="1741.26,-80.424 1750.65,-75.5164 1740.25,-73.4974 1741.26,-80.424"/>
</g>
<!-- Node27 -->
<g id="node27" class="node"><title>Node27</title>
<polygon fill="none" stroke="#bfbfbf" points="1335,-56.5 1335,-75.5 1389,-75.5 1389,-56.5 1335,-56.5"/>
<text text-anchor="middle" x="1362" y="-63.5" font-family="Helvetica,sans-Serif" font-size="10.00">iostream</text>
</g>
<!-- Node26&#45;&gt;Node27 -->
<g id="edge40" class="edge"><title>Node26&#45;&gt;Node27</title>
<path fill="none" stroke="midnightblue" d="M1426.63,-112.324C1414.84,-104.058 1396.87,-91.4527 1382.86,-81.6322"/>
<polygon fill="midnightblue" stroke="midnightblue" points="1384.54,-78.5307 1374.34,-75.6545 1380.52,-84.2619 1384.54,-78.5307"/>
</g>
<!-- Node29 -->
<g id="node29" class="node"><title>Node29</title>
<polygon fill="none" stroke="#bfbfbf" points="2118,-112.5 2118,-131.5 2248,-131.5 2248,-112.5 2118,-112.5"/>
<text text-anchor="middle" x="2183" y="-119.5" font-family="Helvetica,sans-Serif" font-size="10.00">InfoLogger/InfoLogger.hxx</text>
</g>
<!-- Node28&#45;&gt;Node29 -->
<g id="edge48" class="edge"><title>Node28&#45;&gt;Node29</title>
<path fill="none" stroke="midnightblue" d="M2183,-168.083C2183,-161.006 2183,-150.861 2183,-141.986"/>
<polygon fill="midnightblue" stroke="midnightblue" points="2186.5,-141.751 2183,-131.751 2179.5,-141.751 2186.5,-141.751"/>
</g>
<!-- Node30&#45;&gt;Node4 -->
<g id="edge52" class="edge"><title>Node30&#45;&gt;Node4</title>
<path fill="none" stroke="midnightblue" d="M1802.89,-229.975C1753.68,-218.354 1666.27,-197.717 1619.19,-186.599"/>
<polygon fill="midnightblue" stroke="midnightblue" points="1619.76,-183.14 1609.23,-184.248 1618.15,-189.952 1619.76,-183.14"/>
</g>
<!-- Node30&#45;&gt;Node10 -->
<g id="edge53" class="edge"><title>Node30&#45;&gt;Node10</title>
<path fill="none" stroke="midnightblue" d="M1779.49,-233.555C1636.15,-221.643 1275.03,-191.634 1159.29,-182.016"/>
<polygon fill="midnightblue" stroke="midnightblue" points="1159.44,-178.516 1149.18,-181.176 1158.86,-185.492 1159.44,-178.516"/>
</g>
<!-- Node30&#45;&gt;Node11 -->
<g id="edge51" class="edge"><title>Node30&#45;&gt;Node11</title>
<path fill="none" stroke="midnightblue" d="M1823.23,-229.846C1808.22,-220.961 1785.78,-205.926 1771,-188 1744.79,-156.216 1727.12,-110.608 1718.69,-85.4395"/>
<polygon fill="midnightblue" stroke="midnightblue" points="1721.96,-84.1649 1715.56,-75.7197 1715.3,-86.3112 1721.96,-84.1649"/>
</g>
<!-- Node30&#45;&gt;Node17 -->
<g id="edge54" class="edge"><title>Node30&#45;&gt;Node17</title>
<path fill="none" stroke="midnightblue" d="M1898.54,-231.675C1990.75,-221.103 2168.44,-200.732 2273.78,-188.656"/>
<polygon fill="midnightblue" stroke="midnightblue" points="2274.2,-192.13 2283.74,-187.514 2273.41,-185.175 2274.2,-192.13"/>
</g>
<!-- Node30&#45;&gt;Node18 -->
<g id="edge58" class="edge"><title>Node30&#45;&gt;Node18</title>
<path fill="none" stroke="midnightblue" d="M1863.79,-229.975C1893.59,-219.725 1943.79,-202.459 1977.4,-190.899"/>
<polygon fill="midnightblue" stroke="midnightblue" points="1978.94,-194.071 1987.26,-187.509 1976.66,-187.452 1978.94,-194.071"/>
</g>
<!-- Node30&#45;&gt;Node20 -->
<g id="edge57" class="edge"><title>Node30&#45;&gt;Node20</title>
<path fill="none" stroke="midnightblue" d="M1843.7,-229.999C1851.01,-215.507 1862.81,-185.856 1848,-168 1828.57,-144.574 1755.24,-133.261 1694.87,-127.848"/>
<polygon fill="midnightblue" stroke="midnightblue" points="1694.79,-124.329 1684.53,-126.967 1694.2,-131.304 1694.79,-124.329"/>
</g>
<!-- Node30&#45;&gt;Node23 -->
<g id="edge55" class="edge"><title>Node30&#45;&gt;Node23</title>
<path fill="none" stroke="midnightblue" d="M1845.75,-229.995C1855.3,-216.922 1870.95,-190.986 1865,-168 1856.67,-135.805 1835.63,-102.932 1821.84,-83.7736"/>
<polygon fill="midnightblue" stroke="midnightblue" points="1824.51,-81.4899 1815.74,-75.5333 1818.88,-85.6537 1824.51,-81.4899"/>
</g>
<!-- Node30&#45;&gt;Node26 -->
<g id="edge56" class="edge"><title>Node30&#45;&gt;Node26</title>
<path fill="none" stroke="midnightblue" d="M1813.97,-229.95C1773.16,-216.141 1689.65,-188.414 1618,-168 1573.35,-155.28 1521.91,-142.545 1485.66,-133.885"/>
<polygon fill="midnightblue" stroke="midnightblue" points="1486.4,-130.463 1475.86,-131.555 1484.78,-137.273 1486.4,-130.463"/>
</g>
<!-- Node30&#45;&gt;Node28 -->
<g id="edge59" class="edge"><title>Node30&#45;&gt;Node28</title>
<path fill="none" stroke="midnightblue" d="M1888.29,-229.975C1950.49,-219.216 2057.37,-200.73 2123.89,-189.224"/>
<polygon fill="midnightblue" stroke="midnightblue" points="2124.55,-192.662 2133.8,-187.509 2123.35,-185.765 2124.55,-192.662"/>
</g>
<!-- Node31 -->
<g id="node31" class="node"><title>Node31</title>
<polygon fill="none" stroke="#bfbfbf" points="1779.5,-168.5 1779.5,-187.5 1838.5,-187.5 1838.5,-168.5 1779.5,-168.5"/>
<text text-anchor="middle" x="1809" y="-175.5" font-family="Helvetica,sans-Serif" font-size="10.00">functional</text>
</g>
<!-- Node30&#45;&gt;Node31 -->
<g id="edge50" class="edge"><title>Node30&#45;&gt;Node31</title>
<path fill="none" stroke="midnightblue" d="M1834.7,-229.975C1830.34,-221.315 1823.44,-207.649 1817.9,-196.645"/>
<polygon fill="midnightblue" stroke="midnightblue" points="1820.92,-194.863 1813.29,-187.509 1814.67,-198.014 1820.92,-194.863"/>
</g>
<!-- Node32&#45;&gt;Node5 -->
<g id="edge61" class="edge"><title>Node32&#45;&gt;Node5</title>
<path fill="none" stroke="midnightblue" d="M200.592,-291.41C183.665,-284.225 161.922,-272.334 149,-255 128.191,-227.085 130,-213.817 130,-179 130,-179 130,-179 130,-121 130,-67.6185 180.357,-72.8774 231,-56 343.778,-18.4155 718.258,-12.2126 828.324,-11.197"/>
<polygon fill="midnightblue" stroke="midnightblue" points="828.45,-14.6962 838.42,-11.1118 828.391,-7.69642 828.45,-14.6962"/>
</g>
<!-- Node33 -->
<g id="node33" class="node"><title>Node33</title>
<polygon fill="none" stroke="#bfbfbf" points="158.5,-224.5 158.5,-254.5 293.5,-254.5 293.5,-224.5 158.5,-224.5"/>
<text text-anchor="start" x="166.5" y="-242.5" font-family="Helvetica,sans-Serif" font-size="10.00">Configuration/Configuration</text>
<text text-anchor="middle" x="226" y="-231.5" font-family="Helvetica,sans-Serif" font-size="10.00">Factory.h</text>
</g>
<!-- Node32&#45;&gt;Node33 -->
<g id="edge62" class="edge"><title>Node32&#45;&gt;Node33</title>
<path fill="none" stroke="midnightblue" d="M225.143,-291.475C225.261,-284.471 225.434,-274.192 225.593,-264.696"/>
<polygon fill="midnightblue" stroke="midnightblue" points="229.096,-264.58 225.764,-254.523 222.097,-264.463 229.096,-264.58"/>
</g>
<!-- Node34&#45;&gt;Node5 -->
<g id="edge64" class="edge"><title>Node34&#45;&gt;Node5</title>
<path fill="none" stroke="midnightblue" d="M549.803,-224.409C562.608,-209.54 584.038,-185.836 605,-168 672.223,-110.801 692.908,-100.728 769,-56 789.077,-44.1984 812.65,-32.485 830.634,-23.9683"/>
<polygon fill="midnightblue" stroke="midnightblue" points="832.42,-26.9965 839.992,-19.5855 829.451,-20.6573 832.42,-26.9965"/>
</g>
<!-- Node34&#45;&gt;Node10 -->
<g id="edge65" class="edge"><title>Node34&#45;&gt;Node10</title>
<path fill="none" stroke="midnightblue" d="M612.672,-230.975C710.078,-221.149 885.794,-203.385 1036,-188 1052.57,-186.303 1070.91,-184.408 1086.47,-182.796"/>
<polygon fill="midnightblue" stroke="midnightblue" points="1087.15,-186.244 1096.73,-181.731 1086.42,-179.282 1087.15,-186.244"/>
</g>
<!-- Node34&#45;&gt;Node14 -->
<g id="edge68" class="edge"><title>Node34&#45;&gt;Node14</title>
<path fill="none" stroke="midnightblue" d="M577.814,-224.399C606.505,-214.238 644.81,-200.672 672.055,-191.022"/>
<polygon fill="midnightblue" stroke="midnightblue" points="673.297,-194.296 681.555,-187.658 670.96,-187.697 673.297,-194.296"/>
</g>
<!-- Node34&#45;&gt;Node20 -->
<g id="edge70" class="edge"><title>Node34&#45;&gt;Node20</title>
<path fill="none" stroke="midnightblue" d="M600.038,-224.481C682.817,-205.975 825.1,-174.924 878,-168 1162.24,-130.796 1236.24,-154.755 1522,-132 1522.34,-131.973 1522.68,-131.946 1523.02,-131.918"/>
<polygon fill="midnightblue" stroke="midnightblue" points="1523.43,-135.396 1533.1,-131.065 1522.84,-128.421 1523.43,-135.396"/>
</g>
<!-- Node34&#45;&gt;Node26 -->
<g id="edge71" class="edge"><title>Node34&#45;&gt;Node26</title>
<path fill="none" stroke="midnightblue" d="M554.124,-224.299C574.417,-207.397 611.102,-179.958 648,-168 777.24,-126.117 1178.01,-122.077 1354.31,-122.416"/>
<polygon fill="midnightblue" stroke="midnightblue" points="1354.31,-125.916 1364.32,-122.44 1354.33,-118.916 1354.31,-125.916"/>
</g>
<!-- Node35 -->
<g id="node35" class="node"><title>Node35</title>
<polygon fill="none" stroke="#bfbfbf" points="513,-168.5 513,-187.5 563,-187.5 563,-168.5 513,-168.5"/>
<text text-anchor="middle" x="538" y="-175.5" font-family="Helvetica,sans-Serif" font-size="10.00">TH1F.h</text>
</g>
<!-- Node34&#45;&gt;Node35 -->
<g id="edge66" class="edge"><title>Node34&#45;&gt;Node35</title>
<path fill="none" stroke="midnightblue" d="M538,-224.399C538,-216.466 538,-206.458 538,-197.858"/>
<polygon fill="midnightblue" stroke="midnightblue" points="541.5,-197.658 538,-187.658 534.5,-197.658 541.5,-197.658"/>
</g>
<!-- Node36 -->
<g id="node36" class="node"><title>Node36</title>
<polygon fill="none" stroke="#bfbfbf" points="273.5,-168.5 273.5,-187.5 342.5,-187.5 342.5,-168.5 273.5,-168.5"/>
<text text-anchor="middle" x="308" y="-175.5" font-family="Helvetica,sans-Serif" font-size="10.00">TObjArray.h</text>
</g>
<!-- Node34&#45;&gt;Node36 -->
<g id="edge67" class="edge"><title>Node34&#45;&gt;Node36</title>
<path fill="none" stroke="midnightblue" d="M483.784,-224.475C443.238,-213.986 388.545,-199.837 350.993,-190.122"/>
<polygon fill="midnightblue" stroke="midnightblue" points="351.44,-186.622 340.882,-187.506 349.686,-193.399 351.44,-186.622"/>
</g>
<!-- Node37 -->
<g id="node37" class="node"><title>Node37</title>
<polygon fill="none" stroke="#bfbfbf" points="361,-168.5 361,-187.5 495,-187.5 495,-168.5 361,-168.5"/>
<text text-anchor="middle" x="428" y="-175.5" font-family="Helvetica,sans-Serif" font-size="10.00">Framework/DataRefUtils.h</text>
</g>
<!-- Node34&#45;&gt;Node37 -->
<g id="edge69" class="edge"><title>Node34&#45;&gt;Node37</title>
<path fill="none" stroke="midnightblue" d="M511.932,-224.399C494.135,-214.773 470.688,-202.09 453.101,-192.577"/>
<polygon fill="midnightblue" stroke="midnightblue" points="454.467,-189.337 444.006,-187.658 451.136,-195.494 454.467,-189.337"/>
</g>
<!-- Node38&#45;&gt;Node17 -->
<g id="edge73" class="edge"><title>Node38&#45;&gt;Node17</title>
<path fill="none" stroke="midnightblue" d="M1550.09,-291.759C1553.1,-291.491 1556.08,-291.236 1559,-291 1705.19,-279.184 2076.89,-294.961 2218,-255 2264.18,-241.923 2312.08,-211.651 2338.15,-193.506"/>
<polygon fill="midnightblue" stroke="midnightblue" points="2340.29,-196.28 2346.43,-187.642 2336.24,-190.57 2340.29,-196.28"/>
</g>
</g>
</svg>
        <g id="navigator" transform="translate(0 0)" fill="#404254">
                <rect fill="#f2f5e9" fill-opacity="0.5" stroke="#606060" stroke-width=".5" x="0" y="0" width="60" height="60"/>
                <use id="zoomplus" xlink:href="#zoomPlus" x="17" y="9" onmousedown="handleZoom(evt,'in')"/>
                <use id="zoomminus" xlink:href="#zoomMin" x="42" y="9" onmousedown="handleZoom(evt,'out')"/>
                <use id="reset" xlink:href="#resetDef" x="30" y="36" onmousedown="handleReset()"/>
                <g id="arrowUp" xlink:href="#dirArrow" transform="translate(30 24)" onmousedown="handlePan(0,-1)">
                  <use xlink:href="#rim" fill="#404040">
                        <set attributeName="fill" to="#808080" begin="arrowUp.mouseover" end="arrowUp.mouseout"/>
                  </use>
                  <path fill="none" stroke="white" stroke-width="1.5" d="M0,-3.0v7 M-2.5,-0.5L0,-3.0L2.5,-0.5"/>
                </g>
                <g id="arrowRight" xlink:href="#dirArrow" transform="rotate(90) translate(36 -43)" onmousedown="handlePan(1,0)">
                  <use xlink:href="#rim" fill="#404040">
                        <set attributeName="fill" to="#808080" begin="arrowRight.mouseover" end="arrowRight.mouseout"/>
                  </use>
                  <path fill="none" stroke="white" stroke-width="1.5" d="M0,-3.0v7 M-2.5,-0.5L0,-3.0L2.5,-0.5"/>
                </g>
                <g id="arrowDown" xlink:href="#dirArrow" transform="rotate(180) translate(-30 -48)" onmousedown="handlePan(0,1)">
                  <use xlink:href="#rim" fill="#404040">
                        <set attributeName="fill" to="#808080" begin="arrowDown.mouseover" end="arrowDown.mouseout"/>
                  </use>
                  <path fill="none" stroke="white" stroke-width="1.5" d="M0,-3.0v7 M-2.5,-0.5L0,-3.0L2.5,-0.5"/>
                </g>
                <g id="arrowLeft" xlink:href="#dirArrow" transform="rotate(270) translate(-36 17)" onmousedown="handlePan(-1,0)">
                  <use xlink:href="#rim" fill="#404040">
                        <set attributeName="fill" to="#808080" begin="arrowLeft.mouseover" end="arrowLeft.mouseout"/>
                  </use>
                  <path fill="none" stroke="white" stroke-width="1.5" d="M0,-3.0v7 M-2.5,-0.5L0,-3.0L2.5,-0.5"/>
                </g>
        </g>
        <svg viewBox="0 0 15 15" width="100%" height="30px" preserveAspectRatio="xMaxYMin meet">
         <g id="arrow_out" transform="scale(0.3 0.3)">
          <a xlink:href="runBasic_8cxx__incl_org.svg" target="_base">
           <rect id="button" ry="5" rx="5" y="6" x="6" height="38" width="38"
                fill="#f2f5e9" fill-opacity="0.5" stroke="#606060" stroke-width="1.0"/>
           <path id="arrow"
             d="M 11.500037,31.436501 C 11.940474,20.09759 22.043105,11.32322 32.158766,21.979434 L 37.068811,17.246167 C 37.068811,17.246167 37.088388,32 37.088388,32 L 22.160133,31.978069 C 22.160133,31.978069 26.997745,27.140456 26.997745,27.140456 C 18.528582,18.264221 13.291696,25.230495 11.500037,31.436501 z"
             style="fill:#404040;"/>
          </a>
         </g>
        </svg>
</svg>
