<?xml version="1.0" encoding="UTF-8" standalone="no"?>
<!DOCTYPE svg PUBLIC "-//W3C//DTD SVG 1.1//EN"
 "http://www.w3.org/Graphics/SVG/1.1/DTD/svg11.dtd">
<!-- Generated by graphviz version 2.38.0 (20140413.2041)
 -->
<!-- Title: Framework/src/runMergerTest.cxx Pages: 1 -->
<!--zoomable 375 -->
<svg id="main" version="1.1" xmlns="http://www.w3.org/2000/svg" xmlns:xlink="http://www.w3.org/1999/xlink" xml:space="preserve" onload="init(evt)">
<style type="text/css"><![CDATA[
.edge:hover path { stroke: red; }
.edge:hover polygon { stroke: red; fill: red; }
]]></style>
<script type="text/javascript"><![CDATA[
var edges = document.getElementsByTagName('g');
if (edges && edges.length) {
  for (var i=0;i<edges.length;i++) {
    if (edges[i].id.substr(0,4)=='edge') {
      edges[i].setAttribute('class','edge');
    }
  }
}
]]></script>
        <defs>
                <circle id="rim" cx="0" cy="0" r="7"/>
                <circle id="rim2" cx="0" cy="0" r="3.5"/>
                <g id="zoomPlus">
                        <use xlink:href="#rim" fill="#404040">
                                <set attributeName="fill" to="#808080" begin="zoomplus.mouseover" end="zoomplus.mouseout"/>
                        </use>
                        <path d="M-4,0h8M0,-4v8" fill="none" stroke="white" stroke-width="1.5" pointer-events="none"/>
                </g>
                <g id="zoomMin">
                        <use xlink:href="#rim" fill="#404040">
                                <set attributeName="fill" to="#808080" begin="zoomminus.mouseover" end="zoomminus.mouseout"/>
                        </use>
                        <path d="M-4,0h8" fill="none" stroke="white" stroke-width="1.5" pointer-events="none"/>
                </g>
                <g id="dirArrow">
                        <path fill="none" stroke="white" stroke-width="1.5" d="M0,-3.0v7 M-2.5,-0.5L0,-3.0L2.5,-0.5"/>
                </g>
               <g id="resetDef">
                       <use xlink:href="#rim2" fill="#404040">
                               <set attributeName="fill" to="#808080" begin="reset.mouseover" end="reset.mouseout"/>
                       </use>
               </g>
        </defs>

<script type="text/javascript">
var viewWidth = 2042;
var viewHeight = 375;
var sectionId = 'dynsection-0';
</script>
<script xlink:href="svgpan.js"/>
<svg id="graph" class="graph">
<g id="viewport">
<title>Framework/src/runMergerTest.cxx</title>
<!-- Node1 -->
<g id="node1" class="node"><title>Node1</title>
<polygon fill="#bfbfbf" stroke="black" points="1363,-347.5 1363,-366.5 1530,-366.5 1530,-347.5 1363,-347.5"/>
<text text-anchor="middle" x="1446.5" y="-354.5" font-family="Helvetica,sans-Serif" font-size="10.00">Framework/src/runMergerTest.cxx</text>
</g>
<!-- Node2 -->
<g id="node2" class="node"><title>Node2</title>
<polygon fill="none" stroke="#bfbfbf" points="0,-286 0,-305 97,-305 97,-286 0,-286"/>
<text text-anchor="middle" x="48.5" y="-293" font-family="Helvetica,sans-Serif" font-size="10.00">fairlogger/Logger.h</text>
</g>
<!-- Node1&#45;&gt;Node2 -->
<g id="edge1" class="edge"><title>Node1&#45;&gt;Node2</title>
<path fill="none" stroke="midnightblue" d="M1362.9,-355.288C1109.93,-352.799 355.1,-342.837 111.5,-311 104.546,-310.091 97.2338,-308.762 90.152,-307.272"/>
<polygon fill="midnightblue" stroke="midnightblue" points="90.533,-303.771 80.0102,-305.004 89.0053,-310.602 90.533,-303.771"/>
</g>
<!-- Node3 -->
<g id="node3" class="node"><title>Node3</title>
<g id="a_node3"><a xlink:href="QcInfoLogger_8h.html" target="_top" xlink:title="QualityControl/QcInfoLogger.h">
<polygon fill="none" stroke="black" points="998,-168.5 998,-187.5 1147,-187.5 1147,-168.5 998,-168.5"/>
<text text-anchor="middle" x="1072.5" y="-175.5" font-family="Helvetica,sans-Serif" font-size="10.00">QualityControl/QcInfoLogger.h</text>
</a>
</g>
</g>
<!-- Node1&#45;&gt;Node3 -->
<g id="edge2" class="edge"><title>Node1&#45;&gt;Node3</title>
<path fill="none" stroke="midnightblue" d="M1425.86,-347.461C1408.69,-339.68 1384.28,-326.976 1366.5,-311 1331.18,-279.265 1344.43,-249.686 1304.5,-224 1290.54,-215.019 1201.51,-199.409 1137.9,-189.14"/>
<polygon fill="midnightblue" stroke="midnightblue" points="1138.36,-185.668 1127.93,-187.54 1137.25,-192.58 1138.36,-185.668"/>
</g>
<!-- Node5 -->
<g id="node5" class="node"><title>Node5</title>
<polygon fill="none" stroke="#bfbfbf" points="1791,-224.5 1791,-243.5 1944,-243.5 1944,-224.5 1791,-224.5"/>
<text text-anchor="middle" x="1867.5" y="-231.5" font-family="Helvetica,sans-Serif" font-size="10.00">Framework/CompletionPolicy.h</text>
</g>
<!-- Node1&#45;&gt;Node5 -->
<g id="edge4" class="edge"><title>Node1&#45;&gt;Node5</title>
<path fill="none" stroke="midnightblue" d="M1463.86,-347.338C1480.42,-338.825 1505.83,-325.092 1526.5,-311 1544.51,-298.723 1544.56,-288.805 1564.5,-280 1584.49,-271.17 1703.76,-255.124 1786.55,-244.771"/>
<polygon fill="midnightblue" stroke="midnightblue" points="1787.22,-248.215 1796.71,-243.506 1786.36,-241.268 1787.22,-248.215"/>
</g>
<!-- Node6 -->
<g id="node6" class="node"><title>Node6</title>
<polygon fill="none" stroke="#bfbfbf" points="1574,-280.5 1574,-310.5 1719,-310.5 1719,-280.5 1574,-280.5"/>
<text text-anchor="start" x="1582" y="-298.5" font-family="Helvetica,sans-Serif" font-size="10.00">Framework/CompletionPolicy</text>
<text text-anchor="middle" x="1646.5" y="-287.5" font-family="Helvetica,sans-Serif" font-size="10.00">Helpers.h</text>
</g>
<!-- Node1&#45;&gt;Node6 -->
<g id="edge5" class="edge"><title>Node1&#45;&gt;Node6</title>
<path fill="none" stroke="midnightblue" d="M1475.16,-347.475C1504.9,-338.626 1552.22,-324.549 1589.6,-313.428"/>
<polygon fill="midnightblue" stroke="midnightblue" points="1590.78,-316.729 1599.36,-310.523 1588.78,-310.02 1590.78,-316.729"/>
</g>
<!-- Node7 -->
<g id="node7" class="node"><title>Node7</title>
<polygon fill="none" stroke="#bfbfbf" points="1737.5,-286 1737.5,-305 1787.5,-305 1787.5,-286 1737.5,-286"/>
<text text-anchor="middle" x="1762.5" y="-293" font-family="Helvetica,sans-Serif" font-size="10.00">TH1F.h</text>
</g>
<!-- Node1&#45;&gt;Node7 -->
<g id="edge6" class="edge"><title>Node1&#45;&gt;Node7</title>
<path fill="none" stroke="midnightblue" d="M1530.04,-348.102C1586.78,-341.422 1663.12,-329.849 1728.5,-311 1730.79,-310.34 1733.13,-309.567 1735.46,-308.726"/>
<polygon fill="midnightblue" stroke="midnightblue" points="1736.8,-311.96 1744.8,-305.017 1734.22,-305.454 1736.8,-311.96"/>
</g>
<!-- Node8 -->
<g id="node8" class="node"><title>Node8</title>
<polygon fill="none" stroke="#bfbfbf" points="574.5,-168.5 574.5,-187.5 626.5,-187.5 626.5,-168.5 574.5,-168.5"/>
<text text-anchor="middle" x="600.5" y="-175.5" font-family="Helvetica,sans-Serif" font-size="10.00">memory</text>
</g>
<!-- Node1&#45;&gt;Node8 -->
<g id="edge7" class="edge"><title>Node1&#45;&gt;Node8</title>
<path fill="none" stroke="midnightblue" d="M1362.77,-355.164C1114.61,-352.349 393.935,-341.604 292.5,-311 237.696,-294.465 210.538,-293.907 182.5,-244 178.146,-236.25 176.561,-230.613 182.5,-224 207.826,-195.801 467.239,-183.737 564.199,-180.189"/>
<polygon fill="midnightblue" stroke="midnightblue" points="564.529,-183.68 574.398,-179.826 564.279,-176.684 564.529,-183.68"/>
</g>
<!-- Node9 -->
<g id="node9" class="node"><title>Node9</title>
<polygon fill="none" stroke="#bfbfbf" points="1806,-286 1806,-305 1855,-305 1855,-286 1806,-286"/>
<text text-anchor="middle" x="1830.5" y="-293" font-family="Helvetica,sans-Serif" font-size="10.00">random</text>
</g>
<!-- Node1&#45;&gt;Node9 -->
<g id="edge8" class="edge"><title>Node1&#45;&gt;Node9</title>
<path fill="none" stroke="midnightblue" d="M1530.14,-351.724C1601.85,-346.53 1707.38,-335.233 1796.5,-311 1798.8,-310.375 1801.15,-309.626 1803.48,-308.803"/>
<polygon fill="midnightblue" stroke="midnightblue" points="1804.81,-312.042 1812.83,-305.123 1802.24,-305.528 1804.81,-312.042"/>
</g>
<!-- Node10 -->
<g id="node10" class="node"><title>Node10</title>
<polygon fill="none" stroke="#bfbfbf" points="1873.5,-286 1873.5,-305 2033.5,-305 2033.5,-286 1873.5,-286"/>
<text text-anchor="middle" x="1953.5" y="-293" font-family="Helvetica,sans-Serif" font-size="10.00">Framework/runDataProcessing.h</text>
</g>
<!-- Node1&#45;&gt;Node10 -->
<g id="edge9" class="edge"><title>Node1&#45;&gt;Node10</title>
<path fill="none" stroke="midnightblue" d="M1530.33,-348.324C1614.84,-340.269 1748.95,-326.621 1864.5,-311 1874.06,-309.708 1884.17,-308.198 1894.01,-306.65"/>
<polygon fill="midnightblue" stroke="midnightblue" points="1894.82,-310.066 1904.14,-305.031 1893.71,-303.154 1894.82,-310.066"/>
</g>
<!-- Node11 -->
<g id="node11" class="node"><title>Node11</title>
<g id="a_node11"><a xlink:href="CheckRunner_8h.html" target="_top" xlink:title="QualityControl/CheckRunner.h">
<polygon fill="none" stroke="black" points="1011.5,-286 1011.5,-305 1161.5,-305 1161.5,-286 1011.5,-286"/>
<text text-anchor="middle" x="1086.5" y="-293" font-family="Helvetica,sans-Serif" font-size="10.00">QualityControl/CheckRunner.h</text>
</a>
</g>
</g>
<!-- Node1&#45;&gt;Node11 -->
<g id="edge10" class="edge"><title>Node1&#45;&gt;Node11</title>
<path fill="none" stroke="midnightblue" d="M1394.92,-347.475C1329.69,-336.694 1217.52,-318.154 1147.93,-306.653"/>
<polygon fill="midnightblue" stroke="midnightblue" points="1148.42,-303.187 1137.98,-305.009 1147.28,-310.093 1148.42,-303.187"/>
</g>
<!-- Node34 -->
<g id="node34" class="node"><title>Node34</title>
<g id="a_node34"><a xlink:href="CheckRunnerFactory_8h.html" target="_top" xlink:title="QualityControl/CheckRunner\lFactory.h">
<polygon fill="none" stroke="black" points="1375.5,-280.5 1375.5,-310.5 1517.5,-310.5 1517.5,-280.5 1375.5,-280.5"/>
<text text-anchor="start" x="1383.5" y="-298.5" font-family="Helvetica,sans-Serif" font-size="10.00">QualityControl/CheckRunner</text>
<text text-anchor="middle" x="1446.5" y="-287.5" font-family="Helvetica,sans-Serif" font-size="10.00">Factory.h</text>
</a>
</g>
</g>
<!-- Node1&#45;&gt;Node34 -->
<g id="edge61" class="edge"><title>Node1&#45;&gt;Node34</title>
<path fill="none" stroke="midnightblue" d="M1446.5,-347.475C1446.5,-340.471 1446.5,-330.192 1446.5,-320.696"/>
<polygon fill="midnightblue" stroke="midnightblue" points="1450,-320.523 1446.5,-310.523 1443,-320.523 1450,-320.523"/>
</g>
<!-- Node35 -->
<g id="node35" class="node"><title>Node35</title>
<g id="a_node35"><a xlink:href="HistoMerger_8h.html" target="_top" xlink:title="QualityControl/HistoMerger.h">
<polygon fill="none" stroke="black" points="302,-286 302,-305 445,-305 445,-286 302,-286"/>
<text text-anchor="middle" x="373.5" y="-293" font-family="Helvetica,sans-Serif" font-size="10.00">QualityControl/HistoMerger.h</text>
</a>
</g>
</g>
<!-- Node1&#45;&gt;Node35 -->
<g id="edge66" class="edge"><title>Node1&#45;&gt;Node35</title>
<path fill="none" stroke="midnightblue" d="M1362.75,-351.356C1161.8,-340.213 654.271,-312.069 455.312,-301.037"/>
<polygon fill="midnightblue" stroke="midnightblue" points="455.396,-297.536 445.217,-300.477 455.008,-304.525 455.396,-297.536"/>
</g>
<!-- Node4 -->
<g id="node4" class="node"><title>Node4</title>
<polygon fill="none" stroke="#bfbfbf" points="1130.5,-112.5 1130.5,-131.5 1260.5,-131.5 1260.5,-112.5 1130.5,-112.5"/>
<text text-anchor="middle" x="1195.5" y="-119.5" font-family="Helvetica,sans-Serif" font-size="10.00">InfoLogger/InfoLogger.hxx</text>
</g>
<!-- Node3&#45;&gt;Node4 -->
<g id="edge3" class="edge"><title>Node3&#45;&gt;Node4</title>
<path fill="none" stroke="midnightblue" d="M1091.99,-168.444C1112.14,-159.596 1143.82,-145.687 1166.83,-135.586"/>
<polygon fill="midnightblue" stroke="midnightblue" points="1168.35,-138.741 1176.1,-131.516 1165.54,-132.332 1168.35,-138.741"/>
</g>
<!-- Node11&#45;&gt;Node3 -->
<g id="edge49" class="edge"><title>Node11&#45;&gt;Node3</title>
<path fill="none" stroke="midnightblue" d="M1161.76,-291.671C1232.72,-286.201 1323.01,-270.264 1285.5,-224 1276.25,-212.587 1199.64,-198.435 1140.92,-189.083"/>
<polygon fill="midnightblue" stroke="midnightblue" points="1141.35,-185.607 1130.93,-187.51 1140.26,-192.522 1141.35,-185.607"/>
</g>
<!-- Node11&#45;&gt;Node8 -->
<g id="edge12" class="edge"><title>Node11&#45;&gt;Node8</title>
<path fill="none" stroke="midnightblue" d="M1011.08,-290.831C886.855,-284.128 649.956,-268.317 620.5,-244 607.005,-232.859 602.432,-212.83 600.974,-197.939"/>
<polygon fill="midnightblue" stroke="midnightblue" points="604.458,-197.56 600.37,-187.786 597.47,-197.976 604.458,-197.56"/>
</g>
<!-- Node12 -->
<g id="node12" class="node"><title>Node12</title>
<polygon fill="none" stroke="#bfbfbf" points="1063.5,-224.5 1063.5,-243.5 1109.5,-243.5 1109.5,-224.5 1063.5,-224.5"/>
<text text-anchor="middle" x="1086.5" y="-231.5" font-family="Helvetica,sans-Serif" font-size="10.00">chrono</text>
</g>
<!-- Node11&#45;&gt;Node12 -->
<g id="edge11" class="edge"><title>Node11&#45;&gt;Node12</title>
<path fill="none" stroke="midnightblue" d="M1086.5,-285.975C1086.5,-277.58 1086.5,-264.481 1086.5,-253.663"/>
<polygon fill="midnightblue" stroke="midnightblue" points="1090,-253.509 1086.5,-243.509 1083,-253.509 1090,-253.509"/>
</g>
<!-- Node13 -->
<g id="node13" class="node"><title>Node13</title>
<polygon fill="none" stroke="#bfbfbf" points="774,-0.5 774,-19.5 815,-19.5 815,-0.5 774,-0.5"/>
<text text-anchor="middle" x="794.5" y="-7.5" font-family="Helvetica,sans-Serif" font-size="10.00">string</text>
</g>
<!-- Node11&#45;&gt;Node13 -->
<g id="edge13" class="edge"><title>Node11&#45;&gt;Node13</title>
<path fill="none" stroke="midnightblue" d="M1011.09,-294.244C892.855,-292.591 670.415,-284.055 603.5,-244 571.097,-224.604 548.011,-201.471 565.5,-168 607.67,-87.2942 712.299,-40.207 764.246,-21.0689"/>
<polygon fill="midnightblue" stroke="midnightblue" points="765.664,-24.2788 773.899,-17.6123 763.304,-17.6886 765.664,-24.2788"/>
</g>
<!-- Node14 -->
<g id="node14" class="node"><title>Node14</title>
<polygon fill="none" stroke="#bfbfbf" points="1145,-56.5 1145,-75.5 1180,-75.5 1180,-56.5 1145,-56.5"/>
<text text-anchor="middle" x="1162.5" y="-63.5" font-family="Helvetica,sans-Serif" font-size="10.00">map</text>
</g>
<!-- Node11&#45;&gt;Node14 -->
<g id="edge14" class="edge"><title>Node11&#45;&gt;Node14</title>
<path fill="none" stroke="midnightblue" d="M1161.64,-286.843C1219.2,-278.045 1283.85,-259.913 1252.5,-224 1174.63,-134.787 1066.37,-277.213 988.5,-188 943.782,-136.77 991.326,-185.432 1083.5,-132 1107.36,-118.171 1131.33,-97.2097 1146.51,-82.8527"/>
<polygon fill="midnightblue" stroke="midnightblue" points="1149.21,-85.1063 1153.98,-75.6433 1144.35,-80.0696 1149.21,-85.1063"/>
</g>
<!-- Node15 -->
<g id="node15" class="node"><title>Node15</title>
<polygon fill="none" stroke="#bfbfbf" points="898.5,-168.5 898.5,-187.5 942.5,-187.5 942.5,-168.5 898.5,-168.5"/>
<text text-anchor="middle" x="920.5" y="-175.5" font-family="Helvetica,sans-Serif" font-size="10.00">vector</text>
</g>
<!-- Node11&#45;&gt;Node15 -->
<g id="edge15" class="edge"><title>Node11&#45;&gt;Node15</title>
<path fill="none" stroke="midnightblue" d="M1095.88,-285.944C1110.16,-271.882 1134.14,-243.502 1118.5,-224 1072.35,-166.467 1028.28,-204.946 956.5,-188 955.23,-187.7 953.936,-187.392 952.63,-187.077"/>
<polygon fill="midnightblue" stroke="midnightblue" points="953.108,-183.591 942.562,-184.613 951.443,-190.39 953.108,-183.591"/>
</g>
<!-- Node16 -->
<g id="node16" class="node"><title>Node16</title>
<polygon fill="none" stroke="#bfbfbf" points="1165.5,-224.5 1165.5,-243.5 1243.5,-243.5 1243.5,-224.5 1165.5,-224.5"/>
<text text-anchor="middle" x="1204.5" y="-231.5" font-family="Helvetica,sans-Serif" font-size="10.00">unordered_set</text>
</g>
<!-- Node11&#45;&gt;Node16 -->
<g id="edge16" class="edge"><title>Node11&#45;&gt;Node16</title>
<path fill="none" stroke="midnightblue" d="M1103.41,-285.975C1123.03,-276.078 1155.63,-259.642 1178.49,-248.115"/>
<polygon fill="midnightblue" stroke="midnightblue" points="1180.27,-251.137 1187.62,-243.509 1177.12,-244.886 1180.27,-251.137"/>
</g>
<!-- Node17 -->
<g id="node17" class="node"><title>Node17</title>
<polygon fill="none" stroke="#bfbfbf" points="327.5,-224.5 327.5,-243.5 419.5,-243.5 419.5,-224.5 327.5,-224.5"/>
<text text-anchor="middle" x="373.5" y="-231.5" font-family="Helvetica,sans-Serif" font-size="10.00">Common/Timer.h</text>
</g>
<!-- Node11&#45;&gt;Node17 -->
<g id="edge17" class="edge"><title>Node11&#45;&gt;Node17</title>
<path fill="none" stroke="midnightblue" d="M1011.3,-290.827C890.716,-284.475 646.486,-269.703 429.651,-244.041"/>
<polygon fill="midnightblue" stroke="midnightblue" points="430.017,-240.56 419.673,-242.85 429.187,-247.51 430.017,-240.56"/>
</g>
<!-- Node18 -->
<g id="node18" class="node"><title>Node18</title>
<polygon fill="none" stroke="#bfbfbf" points="437.5,-224.5 437.5,-243.5 535.5,-243.5 535.5,-224.5 437.5,-224.5"/>
<text text-anchor="middle" x="486.5" y="-231.5" font-family="Helvetica,sans-Serif" font-size="10.00">Framework/Task.h</text>
</g>
<!-- Node11&#45;&gt;Node18 -->
<g id="edge18" class="edge"><title>Node11&#45;&gt;Node18</title>
<path fill="none" stroke="midnightblue" d="M1011.23,-288.572C907.247,-280.12 713.862,-263.457 549.5,-244 548.235,-243.85 546.956,-243.696 545.667,-243.537"/>
<polygon fill="midnightblue" stroke="midnightblue" points="546.014,-240.053 535.651,-242.255 545.125,-246.996 546.014,-240.053"/>
</g>
<!-- Node19 -->
<g id="node19" class="node"><title>Node19</title>
<polygon fill="none" stroke="#bfbfbf" points="192,-224.5 192,-243.5 309,-243.5 309,-224.5 192,-224.5"/>
<text text-anchor="middle" x="250.5" y="-231.5" font-family="Helvetica,sans-Serif" font-size="10.00">Headers/DataHeader.h</text>
</g>
<!-- Node11&#45;&gt;Node19 -->
<g id="edge19" class="edge"><title>Node11&#45;&gt;Node19</title>
<path fill="none" stroke="midnightblue" d="M1011.42,-291.209C875.544,-284.892 579.615,-269.478 319.108,-243.99"/>
<polygon fill="midnightblue" stroke="midnightblue" points="319.372,-240.499 309.077,-243.002 318.686,-247.466 319.372,-240.499"/>
</g>
<!-- Node20 -->
<g id="node20" class="node"><title>Node20</title>
<polygon fill="none" stroke="#bfbfbf" points="894,-224.5 894,-243.5 1045,-243.5 1045,-224.5 894,-224.5"/>
<text text-anchor="middle" x="969.5" y="-231.5" font-family="Helvetica,sans-Serif" font-size="10.00">Monitoring/MonitoringFactory.h</text>
</g>
<!-- Node11&#45;&gt;Node20 -->
<g id="edge20" class="edge"><title>Node11&#45;&gt;Node20</title>
<path fill="none" stroke="midnightblue" d="M1069.74,-285.975C1050.28,-276.078 1017.95,-259.642 995.289,-248.115"/>
<polygon fill="midnightblue" stroke="midnightblue" points="996.732,-244.922 986.232,-243.509 993.559,-251.162 996.732,-244.922"/>
</g>
<!-- Node21 -->
<g id="node21" class="node"><title>Node21</title>
<polygon fill="none" stroke="#bfbfbf" points="1570.5,-168.5 1570.5,-187.5 1734.5,-187.5 1734.5,-168.5 1570.5,-168.5"/>
<text text-anchor="middle" x="1652.5" y="-175.5" font-family="Helvetica,sans-Serif" font-size="10.00">Framework/DataProcessorSpec.h</text>
</g>
<!-- Node11&#45;&gt;Node21 -->
<g id="edge21" class="edge"><title>Node11&#45;&gt;Node21</title>
<path fill="none" stroke="midnightblue" d="M1161.76,-293.476C1249.55,-290.525 1398.26,-280.038 1520.5,-244 1561.13,-232.022 1604.5,-208.29 1630.02,-193.057"/>
<polygon fill="midnightblue" stroke="midnightblue" points="1632.15,-195.858 1638.89,-187.677 1628.52,-189.874 1632.15,-195.858"/>
</g>
<!-- Node22 -->
<g id="node22" class="node"><title>Node22</title>
<g id="a_node22"><a xlink:href="CheckInterface_8h.html" target="_top" xlink:title="QualityControl/CheckInterface.h">
<polygon fill="none" stroke="black" points="1357,-168.5 1357,-187.5 1514,-187.5 1514,-168.5 1357,-168.5"/>
<text text-anchor="middle" x="1435.5" y="-175.5" font-family="Helvetica,sans-Serif" font-size="10.00">QualityControl/CheckInterface.h</text>
</a>
</g>
</g>
<!-- Node11&#45;&gt;Node22 -->
<g id="edge22" class="edge"><title>Node11&#45;&gt;Node22</title>
<path fill="none" stroke="midnightblue" d="M1161.62,-290.721C1275.56,-284.21 1481.25,-269.106 1503.5,-244 1520.58,-224.732 1490.84,-204.547 1465.46,-191.88"/>
<polygon fill="midnightblue" stroke="midnightblue" points="1466.94,-188.707 1456.41,-187.569 1463.93,-195.027 1466.94,-188.707"/>
</g>
<!-- Node24 -->
<g id="node24" class="node"><title>Node24</title>
<g id="a_node24"><a xlink:href="MonitorObject_8h.html" target="_top" xlink:title="QualityControl/MonitorObject.h">
<polygon fill="none" stroke="black" points="757,-112.5 757,-131.5 908,-131.5 908,-112.5 757,-112.5"/>
<text text-anchor="middle" x="832.5" y="-119.5" font-family="Helvetica,sans-Serif" font-size="10.00">QualityControl/MonitorObject.h</text>
</a>
</g>
</g>
<!-- Node11&#45;&gt;Node24 -->
<g id="edge48" class="edge"><title>Node11&#45;&gt;Node24</title>
<path fill="none" stroke="midnightblue" d="M1011.44,-291.677C969.847,-286.509 919.604,-273.866 884.5,-244 853.11,-217.294 840.144,-168.209 835.219,-141.498"/>
<polygon fill="midnightblue" stroke="midnightblue" points="838.659,-140.845 833.571,-131.551 831.753,-141.989 838.659,-140.845"/>
</g>
<!-- Node28 -->
<g id="node28" class="node"><title>Node28</title>
<g id="a_node28"><a xlink:href="DatabaseInterface_8h.html" target="_top" xlink:title="QualityControl/DatabaseInterface.h">
<polygon fill="none" stroke="black" points="629.5,-224.5 629.5,-243.5 799.5,-243.5 799.5,-224.5 629.5,-224.5"/>
<text text-anchor="middle" x="714.5" y="-231.5" font-family="Helvetica,sans-Serif" font-size="10.00">QualityControl/DatabaseInterface.h</text>
</a>
</g>
</g>
<!-- Node11&#45;&gt;Node28 -->
<g id="edge36" class="edge"><title>Node11&#45;&gt;Node28</title>
<path fill="none" stroke="midnightblue" d="M1033.2,-285.975C965.799,-275.194 849.886,-256.654 777.979,-245.153"/>
<polygon fill="midnightblue" stroke="midnightblue" points="778.127,-241.632 767.7,-243.509 777.021,-248.545 778.127,-241.632"/>
</g>
<!-- Node32 -->
<g id="node32" class="node"><title>Node32</title>
<g id="a_node32"><a xlink:href="Check_8h_source.html" target="_top" xlink:title="QualityControl/Check.h">
<polygon fill="none" stroke="black" points="1376,-224.5 1376,-243.5 1495,-243.5 1495,-224.5 1376,-224.5"/>
<text text-anchor="middle" x="1435.5" y="-231.5" font-family="Helvetica,sans-Serif" font-size="10.00">QualityControl/Check.h</text>
</a>
</g>
</g>
<!-- Node11&#45;&gt;Node32 -->
<g id="edge50" class="edge"><title>Node11&#45;&gt;Node32</title>
<path fill="none" stroke="midnightblue" d="M1136.5,-285.975C1199.61,-275.216 1308.04,-256.73 1375.53,-245.224"/>
<polygon fill="midnightblue" stroke="midnightblue" points="1376.32,-248.64 1385.59,-243.509 1375.14,-241.74 1376.32,-248.64"/>
</g>
<!-- Node22&#45;&gt;Node13 -->
<g id="edge23" class="edge"><title>Node22&#45;&gt;Node13</title>
<path fill="none" stroke="midnightblue" d="M1425.73,-168.367C1409.99,-154.824 1377.63,-128.435 1346.5,-112 1166.41,-16.9305 912.386,-9.77634 825.238,-10.3514"/>
<polygon fill="midnightblue" stroke="midnightblue" points="825.184,-6.85163 815.222,-10.4578 825.259,-13.8512 825.184,-6.85163"/>
</g>
<!-- Node22&#45;&gt;Node14 -->
<g id="edge24" class="edge"><title>Node22&#45;&gt;Node14</title>
<path fill="none" stroke="midnightblue" d="M1421.42,-168.483C1398.84,-155.098 1352.9,-128.923 1311.5,-112 1270.33,-95.1704 1220.51,-81.3798 1190.18,-73.6774"/>
<polygon fill="midnightblue" stroke="midnightblue" points="1190.86,-70.24 1180.31,-71.2118 1189.16,-77.0313 1190.86,-70.24"/>
</g>
<!-- Node23 -->
<g id="node23" class="node"><title>Node23</title>
<polygon fill="none" stroke="#bfbfbf" points="1374.5,-0.5 1374.5,-19.5 1430.5,-19.5 1430.5,-0.5 1374.5,-0.5"/>
<text text-anchor="middle" x="1402.5" y="-7.5" font-family="Helvetica,sans-Serif" font-size="10.00">Rtypes.h</text>
</g>
<!-- Node22&#45;&gt;Node23 -->
<g id="edge25" class="edge"><title>Node22&#45;&gt;Node23</title>
<path fill="none" stroke="midnightblue" d="M1442.44,-168.316C1457.98,-147.76 1492.59,-94.9278 1471.5,-56 1463.75,-41.6958 1449.27,-31.2188 1435.56,-23.992"/>
<polygon fill="midnightblue" stroke="midnightblue" points="1436.81,-20.7104 1426.29,-19.501 1433.76,-27.0103 1436.81,-20.7104"/>
</g>
<!-- Node22&#45;&gt;Node24 -->
<g id="edge26" class="edge"><title>Node22&#45;&gt;Node24</title>
<path fill="none" stroke="midnightblue" d="M1356.76,-170.672C1257.11,-162.552 1079.91,-147.738 918.186,-132.148"/>
<polygon fill="midnightblue" stroke="midnightblue" points="918.339,-128.646 908.049,-131.167 917.665,-135.614 918.339,-128.646"/>
</g>
<!-- Node27 -->
<g id="node27" class="node"><title>Node27</title>
<g id="a_node27"><a xlink:href="Quality_8h.html" target="_top" xlink:title="QualityControl/Quality.h">
<polygon fill="none" stroke="black" points="1342,-56.5 1342,-75.5 1463,-75.5 1463,-56.5 1342,-56.5"/>
<text text-anchor="middle" x="1402.5" y="-63.5" font-family="Helvetica,sans-Serif" font-size="10.00">QualityControl/Quality.h</text>
</a>
</g>
</g>
<!-- Node22&#45;&gt;Node27 -->
<g id="edge35" class="edge"><title>Node22&#45;&gt;Node27</title>
<path fill="none" stroke="midnightblue" d="M1432.91,-168.368C1427.56,-150.537 1415.19,-109.295 1407.98,-85.2717"/>
<polygon fill="midnightblue" stroke="midnightblue" points="1411.3,-84.1639 1405.08,-75.5914 1404.6,-86.1754 1411.3,-84.1639"/>
</g>
<!-- Node24&#45;&gt;Node13 -->
<g id="edge27" class="edge"><title>Node24&#45;&gt;Node13</title>
<path fill="none" stroke="midnightblue" d="M829.518,-112.368C823.358,-94.5366 809.111,-53.2953 800.812,-29.2717"/>
<polygon fill="midnightblue" stroke="midnightblue" points="804.041,-27.9005 797.468,-19.5914 797.425,-30.1862 804.041,-27.9005"/>
</g>
<!-- Node24&#45;&gt;Node14 -->
<g id="edge28" class="edge"><title>Node24&#45;&gt;Node14</title>
<path fill="none" stroke="midnightblue" d="M899.223,-112.473C970.034,-103.193 1078.3,-88.2915 1134.95,-75.6797"/>
<polygon fill="midnightblue" stroke="midnightblue" points="1135.97,-79.0368 1144.91,-73.3533 1134.37,-72.2204 1135.97,-79.0368"/>
</g>
<!-- Node24&#45;&gt;Node23 -->
<g id="edge29" class="edge"><title>Node24&#45;&gt;Node23</title>
<path fill="none" stroke="midnightblue" d="M832.183,-112.177C832.201,-97.8695 834.551,-69.8175 851.5,-56 891.081,-23.7329 1245.67,-14.0149 1364.15,-11.6547"/>
<polygon fill="midnightblue" stroke="midnightblue" points="1364.29,-15.1529 1374.22,-11.4607 1364.15,-8.15417 1364.29,-15.1529"/>
</g>
<!-- Node25 -->
<g id="node25" class="node"><title>Node25</title>
<polygon fill="none" stroke="#bfbfbf" points="861,-56.5 861,-75.5 920,-75.5 920,-56.5 861,-56.5"/>
<text text-anchor="middle" x="890.5" y="-63.5" font-family="Helvetica,sans-Serif" font-size="10.00">TObject.h</text>
</g>
<!-- Node24&#45;&gt;Node25 -->
<g id="edge30" class="edge"><title>Node24&#45;&gt;Node25</title>
<path fill="none" stroke="midnightblue" d="M841.819,-112.324C850.393,-104.341 863.312,-92.3128 873.688,-82.6529"/>
<polygon fill="midnightblue" stroke="midnightblue" points="876.078,-85.2098 881.012,-75.8339 871.308,-80.0865 876.078,-85.2098"/>
</g>
<!-- Node26 -->
<g id="node26" class="node"><title>Node26</title>
<polygon fill="none" stroke="#bfbfbf" points="938.5,-56.5 938.5,-75.5 1054.5,-75.5 1054.5,-56.5 938.5,-56.5"/>
<text text-anchor="middle" x="996.5" y="-63.5" font-family="Helvetica,sans-Serif" font-size="10.00">Common/Exceptions.h</text>
</g>
<!-- Node24&#45;&gt;Node26 -->
<g id="edge31" class="edge"><title>Node24&#45;&gt;Node26</title>
<path fill="none" stroke="midnightblue" d="M858.486,-112.444C886.196,-103.32 930.252,-88.8133 961.116,-78.6509"/>
<polygon fill="midnightblue" stroke="midnightblue" points="962.232,-81.9684 970.635,-75.5164 960.042,-75.3196 962.232,-81.9684"/>
</g>
<!-- Node24&#45;&gt;Node27 -->
<g id="edge32" class="edge"><title>Node24&#45;&gt;Node27</title>
<path fill="none" stroke="midnightblue" d="M908.051,-112.853C910.903,-112.562 913.727,-112.277 916.5,-112 1064.15,-97.2549 1237.22,-81.6257 1331.83,-73.2217"/>
<polygon fill="midnightblue" stroke="midnightblue" points="1332.21,-76.7024 1341.86,-72.3322 1331.59,-69.7298 1332.21,-76.7024"/>
</g>
<!-- Node27&#45;&gt;Node13 -->
<g id="edge34" class="edge"><title>Node27&#45;&gt;Node13</title>
<path fill="none" stroke="midnightblue" d="M1341.94,-57.5472C1337.06,-57.0028 1332.2,-56.4799 1327.5,-56 1136.75,-36.5086 906.964,-19.1849 825.204,-13.2121"/>
<polygon fill="midnightblue" stroke="midnightblue" points="825.331,-9.71215 815.103,-12.477 824.823,-16.6937 825.331,-9.71215"/>
</g>
<!-- Node27&#45;&gt;Node23 -->
<g id="edge33" class="edge"><title>Node27&#45;&gt;Node23</title>
<path fill="none" stroke="midnightblue" d="M1402.5,-56.083C1402.5,-49.0059 1402.5,-38.8611 1402.5,-29.9865"/>
<polygon fill="midnightblue" stroke="midnightblue" points="1406,-29.751 1402.5,-19.7511 1399,-29.7511 1406,-29.751"/>
</g>
<!-- Node28&#45;&gt;Node8 -->
<g id="edge38" class="edge"><title>Node28&#45;&gt;Node8</title>
<path fill="none" stroke="midnightblue" d="M696.436,-224.444C677.925,-215.675 648.919,-201.935 627.645,-191.858"/>
<polygon fill="midnightblue" stroke="midnightblue" points="629.015,-188.634 618.479,-187.516 626.018,-194.96 629.015,-188.634"/>
</g>
<!-- Node28&#45;&gt;Node13 -->
<g id="edge37" class="edge"><title>Node28&#45;&gt;Node13</title>
<path fill="none" stroke="midnightblue" d="M702.959,-224.49C693.021,-216.379 679.378,-203.178 673.5,-188 670.29,-179.711 670.634,-176.414 673.5,-168 694.102,-107.518 748.47,-52.1818 776.786,-26.3426"/>
<polygon fill="midnightblue" stroke="midnightblue" points="779.232,-28.8512 784.353,-19.5763 774.565,-23.6332 779.232,-28.8512"/>
</g>
<!-- Node28&#45;&gt;Node15 -->
<g id="edge39" class="edge"><title>Node28&#45;&gt;Node15</title>
<path fill="none" stroke="midnightblue" d="M747.141,-224.444C785.822,-214.304 849.86,-197.517 888.332,-187.432"/>
<polygon fill="midnightblue" stroke="midnightblue" points="889.677,-190.698 898.463,-184.777 887.902,-183.927 889.677,-190.698"/>
</g>
<!-- Node28&#45;&gt;Node24 -->
<g id="edge47" class="edge"><title>Node28&#45;&gt;Node24</title>
<path fill="none" stroke="midnightblue" d="M727.485,-224.383C740.044,-215.796 759.347,-201.916 774.5,-188 790.948,-172.895 807.717,-153.59 818.966,-139.956"/>
<polygon fill="midnightblue" stroke="midnightblue" points="821.909,-141.883 825.501,-131.916 816.478,-137.468 821.909,-141.883"/>
</g>
<!-- Node29 -->
<g id="node29" class="node"><title>Node29</title>
<polygon fill="none" stroke="#bfbfbf" points="683,-168.5 683,-187.5 766,-187.5 766,-168.5 683,-168.5"/>
<text text-anchor="middle" x="724.5" y="-175.5" font-family="Helvetica,sans-Serif" font-size="10.00">unordered_map</text>
</g>
<!-- Node28&#45;&gt;Node29 -->
<g id="edge40" class="edge"><title>Node28&#45;&gt;Node29</title>
<path fill="none" stroke="midnightblue" d="M716.151,-224.083C717.476,-216.927 719.382,-206.635 721.039,-197.691"/>
<polygon fill="midnightblue" stroke="midnightblue" points="724.5,-198.221 722.879,-187.751 717.617,-196.947 724.5,-198.221"/>
</g>
<!-- Node30 -->
<g id="node30" class="node"><title>Node30</title>
<g id="a_node30"><a xlink:href="QualityObject_8h_source.html" target="_top" xlink:title="QualityControl/QualityObject.h">
<polygon fill="none" stroke="black" points="926,-112.5 926,-131.5 1075,-131.5 1075,-112.5 926,-112.5"/>
<text text-anchor="middle" x="1000.5" y="-119.5" font-family="Helvetica,sans-Serif" font-size="10.00">QualityControl/QualityObject.h</text>
</a>
</g>
</g>
<!-- Node28&#45;&gt;Node30 -->
<g id="edge41" class="edge"><title>Node28&#45;&gt;Node30</title>
<path fill="none" stroke="midnightblue" d="M736.942,-224.368C787.482,-204.93 910.346,-157.674 968.708,-135.228"/>
<polygon fill="midnightblue" stroke="midnightblue" points="970.085,-138.448 978.162,-131.591 967.572,-131.915 970.085,-138.448"/>
</g>
<!-- Node30&#45;&gt;Node14 -->
<g id="edge43" class="edge"><title>Node30&#45;&gt;Node14</title>
<path fill="none" stroke="midnightblue" d="M1026.17,-112.444C1055.99,-102.504 1104.97,-86.1771 1135.39,-76.037"/>
<polygon fill="midnightblue" stroke="midnightblue" points="1136.56,-79.3363 1144.94,-72.8536 1134.35,-72.6955 1136.56,-79.3363"/>
</g>
<!-- Node30&#45;&gt;Node25 -->
<g id="edge44" class="edge"><title>Node30&#45;&gt;Node25</title>
<path fill="none" stroke="midnightblue" d="M982.827,-112.324C965.106,-103.625 937.597,-90.1202 917.212,-80.113"/>
<polygon fill="midnightblue" stroke="midnightblue" points="918.649,-76.9195 908.13,-75.6545 915.564,-83.2031 918.649,-76.9195"/>
</g>
<!-- Node30&#45;&gt;Node26 -->
<g id="edge45" class="edge"><title>Node30&#45;&gt;Node26</title>
<path fill="none" stroke="midnightblue" d="M999.839,-112.083C999.315,-105.006 998.564,-94.8611 997.906,-85.9865"/>
<polygon fill="midnightblue" stroke="midnightblue" points="1001.38,-85.4652 997.148,-75.7511 994.397,-85.9823 1001.38,-85.4652"/>
</g>
<!-- Node30&#45;&gt;Node27 -->
<g id="edge46" class="edge"><title>Node30&#45;&gt;Node27</title>
<path fill="none" stroke="midnightblue" d="M1064.2,-112.444C1137.08,-102.653 1256.11,-86.6642 1331.81,-76.4962"/>
<polygon fill="midnightblue" stroke="midnightblue" points="1332.29,-79.9632 1341.73,-75.1629 1331.35,-73.0255 1332.29,-79.9632"/>
</g>
<!-- Node31 -->
<g id="node31" class="node"><title>Node31</title>
<polygon fill="none" stroke="#bfbfbf" points="1072.5,-56.5 1072.5,-75.5 1126.5,-75.5 1126.5,-56.5 1072.5,-56.5"/>
<text text-anchor="middle" x="1099.5" y="-63.5" font-family="Helvetica,sans-Serif" font-size="10.00">iostream</text>
</g>
<!-- Node30&#45;&gt;Node31 -->
<g id="edge42" class="edge"><title>Node30&#45;&gt;Node31</title>
<path fill="none" stroke="midnightblue" d="M1016.41,-112.324C1032.14,-103.743 1056.44,-90.486 1074.71,-80.5224"/>
<polygon fill="midnightblue" stroke="midnightblue" points="1076.53,-83.5157 1083.63,-75.6545 1073.18,-77.3704 1076.53,-83.5157"/>
</g>
<!-- Node32&#45;&gt;Node3 -->
<g id="edge60" class="edge"><title>Node32&#45;&gt;Node3</title>
<path fill="none" stroke="midnightblue" d="M1377.98,-224.444C1313.33,-214.826 1208.47,-199.228 1140,-189.041"/>
<polygon fill="midnightblue" stroke="midnightblue" points="1140.16,-185.526 1129.75,-187.516 1139.13,-192.45 1140.16,-185.526"/>
</g>
<!-- Node32&#45;&gt;Node8 -->
<g id="edge54" class="edge"><title>Node32&#45;&gt;Node8</title>
<path fill="none" stroke="midnightblue" d="M1375.77,-229.967C1221.01,-222.027 809.6,-200.396 673.5,-188 661.622,-186.918 648.693,-185.428 637.062,-183.971"/>
<polygon fill="midnightblue" stroke="midnightblue" points="637.176,-180.457 626.812,-182.655 636.285,-187.4 637.176,-180.457"/>
</g>
<!-- Node32&#45;&gt;Node14 -->
<g id="edge52" class="edge"><title>Node32&#45;&gt;Node14</title>
<path fill="none" stroke="midnightblue" d="M1414.58,-224.443C1396.1,-216.393 1368.83,-203.309 1347.5,-188 1308.18,-159.776 1309.85,-138.738 1269.5,-112 1244.44,-95.3952 1212.26,-82.8635 1189.76,-75.2954"/>
<polygon fill="midnightblue" stroke="midnightblue" points="1190.76,-71.9392 1180.17,-72.1707 1188.59,-78.5952 1190.76,-71.9392"/>
</g>
<!-- Node32&#45;&gt;Node15 -->
<g id="edge53" class="edge"><title>Node32&#45;&gt;Node15</title>
<path fill="none" stroke="midnightblue" d="M1375.79,-227.587C1290.01,-219.675 1126.98,-204.131 988.5,-188 976.727,-186.629 963.83,-184.963 952.462,-183.44"/>
<polygon fill="midnightblue" stroke="midnightblue" points="952.908,-179.968 942.528,-182.093 951.967,-186.905 952.908,-179.968"/>
</g>
<!-- Node32&#45;&gt;Node21 -->
<g id="edge55" class="edge"><title>Node32&#45;&gt;Node21</title>
<path fill="none" stroke="midnightblue" d="M1469.88,-224.444C1507.42,-215.102 1567.63,-200.119 1608.57,-189.933"/>
<polygon fill="midnightblue" stroke="midnightblue" points="1609.42,-193.328 1618.28,-187.516 1607.73,-186.535 1609.42,-193.328"/>
</g>
<!-- Node32&#45;&gt;Node22 -->
<g id="edge59" class="edge"><title>Node32&#45;&gt;Node22</title>
<path fill="none" stroke="midnightblue" d="M1435.5,-224.083C1435.5,-217.006 1435.5,-206.861 1435.5,-197.986"/>
<polygon fill="midnightblue" stroke="midnightblue" points="1439,-197.751 1435.5,-187.751 1432,-197.751 1439,-197.751"/>
</g>
<!-- Node32&#45;&gt;Node24 -->
<g id="edge58" class="edge"><title>Node32&#45;&gt;Node24</title>
<path fill="none" stroke="midnightblue" d="M1375.96,-224.695C1314.17,-215.624 1221.97,-200.695 1188.5,-188 1172.46,-181.918 1171.66,-173.746 1155.5,-168 1133.28,-160.1 1003.22,-143.428 915.064,-132.744"/>
<polygon fill="midnightblue" stroke="midnightblue" points="915.414,-129.261 905.067,-131.536 914.575,-136.211 915.414,-129.261"/>
</g>
<!-- Node32&#45;&gt;Node27 -->
<g id="edge56" class="edge"><title>Node32&#45;&gt;Node27</title>
<path fill="none" stroke="midnightblue" d="M1467.01,-224.438C1496.89,-214.481 1535.43,-195.777 1522.5,-168 1503.42,-127.011 1458.62,-96.7057 1429.48,-80.4677"/>
<polygon fill="midnightblue" stroke="midnightblue" points="1431.08,-77.3573 1420.62,-75.6941 1427.76,-83.5194 1431.08,-77.3573"/>
</g>
<!-- Node32&#45;&gt;Node30 -->
<g id="edge57" class="edge"><title>Node32&#45;&gt;Node30</title>
<path fill="none" stroke="midnightblue" d="M1381.8,-224.462C1340.15,-217.052 1281.32,-204.853 1231.5,-188 1211.53,-181.245 1208.4,-174.932 1188.5,-168 1145.62,-153.067 1095.56,-141.35 1057.89,-133.62"/>
<polygon fill="midnightblue" stroke="midnightblue" points="1058.1,-130.093 1047.6,-131.547 1056.71,-136.955 1058.1,-130.093"/>
</g>
<!-- Node33 -->
<g id="node33" class="node"><title>Node33</title>
<polygon fill="none" stroke="#bfbfbf" points="1241,-168.5 1241,-187.5 1300,-187.5 1300,-168.5 1241,-168.5"/>
<text text-anchor="middle" x="1270.5" y="-175.5" font-family="Helvetica,sans-Serif" font-size="10.00">functional</text>
</g>
<!-- Node32&#45;&gt;Node33 -->
<g id="edge51" class="edge"><title>Node32&#45;&gt;Node33</title>
<path fill="none" stroke="midnightblue" d="M1409.36,-224.444C1381.48,-215.32 1337.15,-200.813 1306.1,-190.651"/>
<polygon fill="midnightblue" stroke="midnightblue" points="1307.12,-187.3 1296.52,-187.516 1304.94,-193.953 1307.12,-187.3"/>
</g>
<!-- Node34&#45;&gt;Node5 -->
<g id="edge64" class="edge"><title>Node34&#45;&gt;Node5</title>
<path fill="none" stroke="midnightblue" d="M1517.89,-282.131C1522.49,-281.392 1527.06,-280.676 1531.5,-280 1619.22,-266.648 1720.15,-253.416 1788.31,-244.793"/>
<polygon fill="midnightblue" stroke="midnightblue" points="1789.06,-248.226 1798.54,-243.502 1788.18,-241.281 1789.06,-248.226"/>
</g>
<!-- Node34&#45;&gt;Node13 -->
<g id="edge62" class="edge"><title>Node34&#45;&gt;Node13</title>
<path fill="none" stroke="midnightblue" d="M1509.79,-280.462C1605.3,-257.702 1772.27,-210.958 1743.5,-168 1638.34,-10.9735 977.318,-8.8858 825.538,-10.5104"/>
<polygon fill="midnightblue" stroke="midnightblue" points="825.073,-7.01568 815.116,-10.637 825.158,-14.0152 825.073,-7.01568"/>
</g>
<!-- Node34&#45;&gt;Node21 -->
<g id="edge63" class="edge"><title>Node34&#45;&gt;Node21</title>
<path fill="none" stroke="midnightblue" d="M1517.68,-280.728C1545.53,-273.023 1576.68,-261.354 1601.5,-244 1619.24,-231.593 1633.79,-211.221 1642.75,-196.589"/>
<polygon fill="midnightblue" stroke="midnightblue" points="1645.77,-198.343 1647.8,-187.944 1639.73,-194.811 1645.77,-198.343"/>
</g>
<!-- Node34&#45;&gt;Node32 -->
<g id="edge65" class="edge"><title>Node34&#45;&gt;Node32</title>
<path fill="none" stroke="midnightblue" d="M1443.89,-280.399C1442.41,-272.377 1440.53,-262.233 1438.93,-253.569"/>
<polygon fill="midnightblue" stroke="midnightblue" points="1442.36,-252.855 1437.1,-243.658 1435.48,-254.127 1442.36,-252.855"/>
</g>
<!-- Node35&#45;&gt;Node13 -->
<g id="edge67" class="edge"><title>Node35&#45;&gt;Node13</title>
<path fill="none" stroke="midnightblue" d="M311.217,-285.976C269.805,-278.659 215.049,-265.745 170.5,-244 128.394,-223.447 87.5,-225.855 87.5,-179 87.5,-179 87.5,-179 87.5,-121 87.5,-51.5325 627.31,-19.4786 763.561,-12.4945"/>
<polygon fill="midnightblue" stroke="midnightblue" points="763.913,-15.9813 773.724,-11.982 763.56,-8.99017 763.913,-15.9813"/>
</g>
<!-- Node35&#45;&gt;Node15 -->
<g id="edge68" class="edge"><title>Node35&#45;&gt;Node15</title>
<path fill="none" stroke="midnightblue" d="M445.103,-295.044C532.926,-293.723 685.301,-284.924 808.5,-244 843.597,-232.342 879.834,-208.827 901.255,-193.507"/>
<polygon fill="midnightblue" stroke="midnightblue" points="903.468,-196.225 909.481,-187.502 899.341,-190.571 903.468,-196.225"/>
</g>
<!-- Node35&#45;&gt;Node17 -->
<g id="edge69" class="edge"><title>Node35&#45;&gt;Node17</title>
<path fill="none" stroke="midnightblue" d="M373.5,-285.975C373.5,-277.58 373.5,-264.481 373.5,-253.663"/>
<polygon fill="midnightblue" stroke="midnightblue" points="377,-253.509 373.5,-243.509 370,-253.509 377,-253.509"/>
</g>
<!-- Node35&#45;&gt;Node18 -->
<g id="edge70" class="edge"><title>Node35&#45;&gt;Node18</title>
<path fill="none" stroke="midnightblue" d="M389.69,-285.975C408.402,-276.122 439.423,-259.788 461.299,-248.27"/>
<polygon fill="midnightblue" stroke="midnightblue" points="463.122,-251.265 470.34,-243.509 459.861,-245.071 463.122,-251.265"/>
</g>
<!-- Node35&#45;&gt;Node19 -->
<g id="edge71" class="edge"><title>Node35&#45;&gt;Node19</title>
<path fill="none" stroke="midnightblue" d="M355.877,-285.975C335.326,-276.034 301.136,-259.495 277.293,-247.961"/>
<polygon fill="midnightblue" stroke="midnightblue" points="278.616,-244.713 268.09,-243.509 275.568,-251.015 278.616,-244.713"/>
</g>
<!-- Node35&#45;&gt;Node24 -->
<g id="edge72" class="edge"><title>Node35&#45;&gt;Node24</title>
<path fill="none" stroke="midnightblue" d="M301.985,-290.729C233.24,-284.474 144.903,-267.89 182.5,-224 254.154,-140.353 586.851,-125.417 746.532,-123.137"/>
<polygon fill="midnightblue" stroke="midnightblue" points="746.841,-126.634 756.795,-123.005 746.75,-119.634 746.841,-126.634"/>
</g>
</g>
</svg>
        <g id="navigator" transform="translate(0 0)" fill="#404254">
                <rect fill="#f2f5e9" fill-opacity="0.5" stroke="#606060" stroke-width=".5" x="0" y="0" width="60" height="60"/>
                <use id="zoomplus" xlink:href="#zoomPlus" x="17" y="9" onmousedown="handleZoom(evt,'in')"/>
                <use id="zoomminus" xlink:href="#zoomMin" x="42" y="9" onmousedown="handleZoom(evt,'out')"/>
                <use id="reset" xlink:href="#resetDef" x="30" y="36" onmousedown="handleReset()"/>
                <g id="arrowUp" xlink:href="#dirArrow" transform="translate(30 24)" onmousedown="handlePan(0,-1)">
                  <use xlink:href="#rim" fill="#404040">
                        <set attributeName="fill" to="#808080" begin="arrowUp.mouseover" end="arrowUp.mouseout"/>
                  </use>
                  <path fill="none" stroke="white" stroke-width="1.5" d="M0,-3.0v7 M-2.5,-0.5L0,-3.0L2.5,-0.5"/>
                </g>
                <g id="arrowRight" xlink:href="#dirArrow" transform="rotate(90) translate(36 -43)" onmousedown="handlePan(1,0)">
                  <use xlink:href="#rim" fill="#404040">
                        <set attributeName="fill" to="#808080" begin="arrowRight.mouseover" end="arrowRight.mouseout"/>
                  </use>
                  <path fill="none" stroke="white" stroke-width="1.5" d="M0,-3.0v7 M-2.5,-0.5L0,-3.0L2.5,-0.5"/>
                </g>
                <g id="arrowDown" xlink:href="#dirArrow" transform="rotate(180) translate(-30 -48)" onmousedown="handlePan(0,1)">
                  <use xlink:href="#rim" fill="#404040">
                        <set attributeName="fill" to="#808080" begin="arrowDown.mouseover" end="arrowDown.mouseout"/>
                  </use>
                  <path fill="none" stroke="white" stroke-width="1.5" d="M0,-3.0v7 M-2.5,-0.5L0,-3.0L2.5,-0.5"/>
                </g>
                <g id="arrowLeft" xlink:href="#dirArrow" transform="rotate(270) translate(-36 17)" onmousedown="handlePan(-1,0)">
                  <use xlink:href="#rim" fill="#404040">
                        <set attributeName="fill" to="#808080" begin="arrowLeft.mouseover" end="arrowLeft.mouseout"/>
                  </use>
                  <path fill="none" stroke="white" stroke-width="1.5" d="M0,-3.0v7 M-2.5,-0.5L0,-3.0L2.5,-0.5"/>
                </g>
        </g>
        <svg viewBox="0 0 15 15" width="100%" height="30px" preserveAspectRatio="xMaxYMin meet">
         <g id="arrow_out" transform="scale(0.3 0.3)">
          <a xlink:href="runMergerTest_8cxx__incl_org.svg" target="_base">
           <rect id="button" ry="5" rx="5" y="6" x="6" height="38" width="38"
                fill="#f2f5e9" fill-opacity="0.5" stroke="#606060" stroke-width="1.0"/>
           <path id="arrow"
             d="M 11.500037,31.436501 C 11.940474,20.09759 22.043105,11.32322 32.158766,21.979434 L 37.068811,17.246167 C 37.068811,17.246167 37.088388,32 37.088388,32 L 22.160133,31.978069 C 22.160133,31.978069 26.997745,27.140456 26.997745,27.140456 C 18.528582,18.264221 13.291696,25.230495 11.500037,31.436501 z"
             style="fill:#404040;"/>
          </a>
         </g>
        </svg>
</svg>
