<?xml version="1.0" encoding="UTF-8" standalone="no"?>
<!DOCTYPE svg PUBLIC "-//W3C//DTD SVG 1.1//EN"
 "http://www.w3.org/Graphics/SVG/1.1/DTD/svg11.dtd">
<!-- Generated by graphviz version 2.38.0 (20140413.2041)
 -->
<!-- Title: Framework/include/QualityControl/runnerUtils.h Pages: 1 -->
<svg width="838pt" height="106pt"
 viewBox="0.00 0.00 837.50 106.00" xmlns="http://www.w3.org/2000/svg" xmlns:xlink="http://www.w3.org/1999/xlink">
<g id="graph0" class="graph" transform="scale(1 1) rotate(0) translate(4 102)">
<title>Framework/include/QualityControl/runnerUtils.h</title>
<!-- Node1 -->
<g id="node1" class="node"><title>Node1</title>
<polygon fill="#bfbfbf" stroke="black" points="348.5,-67.5 348.5,-97.5 481.5,-97.5 481.5,-67.5 348.5,-67.5"/>
<text text-anchor="start" x="356.5" y="-85.5" font-family="Helvetica,sans-Serif" font-size="10.00">Framework/include/Quality</text>
<text text-anchor="middle" x="415" y="-74.5" font-family="Helvetica,sans-Serif" font-size="10.00">Control/runnerUtils.h</text>
</g>
<!-- Node2 -->
<g id="node2" class="node"><title>Node2</title>
<g id="a_node2"><a xlink:href="runBasic_8cxx.html" target="_top" xlink:title="This is an executable showing QC Task&#39;s usage in Data Processing Layer. ">
<polygon fill="none" stroke="black" points="0,-6 0,-25 142,-25 142,-6 0,-6"/>
<text text-anchor="middle" x="71" y="-13" font-family="Helvetica,sans-Serif" font-size="10.00">Framework/src/runBasic.cxx</text>
</a>
</g>
</g>
<!-- Node1&#45;&gt;Node2 -->
<g id="edge1" class="edge"><title>Node1&#45;&gt;Node2</title>
<path fill="none" stroke="midnightblue" d="M338.419,-67.0298C270.187,-54.1371 172.647,-35.7065 116.169,-25.0349"/>
<polygon fill="midnightblue" stroke="midnightblue" points="337.789,-70.4727 348.265,-68.8903 339.089,-63.5944 337.789,-70.4727"/>
</g>
<!-- Node3 -->
<g id="node3" class="node"><title>Node3</title>
<g id="a_node3"><a xlink:href="runTPCQCPID_8cxx.html" target="_top" xlink:title="run TPC PID QC task, reading tracks from file for the moment ">
<polygon fill="none" stroke="black" points="160,-6 160,-25 330,-25 330,-6 160,-6"/>
<text text-anchor="middle" x="245" y="-13" font-family="Helvetica,sans-Serif" font-size="10.00">Framework/src/runTPCQCPID.cxx</text>
</a>
</g>
</g>
<!-- Node1&#45;&gt;Node3 -->
<g id="edge2" class="edge"><title>Node1&#45;&gt;Node3</title>
<path fill="none" stroke="midnightblue" d="M368.665,-63.7838C335.703,-51.1807 292.883,-34.8082 267.249,-25.007"/>
<polygon fill="midnightblue" stroke="midnightblue" points="367.522,-67.0937 378.113,-67.396 370.022,-60.5553 367.522,-67.0937"/>
</g>
<!-- Node4 -->
<g id="node4" class="node"><title>Node4</title>
<g id="a_node4"><a xlink:href="testCheckWorkflow_8cxx.html" target="_top" xlink:title="Framework/test/testCheck\lWorkflow.cxx">
<polygon fill="none" stroke="black" points="348.5,-0.5 348.5,-30.5 481.5,-30.5 481.5,-0.5 348.5,-0.5"/>
<text text-anchor="start" x="356.5" y="-18.5" font-family="Helvetica,sans-Serif" font-size="10.00">Framework/test/testCheck</text>
<text text-anchor="middle" x="415" y="-7.5" font-family="Helvetica,sans-Serif" font-size="10.00">Workflow.cxx</text>
</a>
</g>
</g>
<!-- Node1&#45;&gt;Node4 -->
<g id="edge3" class="edge"><title>Node1&#45;&gt;Node4</title>
<path fill="none" stroke="midnightblue" d="M415,-57.1081C415,-48.1539 415,-38.3227 415,-30.5765"/>
<polygon fill="midnightblue" stroke="midnightblue" points="411.5,-57.3959 415,-67.396 418.5,-57.396 411.5,-57.3959"/>
</g>
<!-- Node5 -->
<g id="node5" class="node"><title>Node5</title>
<g id="a_node5"><a xlink:href="testWorkflow_8cxx.html" target="_top" xlink:title="Framework/test/testWorkflow.cxx">
<polygon fill="none" stroke="black" points="500,-6 500,-25 664,-25 664,-6 500,-6"/>
<text text-anchor="middle" x="582" y="-13" font-family="Helvetica,sans-Serif" font-size="10.00">Framework/test/testWorkflow.cxx</text>
</a>
</g>
</g>
<!-- Node1&#45;&gt;Node5 -->
<g id="edge4" class="edge"><title>Node1&#45;&gt;Node5</title>
<path fill="none" stroke="midnightblue" d="M460.934,-63.6214C493.258,-51.0403 535.07,-34.7661 560.144,-25.007"/>
<polygon fill="midnightblue" stroke="midnightblue" points="459.286,-60.5071 451.237,-67.396 461.825,-67.0304 459.286,-60.5071"/>
</g>
<!-- Node6 -->
<g id="node6" class="node"><title>Node6</title>
<g id="a_node6"><a xlink:href="runTOF_8cxx.html" target="_top" xlink:title="This is an executable showing QC Task&#39;s usage in Data Processing Layer. ">
<polygon fill="none" stroke="black" points="682.5,-6 682.5,-25 829.5,-25 829.5,-6 682.5,-6"/>
<text text-anchor="middle" x="756" y="-13" font-family="Helvetica,sans-Serif" font-size="10.00">Modules/TOF/src/runTOF.cxx</text>
</a>
</g>
</g>
<!-- Node1&#45;&gt;Node6 -->
<g id="edge5" class="edge"><title>Node1&#45;&gt;Node6</title>
<path fill="none" stroke="midnightblue" d="M491.74,-66.8722C559.381,-53.9788 655.595,-35.6388 711.335,-25.0138"/>
<polygon fill="midnightblue" stroke="midnightblue" points="490.725,-63.5024 481.558,-68.813 492.036,-70.3786 490.725,-63.5024"/>
</g>
</g>
</svg>
