<?xml version="1.0" encoding="UTF-8" standalone="no"?>
<!DOCTYPE svg PUBLIC "-//W3C//DTD SVG 1.1//EN"
 "http://www.w3.org/Graphics/SVG/1.1/DTD/svg11.dtd">
<!-- Generated by graphviz version 2.38.0 (20140413.2041)
 -->
<!-- Title: Framework/src/runQC.cxx Pages: 1 -->
<svg width="765pt" height="151pt"
 viewBox="0.00 0.00 765.00 151.00" xmlns="http://www.w3.org/2000/svg" xmlns:xlink="http://www.w3.org/1999/xlink">
<g id="graph0" class="graph" transform="scale(1 1) rotate(0) translate(4 147)">
<title>Framework/src/runQC.cxx</title>
<!-- Node1 -->
<g id="node1" class="node"><title>Node1</title>
<polygon fill="#bfbfbf" stroke="black" points="323,-123.5 323,-142.5 455,-142.5 455,-123.5 323,-123.5"/>
<text text-anchor="middle" x="389" y="-130.5" font-family="Helvetica,sans-Serif" font-size="10.00">Framework/src/runQC.cxx</text>
</g>
<!-- Node2 -->
<g id="node2" class="node"><title>Node2</title>
<polygon fill="none" stroke="#bfbfbf" points="0,-62 0,-81 138,-81 138,-62 0,-62"/>
<text text-anchor="middle" x="69" y="-69" font-family="Helvetica,sans-Serif" font-size="10.00">Framework/DataSampling.h</text>
</g>
<!-- Node1&#45;&gt;Node2 -->
<g id="edge1" class="edge"><title>Node1&#45;&gt;Node2</title>
<path fill="none" stroke="midnightblue" d="M343.152,-123.475C285.528,-112.761 186.685,-94.3821 124.75,-82.8661"/>
<polygon fill="midnightblue" stroke="midnightblue" points="125.234,-79.3962 114.763,-81.0091 123.955,-86.2782 125.234,-79.3962"/>
</g>
<!-- Node3 -->
<g id="node3" class="node"><title>Node3</title>
<g id="a_node3"><a xlink:href="InfrastructureGenerator_8h.html" target="_top" xlink:title="QualityControl/Infrastructure\lGenerator.h">
<polygon fill="none" stroke="black" points="156,-56.5 156,-86.5 296,-86.5 296,-56.5 156,-56.5"/>
<text text-anchor="start" x="164" y="-74.5" font-family="Helvetica,sans-Serif" font-size="10.00">QualityControl/Infrastructure</text>
<text text-anchor="middle" x="226" y="-63.5" font-family="Helvetica,sans-Serif" font-size="10.00">Generator.h</text>
</a>
</g>
</g>
<!-- Node1&#45;&gt;Node3 -->
<g id="edge2" class="edge"><title>Node1&#45;&gt;Node3</title>
<path fill="none" stroke="midnightblue" d="M365.646,-123.475C341.816,-114.776 304.148,-101.026 273.936,-89.9981"/>
<polygon fill="midnightblue" stroke="midnightblue" points="275.01,-86.6642 264.416,-86.523 272.609,-93.2398 275.01,-86.6642"/>
</g>
<!-- Node7 -->
<g id="node7" class="node"><title>Node7</title>
<g id="a_node7"><a xlink:href="QcInfoLogger_8h.html" target="_top" xlink:title="QualityControl/QcInfoLogger.h">
<polygon fill="none" stroke="black" points="314.5,-62 314.5,-81 463.5,-81 463.5,-62 314.5,-62"/>
<text text-anchor="middle" x="389" y="-69" font-family="Helvetica,sans-Serif" font-size="10.00">QualityControl/QcInfoLogger.h</text>
</a>
</g>
</g>
<!-- Node1&#45;&gt;Node7 -->
<g id="edge6" class="edge"><title>Node1&#45;&gt;Node7</title>
<path fill="none" stroke="midnightblue" d="M389,-123.475C389,-115.08 389,-101.981 389,-91.1631"/>
<polygon fill="midnightblue" stroke="midnightblue" points="392.5,-91.0091 389,-81.0091 385.5,-91.0091 392.5,-91.0091"/>
</g>
<!-- Node9 -->
<g id="node9" class="node"><title>Node9</title>
<polygon fill="none" stroke="#bfbfbf" points="481.5,-62 481.5,-81 578.5,-81 578.5,-62 481.5,-62"/>
<text text-anchor="middle" x="530" y="-69" font-family="Helvetica,sans-Serif" font-size="10.00">fairlogger/Logger.h</text>
</g>
<!-- Node1&#45;&gt;Node9 -->
<g id="edge8" class="edge"><title>Node1&#45;&gt;Node9</title>
<path fill="none" stroke="midnightblue" d="M409.202,-123.475C433.074,-113.401 473.002,-96.5525 500.373,-85.0023"/>
<polygon fill="midnightblue" stroke="midnightblue" points="501.983,-88.1217 509.836,-81.0091 499.262,-81.6724 501.983,-88.1217"/>
</g>
<!-- Node10 -->
<g id="node10" class="node"><title>Node10</title>
<polygon fill="none" stroke="#bfbfbf" points="597,-62 597,-81 757,-81 757,-62 597,-62"/>
<text text-anchor="middle" x="677" y="-69" font-family="Helvetica,sans-Serif" font-size="10.00">Framework/runDataProcessing.h</text>
</g>
<!-- Node1&#45;&gt;Node10 -->
<g id="edge9" class="edge"><title>Node1&#45;&gt;Node10</title>
<path fill="none" stroke="midnightblue" d="M430.263,-123.475C481.804,-112.827 569.984,-94.6092 625.787,-83.0806"/>
<polygon fill="midnightblue" stroke="midnightblue" points="626.728,-86.46 635.813,-81.0091 625.312,-79.6048 626.728,-86.46"/>
</g>
<!-- Node4 -->
<g id="node4" class="node"><title>Node4</title>
<polygon fill="none" stroke="#bfbfbf" points="93,-0.5 93,-19.5 137,-19.5 137,-0.5 93,-0.5"/>
<text text-anchor="middle" x="115" y="-7.5" font-family="Helvetica,sans-Serif" font-size="10.00">vector</text>
</g>
<!-- Node3&#45;&gt;Node4 -->
<g id="edge3" class="edge"><title>Node3&#45;&gt;Node4</title>
<path fill="none" stroke="midnightblue" d="M199.695,-56.3993C181.736,-46.7728 158.076,-34.0902 140.329,-24.5772"/>
<polygon fill="midnightblue" stroke="midnightblue" points="141.619,-21.2975 131.151,-19.6578 138.312,-27.467 141.619,-21.2975"/>
</g>
<!-- Node5 -->
<g id="node5" class="node"><title>Node5</title>
<polygon fill="none" stroke="#bfbfbf" points="155.5,-0.5 155.5,-19.5 196.5,-19.5 196.5,-0.5 155.5,-0.5"/>
<text text-anchor="middle" x="176" y="-7.5" font-family="Helvetica,sans-Serif" font-size="10.00">string</text>
</g>
<!-- Node3&#45;&gt;Node5 -->
<g id="edge4" class="edge"><title>Node3&#45;&gt;Node5</title>
<path fill="none" stroke="midnightblue" d="M214.151,-56.3993C206.885,-47.7533 197.548,-36.642 189.929,-27.576"/>
<polygon fill="midnightblue" stroke="midnightblue" points="192.388,-25.0619 183.275,-19.6578 187.029,-29.5653 192.388,-25.0619"/>
</g>
<!-- Node6 -->
<g id="node6" class="node"><title>Node6</title>
<polygon fill="none" stroke="#bfbfbf" points="215,-0.5 215,-19.5 355,-19.5 355,-0.5 215,-0.5"/>
<text text-anchor="middle" x="285" y="-7.5" font-family="Helvetica,sans-Serif" font-size="10.00">Framework/WorkflowSpec.h</text>
</g>
<!-- Node3&#45;&gt;Node6 -->
<g id="edge5" class="edge"><title>Node3&#45;&gt;Node6</title>
<path fill="none" stroke="midnightblue" d="M239.982,-56.3993C248.732,-47.575 260.029,-36.1827 269.117,-27.0178"/>
<polygon fill="midnightblue" stroke="midnightblue" points="271.859,-29.2231 276.415,-19.6578 266.888,-24.2942 271.859,-29.2231"/>
</g>
<!-- Node8 -->
<g id="node8" class="node"><title>Node8</title>
<polygon fill="none" stroke="#bfbfbf" points="373,-0.5 373,-19.5 503,-19.5 503,-0.5 373,-0.5"/>
<text text-anchor="middle" x="438" y="-7.5" font-family="Helvetica,sans-Serif" font-size="10.00">InfoLogger/InfoLogger.hxx</text>
</g>
<!-- Node7&#45;&gt;Node8 -->
<g id="edge7" class="edge"><title>Node7&#45;&gt;Node8</title>
<path fill="none" stroke="midnightblue" d="M396.021,-61.9751C403.443,-52.9617 415.333,-38.5246 424.567,-27.3118"/>
<polygon fill="midnightblue" stroke="midnightblue" points="427.337,-29.4534 430.993,-19.5091 421.934,-25.0034 427.337,-29.4534"/>
</g>
</g>
</svg>
