<?xml version="1.0" encoding="UTF-8" standalone="no"?>
<!DOCTYPE svg PUBLIC "-//W3C//DTD SVG 1.1//EN"
 "http://www.w3.org/Graphics/SVG/1.1/DTD/svg11.dtd">
<!-- Generated by graphviz version 2.38.0 (20140413.2041)
 -->
<!-- Title: Framework/src/runRepositoryBenchmark.cxx Pages: 1 -->
<!--zoomable 319 -->
<svg id="main" version="1.1" xmlns="http://www.w3.org/2000/svg" xmlns:xlink="http://www.w3.org/1999/xlink" xml:space="preserve" onload="init(evt)">
<style type="text/css"><![CDATA[
.edge:hover path { stroke: red; }
.edge:hover polygon { stroke: red; fill: red; }
]]></style>
<script type="text/javascript"><![CDATA[
var edges = document.getElementsByTagName('g');
if (edges && edges.length) {
  for (var i=0;i<edges.length;i++) {
    if (edges[i].id.substr(0,4)=='edge') {
      edges[i].setAttribute('class','edge');
    }
  }
}
]]></script>
        <defs>
                <circle id="rim" cx="0" cy="0" r="7"/>
                <circle id="rim2" cx="0" cy="0" r="3.5"/>
                <g id="zoomPlus">
                        <use xlink:href="#rim" fill="#404040">
                                <set attributeName="fill" to="#808080" begin="zoomplus.mouseover" end="zoomplus.mouseout"/>
                        </use>
                        <path d="M-4,0h8M0,-4v8" fill="none" stroke="white" stroke-width="1.5" pointer-events="none"/>
                </g>
                <g id="zoomMin">
                        <use xlink:href="#rim" fill="#404040">
                                <set attributeName="fill" to="#808080" begin="zoomminus.mouseover" end="zoomminus.mouseout"/>
                        </use>
                        <path d="M-4,0h8" fill="none" stroke="white" stroke-width="1.5" pointer-events="none"/>
                </g>
                <g id="dirArrow">
                        <path fill="none" stroke="white" stroke-width="1.5" d="M0,-3.0v7 M-2.5,-0.5L0,-3.0L2.5,-0.5"/>
                </g>
               <g id="resetDef">
                       <use xlink:href="#rim2" fill="#404040">
                               <set attributeName="fill" to="#808080" begin="reset.mouseover" end="reset.mouseout"/>
                       </use>
               </g>
        </defs>

<script type="text/javascript">
var viewWidth = 950;
var viewHeight = 319;
var sectionId = 'dynsection-0';
</script>
<script xlink:href="svgpan.js"/>
<svg id="graph" class="graph">
<g id="viewport">
<title>Framework/src/runRepositoryBenchmark.cxx</title>
<!-- Node1 -->
<g id="node1" class="node"><title>Node1</title>
<polygon fill="#bfbfbf" stroke="black" points="588.5,-280.5 588.5,-310.5 734.5,-310.5 734.5,-280.5 588.5,-280.5"/>
<text text-anchor="start" x="596.5" y="-298.5" font-family="Helvetica,sans-Serif" font-size="10.00">Framework/src/runRepository</text>
<text text-anchor="middle" x="661.5" y="-287.5" font-family="Helvetica,sans-Serif" font-size="10.00">Benchmark.cxx</text>
</g>
<!-- Node2 -->
<g id="node2" class="node"><title>Node2</title>
<g id="a_node2"><a xlink:href="RepositoryBenchmark_8h.html" target="_top" xlink:title="RepositoryBenchmark.h">
<polygon fill="none" stroke="black" points="528.5,-224.5 528.5,-243.5 650.5,-243.5 650.5,-224.5 528.5,-224.5"/>
<text text-anchor="middle" x="589.5" y="-231.5" font-family="Helvetica,sans-Serif" font-size="10.00">RepositoryBenchmark.h</text>
</a>
</g>
</g>
<!-- Node1&#45;&gt;Node2 -->
<g id="edge1" class="edge"><title>Node1&#45;&gt;Node2</title>
<path fill="none" stroke="midnightblue" d="M644.437,-280.399C633.435,-271.308 619.135,-259.49 607.882,-250.191"/>
<polygon fill="midnightblue" stroke="midnightblue" points="609.915,-247.33 599.977,-243.658 605.456,-252.726 609.915,-247.33"/>
</g>
<!-- Node21 -->
<g id="node21" class="node"><title>Node21</title>
<polygon fill="none" stroke="#bfbfbf" points="669,-224.5 669,-243.5 800,-243.5 800,-224.5 669,-224.5"/>
<text text-anchor="middle" x="734.5" y="-231.5" font-family="Helvetica,sans-Serif" font-size="10.00">fairmq/runFairMQDevice.h</text>
</g>
<!-- Node1&#45;&gt;Node21 -->
<g id="edge28" class="edge"><title>Node1&#45;&gt;Node21</title>
<path fill="none" stroke="midnightblue" d="M678.8,-280.399C689.955,-271.308 704.454,-259.49 715.862,-250.191"/>
<polygon fill="midnightblue" stroke="midnightblue" points="718.338,-252.689 723.878,-243.658 713.915,-247.263 718.338,-252.689"/>
</g>
<!-- Node3 -->
<g id="node3" class="node"><title>Node3</title>
<g id="a_node3"><a xlink:href="DatabaseInterface_8h.html" target="_top" xlink:title="QualityControl/DatabaseInterface.h">
<polygon fill="none" stroke="black" points="243.5,-168.5 243.5,-187.5 413.5,-187.5 413.5,-168.5 243.5,-168.5"/>
<text text-anchor="middle" x="328.5" y="-175.5" font-family="Helvetica,sans-Serif" font-size="10.00">QualityControl/DatabaseInterface.h</text>
</a>
</g>
</g>
<!-- Node2&#45;&gt;Node3 -->
<g id="edge2" class="edge"><title>Node2&#45;&gt;Node3</title>
<path fill="none" stroke="midnightblue" d="M548.144,-224.444C502.422,-214.984 428.736,-199.738 379.478,-189.547"/>
<polygon fill="midnightblue" stroke="midnightblue" points="380.164,-186.115 369.663,-187.516 378.746,-192.97 380.164,-186.115"/>
</g>
<!-- Node4 -->
<g id="node4" class="node"><title>Node4</title>
<polygon fill="none" stroke="#bfbfbf" points="0,-0.5 0,-19.5 41,-19.5 41,-0.5 0,-0.5"/>
<text text-anchor="middle" x="20.5" y="-7.5" font-family="Helvetica,sans-Serif" font-size="10.00">string</text>
</g>
<!-- Node2&#45;&gt;Node4 -->
<g id="edge27" class="edge"><title>Node2&#45;&gt;Node4</title>
<path fill="none" stroke="midnightblue" d="M528.191,-229.175C402.629,-220.149 122.089,-193.481 51.5,-132 22.0246,-106.328 18.688,-56.8204 19.2942,-29.7699"/>
<polygon fill="midnightblue" stroke="midnightblue" points="22.7948,-29.8287 19.7307,-19.6866 15.8014,-29.5259 22.7948,-29.8287"/>
</g>
<!-- Node16 -->
<g id="node16" class="node"><title>Node16</title>
<polygon fill="none" stroke="#bfbfbf" points="431.5,-168.5 431.5,-187.5 549.5,-187.5 549.5,-168.5 431.5,-168.5"/>
<text text-anchor="middle" x="490.5" y="-175.5" font-family="Helvetica,sans-Serif" font-size="10.00">fairmq/FairMQDevice.h</text>
</g>
<!-- Node2&#45;&gt;Node16 -->
<g id="edge22" class="edge"><title>Node2&#45;&gt;Node16</title>
<path fill="none" stroke="midnightblue" d="M573.594,-224.324C557.862,-215.743 533.558,-202.486 515.291,-192.522"/>
<polygon fill="midnightblue" stroke="midnightblue" points="516.822,-189.37 506.367,-187.655 513.47,-195.516 516.822,-189.37"/>
</g>
<!-- Node17 -->
<g id="node17" class="node"><title>Node17</title>
<polygon fill="none" stroke="#bfbfbf" points="567.5,-168.5 567.5,-187.5 611.5,-187.5 611.5,-168.5 567.5,-168.5"/>
<text text-anchor="middle" x="589.5" y="-175.5" font-family="Helvetica,sans-Serif" font-size="10.00">TH1.h</text>
</g>
<!-- Node2&#45;&gt;Node17 -->
<g id="edge23" class="edge"><title>Node2&#45;&gt;Node17</title>
<path fill="none" stroke="midnightblue" d="M589.5,-224.083C589.5,-217.006 589.5,-206.861 589.5,-197.986"/>
<polygon fill="midnightblue" stroke="midnightblue" points="593,-197.751 589.5,-187.751 586,-197.751 593,-197.751"/>
</g>
<!-- Node18 -->
<g id="node18" class="node"><title>Node18</title>
<polygon fill="none" stroke="#bfbfbf" points="630,-168.5 630,-187.5 781,-187.5 781,-168.5 630,-168.5"/>
<text text-anchor="middle" x="705.5" y="-175.5" font-family="Helvetica,sans-Serif" font-size="10.00">Monitoring/MonitoringFactory.h</text>
</g>
<!-- Node2&#45;&gt;Node18 -->
<g id="edge24" class="edge"><title>Node2&#45;&gt;Node18</title>
<path fill="none" stroke="midnightblue" d="M607.881,-224.444C626.716,-215.675 656.231,-201.935 677.879,-191.858"/>
<polygon fill="midnightblue" stroke="midnightblue" points="679.617,-194.91 687.205,-187.516 676.662,-188.564 679.617,-194.91"/>
</g>
<!-- Node19 -->
<g id="node19" class="node"><title>Node19</title>
<polygon fill="none" stroke="#bfbfbf" points="799.5,-168.5 799.5,-187.5 879.5,-187.5 879.5,-168.5 799.5,-168.5"/>
<text text-anchor="middle" x="839.5" y="-175.5" font-family="Helvetica,sans-Serif" font-size="10.00">boost/asio.hpp</text>
</g>
<!-- Node2&#45;&gt;Node19 -->
<g id="edge25" class="edge"><title>Node2&#45;&gt;Node19</title>
<path fill="none" stroke="midnightblue" d="M629.113,-224.444C672.725,-215.023 742.9,-199.866 790.078,-189.675"/>
<polygon fill="midnightblue" stroke="midnightblue" points="791.036,-193.049 800.072,-187.516 789.559,-186.207 791.036,-193.049"/>
</g>
<!-- Node20 -->
<g id="node20" class="node"><title>Node20</title>
<polygon fill="none" stroke="#bfbfbf" points="897.5,-168.5 897.5,-187.5 941.5,-187.5 941.5,-168.5 897.5,-168.5"/>
<text text-anchor="middle" x="919.5" y="-175.5" font-family="Helvetica,sans-Serif" font-size="10.00">thread</text>
</g>
<!-- Node2&#45;&gt;Node20 -->
<g id="edge26" class="edge"><title>Node2&#45;&gt;Node20</title>
<path fill="none" stroke="midnightblue" d="M650.707,-224.769C720.259,-215.255 830.52,-199.641 887.285,-187.977"/>
<polygon fill="midnightblue" stroke="midnightblue" points="888.194,-191.362 897.24,-185.847 886.729,-184.517 888.194,-191.362"/>
</g>
<!-- Node3&#45;&gt;Node4 -->
<g id="edge3" class="edge"><title>Node3&#45;&gt;Node4</title>
<path fill="none" stroke="midnightblue" d="M243.199,-169.181C180.812,-162.114 102.556,-150.027 75.5,-132 40.5631,-108.722 27.5055,-57.4176 22.8743,-29.6792"/>
<polygon fill="midnightblue" stroke="midnightblue" points="26.3231,-29.075 21.4047,-19.691 19.3977,-30.094 26.3231,-29.075"/>
</g>
<!-- Node5 -->
<g id="node5" class="node"><title>Node5</title>
<polygon fill="none" stroke="#bfbfbf" points="420.5,-112.5 420.5,-131.5 472.5,-131.5 472.5,-112.5 420.5,-112.5"/>
<text text-anchor="middle" x="446.5" y="-119.5" font-family="Helvetica,sans-Serif" font-size="10.00">memory</text>
</g>
<!-- Node3&#45;&gt;Node5 -->
<g id="edge4" class="edge"><title>Node3&#45;&gt;Node5</title>
<path fill="none" stroke="midnightblue" d="M347.197,-168.444C366.444,-159.636 396.652,-145.812 418.7,-135.722"/>
<polygon fill="midnightblue" stroke="midnightblue" points="420.253,-138.86 427.89,-131.516 417.34,-132.495 420.253,-138.86"/>
</g>
<!-- Node6 -->
<g id="node6" class="node"><title>Node6</title>
<polygon fill="none" stroke="#bfbfbf" points="490.5,-112.5 490.5,-131.5 534.5,-131.5 534.5,-112.5 490.5,-112.5"/>
<text text-anchor="middle" x="512.5" y="-119.5" font-family="Helvetica,sans-Serif" font-size="10.00">vector</text>
</g>
<!-- Node3&#45;&gt;Node6 -->
<g id="edge5" class="edge"><title>Node3&#45;&gt;Node6</title>
<path fill="none" stroke="midnightblue" d="M357.655,-168.444C391.227,-158.591 446.185,-142.462 480.796,-132.304"/>
<polygon fill="midnightblue" stroke="midnightblue" points="481.801,-135.657 490.411,-129.483 479.83,-128.94 481.801,-135.657"/>
</g>
<!-- Node7 -->
<g id="node7" class="node"><title>Node7</title>
<polygon fill="none" stroke="#bfbfbf" points="553,-112.5 553,-131.5 636,-131.5 636,-112.5 553,-112.5"/>
<text text-anchor="middle" x="594.5" y="-119.5" font-family="Helvetica,sans-Serif" font-size="10.00">unordered_map</text>
</g>
<!-- Node3&#45;&gt;Node7 -->
<g id="edge6" class="edge"><title>Node3&#45;&gt;Node7</title>
<path fill="none" stroke="midnightblue" d="M370.648,-168.444C417.383,-158.956 492.786,-143.649 542.987,-133.457"/>
<polygon fill="midnightblue" stroke="midnightblue" points="543.883,-136.847 552.987,-131.428 542.49,-129.987 543.883,-136.847"/>
</g>
<!-- Node8 -->
<g id="node8" class="node"><title>Node8</title>
<g id="a_node8"><a xlink:href="QualityObject_8h_source.html" target="_top" xlink:title="QualityControl/QualityObject.h">
<polygon fill="none" stroke="black" points="254,-112.5 254,-131.5 403,-131.5 403,-112.5 254,-112.5"/>
<text text-anchor="middle" x="328.5" y="-119.5" font-family="Helvetica,sans-Serif" font-size="10.00">QualityControl/QualityObject.h</text>
</a>
</g>
</g>
<!-- Node3&#45;&gt;Node8 -->
<g id="edge7" class="edge"><title>Node3&#45;&gt;Node8</title>
<path fill="none" stroke="midnightblue" d="M328.5,-168.083C328.5,-161.006 328.5,-150.861 328.5,-141.986"/>
<polygon fill="midnightblue" stroke="midnightblue" points="332,-141.751 328.5,-131.751 325,-141.751 332,-141.751"/>
</g>
<!-- Node15 -->
<g id="node15" class="node"><title>Node15</title>
<g id="a_node15"><a xlink:href="MonitorObject_8h.html" target="_top" xlink:title="QualityControl/MonitorObject.h">
<polygon fill="none" stroke="black" points="85,-112.5 85,-131.5 236,-131.5 236,-112.5 85,-112.5"/>
<text text-anchor="middle" x="160.5" y="-119.5" font-family="Helvetica,sans-Serif" font-size="10.00">QualityControl/MonitorObject.h</text>
</a>
</g>
</g>
<!-- Node3&#45;&gt;Node15 -->
<g id="edge15" class="edge"><title>Node3&#45;&gt;Node15</title>
<path fill="none" stroke="midnightblue" d="M301.88,-168.444C273.494,-159.32 228.363,-144.813 196.747,-134.651"/>
<polygon fill="midnightblue" stroke="midnightblue" points="197.587,-131.244 186.996,-131.516 195.445,-137.909 197.587,-131.244"/>
</g>
<!-- Node9 -->
<g id="node9" class="node"><title>Node9</title>
<polygon fill="none" stroke="#bfbfbf" points="510.5,-56.5 510.5,-75.5 564.5,-75.5 564.5,-56.5 510.5,-56.5"/>
<text text-anchor="middle" x="537.5" y="-63.5" font-family="Helvetica,sans-Serif" font-size="10.00">iostream</text>
</g>
<!-- Node8&#45;&gt;Node9 -->
<g id="edge8" class="edge"><title>Node8&#45;&gt;Node9</title>
<path fill="none" stroke="midnightblue" d="M361.617,-112.444C399.418,-102.677 461.089,-86.7425 500.456,-76.5711"/>
<polygon fill="midnightblue" stroke="midnightblue" points="501.393,-79.9441 510.2,-74.0537 499.642,-73.1666 501.393,-79.9441"/>
</g>
<!-- Node10 -->
<g id="node10" class="node"><title>Node10</title>
<polygon fill="none" stroke="#bfbfbf" points="246,-56.5 246,-75.5 281,-75.5 281,-56.5 246,-56.5"/>
<text text-anchor="middle" x="263.5" y="-63.5" font-family="Helvetica,sans-Serif" font-size="10.00">map</text>
</g>
<!-- Node8&#45;&gt;Node10 -->
<g id="edge9" class="edge"><title>Node8&#45;&gt;Node10</title>
<path fill="none" stroke="midnightblue" d="M318.057,-112.324C308.354,-104.263 293.685,-92.0765 282,-82.3695"/>
<polygon fill="midnightblue" stroke="midnightblue" points="284.062,-79.532 274.133,-75.8339 279.589,-84.9163 284.062,-79.532"/>
</g>
<!-- Node11 -->
<g id="node11" class="node"><title>Node11</title>
<polygon fill="none" stroke="#bfbfbf" points="299,-56.5 299,-75.5 358,-75.5 358,-56.5 299,-56.5"/>
<text text-anchor="middle" x="328.5" y="-63.5" font-family="Helvetica,sans-Serif" font-size="10.00">TObject.h</text>
</g>
<!-- Node8&#45;&gt;Node11 -->
<g id="edge10" class="edge"><title>Node8&#45;&gt;Node11</title>
<path fill="none" stroke="midnightblue" d="M328.5,-112.083C328.5,-105.006 328.5,-94.8611 328.5,-85.9865"/>
<polygon fill="midnightblue" stroke="midnightblue" points="332,-85.751 328.5,-75.7511 325,-85.7511 332,-85.751"/>
</g>
<!-- Node12 -->
<g id="node12" class="node"><title>Node12</title>
<polygon fill="none" stroke="#bfbfbf" points="376.5,-56.5 376.5,-75.5 492.5,-75.5 492.5,-56.5 376.5,-56.5"/>
<text text-anchor="middle" x="434.5" y="-63.5" font-family="Helvetica,sans-Serif" font-size="10.00">Common/Exceptions.h</text>
</g>
<!-- Node8&#45;&gt;Node12 -->
<g id="edge11" class="edge"><title>Node8&#45;&gt;Node12</title>
<path fill="none" stroke="midnightblue" d="M345.531,-112.324C362.53,-103.664 388.876,-90.2424 408.493,-80.249"/>
<polygon fill="midnightblue" stroke="midnightblue" points="410.19,-83.3125 417.512,-75.6545 407.012,-77.0752 410.19,-83.3125"/>
</g>
<!-- Node13 -->
<g id="node13" class="node"><title>Node13</title>
<g id="a_node13"><a xlink:href="Quality_8h.html" target="_top" xlink:title="QualityControl/Quality.h">
<polygon fill="none" stroke="black" points="68,-56.5 68,-75.5 189,-75.5 189,-56.5 68,-56.5"/>
<text text-anchor="middle" x="128.5" y="-63.5" font-family="Helvetica,sans-Serif" font-size="10.00">QualityControl/Quality.h</text>
</a>
</g>
</g>
<!-- Node8&#45;&gt;Node13 -->
<g id="edge12" class="edge"><title>Node8&#45;&gt;Node13</title>
<path fill="none" stroke="midnightblue" d="M296.809,-112.444C262.432,-103.162 207.423,-88.3093 169.711,-78.127"/>
<polygon fill="midnightblue" stroke="midnightblue" points="170.609,-74.7442 160.042,-75.5164 168.784,-81.5022 170.609,-74.7442"/>
</g>
<!-- Node13&#45;&gt;Node4 -->
<g id="edge14" class="edge"><title>Node13&#45;&gt;Node4</title>
<path fill="none" stroke="midnightblue" d="M111.148,-56.324C93.8281,-47.6641 66.9847,-34.2424 46.9981,-24.249"/>
<polygon fill="midnightblue" stroke="midnightblue" points="48.3186,-20.9962 37.809,-19.6545 45.188,-27.2572 48.3186,-20.9962"/>
</g>
<!-- Node14 -->
<g id="node14" class="node"><title>Node14</title>
<polygon fill="none" stroke="#bfbfbf" points="144.5,-0.5 144.5,-19.5 200.5,-19.5 200.5,-0.5 144.5,-0.5"/>
<text text-anchor="middle" x="172.5" y="-7.5" font-family="Helvetica,sans-Serif" font-size="10.00">Rtypes.h</text>
</g>
<!-- Node13&#45;&gt;Node14 -->
<g id="edge13" class="edge"><title>Node13&#45;&gt;Node14</title>
<path fill="none" stroke="midnightblue" d="M135.766,-56.083C142.045,-48.3768 151.288,-37.0333 158.931,-27.6531"/>
<polygon fill="midnightblue" stroke="midnightblue" points="161.766,-29.7143 165.369,-19.7511 156.339,-25.2926 161.766,-29.7143"/>
</g>
<!-- Node15&#45;&gt;Node4 -->
<g id="edge16" class="edge"><title>Node15&#45;&gt;Node4</title>
<path fill="none" stroke="midnightblue" d="M128.166,-112.467C106.511,-105.472 78.428,-93.7848 58.5,-76 44.06,-63.113 33.6119,-43.3897 27.3685,-29.0487"/>
<polygon fill="midnightblue" stroke="midnightblue" points="30.586,-27.6697 23.5684,-19.7323 24.1044,-30.3135 30.586,-27.6697"/>
</g>
<!-- Node15&#45;&gt;Node10 -->
<g id="edge17" class="edge"><title>Node15&#45;&gt;Node10</title>
<path fill="none" stroke="midnightblue" d="M177.049,-112.324C193.492,-103.703 218.935,-90.3643 237.968,-80.3855"/>
<polygon fill="midnightblue" stroke="midnightblue" points="239.761,-83.3977 246.992,-75.6545 236.511,-77.198 239.761,-83.3977"/>
</g>
<!-- Node15&#45;&gt;Node11 -->
<g id="edge19" class="edge"><title>Node15&#45;&gt;Node11</title>
<path fill="none" stroke="midnightblue" d="M187.12,-112.444C215.506,-103.32 260.637,-88.8133 292.253,-78.6509"/>
<polygon fill="midnightblue" stroke="midnightblue" points="293.555,-81.9087 302.004,-75.5164 291.413,-75.2445 293.555,-81.9087"/>
</g>
<!-- Node15&#45;&gt;Node12 -->
<g id="edge20" class="edge"><title>Node15&#45;&gt;Node12</title>
<path fill="none" stroke="midnightblue" d="M203.916,-112.444C252.015,-102.964 329.595,-87.6747 381.306,-77.4835"/>
<polygon fill="midnightblue" stroke="midnightblue" points="382.153,-80.8841 391.287,-75.5164 380.799,-74.0162 382.153,-80.8841"/>
</g>
<!-- Node15&#45;&gt;Node13 -->
<g id="edge21" class="edge"><title>Node15&#45;&gt;Node13</title>
<path fill="none" stroke="midnightblue" d="M155.216,-112.083C150.789,-104.613 144.337,-93.7244 138.882,-84.5199"/>
<polygon fill="midnightblue" stroke="midnightblue" points="141.795,-82.5697 133.686,-75.7511 135.773,-86.1383 141.795,-82.5697"/>
</g>
<!-- Node15&#45;&gt;Node14 -->
<g id="edge18" class="edge"><title>Node15&#45;&gt;Node14</title>
<path fill="none" stroke="midnightblue" d="M170.938,-112.245C179.924,-103.969 192.246,-90.663 197.5,-76 203.342,-59.6971 194.82,-41.2892 186.179,-28.2354"/>
<polygon fill="midnightblue" stroke="midnightblue" points="188.765,-25.8375 180.07,-19.7832 183.092,-29.9381 188.765,-25.8375"/>
</g>
</g>
</svg>
        <g id="navigator" transform="translate(0 0)" fill="#404254">
                <rect fill="#f2f5e9" fill-opacity="0.5" stroke="#606060" stroke-width=".5" x="0" y="0" width="60" height="60"/>
                <use id="zoomplus" xlink:href="#zoomPlus" x="17" y="9" onmousedown="handleZoom(evt,'in')"/>
                <use id="zoomminus" xlink:href="#zoomMin" x="42" y="9" onmousedown="handleZoom(evt,'out')"/>
                <use id="reset" xlink:href="#resetDef" x="30" y="36" onmousedown="handleReset()"/>
                <g id="arrowUp" xlink:href="#dirArrow" transform="translate(30 24)" onmousedown="handlePan(0,-1)">
                  <use xlink:href="#rim" fill="#404040">
                        <set attributeName="fill" to="#808080" begin="arrowUp.mouseover" end="arrowUp.mouseout"/>
                  </use>
                  <path fill="none" stroke="white" stroke-width="1.5" d="M0,-3.0v7 M-2.5,-0.5L0,-3.0L2.5,-0.5"/>
                </g>
                <g id="arrowRight" xlink:href="#dirArrow" transform="rotate(90) translate(36 -43)" onmousedown="handlePan(1,0)">
                  <use xlink:href="#rim" fill="#404040">
                        <set attributeName="fill" to="#808080" begin="arrowRight.mouseover" end="arrowRight.mouseout"/>
                  </use>
                  <path fill="none" stroke="white" stroke-width="1.5" d="M0,-3.0v7 M-2.5,-0.5L0,-3.0L2.5,-0.5"/>
                </g>
                <g id="arrowDown" xlink:href="#dirArrow" transform="rotate(180) translate(-30 -48)" onmousedown="handlePan(0,1)">
                  <use xlink:href="#rim" fill="#404040">
                        <set attributeName="fill" to="#808080" begin="arrowDown.mouseover" end="arrowDown.mouseout"/>
                  </use>
                  <path fill="none" stroke="white" stroke-width="1.5" d="M0,-3.0v7 M-2.5,-0.5L0,-3.0L2.5,-0.5"/>
                </g>
                <g id="arrowLeft" xlink:href="#dirArrow" transform="rotate(270) translate(-36 17)" onmousedown="handlePan(-1,0)">
                  <use xlink:href="#rim" fill="#404040">
                        <set attributeName="fill" to="#808080" begin="arrowLeft.mouseover" end="arrowLeft.mouseout"/>
                  </use>
                  <path fill="none" stroke="white" stroke-width="1.5" d="M0,-3.0v7 M-2.5,-0.5L0,-3.0L2.5,-0.5"/>
                </g>
        </g>
        <svg viewBox="0 0 15 15" width="100%" height="30px" preserveAspectRatio="xMaxYMin meet">
         <g id="arrow_out" transform="scale(0.3 0.3)">
          <a xlink:href="runRepositoryBenchmark_8cxx__incl_org.svg" target="_base">
           <rect id="button" ry="5" rx="5" y="6" x="6" height="38" width="38"
                fill="#f2f5e9" fill-opacity="0.5" stroke="#606060" stroke-width="1.0"/>
           <path id="arrow"
             d="M 11.500037,31.436501 C 11.940474,20.09759 22.043105,11.32322 32.158766,21.979434 L 37.068811,17.246167 C 37.068811,17.246167 37.088388,32 37.088388,32 L 22.160133,31.978069 C 22.160133,31.978069 26.997745,27.140456 26.997745,27.140456 C 18.528582,18.264221 13.291696,25.230495 11.500037,31.436501 z"
             style="fill:#404040;"/>
          </a>
         </g>
        </svg>
</svg>
