<?xml version="1.0" encoding="UTF-8" standalone="no"?>
<!DOCTYPE svg PUBLIC "-//W3C//DTD SVG 1.1//EN"
 "http://www.w3.org/Graphics/SVG/1.1/DTD/svg11.dtd">
<!-- Generated by graphviz version 2.38.0 (20140413.2041)
 -->
<!-- Title: Framework/src/runTPCQCPID.cxx Pages: 1 -->
<svg width="1787pt" height="375pt"
 viewBox="0.00 0.00 1786.50 375.00" xmlns="http://www.w3.org/2000/svg" xmlns:xlink="http://www.w3.org/1999/xlink">
<g id="graph0" class="graph" transform="scale(1 1) rotate(0) translate(4 371)">
<title>Framework/src/runTPCQCPID.cxx</title>
<!-- Node1 -->
<g id="node1" class="node"><title>Node1</title>
<polygon fill="#bfbfbf" stroke="black" points="1211.5,-347.5 1211.5,-366.5 1381.5,-366.5 1381.5,-347.5 1211.5,-347.5"/>
<text text-anchor="middle" x="1296.5" y="-354.5" font-family="Helvetica,sans-Serif" font-size="10.00">Framework/src/runTPCQCPID.cxx</text>
</g>
<!-- Node2 -->
<g id="node2" class="node"><title>Node2</title>
<polygon fill="none" stroke="#bfbfbf" points="220.5,-291.5 220.5,-310.5 358.5,-310.5 358.5,-291.5 220.5,-291.5"/>
<text text-anchor="middle" x="289.5" y="-298.5" font-family="Helvetica,sans-Serif" font-size="10.00">Framework/DataSampling.h</text>
</g>
<!-- Node1&#45;&gt;Node2 -->
<g id="edge1" class="edge"><title>Node1&#45;&gt;Node2</title>
<path fill="none" stroke="midnightblue" d="M1211.2,-353.765C1049.2,-349.103 685.624,-336.652 369.093,-311.076"/>
<polygon fill="midnightblue" stroke="midnightblue" points="369.05,-307.561 358.799,-310.238 368.482,-314.538 369.05,-307.561"/>
</g>
<!-- Node3 -->
<g id="node3" class="node"><title>Node3</title>
<g id="a_node3"><a xlink:href="InfrastructureGenerator_8h.html" target="_top" xlink:title="QualityControl/Infrastructure\lGenerator.h">
<polygon fill="none" stroke="black" points="1550.5,-224.5 1550.5,-254.5 1690.5,-254.5 1690.5,-224.5 1550.5,-224.5"/>
<text text-anchor="start" x="1558.5" y="-242.5" font-family="Helvetica,sans-Serif" font-size="10.00">QualityControl/Infrastructure</text>
<text text-anchor="middle" x="1620.5" y="-231.5" font-family="Helvetica,sans-Serif" font-size="10.00">Generator.h</text>
</a>
</g>
</g>
<!-- Node1&#45;&gt;Node3 -->
<g id="edge2" class="edge"><title>Node1&#45;&gt;Node3</title>
<path fill="none" stroke="midnightblue" d="M1296.46,-347.316C1296.89,-333.207 1299.95,-305.435 1316.5,-291 1353.83,-258.437 1487.65,-263.213 1536.5,-255 1537.77,-254.786 1539.06,-254.57 1540.35,-254.352"/>
<polygon fill="midnightblue" stroke="midnightblue" points="1541.11,-257.773 1550.38,-252.651 1539.94,-250.872 1541.11,-257.773"/>
</g>
<!-- Node7 -->
<g id="node7" class="node"><title>Node7</title>
<polygon fill="none" stroke="#bfbfbf" points="1164.5,-168.5 1164.5,-187.5 1216.5,-187.5 1216.5,-168.5 1164.5,-168.5"/>
<text text-anchor="middle" x="1190.5" y="-175.5" font-family="Helvetica,sans-Serif" font-size="10.00">memory</text>
</g>
<!-- Node1&#45;&gt;Node7 -->
<g id="edge6" class="edge"><title>Node1&#45;&gt;Node7</title>
<path fill="none" stroke="midnightblue" d="M1291.39,-347.463C1274.99,-320.078 1223.47,-234.052 1201.07,-196.653"/>
<polygon fill="midnightblue" stroke="midnightblue" points="1203.95,-194.649 1195.81,-187.868 1197.95,-198.246 1203.95,-194.649"/>
</g>
<!-- Node8 -->
<g id="node8" class="node"><title>Node8</title>
<polygon fill="none" stroke="#bfbfbf" points="1325,-291.5 1325,-310.5 1374,-310.5 1374,-291.5 1325,-291.5"/>
<text text-anchor="middle" x="1349.5" y="-298.5" font-family="Helvetica,sans-Serif" font-size="10.00">random</text>
</g>
<!-- Node1&#45;&gt;Node8 -->
<g id="edge7" class="edge"><title>Node1&#45;&gt;Node8</title>
<path fill="none" stroke="midnightblue" d="M1305.25,-347.083C1312.97,-339.22 1324.4,-327.569 1333.72,-318.081"/>
<polygon fill="midnightblue" stroke="midnightblue" points="1336.4,-320.34 1340.91,-310.751 1331.41,-315.436 1336.4,-320.34"/>
</g>
<!-- Node9 -->
<g id="node9" class="node"><title>Node9</title>
<polygon fill="none" stroke="#bfbfbf" points="1392.5,-291.5 1392.5,-310.5 1442.5,-310.5 1442.5,-291.5 1392.5,-291.5"/>
<text text-anchor="middle" x="1417.5" y="-298.5" font-family="Helvetica,sans-Serif" font-size="10.00">TH1F.h</text>
</g>
<!-- Node1&#45;&gt;Node9 -->
<g id="edge8" class="edge"><title>Node1&#45;&gt;Node9</title>
<path fill="none" stroke="midnightblue" d="M1315.67,-347.444C1335.41,-338.636 1366.39,-324.812 1388.99,-314.722"/>
<polygon fill="midnightblue" stroke="midnightblue" points="1390.71,-317.788 1398.42,-310.516 1387.86,-311.396 1390.71,-317.788"/>
</g>
<!-- Node10 -->
<g id="node10" class="node"><title>Node10</title>
<polygon fill="none" stroke="#bfbfbf" points="1460.5,-291.5 1460.5,-310.5 1620.5,-310.5 1620.5,-291.5 1460.5,-291.5"/>
<text text-anchor="middle" x="1540.5" y="-298.5" font-family="Helvetica,sans-Serif" font-size="10.00">Framework/runDataProcessing.h</text>
</g>
<!-- Node1&#45;&gt;Node10 -->
<g id="edge9" class="edge"><title>Node1&#45;&gt;Node10</title>
<path fill="none" stroke="midnightblue" d="M1335.16,-347.444C1377.64,-338.043 1445.93,-322.929 1491.97,-312.739"/>
<polygon fill="midnightblue" stroke="midnightblue" points="1493.01,-316.095 1502.02,-310.516 1491.5,-309.26 1493.01,-316.095"/>
</g>
<!-- Node11 -->
<g id="node11" class="node"><title>Node11</title>
<polygon fill="none" stroke="#bfbfbf" points="1638.5,-291.5 1638.5,-310.5 1778.5,-310.5 1778.5,-291.5 1638.5,-291.5"/>
<text text-anchor="middle" x="1708.5" y="-298.5" font-family="Helvetica,sans-Serif" font-size="10.00">DPLUtils/RootTreeReader.h</text>
</g>
<!-- Node1&#45;&gt;Node11 -->
<g id="edge10" class="edge"><title>Node1&#45;&gt;Node11</title>
<path fill="none" stroke="midnightblue" d="M1361.78,-347.444C1435.61,-337.767 1555.64,-322.035 1633.32,-311.853"/>
<polygon fill="midnightblue" stroke="midnightblue" points="1634.06,-315.286 1643.52,-310.516 1633.15,-308.346 1634.06,-315.286"/>
</g>
<!-- Node12 -->
<g id="node12" class="node"><title>Node12</title>
<g id="a_node12"><a xlink:href="CheckRunner_8h.html" target="_top" xlink:title="QualityControl/CheckRunner.h">
<polygon fill="none" stroke="black" points="813.5,-291.5 813.5,-310.5 963.5,-310.5 963.5,-291.5 813.5,-291.5"/>
<text text-anchor="middle" x="888.5" y="-298.5" font-family="Helvetica,sans-Serif" font-size="10.00">QualityControl/CheckRunner.h</text>
</a>
</g>
</g>
<!-- Node1&#45;&gt;Node12 -->
<g id="edge11" class="edge"><title>Node1&#45;&gt;Node12</title>
<path fill="none" stroke="midnightblue" d="M1231.85,-347.444C1158.74,-337.767 1039.88,-322.035 962.947,-311.853"/>
<polygon fill="midnightblue" stroke="midnightblue" points="963.219,-308.359 952.846,-310.516 962.301,-315.298 963.219,-308.359"/>
</g>
<!-- Node35 -->
<g id="node35" class="node"><title>Node35</title>
<g id="a_node35"><a xlink:href="runnerUtils_8h.html" target="_top" xlink:title="QualityControl/runnerUtils.h">
<polygon fill="none" stroke="black" points="377,-291.5 377,-310.5 514,-310.5 514,-291.5 377,-291.5"/>
<text text-anchor="middle" x="445.5" y="-298.5" font-family="Helvetica,sans-Serif" font-size="10.00">QualityControl/runnerUtils.h</text>
</a>
</g>
</g>
<!-- Node1&#45;&gt;Node35 -->
<g id="edge63" class="edge"><title>Node1&#45;&gt;Node35</title>
<path fill="none" stroke="midnightblue" d="M1211.4,-350.6C1046.22,-340.119 684.384,-317.158 524.33,-307.002"/>
<polygon fill="midnightblue" stroke="midnightblue" points="524.286,-303.492 514.084,-306.352 523.842,-310.478 524.286,-303.492"/>
</g>
<!-- Node4 -->
<g id="node4" class="node"><title>Node4</title>
<polygon fill="none" stroke="#bfbfbf" points="1234.5,-168.5 1234.5,-187.5 1278.5,-187.5 1278.5,-168.5 1234.5,-168.5"/>
<text text-anchor="middle" x="1256.5" y="-175.5" font-family="Helvetica,sans-Serif" font-size="10.00">vector</text>
</g>
<!-- Node3&#45;&gt;Node4 -->
<g id="edge3" class="edge"><title>Node3&#45;&gt;Node4</title>
<path fill="none" stroke="midnightblue" d="M1550.32,-227.028C1471.55,-214.153 1347.16,-193.82 1288.78,-184.276"/>
<polygon fill="midnightblue" stroke="midnightblue" points="1289.1,-180.783 1278.67,-182.624 1287.98,-187.692 1289.1,-180.783"/>
</g>
<!-- Node5 -->
<g id="node5" class="node"><title>Node5</title>
<polygon fill="none" stroke="#bfbfbf" points="759,-0.5 759,-19.5 800,-19.5 800,-0.5 759,-0.5"/>
<text text-anchor="middle" x="779.5" y="-7.5" font-family="Helvetica,sans-Serif" font-size="10.00">string</text>
</g>
<!-- Node3&#45;&gt;Node5 -->
<g id="edge4" class="edge"><title>Node3&#45;&gt;Node5</title>
<path fill="none" stroke="midnightblue" d="M1657.32,-224.425C1683.59,-212.011 1712.21,-192.158 1699.5,-168 1658.57,-90.2138 1619.64,-84.541 1536.5,-56 1399.01,-8.79719 935.411,-9.54574 810.644,-10.642"/>
<polygon fill="midnightblue" stroke="midnightblue" points="810.257,-7.14548 800.291,-10.7409 810.324,-14.1452 810.257,-7.14548"/>
</g>
<!-- Node6 -->
<g id="node6" class="node"><title>Node6</title>
<polygon fill="none" stroke="#bfbfbf" points="1550.5,-168.5 1550.5,-187.5 1690.5,-187.5 1690.5,-168.5 1550.5,-168.5"/>
<text text-anchor="middle" x="1620.5" y="-175.5" font-family="Helvetica,sans-Serif" font-size="10.00">Framework/WorkflowSpec.h</text>
</g>
<!-- Node3&#45;&gt;Node6 -->
<g id="edge5" class="edge"><title>Node3&#45;&gt;Node6</title>
<path fill="none" stroke="midnightblue" d="M1620.5,-224.399C1620.5,-216.466 1620.5,-206.458 1620.5,-197.858"/>
<polygon fill="midnightblue" stroke="midnightblue" points="1624,-197.658 1620.5,-187.658 1617,-197.658 1624,-197.658"/>
</g>
<!-- Node12&#45;&gt;Node4 -->
<g id="edge16" class="edge"><title>Node12&#45;&gt;Node4</title>
<path fill="none" stroke="midnightblue" d="M963.833,-297.429C1047.48,-293.241 1175.95,-282.434 1215.5,-255 1235.09,-241.415 1246.16,-215.387 1251.74,-197.614"/>
<polygon fill="midnightblue" stroke="midnightblue" points="1255.16,-198.375 1254.53,-187.799 1248.43,-196.461 1255.16,-198.375"/>
</g>
<!-- Node12&#45;&gt;Node5 -->
<g id="edge14" class="edge"><title>Node12&#45;&gt;Node5</title>
<path fill="none" stroke="midnightblue" d="M963.536,-299.359C1118.54,-297.347 1463.03,-289.051 1503.5,-255 1530.14,-232.585 1522.5,-213.817 1522.5,-179 1522.5,-179 1522.5,-179 1522.5,-121 1522.5,-47.7655 950.347,-18.3555 810.203,-12.2502"/>
<polygon fill="midnightblue" stroke="midnightblue" points="810.288,-8.75073 800.148,-11.8201 809.989,-15.7443 810.288,-8.75073"/>
</g>
<!-- Node12&#45;&gt;Node7 -->
<g id="edge13" class="edge"><title>Node12&#45;&gt;Node7</title>
<path fill="none" stroke="midnightblue" d="M963.595,-299.842C1044.91,-297.885 1166.99,-289.136 1196.5,-255 1210.12,-239.246 1204.73,-214.147 1198.55,-197.143"/>
<polygon fill="midnightblue" stroke="midnightblue" points="1201.76,-195.722 1194.77,-187.756 1195.26,-198.34 1201.76,-195.722"/>
</g>
<!-- Node13 -->
<g id="node13" class="node"><title>Node13</title>
<polygon fill="none" stroke="#bfbfbf" points="443.5,-230 443.5,-249 489.5,-249 489.5,-230 443.5,-230"/>
<text text-anchor="middle" x="466.5" y="-237" font-family="Helvetica,sans-Serif" font-size="10.00">chrono</text>
</g>
<!-- Node12&#45;&gt;Node13 -->
<g id="edge12" class="edge"><title>Node12&#45;&gt;Node13</title>
<path fill="none" stroke="midnightblue" d="M813.144,-298.206C733.611,-294.724 605.239,-284.56 498.5,-255 496.351,-254.405 494.163,-253.684 491.991,-252.885"/>
<polygon fill="midnightblue" stroke="midnightblue" points="493.32,-249.647 482.742,-249.036 490.63,-256.11 493.32,-249.647"/>
</g>
<!-- Node14 -->
<g id="node14" class="node"><title>Node14</title>
<polygon fill="none" stroke="#bfbfbf" points="539,-56.5 539,-75.5 574,-75.5 574,-56.5 539,-56.5"/>
<text text-anchor="middle" x="556.5" y="-63.5" font-family="Helvetica,sans-Serif" font-size="10.00">map</text>
</g>
<!-- Node12&#45;&gt;Node14 -->
<g id="edge15" class="edge"><title>Node12&#45;&gt;Node14</title>
<path fill="none" stroke="midnightblue" d="M813.445,-297.889C659.654,-293.078 319.224,-279.756 272.5,-255 238.95,-237.224 231.969,-223.862 219.5,-188 212.293,-167.272 223.896,-117.384 229.5,-112 271.96,-71.2031 456.975,-66.9074 528.309,-66.7999"/>
<polygon fill="midnightblue" stroke="midnightblue" points="528.737,-70.3004 538.742,-66.8137 528.747,-63.3004 528.737,-70.3004"/>
</g>
<!-- Node15 -->
<g id="node15" class="node"><title>Node15</title>
<polygon fill="none" stroke="#bfbfbf" points="507.5,-230 507.5,-249 585.5,-249 585.5,-230 507.5,-230"/>
<text text-anchor="middle" x="546.5" y="-237" font-family="Helvetica,sans-Serif" font-size="10.00">unordered_set</text>
</g>
<!-- Node12&#45;&gt;Node15 -->
<g id="edge17" class="edge"><title>Node12&#45;&gt;Node15</title>
<path fill="none" stroke="midnightblue" d="M813.337,-291.473C753.606,-283.983 668.154,-271.674 594.5,-255 590.393,-254.07 586.124,-252.974 581.901,-251.808"/>
<polygon fill="midnightblue" stroke="midnightblue" points="582.808,-248.427 572.229,-249.004 580.859,-255.15 582.808,-248.427"/>
</g>
<!-- Node16 -->
<g id="node16" class="node"><title>Node16</title>
<polygon fill="none" stroke="#bfbfbf" points="603.5,-230 603.5,-249 695.5,-249 695.5,-230 603.5,-230"/>
<text text-anchor="middle" x="649.5" y="-237" font-family="Helvetica,sans-Serif" font-size="10.00">Common/Timer.h</text>
</g>
<!-- Node12&#45;&gt;Node16 -->
<g id="edge18" class="edge"><title>Node12&#45;&gt;Node16</title>
<path fill="none" stroke="midnightblue" d="M852.835,-291.478C815.732,-282.565 755.975,-268.079 704.5,-255 700.184,-253.903 695.682,-252.743 691.194,-251.576"/>
<polygon fill="midnightblue" stroke="midnightblue" points="692.027,-248.176 681.466,-249.031 690.255,-254.948 692.027,-248.176"/>
</g>
<!-- Node17 -->
<g id="node17" class="node"><title>Node17</title>
<polygon fill="none" stroke="#bfbfbf" points="713.5,-230 713.5,-249 811.5,-249 811.5,-230 713.5,-230"/>
<text text-anchor="middle" x="762.5" y="-237" font-family="Helvetica,sans-Serif" font-size="10.00">Framework/Task.h</text>
</g>
<!-- Node12&#45;&gt;Node17 -->
<g id="edge19" class="edge"><title>Node12&#45;&gt;Node17</title>
<path fill="none" stroke="midnightblue" d="M870.447,-291.475C849.302,-281.49 814.06,-264.848 789.622,-253.307"/>
<polygon fill="midnightblue" stroke="midnightblue" points="791.056,-250.114 780.519,-249.009 788.067,-256.444 791.056,-250.114"/>
</g>
<!-- Node18 -->
<g id="node18" class="node"><title>Node18</title>
<polygon fill="none" stroke="#bfbfbf" points="830,-230 830,-249 947,-249 947,-230 830,-230"/>
<text text-anchor="middle" x="888.5" y="-237" font-family="Helvetica,sans-Serif" font-size="10.00">Headers/DataHeader.h</text>
</g>
<!-- Node12&#45;&gt;Node18 -->
<g id="edge20" class="edge"><title>Node12&#45;&gt;Node18</title>
<path fill="none" stroke="midnightblue" d="M888.5,-291.475C888.5,-283.08 888.5,-269.981 888.5,-259.163"/>
<polygon fill="midnightblue" stroke="midnightblue" points="892,-259.009 888.5,-249.009 885,-259.009 892,-259.009"/>
</g>
<!-- Node19 -->
<g id="node19" class="node"><title>Node19</title>
<polygon fill="none" stroke="#bfbfbf" points="965,-230 965,-249 1116,-249 1116,-230 965,-230"/>
<text text-anchor="middle" x="1040.5" y="-237" font-family="Helvetica,sans-Serif" font-size="10.00">Monitoring/MonitoringFactory.h</text>
</g>
<!-- Node12&#45;&gt;Node19 -->
<g id="edge21" class="edge"><title>Node12&#45;&gt;Node19</title>
<path fill="none" stroke="midnightblue" d="M910.278,-291.475C936.238,-281.313 979.811,-264.256 1009.33,-252.7"/>
<polygon fill="midnightblue" stroke="midnightblue" points="1010.73,-255.913 1018.76,-249.009 1008.17,-249.395 1010.73,-255.913"/>
</g>
<!-- Node20 -->
<g id="node20" class="node"><title>Node20</title>
<polygon fill="none" stroke="#bfbfbf" points="918.5,-168.5 918.5,-187.5 1082.5,-187.5 1082.5,-168.5 918.5,-168.5"/>
<text text-anchor="middle" x="1000.5" y="-175.5" font-family="Helvetica,sans-Serif" font-size="10.00">Framework/DataProcessorSpec.h</text>
</g>
<!-- Node12&#45;&gt;Node20 -->
<g id="edge22" class="edge"><title>Node12&#45;&gt;Node20</title>
<path fill="none" stroke="midnightblue" d="M963.696,-295.847C1024.88,-290.709 1104.29,-279.424 1124.5,-255 1133.28,-244.384 1132.41,-235.282 1124.5,-224 1113.09,-207.716 1095.15,-197.302 1076.43,-190.648"/>
<polygon fill="midnightblue" stroke="midnightblue" points="1077.49,-187.314 1066.9,-187.588 1075.35,-193.978 1077.49,-187.314"/>
</g>
<!-- Node21 -->
<g id="node21" class="node"><title>Node21</title>
<g id="a_node21"><a xlink:href="CheckInterface_8h.html" target="_top" xlink:title="QualityControl/CheckInterface.h">
<polygon fill="none" stroke="black" points="396,-168.5 396,-187.5 553,-187.5 553,-168.5 396,-168.5"/>
<text text-anchor="middle" x="474.5" y="-175.5" font-family="Helvetica,sans-Serif" font-size="10.00">QualityControl/CheckInterface.h</text>
</a>
</g>
</g>
<!-- Node12&#45;&gt;Node21 -->
<g id="edge23" class="edge"><title>Node12&#45;&gt;Node21</title>
<path fill="none" stroke="midnightblue" d="M813.483,-296.986C658.061,-290.376 313.831,-273.698 296.5,-255 263.125,-218.991 325.836,-199.329 385.82,-189.084"/>
<polygon fill="midnightblue" stroke="midnightblue" points="386.489,-192.521 395.796,-187.459 385.363,-185.612 386.489,-192.521"/>
</g>
<!-- Node23 -->
<g id="node23" class="node"><title>Node23</title>
<g id="a_node23"><a xlink:href="MonitorObject_8h.html" target="_top" xlink:title="QualityControl/MonitorObject.h">
<polygon fill="none" stroke="black" points="698,-112.5 698,-131.5 849,-131.5 849,-112.5 698,-112.5"/>
<text text-anchor="middle" x="773.5" y="-119.5" font-family="Helvetica,sans-Serif" font-size="10.00">QualityControl/MonitorObject.h</text>
</a>
</g>
</g>
<!-- Node12&#45;&gt;Node23 -->
<g id="edge49" class="edge"><title>Node12&#45;&gt;Node23</title>
<path fill="none" stroke="midnightblue" d="M963.581,-297.061C1030.07,-292.692 1119.99,-281.854 1142.5,-255 1151.35,-244.442 1147.47,-236.849 1142.5,-224 1130.35,-192.607 1121.26,-183.734 1091.5,-168 1080.97,-162.435 942.867,-144.256 852.154,-132.777"/>
<polygon fill="midnightblue" stroke="midnightblue" points="852.521,-129.296 842.161,-131.516 851.644,-136.241 852.521,-129.296"/>
</g>
<!-- Node27 -->
<g id="node27" class="node"><title>Node27</title>
<g id="a_node27"><a xlink:href="DatabaseInterface_8h.html" target="_top" xlink:title="QualityControl/DatabaseInterface.h">
<polygon fill="none" stroke="black" points="1324.5,-230 1324.5,-249 1494.5,-249 1494.5,-230 1324.5,-230"/>
<text text-anchor="middle" x="1409.5" y="-237" font-family="Helvetica,sans-Serif" font-size="10.00">QualityControl/DatabaseInterface.h</text>
</a>
</g>
</g>
<!-- Node12&#45;&gt;Node27 -->
<g id="edge37" class="edge"><title>Node12&#45;&gt;Node27</title>
<path fill="none" stroke="midnightblue" d="M963.69,-292.88C1048.17,-284.671 1189.34,-270.327 1310.5,-255 1321.32,-253.631 1332.79,-252.062 1343.93,-250.473"/>
<polygon fill="midnightblue" stroke="midnightblue" points="1344.65,-253.905 1354.05,-249.012 1343.65,-246.977 1344.65,-253.905"/>
</g>
<!-- Node31 -->
<g id="node31" class="node"><title>Node31</title>
<g id="a_node31"><a xlink:href="QcInfoLogger_8h.html" target="_top" xlink:title="QualityControl/QcInfoLogger.h">
<polygon fill="none" stroke="black" points="229,-168.5 229,-187.5 378,-187.5 378,-168.5 229,-168.5"/>
<text text-anchor="middle" x="303.5" y="-175.5" font-family="Helvetica,sans-Serif" font-size="10.00">QualityControl/QcInfoLogger.h</text>
</a>
</g>
</g>
<!-- Node12&#45;&gt;Node31 -->
<g id="edge50" class="edge"><title>Node12&#45;&gt;Node31</title>
<path fill="none" stroke="midnightblue" d="M813.336,-297.108C655.232,-290.659 301.281,-274.152 283.5,-255 268.618,-238.97 280.218,-213.213 290.969,-196.198"/>
<polygon fill="midnightblue" stroke="midnightblue" points="293.972,-198.005 296.68,-187.762 288.176,-194.08 293.972,-198.005"/>
</g>
<!-- Node33 -->
<g id="node33" class="node"><title>Node33</title>
<g id="a_node33"><a xlink:href="Check_8h_source.html" target="_top" xlink:title="QualityControl/Check.h">
<polygon fill="none" stroke="black" points="306,-230 306,-249 425,-249 425,-230 306,-230"/>
<text text-anchor="middle" x="365.5" y="-237" font-family="Helvetica,sans-Serif" font-size="10.00">QualityControl/Check.h</text>
</a>
</g>
</g>
<!-- Node12&#45;&gt;Node33 -->
<g id="edge52" class="edge"><title>Node12&#45;&gt;Node33</title>
<path fill="none" stroke="midnightblue" d="M813.475,-295.065C723.195,-288.551 567.186,-275.456 434.5,-255 427.347,-253.897 419.818,-252.53 412.467,-251.08"/>
<polygon fill="midnightblue" stroke="midnightblue" points="413.105,-247.638 402.607,-249.068 411.705,-254.497 413.105,-247.638"/>
</g>
<!-- Node21&#45;&gt;Node5 -->
<g id="edge24" class="edge"><title>Node21&#45;&gt;Node5</title>
<path fill="none" stroke="midnightblue" d="M477.22,-168.484C485.381,-143.455 510.285,-70.9477 529.5,-56 546.652,-42.6575 685.584,-23.1857 748.609,-14.9316"/>
<polygon fill="midnightblue" stroke="midnightblue" points="749.281,-18.3738 758.747,-13.615 748.38,-11.4321 749.281,-18.3738"/>
</g>
<!-- Node21&#45;&gt;Node14 -->
<g id="edge25" class="edge"><title>Node21&#45;&gt;Node14</title>
<path fill="none" stroke="midnightblue" d="M484.581,-168.368C494.255,-159.77 508.915,-145.882 519.5,-132 530.793,-117.189 541.047,-98.5693 547.881,-85.0586"/>
<polygon fill="midnightblue" stroke="midnightblue" points="551.127,-86.3886 552.4,-75.8705 544.846,-83.2987 551.127,-86.3886"/>
</g>
<!-- Node22 -->
<g id="node22" class="node"><title>Node22</title>
<polygon fill="none" stroke="#bfbfbf" points="624.5,-0.5 624.5,-19.5 680.5,-19.5 680.5,-0.5 624.5,-0.5"/>
<text text-anchor="middle" x="652.5" y="-7.5" font-family="Helvetica,sans-Serif" font-size="10.00">Rtypes.h</text>
</g>
<!-- Node21&#45;&gt;Node22 -->
<g id="edge26" class="edge"><title>Node21&#45;&gt;Node22</title>
<path fill="none" stroke="midnightblue" d="M472.845,-168.403C469.188,-146.63 462.861,-88.725 491.5,-56 521.943,-21.2136 576.828,-12.2941 613.956,-10.5199"/>
<polygon fill="midnightblue" stroke="midnightblue" points="614.508,-14.0041 624.391,-10.1853 614.284,-7.00766 614.508,-14.0041"/>
</g>
<!-- Node21&#45;&gt;Node23 -->
<g id="edge27" class="edge"><title>Node21&#45;&gt;Node23</title>
<path fill="none" stroke="midnightblue" d="M521.877,-168.444C574.584,-158.925 659.729,-143.547 716.157,-133.356"/>
<polygon fill="midnightblue" stroke="midnightblue" points="717.125,-136.738 726.344,-131.516 715.881,-129.849 717.125,-136.738"/>
</g>
<!-- Node26 -->
<g id="node26" class="node"><title>Node26</title>
<g id="a_node26"><a xlink:href="Quality_8h.html" target="_top" xlink:title="QualityControl/Quality.h">
<polygon fill="none" stroke="black" points="592,-56.5 592,-75.5 713,-75.5 713,-56.5 592,-56.5"/>
<text text-anchor="middle" x="652.5" y="-63.5" font-family="Helvetica,sans-Serif" font-size="10.00">QualityControl/Quality.h</text>
</a>
</g>
</g>
<!-- Node21&#45;&gt;Node26 -->
<g id="edge36" class="edge"><title>Node21&#45;&gt;Node26</title>
<path fill="none" stroke="midnightblue" d="M488.467,-168.368C519.142,-149.412 592.626,-104.001 629.939,-80.9424"/>
<polygon fill="midnightblue" stroke="midnightblue" points="631.931,-83.8258 638.598,-75.5914 628.251,-77.8711 631.931,-83.8258"/>
</g>
<!-- Node23&#45;&gt;Node5 -->
<g id="edge28" class="edge"><title>Node23&#45;&gt;Node5</title>
<path fill="none" stroke="midnightblue" d="M773.971,-112.368C774.939,-94.617 777.173,-53.6664 778.486,-29.5974"/>
<polygon fill="midnightblue" stroke="midnightblue" points="781.981,-29.7672 779.031,-19.5914 774.992,-29.3859 781.981,-29.7672"/>
</g>
<!-- Node23&#45;&gt;Node14 -->
<g id="edge29" class="edge"><title>Node23&#45;&gt;Node14</title>
<path fill="none" stroke="midnightblue" d="M731.826,-112.463C695.047,-104.643 639.829,-92.2115 583.777,-76.1655"/>
<polygon fill="midnightblue" stroke="midnightblue" points="584.623,-72.7668 574.044,-73.3446 582.675,-79.4901 584.623,-72.7668"/>
</g>
<!-- Node23&#45;&gt;Node22 -->
<g id="edge30" class="edge"><title>Node23&#45;&gt;Node22</title>
<path fill="none" stroke="midnightblue" d="M767.859,-112.277C759.042,-99.0721 740.976,-73.6762 721.5,-56 708.163,-43.8956 691.249,-32.8102 677.506,-24.6706"/>
<polygon fill="midnightblue" stroke="midnightblue" points="678.993,-21.488 668.581,-19.5297 675.499,-27.5538 678.993,-21.488"/>
</g>
<!-- Node24 -->
<g id="node24" class="node"><title>Node24</title>
<polygon fill="none" stroke="#bfbfbf" points="942,-56.5 942,-75.5 1001,-75.5 1001,-56.5 942,-56.5"/>
<text text-anchor="middle" x="971.5" y="-63.5" font-family="Helvetica,sans-Serif" font-size="10.00">TObject.h</text>
</g>
<!-- Node23&#45;&gt;Node24 -->
<g id="edge31" class="edge"><title>Node23&#45;&gt;Node24</title>
<path fill="none" stroke="midnightblue" d="M804.874,-112.444C839.261,-103.065 894.5,-88.0001 931.859,-77.8112"/>
<polygon fill="midnightblue" stroke="midnightblue" points="933.163,-81.0834 941.89,-75.0755 931.321,-74.33 933.163,-81.0834"/>
</g>
<!-- Node25 -->
<g id="node25" class="node"><title>Node25</title>
<polygon fill="none" stroke="#bfbfbf" points="807.5,-56.5 807.5,-75.5 923.5,-75.5 923.5,-56.5 807.5,-56.5"/>
<text text-anchor="middle" x="865.5" y="-63.5" font-family="Helvetica,sans-Serif" font-size="10.00">Common/Exceptions.h</text>
</g>
<!-- Node23&#45;&gt;Node25 -->
<g id="edge32" class="edge"><title>Node23&#45;&gt;Node25</title>
<path fill="none" stroke="midnightblue" d="M788.281,-112.324C802.767,-103.822 825.073,-90.7288 841.993,-80.7975"/>
<polygon fill="midnightblue" stroke="midnightblue" points="843.903,-83.735 850.755,-75.6545 840.359,-77.6981 843.903,-83.735"/>
</g>
<!-- Node23&#45;&gt;Node26 -->
<g id="edge33" class="edge"><title>Node23&#45;&gt;Node26</title>
<path fill="none" stroke="midnightblue" d="M754.327,-112.444C734.591,-103.636 703.615,-89.8116 681.007,-79.722"/>
<polygon fill="midnightblue" stroke="midnightblue" points="682.141,-76.3957 671.583,-75.5164 679.289,-82.788 682.141,-76.3957"/>
</g>
<!-- Node26&#45;&gt;Node5 -->
<g id="edge35" class="edge"><title>Node26&#45;&gt;Node5</title>
<path fill="none" stroke="midnightblue" d="M672.624,-56.4435C693.524,-47.5566 726.435,-33.5632 750.216,-23.4514"/>
<polygon fill="midnightblue" stroke="midnightblue" points="751.638,-26.6504 759.471,-19.5164 748.898,-20.2085 751.638,-26.6504"/>
</g>
<!-- Node26&#45;&gt;Node22 -->
<g id="edge34" class="edge"><title>Node26&#45;&gt;Node22</title>
<path fill="none" stroke="midnightblue" d="M652.5,-56.083C652.5,-49.0059 652.5,-38.8611 652.5,-29.9865"/>
<polygon fill="midnightblue" stroke="midnightblue" points="656,-29.751 652.5,-19.7511 649,-29.7511 656,-29.751"/>
</g>
<!-- Node27&#45;&gt;Node4 -->
<g id="edge40" class="edge"><title>Node27&#45;&gt;Node4</title>
<path fill="none" stroke="midnightblue" d="M1387.58,-229.975C1361.45,-219.813 1317.59,-202.756 1287.87,-191.2"/>
<polygon fill="midnightblue" stroke="midnightblue" points="1288.97,-187.872 1278.38,-187.509 1286.43,-194.396 1288.97,-187.872"/>
</g>
<!-- Node27&#45;&gt;Node5 -->
<g id="edge38" class="edge"><title>Node27&#45;&gt;Node5</title>
<path fill="none" stroke="midnightblue" d="M1419.79,-229.709C1434.81,-215.804 1459.42,-188.237 1444.5,-168 1344.55,-32.4524 1246.72,-93.3679 1082.5,-56 984.299,-33.6539 865.576,-19.7436 810.432,-14.0167"/>
<polygon fill="midnightblue" stroke="midnightblue" points="810.579,-10.5137 800.276,-12.9804 809.869,-17.4775 810.579,-10.5137"/>
</g>
<!-- Node27&#45;&gt;Node7 -->
<g id="edge39" class="edge"><title>Node27&#45;&gt;Node7</title>
<path fill="none" stroke="midnightblue" d="M1378.12,-229.975C1338.02,-219.08 1268.76,-200.262 1226.54,-188.791"/>
<polygon fill="midnightblue" stroke="midnightblue" points="1227.24,-185.356 1216.68,-186.112 1225.41,-192.111 1227.24,-185.356"/>
</g>
<!-- Node27&#45;&gt;Node23 -->
<g id="edge48" class="edge"><title>Node27&#45;&gt;Node23</title>
<path fill="none" stroke="midnightblue" d="M1395.33,-229.841C1365.72,-211.815 1299.05,-171.622 1287.5,-168 1107.63,-111.618 1050.37,-148.892 859.145,-132.104"/>
<polygon fill="midnightblue" stroke="midnightblue" points="859.326,-128.606 849.048,-131.178 858.687,-135.576 859.326,-128.606"/>
</g>
<!-- Node28 -->
<g id="node28" class="node"><title>Node28</title>
<polygon fill="none" stroke="#bfbfbf" points="1335,-168.5 1335,-187.5 1418,-187.5 1418,-168.5 1335,-168.5"/>
<text text-anchor="middle" x="1376.5" y="-175.5" font-family="Helvetica,sans-Serif" font-size="10.00">unordered_map</text>
</g>
<!-- Node27&#45;&gt;Node28 -->
<g id="edge41" class="edge"><title>Node27&#45;&gt;Node28</title>
<path fill="none" stroke="midnightblue" d="M1404.77,-229.975C1399.92,-221.227 1392.23,-207.369 1386.1,-196.309"/>
<polygon fill="midnightblue" stroke="midnightblue" points="1389.13,-194.557 1381.22,-187.509 1383.01,-197.952 1389.13,-194.557"/>
</g>
<!-- Node29 -->
<g id="node29" class="node"><title>Node29</title>
<g id="a_node29"><a xlink:href="QualityObject_8h_source.html" target="_top" xlink:title="QualityControl/QualityObject.h">
<polygon fill="none" stroke="black" points="867,-112.5 867,-131.5 1016,-131.5 1016,-112.5 867,-112.5"/>
<text text-anchor="middle" x="941.5" y="-119.5" font-family="Helvetica,sans-Serif" font-size="10.00">QualityControl/QualityObject.h</text>
</a>
</g>
</g>
<!-- Node27&#45;&gt;Node29 -->
<g id="edge42" class="edge"><title>Node27&#45;&gt;Node29</title>
<path fill="none" stroke="midnightblue" d="M1416.02,-229.935C1426.29,-215.344 1443.5,-185.55 1427.5,-168 1401.05,-138.992 1158.27,-128.401 1026.18,-124.764"/>
<polygon fill="midnightblue" stroke="midnightblue" points="1026.18,-121.262 1016.09,-124.493 1025.99,-128.26 1026.18,-121.262"/>
</g>
<!-- Node29&#45;&gt;Node14 -->
<g id="edge44" class="edge"><title>Node29&#45;&gt;Node14</title>
<path fill="none" stroke="midnightblue" d="M866.948,-112.496C777.116,-102.129 632.957,-85.0693 584.096,-75.7735"/>
<polygon fill="midnightblue" stroke="midnightblue" points="584.766,-72.338 574.259,-73.6949 583.319,-79.1868 584.766,-72.338"/>
</g>
<!-- Node29&#45;&gt;Node24 -->
<g id="edge45" class="edge"><title>Node29&#45;&gt;Node24</title>
<path fill="none" stroke="midnightblue" d="M946.454,-112.083C950.604,-104.613 956.653,-93.7244 961.767,-84.5199"/>
<polygon fill="midnightblue" stroke="midnightblue" points="964.841,-86.1924 966.638,-75.7511 958.722,-82.7929 964.841,-86.1924"/>
</g>
<!-- Node29&#45;&gt;Node25 -->
<g id="edge46" class="edge"><title>Node29&#45;&gt;Node25</title>
<path fill="none" stroke="midnightblue" d="M929.289,-112.324C917.724,-104.107 900.125,-91.6017 886.339,-81.8069"/>
<polygon fill="midnightblue" stroke="midnightblue" points="888.112,-78.7729 877.933,-75.8339 884.057,-84.4791 888.112,-78.7729"/>
</g>
<!-- Node29&#45;&gt;Node26 -->
<g id="edge47" class="edge"><title>Node29&#45;&gt;Node26</title>
<path fill="none" stroke="midnightblue" d="M895.707,-112.444C844.763,-102.925 762.466,-87.5472 707.926,-77.3563"/>
<polygon fill="midnightblue" stroke="midnightblue" points="708.551,-73.9128 698.079,-75.5164 707.266,-80.7937 708.551,-73.9128"/>
</g>
<!-- Node30 -->
<g id="node30" class="node"><title>Node30</title>
<polygon fill="none" stroke="#bfbfbf" points="1019.5,-56.5 1019.5,-75.5 1073.5,-75.5 1073.5,-56.5 1019.5,-56.5"/>
<text text-anchor="middle" x="1046.5" y="-63.5" font-family="Helvetica,sans-Serif" font-size="10.00">iostream</text>
</g>
<!-- Node29&#45;&gt;Node30 -->
<g id="edge43" class="edge"><title>Node29&#45;&gt;Node30</title>
<path fill="none" stroke="midnightblue" d="M958.37,-112.324C975.209,-103.664 1001.31,-90.2424 1020.74,-80.249"/>
<polygon fill="midnightblue" stroke="midnightblue" points="1022.38,-83.3405 1029.67,-75.6545 1019.18,-77.1155 1022.38,-83.3405"/>
</g>
<!-- Node32 -->
<g id="node32" class="node"><title>Node32</title>
<polygon fill="none" stroke="#bfbfbf" points="238.5,-112.5 238.5,-131.5 368.5,-131.5 368.5,-112.5 238.5,-112.5"/>
<text text-anchor="middle" x="303.5" y="-119.5" font-family="Helvetica,sans-Serif" font-size="10.00">InfoLogger/InfoLogger.hxx</text>
</g>
<!-- Node31&#45;&gt;Node32 -->
<g id="edge51" class="edge"><title>Node31&#45;&gt;Node32</title>
<path fill="none" stroke="midnightblue" d="M303.5,-168.083C303.5,-161.006 303.5,-150.861 303.5,-141.986"/>
<polygon fill="midnightblue" stroke="midnightblue" points="307,-141.751 303.5,-131.751 300,-141.751 307,-141.751"/>
</g>
<!-- Node33&#45;&gt;Node4 -->
<g id="edge55" class="edge"><title>Node33&#45;&gt;Node4</title>
<path fill="none" stroke="midnightblue" d="M400.771,-229.943C411.537,-227.641 423.45,-225.403 434.5,-224 780.292,-180.091 876.477,-244.22 1224.2,-187.791"/>
<polygon fill="midnightblue" stroke="midnightblue" points="1225,-191.207 1234.29,-186.13 1223.86,-184.3 1225,-191.207"/>
</g>
<!-- Node33&#45;&gt;Node7 -->
<g id="edge56" class="edge"><title>Node33&#45;&gt;Node7</title>
<path fill="none" stroke="midnightblue" d="M401.134,-229.931C411.807,-227.658 423.578,-225.438 434.5,-224 724.435,-185.819 799.834,-209.241 1091.5,-188 1112.32,-186.484 1135.56,-184.392 1154.29,-182.606"/>
<polygon fill="midnightblue" stroke="midnightblue" points="1154.85,-186.069 1164.47,-181.624 1154.18,-179.101 1154.85,-186.069"/>
</g>
<!-- Node33&#45;&gt;Node14 -->
<g id="edge54" class="edge"><title>Node33&#45;&gt;Node14</title>
<path fill="none" stroke="midnightblue" d="M403.478,-229.969C459.071,-217.303 556.59,-194.336 561.5,-188 584.49,-158.336 572.989,-111.212 563.918,-85.3981"/>
<polygon fill="midnightblue" stroke="midnightblue" points="567.086,-83.8786 560.287,-75.7528 560.535,-86.3448 567.086,-83.8786"/>
</g>
<!-- Node33&#45;&gt;Node20 -->
<g id="edge57" class="edge"><title>Node33&#45;&gt;Node20</title>
<path fill="none" stroke="midnightblue" d="M401.871,-229.949C412.353,-227.732 423.838,-225.538 434.5,-224 523.317,-211.191 772.09,-193.84 908.371,-184.887"/>
<polygon fill="midnightblue" stroke="midnightblue" points="908.637,-188.377 918.387,-184.23 908.18,-181.392 908.637,-188.377"/>
</g>
<!-- Node33&#45;&gt;Node21 -->
<g id="edge61" class="edge"><title>Node33&#45;&gt;Node21</title>
<path fill="none" stroke="midnightblue" d="M381.117,-229.975C399.086,-220.166 428.821,-203.935 449.906,-192.425"/>
<polygon fill="midnightblue" stroke="midnightblue" points="451.811,-195.373 458.912,-187.509 448.458,-189.228 451.811,-195.373"/>
</g>
<!-- Node33&#45;&gt;Node23 -->
<g id="edge60" class="edge"><title>Node33&#45;&gt;Node23</title>
<path fill="none" stroke="midnightblue" d="M402.981,-229.95C413.17,-227.81 424.228,-225.655 434.5,-224 504.93,-212.652 698.586,-233.538 753.5,-188 766.971,-176.829 771.547,-156.805 773.013,-141.923"/>
<polygon fill="midnightblue" stroke="midnightblue" points="776.516,-141.97 773.623,-131.778 769.529,-141.549 776.516,-141.97"/>
</g>
<!-- Node33&#45;&gt;Node26 -->
<g id="edge58" class="edge"><title>Node33&#45;&gt;Node26</title>
<path fill="none" stroke="midnightblue" d="M405.758,-229.894C466.015,-216.891 573.406,-193.198 580.5,-188 616.2,-161.841 637.417,-112.16 646.78,-85.3132"/>
<polygon fill="midnightblue" stroke="midnightblue" points="650.162,-86.2315 649.982,-75.6382 643.517,-84.0322 650.162,-86.2315"/>
</g>
<!-- Node33&#45;&gt;Node29 -->
<g id="edge59" class="edge"><title>Node33&#45;&gt;Node29</title>
<path fill="none" stroke="midnightblue" d="M402.614,-229.978C412.902,-227.813 424.101,-225.639 434.5,-224 584.603,-200.344 626.84,-223.874 774.5,-188 825.734,-175.552 882.32,-151.1 914.719,-135.992"/>
<polygon fill="midnightblue" stroke="midnightblue" points="916.416,-139.062 923.965,-131.627 913.428,-132.732 916.416,-139.062"/>
</g>
<!-- Node33&#45;&gt;Node31 -->
<g id="edge62" class="edge"><title>Node33&#45;&gt;Node31</title>
<path fill="none" stroke="midnightblue" d="M356.617,-229.975C347.041,-220.785 331.589,-205.956 319.814,-194.656"/>
<polygon fill="midnightblue" stroke="midnightblue" points="322.005,-191.908 312.367,-187.509 317.158,-196.958 322.005,-191.908"/>
</g>
<!-- Node34 -->
<g id="node34" class="node"><title>Node34</title>
<polygon fill="none" stroke="#bfbfbf" points="686,-168.5 686,-187.5 745,-187.5 745,-168.5 686,-168.5"/>
<text text-anchor="middle" x="715.5" y="-175.5" font-family="Helvetica,sans-Serif" font-size="10.00">functional</text>
</g>
<!-- Node33&#45;&gt;Node34 -->
<g id="edge53" class="edge"><title>Node33&#45;&gt;Node34</title>
<path fill="none" stroke="midnightblue" d="M404.108,-229.986C413.994,-227.916 424.623,-225.787 434.5,-224 539.34,-205.037 566.609,-206.681 671.5,-188 672.939,-187.744 674.404,-187.477 675.882,-187.202"/>
<polygon fill="midnightblue" stroke="midnightblue" points="676.561,-190.635 685.717,-185.306 675.236,-183.762 676.561,-190.635"/>
</g>
<!-- Node35&#45;&gt;Node5 -->
<g id="edge64" class="edge"><title>Node35&#45;&gt;Node5</title>
<path fill="none" stroke="midnightblue" d="M384.268,-291.469C330.523,-283.201 257.056,-269.771 231.5,-255 192.259,-232.319 163.5,-224.325 163.5,-179 163.5,-179 163.5,-179 163.5,-121 163.5,-90.9485 623.824,-30.6525 748.615,-14.8588"/>
<polygon fill="midnightblue" stroke="midnightblue" points="749.168,-18.3168 758.652,-13.5931 748.292,-11.3718 749.168,-18.3168"/>
</g>
<!-- Node36 -->
<g id="node36" class="node"><title>Node36</title>
<polygon fill="none" stroke="#bfbfbf" points="0,-224.5 0,-254.5 135,-254.5 135,-224.5 0,-224.5"/>
<text text-anchor="start" x="8" y="-242.5" font-family="Helvetica,sans-Serif" font-size="10.00">Configuration/Configuration</text>
<text text-anchor="middle" x="67.5" y="-231.5" font-family="Helvetica,sans-Serif" font-size="10.00">Factory.h</text>
</g>
<!-- Node35&#45;&gt;Node36 -->
<g id="edge65" class="edge"><title>Node35&#45;&gt;Node36</title>
<path fill="none" stroke="midnightblue" d="M386.745,-291.495C326.971,-282.741 231.694,-268.513 149.5,-255 148.029,-254.758 146.543,-254.512 145.047,-254.263"/>
<polygon fill="midnightblue" stroke="midnightblue" points="145.49,-250.788 135.047,-252.577 144.326,-257.691 145.49,-250.788"/>
</g>
</g>
</svg>
