<?xml version="1.0" encoding="UTF-8" standalone="no"?>
<!DOCTYPE svg PUBLIC "-//W3C//DTD SVG 1.1//EN"
 "http://www.w3.org/Graphics/SVG/1.1/DTD/svg11.dtd">
<!-- Generated by graphviz version 2.38.0 (20140413.2041)
 -->
<!-- Title: Modules/TOF/src/runTOF.cxx Pages: 1 -->
<!--zoomable 375 -->
<svg id="main" version="1.1" xmlns="http://www.w3.org/2000/svg" xmlns:xlink="http://www.w3.org/1999/xlink" xml:space="preserve" onload="init(evt)">
<style type="text/css"><![CDATA[
.edge:hover path { stroke: red; }
.edge:hover polygon { stroke: red; fill: red; }
]]></style>
<script type="text/javascript"><![CDATA[
var edges = document.getElementsByTagName('g');
if (edges && edges.length) {
  for (var i=0;i<edges.length;i++) {
    if (edges[i].id.substr(0,4)=='edge') {
      edges[i].setAttribute('class','edge');
    }
  }
}
]]></script>
        <defs>
                <circle id="rim" cx="0" cy="0" r="7"/>
                <circle id="rim2" cx="0" cy="0" r="3.5"/>
                <g id="zoomPlus">
                        <use xlink:href="#rim" fill="#404040">
                                <set attributeName="fill" to="#808080" begin="zoomplus.mouseover" end="zoomplus.mouseout"/>
                        </use>
                        <path d="M-4,0h8M0,-4v8" fill="none" stroke="white" stroke-width="1.5" pointer-events="none"/>
                </g>
                <g id="zoomMin">
                        <use xlink:href="#rim" fill="#404040">
                                <set attributeName="fill" to="#808080" begin="zoomminus.mouseover" end="zoomminus.mouseout"/>
                        </use>
                        <path d="M-4,0h8" fill="none" stroke="white" stroke-width="1.5" pointer-events="none"/>
                </g>
                <g id="dirArrow">
                        <path fill="none" stroke="white" stroke-width="1.5" d="M0,-3.0v7 M-2.5,-0.5L0,-3.0L2.5,-0.5"/>
                </g>
               <g id="resetDef">
                       <use xlink:href="#rim2" fill="#404040">
                               <set attributeName="fill" to="#808080" begin="reset.mouseover" end="reset.mouseout"/>
                       </use>
               </g>
        </defs>

<script type="text/javascript">
var viewWidth = 2054;
var viewHeight = 375;
var sectionId = 'dynsection-0';
</script>
<script xlink:href="svgpan.js"/>
<svg id="graph" class="graph">
<g id="viewport">
<title>Modules/TOF/src/runTOF.cxx</title>
<!-- Node1 -->
<g id="node1" class="node"><title>Node1</title>
<polygon fill="#bfbfbf" stroke="black" points="925.5,-347.5 925.5,-366.5 1072.5,-366.5 1072.5,-347.5 925.5,-347.5"/>
<text text-anchor="middle" x="999" y="-354.5" font-family="Helvetica,sans-Serif" font-size="10.00">Modules/TOF/src/runTOF.cxx</text>
</g>
<!-- Node2 -->
<g id="node2" class="node"><title>Node2</title>
<polygon fill="none" stroke="#bfbfbf" points="0,-291.5 0,-310.5 138,-310.5 138,-291.5 0,-291.5"/>
<text text-anchor="middle" x="69" y="-298.5" font-family="Helvetica,sans-Serif" font-size="10.00">Framework/DataSampling.h</text>
</g>
<!-- Node1&#45;&gt;Node2 -->
<g id="edge1" class="edge"><title>Node1&#45;&gt;Node2</title>
<path fill="none" stroke="midnightblue" d="M925.388,-353.652C779.289,-348.657 442.14,-335.453 148.296,-311.058"/>
<polygon fill="midnightblue" stroke="midnightblue" points="148.557,-307.568 138.3,-310.222 147.974,-314.543 148.557,-307.568"/>
</g>
<!-- Node3 -->
<g id="node3" class="node"><title>Node3</title>
<g id="a_node3"><a xlink:href="InfrastructureGenerator_8h.html" target="_top" xlink:title="QualityControl/Infrastructure\lGenerator.h">
<polygon fill="none" stroke="black" points="682,-224.5 682,-254.5 822,-254.5 822,-224.5 682,-224.5"/>
<text text-anchor="start" x="690" y="-242.5" font-family="Helvetica,sans-Serif" font-size="10.00">QualityControl/Infrastructure</text>
<text text-anchor="middle" x="752" y="-231.5" font-family="Helvetica,sans-Serif" font-size="10.00">Generator.h</text>
</a>
</g>
</g>
<!-- Node1&#45;&gt;Node3 -->
<g id="edge2" class="edge"><title>Node1&#45;&gt;Node3</title>
<path fill="none" stroke="midnightblue" d="M980.435,-347.319C940.428,-328.611 845.343,-284.148 791.305,-258.879"/>
<polygon fill="midnightblue" stroke="midnightblue" points="792.577,-255.611 782.036,-254.545 789.612,-261.952 792.577,-255.611"/>
</g>
<!-- Node7 -->
<g id="node7" class="node"><title>Node7</title>
<polygon fill="none" stroke="#bfbfbf" points="1296.5,-291.5 1296.5,-310.5 1393.5,-310.5 1393.5,-291.5 1296.5,-291.5"/>
<text text-anchor="middle" x="1345" y="-298.5" font-family="Helvetica,sans-Serif" font-size="10.00">fairlogger/Logger.h</text>
</g>
<!-- Node1&#45;&gt;Node7 -->
<g id="edge6" class="edge"><title>Node1&#45;&gt;Node7</title>
<path fill="none" stroke="midnightblue" d="M1053.87,-347.492C1109.85,-338.804 1199.52,-324.864 1286.45,-311.24"/>
<polygon fill="midnightblue" stroke="midnightblue" points="1287.15,-314.673 1296.49,-309.666 1286.07,-307.758 1287.15,-314.673"/>
</g>
<!-- Node8 -->
<g id="node8" class="node"><title>Node8</title>
<polygon fill="none" stroke="#bfbfbf" points="49,-168.5 49,-187.5 99,-187.5 99,-168.5 49,-168.5"/>
<text text-anchor="middle" x="74" y="-175.5" font-family="Helvetica,sans-Serif" font-size="10.00">TH1F.h</text>
</g>
<!-- Node1&#45;&gt;Node8 -->
<g id="edge7" class="edge"><title>Node1&#45;&gt;Node8</title>
<path fill="none" stroke="midnightblue" d="M933.558,-347.497C867.868,-338.83 763.809,-324.744 674,-311 525.216,-288.231 477.505,-316.218 340,-255 319.772,-245.994 321.123,-233.238 301,-224 223.685,-188.504 196.24,-205.568 113,-188 111.738,-187.734 110.454,-187.459 109.158,-187.178"/>
<polygon fill="midnightblue" stroke="midnightblue" points="109.666,-183.705 99.1445,-184.949 108.145,-190.538 109.666,-183.705"/>
</g>
<!-- Node9 -->
<g id="node9" class="node"><title>Node9</title>
<polygon fill="none" stroke="#bfbfbf" points="1075,-168.5 1075,-187.5 1127,-187.5 1127,-168.5 1075,-168.5"/>
<text text-anchor="middle" x="1101" y="-175.5" font-family="Helvetica,sans-Serif" font-size="10.00">memory</text>
</g>
<!-- Node1&#45;&gt;Node9 -->
<g id="edge8" class="edge"><title>Node1&#45;&gt;Node9</title>
<path fill="none" stroke="midnightblue" d="M1007.33,-347.243C1022.83,-330.543 1056.28,-292.461 1076,-255 1085.68,-236.604 1092.59,-213.74 1096.66,-197.921"/>
<polygon fill="midnightblue" stroke="midnightblue" points="1100.15,-198.356 1099.11,-187.812 1093.35,-196.702 1100.15,-198.356"/>
</g>
<!-- Node10 -->
<g id="node10" class="node"><title>Node10</title>
<polygon fill="none" stroke="#bfbfbf" points="1411.5,-291.5 1411.5,-310.5 1460.5,-310.5 1460.5,-291.5 1411.5,-291.5"/>
<text text-anchor="middle" x="1436" y="-298.5" font-family="Helvetica,sans-Serif" font-size="10.00">random</text>
</g>
<!-- Node1&#45;&gt;Node10 -->
<g id="edge9" class="edge"><title>Node1&#45;&gt;Node10</title>
<path fill="none" stroke="midnightblue" d="M1072.65,-351.055C1151.6,-345.015 1280.7,-333.013 1401.08,-310.902"/>
<polygon fill="midnightblue" stroke="midnightblue" points="1402.02,-314.287 1411.21,-309.013 1400.74,-307.405 1402.02,-314.287"/>
</g>
<!-- Node11 -->
<g id="node11" class="node"><title>Node11</title>
<polygon fill="none" stroke="#bfbfbf" points="1479,-291.5 1479,-310.5 1639,-310.5 1639,-291.5 1479,-291.5"/>
<text text-anchor="middle" x="1559" y="-298.5" font-family="Helvetica,sans-Serif" font-size="10.00">Framework/runDataProcessing.h</text>
</g>
<!-- Node1&#45;&gt;Node11 -->
<g id="edge10" class="edge"><title>Node1&#45;&gt;Node11</title>
<path fill="none" stroke="midnightblue" d="M1072.68,-349.042C1163.15,-340.478 1321.57,-325.409 1468.43,-311.052"/>
<polygon fill="midnightblue" stroke="midnightblue" points="1468.92,-314.521 1478.53,-310.064 1468.24,-307.554 1468.92,-314.521"/>
</g>
<!-- Node12 -->
<g id="node12" class="node"><title>Node12</title>
<g id="a_node12"><a xlink:href="CheckRunner_8h.html" target="_top" xlink:title="QualityControl/CheckRunner.h">
<polygon fill="none" stroke="black" points="1129,-291.5 1129,-310.5 1279,-310.5 1279,-291.5 1129,-291.5"/>
<text text-anchor="middle" x="1204" y="-298.5" font-family="Helvetica,sans-Serif" font-size="10.00">QualityControl/CheckRunner.h</text>
</a>
</g>
</g>
<!-- Node1&#45;&gt;Node12 -->
<g id="edge11" class="edge"><title>Node1&#45;&gt;Node12</title>
<path fill="none" stroke="midnightblue" d="M1031.48,-347.444C1066.72,-338.162 1123.1,-323.309 1161.76,-313.127"/>
<polygon fill="midnightblue" stroke="midnightblue" points="1162.89,-316.448 1171.67,-310.516 1161.11,-309.679 1162.89,-316.448"/>
</g>
<!-- Node35 -->
<g id="node35" class="node"><title>Node35</title>
<g id="a_node35"><a xlink:href="runnerUtils_8h.html" target="_top" xlink:title="QualityControl/runnerUtils.h">
<polygon fill="none" stroke="black" points="156.5,-291.5 156.5,-310.5 293.5,-310.5 293.5,-291.5 156.5,-291.5"/>
<text text-anchor="middle" x="225" y="-298.5" font-family="Helvetica,sans-Serif" font-size="10.00">QualityControl/runnerUtils.h</text>
</a>
</g>
</g>
<!-- Node1&#45;&gt;Node35 -->
<g id="edge63" class="edge"><title>Node1&#45;&gt;Node35</title>
<path fill="none" stroke="midnightblue" d="M925.29,-352.242C798.86,-345.564 532.568,-330.479 308,-311 306.7,-310.887 305.39,-310.771 304.07,-310.653"/>
<polygon fill="midnightblue" stroke="midnightblue" points="304.103,-307.14 293.82,-309.693 303.45,-314.11 304.103,-307.14"/>
</g>
<!-- Node37 -->
<g id="node37" class="node"><title>Node37</title>
<g id="a_node37"><a xlink:href="ExamplePrinterSpec_8h.html" target="_top" xlink:title="QualityControl/ExamplePrinter\lSpec.h">
<polygon fill="none" stroke="black" points="349.5,-224.5 349.5,-254.5 498.5,-254.5 498.5,-224.5 349.5,-224.5"/>
<text text-anchor="start" x="357.5" y="-242.5" font-family="Helvetica,sans-Serif" font-size="10.00">QualityControl/ExamplePrinter</text>
<text text-anchor="middle" x="424" y="-231.5" font-family="Helvetica,sans-Serif" font-size="10.00">Spec.h</text>
</a>
</g>
</g>
<!-- Node1&#45;&gt;Node37 -->
<g id="edge66" class="edge"><title>Node1&#45;&gt;Node37</title>
<path fill="none" stroke="midnightblue" d="M956.251,-347.413C860.56,-328.192 627.839,-281.445 504.233,-256.616"/>
<polygon fill="midnightblue" stroke="midnightblue" points="504.566,-253.113 494.073,-254.575 503.188,-259.976 504.566,-253.113"/>
</g>
<!-- Node4 -->
<g id="node4" class="node"><title>Node4</title>
<polygon fill="none" stroke="#bfbfbf" points="1145,-168.5 1145,-187.5 1189,-187.5 1189,-168.5 1145,-168.5"/>
<text text-anchor="middle" x="1167" y="-175.5" font-family="Helvetica,sans-Serif" font-size="10.00">vector</text>
</g>
<!-- Node3&#45;&gt;Node4 -->
<g id="edge3" class="edge"><title>Node3&#45;&gt;Node4</title>
<path fill="none" stroke="midnightblue" d="M822.099,-230.575C911.627,-220.241 1062.67,-202.037 1134.71,-187.946"/>
<polygon fill="midnightblue" stroke="midnightblue" points="1135.65,-191.326 1144.75,-185.898 1134.25,-184.467 1135.65,-191.326"/>
</g>
<!-- Node5 -->
<g id="node5" class="node"><title>Node5</title>
<polygon fill="none" stroke="#bfbfbf" points="712.5,-0.5 712.5,-19.5 753.5,-19.5 753.5,-0.5 712.5,-0.5"/>
<text text-anchor="middle" x="733" y="-7.5" font-family="Helvetica,sans-Serif" font-size="10.00">string</text>
</g>
<!-- Node3&#45;&gt;Node5 -->
<g id="edge4" class="edge"><title>Node3&#45;&gt;Node5</title>
<path fill="none" stroke="midnightblue" d="M700.854,-224.428C682.828,-216.738 664.461,-205.159 654,-188 619.927,-132.111 683.243,-58.9654 715.622,-27.0539"/>
<polygon fill="midnightblue" stroke="midnightblue" points="718.32,-29.3155 723.109,-19.8649 713.472,-24.2662 718.32,-29.3155"/>
</g>
<!-- Node6 -->
<g id="node6" class="node"><title>Node6</title>
<polygon fill="none" stroke="#bfbfbf" points="663,-168.5 663,-187.5 803,-187.5 803,-168.5 663,-168.5"/>
<text text-anchor="middle" x="733" y="-175.5" font-family="Helvetica,sans-Serif" font-size="10.00">Framework/WorkflowSpec.h</text>
</g>
<!-- Node3&#45;&gt;Node6 -->
<g id="edge5" class="edge"><title>Node3&#45;&gt;Node6</title>
<path fill="none" stroke="midnightblue" d="M747.497,-224.399C744.907,-216.288 741.624,-206.007 738.838,-197.281"/>
<polygon fill="midnightblue" stroke="midnightblue" points="742.141,-196.119 735.765,-187.658 735.473,-198.249 742.141,-196.119"/>
</g>
<!-- Node12&#45;&gt;Node4 -->
<g id="edge16" class="edge"><title>Node12&#45;&gt;Node4</title>
<path fill="none" stroke="midnightblue" d="M1201.34,-291.298C1195.34,-271.676 1180.65,-223.638 1172.56,-197.193"/>
<polygon fill="midnightblue" stroke="midnightblue" points="1175.91,-196.163 1169.64,-187.623 1169.21,-198.21 1175.91,-196.163"/>
</g>
<!-- Node12&#45;&gt;Node5 -->
<g id="edge14" class="edge"><title>Node12&#45;&gt;Node5</title>
<path fill="none" stroke="midnightblue" d="M1128.96,-299.926C1002.27,-298.765 752.026,-291.72 673,-255 629.679,-234.871 597,-226.769 597,-179 597,-179 597,-179 597,-121 597,-66.9695 662.693,-34.9083 702.764,-20.3774"/>
<polygon fill="midnightblue" stroke="midnightblue" points="704.041,-23.6391 712.345,-17.0581 701.75,-17.0249 704.041,-23.6391"/>
</g>
<!-- Node12&#45;&gt;Node9 -->
<g id="edge13" class="edge"><title>Node12&#45;&gt;Node9</title>
<path fill="none" stroke="midnightblue" d="M1196.59,-291.298C1179.52,-271.24 1137.17,-221.489 1115.01,-195.463"/>
<polygon fill="midnightblue" stroke="midnightblue" points="1117.49,-192.969 1108.34,-187.623 1112.16,-197.507 1117.49,-192.969"/>
</g>
<!-- Node13 -->
<g id="node13" class="node"><title>Node13</title>
<polygon fill="none" stroke="#bfbfbf" points="1413,-230 1413,-249 1459,-249 1459,-230 1413,-230"/>
<text text-anchor="middle" x="1436" y="-237" font-family="Helvetica,sans-Serif" font-size="10.00">chrono</text>
</g>
<!-- Node12&#45;&gt;Node13 -->
<g id="edge12" class="edge"><title>Node12&#45;&gt;Node13</title>
<path fill="none" stroke="midnightblue" d="M1249.42,-291.485C1289.26,-283.551 1348.55,-270.614 1399,-255 1401.42,-254.25 1403.91,-253.417 1406.4,-252.54"/>
<polygon fill="midnightblue" stroke="midnightblue" points="1407.69,-255.794 1415.83,-249.021 1405.24,-249.236 1407.69,-255.794"/>
</g>
<!-- Node14 -->
<g id="node14" class="node"><title>Node14</title>
<polygon fill="none" stroke="#bfbfbf" points="1642.5,-56.5 1642.5,-75.5 1677.5,-75.5 1677.5,-56.5 1642.5,-56.5"/>
<text text-anchor="middle" x="1660" y="-63.5" font-family="Helvetica,sans-Serif" font-size="10.00">map</text>
</g>
<!-- Node12&#45;&gt;Node14 -->
<g id="edge15" class="edge"><title>Node12&#45;&gt;Node14</title>
<path fill="none" stroke="midnightblue" d="M1253.79,-291.438C1286.6,-284.527 1329.85,-272.949 1365,-255 1384.72,-244.931 1383.48,-232.323 1404,-224 1478.91,-193.612 1711.74,-247.925 1766,-188 1781.85,-170.495 1765.68,-133.717 1747,-112 1731.3,-93.749 1706.36,-81.9227 1687.2,-74.9964"/>
<polygon fill="midnightblue" stroke="midnightblue" points="1688.11,-71.6097 1677.52,-71.7279 1685.88,-78.2421 1688.11,-71.6097"/>
</g>
<!-- Node15 -->
<g id="node15" class="node"><title>Node15</title>
<polygon fill="none" stroke="#bfbfbf" points="1477,-230 1477,-249 1555,-249 1555,-230 1477,-230"/>
<text text-anchor="middle" x="1516" y="-237" font-family="Helvetica,sans-Serif" font-size="10.00">unordered_set</text>
</g>
<!-- Node12&#45;&gt;Node15 -->
<g id="edge17" class="edge"><title>Node12&#45;&gt;Node15</title>
<path fill="none" stroke="midnightblue" d="M1267.12,-291.499C1320.88,-283.72 1400,-271.001 1468,-255 1471.89,-254.084 1475.93,-253.03 1479.95,-251.917"/>
<polygon fill="midnightblue" stroke="midnightblue" points="1481.12,-255.22 1489.75,-249.073 1479.17,-248.496 1481.12,-255.22"/>
</g>
<!-- Node16 -->
<g id="node16" class="node"><title>Node16</title>
<polygon fill="none" stroke="#bfbfbf" points="1573,-230 1573,-249 1665,-249 1665,-230 1573,-230"/>
<text text-anchor="middle" x="1619" y="-237" font-family="Helvetica,sans-Serif" font-size="10.00">Common/Timer.h</text>
</g>
<!-- Node12&#45;&gt;Node16 -->
<g id="edge18" class="edge"><title>Node12&#45;&gt;Node16</title>
<path fill="none" stroke="midnightblue" d="M1279.22,-291.794C1368.26,-281.87 1511.13,-265.227 1564,-255 1569.08,-254.017 1574.39,-252.829 1579.61,-251.561"/>
<polygon fill="midnightblue" stroke="midnightblue" points="1580.65,-254.909 1589.48,-249.057 1578.93,-248.124 1580.65,-254.909"/>
</g>
<!-- Node17 -->
<g id="node17" class="node"><title>Node17</title>
<polygon fill="none" stroke="#bfbfbf" points="471,-168.5 471,-187.5 569,-187.5 569,-168.5 471,-168.5"/>
<text text-anchor="middle" x="520" y="-175.5" font-family="Helvetica,sans-Serif" font-size="10.00">Framework/Task.h</text>
</g>
<!-- Node12&#45;&gt;Node17 -->
<g id="edge19" class="edge"><title>Node12&#45;&gt;Node17</title>
<path fill="none" stroke="midnightblue" d="M1128.97,-297.852C974.299,-292.95 630.451,-279.433 583,-255 558.059,-242.158 539.256,-214.667 528.938,-196.51"/>
<polygon fill="midnightblue" stroke="midnightblue" points="531.924,-194.673 524.094,-187.536 525.764,-197.998 531.924,-194.673"/>
</g>
<!-- Node18 -->
<g id="node18" class="node"><title>Node18</title>
<polygon fill="none" stroke="#bfbfbf" points="1683.5,-230 1683.5,-249 1800.5,-249 1800.5,-230 1683.5,-230"/>
<text text-anchor="middle" x="1742" y="-237" font-family="Helvetica,sans-Serif" font-size="10.00">Headers/DataHeader.h</text>
</g>
<!-- Node12&#45;&gt;Node18 -->
<g id="edge20" class="edge"><title>Node12&#45;&gt;Node18</title>
<path fill="none" stroke="midnightblue" d="M1279.1,-291.805C1281.76,-291.531 1284.4,-291.261 1287,-291 1458.87,-273.689 1503.23,-281.057 1674,-255 1681.14,-253.911 1688.65,-252.539 1695.98,-251.076"/>
<polygon fill="midnightblue" stroke="midnightblue" points="1696.71,-254.498 1705.8,-249.043 1695.29,-247.644 1696.71,-254.498"/>
</g>
<!-- Node19 -->
<g id="node19" class="node"><title>Node19</title>
<polygon fill="none" stroke="#bfbfbf" points="1818.5,-230 1818.5,-249 1969.5,-249 1969.5,-230 1818.5,-230"/>
<text text-anchor="middle" x="1894" y="-237" font-family="Helvetica,sans-Serif" font-size="10.00">Monitoring/MonitoringFactory.h</text>
</g>
<!-- Node12&#45;&gt;Node19 -->
<g id="edge21" class="edge"><title>Node12&#45;&gt;Node19</title>
<path fill="none" stroke="midnightblue" d="M1279.09,-291.724C1281.76,-291.473 1284.4,-291.23 1287,-291 1519.09,-270.437 1578.68,-282.853 1810,-255 1819.6,-253.845 1829.76,-252.335 1839.59,-250.727"/>
<polygon fill="midnightblue" stroke="midnightblue" points="1840.38,-254.142 1849.66,-249.026 1839.22,-247.24 1840.38,-254.142"/>
</g>
<!-- Node20 -->
<g id="node20" class="node"><title>Node20</title>
<polygon fill="none" stroke="#bfbfbf" points="1207,-168.5 1207,-187.5 1371,-187.5 1371,-168.5 1207,-168.5"/>
<text text-anchor="middle" x="1289" y="-175.5" font-family="Helvetica,sans-Serif" font-size="10.00">Framework/DataProcessorSpec.h</text>
</g>
<!-- Node12&#45;&gt;Node20 -->
<g id="edge22" class="edge"><title>Node12&#45;&gt;Node20</title>
<path fill="none" stroke="midnightblue" d="M1204.98,-291.241C1207.02,-276.23 1212.87,-245.163 1228,-224 1237.09,-211.288 1250.87,-200.687 1263.03,-192.974"/>
<polygon fill="midnightblue" stroke="midnightblue" points="1265.13,-195.794 1271.91,-187.652 1261.54,-189.789 1265.13,-195.794"/>
</g>
<!-- Node21 -->
<g id="node21" class="node"><title>Node21</title>
<g id="a_node21"><a xlink:href="CheckInterface_8h.html" target="_top" xlink:title="QualityControl/CheckInterface.h">
<polygon fill="none" stroke="black" points="1581.5,-168.5 1581.5,-187.5 1738.5,-187.5 1738.5,-168.5 1581.5,-168.5"/>
<text text-anchor="middle" x="1660" y="-175.5" font-family="Helvetica,sans-Serif" font-size="10.00">QualityControl/CheckInterface.h</text>
</a>
</g>
</g>
<!-- Node12&#45;&gt;Node21 -->
<g id="edge23" class="edge"><title>Node12&#45;&gt;Node21</title>
<path fill="none" stroke="midnightblue" d="M1279.08,-291.668C1281.75,-291.432 1284.4,-291.208 1287,-291 1325.37,-287.924 1952.5,-282.919 1979,-255 1988.49,-245.008 1988.04,-234.401 1979,-224 1949.65,-190.224 1832.39,-181.09 1748.56,-178.989"/>
<polygon fill="midnightblue" stroke="midnightblue" points="1748.59,-175.489 1738.51,-178.766 1748.43,-182.487 1748.59,-175.489"/>
</g>
<!-- Node23 -->
<g id="node23" class="node"><title>Node23</title>
<g id="a_node23"><a xlink:href="MonitorObject_8h.html" target="_top" xlink:title="QualityControl/MonitorObject.h">
<polygon fill="none" stroke="black" points="1354.5,-112.5 1354.5,-131.5 1505.5,-131.5 1505.5,-112.5 1354.5,-112.5"/>
<text text-anchor="middle" x="1430" y="-119.5" font-family="Helvetica,sans-Serif" font-size="10.00">QualityControl/MonitorObject.h</text>
</a>
</g>
</g>
<!-- Node12&#45;&gt;Node23 -->
<g id="edge49" class="edge"><title>Node12&#45;&gt;Node23</title>
<path fill="none" stroke="midnightblue" d="M1128.84,-300.174C1045.44,-298.576 918.552,-290.211 888,-255 878.97,-244.594 883.953,-237.17 888,-224 896.834,-195.248 900.051,-183.209 926,-168 1004.11,-122.22 1236.8,-139.725 1344.45,-131.914"/>
<polygon fill="midnightblue" stroke="midnightblue" points="1344.79,-135.398 1354.46,-131.076 1344.21,-128.422 1344.79,-135.398"/>
</g>
<!-- Node27 -->
<g id="node27" class="node"><title>Node27</title>
<g id="a_node27"><a xlink:href="DatabaseInterface_8h.html" target="_top" xlink:title="QualityControl/DatabaseInterface.h">
<polygon fill="none" stroke="black" points="897,-230 897,-249 1067,-249 1067,-230 897,-230"/>
<text text-anchor="middle" x="982" y="-237" font-family="Helvetica,sans-Serif" font-size="10.00">QualityControl/DatabaseInterface.h</text>
</a>
</g>
</g>
<!-- Node12&#45;&gt;Node27 -->
<g id="edge37" class="edge"><title>Node12&#45;&gt;Node27</title>
<path fill="none" stroke="midnightblue" d="M1172.19,-291.475C1133.12,-281.004 1066.74,-263.212 1023.64,-251.66"/>
<polygon fill="midnightblue" stroke="midnightblue" points="1024.31,-248.217 1013.75,-249.009 1022.5,-254.979 1024.31,-248.217"/>
</g>
<!-- Node31 -->
<g id="node31" class="node"><title>Node31</title>
<g id="a_node31"><a xlink:href="QcInfoLogger_8h.html" target="_top" xlink:title="QualityControl/QcInfoLogger.h">
<polygon fill="none" stroke="black" points="1896.5,-168.5 1896.5,-187.5 2045.5,-187.5 2045.5,-168.5 1896.5,-168.5"/>
<text text-anchor="middle" x="1971" y="-175.5" font-family="Helvetica,sans-Serif" font-size="10.00">QualityControl/QcInfoLogger.h</text>
</a>
</g>
</g>
<!-- Node12&#45;&gt;Node31 -->
<g id="edge50" class="edge"><title>Node12&#45;&gt;Node31</title>
<path fill="none" stroke="midnightblue" d="M1279.08,-291.664C1281.75,-291.429 1284.4,-291.207 1287,-291 1326.32,-287.873 1968.83,-283.586 1996,-255 2011.48,-238.711 1997.41,-212.654 1984.95,-195.682"/>
<polygon fill="midnightblue" stroke="midnightblue" points="1987.66,-193.467 1978.75,-187.736 1982.15,-197.773 1987.66,-193.467"/>
</g>
<!-- Node33 -->
<g id="node33" class="node"><title>Node33</title>
<g id="a_node33"><a xlink:href="Check_8h_source.html" target="_top" xlink:title="QualityControl/Check.h">
<polygon fill="none" stroke="black" points="1237.5,-230 1237.5,-249 1356.5,-249 1356.5,-230 1237.5,-230"/>
<text text-anchor="middle" x="1297" y="-237" font-family="Helvetica,sans-Serif" font-size="10.00">QualityControl/Check.h</text>
</a>
</g>
</g>
<!-- Node12&#45;&gt;Node33 -->
<g id="edge52" class="edge"><title>Node12&#45;&gt;Node33</title>
<path fill="none" stroke="midnightblue" d="M1217.32,-291.475C1232.38,-281.843 1257.12,-266.017 1275.04,-254.552"/>
<polygon fill="midnightblue" stroke="midnightblue" points="1277.16,-257.347 1283.7,-249.009 1273.39,-251.45 1277.16,-257.347"/>
</g>
<!-- Node21&#45;&gt;Node5 -->
<g id="edge24" class="edge"><title>Node21&#45;&gt;Node5</title>
<path fill="none" stroke="midnightblue" d="M1581.32,-171.312C1465.12,-162.629 1253.25,-145.639 1178,-132 1019.19,-103.218 834.559,-44.7362 763.243,-21.1752"/>
<polygon fill="midnightblue" stroke="midnightblue" points="764.154,-17.7896 753.56,-17.9601 761.948,-24.433 764.154,-17.7896"/>
</g>
<!-- Node21&#45;&gt;Node14 -->
<g id="edge25" class="edge"><title>Node21&#45;&gt;Node14</title>
<path fill="none" stroke="midnightblue" d="M1660,-168.368C1660,-150.617 1660,-109.666 1660,-85.5974"/>
<polygon fill="midnightblue" stroke="midnightblue" points="1663.5,-85.5914 1660,-75.5914 1656.5,-85.5915 1663.5,-85.5914"/>
</g>
<!-- Node22 -->
<g id="node22" class="node"><title>Node22</title>
<polygon fill="none" stroke="#bfbfbf" points="1525,-0.5 1525,-19.5 1581,-19.5 1581,-0.5 1525,-0.5"/>
<text text-anchor="middle" x="1553" y="-7.5" font-family="Helvetica,sans-Serif" font-size="10.00">Rtypes.h</text>
</g>
<!-- Node21&#45;&gt;Node22 -->
<g id="edge26" class="edge"><title>Node21&#45;&gt;Node22</title>
<path fill="none" stroke="midnightblue" d="M1666.06,-168.463C1680.27,-147.319 1712.63,-91.6488 1687,-56 1665.38,-25.9265 1622.67,-15.6724 1591.26,-12.3211"/>
<polygon fill="midnightblue" stroke="midnightblue" points="1591.35,-8.81603 1581.08,-11.4305 1590.74,-15.7894 1591.35,-8.81603"/>
</g>
<!-- Node21&#45;&gt;Node23 -->
<g id="edge27" class="edge"><title>Node21&#45;&gt;Node23</title>
<path fill="none" stroke="midnightblue" d="M1623.56,-168.444C1583.6,-159.063 1519.41,-143.993 1476.02,-133.804"/>
<polygon fill="midnightblue" stroke="midnightblue" points="1476.81,-130.395 1466.27,-131.516 1475.21,-137.21 1476.81,-130.395"/>
</g>
<!-- Node26 -->
<g id="node26" class="node"><title>Node26</title>
<g id="a_node26"><a xlink:href="Quality_8h.html" target="_top" xlink:title="QualityControl/Quality.h">
<polygon fill="none" stroke="black" points="1492.5,-56.5 1492.5,-75.5 1613.5,-75.5 1613.5,-56.5 1492.5,-56.5"/>
<text text-anchor="middle" x="1553" y="-63.5" font-family="Helvetica,sans-Serif" font-size="10.00">QualityControl/Quality.h</text>
</a>
</g>
</g>
<!-- Node21&#45;&gt;Node26 -->
<g id="edge36" class="edge"><title>Node21&#45;&gt;Node26</title>
<path fill="none" stroke="midnightblue" d="M1651.6,-168.368C1633.71,-149.974 1591.59,-106.671 1568.61,-83.0519"/>
<polygon fill="midnightblue" stroke="midnightblue" points="1570.84,-80.3192 1561.36,-75.5914 1565.82,-85.2 1570.84,-80.3192"/>
</g>
<!-- Node23&#45;&gt;Node5 -->
<g id="edge28" class="edge"><title>Node23&#45;&gt;Node5</title>
<path fill="none" stroke="midnightblue" d="M1429.62,-112.083C1428.47,-97.6393 1423.92,-69.3966 1406,-56 1354.11,-17.2098 889.014,-11.8566 763.883,-11.1181"/>
<polygon fill="midnightblue" stroke="midnightblue" points="763.845,-7.61799 753.827,-11.0646 763.808,-14.6179 763.845,-7.61799"/>
</g>
<!-- Node23&#45;&gt;Node14 -->
<g id="edge29" class="edge"><title>Node23&#45;&gt;Node14</title>
<path fill="none" stroke="midnightblue" d="M1467.02,-112.478C1505.89,-103.505 1568.78,-88.9151 1623,-76 1626.05,-75.2729 1629.25,-74.5059 1632.42,-73.739"/>
<polygon fill="midnightblue" stroke="midnightblue" points="1633.42,-77.0972 1642.32,-71.3375 1631.77,-70.2946 1633.42,-77.0972"/>
</g>
<!-- Node23&#45;&gt;Node22 -->
<g id="edge30" class="edge"><title>Node23&#45;&gt;Node22</title>
<path fill="none" stroke="midnightblue" d="M1435.93,-112.298C1445.18,-99.1212 1464.06,-73.7611 1484,-56 1497.45,-44.0194 1514.36,-32.9359 1528.08,-24.7664"/>
<polygon fill="midnightblue" stroke="midnightblue" points="1530.09,-27.6467 1536.98,-19.6009 1526.58,-21.592 1530.09,-27.6467"/>
</g>
<!-- Node24 -->
<g id="node24" class="node"><title>Node24</title>
<polygon fill="none" stroke="#bfbfbf" points="1338.5,-56.5 1338.5,-75.5 1397.5,-75.5 1397.5,-56.5 1338.5,-56.5"/>
<text text-anchor="middle" x="1368" y="-63.5" font-family="Helvetica,sans-Serif" font-size="10.00">TObject.h</text>
</g>
<!-- Node23&#45;&gt;Node24 -->
<g id="edge31" class="edge"><title>Node23&#45;&gt;Node24</title>
<path fill="none" stroke="midnightblue" d="M1420.04,-112.324C1410.87,-104.341 1397.06,-92.3128 1385.97,-82.6529"/>
<polygon fill="midnightblue" stroke="midnightblue" points="1387.98,-79.7624 1378.14,-75.8339 1383.38,-85.041 1387.98,-79.7624"/>
</g>
<!-- Node25 -->
<g id="node25" class="node"><title>Node25</title>
<polygon fill="none" stroke="#bfbfbf" points="1204,-56.5 1204,-75.5 1320,-75.5 1320,-56.5 1204,-56.5"/>
<text text-anchor="middle" x="1262" y="-63.5" font-family="Helvetica,sans-Serif" font-size="10.00">Common/Exceptions.h</text>
</g>
<!-- Node23&#45;&gt;Node25 -->
<g id="edge32" class="edge"><title>Node23&#45;&gt;Node25</title>
<path fill="none" stroke="midnightblue" d="M1403.38,-112.444C1374.99,-103.32 1329.86,-88.8133 1298.25,-78.6509"/>
<polygon fill="midnightblue" stroke="midnightblue" points="1299.09,-75.2445 1288.5,-75.5164 1296.94,-81.9087 1299.09,-75.2445"/>
</g>
<!-- Node23&#45;&gt;Node26 -->
<g id="edge33" class="edge"><title>Node23&#45;&gt;Node26</title>
<path fill="none" stroke="midnightblue" d="M1449.49,-112.444C1469.64,-103.596 1501.32,-89.6875 1524.33,-79.5865"/>
<polygon fill="midnightblue" stroke="midnightblue" points="1525.85,-82.7411 1533.6,-75.5164 1523.04,-76.3316 1525.85,-82.7411"/>
</g>
<!-- Node26&#45;&gt;Node5 -->
<g id="edge35" class="edge"><title>Node26&#45;&gt;Node5</title>
<path fill="none" stroke="midnightblue" d="M1492.32,-59.9881C1475.39,-58.6384 1456.98,-57.2165 1440,-56 1178.38,-37.2571 862.021,-18.5137 763.669,-12.7771"/>
<polygon fill="midnightblue" stroke="midnightblue" points="763.728,-9.27472 753.541,-12.1875 763.321,-16.2629 763.728,-9.27472"/>
</g>
<!-- Node26&#45;&gt;Node22 -->
<g id="edge34" class="edge"><title>Node26&#45;&gt;Node22</title>
<path fill="none" stroke="midnightblue" d="M1553,-56.083C1553,-49.0059 1553,-38.8611 1553,-29.9865"/>
<polygon fill="midnightblue" stroke="midnightblue" points="1556.5,-29.751 1553,-19.7511 1549.5,-29.7511 1556.5,-29.751"/>
</g>
<!-- Node27&#45;&gt;Node4 -->
<g id="edge40" class="edge"><title>Node27&#45;&gt;Node4</title>
<path fill="none" stroke="midnightblue" d="M1008.51,-229.975C1041.88,-219.242 1099.17,-200.817 1134.96,-189.305"/>
<polygon fill="midnightblue" stroke="midnightblue" points="1136.44,-192.506 1144.89,-186.112 1134.3,-185.842 1136.44,-192.506"/>
</g>
<!-- Node27&#45;&gt;Node5 -->
<g id="edge38" class="edge"><title>Node27&#45;&gt;Node5</title>
<path fill="none" stroke="midnightblue" d="M970.199,-229.919C956.944,-220.147 934.939,-203.521 917,-188 852.074,-131.825 780.063,-59.3306 748.856,-27.3689"/>
<polygon fill="midnightblue" stroke="midnightblue" points="750.984,-24.5373 741.501,-19.8121 745.968,-29.4195 750.984,-24.5373"/>
</g>
<!-- Node27&#45;&gt;Node9 -->
<g id="edge39" class="edge"><title>Node27&#45;&gt;Node9</title>
<path fill="none" stroke="midnightblue" d="M999.05,-229.975C1018.84,-220.078 1051.72,-203.642 1074.77,-192.115"/>
<polygon fill="midnightblue" stroke="midnightblue" points="1076.6,-195.112 1083.98,-187.509 1073.47,-188.851 1076.6,-195.112"/>
</g>
<!-- Node27&#45;&gt;Node23 -->
<g id="edge48" class="edge"><title>Node27&#45;&gt;Node23</title>
<path fill="none" stroke="midnightblue" d="M989.257,-229.738C1002.63,-214.28 1032.83,-182.44 1066,-168 1078.62,-162.504 1240.4,-143.887 1343.98,-132.392"/>
<polygon fill="midnightblue" stroke="midnightblue" points="1344.58,-135.848 1354.13,-131.268 1343.81,-128.891 1344.58,-135.848"/>
</g>
<!-- Node28 -->
<g id="node28" class="node"><title>Node28</title>
<polygon fill="none" stroke="#bfbfbf" points="935.5,-168.5 935.5,-187.5 1018.5,-187.5 1018.5,-168.5 935.5,-168.5"/>
<text text-anchor="middle" x="977" y="-175.5" font-family="Helvetica,sans-Serif" font-size="10.00">unordered_map</text>
</g>
<!-- Node27&#45;&gt;Node28 -->
<g id="edge41" class="edge"><title>Node27&#45;&gt;Node28</title>
<path fill="none" stroke="midnightblue" d="M981.284,-229.975C980.578,-221.58 979.477,-208.481 978.568,-197.663"/>
<polygon fill="midnightblue" stroke="midnightblue" points="982.04,-197.181 977.715,-187.509 975.065,-197.767 982.04,-197.181"/>
</g>
<!-- Node29 -->
<g id="node29" class="node"><title>Node29</title>
<g id="a_node29"><a xlink:href="QualityObject_8h_source.html" target="_top" xlink:title="QualityControl/QualityObject.h">
<polygon fill="none" stroke="black" points="1187.5,-112.5 1187.5,-131.5 1336.5,-131.5 1336.5,-112.5 1187.5,-112.5"/>
<text text-anchor="middle" x="1262" y="-119.5" font-family="Helvetica,sans-Serif" font-size="10.00">QualityControl/QualityObject.h</text>
</a>
</g>
</g>
<!-- Node27&#45;&gt;Node29 -->
<g id="edge42" class="edge"><title>Node27&#45;&gt;Node29</title>
<path fill="none" stroke="midnightblue" d="M966.341,-229.823C943.873,-216.303 907.164,-189.527 926,-168 958,-131.429 1088.53,-123.314 1177.15,-122.161"/>
<polygon fill="midnightblue" stroke="midnightblue" points="1177.24,-125.661 1187.21,-122.058 1177.17,-118.661 1177.24,-125.661"/>
</g>
<!-- Node29&#45;&gt;Node14 -->
<g id="edge44" class="edge"><title>Node29&#45;&gt;Node14</title>
<path fill="none" stroke="midnightblue" d="M1336.62,-112.72C1425.82,-102.643 1569.73,-85.7659 1623,-76 1626.09,-75.4341 1629.3,-74.7687 1632.49,-74.06"/>
<polygon fill="midnightblue" stroke="midnightblue" points="1633.47,-77.4245 1642.4,-71.718 1631.86,-70.6122 1633.47,-77.4245"/>
</g>
<!-- Node29&#45;&gt;Node24 -->
<g id="edge45" class="edge"><title>Node29&#45;&gt;Node24</title>
<path fill="none" stroke="midnightblue" d="M1279.03,-112.324C1296.03,-103.664 1322.38,-90.2424 1341.99,-80.249"/>
<polygon fill="midnightblue" stroke="midnightblue" points="1343.69,-83.3125 1351.01,-75.6545 1340.51,-77.0752 1343.69,-83.3125"/>
</g>
<!-- Node29&#45;&gt;Node25 -->
<g id="edge46" class="edge"><title>Node29&#45;&gt;Node25</title>
<path fill="none" stroke="midnightblue" d="M1262,-112.083C1262,-105.006 1262,-94.8611 1262,-85.9865"/>
<polygon fill="midnightblue" stroke="midnightblue" points="1265.5,-85.751 1262,-75.7511 1258.5,-85.7511 1265.5,-85.751"/>
</g>
<!-- Node29&#45;&gt;Node26 -->
<g id="edge47" class="edge"><title>Node29&#45;&gt;Node26</title>
<path fill="none" stroke="midnightblue" d="M1308.11,-112.444C1359.41,-102.925 1442.27,-87.5472 1497.19,-77.3563"/>
<polygon fill="midnightblue" stroke="midnightblue" points="1497.91,-80.7823 1507.11,-75.5164 1496.64,-73.8998 1497.91,-80.7823"/>
</g>
<!-- Node30 -->
<g id="node30" class="node"><title>Node30</title>
<polygon fill="none" stroke="#bfbfbf" points="1132,-56.5 1132,-75.5 1186,-75.5 1186,-56.5 1132,-56.5"/>
<text text-anchor="middle" x="1159" y="-63.5" font-family="Helvetica,sans-Serif" font-size="10.00">iostream</text>
</g>
<!-- Node29&#45;&gt;Node30 -->
<g id="edge43" class="edge"><title>Node29&#45;&gt;Node30</title>
<path fill="none" stroke="midnightblue" d="M1245.45,-112.324C1229.01,-103.703 1203.57,-90.3643 1184.53,-80.3855"/>
<polygon fill="midnightblue" stroke="midnightblue" points="1185.99,-77.198 1175.51,-75.6545 1182.74,-83.3977 1185.99,-77.198"/>
</g>
<!-- Node32 -->
<g id="node32" class="node"><title>Node32</title>
<polygon fill="none" stroke="#bfbfbf" points="1906,-112.5 1906,-131.5 2036,-131.5 2036,-112.5 1906,-112.5"/>
<text text-anchor="middle" x="1971" y="-119.5" font-family="Helvetica,sans-Serif" font-size="10.00">InfoLogger/InfoLogger.hxx</text>
</g>
<!-- Node31&#45;&gt;Node32 -->
<g id="edge51" class="edge"><title>Node31&#45;&gt;Node32</title>
<path fill="none" stroke="midnightblue" d="M1971,-168.083C1971,-161.006 1971,-150.861 1971,-141.986"/>
<polygon fill="midnightblue" stroke="midnightblue" points="1974.5,-141.751 1971,-131.751 1967.5,-141.751 1974.5,-141.751"/>
</g>
<!-- Node33&#45;&gt;Node4 -->
<g id="edge55" class="edge"><title>Node33&#45;&gt;Node4</title>
<path fill="none" stroke="midnightblue" d="M1278.37,-229.975C1256.56,-219.99 1220.2,-203.348 1194.98,-191.807"/>
<polygon fill="midnightblue" stroke="midnightblue" points="1196.14,-188.488 1185.59,-187.509 1193.23,-194.853 1196.14,-188.488"/>
</g>
<!-- Node33&#45;&gt;Node9 -->
<g id="edge56" class="edge"><title>Node33&#45;&gt;Node9</title>
<path fill="none" stroke="midnightblue" d="M1268.92,-229.975C1234.13,-219.415 1174.82,-201.41 1136.8,-189.868"/>
<polygon fill="midnightblue" stroke="midnightblue" points="1137.74,-186.494 1127.15,-186.939 1135.7,-193.193 1137.74,-186.494"/>
</g>
<!-- Node33&#45;&gt;Node14 -->
<g id="edge54" class="edge"><title>Node33&#45;&gt;Node14</title>
<path fill="none" stroke="midnightblue" d="M1336.82,-229.952C1347.85,-227.787 1359.86,-225.62 1371,-224 1412.64,-217.947 1719.69,-219.137 1748,-188 1780.54,-152.208 1719.17,-104.462 1683.3,-81.092"/>
<polygon fill="midnightblue" stroke="midnightblue" points="1685.12,-78.1022 1674.81,-75.6977 1681.37,-84.012 1685.12,-78.1022"/>
</g>
<!-- Node33&#45;&gt;Node20 -->
<g id="edge57" class="edge"><title>Node33&#45;&gt;Node20</title>
<path fill="none" stroke="midnightblue" d="M1295.85,-229.975C1294.73,-221.58 1292.96,-208.481 1291.51,-197.663"/>
<polygon fill="midnightblue" stroke="midnightblue" points="1294.95,-196.953 1290.14,-187.509 1288.01,-197.886 1294.95,-196.953"/>
</g>
<!-- Node33&#45;&gt;Node21 -->
<g id="edge61" class="edge"><title>Node33&#45;&gt;Node21</title>
<path fill="none" stroke="midnightblue" d="M1339.21,-229.934C1349.59,-227.909 1360.68,-225.813 1371,-224 1445.9,-210.836 1532.07,-197.674 1590.69,-189.017"/>
<polygon fill="midnightblue" stroke="midnightblue" points="1591.56,-192.426 1600.94,-187.507 1590.54,-185.501 1591.56,-192.426"/>
</g>
<!-- Node33&#45;&gt;Node23 -->
<g id="edge60" class="edge"><title>Node33&#45;&gt;Node23</title>
<path fill="none" stroke="midnightblue" d="M1324.5,-229.976C1346.39,-222.034 1376.62,-208.332 1397,-188 1410.14,-174.893 1419.05,-155.477 1424.27,-141.279"/>
<polygon fill="midnightblue" stroke="midnightblue" points="1427.64,-142.224 1427.55,-131.629 1421.02,-139.971 1427.64,-142.224"/>
</g>
<!-- Node33&#45;&gt;Node26 -->
<g id="edge58" class="edge"><title>Node33&#45;&gt;Node26</title>
<path fill="none" stroke="midnightblue" d="M1339.99,-229.98C1407.38,-216.533 1530.64,-191.546 1534,-188 1560.11,-160.432 1559.04,-112.448 1556,-85.9443"/>
<polygon fill="midnightblue" stroke="midnightblue" points="1559.43,-85.1596 1554.61,-75.7253 1552.49,-86.107 1559.43,-85.1596"/>
</g>
<!-- Node33&#45;&gt;Node29 -->
<g id="edge59" class="edge"><title>Node33&#45;&gt;Node29</title>
<path fill="none" stroke="midnightblue" d="M1322.31,-229.976C1353.09,-218.187 1398.77,-195.247 1380,-168 1368.77,-151.702 1350.79,-141.303 1332.22,-134.669"/>
<polygon fill="midnightblue" stroke="midnightblue" points="1333.07,-131.267 1322.48,-131.531 1330.93,-137.93 1333.07,-131.267"/>
</g>
<!-- Node33&#45;&gt;Node31 -->
<g id="edge62" class="edge"><title>Node33&#45;&gt;Node31</title>
<path fill="none" stroke="midnightblue" d="M1355.52,-229.973C1371.24,-227.845 1388.25,-225.691 1404,-224 1574.66,-205.678 1774.98,-191.491 1885.99,-184.27"/>
<polygon fill="midnightblue" stroke="midnightblue" points="1886.37,-187.753 1896.12,-183.614 1885.92,-180.767 1886.37,-187.753"/>
</g>
<!-- Node34 -->
<g id="node34" class="node"><title>Node34</title>
<polygon fill="none" stroke="#bfbfbf" points="1465.5,-168.5 1465.5,-187.5 1524.5,-187.5 1524.5,-168.5 1465.5,-168.5"/>
<text text-anchor="middle" x="1495" y="-175.5" font-family="Helvetica,sans-Serif" font-size="10.00">functional</text>
</g>
<!-- Node33&#45;&gt;Node34 -->
<g id="edge53" class="edge"><title>Node33&#45;&gt;Node34</title>
<path fill="none" stroke="midnightblue" d="M1325.37,-229.975C1359.92,-219.592 1418.42,-202.012 1456.88,-190.454"/>
<polygon fill="midnightblue" stroke="midnightblue" points="1458.11,-193.739 1466.68,-187.509 1456.1,-187.035 1458.11,-193.739"/>
</g>
<!-- Node35&#45;&gt;Node5 -->
<g id="edge64" class="edge"><title>Node35&#45;&gt;Node5</title>
<path fill="none" stroke="midnightblue" d="M169.256,-291.46C108.855,-278.671 21,-248.179 21,-179 21,-179 21,-179 21,-121 21,-50.9767 565.811,-19.2886 702.289,-12.4492"/>
<polygon fill="midnightblue" stroke="midnightblue" points="702.644,-15.936 712.459,-11.9479 702.299,-8.94451 702.644,-15.936"/>
</g>
<!-- Node36 -->
<g id="node36" class="node"><title>Node36</title>
<polygon fill="none" stroke="#bfbfbf" points="157.5,-224.5 157.5,-254.5 292.5,-254.5 292.5,-224.5 157.5,-224.5"/>
<text text-anchor="start" x="165.5" y="-242.5" font-family="Helvetica,sans-Serif" font-size="10.00">Configuration/Configuration</text>
<text text-anchor="middle" x="225" y="-231.5" font-family="Helvetica,sans-Serif" font-size="10.00">Factory.h</text>
</g>
<!-- Node35&#45;&gt;Node36 -->
<g id="edge65" class="edge"><title>Node35&#45;&gt;Node36</title>
<path fill="none" stroke="midnightblue" d="M225,-291.475C225,-284.471 225,-274.192 225,-264.696"/>
<polygon fill="midnightblue" stroke="midnightblue" points="228.5,-264.523 225,-254.523 221.5,-264.523 228.5,-264.523"/>
</g>
<!-- Node37&#45;&gt;Node5 -->
<g id="edge67" class="edge"><title>Node37&#45;&gt;Node5</title>
<path fill="none" stroke="midnightblue" d="M349.205,-226.102C267.994,-212.467 149.301,-191.954 146,-188 140.304,-181.176 140.587,-175.051 146,-168 215.939,-76.8963 591.589,-27.187 702.285,-14.3661"/>
<polygon fill="midnightblue" stroke="midnightblue" points="702.902,-17.8185 712.441,-13.2078 702.109,-10.8636 702.902,-17.8185"/>
</g>
<!-- Node37&#45;&gt;Node8 -->
<g id="edge69" class="edge"><title>Node37&#45;&gt;Node8</title>
<path fill="none" stroke="midnightblue" d="M349.11,-226.143C344.675,-225.417 340.279,-224.698 336,-224 236.915,-207.839 211.522,-207.298 113,-188 111.734,-187.752 110.447,-187.493 109.148,-187.225"/>
<polygon fill="midnightblue" stroke="midnightblue" points="109.636,-183.75 99.1225,-185.057 108.157,-190.592 109.636,-183.75"/>
</g>
<!-- Node37&#45;&gt;Node9 -->
<g id="edge68" class="edge"><title>Node37&#45;&gt;Node9</title>
<path fill="none" stroke="midnightblue" d="M498.819,-233.14C612.883,-224.764 837.062,-207.497 1027,-188 1039.35,-186.733 1052.83,-185.152 1064.86,-183.67"/>
<polygon fill="midnightblue" stroke="midnightblue" points="1065.51,-187.116 1075,-182.404 1064.64,-180.17 1065.51,-187.116"/>
</g>
<!-- Node37&#45;&gt;Node17 -->
<g id="edge71" class="edge"><title>Node37&#45;&gt;Node17</title>
<path fill="none" stroke="midnightblue" d="M446.751,-224.399C461.995,-214.951 481.989,-202.559 497.236,-193.109"/>
<polygon fill="midnightblue" stroke="midnightblue" points="499.375,-195.901 506.031,-187.658 495.687,-189.951 499.375,-195.901"/>
</g>
<!-- Node37&#45;&gt;Node23 -->
<g id="edge73" class="edge"><title>Node37&#45;&gt;Node23</title>
<path fill="none" stroke="midnightblue" d="M427.198,-224.218C431.775,-207.506 441.955,-180.528 462,-168 542.991,-117.382 1209.15,-137.96 1344.36,-131.835"/>
<polygon fill="midnightblue" stroke="midnightblue" points="1344.7,-135.321 1354.48,-131.253 1344.29,-128.333 1344.7,-135.321"/>
</g>
<!-- Node37&#45;&gt;Node29 -->
<g id="edge74" class="edge"><title>Node37&#45;&gt;Node29</title>
<path fill="none" stroke="midnightblue" d="M420.156,-224.359C416.741,-208.298 414.301,-182.453 429,-168 455.372,-142.068 970.177,-128.866 1177.03,-124.592"/>
<polygon fill="midnightblue" stroke="midnightblue" points="1177.31,-128.087 1187.24,-124.383 1177.17,-121.088 1177.31,-128.087"/>
</g>
<!-- Node38 -->
<g id="node38" class="node"><title>Node38</title>
<polygon fill="none" stroke="#bfbfbf" points="307.5,-168.5 307.5,-187.5 376.5,-187.5 376.5,-168.5 307.5,-168.5"/>
<text text-anchor="middle" x="342" y="-175.5" font-family="Helvetica,sans-Serif" font-size="10.00">TObjArray.h</text>
</g>
<!-- Node37&#45;&gt;Node38 -->
<g id="edge70" class="edge"><title>Node37&#45;&gt;Node38</title>
<path fill="none" stroke="midnightblue" d="M404.567,-224.399C391.792,-215.129 375.111,-203.025 362.186,-193.647"/>
<polygon fill="midnightblue" stroke="midnightblue" points="364.081,-190.698 353.932,-187.658 359.97,-196.364 364.081,-190.698"/>
</g>
<!-- Node39 -->
<g id="node39" class="node"><title>Node39</title>
<polygon fill="none" stroke="#bfbfbf" points="155,-168.5 155,-187.5 289,-187.5 289,-168.5 155,-168.5"/>
<text text-anchor="middle" x="222" y="-175.5" font-family="Helvetica,sans-Serif" font-size="10.00">Framework/DataRefUtils.h</text>
</g>
<!-- Node37&#45;&gt;Node39 -->
<g id="edge72" class="edge"><title>Node37&#45;&gt;Node39</title>
<path fill="none" stroke="midnightblue" d="M376.385,-224.475C341.079,-214.075 293.56,-200.078 260.608,-190.372"/>
<polygon fill="midnightblue" stroke="midnightblue" points="261.46,-186.975 250.879,-187.506 259.482,-193.689 261.46,-186.975"/>
</g>
</g>
</svg>
        <g id="navigator" transform="translate(0 0)" fill="#404254">
                <rect fill="#f2f5e9" fill-opacity="0.5" stroke="#606060" stroke-width=".5" x="0" y="0" width="60" height="60"/>
                <use id="zoomplus" xlink:href="#zoomPlus" x="17" y="9" onmousedown="handleZoom(evt,'in')"/>
                <use id="zoomminus" xlink:href="#zoomMin" x="42" y="9" onmousedown="handleZoom(evt,'out')"/>
                <use id="reset" xlink:href="#resetDef" x="30" y="36" onmousedown="handleReset()"/>
                <g id="arrowUp" xlink:href="#dirArrow" transform="translate(30 24)" onmousedown="handlePan(0,-1)">
                  <use xlink:href="#rim" fill="#404040">
                        <set attributeName="fill" to="#808080" begin="arrowUp.mouseover" end="arrowUp.mouseout"/>
                  </use>
                  <path fill="none" stroke="white" stroke-width="1.5" d="M0,-3.0v7 M-2.5,-0.5L0,-3.0L2.5,-0.5"/>
                </g>
                <g id="arrowRight" xlink:href="#dirArrow" transform="rotate(90) translate(36 -43)" onmousedown="handlePan(1,0)">
                  <use xlink:href="#rim" fill="#404040">
                        <set attributeName="fill" to="#808080" begin="arrowRight.mouseover" end="arrowRight.mouseout"/>
                  </use>
                  <path fill="none" stroke="white" stroke-width="1.5" d="M0,-3.0v7 M-2.5,-0.5L0,-3.0L2.5,-0.5"/>
                </g>
                <g id="arrowDown" xlink:href="#dirArrow" transform="rotate(180) translate(-30 -48)" onmousedown="handlePan(0,1)">
                  <use xlink:href="#rim" fill="#404040">
                        <set attributeName="fill" to="#808080" begin="arrowDown.mouseover" end="arrowDown.mouseout"/>
                  </use>
                  <path fill="none" stroke="white" stroke-width="1.5" d="M0,-3.0v7 M-2.5,-0.5L0,-3.0L2.5,-0.5"/>
                </g>
                <g id="arrowLeft" xlink:href="#dirArrow" transform="rotate(270) translate(-36 17)" onmousedown="handlePan(-1,0)">
                  <use xlink:href="#rim" fill="#404040">
                        <set attributeName="fill" to="#808080" begin="arrowLeft.mouseover" end="arrowLeft.mouseout"/>
                  </use>
                  <path fill="none" stroke="white" stroke-width="1.5" d="M0,-3.0v7 M-2.5,-0.5L0,-3.0L2.5,-0.5"/>
                </g>
        </g>
        <svg viewBox="0 0 15 15" width="100%" height="30px" preserveAspectRatio="xMaxYMin meet">
         <g id="arrow_out" transform="scale(0.3 0.3)">
          <a xlink:href="runTOF_8cxx__incl_org.svg" target="_base">
           <rect id="button" ry="5" rx="5" y="6" x="6" height="38" width="38"
                fill="#f2f5e9" fill-opacity="0.5" stroke="#606060" stroke-width="1.0"/>
           <path id="arrow"
             d="M 11.500037,31.436501 C 11.940474,20.09759 22.043105,11.32322 32.158766,21.979434 L 37.068811,17.246167 C 37.068811,17.246167 37.088388,32 37.088388,32 L 22.160133,31.978069 C 22.160133,31.978069 26.997745,27.140456 26.997745,27.140456 C 18.528582,18.264221 13.291696,25.230495 11.500037,31.436501 z"
             style="fill:#404040;"/>
          </a>
         </g>
        </svg>
</svg>
