<?xml version="1.0" encoding="UTF-8" standalone="no"?>
<!DOCTYPE svg PUBLIC "-//W3C//DTD SVG 1.1//EN"
 "http://www.w3.org/Graphics/SVG/1.1/DTD/svg11.dtd">
<!-- Generated by graphviz version 2.38.0 (20140413.2041)
 -->
<!-- Title: Modules/Skeleton/include/Skeleton/SkeletonCheck.h Pages: 1 -->
<!--zoomable 263 -->
<svg id="main" version="1.1" xmlns="http://www.w3.org/2000/svg" xmlns:xlink="http://www.w3.org/1999/xlink" xml:space="preserve" onload="init(evt)">
<style type="text/css"><![CDATA[
.edge:hover path { stroke: red; }
.edge:hover polygon { stroke: red; fill: red; }
]]></style>
<script type="text/javascript"><![CDATA[
var edges = document.getElementsByTagName('g');
if (edges && edges.length) {
  for (var i=0;i<edges.length;i++) {
    if (edges[i].id.substr(0,4)=='edge') {
      edges[i].setAttribute('class','edge');
    }
  }
}
]]></script>
        <defs>
                <circle id="rim" cx="0" cy="0" r="7"/>
                <circle id="rim2" cx="0" cy="0" r="3.5"/>
                <g id="zoomPlus">
                        <use xlink:href="#rim" fill="#404040">
                                <set attributeName="fill" to="#808080" begin="zoomplus.mouseover" end="zoomplus.mouseout"/>
                        </use>
                        <path d="M-4,0h8M0,-4v8" fill="none" stroke="white" stroke-width="1.5" pointer-events="none"/>
                </g>
                <g id="zoomMin">
                        <use xlink:href="#rim" fill="#404040">
                                <set attributeName="fill" to="#808080" begin="zoomminus.mouseover" end="zoomminus.mouseout"/>
                        </use>
                        <path d="M-4,0h8" fill="none" stroke="white" stroke-width="1.5" pointer-events="none"/>
                </g>
                <g id="dirArrow">
                        <path fill="none" stroke="white" stroke-width="1.5" d="M0,-3.0v7 M-2.5,-0.5L0,-3.0L2.5,-0.5"/>
                </g>
               <g id="resetDef">
                       <use xlink:href="#rim2" fill="#404040">
                               <set attributeName="fill" to="#808080" begin="reset.mouseover" end="reset.mouseout"/>
                       </use>
               </g>
        </defs>

<script type="text/javascript">
var viewWidth = 501;
var viewHeight = 263;
var sectionId = 'dynsection-0';
</script>
<script xlink:href="svgpan.js"/>
<svg id="graph" class="graph">
<g id="viewport">
<title>Modules/Skeleton/include/Skeleton/SkeletonCheck.h</title>
<!-- Node1 -->
<g id="node1" class="node"><title>Node1</title>
<polygon fill="#bfbfbf" stroke="black" points="54.7359,-224.5 54.7359,-254.5 190.736,-254.5 190.736,-224.5 54.7359,-224.5"/>
<text text-anchor="start" x="62.7359" y="-242.5" font-family="Helvetica,sans-Serif" font-size="10.00">Modules/Skeleton/include</text>
<text text-anchor="middle" x="122.736" y="-231.5" font-family="Helvetica,sans-Serif" font-size="10.00">/Skeleton/SkeletonCheck.h</text>
</g>
<!-- Node2 -->
<g id="node2" class="node"><title>Node2</title>
<g id="a_node2"><a xlink:href="CheckInterface_8h.html" target="_top" xlink:title="QualityControl/CheckInterface.h">
<polygon fill="none" stroke="black" points="44.2359,-168.5 44.2359,-187.5 201.236,-187.5 201.236,-168.5 44.2359,-168.5"/>
<text text-anchor="middle" x="122.736" y="-175.5" font-family="Helvetica,sans-Serif" font-size="10.00">QualityControl/CheckInterface.h</text>
</a>
</g>
</g>
<!-- Node1&#45;&gt;Node2 -->
<g id="edge1" class="edge"><title>Node1&#45;&gt;Node2</title>
<path fill="none" stroke="midnightblue" d="M122.736,-224.399C122.736,-216.466 122.736,-206.458 122.736,-197.858"/>
<polygon fill="midnightblue" stroke="midnightblue" points="126.236,-197.658 122.736,-187.658 119.236,-197.658 126.236,-197.658"/>
</g>
<!-- Node3 -->
<g id="node3" class="node"><title>Node3</title>
<polygon fill="none" stroke="#bfbfbf" points="110.236,-0.5 110.236,-19.5 151.236,-19.5 151.236,-0.5 110.236,-0.5"/>
<text text-anchor="middle" x="130.736" y="-7.5" font-family="Helvetica,sans-Serif" font-size="10.00">string</text>
</g>
<!-- Node2&#45;&gt;Node3 -->
<g id="edge2" class="edge"><title>Node2&#45;&gt;Node3</title>
<path fill="none" stroke="midnightblue" d="M102.639,-168.424C61.6334,-149.694 -25.1383,-103.032 7.73591,-56 28.3874,-26.4544 70.6303,-16.2449 99.8035,-12.7536"/>
<polygon fill="midnightblue" stroke="midnightblue" points="100.292,-16.2223 109.896,-11.7479 99.5982,-9.2568 100.292,-16.2223"/>
</g>
<!-- Node4 -->
<g id="node4" class="node"><title>Node4</title>
<polygon fill="none" stroke="#bfbfbf" points="17.2359,-56.5 17.2359,-75.5 52.2359,-75.5 52.2359,-56.5 17.2359,-56.5"/>
<text text-anchor="middle" x="34.7359" y="-63.5" font-family="Helvetica,sans-Serif" font-size="10.00">map</text>
</g>
<!-- Node2&#45;&gt;Node4 -->
<g id="edge3" class="edge"><title>Node2&#45;&gt;Node4</title>
<path fill="none" stroke="midnightblue" d="M115.831,-168.368C101.244,-150.135 67.0765,-107.426 48.0761,-83.6752"/>
<polygon fill="midnightblue" stroke="midnightblue" points="50.5891,-81.2137 41.609,-75.5914 45.123,-85.5866 50.5891,-81.2137"/>
</g>
<!-- Node5 -->
<g id="node5" class="node"><title>Node5</title>
<polygon fill="none" stroke="#bfbfbf" points="229.736,-0.5 229.736,-19.5 285.736,-19.5 285.736,-0.5 229.736,-0.5"/>
<text text-anchor="middle" x="257.736" y="-7.5" font-family="Helvetica,sans-Serif" font-size="10.00">Rtypes.h</text>
</g>
<!-- Node2&#45;&gt;Node5 -->
<g id="edge4" class="edge"><title>Node2&#45;&gt;Node5</title>
<path fill="none" stroke="midnightblue" d="M189.485,-168.457C285.098,-154.671 453.446,-124.097 488.736,-76 493.994,-68.8333 494.389,-62.86 488.736,-56 464.777,-26.9229 355.45,-16.3861 296.19,-12.7671"/>
<polygon fill="midnightblue" stroke="midnightblue" points="296.271,-9.26603 286.087,-12.1875 295.87,-16.2545 296.271,-9.26603"/>
</g>
<!-- Node6 -->
<g id="node6" class="node"><title>Node6</title>
<g id="a_node6"><a xlink:href="MonitorObject_8h.html" target="_top" xlink:title="QualityControl/MonitorObject.h">
<polygon fill="none" stroke="black" points="151.236,-112.5 151.236,-131.5 302.236,-131.5 302.236,-112.5 151.236,-112.5"/>
<text text-anchor="middle" x="226.736" y="-119.5" font-family="Helvetica,sans-Serif" font-size="10.00">QualityControl/MonitorObject.h</text>
</a>
</g>
</g>
<!-- Node2&#45;&gt;Node6 -->
<g id="edge5" class="edge"><title>Node2&#45;&gt;Node6</title>
<path fill="none" stroke="midnightblue" d="M139.445,-168.324C156.048,-159.703 181.738,-146.364 200.956,-136.386"/>
<polygon fill="midnightblue" stroke="midnightblue" points="202.806,-139.369 210.068,-131.655 199.58,-133.156 202.806,-139.369"/>
</g>
<!-- Node9 -->
<g id="node9" class="node"><title>Node9</title>
<g id="a_node9"><a xlink:href="Quality_8h.html" target="_top" xlink:title="QualityControl/Quality.h">
<polygon fill="none" stroke="black" points="70.2359,-56.5 70.2359,-75.5 191.236,-75.5 191.236,-56.5 70.2359,-56.5"/>
<text text-anchor="middle" x="130.736" y="-63.5" font-family="Helvetica,sans-Serif" font-size="10.00">QualityControl/Quality.h</text>
</a>
</g>
</g>
<!-- Node2&#45;&gt;Node9 -->
<g id="edge14" class="edge"><title>Node2&#45;&gt;Node9</title>
<path fill="none" stroke="midnightblue" d="M123.364,-168.368C124.655,-150.617 127.633,-109.666 129.383,-85.5974"/>
<polygon fill="midnightblue" stroke="midnightblue" points="132.876,-85.819 130.111,-75.5914 125.895,-85.3112 132.876,-85.819"/>
</g>
<!-- Node6&#45;&gt;Node3 -->
<g id="edge6" class="edge"><title>Node6&#45;&gt;Node3</title>
<path fill="none" stroke="midnightblue" d="M224.835,-112.134C221.599,-98.7422 213.949,-73.1054 199.736,-56 188.745,-42.7725 172.855,-32.0427 159.094,-24.3827"/>
<polygon fill="midnightblue" stroke="midnightblue" points="160.47,-21.1515 149.993,-19.577 157.202,-27.3415 160.47,-21.1515"/>
</g>
<!-- Node6&#45;&gt;Node4 -->
<g id="edge7" class="edge"><title>Node6&#45;&gt;Node4</title>
<path fill="none" stroke="midnightblue" d="M192.522,-112.456C160.861,-104.389 112.294,-91.6073 62.0381,-76.2623"/>
<polygon fill="midnightblue" stroke="midnightblue" points="62.8916,-72.863 52.3043,-73.2641 60.8309,-79.5528 62.8916,-72.863"/>
</g>
<!-- Node6&#45;&gt;Node5 -->
<g id="edge8" class="edge"><title>Node6&#45;&gt;Node5</title>
<path fill="none" stroke="midnightblue" d="M229.168,-112.368C234.194,-94.5366 245.816,-53.2953 252.587,-29.2717"/>
<polygon fill="midnightblue" stroke="midnightblue" points="255.971,-30.1659 255.315,-19.5914 249.233,-28.2671 255.971,-30.1659"/>
</g>
<!-- Node7 -->
<g id="node7" class="node"><title>Node7</title>
<polygon fill="none" stroke="#bfbfbf" points="286.236,-56.5 286.236,-75.5 345.236,-75.5 345.236,-56.5 286.236,-56.5"/>
<text text-anchor="middle" x="315.736" y="-63.5" font-family="Helvetica,sans-Serif" font-size="10.00">TObject.h</text>
</g>
<!-- Node6&#45;&gt;Node7 -->
<g id="edge9" class="edge"><title>Node6&#45;&gt;Node7</title>
<path fill="none" stroke="midnightblue" d="M241.035,-112.324C254.919,-103.9 276.228,-90.9709 292.54,-81.0741"/>
<polygon fill="midnightblue" stroke="midnightblue" points="294.738,-83.8341 301.472,-75.6545 291.107,-77.8495 294.738,-83.8341"/>
</g>
<!-- Node8 -->
<g id="node8" class="node"><title>Node8</title>
<polygon fill="none" stroke="#bfbfbf" points="363.736,-56.5 363.736,-75.5 479.736,-75.5 479.736,-56.5 363.736,-56.5"/>
<text text-anchor="middle" x="421.736" y="-63.5" font-family="Helvetica,sans-Serif" font-size="10.00">Common/Exceptions.h</text>
</g>
<!-- Node6&#45;&gt;Node8 -->
<g id="edge10" class="edge"><title>Node6&#45;&gt;Node8</title>
<path fill="none" stroke="midnightblue" d="M257.634,-112.444C291.01,-103.201 344.33,-88.4356 381.085,-78.2572"/>
<polygon fill="midnightblue" stroke="midnightblue" points="382.279,-81.5583 390.982,-75.5164 380.411,-74.8122 382.279,-81.5583"/>
</g>
<!-- Node6&#45;&gt;Node9 -->
<g id="edge11" class="edge"><title>Node6&#45;&gt;Node9</title>
<path fill="none" stroke="midnightblue" d="M211.312,-112.324C196.196,-103.822 172.921,-90.7288 155.265,-80.7975"/>
<polygon fill="midnightblue" stroke="midnightblue" points="156.553,-77.5066 146.122,-75.6545 153.122,-83.6077 156.553,-77.5066"/>
</g>
<!-- Node9&#45;&gt;Node3 -->
<g id="edge13" class="edge"><title>Node9&#45;&gt;Node3</title>
<path fill="none" stroke="midnightblue" d="M130.736,-56.083C130.736,-49.0059 130.736,-38.8611 130.736,-29.9865"/>
<polygon fill="midnightblue" stroke="midnightblue" points="134.236,-29.751 130.736,-19.7511 127.236,-29.7511 134.236,-29.751"/>
</g>
<!-- Node9&#45;&gt;Node5 -->
<g id="edge12" class="edge"><title>Node9&#45;&gt;Node5</title>
<path fill="none" stroke="midnightblue" d="M150.859,-56.4435C171.76,-47.5566 204.671,-33.5632 228.452,-23.4514"/>
<polygon fill="midnightblue" stroke="midnightblue" points="229.873,-26.6504 237.707,-19.5164 227.134,-20.2085 229.873,-26.6504"/>
</g>
</g>
</svg>
        <g id="navigator" transform="translate(0 0)" fill="#404254">
                <rect fill="#f2f5e9" fill-opacity="0.5" stroke="#606060" stroke-width=".5" x="0" y="0" width="60" height="60"/>
                <use id="zoomplus" xlink:href="#zoomPlus" x="17" y="9" onmousedown="handleZoom(evt,'in')"/>
                <use id="zoomminus" xlink:href="#zoomMin" x="42" y="9" onmousedown="handleZoom(evt,'out')"/>
                <use id="reset" xlink:href="#resetDef" x="30" y="36" onmousedown="handleReset()"/>
                <g id="arrowUp" xlink:href="#dirArrow" transform="translate(30 24)" onmousedown="handlePan(0,-1)">
                  <use xlink:href="#rim" fill="#404040">
                        <set attributeName="fill" to="#808080" begin="arrowUp.mouseover" end="arrowUp.mouseout"/>
                  </use>
                  <path fill="none" stroke="white" stroke-width="1.5" d="M0,-3.0v7 M-2.5,-0.5L0,-3.0L2.5,-0.5"/>
                </g>
                <g id="arrowRight" xlink:href="#dirArrow" transform="rotate(90) translate(36 -43)" onmousedown="handlePan(1,0)">
                  <use xlink:href="#rim" fill="#404040">
                        <set attributeName="fill" to="#808080" begin="arrowRight.mouseover" end="arrowRight.mouseout"/>
                  </use>
                  <path fill="none" stroke="white" stroke-width="1.5" d="M0,-3.0v7 M-2.5,-0.5L0,-3.0L2.5,-0.5"/>
                </g>
                <g id="arrowDown" xlink:href="#dirArrow" transform="rotate(180) translate(-30 -48)" onmousedown="handlePan(0,1)">
                  <use xlink:href="#rim" fill="#404040">
                        <set attributeName="fill" to="#808080" begin="arrowDown.mouseover" end="arrowDown.mouseout"/>
                  </use>
                  <path fill="none" stroke="white" stroke-width="1.5" d="M0,-3.0v7 M-2.5,-0.5L0,-3.0L2.5,-0.5"/>
                </g>
                <g id="arrowLeft" xlink:href="#dirArrow" transform="rotate(270) translate(-36 17)" onmousedown="handlePan(-1,0)">
                  <use xlink:href="#rim" fill="#404040">
                        <set attributeName="fill" to="#808080" begin="arrowLeft.mouseover" end="arrowLeft.mouseout"/>
                  </use>
                  <path fill="none" stroke="white" stroke-width="1.5" d="M0,-3.0v7 M-2.5,-0.5L0,-3.0L2.5,-0.5"/>
                </g>
        </g>
        <svg viewBox="0 0 15 15" width="100%" height="30px" preserveAspectRatio="xMaxYMin meet">
         <g id="arrow_out" transform="scale(0.3 0.3)">
          <a xlink:href="SkeletonCheck_8h__incl_org.svg" target="_base">
           <rect id="button" ry="5" rx="5" y="6" x="6" height="38" width="38"
                fill="#f2f5e9" fill-opacity="0.5" stroke="#606060" stroke-width="1.0"/>
           <path id="arrow"
             d="M 11.500037,31.436501 C 11.940474,20.09759 22.043105,11.32322 32.158766,21.979434 L 37.068811,17.246167 C 37.068811,17.246167 37.088388,32 37.088388,32 L 22.160133,31.978069 C 22.160133,31.978069 26.997745,27.140456 26.997745,27.140456 C 18.528582,18.264221 13.291696,25.230495 11.500037,31.436501 z"
             style="fill:#404040;"/>
          </a>
         </g>
        </svg>
</svg>
