<?xml version="1.0" encoding="UTF-8" standalone="no"?>
<!DOCTYPE svg PUBLIC "-//W3C//DTD SVG 1.1//EN"
 "http://www.w3.org/Graphics/SVG/1.1/DTD/svg11.dtd">
<!-- Generated by graphviz version 2.38.0 (20140413.2041)
 -->
<!-- Title: Modules/Skeleton/src/SkeletonCheck.cxx Pages: 1 -->
<svg width="641pt" height="319pt"
 viewBox="0.00 0.00 641.09 319.00" xmlns="http://www.w3.org/2000/svg" xmlns:xlink="http://www.w3.org/1999/xlink">
<g id="graph0" class="graph" transform="scale(1 1) rotate(0) translate(4 315)">
<title>Modules/Skeleton/src/SkeletonCheck.cxx</title>
<!-- Node1 -->
<g id="node1" class="node"><title>Node1</title>
<polygon fill="#bfbfbf" stroke="black" points="390.585,-280.5 390.585,-310.5 501.585,-310.5 501.585,-280.5 390.585,-280.5"/>
<text text-anchor="start" x="398.585" y="-298.5" font-family="Helvetica,sans-Serif" font-size="10.00">Modules/Skeleton/src</text>
<text text-anchor="middle" x="446.085" y="-287.5" font-family="Helvetica,sans-Serif" font-size="10.00">/SkeletonCheck.cxx</text>
</g>
<!-- Node2 -->
<g id="node2" class="node"><title>Node2</title>
<g id="a_node2"><a xlink:href="SkeletonCheck_8h.html" target="_top" xlink:title="Skeleton/SkeletonCheck.h">
<polygon fill="none" stroke="black" points="278.585,-224.5 278.585,-243.5 411.585,-243.5 411.585,-224.5 278.585,-224.5"/>
<text text-anchor="middle" x="345.085" y="-231.5" font-family="Helvetica,sans-Serif" font-size="10.00">Skeleton/SkeletonCheck.h</text>
</a>
</g>
</g>
<!-- Node1&#45;&gt;Node2 -->
<g id="edge1" class="edge"><title>Node1&#45;&gt;Node2</title>
<path fill="none" stroke="midnightblue" d="M422.15,-280.399C405.96,-270.862 384.679,-258.325 368.582,-248.842"/>
<polygon fill="midnightblue" stroke="midnightblue" points="370.174,-245.718 359.782,-243.658 366.621,-251.749 370.174,-245.718"/>
</g>
<!-- Node7 -->
<g id="node7" class="node"><title>Node7</title>
<g id="a_node7"><a xlink:href="MonitorObject_8h.html" target="_top" xlink:title="QualityControl/MonitorObject.h">
<polygon fill="none" stroke="black" points="159.585,-112.5 159.585,-131.5 310.585,-131.5 310.585,-112.5 159.585,-112.5"/>
<text text-anchor="middle" x="235.085" y="-119.5" font-family="Helvetica,sans-Serif" font-size="10.00">QualityControl/MonitorObject.h</text>
</a>
</g>
</g>
<!-- Node1&#45;&gt;Node7 -->
<g id="edge16" class="edge"><title>Node1&#45;&gt;Node7</title>
<path fill="none" stroke="midnightblue" d="M390.213,-292.001C351.516,-287.381 301.353,-275.218 269.085,-244 241.08,-216.906 235.602,-168.735 234.849,-142.075"/>
<polygon fill="midnightblue" stroke="midnightblue" points="238.347,-141.762 234.768,-131.79 231.347,-141.817 238.347,-141.762"/>
</g>
<!-- Node10 -->
<g id="node10" class="node"><title>Node10</title>
<g id="a_node10"><a xlink:href="Quality_8h.html" target="_top" xlink:title="QualityControl/Quality.h">
<polygon fill="none" stroke="black" points="354.585,-56.5 354.585,-75.5 475.585,-75.5 475.585,-56.5 354.585,-56.5"/>
<text text-anchor="middle" x="415.085" y="-63.5" font-family="Helvetica,sans-Serif" font-size="10.00">QualityControl/Quality.h</text>
</a>
</g>
</g>
<!-- Node1&#45;&gt;Node10 -->
<g id="edge17" class="edge"><title>Node1&#45;&gt;Node10</title>
<path fill="none" stroke="midnightblue" d="M444.146,-280.269C438.781,-240.895 423.736,-130.487 417.67,-85.9655"/>
<polygon fill="midnightblue" stroke="midnightblue" points="421.12,-85.3629 416.302,-75.927 414.184,-86.308 421.12,-85.3629"/>
</g>
<!-- Node11 -->
<g id="node11" class="node"><title>Node11</title>
<polygon fill="none" stroke="#bfbfbf" points="474.585,-224.5 474.585,-243.5 571.585,-243.5 571.585,-224.5 474.585,-224.5"/>
<text text-anchor="middle" x="523.085" y="-231.5" font-family="Helvetica,sans-Serif" font-size="10.00">fairlogger/Logger.h</text>
</g>
<!-- Node1&#45;&gt;Node11 -->
<g id="edge18" class="edge"><title>Node1&#45;&gt;Node11</title>
<path fill="none" stroke="midnightblue" d="M464.333,-280.399C476.214,-271.218 491.693,-259.258 503.779,-249.918"/>
<polygon fill="midnightblue" stroke="midnightblue" points="506.108,-252.542 511.881,-243.658 501.828,-247.003 506.108,-252.542"/>
</g>
<!-- Node12 -->
<g id="node12" class="node"><title>Node12</title>
<polygon fill="none" stroke="#bfbfbf" points="589.085,-224.5 589.085,-243.5 633.085,-243.5 633.085,-224.5 589.085,-224.5"/>
<text text-anchor="middle" x="611.085" y="-231.5" font-family="Helvetica,sans-Serif" font-size="10.00">TH1.h</text>
</g>
<!-- Node1&#45;&gt;Node12 -->
<g id="edge19" class="edge"><title>Node1&#45;&gt;Node12</title>
<path fill="none" stroke="midnightblue" d="M485.188,-280.399C513.919,-270.039 552.466,-256.138 579.308,-246.459"/>
<polygon fill="midnightblue" stroke="midnightblue" points="580.757,-249.657 588.977,-242.972 578.383,-243.072 580.757,-249.657"/>
</g>
<!-- Node3 -->
<g id="node3" class="node"><title>Node3</title>
<g id="a_node3"><a xlink:href="CheckInterface_8h.html" target="_top" xlink:title="QualityControl/CheckInterface.h">
<polygon fill="none" stroke="black" points="260.585,-168.5 260.585,-187.5 417.585,-187.5 417.585,-168.5 260.585,-168.5"/>
<text text-anchor="middle" x="339.085" y="-175.5" font-family="Helvetica,sans-Serif" font-size="10.00">QualityControl/CheckInterface.h</text>
</a>
</g>
</g>
<!-- Node2&#45;&gt;Node3 -->
<g id="edge2" class="edge"><title>Node2&#45;&gt;Node3</title>
<path fill="none" stroke="midnightblue" d="M344.094,-224.083C343.299,-216.927 342.156,-206.635 341.162,-197.691"/>
<polygon fill="midnightblue" stroke="midnightblue" points="344.641,-197.303 340.058,-187.751 337.683,-198.076 344.641,-197.303"/>
</g>
<!-- Node4 -->
<g id="node4" class="node"><title>Node4</title>
<polygon fill="none" stroke="#bfbfbf" points="214.585,-0.5 214.585,-19.5 255.585,-19.5 255.585,-0.5 214.585,-0.5"/>
<text text-anchor="middle" x="235.085" y="-7.5" font-family="Helvetica,sans-Serif" font-size="10.00">string</text>
</g>
<!-- Node3&#45;&gt;Node4 -->
<g id="edge3" class="edge"><title>Node3&#45;&gt;Node4</title>
<path fill="none" stroke="midnightblue" d="M282.007,-168.455C194.956,-154.081 35.7454,-122.053 4.08523,-76 -0.950453,-68.6751 -1.56739,-62.86 4.08523,-56 29.1048,-25.6362 147.215,-15.4898 204.192,-12.3263"/>
<polygon fill="midnightblue" stroke="midnightblue" points="204.599,-15.81 214.405,-11.7981 204.238,-8.81929 204.599,-15.81"/>
</g>
<!-- Node5 -->
<g id="node5" class="node"><title>Node5</title>
<polygon fill="none" stroke="#bfbfbf" points="301.585,-56.5 301.585,-75.5 336.585,-75.5 336.585,-56.5 301.585,-56.5"/>
<text text-anchor="middle" x="319.085" y="-63.5" font-family="Helvetica,sans-Serif" font-size="10.00">map</text>
</g>
<!-- Node3&#45;&gt;Node5 -->
<g id="edge4" class="edge"><title>Node3&#45;&gt;Node5</title>
<path fill="none" stroke="midnightblue" d="M337.516,-168.368C334.288,-150.617 326.843,-109.666 322.467,-85.5974"/>
<polygon fill="midnightblue" stroke="midnightblue" points="325.88,-84.804 320.647,-75.5914 318.993,-86.0562 325.88,-84.804"/>
</g>
<!-- Node6 -->
<g id="node6" class="node"><title>Node6</title>
<polygon fill="none" stroke="#bfbfbf" points="387.085,-0.5 387.085,-19.5 443.085,-19.5 443.085,-0.5 387.085,-0.5"/>
<text text-anchor="middle" x="415.085" y="-7.5" font-family="Helvetica,sans-Serif" font-size="10.00">Rtypes.h</text>
</g>
<!-- Node3&#45;&gt;Node6 -->
<g id="edge5" class="edge"><title>Node3&#45;&gt;Node6</title>
<path fill="none" stroke="midnightblue" d="M363.363,-168.41C397.564,-154.83 458.598,-124.815 484.085,-76 495.466,-54.2027 470.058,-35.7073 446.927,-24.0848"/>
<polygon fill="midnightblue" stroke="midnightblue" points="448.135,-20.7849 437.598,-19.6815 445.147,-27.1152 448.135,-20.7849"/>
</g>
<!-- Node3&#45;&gt;Node7 -->
<g id="edge6" class="edge"><title>Node3&#45;&gt;Node7</title>
<path fill="none" stroke="midnightblue" d="M322.376,-168.324C305.773,-159.703 280.083,-146.364 260.865,-136.386"/>
<polygon fill="midnightblue" stroke="midnightblue" points="262.241,-133.156 251.753,-131.655 259.015,-139.369 262.241,-133.156"/>
</g>
<!-- Node3&#45;&gt;Node10 -->
<g id="edge15" class="edge"><title>Node3&#45;&gt;Node10</title>
<path fill="none" stroke="midnightblue" d="M345.049,-168.368C357.591,-150.215 386.895,-107.802 403.347,-83.9902"/>
<polygon fill="midnightblue" stroke="midnightblue" points="406.345,-85.8083 409.149,-75.5914 400.585,-81.8292 406.345,-85.8083"/>
</g>
<!-- Node7&#45;&gt;Node4 -->
<g id="edge7" class="edge"><title>Node7&#45;&gt;Node4</title>
<path fill="none" stroke="midnightblue" d="M235.085,-112.368C235.085,-94.617 235.085,-53.6664 235.085,-29.5974"/>
<polygon fill="midnightblue" stroke="midnightblue" points="238.585,-29.5914 235.085,-19.5914 231.585,-29.5915 238.585,-29.5914"/>
</g>
<!-- Node7&#45;&gt;Node5 -->
<g id="edge8" class="edge"><title>Node7&#45;&gt;Node5</title>
<path fill="none" stroke="midnightblue" d="M248.581,-112.324C261.685,-103.9 281.797,-90.9709 297.192,-81.0741"/>
<polygon fill="midnightblue" stroke="midnightblue" points="299.104,-84.0063 305.623,-75.6545 295.318,-78.118 299.104,-84.0063"/>
</g>
<!-- Node7&#45;&gt;Node6 -->
<g id="edge9" class="edge"><title>Node7&#45;&gt;Node6</title>
<path fill="none" stroke="midnightblue" d="M240.669,-112.172C249.825,-98.3608 269.305,-71.6119 292.085,-56 317.916,-38.2974 351.552,-26.6183 377.119,-19.6051"/>
<polygon fill="midnightblue" stroke="midnightblue" points="378.053,-22.9787 386.837,-17.0557 376.276,-16.2078 378.053,-22.9787"/>
</g>
<!-- Node8 -->
<g id="node8" class="node"><title>Node8</title>
<polygon fill="none" stroke="#bfbfbf" points="147.585,-56.5 147.585,-75.5 206.585,-75.5 206.585,-56.5 147.585,-56.5"/>
<text text-anchor="middle" x="177.085" y="-63.5" font-family="Helvetica,sans-Serif" font-size="10.00">TObject.h</text>
</g>
<!-- Node7&#45;&gt;Node8 -->
<g id="edge10" class="edge"><title>Node7&#45;&gt;Node8</title>
<path fill="none" stroke="midnightblue" d="M225.767,-112.324C217.193,-104.341 204.273,-92.3128 193.898,-82.6529"/>
<polygon fill="midnightblue" stroke="midnightblue" points="196.277,-80.0865 186.573,-75.8339 191.507,-85.2098 196.277,-80.0865"/>
</g>
<!-- Node9 -->
<g id="node9" class="node"><title>Node9</title>
<polygon fill="none" stroke="#bfbfbf" points="13.0852,-56.5 13.0852,-75.5 129.085,-75.5 129.085,-56.5 13.0852,-56.5"/>
<text text-anchor="middle" x="71.0852" y="-63.5" font-family="Helvetica,sans-Serif" font-size="10.00">Common/Exceptions.h</text>
</g>
<!-- Node7&#45;&gt;Node9 -->
<g id="edge11" class="edge"><title>Node7&#45;&gt;Node9</title>
<path fill="none" stroke="midnightblue" d="M209.099,-112.444C181.389,-103.32 137.333,-88.8133 106.47,-78.6509"/>
<polygon fill="midnightblue" stroke="midnightblue" points="107.543,-75.3196 96.9499,-75.5164 105.354,-81.9684 107.543,-75.3196"/>
</g>
<!-- Node7&#45;&gt;Node10 -->
<g id="edge12" class="edge"><title>Node7&#45;&gt;Node10</title>
<path fill="none" stroke="midnightblue" d="M263.607,-112.444C294.152,-103.28 342.793,-88.6876 376.688,-78.5192"/>
<polygon fill="midnightblue" stroke="midnightblue" points="378.125,-81.7424 386.697,-75.5164 376.113,-75.0376 378.125,-81.7424"/>
</g>
<!-- Node10&#45;&gt;Node4 -->
<g id="edge14" class="edge"><title>Node10&#45;&gt;Node4</title>
<path fill="none" stroke="midnightblue" d="M386.564,-56.4435C353.503,-46.5255 299.243,-30.2473 265.427,-20.1025"/>
<polygon fill="midnightblue" stroke="midnightblue" points="266.219,-16.686 255.635,-17.1649 264.207,-23.3908 266.219,-16.686"/>
</g>
<!-- Node10&#45;&gt;Node6 -->
<g id="edge13" class="edge"><title>Node10&#45;&gt;Node6</title>
<path fill="none" stroke="midnightblue" d="M415.085,-56.083C415.085,-49.0059 415.085,-38.8611 415.085,-29.9865"/>
<polygon fill="midnightblue" stroke="midnightblue" points="418.585,-29.751 415.085,-19.7511 411.585,-29.7511 418.585,-29.751"/>
</g>
</g>
</svg>
