<?xml version="1.0" encoding="UTF-8" standalone="no"?>
<!DOCTYPE svg PUBLIC "-//W3C//DTD SVG 1.1//EN"
 "http://www.w3.org/Graphics/SVG/1.1/DTD/svg11.dtd">
<!-- Generated by graphviz version 2.38.0 (20140413.2041)
 -->
<!-- Title: Modules/Skeleton/src/SkeletonPostProcessing.cxx Pages: 1 -->
<svg width="311pt" height="274pt"
 viewBox="0.00 0.00 311.00 274.00" xmlns="http://www.w3.org/2000/svg" xmlns:xlink="http://www.w3.org/1999/xlink">
<g id="graph0" class="graph" transform="scale(1 1) rotate(0) translate(4 270)">
<title>Modules/Skeleton/src/SkeletonPostProcessing.cxx</title>
<!-- Node1 -->
<g id="node1" class="node"><title>Node1</title>
<polygon fill="#bfbfbf" stroke="black" points="13.5,-235.5 13.5,-265.5 159.5,-265.5 159.5,-235.5 13.5,-235.5"/>
<text text-anchor="start" x="21.5" y="-253.5" font-family="Helvetica,sans-Serif" font-size="10.00">Modules/Skeleton/src</text>
<text text-anchor="middle" x="86.5" y="-242.5" font-family="Helvetica,sans-Serif" font-size="10.00">/SkeletonPostProcessing.cxx</text>
</g>
<!-- Node2 -->
<g id="node2" class="node"><title>Node2</title>
<g id="a_node2"><a xlink:href="SkeletonPostProcessing_8h_source.html" target="_top" xlink:title="Skeleton/SkeletonPostProcessing.h">
<polygon fill="none" stroke="black" points="0,-179.5 0,-198.5 173,-198.5 173,-179.5 0,-179.5"/>
<text text-anchor="middle" x="86.5" y="-186.5" font-family="Helvetica,sans-Serif" font-size="10.00">Skeleton/SkeletonPostProcessing.h</text>
</a>
</g>
</g>
<!-- Node1&#45;&gt;Node2 -->
<g id="edge1" class="edge"><title>Node1&#45;&gt;Node2</title>
<path fill="none" stroke="midnightblue" d="M86.5,-235.399C86.5,-227.466 86.5,-217.458 86.5,-208.858"/>
<polygon fill="midnightblue" stroke="midnightblue" points="90.0001,-208.658 86.5,-198.658 83.0001,-208.658 90.0001,-208.658"/>
</g>
<!-- Node3 -->
<g id="node3" class="node"><title>Node3</title>
<g id="a_node3"><a xlink:href="PostProcessingInterface_8h.html" target="_top" xlink:title="QualityControl/PostProcessing\lInterface.h">
<polygon fill="none" stroke="black" points="11,-112.5 11,-142.5 162,-142.5 162,-112.5 11,-112.5"/>
<text text-anchor="start" x="19" y="-130.5" font-family="Helvetica,sans-Serif" font-size="10.00">QualityControl/PostProcessing</text>
<text text-anchor="middle" x="86.5" y="-119.5" font-family="Helvetica,sans-Serif" font-size="10.00">Interface.h</text>
</a>
</g>
</g>
<!-- Node2&#45;&gt;Node3 -->
<g id="edge2" class="edge"><title>Node2&#45;&gt;Node3</title>
<path fill="none" stroke="midnightblue" d="M86.5,-179.475C86.5,-172.471 86.5,-162.192 86.5,-152.696"/>
<polygon fill="midnightblue" stroke="midnightblue" points="90.0001,-152.523 86.5,-142.523 83.0001,-152.523 90.0001,-152.523"/>
</g>
<!-- Node4 -->
<g id="node4" class="node"><title>Node4</title>
<polygon fill="none" stroke="#bfbfbf" points="58,-0.5 58,-19.5 99,-19.5 99,-0.5 58,-0.5"/>
<text text-anchor="middle" x="78.5" y="-7.5" font-family="Helvetica,sans-Serif" font-size="10.00">string</text>
</g>
<!-- Node3&#45;&gt;Node4 -->
<g id="edge3" class="edge"><title>Node3&#45;&gt;Node4</title>
<path fill="none" stroke="midnightblue" d="M47.3796,-112.483C31.0721,-104.474 13.7947,-92.64 4.5,-76 -8.66144,-52.4373 22.536,-33.2212 48.3967,-21.9488"/>
<polygon fill="midnightblue" stroke="midnightblue" points="50.0246,-25.0639 57.9432,-18.025 47.3634,-18.5894 50.0246,-25.0639"/>
</g>
<!-- Node5 -->
<g id="node5" class="node"><title>Node5</title>
<polygon fill="none" stroke="#bfbfbf" points="13.5,-56.5 13.5,-75.5 159.5,-75.5 159.5,-56.5 13.5,-56.5"/>
<text text-anchor="middle" x="86.5" y="-63.5" font-family="Helvetica,sans-Serif" font-size="10.00">Framework/ServiceRegistry.h</text>
</g>
<!-- Node3&#45;&gt;Node5 -->
<g id="edge4" class="edge"><title>Node3&#45;&gt;Node5</title>
<path fill="none" stroke="midnightblue" d="M86.5,-112.399C86.5,-104.466 86.5,-94.458 86.5,-85.8583"/>
<polygon fill="midnightblue" stroke="midnightblue" points="90.0001,-85.6577 86.5,-75.6578 83.0001,-85.6578 90.0001,-85.6577"/>
</g>
<!-- Node6 -->
<g id="node6" class="node"><title>Node6</title>
<g id="a_node6"><a xlink:href="Triggers_8h.html" target="_top" xlink:title="QualityControl/Triggers.h">
<polygon fill="none" stroke="black" points="178,-56.5 178,-75.5 303,-75.5 303,-56.5 178,-56.5"/>
<text text-anchor="middle" x="240.5" y="-63.5" font-family="Helvetica,sans-Serif" font-size="10.00">QualityControl/Triggers.h</text>
</a>
</g>
</g>
<!-- Node3&#45;&gt;Node6 -->
<g id="edge5" class="edge"><title>Node3&#45;&gt;Node6</title>
<path fill="none" stroke="midnightblue" d="M122.996,-112.399C149.065,-102.327 183.794,-88.9093 208.724,-79.2769"/>
<polygon fill="midnightblue" stroke="midnightblue" points="210.025,-82.5266 218.092,-75.6578 207.502,-75.997 210.025,-82.5266"/>
</g>
<!-- Node6&#45;&gt;Node4 -->
<g id="edge6" class="edge"><title>Node6&#45;&gt;Node4</title>
<path fill="none" stroke="midnightblue" d="M214.831,-56.4435C186.134,-46.8782 139.691,-31.3969 109.122,-21.2075"/>
<polygon fill="midnightblue" stroke="midnightblue" points="110.007,-17.8129 99.4129,-17.971 107.793,-24.4537 110.007,-17.8129"/>
</g>
<!-- Node7 -->
<g id="node7" class="node"><title>Node7</title>
<polygon fill="none" stroke="#bfbfbf" points="211,-0.5 211,-19.5 270,-19.5 270,-0.5 211,-0.5"/>
<text text-anchor="middle" x="240.5" y="-7.5" font-family="Helvetica,sans-Serif" font-size="10.00">functional</text>
</g>
<!-- Node6&#45;&gt;Node7 -->
<g id="edge7" class="edge"><title>Node6&#45;&gt;Node7</title>
<path fill="none" stroke="midnightblue" d="M240.5,-56.083C240.5,-49.0059 240.5,-38.8611 240.5,-29.9865"/>
<polygon fill="midnightblue" stroke="midnightblue" points="244,-29.751 240.5,-19.7511 237,-29.7511 244,-29.751"/>
</g>
</g>
</svg>
