<?xml version="1.0" encoding="UTF-8" standalone="no"?>
<!DOCTYPE svg PUBLIC "-//W3C//DTD SVG 1.1//EN"
 "http://www.w3.org/Graphics/SVG/1.1/DTD/svg11.dtd">
<!-- Generated by graphviz version 2.38.0 (20140413.2041)
 -->
<!-- Title: o2::quality_control::core::CheckDefinition Pages: 1 -->
<svg width="261pt" height="408pt"
 viewBox="0.00 0.00 260.50 408.00" xmlns="http://www.w3.org/2000/svg" xmlns:xlink="http://www.w3.org/1999/xlink">
<g id="graph0" class="graph" transform="scale(1 1) rotate(0) translate(4 404)">
<title>o2::quality_control::core::CheckDefinition</title>
<!-- Node1 -->
<g id="node1" class="node"><title>Node1</title>
<polygon fill="#bfbfbf" stroke="black" points="114,-0.5 114,-90.5 231,-90.5 231,-0.5 114,-0.5"/>
<text text-anchor="start" x="122" y="-78.5" font-family="Helvetica,sans-Serif" font-size="10.00">o2::quality_control</text>
<text text-anchor="middle" x="172.5" y="-67.5" font-family="Helvetica,sans-Serif" font-size="10.00">::core::CheckDefinition</text>
<polyline fill="none" stroke="black" points="114,-60.5 231,-60.5 "/>
<text text-anchor="middle" x="172.5" y="-48.5" font-family="Helvetica,sans-Serif" font-size="10.00"> </text>
<polyline fill="none" stroke="black" points="114,-41.5 231,-41.5 "/>
<text text-anchor="start" x="122" y="-29.5" font-family="Helvetica,sans-Serif" font-size="10.00">+ CheckDefinition()</text>
<text text-anchor="start" x="122" y="-18.5" font-family="Helvetica,sans-Serif" font-size="10.00">+ ~CheckDefinition()</text>
<text text-anchor="start" x="122" y="-7.5" font-family="Helvetica,sans-Serif" font-size="10.00">+ ClassDef()</text>
</g>
<!-- Node2 -->
<g id="node2" class="node"><title>Node2</title>
<g id="a_node2"><a xlink:href="classo2_1_1quality__control_1_1core_1_1Quality.html" target="_top" xlink:title="Class representing the quality of a MonitorObject. ">
<polygon fill="none" stroke="black" points="13.5,-160.5 13.5,-294.5 109.5,-294.5 109.5,-160.5 13.5,-160.5"/>
<text text-anchor="start" x="21.5" y="-282.5" font-family="Helvetica,sans-Serif" font-size="10.00">o2::quality_control</text>
<text text-anchor="middle" x="61.5" y="-271.5" font-family="Helvetica,sans-Serif" font-size="10.00">::core::Quality</text>
<polyline fill="none" stroke="black" points="13.5,-264.5 109.5,-264.5 "/>
<text text-anchor="middle" x="61.5" y="-252.5" font-family="Helvetica,sans-Serif" font-size="10.00"> </text>
<polyline fill="none" stroke="black" points="13.5,-245.5 109.5,-245.5 "/>
<text text-anchor="start" x="21.5" y="-233.5" font-family="Helvetica,sans-Serif" font-size="10.00">+ Quality()</text>
<text text-anchor="start" x="21.5" y="-222.5" font-family="Helvetica,sans-Serif" font-size="10.00">+ ~Quality()</text>
<text text-anchor="start" x="21.5" y="-211.5" font-family="Helvetica,sans-Serif" font-size="10.00">+ Quality()</text>
<text text-anchor="start" x="21.5" y="-200.5" font-family="Helvetica,sans-Serif" font-size="10.00">+ getLevel()</text>
<text text-anchor="start" x="21.5" y="-189.5" font-family="Helvetica,sans-Serif" font-size="10.00">+ getName()</text>
<text text-anchor="start" x="21.5" y="-178.5" font-family="Helvetica,sans-Serif" font-size="10.00">+ isWorstThan()</text>
<text text-anchor="start" x="21.5" y="-167.5" font-family="Helvetica,sans-Serif" font-size="10.00">+ isBetterThan()</text>
</a>
</g>
</g>
<!-- Node2&#45;&gt;Node1 -->
<g id="edge1" class="edge"><title>Node2&#45;&gt;Node1</title>
<path fill="none" stroke="#404040" d="M102.202,-160.497C114.258,-140.947 127.318,-119.767 138.873,-101.03"/>
<polygon fill="none" stroke="#404040" points="139.003,-100.819 138.748,-93.6124 145.302,-90.605 145.557,-97.8116 139.003,-100.819"/>
<text text-anchor="middle" x="150.5" y="-123" font-family="Helvetica,sans-Serif" font-size="10.00"> +result</text>
</g>
<!-- Node2&#45;&gt;Node2 -->
<g id="edge3" class="edge"><title>Node2&#45;&gt;Node2</title>
<path fill="none" stroke="#404040" d="M109.554,-243.876C119.956,-242.275 127.5,-236.816 127.5,-227.5 127.5,-222.114 124.979,-218.017 120.841,-215.21"/>
<polygon fill="none" stroke="#404040" points="120.838,-215.208 113.834,-216.927 109.554,-211.124 116.558,-209.405 120.838,-215.208"/>
<text text-anchor="middle" x="149.5" y="-241.5" font-family="Helvetica,sans-Serif" font-size="10.00"> +Medium</text>
<text text-anchor="middle" x="149.5" y="-230.5" font-family="Helvetica,sans-Serif" font-size="10.00">+Good</text>
<text text-anchor="middle" x="149.5" y="-219.5" font-family="Helvetica,sans-Serif" font-size="10.00">+Bad</text>
<text text-anchor="middle" x="149.5" y="-208.5" font-family="Helvetica,sans-Serif" font-size="10.00">+Null</text>
</g>
<!-- Node3 -->
<g id="node3" class="node"><title>Node3</title>
<polygon fill="none" stroke="#bfbfbf" points="0,-342.5 0,-399.5 123,-399.5 123,-342.5 0,-342.5"/>
<text text-anchor="middle" x="61.5" y="-387.5" font-family="Helvetica,sans-Serif" font-size="10.00">static const unsigned int</text>
<polyline fill="none" stroke="#bfbfbf" points="0,-380.5 123,-380.5 "/>
<text text-anchor="middle" x="61.5" y="-368.5" font-family="Helvetica,sans-Serif" font-size="10.00"> </text>
<polyline fill="none" stroke="#bfbfbf" points="0,-361.5 123,-361.5 "/>
<text text-anchor="middle" x="61.5" y="-349.5" font-family="Helvetica,sans-Serif" font-size="10.00"> </text>
</g>
<!-- Node3&#45;&gt;Node2 -->
<g id="edge2" class="edge"><title>Node3&#45;&gt;Node2</title>
<path fill="none" stroke="#404040" d="M61.5,-342.381C61.5,-332.02 61.5,-319.663 61.5,-306.97"/>
<polygon fill="none" stroke="#404040" points="61.5001,-306.753 57.5,-300.753 61.5,-294.753 65.5,-300.753 61.5001,-306.753"/>
<text text-anchor="middle" x="86.5" y="-316" font-family="Helvetica,sans-Serif" font-size="10.00"> +NullLevel</text>
</g>
<!-- Node4 -->
<g id="node4" class="node"><title>Node4</title>
<polygon fill="none" stroke="#bfbfbf" points="190,-199 190,-256 231,-256 231,-199 190,-199"/>
<text text-anchor="middle" x="210.5" y="-244" font-family="Helvetica,sans-Serif" font-size="10.00">string</text>
<polyline fill="none" stroke="#bfbfbf" points="190,-237 231,-237 "/>
<text text-anchor="middle" x="210.5" y="-225" font-family="Helvetica,sans-Serif" font-size="10.00"> </text>
<polyline fill="none" stroke="#bfbfbf" points="190,-218 231,-218 "/>
<text text-anchor="middle" x="210.5" y="-206" font-family="Helvetica,sans-Serif" font-size="10.00"> </text>
</g>
<!-- Node4&#45;&gt;Node1 -->
<g id="edge4" class="edge"><title>Node4&#45;&gt;Node1</title>
<path fill="none" stroke="#404040" d="M204.646,-198.769C199.255,-173.236 191.096,-134.586 184.347,-102.616"/>
<polygon fill="none" stroke="#404040" points="184.316,-102.472 179.163,-97.4279 181.838,-90.731 186.991,-95.7754 184.316,-102.472"/>
<text text-anchor="middle" x="223" y="-134" font-family="Helvetica,sans-Serif" font-size="10.00"> +name</text>
<text text-anchor="middle" x="223" y="-123" font-family="Helvetica,sans-Serif" font-size="10.00">+libraryName</text>
<text text-anchor="middle" x="223" y="-112" font-family="Helvetica,sans-Serif" font-size="10.00">+className</text>
</g>
</g>
</svg>
