<?xml version="1.0" encoding="UTF-8" standalone="no"?>
<!DOCTYPE svg PUBLIC "-//W3C//DTD SVG 1.1//EN"
 "http://www.w3.org/Graphics/SVG/1.1/DTD/svg11.dtd">
<!-- Generated by graphviz version 2.38.0 (20140413.2041)
 -->
<!-- Title: Framework/include/QualityControl/TaskInterface.h Pages: 1 -->
<svg width="3943pt" height="173pt"
 viewBox="0.00 0.00 3943.00 173.00" xmlns="http://www.w3.org/2000/svg" xmlns:xlink="http://www.w3.org/1999/xlink">
<g id="graph0" class="graph" transform="scale(1 1) rotate(0) translate(4 169)">
<title>Framework/include/QualityControl/TaskInterface.h</title>
<!-- Node1 -->
<g id="node1" class="node"><title>Node1</title>
<polygon fill="#bfbfbf" stroke="black" points="2859.5,-134.5 2859.5,-164.5 2992.5,-164.5 2992.5,-134.5 2859.5,-134.5"/>
<text text-anchor="start" x="2867.5" y="-152.5" font-family="Helvetica,sans-Serif" font-size="10.00">Framework/include/Quality</text>
<text text-anchor="middle" x="2926" y="-141.5" font-family="Helvetica,sans-Serif" font-size="10.00">Control/TaskInterface.h</text>
</g>
<!-- Node2 -->
<g id="node2" class="node"><title>Node2</title>
<g id="a_node2"><a xlink:href="TaskFactory_8h.html" target="_top" xlink:title="Framework/include/Quality\lControl/TaskFactory.h">
<polygon fill="none" stroke="black" points="1667.5,-67.5 1667.5,-97.5 1800.5,-97.5 1800.5,-67.5 1667.5,-67.5"/>
<text text-anchor="start" x="1675.5" y="-85.5" font-family="Helvetica,sans-Serif" font-size="10.00">Framework/include/Quality</text>
<text text-anchor="middle" x="1734" y="-74.5" font-family="Helvetica,sans-Serif" font-size="10.00">Control/TaskFactory.h</text>
</a>
</g>
</g>
<!-- Node1&#45;&gt;Node2 -->
<g id="edge1" class="edge"><title>Node1&#45;&gt;Node2</title>
<path fill="none" stroke="midnightblue" d="M2849.25,-144.315C2630.45,-132.383 2006.12,-98.3388 1800.54,-87.1284"/>
<polygon fill="midnightblue" stroke="midnightblue" points="2849.18,-147.816 2859.36,-144.866 2849.56,-140.827 2849.18,-147.816"/>
</g>
<!-- Node5 -->
<g id="node5" class="node"><title>Node5</title>
<g id="a_node5"><a xlink:href="testTaskInterface_8cxx.html" target="_top" xlink:title="Framework/test/testTaskInterface.cxx">
<polygon fill="none" stroke="black" points="1019.5,-6 1019.5,-25 1202.5,-25 1202.5,-6 1019.5,-6"/>
<text text-anchor="middle" x="1111" y="-13" font-family="Helvetica,sans-Serif" font-size="10.00">Framework/test/testTaskInterface.cxx</text>
</a>
</g>
</g>
<!-- Node1&#45;&gt;Node5 -->
<g id="edge20" class="edge"><title>Node1&#45;&gt;Node5</title>
<path fill="none" stroke="midnightblue" d="M2849.2,-148.329C2651.34,-147.262 2108.1,-140.369 1658,-98 1471.12,-80.4085 1250.66,-42.1549 1156.9,-25.0566"/>
<polygon fill="midnightblue" stroke="midnightblue" points="2849.47,-151.83 2859.49,-148.381 2849.51,-144.83 2849.47,-151.83"/>
</g>
<!-- Node13 -->
<g id="node13" class="node"><title>Node13</title>
<g id="a_node13"><a xlink:href="TaskRunner_8h.html" target="_top" xlink:title="Framework/include/Quality\lControl/TaskRunner.h">
<polygon fill="none" stroke="black" points="496.5,-67.5 496.5,-97.5 629.5,-97.5 629.5,-67.5 496.5,-67.5"/>
<text text-anchor="start" x="504.5" y="-85.5" font-family="Helvetica,sans-Serif" font-size="10.00">Framework/include/Quality</text>
<text text-anchor="middle" x="563" y="-74.5" font-family="Helvetica,sans-Serif" font-size="10.00">Control/TaskRunner.h</text>
</a>
</g>
</g>
<!-- Node1&#45;&gt;Node13 -->
<g id="edge12" class="edge"><title>Node1&#45;&gt;Node13</title>
<path fill="none" stroke="midnightblue" d="M2849.33,-146.391C2489.04,-136.48 967.503,-94.6268 629.646,-85.3333"/>
<polygon fill="midnightblue" stroke="midnightblue" points="2849.31,-149.892 2859.4,-146.668 2849.5,-142.894 2849.31,-149.892"/>
</g>
<!-- Node19 -->
<g id="node19" class="node"><title>Node19</title>
<g id="a_node19"><a xlink:href="TaskInterface_8cxx.html" target="_top" xlink:title="Framework/src/TaskInterface.cxx">
<polygon fill="none" stroke="black" points="2690,-73 2690,-92 2854,-92 2854,-73 2690,-73"/>
<text text-anchor="middle" x="2772" y="-80" font-family="Helvetica,sans-Serif" font-size="10.00">Framework/src/TaskInterface.cxx</text>
</a>
</g>
</g>
<!-- Node1&#45;&gt;Node19 -->
<g id="edge19" class="edge"><title>Node1&#45;&gt;Node19</title>
<path fill="none" stroke="midnightblue" d="M2883.26,-130.458C2853.5,-117.9 2815.18,-101.724 2792.16,-92.007"/>
<polygon fill="midnightblue" stroke="midnightblue" points="2882.01,-133.732 2892.58,-134.396 2884.73,-127.283 2882.01,-133.732"/>
</g>
<!-- Node20 -->
<g id="node20" class="node"><title>Node20</title>
<g id="a_node20"><a xlink:href="DaqTask_8h.html" target="_top" xlink:title="Modules/Daq/include\l/Daq/DaqTask.h">
<polygon fill="none" stroke="black" points="2872,-67.5 2872,-97.5 2980,-97.5 2980,-67.5 2872,-67.5"/>
<text text-anchor="start" x="2880" y="-85.5" font-family="Helvetica,sans-Serif" font-size="10.00">Modules/Daq/include</text>
<text text-anchor="middle" x="2926" y="-74.5" font-family="Helvetica,sans-Serif" font-size="10.00">/Daq/DaqTask.h</text>
</a>
</g>
</g>
<!-- Node1&#45;&gt;Node20 -->
<g id="edge21" class="edge"><title>Node1&#45;&gt;Node20</title>
<path fill="none" stroke="midnightblue" d="M2926,-124.108C2926,-115.154 2926,-105.323 2926,-97.5765"/>
<polygon fill="midnightblue" stroke="midnightblue" points="2922.5,-124.396 2926,-134.396 2929.5,-124.396 2922.5,-124.396"/>
</g>
<!-- Node23 -->
<g id="node23" class="node"><title>Node23</title>
<g id="a_node23"><a xlink:href="DigitsQcTask_8h.html" target="_top" xlink:title="Modules/EMCAL/include\l/EMCAL/DigitsQcTask.h">
<polygon fill="none" stroke="black" points="2999.5,-67.5 2999.5,-97.5 3124.5,-97.5 3124.5,-67.5 2999.5,-67.5"/>
<text text-anchor="start" x="3007.5" y="-85.5" font-family="Helvetica,sans-Serif" font-size="10.00">Modules/EMCAL/include</text>
<text text-anchor="middle" x="3062" y="-74.5" font-family="Helvetica,sans-Serif" font-size="10.00">/EMCAL/DigitsQcTask.h</text>
</a>
</g>
</g>
<!-- Node1&#45;&gt;Node23 -->
<g id="edge24" class="edge"><title>Node1&#45;&gt;Node23</title>
<path fill="none" stroke="midnightblue" d="M2964.72,-129.992C2986.28,-119.689 3012.69,-107.068 3032.55,-97.5765"/>
<polygon fill="midnightblue" stroke="midnightblue" points="2963.02,-126.926 2955.51,-134.396 2966.04,-133.242 2963.02,-126.926"/>
</g>
<!-- Node25 -->
<g id="node25" class="node"><title>Node25</title>
<g id="a_node25"><a xlink:href="RawTask_8h.html" target="_top" xlink:title="Modules/EMCAL/include\l/EMCAL/RawTask.h">
<polygon fill="none" stroke="black" points="3144.5,-67.5 3144.5,-97.5 3269.5,-97.5 3269.5,-67.5 3144.5,-67.5"/>
<text text-anchor="start" x="3152.5" y="-85.5" font-family="Helvetica,sans-Serif" font-size="10.00">Modules/EMCAL/include</text>
<text text-anchor="middle" x="3207" y="-74.5" font-family="Helvetica,sans-Serif" font-size="10.00">/EMCAL/RawTask.h</text>
</a>
</g>
</g>
<!-- Node1&#45;&gt;Node25 -->
<g id="edge26" class="edge"><title>Node1&#45;&gt;Node25</title>
<path fill="none" stroke="midnightblue" d="M2996.53,-132.186C3042.55,-121.54 3102.02,-107.784 3146,-97.6109"/>
<polygon fill="midnightblue" stroke="midnightblue" points="2995.58,-128.812 2986.63,-134.476 2997.16,-135.632 2995.58,-128.812"/>
</g>
<!-- Node27 -->
<g id="node27" class="node"><title>Node27</title>
<g id="a_node27"><a xlink:href="BenchmarkTask_8h.html" target="_top" xlink:title="Modules/Example/include\l/Example/BenchmarkTask.h">
<polygon fill="none" stroke="black" points="3293,-67.5 3293,-97.5 3433,-97.5 3433,-67.5 3293,-67.5"/>
<text text-anchor="start" x="3301" y="-85.5" font-family="Helvetica,sans-Serif" font-size="10.00">Modules/Example/include</text>
<text text-anchor="middle" x="3363" y="-74.5" font-family="Helvetica,sans-Serif" font-size="10.00">/Example/BenchmarkTask.h</text>
</a>
</g>
</g>
<!-- Node1&#45;&gt;Node27 -->
<g id="edge28" class="edge"><title>Node1&#45;&gt;Node27</title>
<path fill="none" stroke="midnightblue" d="M3002.83,-138.074C3074.2,-128.248 3183.39,-112.853 3278,-98 3282.88,-97.2338 3287.91,-96.4242 3292.98,-95.5951"/>
<polygon fill="midnightblue" stroke="midnightblue" points="3002.01,-134.654 2992.58,-139.483 3002.96,-141.589 3002.01,-134.654"/>
</g>
<!-- Node29 -->
<g id="node29" class="node"><title>Node29</title>
<g id="a_node29"><a xlink:href="ExampleCondition_8h.html" target="_top" xlink:title="Modules/Example/include\l/Example/ExampleCondition.h">
<polygon fill="none" stroke="black" points="3460.5,-67.5 3460.5,-97.5 3609.5,-97.5 3609.5,-67.5 3460.5,-67.5"/>
<text text-anchor="start" x="3468.5" y="-85.5" font-family="Helvetica,sans-Serif" font-size="10.00">Modules/Example/include</text>
<text text-anchor="middle" x="3535" y="-74.5" font-family="Helvetica,sans-Serif" font-size="10.00">/Example/ExampleCondition.h</text>
</a>
</g>
</g>
<!-- Node1&#45;&gt;Node29 -->
<g id="edge30" class="edge"><title>Node1&#45;&gt;Node29</title>
<path fill="none" stroke="midnightblue" d="M3002.62,-142.377C3103.53,-133.999 3286.39,-117.73 3442,-98 3448,-97.2395 3454.21,-96.396 3460.44,-95.5093"/>
<polygon fill="midnightblue" stroke="midnightblue" points="3002.2,-138.9 2992.52,-143.212 3002.78,-145.876 3002.2,-138.9"/>
</g>
<!-- Node31 -->
<g id="node31" class="node"><title>Node31</title>
<g id="a_node31"><a xlink:href="ExampleTask_8h.html" target="_top" xlink:title="Modules/Example/include\l/Example/ExampleTask.h">
<polygon fill="none" stroke="black" points="2260.5,-67.5 2260.5,-97.5 2389.5,-97.5 2389.5,-67.5 2260.5,-67.5"/>
<text text-anchor="start" x="2268.5" y="-85.5" font-family="Helvetica,sans-Serif" font-size="10.00">Modules/Example/include</text>
<text text-anchor="middle" x="2325" y="-74.5" font-family="Helvetica,sans-Serif" font-size="10.00">/Example/ExampleTask.h</text>
</a>
</g>
</g>
<!-- Node1&#45;&gt;Node31 -->
<g id="edge32" class="edge"><title>Node1&#45;&gt;Node31</title>
<path fill="none" stroke="midnightblue" d="M2849.22,-140.196C2729.68,-127.268 2501.26,-102.563 2389.63,-90.4901"/>
<polygon fill="midnightblue" stroke="midnightblue" points="2849.07,-143.7 2859.39,-141.296 2849.82,-136.74 2849.07,-143.7"/>
</g>
<!-- Node33 -->
<g id="node33" class="node"><title>Node33</title>
<g id="a_node33"><a xlink:href="SkeletonTask_8h.html" target="_top" xlink:title="Modules/Skeleton/include\l/Skeleton/SkeletonTask.h">
<polygon fill="none" stroke="black" points="2530.5,-67.5 2530.5,-97.5 2659.5,-97.5 2659.5,-67.5 2530.5,-67.5"/>
<text text-anchor="start" x="2538.5" y="-85.5" font-family="Helvetica,sans-Serif" font-size="10.00">Modules/Skeleton/include</text>
<text text-anchor="middle" x="2595" y="-74.5" font-family="Helvetica,sans-Serif" font-size="10.00">/Skeleton/SkeletonTask.h</text>
</a>
</g>
</g>
<!-- Node1&#45;&gt;Node33 -->
<g id="edge36" class="edge"><title>Node1&#45;&gt;Node33</title>
<path fill="none" stroke="midnightblue" d="M2849.28,-133.434C2791.74,-122.134 2713.86,-106.841 2659.51,-96.1676"/>
<polygon fill="midnightblue" stroke="midnightblue" points="2848.93,-136.932 2859.42,-135.424 2850.28,-130.063 2848.93,-136.932"/>
</g>
<!-- Node35 -->
<g id="node35" class="node"><title>Node35</title>
<g id="a_node35"><a xlink:href="TOFTask_8h.html" target="_top" xlink:title="Modules/TOF/include\l/TOF/TOFTask.h">
<polygon fill="none" stroke="black" points="3647,-67.5 3647,-97.5 3757,-97.5 3757,-67.5 3647,-67.5"/>
<text text-anchor="start" x="3655" y="-85.5" font-family="Helvetica,sans-Serif" font-size="10.00">Modules/TOF/include</text>
<text text-anchor="middle" x="3702" y="-74.5" font-family="Helvetica,sans-Serif" font-size="10.00">/TOF/TOFTask.h</text>
</a>
</g>
</g>
<!-- Node1&#45;&gt;Node35 -->
<g id="edge39" class="edge"><title>Node1&#45;&gt;Node35</title>
<path fill="none" stroke="midnightblue" d="M3002.61,-145.367C3130.49,-139.589 3395.36,-125.273 3618,-98 3627.4,-96.8484 3637.35,-95.3663 3646.99,-93.791"/>
<polygon fill="midnightblue" stroke="midnightblue" points="3002.36,-141.875 2992.53,-145.818 3002.68,-148.868 3002.36,-141.875"/>
</g>
<!-- Node37 -->
<g id="node37" class="node"><title>Node37</title>
<g id="a_node37"><a xlink:href="PID_8h.html" target="_top" xlink:title="Modules/TPC/include\l/TPC/PID.h">
<polygon fill="none" stroke="black" points="3812,-67.5 3812,-97.5 3922,-97.5 3922,-67.5 3812,-67.5"/>
<text text-anchor="start" x="3820" y="-85.5" font-family="Helvetica,sans-Serif" font-size="10.00">Modules/TPC/include</text>
<text text-anchor="middle" x="3867" y="-74.5" font-family="Helvetica,sans-Serif" font-size="10.00">/TPC/PID.h</text>
</a>
</g>
</g>
<!-- Node1&#45;&gt;Node37 -->
<g id="edge41" class="edge"><title>Node1&#45;&gt;Node37</title>
<path fill="none" stroke="midnightblue" d="M3002.91,-146.001C3150.94,-140.721 3485.67,-126.5 3766,-98 3780.89,-96.486 3796.96,-94.3917 3811.8,-92.2651"/>
<polygon fill="midnightblue" stroke="midnightblue" points="3002.45,-142.515 2992.58,-146.366 3002.69,-149.511 3002.45,-142.515"/>
</g>
<!-- Node3 -->
<g id="node3" class="node"><title>Node3</title>
<g id="a_node3"><a xlink:href="TaskFactory_8cxx.html" target="_top" xlink:title="Framework/src/TaskFactory.cxx">
<polygon fill="none" stroke="black" points="1221,-6 1221,-25 1379,-25 1379,-6 1221,-6"/>
<text text-anchor="middle" x="1300" y="-13" font-family="Helvetica,sans-Serif" font-size="10.00">Framework/src/TaskFactory.cxx</text>
</a>
</g>
</g>
<!-- Node2&#45;&gt;Node3 -->
<g id="edge2" class="edge"><title>Node2&#45;&gt;Node3</title>
<path fill="none" stroke="midnightblue" d="M1657.21,-70.7049C1587.06,-60.7443 1480.48,-45.3667 1388,-31 1375.91,-29.1223 1362.91,-27.0226 1350.7,-25.0168"/>
<polygon fill="midnightblue" stroke="midnightblue" points="1656.9,-74.1956 1667.29,-72.1345 1657.88,-67.265 1656.9,-74.1956"/>
</g>
<!-- Node4 -->
<g id="node4" class="node"><title>Node4</title>
<g id="a_node4"><a xlink:href="TaskRunner_8cxx.html" target="_top" xlink:title="Framework/src/TaskRunner.cxx">
<polygon fill="none" stroke="black" points="844.5,-6 844.5,-25 1001.5,-25 1001.5,-6 844.5,-6"/>
<text text-anchor="middle" x="923" y="-13" font-family="Helvetica,sans-Serif" font-size="10.00">Framework/src/TaskRunner.cxx</text>
</a>
</g>
</g>
<!-- Node2&#45;&gt;Node4 -->
<g id="edge3" class="edge"><title>Node2&#45;&gt;Node4</title>
<path fill="none" stroke="midnightblue" d="M1657.38,-78.5633C1525,-72.9524 1245.07,-58.7231 1010,-31 996.77,-29.4397 982.484,-27.2652 969.388,-25.0743"/>
<polygon fill="midnightblue" stroke="midnightblue" points="1657.28,-82.0623 1667.42,-78.9844 1657.58,-75.0684 1657.28,-82.0623"/>
</g>
<!-- Node2&#45;&gt;Node5 -->
<g id="edge4" class="edge"><title>Node2&#45;&gt;Node5</title>
<path fill="none" stroke="midnightblue" d="M1656.94,-75.1649C1554.99,-66.527 1369.75,-49.9442 1212,-31 1197.4,-29.2469 1181.65,-27.1064 1167.03,-25.0139"/>
<polygon fill="midnightblue" stroke="midnightblue" points="1656.89,-78.6727 1667.15,-76.0266 1657.48,-71.6975 1656.89,-78.6727"/>
</g>
<!-- Node6 -->
<g id="node6" class="node"><title>Node6</title>
<g id="a_node6"><a xlink:href="testEMCAL_8cxx.html" target="_top" xlink:title="Modules/EMCAL/test\l/testEMCAL.cxx">
<polygon fill="none" stroke="black" points="1397,-0.5 1397,-30.5 1507,-30.5 1507,-0.5 1397,-0.5"/>
<text text-anchor="start" x="1405" y="-18.5" font-family="Helvetica,sans-Serif" font-size="10.00">Modules/EMCAL/test</text>
<text text-anchor="middle" x="1452" y="-7.5" font-family="Helvetica,sans-Serif" font-size="10.00">/testEMCAL.cxx</text>
</a>
</g>
</g>
<!-- Node2&#45;&gt;Node6 -->
<g id="edge5" class="edge"><title>Node2&#45;&gt;Node6</title>
<path fill="none" stroke="midnightblue" d="M1663.37,-65.2211C1614.96,-54.0626 1551.67,-39.4732 1507,-29.1777"/>
<polygon fill="midnightblue" stroke="midnightblue" points="1662.63,-68.6404 1673.16,-67.476 1664.2,-61.8193 1662.63,-68.6404"/>
</g>
<!-- Node7 -->
<g id="node7" class="node"><title>Node7</title>
<polygon fill="none" stroke="#bfbfbf" points="2146,-0.5 2146,-30.5 2260,-30.5 2260,-0.5 2146,-0.5"/>
<text text-anchor="start" x="2154" y="-18.5" font-family="Helvetica,sans-Serif" font-size="10.00">Modules/Example/test</text>
<text text-anchor="middle" x="2203" y="-7.5" font-family="Helvetica,sans-Serif" font-size="10.00">/testFactory.cxx</text>
</g>
<!-- Node2&#45;&gt;Node7 -->
<g id="edge6" class="edge"><title>Node2&#45;&gt;Node7</title>
<path fill="none" stroke="midnightblue" d="M1810.75,-73.9974C1892.06,-65.5552 2024.04,-50.4431 2137,-31 2139.89,-30.5025 2142.85,-29.9638 2145.83,-29.3969"/>
<polygon fill="midnightblue" stroke="midnightblue" points="1810.18,-70.5366 1800.6,-75.0438 1810.9,-77.4997 1810.18,-70.5366"/>
</g>
<!-- Node8 -->
<g id="node8" class="node"><title>Node8</title>
<g id="a_node8"><a xlink:href="testQcExample_8cxx.html" target="_top" xlink:title="Modules/Example/test\l/testQcExample.cxx">
<polygon fill="none" stroke="black" points="2014,-0.5 2014,-30.5 2128,-30.5 2128,-0.5 2014,-0.5"/>
<text text-anchor="start" x="2022" y="-18.5" font-family="Helvetica,sans-Serif" font-size="10.00">Modules/Example/test</text>
<text text-anchor="middle" x="2071" y="-7.5" font-family="Helvetica,sans-Serif" font-size="10.00">/testQcExample.cxx</text>
</a>
</g>
</g>
<!-- Node2&#45;&gt;Node8 -->
<g id="edge7" class="edge"><title>Node2&#45;&gt;Node8</title>
<path fill="none" stroke="midnightblue" d="M1810.54,-67.7786C1864.66,-57.932 1938.87,-44.136 2004,-31 2007.15,-30.3647 2010.38,-29.7021 2013.64,-29.0251"/>
<polygon fill="midnightblue" stroke="midnightblue" points="1809.89,-64.3394 1800.68,-69.5701 1811.14,-71.2267 1809.89,-64.3394"/>
</g>
<!-- Node9 -->
<g id="node9" class="node"><title>Node9</title>
<polygon fill="none" stroke="#bfbfbf" points="1525,-0.5 1525,-30.5 1639,-30.5 1639,-0.5 1525,-0.5"/>
<text text-anchor="start" x="1533" y="-18.5" font-family="Helvetica,sans-Serif" font-size="10.00">Modules/Skeleton/test</text>
<text text-anchor="middle" x="1582" y="-7.5" font-family="Helvetica,sans-Serif" font-size="10.00">/.testEmpty.cxx</text>
</g>
<!-- Node2&#45;&gt;Node9 -->
<g id="edge8" class="edge"><title>Node2&#45;&gt;Node9</title>
<path fill="none" stroke="midnightblue" d="M1691.69,-63.4066C1667.42,-53.0294 1637.41,-40.1954 1614.92,-30.5765"/>
<polygon fill="midnightblue" stroke="midnightblue" points="1690.45,-66.6821 1701.02,-67.396 1693.2,-60.2459 1690.45,-66.6821"/>
</g>
<!-- Node10 -->
<g id="node10" class="node"><title>Node10</title>
<g id="a_node10"><a xlink:href="testQcSkeleton_8cxx.html" target="_top" xlink:title="Modules/Skeleton/test\l/testQcSkeleton.cxx">
<polygon fill="none" stroke="black" points="2278,-0.5 2278,-30.5 2392,-30.5 2392,-0.5 2278,-0.5"/>
<text text-anchor="start" x="2286" y="-18.5" font-family="Helvetica,sans-Serif" font-size="10.00">Modules/Skeleton/test</text>
<text text-anchor="middle" x="2335" y="-7.5" font-family="Helvetica,sans-Serif" font-size="10.00">/testQcSkeleton.cxx</text>
</a>
</g>
</g>
<!-- Node2&#45;&gt;Node10 -->
<g id="edge9" class="edge"><title>Node2&#45;&gt;Node10</title>
<path fill="none" stroke="midnightblue" d="M1810.75,-77.2109C1914.97,-70.7138 2106.87,-56.364 2269,-31 2271.9,-30.5467 2274.86,-30.0436 2277.84,-29.5048"/>
<polygon fill="midnightblue" stroke="midnightblue" points="1810.4,-73.7257 1800.63,-77.8339 1810.83,-80.7125 1810.4,-73.7257"/>
</g>
<!-- Node11 -->
<g id="node11" class="node"><title>Node11</title>
<g id="a_node11"><a xlink:href="testTOF_8cxx.html" target="_top" xlink:title="Modules/TOF/test/testTOF.cxx">
<polygon fill="none" stroke="black" points="1657.5,-6 1657.5,-25 1810.5,-25 1810.5,-6 1657.5,-6"/>
<text text-anchor="middle" x="1734" y="-13" font-family="Helvetica,sans-Serif" font-size="10.00">Modules/TOF/test/testTOF.cxx</text>
</a>
</g>
</g>
<!-- Node2&#45;&gt;Node11 -->
<g id="edge10" class="edge"><title>Node2&#45;&gt;Node11</title>
<path fill="none" stroke="midnightblue" d="M1734,-57.2495C1734,-46.017 1734,-33.3767 1734,-25.1945"/>
<polygon fill="midnightblue" stroke="midnightblue" points="1730.5,-57.3959 1734,-67.396 1737.5,-57.396 1730.5,-57.3959"/>
</g>
<!-- Node12 -->
<g id="node12" class="node"><title>Node12</title>
<polygon fill="none" stroke="#bfbfbf" points="1828.5,-6 1828.5,-25 1995.5,-25 1995.5,-6 1828.5,-6"/>
<text text-anchor="middle" x="1912" y="-13" font-family="Helvetica,sans-Serif" font-size="10.00">Modules/TPC/test/testQcTPC.cxx</text>
</g>
<!-- Node2&#45;&gt;Node12 -->
<g id="edge11" class="edge"><title>Node2&#45;&gt;Node12</title>
<path fill="none" stroke="midnightblue" d="M1782.07,-63.9459C1816.64,-51.3213 1861.75,-34.8502 1888.7,-25.007"/>
<polygon fill="midnightblue" stroke="midnightblue" points="1780.82,-60.6781 1772.62,-67.396 1783.22,-67.2534 1780.82,-60.6781"/>
</g>
<!-- Node13&#45;&gt;Node4 -->
<g id="edge16" class="edge"><title>Node13&#45;&gt;Node4</title>
<path fill="none" stroke="midnightblue" d="M639.736,-67.6449C711.262,-54.7305 815.661,-35.8806 875.714,-25.0377"/>
<polygon fill="midnightblue" stroke="midnightblue" points="639.089,-64.2051 629.87,-69.4263 640.332,-71.0937 639.089,-64.2051"/>
</g>
<!-- Node14 -->
<g id="node14" class="node"><title>Node14</title>
<polygon fill="none" stroke="#bfbfbf" points="0,-6 0,-25 132,-25 132,-6 0,-6"/>
<text text-anchor="middle" x="66" y="-13" font-family="Helvetica,sans-Serif" font-size="10.00">Framework/src/Check.cxx</text>
</g>
<!-- Node13&#45;&gt;Node14 -->
<g id="edge13" class="edge"><title>Node13&#45;&gt;Node14</title>
<path fill="none" stroke="midnightblue" d="M486.231,-73.9885C401.485,-65.307 261.142,-49.7775 141,-31 129.994,-29.2798 118.135,-27.1273 107.169,-25.0114"/>
<polygon fill="midnightblue" stroke="midnightblue" points="485.982,-77.4812 496.285,-75.0131 486.691,-70.5172 485.982,-77.4812"/>
</g>
<!-- Node15 -->
<g id="node15" class="node"><title>Node15</title>
<g id="a_node15"><a xlink:href="CheckRunner_8cxx.html" target="_top" xlink:title="Framework/src/CheckRunner.cxx">
<polygon fill="none" stroke="black" points="150,-6 150,-25 314,-25 314,-6 150,-6"/>
<text text-anchor="middle" x="232" y="-13" font-family="Helvetica,sans-Serif" font-size="10.00">Framework/src/CheckRunner.cxx</text>
</a>
</g>
</g>
<!-- Node13&#45;&gt;Node15 -->
<g id="edge14" class="edge"><title>Node13&#45;&gt;Node15</title>
<path fill="none" stroke="midnightblue" d="M486.537,-66.4845C420.971,-53.6091 328.859,-35.5207 275.301,-25.0032"/>
<polygon fill="midnightblue" stroke="midnightblue" points="485.928,-69.9319 496.415,-68.4245 487.277,-63.063 485.928,-69.9319"/>
</g>
<!-- Node16 -->
<g id="node16" class="node"><title>Node16</title>
<g id="a_node16"><a xlink:href="InfrastructureGenerator_8cxx.html" target="_top" xlink:title="Framework/src/Infrastructure\lGenerator.cxx">
<polygon fill="none" stroke="black" points="332.5,-0.5 332.5,-30.5 475.5,-30.5 475.5,-0.5 332.5,-0.5"/>
<text text-anchor="start" x="340.5" y="-18.5" font-family="Helvetica,sans-Serif" font-size="10.00">Framework/src/Infrastructure</text>
<text text-anchor="middle" x="404" y="-7.5" font-family="Helvetica,sans-Serif" font-size="10.00">Generator.cxx</text>
</a>
</g>
</g>
<!-- Node13&#45;&gt;Node16 -->
<g id="edge15" class="edge"><title>Node13&#45;&gt;Node16</title>
<path fill="none" stroke="midnightblue" d="M519.077,-63.5442C493.634,-53.143 462.067,-40.238 438.433,-30.5765"/>
<polygon fill="midnightblue" stroke="midnightblue" points="517.919,-66.8516 528.499,-67.396 520.567,-60.3721 517.919,-66.8516"/>
</g>
<!-- Node17 -->
<g id="node17" class="node"><title>Node17</title>
<g id="a_node17"><a xlink:href="TaskRunnerFactory_8cxx.html" target="_top" xlink:title="Framework/src/TaskRunner\lFactory.cxx">
<polygon fill="none" stroke="black" points="494,-0.5 494,-30.5 632,-30.5 632,-0.5 494,-0.5"/>
<text text-anchor="start" x="502" y="-18.5" font-family="Helvetica,sans-Serif" font-size="10.00">Framework/src/TaskRunner</text>
<text text-anchor="middle" x="563" y="-7.5" font-family="Helvetica,sans-Serif" font-size="10.00">Factory.cxx</text>
</a>
</g>
</g>
<!-- Node13&#45;&gt;Node17 -->
<g id="edge17" class="edge"><title>Node13&#45;&gt;Node17</title>
<path fill="none" stroke="midnightblue" d="M563,-57.1081C563,-48.1539 563,-38.3227 563,-30.5765"/>
<polygon fill="midnightblue" stroke="midnightblue" points="559.5,-57.3959 563,-67.396 566.5,-57.396 559.5,-57.3959"/>
</g>
<!-- Node18 -->
<g id="node18" class="node"><title>Node18</title>
<g id="a_node18"><a xlink:href="testTaskRunner_8cxx.html" target="_top" xlink:title="Framework/test/testTaskRunner.cxx">
<polygon fill="none" stroke="black" points="650,-6 650,-25 826,-25 826,-6 650,-6"/>
<text text-anchor="middle" x="738" y="-13" font-family="Helvetica,sans-Serif" font-size="10.00">Framework/test/testTaskRunner.cxx</text>
</a>
</g>
</g>
<!-- Node13&#45;&gt;Node18 -->
<g id="edge18" class="edge"><title>Node13&#45;&gt;Node18</title>
<path fill="none" stroke="midnightblue" d="M610.697,-63.7838C644.629,-51.1807 688.709,-34.8082 715.097,-25.007"/>
<polygon fill="midnightblue" stroke="midnightblue" points="609.128,-60.633 600.972,-67.396 611.565,-67.195 609.128,-60.633"/>
</g>
<!-- Node21 -->
<g id="node21" class="node"><title>Node21</title>
<g id="a_node21"><a xlink:href="DaqTask_8cxx.html" target="_top" xlink:title="Modules/Daq/src/DaqTask.cxx">
<polygon fill="none" stroke="black" points="2850,-6 2850,-25 3002,-25 3002,-6 2850,-6"/>
<text text-anchor="middle" x="2926" y="-13" font-family="Helvetica,sans-Serif" font-size="10.00">Modules/Daq/src/DaqTask.cxx</text>
</a>
</g>
</g>
<!-- Node20&#45;&gt;Node21 -->
<g id="edge22" class="edge"><title>Node20&#45;&gt;Node21</title>
<path fill="none" stroke="midnightblue" d="M2926,-57.2495C2926,-46.017 2926,-33.3767 2926,-25.1945"/>
<polygon fill="midnightblue" stroke="midnightblue" points="2922.5,-57.3959 2926,-67.396 2929.5,-57.396 2922.5,-57.3959"/>
</g>
<!-- Node22 -->
<g id="node22" class="node"><title>Node22</title>
<g id="a_node22"><a xlink:href="testQcDaq_8cxx.html" target="_top" xlink:title="Modules/Daq/test/testQcDaq.cxx">
<polygon fill="none" stroke="black" points="2668.5,-6 2668.5,-25 2831.5,-25 2831.5,-6 2668.5,-6"/>
<text text-anchor="middle" x="2750" y="-13" font-family="Helvetica,sans-Serif" font-size="10.00">Modules/Daq/test/testQcDaq.cxx</text>
</a>
</g>
</g>
<!-- Node20&#45;&gt;Node22 -->
<g id="edge23" class="edge"><title>Node20&#45;&gt;Node22</title>
<path fill="none" stroke="midnightblue" d="M2878.03,-63.7838C2843.9,-51.1807 2799.57,-34.8082 2773.03,-25.007"/>
<polygon fill="midnightblue" stroke="midnightblue" points="2877.22,-67.2147 2887.81,-67.396 2879.64,-60.6482 2877.22,-67.2147"/>
</g>
<!-- Node24 -->
<g id="node24" class="node"><title>Node24</title>
<g id="a_node24"><a xlink:href="DigitsQcTask_8cxx.html" target="_top" xlink:title="Modules/EMCAL/src/Digits\lQcTask.cxx">
<polygon fill="none" stroke="black" points="3020,-0.5 3020,-30.5 3156,-30.5 3156,-0.5 3020,-0.5"/>
<text text-anchor="start" x="3028" y="-18.5" font-family="Helvetica,sans-Serif" font-size="10.00">Modules/EMCAL/src/Digits</text>
<text text-anchor="middle" x="3088" y="-7.5" font-family="Helvetica,sans-Serif" font-size="10.00">QcTask.cxx</text>
</a>
</g>
</g>
<!-- Node23&#45;&gt;Node24 -->
<g id="edge25" class="edge"><title>Node23&#45;&gt;Node24</title>
<path fill="none" stroke="midnightblue" d="M3071.4,-57.9907C3075.08,-48.8044 3079.17,-38.5781 3082.37,-30.5765"/>
<polygon fill="midnightblue" stroke="midnightblue" points="3068.11,-56.8113 3067.64,-67.396 3074.61,-59.4111 3068.11,-56.8113"/>
</g>
<!-- Node26 -->
<g id="node26" class="node"><title>Node26</title>
<g id="a_node26"><a xlink:href="RawTask_8cxx.html" target="_top" xlink:title="Modules/EMCAL/src/RawTask.cxx">
<polygon fill="none" stroke="black" points="3174.5,-6 3174.5,-25 3345.5,-25 3345.5,-6 3174.5,-6"/>
<text text-anchor="middle" x="3260" y="-13" font-family="Helvetica,sans-Serif" font-size="10.00">Modules/EMCAL/src/RawTask.cxx</text>
</a>
</g>
</g>
<!-- Node25&#45;&gt;Node26 -->
<g id="edge27" class="edge"><title>Node25&#45;&gt;Node26</title>
<path fill="none" stroke="midnightblue" d="M3225.09,-59.3163C3234.64,-47.5978 3245.83,-33.8829 3252.91,-25.1945"/>
<polygon fill="midnightblue" stroke="midnightblue" points="3222.11,-57.434 3218.5,-67.396 3227.53,-61.8576 3222.11,-57.434"/>
</g>
<!-- Node28 -->
<g id="node28" class="node"><title>Node28</title>
<g id="a_node28"><a xlink:href="BenchmarkTask_8cxx.html" target="_top" xlink:title="Modules/Example/src\l/BenchmarkTask.cxx">
<polygon fill="none" stroke="black" points="3363.5,-0.5 3363.5,-30.5 3474.5,-30.5 3474.5,-0.5 3363.5,-0.5"/>
<text text-anchor="start" x="3371.5" y="-18.5" font-family="Helvetica,sans-Serif" font-size="10.00">Modules/Example/src</text>
<text text-anchor="middle" x="3419" y="-7.5" font-family="Helvetica,sans-Serif" font-size="10.00">/BenchmarkTask.cxx</text>
</a>
</g>
</g>
<!-- Node27&#45;&gt;Node28 -->
<g id="edge29" class="edge"><title>Node27&#45;&gt;Node28</title>
<path fill="none" stroke="midnightblue" d="M3381.75,-59.7362C3390.04,-50.119 3399.54,-39.0888 3406.87,-30.5765"/>
<polygon fill="midnightblue" stroke="midnightblue" points="3379.03,-57.5354 3375.15,-67.396 3384.33,-62.1044 3379.03,-57.5354"/>
</g>
<!-- Node30 -->
<g id="node30" class="node"><title>Node30</title>
<g id="a_node30"><a xlink:href="ExampleCondition_8cxx.html" target="_top" xlink:title="Modules/Example/src\l/ExampleCondition.cxx">
<polygon fill="none" stroke="black" points="3493,-0.5 3493,-30.5 3611,-30.5 3611,-0.5 3493,-0.5"/>
<text text-anchor="start" x="3501" y="-18.5" font-family="Helvetica,sans-Serif" font-size="10.00">Modules/Example/src</text>
<text text-anchor="middle" x="3552" y="-7.5" font-family="Helvetica,sans-Serif" font-size="10.00">/ExampleCondition.cxx</text>
</a>
</g>
</g>
<!-- Node29&#45;&gt;Node30 -->
<g id="edge31" class="edge"><title>Node29&#45;&gt;Node30</title>
<path fill="none" stroke="midnightblue" d="M3541.23,-57.6971C3543.61,-48.5871 3546.25,-38.4929 3548.32,-30.5765"/>
<polygon fill="midnightblue" stroke="midnightblue" points="3537.83,-56.8358 3538.69,-67.396 3544.61,-58.607 3537.83,-56.8358"/>
</g>
<!-- Node31&#45;&gt;Node7 -->
<g id="edge34" class="edge"><title>Node31&#45;&gt;Node7</title>
<path fill="none" stroke="midnightblue" d="M2289.48,-62.575C2270.29,-52.3502 2247,-39.94 2229.42,-30.5765"/>
<polygon fill="midnightblue" stroke="midnightblue" points="2288.06,-65.7827 2298.53,-67.396 2291.35,-59.6048 2288.06,-65.7827"/>
</g>
<!-- Node31&#45;&gt;Node8 -->
<g id="edge35" class="edge"><title>Node31&#45;&gt;Node8</title>
<path fill="none" stroke="midnightblue" d="M2260.46,-64.9844C2218.97,-54.3674 2165.64,-40.7201 2126.14,-30.6109"/>
<polygon fill="midnightblue" stroke="midnightblue" points="2259.64,-68.3875 2270.2,-67.476 2261.38,-61.606 2259.64,-68.3875"/>
</g>
<!-- Node32 -->
<g id="node32" class="node"><title>Node32</title>
<g id="a_node32"><a xlink:href="ExampleTask_8cxx.html" target="_top" xlink:title="Modules/Example/src\l/ExampleTask.cxx">
<polygon fill="none" stroke="black" points="2410.5,-0.5 2410.5,-30.5 2521.5,-30.5 2521.5,-0.5 2410.5,-0.5"/>
<text text-anchor="start" x="2418.5" y="-18.5" font-family="Helvetica,sans-Serif" font-size="10.00">Modules/Example/src</text>
<text text-anchor="middle" x="2466" y="-7.5" font-family="Helvetica,sans-Serif" font-size="10.00">/ExampleTask.cxx</text>
</a>
</g>
</g>
<!-- Node31&#45;&gt;Node32 -->
<g id="edge33" class="edge"><title>Node31&#45;&gt;Node32</title>
<path fill="none" stroke="midnightblue" d="M2364.85,-63.1305C2387.25,-52.8025 2414.78,-40.1103 2435.46,-30.5765"/>
<polygon fill="midnightblue" stroke="midnightblue" points="2363.21,-60.0309 2355.59,-67.396 2366.14,-66.3879 2363.21,-60.0309"/>
</g>
<!-- Node33&#45;&gt;Node10 -->
<g id="edge38" class="edge"><title>Node33&#45;&gt;Node10</title>
<path fill="none" stroke="midnightblue" d="M2528.94,-64.9844C2486.47,-54.3674 2431.88,-40.7201 2391.44,-30.6109"/>
<polygon fill="midnightblue" stroke="midnightblue" points="2528.35,-68.4461 2538.9,-67.476 2530.05,-61.6551 2528.35,-68.4461"/>
</g>
<!-- Node34 -->
<g id="node34" class="node"><title>Node34</title>
<g id="a_node34"><a xlink:href="SkeletonTask_8cxx.html" target="_top" xlink:title="Modules/Skeleton/src\l/SkeletonTask.cxx">
<polygon fill="none" stroke="black" points="2539.5,-0.5 2539.5,-30.5 2650.5,-30.5 2650.5,-0.5 2539.5,-0.5"/>
<text text-anchor="start" x="2547.5" y="-18.5" font-family="Helvetica,sans-Serif" font-size="10.00">Modules/Skeleton/src</text>
<text text-anchor="middle" x="2595" y="-7.5" font-family="Helvetica,sans-Serif" font-size="10.00">/SkeletonTask.cxx</text>
</a>
</g>
</g>
<!-- Node33&#45;&gt;Node34 -->
<g id="edge37" class="edge"><title>Node33&#45;&gt;Node34</title>
<path fill="none" stroke="midnightblue" d="M2595,-57.1081C2595,-48.1539 2595,-38.3227 2595,-30.5765"/>
<polygon fill="midnightblue" stroke="midnightblue" points="2591.5,-57.3959 2595,-67.396 2598.5,-57.396 2591.5,-57.3959"/>
</g>
<!-- Node36 -->
<g id="node36" class="node"><title>Node36</title>
<g id="a_node36"><a xlink:href="TOFTask_8cxx.html" target="_top" xlink:title="Modules/TOF/src/TOFTask.cxx">
<polygon fill="none" stroke="black" points="3629.5,-6 3629.5,-25 3784.5,-25 3784.5,-6 3629.5,-6"/>
<text text-anchor="middle" x="3707" y="-13" font-family="Helvetica,sans-Serif" font-size="10.00">Modules/TOF/src/TOFTask.cxx</text>
</a>
</g>
</g>
<!-- Node35&#45;&gt;Node36 -->
<g id="edge40" class="edge"><title>Node35&#45;&gt;Node36</title>
<path fill="none" stroke="midnightblue" d="M3703.87,-57.2495C3704.73,-46.017 3705.7,-33.3767 3706.33,-25.1945"/>
<polygon fill="midnightblue" stroke="midnightblue" points="3700.36,-57.157 3703.08,-67.396 3707.34,-57.6939 3700.36,-57.157"/>
</g>
<!-- Node38 -->
<g id="node38" class="node"><title>Node38</title>
<g id="a_node38"><a xlink:href="PID_8cxx.html" target="_top" xlink:title="Modules/TPC/src/PID.cxx">
<polygon fill="none" stroke="black" points="3803,-6 3803,-25 3935,-25 3935,-6 3803,-6"/>
<text text-anchor="middle" x="3869" y="-13" font-family="Helvetica,sans-Serif" font-size="10.00">Modules/TPC/src/PID.cxx</text>
</a>
</g>
</g>
<!-- Node37&#45;&gt;Node38 -->
<g id="edge42" class="edge"><title>Node37&#45;&gt;Node38</title>
<path fill="none" stroke="midnightblue" d="M3867.75,-57.2495C3868.09,-46.017 3868.48,-33.3767 3868.73,-25.1945"/>
<polygon fill="midnightblue" stroke="midnightblue" points="3864.24,-57.293 3867.43,-67.396 3871.24,-57.5084 3864.24,-57.293"/>
</g>
</g>
</svg>
