<?xml version="1.0" encoding="UTF-8" standalone="no"?>
<!DOCTYPE svg PUBLIC "-//W3C//DTD SVG 1.1//EN"
 "http://www.w3.org/Graphics/SVG/1.1/DTD/svg11.dtd">
<!-- Generated by graphviz version 2.38.0 (20140413.2041)
 -->
<!-- Title: Framework/include/QualityControl/TaskFactory.h Pages: 1 -->
<svg width="989pt" height="319pt"
 viewBox="0.00 0.00 988.71 319.00" xmlns="http://www.w3.org/2000/svg" xmlns:xlink="http://www.w3.org/1999/xlink">
<g id="graph0" class="graph" transform="scale(1 1) rotate(0) translate(4 315)">
<title>Framework/include/QualityControl/TaskFactory.h</title>
<!-- Node1 -->
<g id="node1" class="node"><title>Node1</title>
<polygon fill="#bfbfbf" stroke="black" points="471.119,-280.5 471.119,-310.5 604.119,-310.5 604.119,-280.5 471.119,-280.5"/>
<text text-anchor="start" x="479.119" y="-298.5" font-family="Helvetica,sans-Serif" font-size="10.00">Framework/include/Quality</text>
<text text-anchor="middle" x="537.619" y="-287.5" font-family="Helvetica,sans-Serif" font-size="10.00">Control/TaskFactory.h</text>
</g>
<!-- Node2 -->
<g id="node2" class="node"><title>Node2</title>
<polygon fill="none" stroke="#bfbfbf" points="112.619,-112.5 112.619,-131.5 164.619,-131.5 164.619,-112.5 112.619,-112.5"/>
<text text-anchor="middle" x="138.619" y="-119.5" font-family="Helvetica,sans-Serif" font-size="10.00">memory</text>
</g>
<!-- Node1&#45;&gt;Node2 -->
<g id="edge1" class="edge"><title>Node1&#45;&gt;Node2</title>
<path fill="none" stroke="midnightblue" d="M471.048,-281.879C401.967,-266.8 292.499,-237.228 208.619,-188 186.619,-175.089 165.786,-154.228 152.659,-139.631"/>
<polygon fill="midnightblue" stroke="midnightblue" points="155.088,-137.091 145.87,-131.867 149.819,-141.699 155.088,-137.091"/>
</g>
<!-- Node3 -->
<g id="node3" class="node"><title>Node3</title>
<g id="a_node3"><a xlink:href="TaskConfig_8h.html" target="_top" xlink:title="QualityControl/TaskConfig.h">
<polygon fill="none" stroke="black" points="530.619,-112.5 530.619,-131.5 670.619,-131.5 670.619,-112.5 530.619,-112.5"/>
<text text-anchor="middle" x="600.619" y="-119.5" font-family="Helvetica,sans-Serif" font-size="10.00">QualityControl/TaskConfig.h</text>
</a>
</g>
</g>
<!-- Node1&#45;&gt;Node3 -->
<g id="edge2" class="edge"><title>Node1&#45;&gt;Node3</title>
<path fill="none" stroke="midnightblue" d="M604.291,-288.191C715.253,-276.161 930.161,-245.835 975.619,-188 1013.26,-140.109 802.163,-127.486 681.095,-124.171"/>
<polygon fill="midnightblue" stroke="midnightblue" points="680.834,-120.663 670.747,-123.904 680.653,-127.661 680.834,-120.663"/>
</g>
<!-- Node6 -->
<g id="node6" class="node"><title>Node6</title>
<g id="a_node6"><a xlink:href="TaskInterface_8h.html" target="_top" xlink:title="QualityControl/TaskInterface.h">
<polygon fill="none" stroke="black" points="462.619,-224.5 462.619,-243.5 612.619,-243.5 612.619,-224.5 462.619,-224.5"/>
<text text-anchor="middle" x="537.619" y="-231.5" font-family="Helvetica,sans-Serif" font-size="10.00">QualityControl/TaskInterface.h</text>
</a>
</g>
</g>
<!-- Node1&#45;&gt;Node6 -->
<g id="edge5" class="edge"><title>Node1&#45;&gt;Node6</title>
<path fill="none" stroke="midnightblue" d="M537.619,-280.399C537.619,-272.466 537.619,-262.458 537.619,-253.858"/>
<polygon fill="midnightblue" stroke="midnightblue" points="541.119,-253.658 537.619,-243.658 534.119,-253.658 541.119,-253.658"/>
</g>
<!-- Node4 -->
<g id="node4" class="node"><title>Node4</title>
<polygon fill="none" stroke="#bfbfbf" points="396.119,-0.5 396.119,-19.5 437.119,-19.5 437.119,-0.5 396.119,-0.5"/>
<text text-anchor="middle" x="416.619" y="-7.5" font-family="Helvetica,sans-Serif" font-size="10.00">string</text>
</g>
<!-- Node3&#45;&gt;Node4 -->
<g id="edge3" class="edge"><title>Node3&#45;&gt;Node4</title>
<path fill="none" stroke="midnightblue" d="M601.875,-112.151C603.306,-98.311 603.85,-71.5233 589.619,-56 570.592,-35.2452 491.623,-21.3045 447.245,-14.9454"/>
<polygon fill="midnightblue" stroke="midnightblue" points="447.673,-11.4714 437.287,-13.5626 446.71,-18.4049 447.673,-11.4714"/>
</g>
<!-- Node5 -->
<g id="node5" class="node"><title>Node5</title>
<polygon fill="none" stroke="#bfbfbf" points="498.119,-56.5 498.119,-75.5 581.119,-75.5 581.119,-56.5 498.119,-56.5"/>
<text text-anchor="middle" x="539.619" y="-63.5" font-family="Helvetica,sans-Serif" font-size="10.00">unordered_map</text>
</g>
<!-- Node3&#45;&gt;Node5 -->
<g id="edge4" class="edge"><title>Node3&#45;&gt;Node5</title>
<path fill="none" stroke="midnightblue" d="M590.818,-112.324C581.801,-104.341 568.213,-92.3128 557.301,-82.6529"/>
<polygon fill="midnightblue" stroke="midnightblue" points="559.406,-79.8416 549.598,-75.8339 554.766,-85.083 559.406,-79.8416"/>
</g>
<!-- Node6&#45;&gt;Node2 -->
<g id="edge7" class="edge"><title>Node6&#45;&gt;Node2</title>
<path fill="none" stroke="midnightblue" d="M462.567,-228.169C404.731,-222.756 323.448,-211.436 255.619,-188 219.522,-175.528 181.549,-152.279 158.988,-137.231"/>
<polygon fill="midnightblue" stroke="midnightblue" points="160.825,-134.248 150.585,-131.528 156.894,-140.04 160.825,-134.248"/>
</g>
<!-- Node6&#45;&gt;Node4 -->
<g id="edge8" class="edge"><title>Node6&#45;&gt;Node4</title>
<path fill="none" stroke="midnightblue" d="M612.692,-233.962C749.099,-234.272 1019.7,-227.545 975.619,-168 910.598,-80.1764 554.78,-28.5026 447.346,-14.7379"/>
<polygon fill="midnightblue" stroke="midnightblue" points="447.538,-11.2344 437.178,-13.454 446.661,-18.1793 447.538,-11.2344"/>
</g>
<!-- Node6&#45;&gt;Node5 -->
<g id="edge9" class="edge"><title>Node6&#45;&gt;Node5</title>
<path fill="none" stroke="midnightblue" d="M530.729,-224.319C524.35,-215.684 515.311,-201.77 511.619,-188 501.842,-151.535 518.537,-108.349 530.066,-84.6926"/>
<polygon fill="midnightblue" stroke="midnightblue" points="533.301,-86.055 534.743,-75.5588 527.07,-82.8648 533.301,-86.055"/>
</g>
<!-- Node7 -->
<g id="node7" class="node"><title>Node7</title>
<polygon fill="none" stroke="#bfbfbf" points="445.119,-56.5 445.119,-75.5 480.119,-75.5 480.119,-56.5 445.119,-56.5"/>
<text text-anchor="middle" x="462.619" y="-63.5" font-family="Helvetica,sans-Serif" font-size="10.00">map</text>
</g>
<!-- Node6&#45;&gt;Node7 -->
<g id="edge6" class="edge"><title>Node6&#45;&gt;Node7</title>
<path fill="none" stroke="midnightblue" d="M530.215,-224.172C523.161,-215.429 512.611,-201.436 505.619,-188 487.592,-153.357 474.102,-109.469 467.381,-85.2093"/>
<polygon fill="midnightblue" stroke="midnightblue" points="470.759,-84.2923 464.777,-75.5477 464,-86.114 470.759,-84.2923"/>
</g>
<!-- Node8 -->
<g id="node8" class="node"><title>Node8</title>
<polygon fill="none" stroke="#bfbfbf" points="521.119,-168.5 521.119,-187.5 646.119,-187.5 646.119,-168.5 521.119,-168.5"/>
<text text-anchor="middle" x="583.619" y="-175.5" font-family="Helvetica,sans-Serif" font-size="10.00">Framework/InitContext.h</text>
</g>
<!-- Node6&#45;&gt;Node8 -->
<g id="edge10" class="edge"><title>Node6&#45;&gt;Node8</title>
<path fill="none" stroke="midnightblue" d="M545.215,-224.083C551.846,-216.298 561.64,-204.801 569.677,-195.367"/>
<polygon fill="midnightblue" stroke="midnightblue" points="572.344,-197.633 576.164,-187.751 567.015,-193.094 572.344,-197.633"/>
</g>
<!-- Node9 -->
<g id="node9" class="node"><title>Node9</title>
<polygon fill="none" stroke="#bfbfbf" points="664.619,-168.5 664.619,-187.5 824.619,-187.5 824.619,-168.5 664.619,-168.5"/>
<text text-anchor="middle" x="744.619" y="-175.5" font-family="Helvetica,sans-Serif" font-size="10.00">Framework/ProcessingContext.h</text>
</g>
<!-- Node6&#45;&gt;Node9 -->
<g id="edge11" class="edge"><title>Node6&#45;&gt;Node9</title>
<path fill="none" stroke="midnightblue" d="M570.419,-224.444C605.999,-215.162 662.933,-200.309 701.966,-190.127"/>
<polygon fill="midnightblue" stroke="midnightblue" points="703.18,-193.427 711.973,-187.516 701.413,-186.654 703.18,-193.427"/>
</g>
<!-- Node10 -->
<g id="node10" class="node"><title>Node10</title>
<g id="a_node10"><a xlink:href="Activity_8h.html" target="_top" xlink:title="QualityControl/Activity.h">
<polygon fill="none" stroke="black" points="843.119,-168.5 843.119,-187.5 966.119,-187.5 966.119,-168.5 843.119,-168.5"/>
<text text-anchor="middle" x="904.619" y="-175.5" font-family="Helvetica,sans-Serif" font-size="10.00">QualityControl/Activity.h</text>
</a>
</g>
</g>
<!-- Node6&#45;&gt;Node10 -->
<g id="edge12" class="edge"><title>Node6&#45;&gt;Node10</title>
<path fill="none" stroke="midnightblue" d="M595.771,-224.444C661.27,-214.806 767.582,-199.163 836.804,-188.978"/>
<polygon fill="midnightblue" stroke="midnightblue" points="837.355,-192.435 846.739,-187.516 836.336,-185.51 837.355,-192.435"/>
</g>
<!-- Node11 -->
<g id="node11" class="node"><title>Node11</title>
<g id="a_node11"><a xlink:href="ObjectsManager_8h.html" target="_top" xlink:title="QualityControl/ObjectsManager.h">
<polygon fill="none" stroke="black" points="265.119,-168.5 265.119,-187.5 426.119,-187.5 426.119,-168.5 265.119,-168.5"/>
<text text-anchor="middle" x="345.619" y="-175.5" font-family="Helvetica,sans-Serif" font-size="10.00">QualityControl/ObjectsManager.h</text>
</a>
</g>
</g>
<!-- Node6&#45;&gt;Node11 -->
<g id="edge13" class="edge"><title>Node6&#45;&gt;Node11</title>
<path fill="none" stroke="midnightblue" d="M507.196,-224.444C474.334,-215.201 421.834,-200.436 385.645,-190.257"/>
<polygon fill="midnightblue" stroke="midnightblue" points="386.474,-186.855 375.9,-187.516 384.578,-193.593 386.474,-186.855"/>
</g>
<!-- Node11&#45;&gt;Node2 -->
<g id="edge26" class="edge"><title>Node11&#45;&gt;Node2</title>
<path fill="none" stroke="midnightblue" d="M312.819,-168.444C275.145,-158.616 213.532,-142.543 174.578,-132.381"/>
<polygon fill="midnightblue" stroke="midnightblue" points="175.271,-128.944 164.711,-129.807 173.504,-135.718 175.271,-128.944"/>
</g>
<!-- Node11&#45;&gt;Node3 -->
<g id="edge24" class="edge"><title>Node11&#45;&gt;Node3</title>
<path fill="none" stroke="midnightblue" d="M386.024,-168.444C430.602,-159.004 502.387,-143.802 550.511,-133.611"/>
<polygon fill="midnightblue" stroke="midnightblue" points="551.345,-137.012 560.402,-131.516 549.894,-130.164 551.345,-137.012"/>
</g>
<!-- Node11&#45;&gt;Node4 -->
<g id="edge25" class="edge"><title>Node11&#45;&gt;Node4</title>
<path fill="none" stroke="midnightblue" d="M350.638,-168.317C360.432,-151.123 382.376,-111.346 396.619,-76 402.824,-60.5999 408.247,-42.5052 411.875,-29.3232"/>
<polygon fill="midnightblue" stroke="midnightblue" points="415.28,-30.1373 414.478,-19.5729 408.517,-28.3319 415.28,-30.1373"/>
</g>
<!-- Node12 -->
<g id="node12" class="node"><title>Node12</title>
<g id="a_node12"><a xlink:href="MonitorObject_8h.html" target="_top" xlink:title="QualityControl/MonitorObject.h">
<polygon fill="none" stroke="black" points="183.119,-112.5 183.119,-131.5 334.119,-131.5 334.119,-112.5 183.119,-112.5"/>
<text text-anchor="middle" x="258.619" y="-119.5" font-family="Helvetica,sans-Serif" font-size="10.00">QualityControl/MonitorObject.h</text>
</a>
</g>
</g>
<!-- Node11&#45;&gt;Node12 -->
<g id="edge14" class="edge"><title>Node11&#45;&gt;Node12</title>
<path fill="none" stroke="midnightblue" d="M331.641,-168.324C318.069,-159.9 297.239,-146.971 281.294,-137.074"/>
<polygon fill="midnightblue" stroke="midnightblue" points="282.905,-133.954 272.562,-131.655 279.213,-139.902 282.905,-133.954"/>
</g>
<!-- Node16 -->
<g id="node16" class="node"><title>Node16</title>
<g id="a_node16"><a xlink:href="Quality_8h.html" target="_top" xlink:title="QualityControl/Quality.h">
<polygon fill="none" stroke="black" points="267.119,-56.5 267.119,-75.5 388.119,-75.5 388.119,-56.5 267.119,-56.5"/>
<text text-anchor="middle" x="327.619" y="-63.5" font-family="Helvetica,sans-Serif" font-size="10.00">QualityControl/Quality.h</text>
</a>
</g>
</g>
<!-- Node11&#45;&gt;Node16 -->
<g id="edge23" class="edge"><title>Node11&#45;&gt;Node16</title>
<path fill="none" stroke="midnightblue" d="M345.977,-168.08C346.31,-155.472 346.297,-131.769 342.619,-112 340.943,-102.993 337.891,-93.316 334.976,-85.2524"/>
<polygon fill="midnightblue" stroke="midnightblue" points="338.191,-83.8621 331.348,-75.7734 331.653,-86.3638 338.191,-83.8621"/>
</g>
<!-- Node12&#45;&gt;Node4 -->
<g id="edge15" class="edge"><title>Node12&#45;&gt;Node4</title>
<path fill="none" stroke="midnightblue" d="M255.454,-112.398C251.09,-98.8959 245.093,-72.5632 257.619,-56 273.093,-35.5387 344.547,-21.7038 386.213,-15.2231"/>
<polygon fill="midnightblue" stroke="midnightblue" points="386.743,-18.6827 396.112,-13.7343 385.702,-11.7606 386.743,-18.6827"/>
</g>
<!-- Node12&#45;&gt;Node7 -->
<g id="edge16" class="edge"><title>Node12&#45;&gt;Node7</title>
<path fill="none" stroke="midnightblue" d="M290.943,-112.444C330.788,-101.896 397.806,-84.1564 435.233,-74.2491"/>
<polygon fill="midnightblue" stroke="midnightblue" points="436.187,-77.6174 444.958,-71.6749 434.395,-70.8505 436.187,-77.6174"/>
</g>
<!-- Node13 -->
<g id="node13" class="node"><title>Node13</title>
<polygon fill="none" stroke="#bfbfbf" points="130.619,-0.5 130.619,-19.5 186.619,-19.5 186.619,-0.5 130.619,-0.5"/>
<text text-anchor="middle" x="158.619" y="-7.5" font-family="Helvetica,sans-Serif" font-size="10.00">Rtypes.h</text>
</g>
<!-- Node12&#45;&gt;Node13 -->
<g id="edge17" class="edge"><title>Node12&#45;&gt;Node13</title>
<path fill="none" stroke="midnightblue" d="M183.995,-112.492C114.188,-103.764 18.9823,-89.5818 7.61895,-76 -25.8458,-36.002 65.3897,-19.9874 120.361,-14.0966"/>
<polygon fill="midnightblue" stroke="midnightblue" points="120.894,-17.5608 130.495,-13.0801 120.195,-10.5958 120.894,-17.5608"/>
</g>
<!-- Node14 -->
<g id="node14" class="node"><title>Node14</title>
<polygon fill="none" stroke="#bfbfbf" points="17.1189,-56.5 17.1189,-75.5 76.1189,-75.5 76.1189,-56.5 17.1189,-56.5"/>
<text text-anchor="middle" x="46.6189" y="-63.5" font-family="Helvetica,sans-Serif" font-size="10.00">TObject.h</text>
</g>
<!-- Node12&#45;&gt;Node14 -->
<g id="edge18" class="edge"><title>Node12&#45;&gt;Node14</title>
<path fill="none" stroke="midnightblue" d="M225.027,-112.444C187.328,-102.841 126.222,-87.2763 86.2266,-77.0887"/>
<polygon fill="midnightblue" stroke="midnightblue" points="86.8456,-73.6347 76.2911,-74.558 85.1177,-80.4181 86.8456,-73.6347"/>
</g>
<!-- Node15 -->
<g id="node15" class="node"><title>Node15</title>
<polygon fill="none" stroke="#bfbfbf" points="94.6189,-56.5 94.6189,-75.5 210.619,-75.5 210.619,-56.5 94.6189,-56.5"/>
<text text-anchor="middle" x="152.619" y="-63.5" font-family="Helvetica,sans-Serif" font-size="10.00">Common/Exceptions.h</text>
</g>
<!-- Node12&#45;&gt;Node15 -->
<g id="edge19" class="edge"><title>Node12&#45;&gt;Node15</title>
<path fill="none" stroke="midnightblue" d="M241.588,-112.324C224.589,-103.664 198.243,-90.2424 178.626,-80.249"/>
<polygon fill="midnightblue" stroke="midnightblue" points="180.107,-77.0752 169.607,-75.6545 176.929,-83.3125 180.107,-77.0752"/>
</g>
<!-- Node12&#45;&gt;Node16 -->
<g id="edge20" class="edge"><title>Node12&#45;&gt;Node16</title>
<path fill="none" stroke="midnightblue" d="M269.705,-112.324C280.105,-104.185 295.88,-91.8395 308.341,-82.0874"/>
<polygon fill="midnightblue" stroke="midnightblue" points="310.613,-84.7533 316.331,-75.8339 306.299,-79.2407 310.613,-84.7533"/>
</g>
<!-- Node16&#45;&gt;Node4 -->
<g id="edge22" class="edge"><title>Node16&#45;&gt;Node4</title>
<path fill="none" stroke="midnightblue" d="M341.918,-56.324C355.802,-47.9002 377.111,-34.9709 393.423,-25.0741"/>
<polygon fill="midnightblue" stroke="midnightblue" points="395.621,-27.8341 402.355,-19.6545 391.99,-21.8495 395.621,-27.8341"/>
</g>
<!-- Node16&#45;&gt;Node13 -->
<g id="edge21" class="edge"><title>Node16&#45;&gt;Node13</title>
<path fill="none" stroke="midnightblue" d="M300.84,-56.4435C272.286,-47.3196 226.886,-32.8133 195.082,-22.6509"/>
<polygon fill="midnightblue" stroke="midnightblue" points="195.863,-19.2262 185.272,-19.5164 193.732,-25.8941 195.863,-19.2262"/>
</g>
</g>
</svg>
