<?xml version="1.0" encoding="UTF-8" standalone="no"?>
<!DOCTYPE svg PUBLIC "-//W3C//DTD SVG 1.1//EN"
 "http://www.w3.org/Graphics/SVG/1.1/DTD/svg11.dtd">
<!-- Generated by graphviz version 2.38.0 (20140413.2041)
 -->
<!-- Title: Framework/src/TaskRunner.cxx Pages: 1 -->
<svg width="3062pt" height="375pt"
 viewBox="0.00 0.00 3062.00 375.00" xmlns="http://www.w3.org/2000/svg" xmlns:xlink="http://www.w3.org/1999/xlink">
<g id="graph0" class="graph" transform="scale(1 1) rotate(0) translate(4 371)">
<title>Framework/src/TaskRunner.cxx</title>
<!-- Node1 -->
<g id="node1" class="node"><title>Node1</title>
<polygon fill="#bfbfbf" stroke="black" points="1938,-347.5 1938,-366.5 2095,-366.5 2095,-347.5 1938,-347.5"/>
<text text-anchor="middle" x="2016.5" y="-354.5" font-family="Helvetica,sans-Serif" font-size="10.00">Framework/src/TaskRunner.cxx</text>
</g>
<!-- Node2 -->
<g id="node2" class="node"><title>Node2</title>
<g id="a_node2"><a xlink:href="TaskRunner_8h.html" target="_top" xlink:title="QualityControl/TaskRunner.h">
<polygon fill="none" stroke="black" points="461,-286 461,-305 604,-305 604,-286 461,-286"/>
<text text-anchor="middle" x="532.5" y="-293" font-family="Helvetica,sans-Serif" font-size="10.00">QualityControl/TaskRunner.h</text>
</a>
</g>
</g>
<!-- Node1&#45;&gt;Node2 -->
<g id="edge1" class="edge"><title>Node1&#45;&gt;Node2</title>
<path fill="none" stroke="midnightblue" d="M1937.88,-354.061C1738.87,-348.968 1199.02,-333.996 749.5,-311 704.83,-308.715 655.036,-305.44 614.425,-302.58"/>
<polygon fill="midnightblue" stroke="midnightblue" points="614.529,-299.079 604.306,-301.863 614.034,-306.061 614.529,-299.079"/>
</g>
<!-- Node9 -->
<g id="node9" class="node"><title>Node9</title>
<polygon fill="none" stroke="#bfbfbf" points="945,-0.5 945,-19.5 986,-19.5 986,-0.5 945,-0.5"/>
<text text-anchor="middle" x="965.5" y="-7.5" font-family="Helvetica,sans-Serif" font-size="10.00">string</text>
</g>
<!-- Node1&#45;&gt;Node9 -->
<g id="edge47" class="edge"><title>Node1&#45;&gt;Node9</title>
<path fill="none" stroke="midnightblue" d="M1937.64,-356.688C1662.77,-358.06 763.5,-353.493 763.5,-235 763.5,-235 763.5,-235 763.5,-121 763.5,-44.0957 877.822,-20.6466 934.458,-13.7483"/>
<polygon fill="midnightblue" stroke="midnightblue" points="935.094,-17.1992 944.643,-12.6109 934.317,-10.2424 935.094,-17.1992"/>
</g>
<!-- Node13 -->
<g id="node13" class="node"><title>Node13</title>
<polygon fill="none" stroke="#bfbfbf" points="1646.5,-112.5 1646.5,-131.5 1698.5,-131.5 1698.5,-112.5 1646.5,-112.5"/>
<text text-anchor="middle" x="1672.5" y="-119.5" font-family="Helvetica,sans-Serif" font-size="10.00">memory</text>
</g>
<!-- Node1&#45;&gt;Node13 -->
<g id="edge32" class="edge"><title>Node1&#45;&gt;Node13</title>
<path fill="none" stroke="midnightblue" d="M1937.97,-351.506C1868.69,-346.041 1774.37,-334.463 1745.5,-311 1692.31,-267.771 1677.78,-180.731 1673.89,-142.155"/>
<polygon fill="midnightblue" stroke="midnightblue" points="1677.35,-141.5 1672.99,-131.842 1670.37,-142.107 1677.35,-141.5"/>
</g>
<!-- Node21 -->
<g id="node21" class="node"><title>Node21</title>
<polygon fill="none" stroke="#bfbfbf" points="1613.5,-56.5 1613.5,-75.5 1729.5,-75.5 1729.5,-56.5 1613.5,-56.5"/>
<text text-anchor="middle" x="1671.5" y="-63.5" font-family="Helvetica,sans-Serif" font-size="10.00">Common/Exceptions.h</text>
</g>
<!-- Node1&#45;&gt;Node21 -->
<g id="edge33" class="edge"><title>Node1&#45;&gt;Node21</title>
<path fill="none" stroke="midnightblue" d="M1937.86,-350.194C1877.66,-344.138 1801.21,-332.427 1778.5,-311 1753.18,-287.106 1759.5,-269.817 1759.5,-235 1759.5,-235 1759.5,-235 1759.5,-177 1759.5,-135.032 1719.96,-99.9022 1693.89,-81.3001"/>
<polygon fill="midnightblue" stroke="midnightblue" points="1695.86,-78.4118 1685.64,-75.6391 1691.9,-84.1834 1695.86,-78.4118"/>
</g>
<!-- Node23 -->
<g id="node23" class="node"><title>Node23</title>
<polygon fill="none" stroke="#bfbfbf" points="1788,-280.5 1788,-310.5 1923,-310.5 1923,-280.5 1788,-280.5"/>
<text text-anchor="start" x="1796" y="-298.5" font-family="Helvetica,sans-Serif" font-size="10.00">Configuration/Configuration</text>
<text text-anchor="middle" x="1855.5" y="-287.5" font-family="Helvetica,sans-Serif" font-size="10.00">Factory.h</text>
</g>
<!-- Node1&#45;&gt;Node23 -->
<g id="edge34" class="edge"><title>Node1&#45;&gt;Node23</title>
<path fill="none" stroke="midnightblue" d="M1993.43,-347.475C1969.9,-338.776 1932.69,-325.026 1902.85,-313.998"/>
<polygon fill="midnightblue" stroke="midnightblue" points="1904.04,-310.707 1893.44,-310.523 1901.61,-317.273 1904.04,-310.707"/>
</g>
<!-- Node24 -->
<g id="node24" class="node"><title>Node24</title>
<polygon fill="none" stroke="#bfbfbf" points="1941,-286 1941,-305 2092,-305 2092,-286 1941,-286"/>
<text text-anchor="middle" x="2016.5" y="-293" font-family="Helvetica,sans-Serif" font-size="10.00">Monitoring/MonitoringFactory.h</text>
</g>
<!-- Node1&#45;&gt;Node24 -->
<g id="edge35" class="edge"><title>Node1&#45;&gt;Node24</title>
<path fill="none" stroke="midnightblue" d="M2016.5,-347.475C2016.5,-339.08 2016.5,-325.981 2016.5,-315.163"/>
<polygon fill="midnightblue" stroke="midnightblue" points="2020,-315.009 2016.5,-305.009 2013,-315.009 2020,-315.009"/>
</g>
<!-- Node25 -->
<g id="node25" class="node"><title>Node25</title>
<polygon fill="none" stroke="#bfbfbf" points="2110.5,-286 2110.5,-305 2248.5,-305 2248.5,-286 2110.5,-286"/>
<text text-anchor="middle" x="2179.5" y="-293" font-family="Helvetica,sans-Serif" font-size="10.00">Framework/DataSampling.h</text>
</g>
<!-- Node1&#45;&gt;Node25 -->
<g id="edge36" class="edge"><title>Node1&#45;&gt;Node25</title>
<path fill="none" stroke="midnightblue" d="M2039.85,-347.475C2067.81,-337.269 2114.83,-320.108 2146.49,-308.549"/>
<polygon fill="midnightblue" stroke="midnightblue" points="2148,-311.726 2156.19,-305.009 2145.6,-305.15 2148,-311.726"/>
</g>
<!-- Node26 -->
<g id="node26" class="node"><title>Node26</title>
<polygon fill="none" stroke="#bfbfbf" points="2266.5,-286 2266.5,-305 2414.5,-305 2414.5,-286 2266.5,-286"/>
<text text-anchor="middle" x="2340.5" y="-293" font-family="Helvetica,sans-Serif" font-size="10.00">Framework/CallbackService.h</text>
</g>
<!-- Node1&#45;&gt;Node26 -->
<g id="edge37" class="edge"><title>Node1&#45;&gt;Node26</title>
<path fill="none" stroke="midnightblue" d="M2062.92,-347.475C2121.27,-336.761 2221.34,-318.382 2284.05,-306.866"/>
<polygon fill="midnightblue" stroke="midnightblue" points="2284.96,-310.258 2294.16,-305.009 2283.7,-303.373 2284.96,-310.258"/>
</g>
<!-- Node27 -->
<g id="node27" class="node"><title>Node27</title>
<polygon fill="none" stroke="#bfbfbf" points="2433,-286 2433,-305 2576,-305 2576,-286 2433,-286"/>
<text text-anchor="middle" x="2504.5" y="-293" font-family="Helvetica,sans-Serif" font-size="10.00">Framework/TimesliceIndex.h</text>
</g>
<!-- Node1&#45;&gt;Node27 -->
<g id="edge38" class="edge"><title>Node1&#45;&gt;Node27</title>
<path fill="none" stroke="midnightblue" d="M2095.1,-348.885C2177.22,-341.084 2309.7,-327.459 2423.5,-311 2432.13,-309.752 2441.25,-308.275 2450.13,-306.749"/>
<polygon fill="midnightblue" stroke="midnightblue" points="2450.78,-310.189 2460.02,-305.015 2449.57,-303.294 2450.78,-310.189"/>
</g>
<!-- Node28 -->
<g id="node28" class="node"><title>Node28</title>
<polygon fill="none" stroke="#bfbfbf" points="2594.5,-286 2594.5,-305 2734.5,-305 2734.5,-286 2594.5,-286"/>
<text text-anchor="middle" x="2664.5" y="-293" font-family="Helvetica,sans-Serif" font-size="10.00">Framework/DataSpecUtils.h</text>
</g>
<!-- Node1&#45;&gt;Node28 -->
<g id="edge39" class="edge"><title>Node1&#45;&gt;Node28</title>
<path fill="none" stroke="midnightblue" d="M2095.32,-352.257C2205.23,-346.469 2410.63,-333.587 2584.5,-311 2593.35,-309.851 2602.7,-308.385 2611.78,-306.829"/>
<polygon fill="midnightblue" stroke="midnightblue" points="2612.62,-310.234 2621.86,-305.046 2611.4,-303.341 2612.62,-310.234"/>
</g>
<!-- Node29 -->
<g id="node29" class="node"><title>Node29</title>
<polygon fill="none" stroke="#bfbfbf" points="2752.5,-280.5 2752.5,-310.5 2886.5,-310.5 2886.5,-280.5 2752.5,-280.5"/>
<text text-anchor="start" x="2760.5" y="-298.5" font-family="Helvetica,sans-Serif" font-size="10.00">Framework/DataDescriptor</text>
<text text-anchor="middle" x="2819.5" y="-287.5" font-family="Helvetica,sans-Serif" font-size="10.00">QueryBuilder.h</text>
</g>
<!-- Node1&#45;&gt;Node29 -->
<g id="edge40" class="edge"><title>Node1&#45;&gt;Node29</title>
<path fill="none" stroke="midnightblue" d="M2095.07,-354.396C2226.91,-350.987 2501.09,-340.825 2742.42,-311.023"/>
<polygon fill="midnightblue" stroke="midnightblue" points="2742.95,-314.485 2752.44,-309.772 2742.08,-307.538 2742.95,-314.485"/>
</g>
<!-- Node30 -->
<g id="node30" class="node"><title>Node30</title>
<g id="a_node30"><a xlink:href="QcInfoLogger_8h.html" target="_top" xlink:title="QualityControl/QcInfoLogger.h">
<polygon fill="none" stroke="black" points="2905,-286 2905,-305 3054,-305 3054,-286 2905,-286"/>
<text text-anchor="middle" x="2979.5" y="-293" font-family="Helvetica,sans-Serif" font-size="10.00">QualityControl/QcInfoLogger.h</text>
</a>
</g>
</g>
<!-- Node1&#45;&gt;Node30 -->
<g id="edge41" class="edge"><title>Node1&#45;&gt;Node30</title>
<path fill="none" stroke="midnightblue" d="M2095.25,-355.127C2249.37,-352.72 2601.46,-343.786 2895.5,-311 2905.43,-309.893 2915.96,-308.362 2926.09,-306.707"/>
<polygon fill="midnightblue" stroke="midnightblue" points="2926.77,-310.142 2936.04,-305.022 2925.6,-303.24 2926.77,-310.142"/>
</g>
<!-- Node32 -->
<g id="node32" class="node"><title>Node32</title>
<g id="a_node32"><a xlink:href="TaskFactory_8h.html" target="_top" xlink:title="QualityControl/TaskFactory.h">
<polygon fill="none" stroke="black" points="1336,-286 1336,-305 1481,-305 1481,-286 1336,-286"/>
<text text-anchor="middle" x="1408.5" y="-293" font-family="Helvetica,sans-Serif" font-size="10.00">QualityControl/TaskFactory.h</text>
</a>
</g>
</g>
<!-- Node1&#45;&gt;Node32 -->
<g id="edge43" class="edge"><title>Node1&#45;&gt;Node32</title>
<path fill="none" stroke="midnightblue" d="M1937.95,-348.313C1822.69,-337.034 1608.73,-316.095 1491.17,-304.59"/>
<polygon fill="midnightblue" stroke="midnightblue" points="1491.44,-301.1 1481.14,-303.609 1490.75,-308.066 1491.44,-301.1"/>
</g>
<!-- Node3 -->
<g id="node3" class="node"><title>Node3</title>
<polygon fill="none" stroke="#bfbfbf" points="135.5,-224.5 135.5,-243.5 227.5,-243.5 227.5,-224.5 135.5,-224.5"/>
<text text-anchor="middle" x="181.5" y="-231.5" font-family="Helvetica,sans-Serif" font-size="10.00">Common/Timer.h</text>
</g>
<!-- Node2&#45;&gt;Node3 -->
<g id="edge2" class="edge"><title>Node2&#45;&gt;Node3</title>
<path fill="none" stroke="midnightblue" d="M482.21,-285.975C417.391,-274.987 305.023,-255.939 237.531,-244.498"/>
<polygon fill="midnightblue" stroke="midnightblue" points="237.948,-241.019 227.504,-242.798 236.778,-247.921 237.948,-241.019"/>
</g>
<!-- Node4 -->
<g id="node4" class="node"><title>Node4</title>
<polygon fill="none" stroke="#bfbfbf" points="245.5,-224.5 245.5,-243.5 343.5,-243.5 343.5,-224.5 245.5,-224.5"/>
<text text-anchor="middle" x="294.5" y="-231.5" font-family="Helvetica,sans-Serif" font-size="10.00">Framework/Task.h</text>
</g>
<!-- Node2&#45;&gt;Node4 -->
<g id="edge3" class="edge"><title>Node2&#45;&gt;Node4</title>
<path fill="none" stroke="midnightblue" d="M498.4,-285.975C456.249,-275.437 384.445,-257.486 338.266,-245.941"/>
<polygon fill="midnightblue" stroke="midnightblue" points="339.087,-242.539 328.536,-243.509 337.389,-249.33 339.087,-242.539"/>
</g>
<!-- Node5 -->
<g id="node5" class="node"><title>Node5</title>
<polygon fill="none" stroke="#bfbfbf" points="361.5,-224.5 361.5,-243.5 525.5,-243.5 525.5,-224.5 361.5,-224.5"/>
<text text-anchor="middle" x="443.5" y="-231.5" font-family="Helvetica,sans-Serif" font-size="10.00">Framework/DataProcessorSpec.h</text>
</g>
<!-- Node2&#45;&gt;Node5 -->
<g id="edge4" class="edge"><title>Node2&#45;&gt;Node5</title>
<path fill="none" stroke="midnightblue" d="M519.748,-285.975C505.473,-276.431 482.103,-260.807 464.992,-249.368"/>
<polygon fill="midnightblue" stroke="midnightblue" points="466.486,-246.157 456.228,-243.509 462.596,-251.977 466.486,-246.157"/>
</g>
<!-- Node6 -->
<g id="node6" class="node"><title>Node6</title>
<polygon fill="none" stroke="#bfbfbf" points="544,-224.5 544,-243.5 697,-243.5 697,-224.5 544,-224.5"/>
<text text-anchor="middle" x="620.5" y="-231.5" font-family="Helvetica,sans-Serif" font-size="10.00">Framework/CompletionPolicy.h</text>
</g>
<!-- Node2&#45;&gt;Node6 -->
<g id="edge5" class="edge"><title>Node2&#45;&gt;Node6</title>
<path fill="none" stroke="midnightblue" d="M545.108,-285.975C559.223,-276.431 582.331,-260.807 599.249,-249.368"/>
<polygon fill="midnightblue" stroke="midnightblue" points="601.591,-252.01 607.915,-243.509 597.671,-246.211 601.591,-252.01"/>
</g>
<!-- Node7 -->
<g id="node7" class="node"><title>Node7</title>
<polygon fill="none" stroke="#bfbfbf" points="0,-224.5 0,-243.5 117,-243.5 117,-224.5 0,-224.5"/>
<text text-anchor="middle" x="58.5" y="-231.5" font-family="Helvetica,sans-Serif" font-size="10.00">Headers/DataHeader.h</text>
</g>
<!-- Node2&#45;&gt;Node7 -->
<g id="edge6" class="edge"><title>Node2&#45;&gt;Node7</title>
<path fill="none" stroke="midnightblue" d="M462.793,-285.998C384.033,-276.354 251.712,-260.037 127.199,-244.081"/>
<polygon fill="midnightblue" stroke="midnightblue" points="127.466,-240.587 117.102,-242.786 126.575,-247.53 127.466,-240.587"/>
</g>
<!-- Node8 -->
<g id="node8" class="node"><title>Node8</title>
<g id="a_node8"><a xlink:href="TaskConfig_8h.html" target="_top" xlink:title="QualityControl/TaskConfig.h">
<polygon fill="none" stroke="black" points="829.5,-112.5 829.5,-131.5 969.5,-131.5 969.5,-112.5 829.5,-112.5"/>
<text text-anchor="middle" x="899.5" y="-119.5" font-family="Helvetica,sans-Serif" font-size="10.00">QualityControl/TaskConfig.h</text>
</a>
</g>
</g>
<!-- Node2&#45;&gt;Node8 -->
<g id="edge7" class="edge"><title>Node2&#45;&gt;Node8</title>
<path fill="none" stroke="midnightblue" d="M573.112,-285.97C608.894,-277.682 661.949,-263.493 705.5,-244 773.681,-213.483 846.453,-162.448 880.225,-137.55"/>
<polygon fill="midnightblue" stroke="midnightblue" points="882.377,-140.311 888.313,-131.535 878.2,-134.694 882.377,-140.311"/>
</g>
<!-- Node11 -->
<g id="node11" class="node"><title>Node11</title>
<g id="a_node11"><a xlink:href="TaskInterface_8h.html" target="_top" xlink:title="QualityControl/TaskInterface.h">
<polygon fill="none" stroke="black" points="1202.5,-224.5 1202.5,-243.5 1352.5,-243.5 1352.5,-224.5 1202.5,-224.5"/>
<text text-anchor="middle" x="1277.5" y="-231.5" font-family="Helvetica,sans-Serif" font-size="10.00">QualityControl/TaskInterface.h</text>
</a>
</g>
</g>
<!-- Node2&#45;&gt;Node11 -->
<g id="edge10" class="edge"><title>Node2&#45;&gt;Node11</title>
<path fill="none" stroke="midnightblue" d="M604.272,-288.768C742.185,-277.753 1043.65,-253.676 1191.83,-241.842"/>
<polygon fill="midnightblue" stroke="midnightblue" points="1192.54,-245.297 1202.23,-241.012 1191.98,-238.319 1192.54,-245.297"/>
</g>
<!-- Node8&#45;&gt;Node9 -->
<g id="edge8" class="edge"><title>Node8&#45;&gt;Node9</title>
<path fill="none" stroke="midnightblue" d="M899.831,-112.385C900.682,-99.3217 903.712,-74.1079 914.5,-56 921.677,-43.9537 933.169,-33.4004 943.429,-25.547"/>
<polygon fill="midnightblue" stroke="midnightblue" points="945.584,-28.308 951.636,-19.6117 941.482,-22.6359 945.584,-28.308"/>
</g>
<!-- Node10 -->
<g id="node10" class="node"><title>Node10</title>
<polygon fill="none" stroke="#bfbfbf" points="924,-56.5 924,-75.5 1007,-75.5 1007,-56.5 924,-56.5"/>
<text text-anchor="middle" x="965.5" y="-63.5" font-family="Helvetica,sans-Serif" font-size="10.00">unordered_map</text>
</g>
<!-- Node8&#45;&gt;Node10 -->
<g id="edge9" class="edge"><title>Node8&#45;&gt;Node10</title>
<path fill="none" stroke="midnightblue" d="M910.104,-112.324C919.956,-104.263 934.851,-92.0765 946.715,-82.3695"/>
<polygon fill="midnightblue" stroke="midnightblue" points="949.18,-84.8752 954.703,-75.8339 944.747,-79.4575 949.18,-84.8752"/>
</g>
<!-- Node11&#45;&gt;Node9 -->
<g id="edge13" class="edge"><title>Node11&#45;&gt;Node9</title>
<path fill="none" stroke="midnightblue" d="M1202.21,-228.797C1083.12,-220.254 860.619,-195.918 820.5,-132 787.328,-79.15 883.612,-38.0069 935.207,-20.3725"/>
<polygon fill="midnightblue" stroke="midnightblue" points="936.49,-23.6345 944.879,-17.1626 934.285,-16.9908 936.49,-23.6345"/>
</g>
<!-- Node11&#45;&gt;Node10 -->
<g id="edge14" class="edge"><title>Node11&#45;&gt;Node10</title>
<path fill="none" stroke="midnightblue" d="M1202.44,-233.795C1114.96,-232.927 978.171,-225.398 945.5,-188 924.324,-163.76 976.799,-136.374 978.5,-132 984.426,-116.767 979.774,-98.4286 974.459,-85.12"/>
<polygon fill="midnightblue" stroke="midnightblue" points="977.516,-83.3836 970.243,-75.6803 971.125,-86.2384 977.516,-83.3836"/>
</g>
<!-- Node12 -->
<g id="node12" class="node"><title>Node12</title>
<polygon fill="none" stroke="#bfbfbf" points="1473,-56.5 1473,-75.5 1508,-75.5 1508,-56.5 1473,-56.5"/>
<text text-anchor="middle" x="1490.5" y="-63.5" font-family="Helvetica,sans-Serif" font-size="10.00">map</text>
</g>
<!-- Node11&#45;&gt;Node12 -->
<g id="edge11" class="edge"><title>Node11&#45;&gt;Node12</title>
<path fill="none" stroke="midnightblue" d="M1352.71,-232.925C1434.55,-231.052 1557.74,-222.39 1587.5,-188 1620.23,-150.181 1554.39,-103.537 1515.79,-80.788"/>
<polygon fill="midnightblue" stroke="midnightblue" points="1517.06,-77.4798 1506.64,-75.5391 1513.58,-83.5515 1517.06,-77.4798"/>
</g>
<!-- Node11&#45;&gt;Node13 -->
<g id="edge12" class="edge"><title>Node11&#45;&gt;Node13</title>
<path fill="none" stroke="midnightblue" d="M1352.82,-229.756C1439.91,-224.87 1577.01,-213.34 1621.5,-188 1640.52,-177.168 1654.98,-156.158 1663.57,-140.95"/>
<polygon fill="midnightblue" stroke="midnightblue" points="1666.74,-142.433 1668.35,-131.96 1660.56,-139.146 1666.74,-142.433"/>
</g>
<!-- Node14 -->
<g id="node14" class="node"><title>Node14</title>
<polygon fill="none" stroke="#bfbfbf" points="1134,-168.5 1134,-187.5 1259,-187.5 1259,-168.5 1134,-168.5"/>
<text text-anchor="middle" x="1196.5" y="-175.5" font-family="Helvetica,sans-Serif" font-size="10.00">Framework/InitContext.h</text>
</g>
<!-- Node11&#45;&gt;Node14 -->
<g id="edge15" class="edge"><title>Node11&#45;&gt;Node14</title>
<path fill="none" stroke="midnightblue" d="M1264.49,-224.324C1251.97,-215.979 1232.82,-203.212 1218.03,-193.352"/>
<polygon fill="midnightblue" stroke="midnightblue" points="1219.74,-190.289 1209.48,-187.655 1215.86,-196.114 1219.74,-190.289"/>
</g>
<!-- Node15 -->
<g id="node15" class="node"><title>Node15</title>
<polygon fill="none" stroke="#bfbfbf" points="1277.5,-168.5 1277.5,-187.5 1437.5,-187.5 1437.5,-168.5 1277.5,-168.5"/>
<text text-anchor="middle" x="1357.5" y="-175.5" font-family="Helvetica,sans-Serif" font-size="10.00">Framework/ProcessingContext.h</text>
</g>
<!-- Node11&#45;&gt;Node15 -->
<g id="edge16" class="edge"><title>Node11&#45;&gt;Node15</title>
<path fill="none" stroke="midnightblue" d="M1290.35,-224.324C1302.72,-215.979 1321.63,-203.212 1336.24,-193.352"/>
<polygon fill="midnightblue" stroke="midnightblue" points="1338.35,-196.15 1344.68,-187.655 1334.43,-190.348 1338.35,-196.15"/>
</g>
<!-- Node16 -->
<g id="node16" class="node"><title>Node16</title>
<g id="a_node16"><a xlink:href="Activity_8h.html" target="_top" xlink:title="QualityControl/Activity.h">
<polygon fill="none" stroke="black" points="1456,-168.5 1456,-187.5 1579,-187.5 1579,-168.5 1456,-168.5"/>
<text text-anchor="middle" x="1517.5" y="-175.5" font-family="Helvetica,sans-Serif" font-size="10.00">QualityControl/Activity.h</text>
</a>
</g>
</g>
<!-- Node11&#45;&gt;Node16 -->
<g id="edge17" class="edge"><title>Node11&#45;&gt;Node16</title>
<path fill="none" stroke="midnightblue" d="M1315.53,-224.444C1357.31,-215.043 1424.48,-199.929 1469.77,-189.739"/>
<polygon fill="midnightblue" stroke="midnightblue" points="1470.66,-193.126 1479.65,-187.516 1469.12,-186.297 1470.66,-193.126"/>
</g>
<!-- Node17 -->
<g id="node17" class="node"><title>Node17</title>
<g id="a_node17"><a xlink:href="ObjectsManager_8h.html" target="_top" xlink:title="QualityControl/ObjectsManager.h">
<polygon fill="none" stroke="black" points="955,-168.5 955,-187.5 1116,-187.5 1116,-168.5 955,-168.5"/>
<text text-anchor="middle" x="1035.5" y="-175.5" font-family="Helvetica,sans-Serif" font-size="10.00">QualityControl/ObjectsManager.h</text>
</a>
</g>
</g>
<!-- Node11&#45;&gt;Node17 -->
<g id="edge18" class="edge"><title>Node11&#45;&gt;Node17</title>
<path fill="none" stroke="midnightblue" d="M1239.15,-224.444C1197.03,-215.043 1129.29,-199.929 1083.63,-189.739"/>
<polygon fill="midnightblue" stroke="midnightblue" points="1084.19,-186.278 1073.67,-187.516 1082.66,-193.11 1084.19,-186.278"/>
</g>
<!-- Node17&#45;&gt;Node8 -->
<g id="edge29" class="edge"><title>Node17&#45;&gt;Node8</title>
<path fill="none" stroke="midnightblue" d="M1013.95,-168.444C991.469,-159.517 956.012,-145.439 930.52,-135.317"/>
<polygon fill="midnightblue" stroke="midnightblue" points="931.535,-131.954 920.949,-131.516 928.951,-138.46 931.535,-131.954"/>
</g>
<!-- Node17&#45;&gt;Node9 -->
<g id="edge30" class="edge"><title>Node17&#45;&gt;Node9</title>
<path fill="none" stroke="midnightblue" d="M1035.95,-168.464C1036.67,-147.783 1036.26,-93.9129 1015.5,-56 1008.84,-43.8355 997.6,-33.2736 987.463,-25.445"/>
<polygon fill="midnightblue" stroke="midnightblue" points="989.478,-22.5832 979.331,-19.5368 985.363,-28.2463 989.478,-22.5832"/>
</g>
<!-- Node17&#45;&gt;Node13 -->
<g id="edge31" class="edge"><title>Node17&#45;&gt;Node13</title>
<path fill="none" stroke="midnightblue" d="M1116.02,-168.789C1118.88,-168.519 1121.72,-168.255 1124.5,-168 1317.24,-150.342 1548.43,-132.427 1636.26,-125.738"/>
<polygon fill="midnightblue" stroke="midnightblue" points="1636.54,-129.227 1646.25,-124.979 1636.01,-122.247 1636.54,-129.227"/>
</g>
<!-- Node18 -->
<g id="node18" class="node"><title>Node18</title>
<g id="a_node18"><a xlink:href="MonitorObject_8h.html" target="_top" xlink:title="QualityControl/MonitorObject.h">
<polygon fill="none" stroke="black" points="1195,-112.5 1195,-131.5 1346,-131.5 1346,-112.5 1195,-112.5"/>
<text text-anchor="middle" x="1270.5" y="-119.5" font-family="Helvetica,sans-Serif" font-size="10.00">QualityControl/MonitorObject.h</text>
</a>
</g>
</g>
<!-- Node17&#45;&gt;Node18 -->
<g id="edge19" class="edge"><title>Node17&#45;&gt;Node18</title>
<path fill="none" stroke="midnightblue" d="M1072.74,-168.444C1113.56,-159.063 1179.14,-143.993 1223.48,-133.804"/>
<polygon fill="midnightblue" stroke="midnightblue" points="1224.48,-137.167 1233.44,-131.516 1222.91,-130.345 1224.48,-137.167"/>
</g>
<!-- Node22 -->
<g id="node22" class="node"><title>Node22</title>
<g id="a_node22"><a xlink:href="Quality_8h.html" target="_top" xlink:title="QualityControl/Quality.h">
<polygon fill="none" stroke="black" points="1102,-56.5 1102,-75.5 1223,-75.5 1223,-56.5 1102,-56.5"/>
<text text-anchor="middle" x="1162.5" y="-63.5" font-family="Helvetica,sans-Serif" font-size="10.00">QualityControl/Quality.h</text>
</a>
</g>
</g>
<!-- Node17&#45;&gt;Node22 -->
<g id="edge28" class="edge"><title>Node17&#45;&gt;Node22</title>
<path fill="none" stroke="midnightblue" d="M1045.47,-168.368C1066.89,-149.814 1117.57,-105.913 1144.68,-82.4376"/>
<polygon fill="midnightblue" stroke="midnightblue" points="1147.31,-84.7841 1152.58,-75.5914 1142.73,-79.4929 1147.31,-84.7841"/>
</g>
<!-- Node18&#45;&gt;Node9 -->
<g id="edge20" class="edge"><title>Node18&#45;&gt;Node9</title>
<path fill="none" stroke="midnightblue" d="M1225.02,-112.458C1188.53,-104.906 1136.35,-92.521 1092.5,-76 1072.34,-68.4022 1020.91,-41.1043 990.036,-24.3961"/>
<polygon fill="midnightblue" stroke="midnightblue" points="991.63,-21.2788 981.172,-19.5843 988.291,-27.4309 991.63,-21.2788"/>
</g>
<!-- Node18&#45;&gt;Node12 -->
<g id="edge21" class="edge"><title>Node18&#45;&gt;Node12</title>
<path fill="none" stroke="midnightblue" d="M1305.36,-112.444C1349.07,-101.715 1423.1,-83.5435 1463.02,-73.7445"/>
<polygon fill="midnightblue" stroke="midnightblue" points="1463.98,-77.1123 1472.86,-71.3294 1462.32,-70.3141 1463.98,-77.1123"/>
</g>
<!-- Node19 -->
<g id="node19" class="node"><title>Node19</title>
<polygon fill="none" stroke="#bfbfbf" points="1217.5,-0.5 1217.5,-19.5 1273.5,-19.5 1273.5,-0.5 1217.5,-0.5"/>
<text text-anchor="middle" x="1245.5" y="-7.5" font-family="Helvetica,sans-Serif" font-size="10.00">Rtypes.h</text>
</g>
<!-- Node18&#45;&gt;Node19 -->
<g id="edge22" class="edge"><title>Node18&#45;&gt;Node19</title>
<path fill="none" stroke="midnightblue" d="M1281.9,-112.336C1296.62,-100.032 1319.15,-76.6888 1308.5,-56 1301.42,-42.2475 1287.98,-31.7663 1275.32,-24.3942"/>
<polygon fill="midnightblue" stroke="midnightblue" points="1276.81,-21.2221 1266.35,-19.5733 1273.5,-27.3888 1276.81,-21.2221"/>
</g>
<!-- Node20 -->
<g id="node20" class="node"><title>Node20</title>
<polygon fill="none" stroke="#bfbfbf" points="1241,-56.5 1241,-75.5 1300,-75.5 1300,-56.5 1241,-56.5"/>
<text text-anchor="middle" x="1270.5" y="-63.5" font-family="Helvetica,sans-Serif" font-size="10.00">TObject.h</text>
</g>
<!-- Node18&#45;&gt;Node20 -->
<g id="edge23" class="edge"><title>Node18&#45;&gt;Node20</title>
<path fill="none" stroke="midnightblue" d="M1270.5,-112.083C1270.5,-105.006 1270.5,-94.8611 1270.5,-85.9865"/>
<polygon fill="midnightblue" stroke="midnightblue" points="1274,-85.751 1270.5,-75.7511 1267,-85.7511 1274,-85.751"/>
</g>
<!-- Node18&#45;&gt;Node21 -->
<g id="edge24" class="edge"><title>Node18&#45;&gt;Node21</title>
<path fill="none" stroke="midnightblue" d="M1334.04,-112.444C1407.44,-102.559 1527.75,-86.3578 1603.14,-76.2061"/>
<polygon fill="midnightblue" stroke="midnightblue" points="1604.02,-79.6185 1613.47,-74.8151 1603.09,-72.6811 1604.02,-79.6185"/>
</g>
<!-- Node18&#45;&gt;Node22 -->
<g id="edge25" class="edge"><title>Node18&#45;&gt;Node22</title>
<path fill="none" stroke="midnightblue" d="M1253.15,-112.324C1235.83,-103.664 1208.98,-90.2424 1189,-80.249"/>
<polygon fill="midnightblue" stroke="midnightblue" points="1190.32,-76.9962 1179.81,-75.6545 1187.19,-83.2572 1190.32,-76.9962"/>
</g>
<!-- Node22&#45;&gt;Node9 -->
<g id="edge27" class="edge"><title>Node22&#45;&gt;Node9</title>
<path fill="none" stroke="midnightblue" d="M1131.28,-56.4435C1094.1,-46.2497 1032.4,-29.3371 995.673,-19.2707"/>
<polygon fill="midnightblue" stroke="midnightblue" points="996.588,-15.8925 986.018,-16.6243 994.737,-22.6435 996.588,-15.8925"/>
</g>
<!-- Node22&#45;&gt;Node19 -->
<g id="edge26" class="edge"><title>Node22&#45;&gt;Node19</title>
<path fill="none" stroke="midnightblue" d="M1175.84,-56.324C1188.66,-47.979 1208.28,-35.2122 1223.44,-25.3524"/>
<polygon fill="midnightblue" stroke="midnightblue" points="1225.72,-28.0417 1232.2,-19.6545 1221.91,-22.1742 1225.72,-28.0417"/>
</g>
<!-- Node31 -->
<g id="node31" class="node"><title>Node31</title>
<polygon fill="none" stroke="#bfbfbf" points="2914.5,-224.5 2914.5,-243.5 3044.5,-243.5 3044.5,-224.5 2914.5,-224.5"/>
<text text-anchor="middle" x="2979.5" y="-231.5" font-family="Helvetica,sans-Serif" font-size="10.00">InfoLogger/InfoLogger.hxx</text>
</g>
<!-- Node30&#45;&gt;Node31 -->
<g id="edge42" class="edge"><title>Node30&#45;&gt;Node31</title>
<path fill="none" stroke="midnightblue" d="M2979.5,-285.975C2979.5,-277.58 2979.5,-264.481 2979.5,-253.663"/>
<polygon fill="midnightblue" stroke="midnightblue" points="2983,-253.509 2979.5,-243.509 2976,-253.509 2983,-253.509"/>
</g>
<!-- Node32&#45;&gt;Node8 -->
<g id="edge45" class="edge"><title>Node32&#45;&gt;Node8</title>
<path fill="none" stroke="midnightblue" d="M1340.17,-285.961C1225.36,-270.502 1000.03,-235.068 936.5,-188 920.884,-176.431 910.88,-156.171 905.265,-141.338"/>
<polygon fill="midnightblue" stroke="midnightblue" points="908.508,-140.006 901.933,-131.697 901.891,-142.292 908.508,-140.006"/>
</g>
<!-- Node32&#45;&gt;Node11 -->
<g id="edge46" class="edge"><title>Node32&#45;&gt;Node11</title>
<path fill="none" stroke="midnightblue" d="M1389.73,-285.975C1367.65,-275.945 1330.78,-259.2 1305.36,-247.655"/>
<polygon fill="midnightblue" stroke="midnightblue" points="1306.79,-244.458 1296.23,-243.509 1303.89,-250.831 1306.79,-244.458"/>
</g>
<!-- Node32&#45;&gt;Node13 -->
<g id="edge44" class="edge"><title>Node32&#45;&gt;Node13</title>
<path fill="none" stroke="midnightblue" d="M1451.43,-285.929C1504.31,-273.263 1593.71,-244.667 1647.5,-188 1659.59,-175.269 1666,-156.071 1669.3,-141.837"/>
<polygon fill="midnightblue" stroke="midnightblue" points="1672.79,-142.195 1671.31,-131.704 1665.93,-140.827 1672.79,-142.195"/>
</g>
</g>
</svg>
