<?xml version="1.0" encoding="UTF-8" standalone="no"?>
<!DOCTYPE svg PUBLIC "-//W3C//DTD SVG 1.1//EN"
 "http://www.w3.org/Graphics/SVG/1.1/DTD/svg11.dtd">
<!-- Generated by graphviz version 2.38.0 (20140413.2041)
 -->
<!-- Title: Framework/src/TaskInterface.cxx Pages: 1 -->
<svg width="982pt" height="308pt"
 viewBox="0.00 0.00 981.69 308.00" xmlns="http://www.w3.org/2000/svg" xmlns:xlink="http://www.w3.org/1999/xlink">
<g id="graph0" class="graph" transform="scale(1 1) rotate(0) translate(4 304)">
<title>Framework/src/TaskInterface.cxx</title>
<!-- Node1 -->
<g id="node1" class="node"><title>Node1</title>
<polygon fill="#bfbfbf" stroke="black" points="657.687,-280.5 657.687,-299.5 821.687,-299.5 821.687,-280.5 657.687,-280.5"/>
<text text-anchor="middle" x="739.687" y="-287.5" font-family="Helvetica,sans-Serif" font-size="10.00">Framework/src/TaskInterface.cxx</text>
</g>
<!-- Node2 -->
<g id="node2" class="node"><title>Node2</title>
<g id="a_node2"><a xlink:href="TaskInterface_8h.html" target="_top" xlink:title="QualityControl/TaskInterface.h">
<polygon fill="none" stroke="black" points="329.687,-224.5 329.687,-243.5 479.687,-243.5 479.687,-224.5 329.687,-224.5"/>
<text text-anchor="middle" x="404.687" y="-231.5" font-family="Helvetica,sans-Serif" font-size="10.00">QualityControl/TaskInterface.h</text>
</a>
</g>
</g>
<!-- Node1&#45;&gt;Node2 -->
<g id="edge1" class="edge"><title>Node1&#45;&gt;Node2</title>
<path fill="none" stroke="midnightblue" d="M686.605,-280.444C627.185,-270.865 530.967,-255.356 467.758,-245.167"/>
<polygon fill="midnightblue" stroke="midnightblue" points="467.95,-241.653 457.52,-243.516 466.836,-248.563 467.95,-241.653"/>
</g>
<!-- Node17 -->
<g id="node17" class="node"><title>Node17</title>
<g id="a_node17"><a xlink:href="QcInfoLogger_8h.html" target="_top" xlink:title="QualityControl/QcInfoLogger.h">
<polygon fill="none" stroke="black" points="665.187,-224.5 665.187,-243.5 814.187,-243.5 814.187,-224.5 665.187,-224.5"/>
<text text-anchor="middle" x="739.687" y="-231.5" font-family="Helvetica,sans-Serif" font-size="10.00">QualityControl/QcInfoLogger.h</text>
</a>
</g>
</g>
<!-- Node1&#45;&gt;Node17 -->
<g id="edge25" class="edge"><title>Node1&#45;&gt;Node17</title>
<path fill="none" stroke="midnightblue" d="M739.687,-280.083C739.687,-273.006 739.687,-262.861 739.687,-253.986"/>
<polygon fill="midnightblue" stroke="midnightblue" points="743.187,-253.751 739.687,-243.751 736.187,-253.751 743.187,-253.751"/>
</g>
<!-- Node19 -->
<g id="node19" class="node"><title>Node19</title>
<polygon fill="none" stroke="#bfbfbf" points="832.187,-224.5 832.187,-243.5 927.187,-243.5 927.187,-224.5 832.187,-224.5"/>
<text text-anchor="middle" x="879.687" y="-231.5" font-family="Helvetica,sans-Serif" font-size="10.00">CCDB/CcdbApi.h</text>
</g>
<!-- Node1&#45;&gt;Node19 -->
<g id="edge27" class="edge"><title>Node1&#45;&gt;Node19</title>
<path fill="none" stroke="midnightblue" d="M761.87,-280.444C785.116,-271.478 821.836,-257.314 848.102,-247.183"/>
<polygon fill="midnightblue" stroke="midnightblue" points="849.537,-250.381 857.607,-243.516 847.018,-243.85 849.537,-250.381"/>
</g>
<!-- Node3 -->
<g id="node3" class="node"><title>Node3</title>
<polygon fill="none" stroke="#bfbfbf" points="713.187,-56.5 713.187,-75.5 748.187,-75.5 748.187,-56.5 713.187,-56.5"/>
<text text-anchor="middle" x="730.687" y="-63.5" font-family="Helvetica,sans-Serif" font-size="10.00">map</text>
</g>
<!-- Node2&#45;&gt;Node3 -->
<g id="edge2" class="edge"><title>Node2&#45;&gt;Node3</title>
<path fill="none" stroke="midnightblue" d="M479.958,-229.642C587.656,-224.054 775.083,-211.111 795.687,-188 825.006,-155.113 778.147,-106.669 749.797,-82.2548"/>
<polygon fill="midnightblue" stroke="midnightblue" points="751.951,-79.4935 742.034,-75.7652 747.461,-84.8642 751.951,-79.4935"/>
</g>
<!-- Node4 -->
<g id="node4" class="node"><title>Node4</title>
<polygon fill="none" stroke="#bfbfbf" points="500.687,-112.5 500.687,-131.5 552.687,-131.5 552.687,-112.5 500.687,-112.5"/>
<text text-anchor="middle" x="526.687" y="-119.5" font-family="Helvetica,sans-Serif" font-size="10.00">memory</text>
</g>
<!-- Node2&#45;&gt;Node4 -->
<g id="edge3" class="edge"><title>Node2&#45;&gt;Node4</title>
<path fill="none" stroke="midnightblue" d="M381.633,-224.316C354.243,-212.702 314.413,-190.906 332.687,-168 375.673,-114.119 416.935,-145.724 490.28,-131.811"/>
<polygon fill="midnightblue" stroke="midnightblue" points="491.313,-135.17 500.357,-129.65 489.845,-128.325 491.313,-135.17"/>
</g>
<!-- Node5 -->
<g id="node5" class="node"><title>Node5</title>
<polygon fill="none" stroke="#bfbfbf" points="152.187,-0.5 152.187,-19.5 193.187,-19.5 193.187,-0.5 152.187,-0.5"/>
<text text-anchor="middle" x="172.687" y="-7.5" font-family="Helvetica,sans-Serif" font-size="10.00">string</text>
</g>
<!-- Node2&#45;&gt;Node5 -->
<g id="edge4" class="edge"><title>Node2&#45;&gt;Node5</title>
<path fill="none" stroke="midnightblue" d="M329.663,-228.885C250.568,-223.376 132.183,-211.45 93.6871,-188 35.1009,-152.312 -27.6919,-110.715 13.6871,-56 29.1612,-35.5387 100.615,-21.7038 142.281,-15.2231"/>
<polygon fill="midnightblue" stroke="midnightblue" points="142.811,-18.6827 152.18,-13.7343 141.77,-11.7606 142.811,-18.6827"/>
</g>
<!-- Node6 -->
<g id="node6" class="node"><title>Node6</title>
<polygon fill="none" stroke="#bfbfbf" points="23.1871,-56.5 23.1871,-75.5 106.187,-75.5 106.187,-56.5 23.1871,-56.5"/>
<text text-anchor="middle" x="64.6871" y="-63.5" font-family="Helvetica,sans-Serif" font-size="10.00">unordered_map</text>
</g>
<!-- Node2&#45;&gt;Node6 -->
<g id="edge5" class="edge"><title>Node2&#45;&gt;Node6</title>
<path fill="none" stroke="midnightblue" d="M329.568,-229.596C254.972,-224.791 147.176,-213.552 114.687,-188 82.4833,-162.672 70.841,-113.024 66.7708,-85.8604"/>
<polygon fill="midnightblue" stroke="midnightblue" points="70.214,-85.1961 65.4521,-75.7317 63.2725,-86.0999 70.214,-85.1961"/>
</g>
<!-- Node7 -->
<g id="node7" class="node"><title>Node7</title>
<polygon fill="none" stroke="#bfbfbf" points="342.187,-168.5 342.187,-187.5 467.187,-187.5 467.187,-168.5 342.187,-168.5"/>
<text text-anchor="middle" x="404.687" y="-175.5" font-family="Helvetica,sans-Serif" font-size="10.00">Framework/InitContext.h</text>
</g>
<!-- Node2&#45;&gt;Node7 -->
<g id="edge6" class="edge"><title>Node2&#45;&gt;Node7</title>
<path fill="none" stroke="midnightblue" d="M404.687,-224.083C404.687,-217.006 404.687,-206.861 404.687,-197.986"/>
<polygon fill="midnightblue" stroke="midnightblue" points="408.187,-197.751 404.687,-187.751 401.187,-197.751 408.187,-197.751"/>
</g>
<!-- Node8 -->
<g id="node8" class="node"><title>Node8</title>
<polygon fill="none" stroke="#bfbfbf" points="485.687,-168.5 485.687,-187.5 645.687,-187.5 645.687,-168.5 485.687,-168.5"/>
<text text-anchor="middle" x="565.687" y="-175.5" font-family="Helvetica,sans-Serif" font-size="10.00">Framework/ProcessingContext.h</text>
</g>
<!-- Node2&#45;&gt;Node8 -->
<g id="edge7" class="edge"><title>Node2&#45;&gt;Node8</title>
<path fill="none" stroke="midnightblue" d="M430.198,-224.444C457.283,-215.359 500.277,-200.939 530.556,-190.783"/>
<polygon fill="midnightblue" stroke="midnightblue" points="531.928,-194.015 540.296,-187.516 529.702,-187.378 531.928,-194.015"/>
</g>
<!-- Node9 -->
<g id="node9" class="node"><title>Node9</title>
<g id="a_node9"><a xlink:href="Activity_8h.html" target="_top" xlink:title="QualityControl/Activity.h">
<polygon fill="none" stroke="black" points="664.187,-168.5 664.187,-187.5 787.187,-187.5 787.187,-168.5 664.187,-168.5"/>
<text text-anchor="middle" x="725.687" y="-175.5" font-family="Helvetica,sans-Serif" font-size="10.00">QualityControl/Activity.h</text>
</a>
</g>
</g>
<!-- Node2&#45;&gt;Node9 -->
<g id="edge8" class="edge"><title>Node2&#45;&gt;Node9</title>
<path fill="none" stroke="midnightblue" d="M455.55,-224.444C512.37,-214.885 604.305,-199.419 664.877,-189.23"/>
<polygon fill="midnightblue" stroke="midnightblue" points="665.781,-192.627 675.062,-187.516 664.62,-185.724 665.781,-192.627"/>
</g>
<!-- Node10 -->
<g id="node10" class="node"><title>Node10</title>
<g id="a_node10"><a xlink:href="ObjectsManager_8h.html" target="_top" xlink:title="QualityControl/ObjectsManager.h">
<polygon fill="none" stroke="black" points="124.187,-168.5 124.187,-187.5 285.187,-187.5 285.187,-168.5 124.187,-168.5"/>
<text text-anchor="middle" x="204.687" y="-175.5" font-family="Helvetica,sans-Serif" font-size="10.00">QualityControl/ObjectsManager.h</text>
</a>
</g>
</g>
<!-- Node2&#45;&gt;Node10 -->
<g id="edge9" class="edge"><title>Node2&#45;&gt;Node10</title>
<path fill="none" stroke="midnightblue" d="M372.996,-224.444C338.619,-215.162 283.61,-200.309 245.898,-190.127"/>
<polygon fill="midnightblue" stroke="midnightblue" points="246.796,-186.744 236.229,-187.516 244.971,-193.502 246.796,-186.744"/>
</g>
<!-- Node10&#45;&gt;Node4 -->
<g id="edge24" class="edge"><title>Node10&#45;&gt;Node4</title>
<path fill="none" stroke="midnightblue" d="M269.441,-168.486C325.329,-160.757 408.403,-148.358 490.409,-131.887"/>
<polygon fill="midnightblue" stroke="midnightblue" points="491.299,-135.278 500.402,-129.858 489.906,-128.417 491.299,-135.278"/>
</g>
<!-- Node10&#45;&gt;Node5 -->
<g id="edge23" class="edge"><title>Node10&#45;&gt;Node5</title>
<path fill="none" stroke="midnightblue" d="M174.806,-168.387C157.147,-161.587 136.236,-150.15 125.687,-132 105.224,-96.7935 137.064,-51.0038 157.567,-27.1113"/>
<polygon fill="midnightblue" stroke="midnightblue" points="160.198,-29.4194 164.242,-19.6266 154.974,-24.7603 160.198,-29.4194"/>
</g>
<!-- Node11 -->
<g id="node11" class="node"><title>Node11</title>
<g id="a_node11"><a xlink:href="MonitorObject_8h.html" target="_top" xlink:title="QualityControl/MonitorObject.h">
<polygon fill="none" stroke="black" points="331.187,-112.5 331.187,-131.5 482.187,-131.5 482.187,-112.5 331.187,-112.5"/>
<text text-anchor="middle" x="406.687" y="-119.5" font-family="Helvetica,sans-Serif" font-size="10.00">QualityControl/MonitorObject.h</text>
</a>
</g>
</g>
<!-- Node10&#45;&gt;Node11 -->
<g id="edge10" class="edge"><title>Node10&#45;&gt;Node11</title>
<path fill="none" stroke="midnightblue" d="M236.695,-168.444C271.416,-159.162 326.975,-144.309 365.064,-134.127"/>
<polygon fill="midnightblue" stroke="midnightblue" points="366.072,-137.48 374.829,-131.516 364.265,-130.718 366.072,-137.48"/>
</g>
<!-- Node15 -->
<g id="node15" class="node"><title>Node15</title>
<g id="a_node15"><a xlink:href="Quality_8h.html" target="_top" xlink:title="QualityControl/Quality.h">
<polygon fill="none" stroke="black" points="201.187,-56.5 201.187,-75.5 322.187,-75.5 322.187,-56.5 201.187,-56.5"/>
<text text-anchor="middle" x="261.687" y="-63.5" font-family="Helvetica,sans-Serif" font-size="10.00">QualityControl/Quality.h</text>
</a>
</g>
</g>
<!-- Node10&#45;&gt;Node15 -->
<g id="edge19" class="edge"><title>Node10&#45;&gt;Node15</title>
<path fill="none" stroke="midnightblue" d="M234.568,-168.387C252.227,-161.587 273.138,-150.15 283.687,-132 292.443,-116.936 284.014,-97.8698 275.178,-84.2905"/>
<polygon fill="midnightblue" stroke="midnightblue" points="277.848,-82.0058 269.202,-75.8827 272.143,-86.0613 277.848,-82.0058"/>
</g>
<!-- Node16 -->
<g id="node16" class="node"><title>Node16</title>
<g id="a_node16"><a xlink:href="TaskConfig_8h.html" target="_top" xlink:title="QualityControl/TaskConfig.h">
<polygon fill="none" stroke="black" points="134.687,-112.5 134.687,-131.5 274.687,-131.5 274.687,-112.5 134.687,-112.5"/>
<text text-anchor="middle" x="204.687" y="-119.5" font-family="Helvetica,sans-Serif" font-size="10.00">QualityControl/TaskConfig.h</text>
</a>
</g>
</g>
<!-- Node10&#45;&gt;Node16 -->
<g id="edge20" class="edge"><title>Node10&#45;&gt;Node16</title>
<path fill="none" stroke="midnightblue" d="M204.687,-168.083C204.687,-161.006 204.687,-150.861 204.687,-141.986"/>
<polygon fill="midnightblue" stroke="midnightblue" points="208.187,-141.751 204.687,-131.751 201.187,-141.751 208.187,-141.751"/>
</g>
<!-- Node11&#45;&gt;Node3 -->
<g id="edge12" class="edge"><title>Node11&#45;&gt;Node3</title>
<path fill="none" stroke="midnightblue" d="M458.026,-112.444C527.449,-100.873 648.807,-80.6467 703.084,-71.6006"/>
<polygon fill="midnightblue" stroke="midnightblue" points="703.721,-75.0427 713.009,-69.9463 702.57,-68.138 703.721,-75.0427"/>
</g>
<!-- Node11&#45;&gt;Node5 -->
<g id="edge11" class="edge"><title>Node11&#45;&gt;Node5</title>
<path fill="none" stroke="midnightblue" d="M398.713,-112.052C385.783,-98.0757 358.836,-71.1051 330.687,-56 289.414,-33.8527 236.073,-21.6017 203.132,-15.6643"/>
<polygon fill="midnightblue" stroke="midnightblue" points="203.644,-12.201 193.195,-13.9539 202.456,-19.0996 203.644,-12.201"/>
</g>
<!-- Node12 -->
<g id="node12" class="node"><title>Node12</title>
<polygon fill="none" stroke="#bfbfbf" points="402.687,-0.5 402.687,-19.5 458.687,-19.5 458.687,-0.5 402.687,-0.5"/>
<text text-anchor="middle" x="430.687" y="-7.5" font-family="Helvetica,sans-Serif" font-size="10.00">Rtypes.h</text>
</g>
<!-- Node11&#45;&gt;Node12 -->
<g id="edge13" class="edge"><title>Node11&#45;&gt;Node12</title>
<path fill="none" stroke="midnightblue" d="M472.699,-112.497C516.424,-105.354 568.135,-93.4776 581.687,-76 613.561,-34.8927 523.518,-19.3716 468.995,-13.8405"/>
<polygon fill="midnightblue" stroke="midnightblue" points="469.222,-10.3465 458.938,-12.8914 468.565,-17.3155 469.222,-10.3465"/>
</g>
<!-- Node13 -->
<g id="node13" class="node"><title>Node13</title>
<polygon fill="none" stroke="#bfbfbf" points="379.187,-56.5 379.187,-75.5 438.187,-75.5 438.187,-56.5 379.187,-56.5"/>
<text text-anchor="middle" x="408.687" y="-63.5" font-family="Helvetica,sans-Serif" font-size="10.00">TObject.h</text>
</g>
<!-- Node11&#45;&gt;Node13 -->
<g id="edge14" class="edge"><title>Node11&#45;&gt;Node13</title>
<path fill="none" stroke="midnightblue" d="M407.017,-112.083C407.279,-105.006 407.655,-94.8611 407.984,-85.9865"/>
<polygon fill="midnightblue" stroke="midnightblue" points="411.49,-85.8738 408.363,-75.7511 404.495,-85.6147 411.49,-85.8738"/>
</g>
<!-- Node14 -->
<g id="node14" class="node"><title>Node14</title>
<polygon fill="none" stroke="#bfbfbf" points="456.687,-56.5 456.687,-75.5 572.687,-75.5 572.687,-56.5 456.687,-56.5"/>
<text text-anchor="middle" x="514.687" y="-63.5" font-family="Helvetica,sans-Serif" font-size="10.00">Common/Exceptions.h</text>
</g>
<!-- Node11&#45;&gt;Node14 -->
<g id="edge15" class="edge"><title>Node11&#45;&gt;Node14</title>
<path fill="none" stroke="midnightblue" d="M424.039,-112.324C441.359,-103.664 468.202,-90.2424 488.189,-80.249"/>
<polygon fill="midnightblue" stroke="midnightblue" points="489.999,-83.2572 497.378,-75.6545 486.869,-76.9962 489.999,-83.2572"/>
</g>
<!-- Node11&#45;&gt;Node15 -->
<g id="edge16" class="edge"><title>Node11&#45;&gt;Node15</title>
<path fill="none" stroke="midnightblue" d="M383.711,-112.444C359.53,-103.438 321.269,-89.1891 294.041,-79.049"/>
<polygon fill="midnightblue" stroke="midnightblue" points="295.148,-75.7265 284.555,-75.5164 292.705,-82.2864 295.148,-75.7265"/>
</g>
<!-- Node15&#45;&gt;Node5 -->
<g id="edge18" class="edge"><title>Node15&#45;&gt;Node5</title>
<path fill="none" stroke="midnightblue" d="M247.388,-56.324C233.504,-47.9002 212.195,-34.9709 195.883,-25.0741"/>
<polygon fill="midnightblue" stroke="midnightblue" points="197.316,-21.8495 186.951,-19.6545 193.685,-27.8341 197.316,-21.8495"/>
</g>
<!-- Node15&#45;&gt;Node12 -->
<g id="edge17" class="edge"><title>Node15&#45;&gt;Node12</title>
<path fill="none" stroke="midnightblue" d="M288.466,-56.4435C317.02,-47.3196 362.42,-32.8133 394.224,-22.6509"/>
<polygon fill="midnightblue" stroke="midnightblue" points="395.574,-25.8941 404.034,-19.5164 393.443,-19.2262 395.574,-25.8941"/>
</g>
<!-- Node16&#45;&gt;Node5 -->
<g id="edge21" class="edge"><title>Node16&#45;&gt;Node5</title>
<path fill="none" stroke="midnightblue" d="M202.176,-112.368C196.989,-94.5366 184.991,-53.2953 178.003,-29.2717"/>
<polygon fill="midnightblue" stroke="midnightblue" points="181.34,-28.2157 175.186,-19.5914 174.619,-30.1711 181.34,-28.2157"/>
</g>
<!-- Node16&#45;&gt;Node6 -->
<g id="edge22" class="edge"><title>Node16&#45;&gt;Node6</title>
<path fill="none" stroke="midnightblue" d="M182.504,-112.444C159.259,-103.478 122.538,-89.314 96.2718,-79.1827"/>
<polygon fill="midnightblue" stroke="midnightblue" points="97.3563,-75.8497 86.7667,-75.5164 94.8372,-82.3807 97.3563,-75.8497"/>
</g>
<!-- Node18 -->
<g id="node18" class="node"><title>Node18</title>
<polygon fill="none" stroke="#bfbfbf" points="843.687,-168.5 843.687,-187.5 973.687,-187.5 973.687,-168.5 843.687,-168.5"/>
<text text-anchor="middle" x="908.687" y="-175.5" font-family="Helvetica,sans-Serif" font-size="10.00">InfoLogger/InfoLogger.hxx</text>
</g>
<!-- Node17&#45;&gt;Node18 -->
<g id="edge26" class="edge"><title>Node17&#45;&gt;Node18</title>
<path fill="none" stroke="midnightblue" d="M766.466,-224.444C795.02,-215.32 840.42,-200.813 872.224,-190.651"/>
<polygon fill="midnightblue" stroke="midnightblue" points="873.574,-193.894 882.034,-187.516 871.443,-187.226 873.574,-193.894"/>
</g>
</g>
</svg>
