<?xml version="1.0" encoding="UTF-8" standalone="no"?>
<!DOCTYPE svg PUBLIC "-//W3C//DTD SVG 1.1//EN"
 "http://www.w3.org/Graphics/SVG/1.1/DTD/svg11.dtd">
<!-- Generated by graphviz version 2.38.0 (20140413.2041)
 -->
<!-- Title: Framework/include/QualityControl/TaskConfig.h Pages: 1 -->
<!--zoomable 307 -->
<svg id="main" version="1.1" xmlns="http://www.w3.org/2000/svg" xmlns:xlink="http://www.w3.org/1999/xlink" xml:space="preserve" onload="init(evt)">
<style type="text/css"><![CDATA[
.edge:hover path { stroke: red; }
.edge:hover polygon { stroke: red; fill: red; }
]]></style>
<script type="text/javascript"><![CDATA[
var edges = document.getElementsByTagName('g');
if (edges && edges.length) {
  for (var i=0;i<edges.length;i++) {
    if (edges[i].id.substr(0,4)=='edge') {
      edges[i].setAttribute('class','edge');
    }
  }
}
]]></script>
        <defs>
                <circle id="rim" cx="0" cy="0" r="7"/>
                <circle id="rim2" cx="0" cy="0" r="3.5"/>
                <g id="zoomPlus">
                        <use xlink:href="#rim" fill="#404040">
                                <set attributeName="fill" to="#808080" begin="zoomplus.mouseover" end="zoomplus.mouseout"/>
                        </use>
                        <path d="M-4,0h8M0,-4v8" fill="none" stroke="white" stroke-width="1.5" pointer-events="none"/>
                </g>
                <g id="zoomMin">
                        <use xlink:href="#rim" fill="#404040">
                                <set attributeName="fill" to="#808080" begin="zoomminus.mouseover" end="zoomminus.mouseout"/>
                        </use>
                        <path d="M-4,0h8" fill="none" stroke="white" stroke-width="1.5" pointer-events="none"/>
                </g>
                <g id="dirArrow">
                        <path fill="none" stroke="white" stroke-width="1.5" d="M0,-3.0v7 M-2.5,-0.5L0,-3.0L2.5,-0.5"/>
                </g>
               <g id="resetDef">
                       <use xlink:href="#rim2" fill="#404040">
                               <set attributeName="fill" to="#808080" begin="reset.mouseover" end="reset.mouseout"/>
                       </use>
               </g>
        </defs>

<script type="text/javascript">
var viewWidth = 3945;
var viewHeight = 307;
var sectionId = 'dynsection-1';
</script>
<script xlink:href="svgpan.js"/>
<svg id="graph" class="graph">
<g id="viewport">
<title>Framework/include/QualityControl/TaskConfig.h</title>
<!-- Node1 -->
<g id="node1" class="node"><title>Node1</title>
<polygon fill="#bfbfbf" stroke="black" points="2155,-268.5 2155,-298.5 2288,-298.5 2288,-268.5 2155,-268.5"/>
<text text-anchor="start" x="2163" y="-286.5" font-family="Helvetica,sans-Serif" font-size="10.00">Framework/include/Quality</text>
<text text-anchor="middle" x="2221.5" y="-275.5" font-family="Helvetica,sans-Serif" font-size="10.00">Control/TaskConfig.h</text>
</g>
<!-- Node2 -->
<g id="node2" class="node"><title>Node2</title>
<g id="a_node2"><a xlink:href="ObjectsManager_8h.html" target="_top" xlink:title="Framework/include/Quality\lControl/ObjectsManager.h">
<polygon fill="none" stroke="black" points="1051,-201.5 1051,-231.5 1184,-231.5 1184,-201.5 1051,-201.5"/>
<text text-anchor="start" x="1059" y="-219.5" font-family="Helvetica,sans-Serif" font-size="10.00">Framework/include/Quality</text>
<text text-anchor="middle" x="1117.5" y="-208.5" font-family="Helvetica,sans-Serif" font-size="10.00">Control/ObjectsManager.h</text>
</a>
</g>
</g>
<!-- Node1&#45;&gt;Node2 -->
<g id="edge1" class="edge"><title>Node1&#45;&gt;Node2</title>
<path fill="none" stroke="midnightblue" d="M2144.82,-277.985C1939.14,-265.875 1377.73,-232.822 1184.16,-221.425"/>
<polygon fill="midnightblue" stroke="midnightblue" points="2144.74,-281.486 2154.93,-278.58 2145.15,-274.499 2144.74,-281.486"/>
</g>
<!-- Node4 -->
<g id="node4" class="node"><title>Node4</title>
<g id="a_node4"><a xlink:href="TaskFactory_8h.html" target="_top" xlink:title="Framework/include/Quality\lControl/TaskFactory.h">
<polygon fill="none" stroke="black" points="2155,-67.5 2155,-97.5 2288,-97.5 2288,-67.5 2155,-67.5"/>
<text text-anchor="start" x="2163" y="-85.5" font-family="Helvetica,sans-Serif" font-size="10.00">Framework/include/Quality</text>
<text text-anchor="middle" x="2221.5" y="-74.5" font-family="Helvetica,sans-Serif" font-size="10.00">Control/TaskFactory.h</text>
</a>
</g>
</g>
<!-- Node1&#45;&gt;Node4 -->
<g id="edge49" class="edge"><title>Node1&#45;&gt;Node4</title>
<path fill="none" stroke="midnightblue" d="M2221.5,-257.998C2221.5,-215.93 2221.5,-131.256 2221.5,-97.6819"/>
<polygon fill="midnightblue" stroke="midnightblue" points="2218,-258.188 2221.5,-268.188 2225,-258.188 2218,-258.188"/>
</g>
<!-- Node15 -->
<g id="node15" class="node"><title>Node15</title>
<g id="a_node15"><a xlink:href="TaskRunner_8h.html" target="_top" xlink:title="Framework/include/Quality\lControl/TaskRunner.h">
<polygon fill="none" stroke="black" points="3193,-67.5 3193,-97.5 3326,-97.5 3326,-67.5 3193,-67.5"/>
<text text-anchor="start" x="3201" y="-85.5" font-family="Helvetica,sans-Serif" font-size="10.00">Framework/include/Quality</text>
<text text-anchor="middle" x="3259.5" y="-74.5" font-family="Helvetica,sans-Serif" font-size="10.00">Control/TaskRunner.h</text>
</a>
</g>
</g>
<!-- Node1&#45;&gt;Node15 -->
<g id="edge50" class="edge"><title>Node1&#45;&gt;Node15</title>
<path fill="none" stroke="midnightblue" d="M2297.91,-267.851C2493.29,-230.393 3008.67,-131.587 3192.87,-96.2734"/>
<polygon fill="midnightblue" stroke="midnightblue" points="2297.17,-264.429 2288.01,-269.749 2298.49,-271.303 2297.17,-264.429"/>
</g>
<!-- Node3 -->
<g id="node3" class="node"><title>Node3</title>
<g id="a_node3"><a xlink:href="TaskInterface_8h.html" target="_top" xlink:title="Framework/include/Quality\lControl/TaskInterface.h">
<polygon fill="none" stroke="black" points="1134,-134.5 1134,-164.5 1267,-164.5 1267,-134.5 1134,-134.5"/>
<text text-anchor="start" x="1142" y="-152.5" font-family="Helvetica,sans-Serif" font-size="10.00">Framework/include/Quality</text>
<text text-anchor="middle" x="1200.5" y="-141.5" font-family="Helvetica,sans-Serif" font-size="10.00">Control/TaskInterface.h</text>
</a>
</g>
</g>
<!-- Node2&#45;&gt;Node3 -->
<g id="edge2" class="edge"><title>Node2&#45;&gt;Node3</title>
<path fill="none" stroke="midnightblue" d="M1143.46,-195.168C1156.15,-185.228 1171.11,-173.514 1182.53,-164.577"/>
<polygon fill="midnightblue" stroke="midnightblue" points="1141.22,-192.475 1135.51,-201.396 1145.54,-197.986 1141.22,-192.475"/>
</g>
<!-- Node9 -->
<g id="node9" class="node"><title>Node9</title>
<polygon fill="none" stroke="#bfbfbf" points="1808.5,-0.5 1808.5,-30.5 1922.5,-30.5 1922.5,-0.5 1808.5,-0.5"/>
<text text-anchor="start" x="1816.5" y="-18.5" font-family="Helvetica,sans-Serif" font-size="10.00">Modules/Example/test</text>
<text text-anchor="middle" x="1865.5" y="-7.5" font-family="Helvetica,sans-Serif" font-size="10.00">/testFactory.cxx</text>
</g>
<!-- Node2&#45;&gt;Node9 -->
<g id="edge48" class="edge"><title>Node2&#45;&gt;Node9</title>
<path fill="none" stroke="midnightblue" d="M1194.55,-205.722C1306.32,-190.208 1519.04,-155.658 1692.5,-98 1747.32,-79.7775 1807.54,-48.6752 1840.5,-30.62"/>
<polygon fill="midnightblue" stroke="midnightblue" points="1193.81,-202.291 1184.38,-207.12 1194.76,-209.226 1193.81,-202.291"/>
</g>
<!-- Node41 -->
<g id="node41" class="node"><title>Node41</title>
<g id="a_node41"><a xlink:href="ObjectsManager_8cxx.html" target="_top" xlink:title="Framework/src/ObjectsManager.cxx">
<polygon fill="none" stroke="black" points="602,-140 602,-159 777,-159 777,-140 602,-140"/>
<text text-anchor="middle" x="689.5" y="-147" font-family="Helvetica,sans-Serif" font-size="10.00">Framework/src/ObjectsManager.cxx</text>
</a>
</g>
</g>
<!-- Node2&#45;&gt;Node41 -->
<g id="edge45" class="edge"><title>Node2&#45;&gt;Node41</title>
<path fill="none" stroke="midnightblue" d="M1040.53,-203.81C955.66,-190.921 821.166,-170.496 745.673,-159.031"/>
<polygon fill="midnightblue" stroke="midnightblue" points="1040.21,-207.303 1050.62,-205.344 1041.26,-200.382 1040.21,-207.303"/>
</g>
<!-- Node42 -->
<g id="node42" class="node"><title>Node42</title>
<polygon fill="none" stroke="#bfbfbf" points="795.5,-134.5 795.5,-164.5 933.5,-164.5 933.5,-134.5 795.5,-134.5"/>
<text text-anchor="start" x="803.5" y="-152.5" font-family="Helvetica,sans-Serif" font-size="10.00">Framework/test/testObjects</text>
<text text-anchor="middle" x="864.5" y="-141.5" font-family="Helvetica,sans-Serif" font-size="10.00">Manager.cxx</text>
</g>
<!-- Node2&#45;&gt;Node42 -->
<g id="edge46" class="edge"><title>Node2&#45;&gt;Node42</title>
<path fill="none" stroke="midnightblue" d="M1053.22,-198.984C1011.89,-188.367 958.772,-174.72 919.424,-164.611"/>
<polygon fill="midnightblue" stroke="midnightblue" points="1052.36,-202.377 1062.91,-201.476 1054.1,-195.598 1052.36,-202.377"/>
</g>
<!-- Node43 -->
<g id="node43" class="node"><title>Node43</title>
<g id="a_node43"><a xlink:href="testPublisher_8cxx.html" target="_top" xlink:title="Framework/test/testPublisher.cxx">
<polygon fill="none" stroke="black" points="951.5,-140 951.5,-159 1115.5,-159 1115.5,-140 951.5,-140"/>
<text text-anchor="middle" x="1033.5" y="-147" font-family="Helvetica,sans-Serif" font-size="10.00">Framework/test/testPublisher.cxx</text>
</a>
</g>
</g>
<!-- Node2&#45;&gt;Node43 -->
<g id="edge47" class="edge"><title>Node2&#45;&gt;Node43</title>
<path fill="none" stroke="midnightblue" d="M1091.02,-195.008C1075.42,-182.941 1056.51,-168.305 1044.74,-159.195"/>
<polygon fill="midnightblue" stroke="midnightblue" points="1089.22,-198.044 1099.27,-201.396 1093.51,-192.508 1089.22,-198.044"/>
</g>
<!-- Node3&#45;&gt;Node4 -->
<g id="edge3" class="edge"><title>Node3&#45;&gt;Node4</title>
<path fill="none" stroke="midnightblue" d="M1277.15,-143.62C1470.06,-131.339 1973.19,-99.308 2154.86,-87.7428"/>
<polygon fill="midnightblue" stroke="midnightblue" points="1276.85,-140.132 1267.1,-144.26 1277.3,-147.118 1276.85,-140.132"/>
</g>
<!-- Node7 -->
<g id="node7" class="node"><title>Node7</title>
<g id="a_node7"><a xlink:href="testTaskInterface_8cxx.html" target="_top" xlink:title="Framework/test/testTaskInterface.cxx">
<polygon fill="none" stroke="black" points="1941,-6 1941,-25 2124,-25 2124,-6 1941,-6"/>
<text text-anchor="middle" x="2032.5" y="-13" font-family="Helvetica,sans-Serif" font-size="10.00">Framework/test/testTaskInterface.cxx</text>
</a>
</g>
</g>
<!-- Node3&#45;&gt;Node7 -->
<g id="edge22" class="edge"><title>Node3&#45;&gt;Node7</title>
<path fill="none" stroke="midnightblue" d="M1277.36,-143.788C1374.54,-137.103 1546.78,-122.831 1692.5,-98 1808.58,-78.2196 1943.98,-41.6151 2002.76,-25.045"/>
<polygon fill="midnightblue" stroke="midnightblue" points="1277.07,-140.3 1267.33,-144.469 1277.54,-147.284 1277.07,-140.3"/>
</g>
<!-- Node3&#45;&gt;Node15 -->
<g id="edge14" class="edge"><title>Node3&#45;&gt;Node15</title>
<path fill="none" stroke="midnightblue" d="M1277.61,-146.066C1606.06,-135.697 2885.55,-95.305 3192.87,-85.6035"/>
<polygon fill="midnightblue" stroke="midnightblue" points="1277.14,-142.579 1267.25,-146.393 1277.36,-149.575 1277.14,-142.579"/>
</g>
<!-- Node21 -->
<g id="node21" class="node"><title>Node21</title>
<g id="a_node21"><a xlink:href="TaskInterface_8cxx.html" target="_top" xlink:title="Framework/src/TaskInterface.cxx">
<polygon fill="none" stroke="black" points="34.5,-73 34.5,-92 198.5,-92 198.5,-73 34.5,-73"/>
<text text-anchor="middle" x="116.5" y="-80" font-family="Helvetica,sans-Serif" font-size="10.00">Framework/src/TaskInterface.cxx</text>
</a>
</g>
</g>
<!-- Node3&#45;&gt;Node21 -->
<g id="edge21" class="edge"><title>Node3&#45;&gt;Node21</title>
<path fill="none" stroke="midnightblue" d="M1123.9,-134.072C717.547,-88.4597 610.117,-137.838 207.5,-98 193.013,-96.5665 177.326,-94.32 163.124,-92.0195"/>
<polygon fill="midnightblue" stroke="midnightblue" points="1123.53,-137.553 1133.86,-135.203 1124.32,-130.597 1123.53,-137.553"/>
</g>
<!-- Node22 -->
<g id="node22" class="node"><title>Node22</title>
<g id="a_node22"><a xlink:href="DaqTask_8h.html" target="_top" xlink:title="Modules/Daq/include\l/Daq/DaqTask.h">
<polygon fill="none" stroke="black" points="216.5,-67.5 216.5,-97.5 324.5,-97.5 324.5,-67.5 216.5,-67.5"/>
<text text-anchor="start" x="224.5" y="-85.5" font-family="Helvetica,sans-Serif" font-size="10.00">Modules/Daq/include</text>
<text text-anchor="middle" x="270.5" y="-74.5" font-family="Helvetica,sans-Serif" font-size="10.00">/Daq/DaqTask.h</text>
</a>
</g>
</g>
<!-- Node3&#45;&gt;Node22 -->
<g id="edge23" class="edge"><title>Node3&#45;&gt;Node22</title>
<path fill="none" stroke="midnightblue" d="M1123.78,-134.05C785.62,-94.8371 695.906,-132.424 361.5,-98 349.565,-96.7714 336.812,-95.0181 324.746,-93.153"/>
<polygon fill="midnightblue" stroke="midnightblue" points="1123.51,-137.543 1133.85,-135.233 1124.33,-130.591 1123.51,-137.543"/>
</g>
<!-- Node25 -->
<g id="node25" class="node"><title>Node25</title>
<g id="a_node25"><a xlink:href="DigitsQcTask_8h.html" target="_top" xlink:title="Modules/EMCAL/include\l/EMCAL/DigitsQcTask.h">
<polygon fill="none" stroke="black" points="371,-67.5 371,-97.5 496,-97.5 496,-67.5 371,-67.5"/>
<text text-anchor="start" x="379" y="-85.5" font-family="Helvetica,sans-Serif" font-size="10.00">Modules/EMCAL/include</text>
<text text-anchor="middle" x="433.5" y="-74.5" font-family="Helvetica,sans-Serif" font-size="10.00">/EMCAL/DigitsQcTask.h</text>
</a>
</g>
</g>
<!-- Node3&#45;&gt;Node25 -->
<g id="edge26" class="edge"><title>Node3&#45;&gt;Node25</title>
<path fill="none" stroke="midnightblue" d="M1123.87,-134.047C857.245,-101.495 786.232,-126.96 523.5,-98 514.691,-97.029 505.429,-95.7889 496.334,-94.444"/>
<polygon fill="midnightblue" stroke="midnightblue" points="1123.49,-137.527 1133.85,-135.281 1124.35,-130.58 1123.49,-137.527"/>
</g>
<!-- Node27 -->
<g id="node27" class="node"><title>Node27</title>
<g id="a_node27"><a xlink:href="RawTask_8h.html" target="_top" xlink:title="Modules/EMCAL/include\l/EMCAL/RawTask.h">
<polygon fill="none" stroke="black" points="533,-67.5 533,-97.5 658,-97.5 658,-67.5 533,-67.5"/>
<text text-anchor="start" x="541" y="-85.5" font-family="Helvetica,sans-Serif" font-size="10.00">Modules/EMCAL/include</text>
<text text-anchor="middle" x="595.5" y="-74.5" font-family="Helvetica,sans-Serif" font-size="10.00">/EMCAL/RawTask.h</text>
</a>
</g>
</g>
<!-- Node3&#45;&gt;Node27 -->
<g id="edge28" class="edge"><title>Node3&#45;&gt;Node27</title>
<path fill="none" stroke="midnightblue" d="M1123.85,-134.024C923.05,-107.632 869.032,-124.255 672.5,-98 667.781,-97.3696 662.913,-96.6405 658.025,-95.8515"/>
<polygon fill="midnightblue" stroke="midnightblue" points="1123.46,-137.503 1133.84,-135.356 1124.39,-130.565 1123.46,-137.503"/>
</g>
<!-- Node29 -->
<g id="node29" class="node"><title>Node29</title>
<g id="a_node29"><a xlink:href="BenchmarkTask_8h.html" target="_top" xlink:title="Modules/Example/include\l/Example/BenchmarkTask.h">
<polygon fill="none" stroke="black" points="681.5,-67.5 681.5,-97.5 821.5,-97.5 821.5,-67.5 681.5,-67.5"/>
<text text-anchor="start" x="689.5" y="-85.5" font-family="Helvetica,sans-Serif" font-size="10.00">Modules/Example/include</text>
<text text-anchor="middle" x="751.5" y="-74.5" font-family="Helvetica,sans-Serif" font-size="10.00">/Example/BenchmarkTask.h</text>
</a>
</g>
</g>
<!-- Node3&#45;&gt;Node29 -->
<g id="edge30" class="edge"><title>Node3&#45;&gt;Node29</title>
<path fill="none" stroke="midnightblue" d="M1123.89,-133.974C994.072,-113.939 959.228,-116.88 833.5,-98 829.64,-97.4203 825.682,-96.8017 821.69,-96.1586"/>
<polygon fill="midnightblue" stroke="midnightblue" points="1123.4,-137.439 1133.81,-135.521 1124.47,-130.522 1123.4,-137.439"/>
</g>
<!-- Node31 -->
<g id="node31" class="node"><title>Node31</title>
<g id="a_node31"><a xlink:href="ExampleCondition_8h.html" target="_top" xlink:title="Modules/Example/include\l/Example/ExampleCondition.h">
<polygon fill="none" stroke="black" points="843,-67.5 843,-97.5 992,-97.5 992,-67.5 843,-67.5"/>
<text text-anchor="start" x="851" y="-85.5" font-family="Helvetica,sans-Serif" font-size="10.00">Modules/Example/include</text>
<text text-anchor="middle" x="917.5" y="-74.5" font-family="Helvetica,sans-Serif" font-size="10.00">/Example/ExampleCondition.h</text>
</a>
</g>
</g>
<!-- Node3&#45;&gt;Node31 -->
<g id="edge32" class="edge"><title>Node3&#45;&gt;Node31</title>
<path fill="none" stroke="midnightblue" d="M1129.47,-132.186C1083.12,-121.54 1023.23,-107.784 978.937,-97.6109"/>
<polygon fill="midnightblue" stroke="midnightblue" points="1128.91,-135.649 1139.44,-134.476 1130.48,-128.826 1128.91,-135.649"/>
</g>
<!-- Node33 -->
<g id="node33" class="node"><title>Node33</title>
<g id="a_node33"><a xlink:href="ExampleTask_8h.html" target="_top" xlink:title="Modules/Example/include\l/Example/ExampleTask.h">
<polygon fill="none" stroke="black" points="1554,-67.5 1554,-97.5 1683,-97.5 1683,-67.5 1554,-67.5"/>
<text text-anchor="start" x="1562" y="-85.5" font-family="Helvetica,sans-Serif" font-size="10.00">Modules/Example/include</text>
<text text-anchor="middle" x="1618.5" y="-74.5" font-family="Helvetica,sans-Serif" font-size="10.00">/Example/ExampleTask.h</text>
</a>
</g>
</g>
<!-- Node3&#45;&gt;Node33 -->
<g id="edge34" class="edge"><title>Node3&#45;&gt;Node33</title>
<path fill="none" stroke="midnightblue" d="M1277.13,-136.583C1356.49,-124.244 1479.1,-105.177 1553.76,-93.5672"/>
<polygon fill="midnightblue" stroke="midnightblue" points="1276.54,-133.134 1267.2,-138.129 1277.61,-140.05 1276.54,-133.134"/>
</g>
<!-- Node35 -->
<g id="node35" class="node"><title>Node35</title>
<g id="a_node35"><a xlink:href="SkeletonTask_8h.html" target="_top" xlink:title="Modules/Skeleton/include\l/Skeleton/SkeletonTask.h">
<polygon fill="none" stroke="black" points="1276,-67.5 1276,-97.5 1405,-97.5 1405,-67.5 1276,-67.5"/>
<text text-anchor="start" x="1284" y="-85.5" font-family="Helvetica,sans-Serif" font-size="10.00">Modules/Skeleton/include</text>
<text text-anchor="middle" x="1340.5" y="-74.5" font-family="Helvetica,sans-Serif" font-size="10.00">/Skeleton/SkeletonTask.h</text>
</a>
</g>
</g>
<!-- Node3&#45;&gt;Node35 -->
<g id="edge38" class="edge"><title>Node3&#45;&gt;Node35</title>
<path fill="none" stroke="midnightblue" d="M1240.07,-130.131C1262.31,-119.802 1289.65,-107.11 1310.18,-97.5765"/>
<polygon fill="midnightblue" stroke="midnightblue" points="1238.47,-127.01 1230.88,-134.396 1241.42,-133.359 1238.47,-127.01"/>
</g>
<!-- Node37 -->
<g id="node37" class="node"><title>Node37</title>
<g id="a_node37"><a xlink:href="TOFTask_8h.html" target="_top" xlink:title="Modules/TOF/include\l/TOF/TOFTask.h">
<polygon fill="none" stroke="black" points="1015.5,-67.5 1015.5,-97.5 1125.5,-97.5 1125.5,-67.5 1015.5,-67.5"/>
<text text-anchor="start" x="1023.5" y="-85.5" font-family="Helvetica,sans-Serif" font-size="10.00">Modules/TOF/include</text>
<text text-anchor="middle" x="1070.5" y="-74.5" font-family="Helvetica,sans-Serif" font-size="10.00">/TOF/TOFTask.h</text>
</a>
</g>
</g>
<!-- Node3&#45;&gt;Node37 -->
<g id="edge41" class="edge"><title>Node3&#45;&gt;Node37</title>
<path fill="none" stroke="midnightblue" d="M1163.21,-129.853C1142.65,-119.576 1117.55,-107.025 1098.65,-97.5765"/>
<polygon fill="midnightblue" stroke="midnightblue" points="1161.78,-133.054 1172.29,-134.396 1164.91,-126.793 1161.78,-133.054"/>
</g>
<!-- Node39 -->
<g id="node39" class="node"><title>Node39</title>
<g id="a_node39"><a xlink:href="PID_8h.html" target="_top" xlink:title="Modules/TPC/include\l/TPC/PID.h">
<polygon fill="none" stroke="black" points="1145.5,-67.5 1145.5,-97.5 1255.5,-97.5 1255.5,-67.5 1145.5,-67.5"/>
<text text-anchor="start" x="1153.5" y="-85.5" font-family="Helvetica,sans-Serif" font-size="10.00">Modules/TPC/include</text>
<text text-anchor="middle" x="1200.5" y="-74.5" font-family="Helvetica,sans-Serif" font-size="10.00">/TPC/PID.h</text>
</a>
</g>
</g>
<!-- Node3&#45;&gt;Node39 -->
<g id="edge43" class="edge"><title>Node3&#45;&gt;Node39</title>
<path fill="none" stroke="midnightblue" d="M1200.5,-124.108C1200.5,-115.154 1200.5,-105.323 1200.5,-97.5765"/>
<polygon fill="midnightblue" stroke="midnightblue" points="1197,-124.396 1200.5,-134.396 1204,-124.396 1197,-124.396"/>
</g>
<!-- Node5 -->
<g id="node5" class="node"><title>Node5</title>
<g id="a_node5"><a xlink:href="TaskFactory_8cxx.html" target="_top" xlink:title="Framework/src/TaskFactory.cxx">
<polygon fill="none" stroke="black" points="2142.5,-6 2142.5,-25 2300.5,-25 2300.5,-6 2142.5,-6"/>
<text text-anchor="middle" x="2221.5" y="-13" font-family="Helvetica,sans-Serif" font-size="10.00">Framework/src/TaskFactory.cxx</text>
</a>
</g>
</g>
<!-- Node4&#45;&gt;Node5 -->
<g id="edge4" class="edge"><title>Node4&#45;&gt;Node5</title>
<path fill="none" stroke="midnightblue" d="M2221.5,-57.2495C2221.5,-46.017 2221.5,-33.3767 2221.5,-25.1945"/>
<polygon fill="midnightblue" stroke="midnightblue" points="2218,-57.3959 2221.5,-67.396 2225,-57.396 2218,-57.3959"/>
</g>
<!-- Node6 -->
<g id="node6" class="node"><title>Node6</title>
<g id="a_node6"><a xlink:href="TaskRunner_8cxx.html" target="_top" xlink:title="Framework/src/TaskRunner.cxx">
<polygon fill="none" stroke="black" points="2935,-6 2935,-25 3092,-25 3092,-6 2935,-6"/>
<text text-anchor="middle" x="3013.5" y="-13" font-family="Helvetica,sans-Serif" font-size="10.00">Framework/src/TaskRunner.cxx</text>
</a>
</g>
</g>
<!-- Node4&#45;&gt;Node6 -->
<g id="edge5" class="edge"><title>Node4&#45;&gt;Node6</title>
<path fill="none" stroke="midnightblue" d="M2298.52,-78.3468C2428.38,-72.5015 2699.01,-58.0449 2926.5,-31 2939.73,-29.4273 2954.01,-27.2489 2967.11,-25.0581"/>
<polygon fill="midnightblue" stroke="midnightblue" points="2298.11,-74.8612 2288.28,-78.8028 2298.43,-81.8542 2298.11,-74.8612"/>
</g>
<!-- Node4&#45;&gt;Node7 -->
<g id="edge6" class="edge"><title>Node4&#45;&gt;Node7</title>
<path fill="none" stroke="midnightblue" d="M2170.93,-64.1075C2134.16,-51.4622 2085.98,-34.8923 2057.24,-25.007"/>
<polygon fill="midnightblue" stroke="midnightblue" points="2169.9,-67.4534 2180.49,-67.396 2172.17,-60.834 2169.9,-67.4534"/>
</g>
<!-- Node8 -->
<g id="node8" class="node"><title>Node8</title>
<g id="a_node8"><a xlink:href="testEMCAL_8cxx.html" target="_top" xlink:title="Modules/EMCAL/test\l/testEMCAL.cxx">
<polygon fill="none" stroke="black" points="2318.5,-0.5 2318.5,-30.5 2428.5,-30.5 2428.5,-0.5 2318.5,-0.5"/>
<text text-anchor="start" x="2326.5" y="-18.5" font-family="Helvetica,sans-Serif" font-size="10.00">Modules/EMCAL/test</text>
<text text-anchor="middle" x="2373.5" y="-7.5" font-family="Helvetica,sans-Serif" font-size="10.00">/testEMCAL.cxx</text>
</a>
</g>
</g>
<!-- Node4&#45;&gt;Node8 -->
<g id="edge7" class="edge"><title>Node4&#45;&gt;Node8</title>
<path fill="none" stroke="midnightblue" d="M2263.81,-63.4066C2288.08,-53.0294 2318.09,-40.1954 2340.58,-30.5765"/>
<polygon fill="midnightblue" stroke="midnightblue" points="2262.3,-60.2459 2254.48,-67.396 2265.05,-66.6821 2262.3,-60.2459"/>
</g>
<!-- Node4&#45;&gt;Node9 -->
<g id="edge8" class="edge"><title>Node4&#45;&gt;Node9</title>
<path fill="none" stroke="midnightblue" d="M2144.91,-68.9768C2086.57,-59.2301 2004.33,-45.0418 1932.5,-31 1929.35,-30.3835 1926.11,-29.7357 1922.85,-29.0701"/>
<polygon fill="midnightblue" stroke="midnightblue" points="2144.34,-72.4314 2154.78,-70.6229 2145.5,-65.5267 2144.34,-72.4314"/>
</g>
<!-- Node10 -->
<g id="node10" class="node"><title>Node10</title>
<g id="a_node10"><a xlink:href="testQcExample_8cxx.html" target="_top" xlink:title="Modules/Example/test\l/testQcExample.cxx">
<polygon fill="none" stroke="black" points="1676.5,-0.5 1676.5,-30.5 1790.5,-30.5 1790.5,-0.5 1676.5,-0.5"/>
<text text-anchor="start" x="1684.5" y="-18.5" font-family="Helvetica,sans-Serif" font-size="10.00">Modules/Example/test</text>
<text text-anchor="middle" x="1733.5" y="-7.5" font-family="Helvetica,sans-Serif" font-size="10.00">/testQcExample.cxx</text>
</a>
</g>
</g>
<!-- Node4&#45;&gt;Node10 -->
<g id="edge9" class="edge"><title>Node4&#45;&gt;Node10</title>
<path fill="none" stroke="midnightblue" d="M2144.64,-74.5662C2059.81,-66.388 1919.4,-51.2948 1799.5,-31 1796.61,-30.5105 1793.65,-29.9783 1790.67,-29.4165"/>
<polygon fill="midnightblue" stroke="midnightblue" points="2144.41,-78.0607 2154.7,-75.5292 2145.08,-71.0925 2144.41,-78.0607"/>
</g>
<!-- Node11 -->
<g id="node11" class="node"><title>Node11</title>
<polygon fill="none" stroke="#bfbfbf" points="2446.5,-0.5 2446.5,-30.5 2560.5,-30.5 2560.5,-0.5 2446.5,-0.5"/>
<text text-anchor="start" x="2454.5" y="-18.5" font-family="Helvetica,sans-Serif" font-size="10.00">Modules/Skeleton/test</text>
<text text-anchor="middle" x="2503.5" y="-7.5" font-family="Helvetica,sans-Serif" font-size="10.00">/.testEmpty.cxx</text>
</g>
<!-- Node4&#45;&gt;Node11 -->
<g id="edge10" class="edge"><title>Node4&#45;&gt;Node11</title>
<path fill="none" stroke="midnightblue" d="M2292.26,-65.1902C2339.8,-54.2312 2401.66,-39.9738 2446.13,-29.7229"/>
<polygon fill="midnightblue" stroke="midnightblue" points="2291.3,-61.8193 2282.34,-67.476 2292.87,-68.6404 2291.3,-61.8193"/>
</g>
<!-- Node12 -->
<g id="node12" class="node"><title>Node12</title>
<g id="a_node12"><a xlink:href="testQcSkeleton_8cxx.html" target="_top" xlink:title="Modules/Skeleton/test\l/testQcSkeleton.cxx">
<polygon fill="none" stroke="black" points="1414.5,-0.5 1414.5,-30.5 1528.5,-30.5 1528.5,-0.5 1414.5,-0.5"/>
<text text-anchor="start" x="1422.5" y="-18.5" font-family="Helvetica,sans-Serif" font-size="10.00">Modules/Skeleton/test</text>
<text text-anchor="middle" x="1471.5" y="-7.5" font-family="Helvetica,sans-Serif" font-size="10.00">/testQcSkeleton.cxx</text>
</a>
</g>
</g>
<!-- Node4&#45;&gt;Node12 -->
<g id="edge11" class="edge"><title>Node4&#45;&gt;Node12</title>
<path fill="none" stroke="midnightblue" d="M2144.75,-79.3102C2017.97,-74.9135 1757.05,-62.5722 1538.5,-31 1535.32,-30.5406 1532.06,-30.0168 1528.79,-29.4473"/>
<polygon fill="midnightblue" stroke="midnightblue" points="2144.64,-82.8083 2154.75,-79.6501 2144.88,-75.8123 2144.64,-82.8083"/>
</g>
<!-- Node13 -->
<g id="node13" class="node"><title>Node13</title>
<g id="a_node13"><a xlink:href="testTOF_8cxx.html" target="_top" xlink:title="Modules/TOF/test/testTOF.cxx">
<polygon fill="none" stroke="black" points="2579,-6 2579,-25 2732,-25 2732,-6 2579,-6"/>
<text text-anchor="middle" x="2655.5" y="-13" font-family="Helvetica,sans-Serif" font-size="10.00">Modules/TOF/test/testTOF.cxx</text>
</a>
</g>
</g>
<!-- Node4&#45;&gt;Node13 -->
<g id="edge12" class="edge"><title>Node4&#45;&gt;Node13</title>
<path fill="none" stroke="midnightblue" d="M2298.42,-70.8535C2368.99,-60.9639 2476.37,-45.6057 2569.5,-31 2581.32,-29.1466 2594.03,-27.0563 2605.96,-25.0517"/>
<polygon fill="midnightblue" stroke="midnightblue" points="2297.7,-67.42 2288.28,-72.2722 2298.67,-74.3525 2297.7,-67.42"/>
</g>
<!-- Node14 -->
<g id="node14" class="node"><title>Node14</title>
<polygon fill="none" stroke="#bfbfbf" points="2750,-6 2750,-25 2917,-25 2917,-6 2750,-6"/>
<text text-anchor="middle" x="2833.5" y="-13" font-family="Helvetica,sans-Serif" font-size="10.00">Modules/TPC/test/testQcTPC.cxx</text>
</g>
<!-- Node4&#45;&gt;Node14 -->
<g id="edge13" class="edge"><title>Node4&#45;&gt;Node14</title>
<path fill="none" stroke="midnightblue" d="M2298.3,-75.4798C2399.9,-67.1864 2584.48,-50.9799 2741.5,-31 2754.97,-29.2855 2769.51,-27.135 2782.96,-25.0192"/>
<polygon fill="midnightblue" stroke="midnightblue" points="2297.81,-72.0077 2288.13,-76.3061 2298.38,-78.9847 2297.81,-72.0077"/>
</g>
<!-- Node15&#45;&gt;Node6 -->
<g id="edge18" class="edge"><title>Node15&#45;&gt;Node6</title>
<path fill="none" stroke="midnightblue" d="M3196.71,-64.9102C3148.54,-52.1803 3084,-35.1273 3045.78,-25.0287"/>
<polygon fill="midnightblue" stroke="midnightblue" points="3195.86,-68.3052 3206.42,-67.476 3197.65,-61.5374 3195.86,-68.3052"/>
</g>
<!-- Node16 -->
<g id="node16" class="node"><title>Node16</title>
<polygon fill="none" stroke="#bfbfbf" points="3110.5,-6 3110.5,-25 3242.5,-25 3242.5,-6 3110.5,-6"/>
<text text-anchor="middle" x="3176.5" y="-13" font-family="Helvetica,sans-Serif" font-size="10.00">Framework/src/Check.cxx</text>
</g>
<!-- Node15&#45;&gt;Node16 -->
<g id="edge15" class="edge"><title>Node15&#45;&gt;Node16</title>
<path fill="none" stroke="midnightblue" d="M3233.33,-61.008C3217.92,-48.9412 3199.24,-34.3046 3187.6,-25.1945"/>
<polygon fill="midnightblue" stroke="midnightblue" points="3231.46,-63.9859 3241.49,-67.396 3235.78,-58.4747 3231.46,-63.9859"/>
</g>
<!-- Node17 -->
<g id="node17" class="node"><title>Node17</title>
<g id="a_node17"><a xlink:href="CheckRunner_8cxx.html" target="_top" xlink:title="Framework/src/CheckRunner.cxx">
<polygon fill="none" stroke="black" points="3260.5,-6 3260.5,-25 3424.5,-25 3424.5,-6 3260.5,-6"/>
<text text-anchor="middle" x="3342.5" y="-13" font-family="Helvetica,sans-Serif" font-size="10.00">Framework/src/CheckRunner.cxx</text>
</a>
</g>
</g>
<!-- Node15&#45;&gt;Node17 -->
<g id="edge16" class="edge"><title>Node15&#45;&gt;Node17</title>
<path fill="none" stroke="midnightblue" d="M3285.67,-61.008C3301.08,-48.9412 3319.76,-34.3046 3331.4,-25.1945"/>
<polygon fill="midnightblue" stroke="midnightblue" points="3283.22,-58.4747 3277.51,-67.396 3287.54,-63.9859 3283.22,-58.4747"/>
</g>
<!-- Node18 -->
<g id="node18" class="node"><title>Node18</title>
<g id="a_node18"><a xlink:href="InfrastructureGenerator_8cxx.html" target="_top" xlink:title="Framework/src/Infrastructure\lGenerator.cxx">
<polygon fill="none" stroke="black" points="3443,-0.5 3443,-30.5 3586,-30.5 3586,-0.5 3443,-0.5"/>
<text text-anchor="start" x="3451" y="-18.5" font-family="Helvetica,sans-Serif" font-size="10.00">Framework/src/Infrastructure</text>
<text text-anchor="middle" x="3514.5" y="-7.5" font-family="Helvetica,sans-Serif" font-size="10.00">Generator.cxx</text>
</a>
</g>
</g>
<!-- Node15&#45;&gt;Node18 -->
<g id="edge17" class="edge"><title>Node15&#45;&gt;Node18</title>
<path fill="none" stroke="midnightblue" d="M3324.29,-64.9844C3365.94,-54.3674 3419.48,-40.7201 3459.14,-30.6109"/>
<polygon fill="midnightblue" stroke="midnightblue" points="3323.34,-61.6143 3314.52,-67.476 3325.07,-68.3974 3323.34,-61.6143"/>
</g>
<!-- Node19 -->
<g id="node19" class="node"><title>Node19</title>
<g id="a_node19"><a xlink:href="TaskRunnerFactory_8cxx.html" target="_top" xlink:title="Framework/src/TaskRunner\lFactory.cxx">
<polygon fill="none" stroke="black" points="3604.5,-0.5 3604.5,-30.5 3742.5,-30.5 3742.5,-0.5 3604.5,-0.5"/>
<text text-anchor="start" x="3612.5" y="-18.5" font-family="Helvetica,sans-Serif" font-size="10.00">Framework/src/TaskRunner</text>
<text text-anchor="middle" x="3673.5" y="-7.5" font-family="Helvetica,sans-Serif" font-size="10.00">Factory.cxx</text>
</a>
</g>
</g>
<!-- Node15&#45;&gt;Node19 -->
<g id="edge19" class="edge"><title>Node15&#45;&gt;Node19</title>
<path fill="none" stroke="midnightblue" d="M3336.45,-70.707C3404.63,-60.9602 3506.83,-45.9006 3595.5,-31 3598.35,-30.5207 3601.26,-30.0224 3604.2,-29.5115"/>
<polygon fill="midnightblue" stroke="midnightblue" points="3335.63,-67.2884 3326.23,-72.1653 3336.62,-74.2182 3335.63,-67.2884"/>
</g>
<!-- Node20 -->
<g id="node20" class="node"><title>Node20</title>
<g id="a_node20"><a xlink:href="testTaskRunner_8cxx.html" target="_top" xlink:title="Framework/test/testTaskRunner.cxx">
<polygon fill="none" stroke="black" points="3760.5,-6 3760.5,-25 3936.5,-25 3936.5,-6 3760.5,-6"/>
<text text-anchor="middle" x="3848.5" y="-13" font-family="Helvetica,sans-Serif" font-size="10.00">Framework/test/testTaskRunner.cxx</text>
</a>
</g>
</g>
<!-- Node15&#45;&gt;Node20 -->
<g id="edge20" class="edge"><title>Node15&#45;&gt;Node20</title>
<path fill="none" stroke="midnightblue" d="M3336.06,-74.7441C3432.93,-65.9424 3604.84,-49.479 3751.5,-31 3765.44,-29.244 3780.47,-27.1138 3794.43,-25.0331"/>
<polygon fill="midnightblue" stroke="midnightblue" points="3335.7,-71.2618 3326.06,-75.6495 3336.33,-78.2333 3335.7,-71.2618"/>
</g>
<!-- Node23 -->
<g id="node23" class="node"><title>Node23</title>
<g id="a_node23"><a xlink:href="DaqTask_8cxx.html" target="_top" xlink:title="Modules/Daq/src/DaqTask.cxx">
<polygon fill="none" stroke="black" points="181.5,-6 181.5,-25 333.5,-25 333.5,-6 181.5,-6"/>
<text text-anchor="middle" x="257.5" y="-13" font-family="Helvetica,sans-Serif" font-size="10.00">Modules/Daq/src/DaqTask.cxx</text>
</a>
</g>
</g>
<!-- Node22&#45;&gt;Node23 -->
<g id="edge24" class="edge"><title>Node22&#45;&gt;Node23</title>
<path fill="none" stroke="midnightblue" d="M265.65,-57.2495C263.403,-46.017 260.875,-33.3767 259.239,-25.1945"/>
<polygon fill="midnightblue" stroke="midnightblue" points="262.286,-58.2766 267.679,-67.396 269.15,-56.9037 262.286,-58.2766"/>
</g>
<!-- Node24 -->
<g id="node24" class="node"><title>Node24</title>
<g id="a_node24"><a xlink:href="testQcDaq_8cxx.html" target="_top" xlink:title="Modules/Daq/test/testQcDaq.cxx">
<polygon fill="none" stroke="black" points="0,-6 0,-25 163,-25 163,-6 0,-6"/>
<text text-anchor="middle" x="81.5" y="-13" font-family="Helvetica,sans-Serif" font-size="10.00">Modules/Daq/test/testQcDaq.cxx</text>
</a>
</g>
</g>
<!-- Node22&#45;&gt;Node24 -->
<g id="edge25" class="edge"><title>Node22&#45;&gt;Node24</title>
<path fill="none" stroke="midnightblue" d="M219.928,-64.1075C183.159,-51.4622 134.979,-34.8923 106.236,-25.007"/>
<polygon fill="midnightblue" stroke="midnightblue" points="218.895,-67.4534 229.49,-67.396 221.172,-60.834 218.895,-67.4534"/>
</g>
<!-- Node26 -->
<g id="node26" class="node"><title>Node26</title>
<g id="a_node26"><a xlink:href="DigitsQcTask_8cxx.html" target="_top" xlink:title="Modules/EMCAL/src/Digits\lQcTask.cxx">
<polygon fill="none" stroke="black" points="351.5,-0.5 351.5,-30.5 487.5,-30.5 487.5,-0.5 351.5,-0.5"/>
<text text-anchor="start" x="359.5" y="-18.5" font-family="Helvetica,sans-Serif" font-size="10.00">Modules/EMCAL/src/Digits</text>
<text text-anchor="middle" x="419.5" y="-7.5" font-family="Helvetica,sans-Serif" font-size="10.00">QcTask.cxx</text>
</a>
</g>
</g>
<!-- Node25&#45;&gt;Node26 -->
<g id="edge27" class="edge"><title>Node25&#45;&gt;Node26</title>
<path fill="none" stroke="midnightblue" d="M428.31,-57.4029C426.364,-48.3703 424.219,-38.4078 422.532,-30.5765"/>
<polygon fill="midnightblue" stroke="midnightblue" points="424.935,-58.3571 430.462,-67.396 431.778,-56.8832 424.935,-58.3571"/>
</g>
<!-- Node28 -->
<g id="node28" class="node"><title>Node28</title>
<g id="a_node28"><a xlink:href="RawTask_8cxx.html" target="_top" xlink:title="Modules/EMCAL/src/RawTask.cxx">
<polygon fill="none" stroke="black" points="506,-6 506,-25 677,-25 677,-6 506,-6"/>
<text text-anchor="middle" x="591.5" y="-13" font-family="Helvetica,sans-Serif" font-size="10.00">Modules/EMCAL/src/RawTask.cxx</text>
</a>
</g>
</g>
<!-- Node27&#45;&gt;Node28 -->
<g id="edge29" class="edge"><title>Node27&#45;&gt;Node28</title>
<path fill="none" stroke="midnightblue" d="M594.008,-57.2495C593.316,-46.017 592.539,-33.3767 592.035,-25.1945"/>
<polygon fill="midnightblue" stroke="midnightblue" points="590.524,-57.6299 594.632,-67.396 597.511,-57.1998 590.524,-57.6299"/>
</g>
<!-- Node30 -->
<g id="node30" class="node"><title>Node30</title>
<g id="a_node30"><a xlink:href="BenchmarkTask_8cxx.html" target="_top" xlink:title="Modules/Example/src\l/BenchmarkTask.cxx">
<polygon fill="none" stroke="black" points="695,-0.5 695,-30.5 806,-30.5 806,-0.5 695,-0.5"/>
<text text-anchor="start" x="703" y="-18.5" font-family="Helvetica,sans-Serif" font-size="10.00">Modules/Example/src</text>
<text text-anchor="middle" x="750.5" y="-7.5" font-family="Helvetica,sans-Serif" font-size="10.00">/BenchmarkTask.cxx</text>
</a>
</g>
</g>
<!-- Node29&#45;&gt;Node30 -->
<g id="edge31" class="edge"><title>Node29&#45;&gt;Node30</title>
<path fill="none" stroke="midnightblue" d="M751.125,-57.1081C750.987,-48.1539 750.836,-38.3227 750.717,-30.5765"/>
<polygon fill="midnightblue" stroke="midnightblue" points="747.63,-57.451 751.283,-67.396 754.629,-57.3433 747.63,-57.451"/>
</g>
<!-- Node32 -->
<g id="node32" class="node"><title>Node32</title>
<g id="a_node32"><a xlink:href="ExampleCondition_8cxx.html" target="_top" xlink:title="Modules/Example/src\l/ExampleCondition.cxx">
<polygon fill="none" stroke="black" points="824.5,-0.5 824.5,-30.5 942.5,-30.5 942.5,-0.5 824.5,-0.5"/>
<text text-anchor="start" x="832.5" y="-18.5" font-family="Helvetica,sans-Serif" font-size="10.00">Modules/Example/src</text>
<text text-anchor="middle" x="883.5" y="-7.5" font-family="Helvetica,sans-Serif" font-size="10.00">/ExampleCondition.cxx</text>
</a>
</g>
</g>
<!-- Node31&#45;&gt;Node32 -->
<g id="edge33" class="edge"><title>Node31&#45;&gt;Node32</title>
<path fill="none" stroke="midnightblue" d="M905.356,-58.2835C900.512,-49.0223 895.093,-38.6632 890.863,-30.5765"/>
<polygon fill="midnightblue" stroke="midnightblue" points="902.386,-60.1572 910.123,-67.396 908.589,-56.9127 902.386,-60.1572"/>
</g>
<!-- Node33&#45;&gt;Node9 -->
<g id="edge36" class="edge"><title>Node33&#45;&gt;Node9</title>
<path fill="none" stroke="midnightblue" d="M1681.51,-64.9171C1721.82,-54.3099 1773.54,-40.6988 1811.88,-30.6109"/>
<polygon fill="midnightblue" stroke="midnightblue" points="1680.57,-61.5462 1671.79,-67.476 1682.35,-68.3157 1680.57,-61.5462"/>
</g>
<!-- Node33&#45;&gt;Node10 -->
<g id="edge37" class="edge"><title>Node33&#45;&gt;Node10</title>
<path fill="none" stroke="midnightblue" d="M1652.48,-62.2956C1670.47,-52.1248 1692.18,-39.8549 1708.6,-30.5765"/>
<polygon fill="midnightblue" stroke="midnightblue" points="1650.44,-59.4284 1643.45,-67.396 1653.88,-65.5223 1650.44,-59.4284"/>
</g>
<!-- Node34 -->
<g id="node34" class="node"><title>Node34</title>
<g id="a_node34"><a xlink:href="ExampleTask_8cxx.html" target="_top" xlink:title="Modules/Example/src\l/ExampleTask.cxx">
<polygon fill="none" stroke="black" points="1547,-0.5 1547,-30.5 1658,-30.5 1658,-0.5 1547,-0.5"/>
<text text-anchor="start" x="1555" y="-18.5" font-family="Helvetica,sans-Serif" font-size="10.00">Modules/Example/src</text>
<text text-anchor="middle" x="1602.5" y="-7.5" font-family="Helvetica,sans-Serif" font-size="10.00">/ExampleTask.cxx</text>
</a>
</g>
</g>
<!-- Node33&#45;&gt;Node34 -->
<g id="edge35" class="edge"><title>Node33&#45;&gt;Node34</title>
<path fill="none" stroke="midnightblue" d="M1612.57,-57.4029C1610.34,-48.3703 1607.89,-38.4078 1605.96,-30.5765"/>
<polygon fill="midnightblue" stroke="midnightblue" points="1609.24,-58.5224 1615.03,-67.396 1616.04,-56.8492 1609.24,-58.5224"/>
</g>
<!-- Node35&#45;&gt;Node12 -->
<g id="edge40" class="edge"><title>Node35&#45;&gt;Node12</title>
<path fill="none" stroke="midnightblue" d="M1378.08,-62.8533C1398.79,-52.5761 1424.09,-40.0252 1443.13,-30.5765"/>
<polygon fill="midnightblue" stroke="midnightblue" points="1376.33,-59.8159 1368.93,-67.396 1379.44,-66.0864 1376.33,-59.8159"/>
</g>
<!-- Node36 -->
<g id="node36" class="node"><title>Node36</title>
<g id="a_node36"><a xlink:href="SkeletonTask_8cxx.html" target="_top" xlink:title="Modules/Skeleton/src\l/SkeletonTask.cxx">
<polygon fill="none" stroke="black" points="1285,-0.5 1285,-30.5 1396,-30.5 1396,-0.5 1285,-0.5"/>
<text text-anchor="start" x="1293" y="-18.5" font-family="Helvetica,sans-Serif" font-size="10.00">Modules/Skeleton/src</text>
<text text-anchor="middle" x="1340.5" y="-7.5" font-family="Helvetica,sans-Serif" font-size="10.00">/SkeletonTask.cxx</text>
</a>
</g>
</g>
<!-- Node35&#45;&gt;Node36 -->
<g id="edge39" class="edge"><title>Node35&#45;&gt;Node36</title>
<path fill="none" stroke="midnightblue" d="M1340.5,-57.1081C1340.5,-48.1539 1340.5,-38.3227 1340.5,-30.5765"/>
<polygon fill="midnightblue" stroke="midnightblue" points="1337,-57.3959 1340.5,-67.396 1344,-57.396 1337,-57.3959"/>
</g>
<!-- Node38 -->
<g id="node38" class="node"><title>Node38</title>
<g id="a_node38"><a xlink:href="TOFTask_8cxx.html" target="_top" xlink:title="Modules/TOF/src/TOFTask.cxx">
<polygon fill="none" stroke="black" points="961,-6 961,-25 1116,-25 1116,-6 961,-6"/>
<text text-anchor="middle" x="1038.5" y="-13" font-family="Helvetica,sans-Serif" font-size="10.00">Modules/TOF/src/TOFTask.cxx</text>
</a>
</g>
</g>
<!-- Node37&#45;&gt;Node38 -->
<g id="edge42" class="edge"><title>Node37&#45;&gt;Node38</title>
<path fill="none" stroke="midnightblue" d="M1059.07,-58.2875C1053.42,-46.8032 1046.93,-33.6298 1042.78,-25.1945"/>
<polygon fill="midnightblue" stroke="midnightblue" points="1056,-59.9702 1063.56,-67.396 1062.28,-56.8783 1056,-59.9702"/>
</g>
<!-- Node40 -->
<g id="node40" class="node"><title>Node40</title>
<g id="a_node40"><a xlink:href="PID_8cxx.html" target="_top" xlink:title="Modules/TPC/src/PID.cxx">
<polygon fill="none" stroke="black" points="1134.5,-6 1134.5,-25 1266.5,-25 1266.5,-6 1134.5,-6"/>
<text text-anchor="middle" x="1200.5" y="-13" font-family="Helvetica,sans-Serif" font-size="10.00">Modules/TPC/src/PID.cxx</text>
</a>
</g>
</g>
<!-- Node39&#45;&gt;Node40 -->
<g id="edge44" class="edge"><title>Node39&#45;&gt;Node40</title>
<path fill="none" stroke="midnightblue" d="M1200.5,-57.2495C1200.5,-46.017 1200.5,-33.3767 1200.5,-25.1945"/>
<polygon fill="midnightblue" stroke="midnightblue" points="1197,-57.3959 1200.5,-67.396 1204,-57.396 1197,-57.3959"/>
</g>
</g>
</svg>
        <g id="navigator" transform="translate(0 0)" fill="#404254">
                <rect fill="#f2f5e9" fill-opacity="0.5" stroke="#606060" stroke-width=".5" x="0" y="0" width="60" height="60"/>
                <use id="zoomplus" xlink:href="#zoomPlus" x="17" y="9" onmousedown="handleZoom(evt,'in')"/>
                <use id="zoomminus" xlink:href="#zoomMin" x="42" y="9" onmousedown="handleZoom(evt,'out')"/>
                <use id="reset" xlink:href="#resetDef" x="30" y="36" onmousedown="handleReset()"/>
                <g id="arrowUp" xlink:href="#dirArrow" transform="translate(30 24)" onmousedown="handlePan(0,-1)">
                  <use xlink:href="#rim" fill="#404040">
                        <set attributeName="fill" to="#808080" begin="arrowUp.mouseover" end="arrowUp.mouseout"/>
                  </use>
                  <path fill="none" stroke="white" stroke-width="1.5" d="M0,-3.0v7 M-2.5,-0.5L0,-3.0L2.5,-0.5"/>
                </g>
                <g id="arrowRight" xlink:href="#dirArrow" transform="rotate(90) translate(36 -43)" onmousedown="handlePan(1,0)">
                  <use xlink:href="#rim" fill="#404040">
                        <set attributeName="fill" to="#808080" begin="arrowRight.mouseover" end="arrowRight.mouseout"/>
                  </use>
                  <path fill="none" stroke="white" stroke-width="1.5" d="M0,-3.0v7 M-2.5,-0.5L0,-3.0L2.5,-0.5"/>
                </g>
                <g id="arrowDown" xlink:href="#dirArrow" transform="rotate(180) translate(-30 -48)" onmousedown="handlePan(0,1)">
                  <use xlink:href="#rim" fill="#404040">
                        <set attributeName="fill" to="#808080" begin="arrowDown.mouseover" end="arrowDown.mouseout"/>
                  </use>
                  <path fill="none" stroke="white" stroke-width="1.5" d="M0,-3.0v7 M-2.5,-0.5L0,-3.0L2.5,-0.5"/>
                </g>
                <g id="arrowLeft" xlink:href="#dirArrow" transform="rotate(270) translate(-36 17)" onmousedown="handlePan(-1,0)">
                  <use xlink:href="#rim" fill="#404040">
                        <set attributeName="fill" to="#808080" begin="arrowLeft.mouseover" end="arrowLeft.mouseout"/>
                  </use>
                  <path fill="none" stroke="white" stroke-width="1.5" d="M0,-3.0v7 M-2.5,-0.5L0,-3.0L2.5,-0.5"/>
                </g>
        </g>
        <svg viewBox="0 0 15 15" width="100%" height="30px" preserveAspectRatio="xMaxYMin meet">
         <g id="arrow_out" transform="scale(0.3 0.3)">
          <a xlink:href="TaskConfig_8h__dep__incl_org.svg" target="_base">
           <rect id="button" ry="5" rx="5" y="6" x="6" height="38" width="38"
                fill="#f2f5e9" fill-opacity="0.5" stroke="#606060" stroke-width="1.0"/>
           <path id="arrow"
             d="M 11.500037,31.436501 C 11.940474,20.09759 22.043105,11.32322 32.158766,21.979434 L 37.068811,17.246167 C 37.068811,17.246167 37.088388,32 37.088388,32 L 22.160133,31.978069 C 22.160133,31.978069 26.997745,27.140456 26.997745,27.140456 C 18.528582,18.264221 13.291696,25.230495 11.500037,31.436501 z"
             style="fill:#404040;"/>
          </a>
         </g>
        </svg>
</svg>
