<?xml version="1.0" encoding="UTF-8" standalone="no"?>
<!DOCTYPE svg PUBLIC "-//W3C//DTD SVG 1.1//EN"
 "http://www.w3.org/Graphics/SVG/1.1/DTD/svg11.dtd">
<!-- Generated by graphviz version 2.38.0 (20140413.2041)
 -->
<!-- Title: Framework/src/TaskFactory.cxx Pages: 1 -->
<svg width="1426pt" height="364pt"
 viewBox="0.00 0.00 1425.77 364.00" xmlns="http://www.w3.org/2000/svg" xmlns:xlink="http://www.w3.org/1999/xlink">
<g id="graph0" class="graph" transform="scale(1 1) rotate(0) translate(4 360)">
<title>Framework/src/TaskFactory.cxx</title>
<!-- Node1 -->
<g id="node1" class="node"><title>Node1</title>
<polygon fill="#bfbfbf" stroke="black" points="1010.27,-336.5 1010.27,-355.5 1168.27,-355.5 1168.27,-336.5 1010.27,-336.5"/>
<text text-anchor="middle" x="1089.27" y="-343.5" font-family="Helvetica,sans-Serif" font-size="10.00">Framework/src/TaskFactory.cxx</text>
</g>
<!-- Node2 -->
<g id="node2" class="node"><title>Node2</title>
<g id="a_node2"><a xlink:href="TaskFactory_8h.html" target="_top" xlink:title="QualityControl/TaskFactory.h">
<polygon fill="none" stroke="black" points="562.769,-280.5 562.769,-299.5 707.769,-299.5 707.769,-280.5 562.769,-280.5"/>
<text text-anchor="middle" x="635.269" y="-287.5" font-family="Helvetica,sans-Serif" font-size="10.00">QualityControl/TaskFactory.h</text>
</a>
</g>
</g>
<!-- Node1&#45;&gt;Node2 -->
<g id="edge1" class="edge"><title>Node1&#45;&gt;Node2</title>
<path fill="none" stroke="midnightblue" d="M1017.58,-336.473C935.861,-326.753 802.547,-310.897 716.897,-300.709"/>
<polygon fill="midnightblue" stroke="midnightblue" points="717.297,-297.232 706.954,-299.526 716.47,-304.183 717.297,-297.232"/>
</g>
<!-- Node18 -->
<g id="node18" class="node"><title>Node18</title>
<g id="a_node18"><a xlink:href="QcInfoLogger_8h.html" target="_top" xlink:title="QualityControl/QcInfoLogger.h">
<polygon fill="none" stroke="black" points="1268.77,-224.5 1268.77,-243.5 1417.77,-243.5 1417.77,-224.5 1268.77,-224.5"/>
<text text-anchor="middle" x="1343.27" y="-231.5" font-family="Helvetica,sans-Serif" font-size="10.00">QualityControl/QcInfoLogger.h</text>
</a>
</g>
</g>
<!-- Node1&#45;&gt;Node18 -->
<g id="edge28" class="edge"><title>Node1&#45;&gt;Node18</title>
<path fill="none" stroke="midnightblue" d="M1109.2,-336.368C1153.81,-317.051 1261.85,-270.259 1314.06,-247.648"/>
<polygon fill="midnightblue" stroke="midnightblue" points="1315.64,-250.777 1323.43,-243.591 1312.86,-244.354 1315.64,-250.777"/>
</g>
<!-- Node20 -->
<g id="node20" class="node"><title>Node20</title>
<g id="a_node20"><a xlink:href="RootClassFactory_8h.html" target="_top" xlink:title="RootClassFactory.h">
<polygon fill="none" stroke="black" points="1037.27,-280.5 1037.27,-299.5 1141.27,-299.5 1141.27,-280.5 1037.27,-280.5"/>
<text text-anchor="middle" x="1089.27" y="-287.5" font-family="Helvetica,sans-Serif" font-size="10.00">RootClassFactory.h</text>
</a>
</g>
</g>
<!-- Node1&#45;&gt;Node20 -->
<g id="edge30" class="edge"><title>Node1&#45;&gt;Node20</title>
<path fill="none" stroke="midnightblue" d="M1089.27,-336.083C1089.27,-329.006 1089.27,-318.861 1089.27,-309.986"/>
<polygon fill="midnightblue" stroke="midnightblue" points="1092.77,-309.751 1089.27,-299.751 1085.77,-309.751 1092.77,-309.751"/>
</g>
<!-- Node3 -->
<g id="node3" class="node"><title>Node3</title>
<polygon fill="none" stroke="#bfbfbf" points="625.269,-112.5 625.269,-131.5 677.269,-131.5 677.269,-112.5 625.269,-112.5"/>
<text text-anchor="middle" x="651.269" y="-119.5" font-family="Helvetica,sans-Serif" font-size="10.00">memory</text>
</g>
<!-- Node2&#45;&gt;Node3 -->
<g id="edge2" class="edge"><title>Node2&#45;&gt;Node3</title>
<path fill="none" stroke="midnightblue" d="M643.672,-280.497C659.094,-264.221 691.419,-226.818 703.269,-188 705.864,-179.498 706.964,-176.084 703.269,-168 697.491,-155.36 686.216,-144.911 675.638,-137.274"/>
<polygon fill="midnightblue" stroke="midnightblue" points="677.31,-134.182 667.052,-131.533 673.42,-140.001 677.31,-134.182"/>
</g>
<!-- Node4 -->
<g id="node4" class="node"><title>Node4</title>
<g id="a_node4"><a xlink:href="TaskConfig_8h.html" target="_top" xlink:title="QualityControl/TaskConfig.h">
<polygon fill="none" stroke="black" points="320.269,-112.5 320.269,-131.5 460.269,-131.5 460.269,-112.5 320.269,-112.5"/>
<text text-anchor="middle" x="390.269" y="-119.5" font-family="Helvetica,sans-Serif" font-size="10.00">QualityControl/TaskConfig.h</text>
</a>
</g>
</g>
<!-- Node2&#45;&gt;Node4 -->
<g id="edge3" class="edge"><title>Node2&#45;&gt;Node4</title>
<path fill="none" stroke="midnightblue" d="M562.726,-288.629C412.669,-286.16 76.2313,-271.245 5.26855,-188 -35.5258,-140.145 185.033,-127.514 309.544,-124.186"/>
<polygon fill="midnightblue" stroke="midnightblue" points="309.901,-127.678 319.81,-123.927 309.724,-120.68 309.901,-127.678"/>
</g>
<!-- Node7 -->
<g id="node7" class="node"><title>Node7</title>
<g id="a_node7"><a xlink:href="TaskInterface_8h.html" target="_top" xlink:title="QualityControl/TaskInterface.h">
<polygon fill="none" stroke="black" points="413.269,-224.5 413.269,-243.5 563.269,-243.5 563.269,-224.5 413.269,-224.5"/>
<text text-anchor="middle" x="488.269" y="-231.5" font-family="Helvetica,sans-Serif" font-size="10.00">QualityControl/TaskInterface.h</text>
</a>
</g>
</g>
<!-- Node2&#45;&gt;Node7 -->
<g id="edge6" class="edge"><title>Node2&#45;&gt;Node7</title>
<path fill="none" stroke="midnightblue" d="M611.976,-280.444C587.461,-271.438 548.672,-257.189 521.069,-247.049"/>
<polygon fill="midnightblue" stroke="midnightblue" points="522.046,-243.679 511.452,-243.516 519.632,-250.25 522.046,-243.679"/>
</g>
<!-- Node5 -->
<g id="node5" class="node"><title>Node5</title>
<polygon fill="none" stroke="#bfbfbf" points="545.769,-0.5 545.769,-19.5 586.769,-19.5 586.769,-0.5 545.769,-0.5"/>
<text text-anchor="middle" x="566.269" y="-7.5" font-family="Helvetica,sans-Serif" font-size="10.00">string</text>
</g>
<!-- Node4&#45;&gt;Node5 -->
<g id="edge4" class="edge"><title>Node4&#45;&gt;Node5</title>
<path fill="none" stroke="midnightblue" d="M392.293,-112.491C396.027,-98.6352 405.309,-71.2176 423.269,-56 455.381,-28.7903 503.987,-18.0003 535.434,-13.7432"/>
<polygon fill="midnightblue" stroke="midnightblue" points="535.886,-17.2141 545.392,-12.5357 535.044,-10.265 535.886,-17.2141"/>
</g>
<!-- Node6 -->
<g id="node6" class="node"><title>Node6</title>
<polygon fill="none" stroke="#bfbfbf" points="432.769,-56.5 432.769,-75.5 515.769,-75.5 515.769,-56.5 432.769,-56.5"/>
<text text-anchor="middle" x="474.269" y="-63.5" font-family="Helvetica,sans-Serif" font-size="10.00">unordered_map</text>
</g>
<!-- Node4&#45;&gt;Node6 -->
<g id="edge5" class="edge"><title>Node4&#45;&gt;Node6</title>
<path fill="none" stroke="midnightblue" d="M403.765,-112.324C416.868,-103.9 436.98,-90.9709 452.375,-81.0741"/>
<polygon fill="midnightblue" stroke="midnightblue" points="454.287,-84.0063 460.806,-75.6545 450.502,-78.118 454.287,-84.0063"/>
</g>
<!-- Node7&#45;&gt;Node3 -->
<g id="edge8" class="edge"><title>Node7&#45;&gt;Node3</title>
<path fill="none" stroke="midnightblue" d="M563.378,-225.605C612.688,-219.019 670.819,-207.354 686.269,-188 698.547,-172.618 683.501,-152.301 669.494,-138.505"/>
<polygon fill="midnightblue" stroke="midnightblue" points="671.72,-135.797 661.999,-131.584 666.971,-140.94 671.72,-135.797"/>
</g>
<!-- Node7&#45;&gt;Node5 -->
<g id="edge9" class="edge"><title>Node7&#45;&gt;Node5</title>
<path fill="none" stroke="midnightblue" d="M413.12,-231.445C284.22,-227.993 32.158,-217.511 5.26855,-188 -0.718219,-181.43 -0.0984385,-175.086 5.26855,-168 71.465,-80.6043 427.902,-28.6336 535.498,-14.768"/>
<polygon fill="midnightblue" stroke="midnightblue" points="536.202,-18.2068 545.681,-13.4744 535.32,-11.2626 536.202,-18.2068"/>
</g>
<!-- Node7&#45;&gt;Node6 -->
<g id="edge10" class="edge"><title>Node7&#45;&gt;Node6</title>
<path fill="none" stroke="midnightblue" d="M487.516,-224.075C485.312,-197.945 478.841,-121.211 475.835,-85.577"/>
<polygon fill="midnightblue" stroke="midnightblue" points="479.319,-85.2386 474.991,-75.5681 472.344,-85.8269 479.319,-85.2386"/>
</g>
<!-- Node8 -->
<g id="node8" class="node"><title>Node8</title>
<polygon fill="none" stroke="#bfbfbf" points="906.769,-56.5 906.769,-75.5 941.769,-75.5 941.769,-56.5 906.769,-56.5"/>
<text text-anchor="middle" x="924.269" y="-63.5" font-family="Helvetica,sans-Serif" font-size="10.00">map</text>
</g>
<!-- Node7&#45;&gt;Node8 -->
<g id="edge7" class="edge"><title>Node7&#45;&gt;Node8</title>
<path fill="none" stroke="midnightblue" d="M549.841,-224.466C649.892,-209.505 841.787,-175.911 893.269,-132 907.367,-119.974 915.532,-100.085 919.908,-85.4686"/>
<polygon fill="midnightblue" stroke="midnightblue" points="923.362,-86.1008 922.551,-75.537 916.597,-84.3005 923.362,-86.1008"/>
</g>
<!-- Node9 -->
<g id="node9" class="node"><title>Node9</title>
<polygon fill="none" stroke="#bfbfbf" points="14.7685,-168.5 14.7685,-187.5 139.769,-187.5 139.769,-168.5 14.7685,-168.5"/>
<text text-anchor="middle" x="77.2685" y="-175.5" font-family="Helvetica,sans-Serif" font-size="10.00">Framework/InitContext.h</text>
</g>
<!-- Node7&#45;&gt;Node9 -->
<g id="edge11" class="edge"><title>Node7&#45;&gt;Node9</title>
<path fill="none" stroke="midnightblue" d="M423.144,-224.444C348.843,-214.681 227.642,-198.757 150.221,-188.585"/>
<polygon fill="midnightblue" stroke="midnightblue" points="150.437,-185.083 140.066,-187.251 149.525,-192.024 150.437,-185.083"/>
</g>
<!-- Node10 -->
<g id="node10" class="node"><title>Node10</title>
<polygon fill="none" stroke="#bfbfbf" points="158.269,-168.5 158.269,-187.5 318.269,-187.5 318.269,-168.5 158.269,-168.5"/>
<text text-anchor="middle" x="238.269" y="-175.5" font-family="Helvetica,sans-Serif" font-size="10.00">Framework/ProcessingContext.h</text>
</g>
<!-- Node7&#45;&gt;Node10 -->
<g id="edge12" class="edge"><title>Node7&#45;&gt;Node10</title>
<path fill="none" stroke="midnightblue" d="M448.655,-224.444C405.043,-215.023 334.869,-199.866 287.691,-189.675"/>
<polygon fill="midnightblue" stroke="midnightblue" points="288.21,-186.207 277.696,-187.516 286.732,-193.049 288.21,-186.207"/>
</g>
<!-- Node11 -->
<g id="node11" class="node"><title>Node11</title>
<g id="a_node11"><a xlink:href="Activity_8h.html" target="_top" xlink:title="QualityControl/Activity.h">
<polygon fill="none" stroke="black" points="336.769,-168.5 336.769,-187.5 459.769,-187.5 459.769,-168.5 336.769,-168.5"/>
<text text-anchor="middle" x="398.269" y="-175.5" font-family="Helvetica,sans-Serif" font-size="10.00">QualityControl/Activity.h</text>
</a>
</g>
</g>
<!-- Node7&#45;&gt;Node11 -->
<g id="edge13" class="edge"><title>Node7&#45;&gt;Node11</title>
<path fill="none" stroke="midnightblue" d="M473.808,-224.324C459.769,-215.9 438.22,-202.971 421.725,-193.074"/>
<polygon fill="midnightblue" stroke="midnightblue" points="423.068,-189.798 412.693,-187.655 419.467,-195.801 423.068,-189.798"/>
</g>
<!-- Node12 -->
<g id="node12" class="node"><title>Node12</title>
<g id="a_node12"><a xlink:href="ObjectsManager_8h.html" target="_top" xlink:title="QualityControl/ObjectsManager.h">
<polygon fill="none" stroke="black" points="516.769,-168.5 516.769,-187.5 677.769,-187.5 677.769,-168.5 516.769,-168.5"/>
<text text-anchor="middle" x="597.269" y="-175.5" font-family="Helvetica,sans-Serif" font-size="10.00">QualityControl/ObjectsManager.h</text>
</a>
</g>
</g>
<!-- Node7&#45;&gt;Node12 -->
<g id="edge14" class="edge"><title>Node7&#45;&gt;Node12</title>
<path fill="none" stroke="midnightblue" d="M505.781,-224.324C523.341,-215.625 550.6,-202.12 570.8,-192.113"/>
<polygon fill="midnightblue" stroke="midnightblue" points="572.392,-195.23 579.799,-187.655 569.285,-188.958 572.392,-195.23"/>
</g>
<!-- Node12&#45;&gt;Node3 -->
<g id="edge27" class="edge"><title>Node12&#45;&gt;Node3</title>
<path fill="none" stroke="midnightblue" d="M606.186,-168.083C614.049,-160.22 625.7,-148.569 635.187,-139.081"/>
<polygon fill="midnightblue" stroke="midnightblue" points="637.921,-141.297 642.517,-131.751 632.971,-136.347 637.921,-141.297"/>
</g>
<!-- Node12&#45;&gt;Node4 -->
<g id="edge25" class="edge"><title>Node12&#45;&gt;Node4</title>
<path fill="none" stroke="midnightblue" d="M564.469,-168.444C528.888,-159.162 471.954,-144.309 432.922,-134.127"/>
<polygon fill="midnightblue" stroke="midnightblue" points="433.475,-130.654 422.915,-131.516 431.708,-137.427 433.475,-130.654"/>
</g>
<!-- Node12&#45;&gt;Node5 -->
<g id="edge26" class="edge"><title>Node12&#45;&gt;Node5</title>
<path fill="none" stroke="midnightblue" d="M594.527,-168.462C589.107,-151.201 577.046,-110.832 571.269,-76 568.719,-60.6282 567.466,-42.9912 566.852,-29.971"/>
<polygon fill="midnightblue" stroke="midnightblue" points="570.346,-29.7471 566.46,-19.8905 563.351,-30.0188 570.346,-29.7471"/>
</g>
<!-- Node13 -->
<g id="node13" class="node"><title>Node13</title>
<g id="a_node13"><a xlink:href="MonitorObject_8h.html" target="_top" xlink:title="QualityControl/MonitorObject.h">
<polygon fill="none" stroke="black" points="733.769,-112.5 733.769,-131.5 884.769,-131.5 884.769,-112.5 733.769,-112.5"/>
<text text-anchor="middle" x="809.269" y="-119.5" font-family="Helvetica,sans-Serif" font-size="10.00">QualityControl/MonitorObject.h</text>
</a>
</g>
</g>
<!-- Node12&#45;&gt;Node13 -->
<g id="edge15" class="edge"><title>Node12&#45;&gt;Node13</title>
<path fill="none" stroke="midnightblue" d="M630.861,-168.444C667.456,-159.122 726.107,-144.183 766.094,-133.997"/>
<polygon fill="midnightblue" stroke="midnightblue" points="767.007,-137.377 775.834,-131.516 765.279,-130.593 767.007,-137.377"/>
</g>
<!-- Node17 -->
<g id="node17" class="node"><title>Node17</title>
<g id="a_node17"><a xlink:href="Quality_8h.html" target="_top" xlink:title="QualityControl/Quality.h">
<polygon fill="none" stroke="black" points="651.769,-56.5 651.769,-75.5 772.769,-75.5 772.769,-56.5 651.769,-56.5"/>
<text text-anchor="middle" x="712.269" y="-63.5" font-family="Helvetica,sans-Serif" font-size="10.00">QualityControl/Quality.h</text>
</a>
</g>
</g>
<!-- Node12&#45;&gt;Node17 -->
<g id="edge24" class="edge"><title>Node12&#45;&gt;Node17</title>
<path fill="none" stroke="midnightblue" d="M597.592,-168.366C598.536,-154.82 602.193,-128.428 616.269,-112 629.567,-96.4784 649.391,-85.9555 667.578,-79.0151"/>
<polygon fill="midnightblue" stroke="midnightblue" points="668.921,-82.2522 677.177,-75.612 666.582,-75.6545 668.921,-82.2522"/>
</g>
<!-- Node13&#45;&gt;Node5 -->
<g id="edge16" class="edge"><title>Node13&#45;&gt;Node5</title>
<path fill="none" stroke="midnightblue" d="M753.973,-112.494C720.303,-105.792 677.194,-94.4217 642.269,-76 618.168,-63.288 595.055,-41.7339 580.775,-26.9561"/>
<polygon fill="midnightblue" stroke="midnightblue" points="583.202,-24.428 573.801,-19.5426 578.104,-29.2244 583.202,-24.428"/>
</g>
<!-- Node13&#45;&gt;Node8 -->
<g id="edge17" class="edge"><title>Node13&#45;&gt;Node8</title>
<path fill="none" stroke="midnightblue" d="M827.491,-112.444C846.274,-103.624 875.769,-89.7736 897.264,-79.6805"/>
<polygon fill="midnightblue" stroke="midnightblue" points="898.945,-82.7576 906.51,-75.339 895.97,-76.4213 898.945,-82.7576"/>
</g>
<!-- Node14 -->
<g id="node14" class="node"><title>Node14</title>
<polygon fill="none" stroke="#bfbfbf" points="767.269,-0.5 767.269,-19.5 823.269,-19.5 823.269,-0.5 767.269,-0.5"/>
<text text-anchor="middle" x="795.269" y="-7.5" font-family="Helvetica,sans-Serif" font-size="10.00">Rtypes.h</text>
</g>
<!-- Node13&#45;&gt;Node14 -->
<g id="edge18" class="edge"><title>Node13&#45;&gt;Node14</title>
<path fill="none" stroke="midnightblue" d="M823.968,-112.404C842.222,-100.545 869.65,-78.1156 858.269,-56 851.191,-42.2475 837.748,-31.7663 825.091,-24.3942"/>
<polygon fill="midnightblue" stroke="midnightblue" points="826.582,-21.2221 816.116,-19.5733 823.269,-27.3888 826.582,-21.2221"/>
</g>
<!-- Node15 -->
<g id="node15" class="node"><title>Node15</title>
<polygon fill="none" stroke="#bfbfbf" points="790.769,-56.5 790.769,-75.5 849.769,-75.5 849.769,-56.5 790.769,-56.5"/>
<text text-anchor="middle" x="820.269" y="-63.5" font-family="Helvetica,sans-Serif" font-size="10.00">TObject.h</text>
</g>
<!-- Node13&#45;&gt;Node15 -->
<g id="edge19" class="edge"><title>Node13&#45;&gt;Node15</title>
<path fill="none" stroke="midnightblue" d="M811.085,-112.083C812.543,-104.927 814.639,-94.6353 816.461,-85.6911"/>
<polygon fill="midnightblue" stroke="midnightblue" points="819.919,-86.2485 818.486,-75.7511 813.06,-84.8512 819.919,-86.2485"/>
</g>
<!-- Node16 -->
<g id="node16" class="node"><title>Node16</title>
<polygon fill="none" stroke="#bfbfbf" points="1001.27,-56.5 1001.27,-75.5 1117.27,-75.5 1117.27,-56.5 1001.27,-56.5"/>
<text text-anchor="middle" x="1059.27" y="-63.5" font-family="Helvetica,sans-Serif" font-size="10.00">Common/Exceptions.h</text>
</g>
<!-- Node13&#45;&gt;Node16 -->
<g id="edge20" class="edge"><title>Node13&#45;&gt;Node16</title>
<path fill="none" stroke="midnightblue" d="M848.882,-112.444C892.494,-103.023 962.668,-87.8656 1009.85,-77.6752"/>
<polygon fill="midnightblue" stroke="midnightblue" points="1010.81,-81.0489 1019.84,-75.5164 1009.33,-74.2067 1010.81,-81.0489"/>
</g>
<!-- Node13&#45;&gt;Node17 -->
<g id="edge21" class="edge"><title>Node13&#45;&gt;Node17</title>
<path fill="none" stroke="midnightblue" d="M793.684,-112.324C778.269,-103.743 754.456,-90.486 736.559,-80.5224"/>
<polygon fill="midnightblue" stroke="midnightblue" points="738.254,-77.4606 727.815,-75.6545 734.849,-83.5767 738.254,-77.4606"/>
</g>
<!-- Node17&#45;&gt;Node5 -->
<g id="edge23" class="edge"><title>Node17&#45;&gt;Node5</title>
<path fill="none" stroke="midnightblue" d="M689.134,-56.4435C664.07,-47.1732 623.983,-32.3464 596.456,-22.1652"/>
<polygon fill="midnightblue" stroke="midnightblue" points="597.527,-18.8297 586.934,-18.6433 595.099,-25.395 597.527,-18.8297"/>
</g>
<!-- Node17&#45;&gt;Node14 -->
<g id="edge22" class="edge"><title>Node17&#45;&gt;Node14</title>
<path fill="none" stroke="midnightblue" d="M725.604,-56.324C738.431,-47.979 758.054,-35.2122 773.208,-25.3524"/>
<polygon fill="midnightblue" stroke="midnightblue" points="775.493,-28.0417 781.966,-19.6545 771.675,-22.1742 775.493,-28.0417"/>
</g>
<!-- Node19 -->
<g id="node19" class="node"><title>Node19</title>
<polygon fill="none" stroke="#bfbfbf" points="1278.27,-168.5 1278.27,-187.5 1408.27,-187.5 1408.27,-168.5 1278.27,-168.5"/>
<text text-anchor="middle" x="1343.27" y="-175.5" font-family="Helvetica,sans-Serif" font-size="10.00">InfoLogger/InfoLogger.hxx</text>
</g>
<!-- Node18&#45;&gt;Node19 -->
<g id="edge29" class="edge"><title>Node18&#45;&gt;Node19</title>
<path fill="none" stroke="midnightblue" d="M1343.27,-224.083C1343.27,-217.006 1343.27,-206.861 1343.27,-197.986"/>
<polygon fill="midnightblue" stroke="midnightblue" points="1346.77,-197.751 1343.27,-187.751 1339.77,-197.751 1346.77,-197.751"/>
</g>
<!-- Node20&#45;&gt;Node5 -->
<g id="edge31" class="edge"><title>Node20&#45;&gt;Node5</title>
<path fill="none" stroke="midnightblue" d="M1037.04,-287.575C984.692,-284.357 902.958,-274.371 839.269,-244 758.204,-205.343 761.656,-160.811 686.269,-112 654.557,-91.4681 637.872,-100.678 609.269,-76 594.1,-62.9134 582.093,-43.2214 574.665,-28.9423"/>
<polygon fill="midnightblue" stroke="midnightblue" points="577.654,-27.0886 570.086,-19.6734 571.378,-30.1892 577.654,-27.0886"/>
</g>
<!-- Node20&#45;&gt;Node16 -->
<g id="edge32" class="edge"><title>Node20&#45;&gt;Node16</title>
<path fill="none" stroke="midnightblue" d="M1088.09,-280.297C1083.68,-247.633 1068.03,-131.866 1061.83,-85.9573"/>
<polygon fill="midnightblue" stroke="midnightblue" points="1065.28,-85.3249 1060.47,-75.8837 1058.34,-86.2624 1065.28,-85.3249"/>
</g>
<!-- Node20&#45;&gt;Node18 -->
<g id="edge37" class="edge"><title>Node20&#45;&gt;Node18</title>
<path fill="none" stroke="midnightblue" d="M1129.52,-280.444C1173.92,-271.004 1245.42,-255.802 1293.36,-245.611"/>
<polygon fill="midnightblue" stroke="midnightblue" points="1294.16,-249.02 1303.21,-243.516 1292.7,-242.173 1294.16,-249.02"/>
</g>
<!-- Node21 -->
<g id="node21" class="node"><title>Node21</title>
<polygon fill="none" stroke="#bfbfbf" points="1117.27,-224.5 1117.27,-243.5 1173.27,-243.5 1173.27,-224.5 1117.27,-224.5"/>
<text text-anchor="middle" x="1145.27" y="-231.5" font-family="Helvetica,sans-Serif" font-size="10.00">TClass.h</text>
</g>
<!-- Node20&#45;&gt;Node21 -->
<g id="edge33" class="edge"><title>Node20&#45;&gt;Node21</title>
<path fill="none" stroke="midnightblue" d="M1098.27,-280.324C1106.46,-272.42 1118.77,-260.548 1128.74,-250.938"/>
<polygon fill="midnightblue" stroke="midnightblue" points="1131.34,-253.295 1136.11,-243.834 1126.48,-248.256 1131.34,-253.295"/>
</g>
<!-- Node22 -->
<g id="node22" class="node"><title>Node22</title>
<polygon fill="none" stroke="#bfbfbf" points="1191.77,-224.5 1191.77,-243.5 1250.77,-243.5 1250.77,-224.5 1191.77,-224.5"/>
<text text-anchor="middle" x="1221.27" y="-231.5" font-family="Helvetica,sans-Serif" font-size="10.00">TROOT.h</text>
</g>
<!-- Node20&#45;&gt;Node22 -->
<g id="edge34" class="edge"><title>Node20&#45;&gt;Node22</title>
<path fill="none" stroke="midnightblue" d="M1110.18,-280.444C1132,-271.517 1166.42,-257.439 1191.16,-247.317"/>
<polygon fill="midnightblue" stroke="midnightblue" points="1192.52,-250.542 1200.45,-243.516 1189.87,-244.063 1192.52,-250.542"/>
</g>
<!-- Node23 -->
<g id="node23" class="node"><title>Node23</title>
<polygon fill="none" stroke="#bfbfbf" points="848.769,-224.5 848.769,-243.5 913.769,-243.5 913.769,-224.5 848.769,-224.5"/>
<text text-anchor="middle" x="881.269" y="-231.5" font-family="Helvetica,sans-Serif" font-size="10.00">TSystem.h</text>
</g>
<!-- Node20&#45;&gt;Node23 -->
<g id="edge35" class="edge"><title>Node20&#45;&gt;Node23</title>
<path fill="none" stroke="midnightblue" d="M1056.31,-280.444C1020.48,-271.142 963.105,-256.246 923.878,-246.062"/>
<polygon fill="midnightblue" stroke="midnightblue" points="924.631,-242.642 914.073,-243.516 922.872,-249.417 924.631,-242.642"/>
</g>
<!-- Node24 -->
<g id="node24" class="node"><title>Node24</title>
<polygon fill="none" stroke="#bfbfbf" points="931.769,-224.5 931.769,-243.5 1060.77,-243.5 1060.77,-224.5 931.769,-224.5"/>
<text text-anchor="middle" x="996.269" y="-231.5" font-family="Helvetica,sans-Serif" font-size="10.00">boost/filesystem/path.hpp</text>
</g>
<!-- Node20&#45;&gt;Node24 -->
<g id="edge36" class="edge"><title>Node20&#45;&gt;Node24</title>
<path fill="none" stroke="midnightblue" d="M1074.33,-280.324C1059.68,-271.822 1037.13,-258.729 1020.03,-248.797"/>
<polygon fill="midnightblue" stroke="midnightblue" points="1021.58,-245.649 1011.17,-243.655 1018.06,-251.703 1021.58,-245.649"/>
</g>
</g>
</svg>
