<?xml version="1.0" encoding="UTF-8" standalone="no"?>
<!DOCTYPE svg PUBLIC "-//W3C//DTD SVG 1.1//EN"
 "http://www.w3.org/Graphics/SVG/1.1/DTD/svg11.dtd">
<!-- Generated by graphviz version 2.38.0 (20140413.2041)
 -->
<!-- Title: Modules/Skeleton/test/testQcSkeleton.cxx Pages: 1 -->
<svg width="952pt" height="375pt"
 viewBox="0.00 0.00 952.17 375.00" xmlns="http://www.w3.org/2000/svg" xmlns:xlink="http://www.w3.org/1999/xlink">
<g id="graph0" class="graph" transform="scale(1 1) rotate(0) translate(4 371)">
<title>Modules/Skeleton/test/testQcSkeleton.cxx</title>
<!-- Node1 -->
<g id="node1" class="node"><title>Node1</title>
<polygon fill="#bfbfbf" stroke="black" points="677.668,-336.5 677.668,-366.5 791.668,-366.5 791.668,-336.5 677.668,-336.5"/>
<text text-anchor="start" x="685.668" y="-354.5" font-family="Helvetica,sans-Serif" font-size="10.00">Modules/Skeleton/test</text>
<text text-anchor="middle" x="734.668" y="-343.5" font-family="Helvetica,sans-Serif" font-size="10.00">/testQcSkeleton.cxx</text>
</g>
<!-- Node2 -->
<g id="node2" class="node"><title>Node2</title>
<g id="a_node2"><a xlink:href="SkeletonTask_8h.html" target="_top" xlink:title="Skeleton/SkeletonTask.h">
<polygon fill="none" stroke="black" points="453.668,-280.5 453.668,-299.5 579.668,-299.5 579.668,-280.5 453.668,-280.5"/>
<text text-anchor="middle" x="516.668" y="-287.5" font-family="Helvetica,sans-Serif" font-size="10.00">Skeleton/SkeletonTask.h</text>
</a>
</g>
</g>
<!-- Node1&#45;&gt;Node2 -->
<g id="edge1" class="edge"><title>Node1&#45;&gt;Node2</title>
<path fill="none" stroke="midnightblue" d="M683.281,-336.475C645.014,-326.03 593.454,-311.958 557.875,-302.247"/>
<polygon fill="midnightblue" stroke="midnightblue" points="558.403,-298.763 547.834,-299.506 556.56,-305.516 558.403,-298.763"/>
</g>
<!-- Node18 -->
<g id="node18" class="node"><title>Node18</title>
<g id="a_node18"><a xlink:href="TaskFactory_8h.html" target="_top" xlink:title="QualityControl/TaskFactory.h">
<polygon fill="none" stroke="black" points="662.168,-280.5 662.168,-299.5 807.168,-299.5 807.168,-280.5 662.168,-280.5"/>
<text text-anchor="middle" x="734.668" y="-287.5" font-family="Helvetica,sans-Serif" font-size="10.00">QualityControl/TaskFactory.h</text>
</a>
</g>
</g>
<!-- Node1&#45;&gt;Node18 -->
<g id="edge26" class="edge"><title>Node1&#45;&gt;Node18</title>
<path fill="none" stroke="midnightblue" d="M734.668,-336.399C734.668,-328.466 734.668,-318.458 734.668,-309.858"/>
<polygon fill="midnightblue" stroke="midnightblue" points="738.168,-309.658 734.668,-299.658 731.168,-309.658 738.168,-309.658"/>
</g>
<!-- Node19 -->
<g id="node19" class="node"><title>Node19</title>
<polygon fill="none" stroke="#bfbfbf" points="825.168,-280.5 825.168,-299.5 944.168,-299.5 944.168,-280.5 825.168,-280.5"/>
<text text-anchor="middle" x="884.668" y="-287.5" font-family="Helvetica,sans-Serif" font-size="10.00">boost/test/unit_test.hpp</text>
</g>
<!-- Node1&#45;&gt;Node19 -->
<g id="edge30" class="edge"><title>Node1&#45;&gt;Node19</title>
<path fill="none" stroke="midnightblue" d="M770.216,-336.399C795.495,-326.372 829.135,-313.028 853.395,-303.405"/>
<polygon fill="midnightblue" stroke="midnightblue" points="854.837,-306.598 862.841,-299.658 852.255,-300.092 854.837,-306.598"/>
</g>
<!-- Node3 -->
<g id="node3" class="node"><title>Node3</title>
<g id="a_node3"><a xlink:href="TaskInterface_8h.html" target="_top" xlink:title="QualityControl/TaskInterface.h">
<polygon fill="none" stroke="black" points="313.668,-224.5 313.668,-243.5 463.668,-243.5 463.668,-224.5 313.668,-224.5"/>
<text text-anchor="middle" x="388.668" y="-231.5" font-family="Helvetica,sans-Serif" font-size="10.00">QualityControl/TaskInterface.h</text>
</a>
</g>
</g>
<!-- Node2&#45;&gt;Node3 -->
<g id="edge2" class="edge"><title>Node2&#45;&gt;Node3</title>
<path fill="none" stroke="midnightblue" d="M496.386,-280.444C475.32,-271.557 442.151,-257.563 418.182,-247.451"/>
<polygon fill="midnightblue" stroke="midnightblue" points="419.429,-244.179 408.855,-243.516 416.708,-250.628 419.429,-244.179"/>
</g>
<!-- Node4 -->
<g id="node4" class="node"><title>Node4</title>
<polygon fill="none" stroke="#bfbfbf" points="30.1678,-56.5 30.1678,-75.5 65.1678,-75.5 65.1678,-56.5 30.1678,-56.5"/>
<text text-anchor="middle" x="47.6678" y="-63.5" font-family="Helvetica,sans-Serif" font-size="10.00">map</text>
</g>
<!-- Node3&#45;&gt;Node4 -->
<g id="edge3" class="edge"><title>Node3&#45;&gt;Node4</title>
<path fill="none" stroke="midnightblue" d="M313.415,-232.508C229.349,-230.288 100.578,-221.342 66.6678,-188 39.337,-161.127 41.0741,-112.11 44.4951,-85.4545"/>
<polygon fill="midnightblue" stroke="midnightblue" points="47.9616,-85.9384 45.9845,-75.5296 41.0391,-84.8995 47.9616,-85.9384"/>
</g>
<!-- Node5 -->
<g id="node5" class="node"><title>Node5</title>
<polygon fill="none" stroke="#bfbfbf" points="548.668,-112.5 548.668,-131.5 600.668,-131.5 600.668,-112.5 548.668,-112.5"/>
<text text-anchor="middle" x="574.668" y="-119.5" font-family="Helvetica,sans-Serif" font-size="10.00">memory</text>
</g>
<!-- Node3&#45;&gt;Node5 -->
<g id="edge4" class="edge"><title>Node3&#45;&gt;Node5</title>
<path fill="none" stroke="midnightblue" d="M350.563,-224.453C312.124,-214.114 261.525,-194.714 284.668,-168 321.42,-125.577 479.468,-142.168 534.668,-132 535.928,-131.768 537.208,-131.524 538.5,-131.271"/>
<polygon fill="midnightblue" stroke="midnightblue" points="539.398,-134.659 548.478,-129.201 537.976,-127.805 539.398,-134.659"/>
</g>
<!-- Node6 -->
<g id="node6" class="node"><title>Node6</title>
<polygon fill="none" stroke="#bfbfbf" points="462.168,-0.5 462.168,-19.5 503.168,-19.5 503.168,-0.5 462.168,-0.5"/>
<text text-anchor="middle" x="482.668" y="-7.5" font-family="Helvetica,sans-Serif" font-size="10.00">string</text>
</g>
<!-- Node3&#45;&gt;Node6 -->
<g id="edge5" class="edge"><title>Node3&#45;&gt;Node6</title>
<path fill="none" stroke="midnightblue" d="M313.551,-232.531C225.757,-230.399 87.6174,-221.601 49.6678,-188 4.69668,-148.182 -19.6939,-100.484 20.6678,-56 49.636,-24.0731 352.955,-14.0793 451.752,-11.6587"/>
<polygon fill="midnightblue" stroke="midnightblue" points="452.06,-15.1525 461.975,-11.4176 451.895,-8.15441 452.06,-15.1525"/>
</g>
<!-- Node7 -->
<g id="node7" class="node"><title>Node7</title>
<polygon fill="none" stroke="#bfbfbf" points="746.168,-56.5 746.168,-75.5 829.168,-75.5 829.168,-56.5 746.168,-56.5"/>
<text text-anchor="middle" x="787.668" y="-63.5" font-family="Helvetica,sans-Serif" font-size="10.00">unordered_map</text>
</g>
<!-- Node3&#45;&gt;Node7 -->
<g id="edge6" class="edge"><title>Node3&#45;&gt;Node7</title>
<path fill="none" stroke="midnightblue" d="M463.682,-231.564C555.106,-228.47 702.945,-218.718 747.668,-188 780.848,-165.21 787.07,-113.7 787.893,-85.8019"/>
<polygon fill="midnightblue" stroke="midnightblue" points="791.393,-85.7827 787.982,-75.7521 784.393,-85.7207 791.393,-85.7827"/>
</g>
<!-- Node8 -->
<g id="node8" class="node"><title>Node8</title>
<polygon fill="none" stroke="#bfbfbf" points="294.168,-168.5 294.168,-187.5 419.168,-187.5 419.168,-168.5 294.168,-168.5"/>
<text text-anchor="middle" x="356.668" y="-175.5" font-family="Helvetica,sans-Serif" font-size="10.00">Framework/InitContext.h</text>
</g>
<!-- Node3&#45;&gt;Node8 -->
<g id="edge7" class="edge"><title>Node3&#45;&gt;Node8</title>
<path fill="none" stroke="midnightblue" d="M383.384,-224.083C378.957,-216.613 372.504,-205.724 367.05,-196.52"/>
<polygon fill="midnightblue" stroke="midnightblue" points="369.963,-194.57 361.854,-187.751 363.941,-198.138 369.963,-194.57"/>
</g>
<!-- Node9 -->
<g id="node9" class="node"><title>Node9</title>
<polygon fill="none" stroke="#bfbfbf" points="437.668,-168.5 437.668,-187.5 597.668,-187.5 597.668,-168.5 437.668,-168.5"/>
<text text-anchor="middle" x="517.668" y="-175.5" font-family="Helvetica,sans-Serif" font-size="10.00">Framework/ProcessingContext.h</text>
</g>
<!-- Node3&#45;&gt;Node9 -->
<g id="edge8" class="edge"><title>Node3&#45;&gt;Node9</title>
<path fill="none" stroke="midnightblue" d="M409.108,-224.444C430.338,-215.557 463.767,-201.563 487.923,-191.451"/>
<polygon fill="midnightblue" stroke="midnightblue" points="489.45,-194.606 497.323,-187.516 486.747,-188.149 489.45,-194.606"/>
</g>
<!-- Node10 -->
<g id="node10" class="node"><title>Node10</title>
<g id="a_node10"><a xlink:href="Activity_8h.html" target="_top" xlink:title="QualityControl/Activity.h">
<polygon fill="none" stroke="black" points="616.168,-168.5 616.168,-187.5 739.168,-187.5 739.168,-168.5 616.168,-168.5"/>
<text text-anchor="middle" x="677.668" y="-175.5" font-family="Helvetica,sans-Serif" font-size="10.00">QualityControl/Activity.h</text>
</a>
</g>
</g>
<!-- Node3&#45;&gt;Node10 -->
<g id="edge9" class="edge"><title>Node3&#45;&gt;Node10</title>
<path fill="none" stroke="midnightblue" d="M434.461,-224.444C485.404,-214.925 567.702,-199.547 622.242,-189.356"/>
<polygon fill="midnightblue" stroke="midnightblue" points="622.902,-192.794 632.089,-187.516 621.616,-185.913 622.902,-192.794"/>
</g>
<!-- Node11 -->
<g id="node11" class="node"><title>Node11</title>
<g id="a_node11"><a xlink:href="ObjectsManager_8h.html" target="_top" xlink:title="QualityControl/ObjectsManager.h">
<polygon fill="none" stroke="black" points="76.1678,-168.5 76.1678,-187.5 237.168,-187.5 237.168,-168.5 76.1678,-168.5"/>
<text text-anchor="middle" x="156.668" y="-175.5" font-family="Helvetica,sans-Serif" font-size="10.00">QualityControl/ObjectsManager.h</text>
</a>
</g>
</g>
<!-- Node3&#45;&gt;Node11 -->
<g id="edge10" class="edge"><title>Node3&#45;&gt;Node11</title>
<path fill="none" stroke="midnightblue" d="M351.907,-224.444C311.605,-215.063 246.858,-199.993 203.083,-189.804"/>
<polygon fill="midnightblue" stroke="midnightblue" points="203.79,-186.375 193.257,-187.516 202.203,-193.192 203.79,-186.375"/>
</g>
<!-- Node11&#45;&gt;Node5 -->
<g id="edge25" class="edge"><title>Node11&#45;&gt;Node5</title>
<path fill="none" stroke="midnightblue" d="M236.414,-168.482C329.904,-158.324 479.139,-141.526 534.668,-132 535.931,-131.783 537.214,-131.553 538.508,-131.311"/>
<polygon fill="midnightblue" stroke="midnightblue" points="539.385,-134.704 548.495,-129.294 538,-127.843 539.385,-134.704"/>
</g>
<!-- Node11&#45;&gt;Node6 -->
<g id="edge24" class="edge"><title>Node11&#45;&gt;Node6</title>
<path fill="none" stroke="midnightblue" d="M210.578,-168.465C295.037,-153.841 452.189,-121.144 483.668,-76 492.938,-62.7051 491.493,-43.8714 488.437,-29.897"/>
<polygon fill="midnightblue" stroke="midnightblue" points="491.744,-28.7106 485.815,-19.9302 484.975,-30.4916 491.744,-28.7106"/>
</g>
<!-- Node12 -->
<g id="node12" class="node"><title>Node12</title>
<g id="a_node12"><a xlink:href="MonitorObject_8h.html" target="_top" xlink:title="QualityControl/MonitorObject.h">
<polygon fill="none" stroke="black" points="172.168,-112.5 172.168,-131.5 323.168,-131.5 323.168,-112.5 172.168,-112.5"/>
<text text-anchor="middle" x="247.668" y="-119.5" font-family="Helvetica,sans-Serif" font-size="10.00">QualityControl/MonitorObject.h</text>
</a>
</g>
</g>
<!-- Node11&#45;&gt;Node12 -->
<g id="edge11" class="edge"><title>Node11&#45;&gt;Node12</title>
<path fill="none" stroke="midnightblue" d="M171.288,-168.324C185.617,-159.822 207.68,-146.729 224.416,-136.797"/>
<polygon fill="midnightblue" stroke="midnightblue" points="226.27,-139.768 233.083,-131.655 222.697,-133.748 226.27,-139.768"/>
</g>
<!-- Node16 -->
<g id="node16" class="node"><title>Node16</title>
<g id="a_node16"><a xlink:href="Quality_8h.html" target="_top" xlink:title="QualityControl/Quality.h">
<polygon fill="none" stroke="black" points="83.1678,-56.5 83.1678,-75.5 204.168,-75.5 204.168,-56.5 83.1678,-56.5"/>
<text text-anchor="middle" x="143.668" y="-63.5" font-family="Helvetica,sans-Serif" font-size="10.00">QualityControl/Quality.h</text>
</a>
</g>
</g>
<!-- Node11&#45;&gt;Node16 -->
<g id="edge20" class="edge"><title>Node11&#45;&gt;Node16</title>
<path fill="none" stroke="midnightblue" d="M155.648,-168.368C153.55,-150.617 148.71,-109.666 145.866,-85.5974"/>
<polygon fill="midnightblue" stroke="midnightblue" points="149.333,-85.1115 144.683,-75.5914 142.381,-85.9331 149.333,-85.1115"/>
</g>
<!-- Node17 -->
<g id="node17" class="node"><title>Node17</title>
<g id="a_node17"><a xlink:href="TaskConfig_8h.html" target="_top" xlink:title="QualityControl/TaskConfig.h">
<polygon fill="none" stroke="black" points="628.668,-112.5 628.668,-131.5 768.668,-131.5 768.668,-112.5 628.668,-112.5"/>
<text text-anchor="middle" x="698.668" y="-119.5" font-family="Helvetica,sans-Serif" font-size="10.00">QualityControl/TaskConfig.h</text>
</a>
</g>
</g>
<!-- Node11&#45;&gt;Node17 -->
<g id="edge21" class="edge"><title>Node11&#45;&gt;Node17</title>
<path fill="none" stroke="midnightblue" d="M237.274,-169.036C327.865,-160.076 479.324,-145.064 609.668,-132 612.493,-131.717 615.368,-131.428 618.272,-131.136"/>
<polygon fill="midnightblue" stroke="midnightblue" points="618.626,-134.619 628.226,-130.135 617.926,-127.654 618.626,-134.619"/>
</g>
<!-- Node12&#45;&gt;Node4 -->
<g id="edge13" class="edge"><title>Node12&#45;&gt;Node4</title>
<path fill="none" stroke="midnightblue" d="M211.107,-112.448C177.806,-104.459 127.095,-91.7958 74.9725,-76.2316"/>
<polygon fill="midnightblue" stroke="midnightblue" points="75.8123,-72.8292 65.2276,-73.2921 73.7908,-79.531 75.8123,-72.8292"/>
</g>
<!-- Node12&#45;&gt;Node6 -->
<g id="edge12" class="edge"><title>Node12&#45;&gt;Node6</title>
<path fill="none" stroke="midnightblue" d="M323.188,-113.356C376.66,-106.467 442.343,-94.5323 462.668,-76 475.599,-64.2089 480.261,-44.2823 481.894,-29.5933"/>
<polygon fill="midnightblue" stroke="midnightblue" points="485.386,-29.8358 482.639,-19.603 478.405,-29.3149 485.386,-29.8358"/>
</g>
<!-- Node13 -->
<g id="node13" class="node"><title>Node13</title>
<polygon fill="none" stroke="#bfbfbf" points="159.668,-0.5 159.668,-19.5 215.668,-19.5 215.668,-0.5 159.668,-0.5"/>
<text text-anchor="middle" x="187.668" y="-7.5" font-family="Helvetica,sans-Serif" font-size="10.00">Rtypes.h</text>
</g>
<!-- Node12&#45;&gt;Node13 -->
<g id="edge14" class="edge"><title>Node12&#45;&gt;Node13</title>
<path fill="none" stroke="midnightblue" d="M242.949,-112.149C236.26,-99.6216 223.616,-76.0152 212.668,-56 207.674,-46.8703 202.051,-36.7362 197.404,-28.4002"/>
<polygon fill="midnightblue" stroke="midnightblue" points="200.426,-26.6323 192.494,-19.6082 194.314,-30.0455 200.426,-26.6323"/>
</g>
<!-- Node14 -->
<g id="node14" class="node"><title>Node14</title>
<polygon fill="none" stroke="#bfbfbf" points="395.168,-56.5 395.168,-75.5 454.168,-75.5 454.168,-56.5 395.168,-56.5"/>
<text text-anchor="middle" x="424.668" y="-63.5" font-family="Helvetica,sans-Serif" font-size="10.00">TObject.h</text>
</g>
<!-- Node12&#45;&gt;Node14 -->
<g id="edge15" class="edge"><title>Node12&#45;&gt;Node14</title>
<path fill="none" stroke="midnightblue" d="M275.714,-112.444C305.75,-103.28 353.581,-88.6876 386.91,-78.5192"/>
<polygon fill="midnightblue" stroke="midnightblue" points="388.209,-81.7822 396.753,-75.5164 386.167,-75.0869 388.209,-81.7822"/>
</g>
<!-- Node15 -->
<g id="node15" class="node"><title>Node15</title>
<polygon fill="none" stroke="#bfbfbf" points="260.668,-56.5 260.668,-75.5 376.668,-75.5 376.668,-56.5 260.668,-56.5"/>
<text text-anchor="middle" x="318.668" y="-63.5" font-family="Helvetica,sans-Serif" font-size="10.00">Common/Exceptions.h</text>
</g>
<!-- Node12&#45;&gt;Node15 -->
<g id="edge16" class="edge"><title>Node12&#45;&gt;Node15</title>
<path fill="none" stroke="midnightblue" d="M259.075,-112.324C269.777,-104.185 286.008,-91.8395 298.831,-82.0874"/>
<polygon fill="midnightblue" stroke="midnightblue" points="301.212,-84.6734 307.053,-75.8339 296.975,-79.1018 301.212,-84.6734"/>
</g>
<!-- Node12&#45;&gt;Node16 -->
<g id="edge17" class="edge"><title>Node12&#45;&gt;Node16</title>
<path fill="none" stroke="midnightblue" d="M230.958,-112.324C214.356,-103.703 188.666,-90.3643 169.447,-80.3855"/>
<polygon fill="midnightblue" stroke="midnightblue" points="170.824,-77.1565 160.336,-75.6545 167.598,-83.3689 170.824,-77.1565"/>
</g>
<!-- Node16&#45;&gt;Node6 -->
<g id="edge19" class="edge"><title>Node16&#45;&gt;Node6</title>
<path fill="none" stroke="midnightblue" d="M197.383,-56.4435C269.268,-44.9929 394.374,-25.0645 452.001,-15.8851"/>
<polygon fill="midnightblue" stroke="midnightblue" points="452.622,-19.3302 461.947,-14.3006 451.521,-12.4174 452.622,-19.3302"/>
</g>
<!-- Node16&#45;&gt;Node13 -->
<g id="edge18" class="edge"><title>Node16&#45;&gt;Node13</title>
<path fill="none" stroke="midnightblue" d="M150.933,-56.083C157.213,-48.3768 166.455,-37.0333 174.099,-27.6531"/>
<polygon fill="midnightblue" stroke="midnightblue" points="176.934,-29.7143 180.537,-19.7511 171.507,-25.2926 176.934,-29.7143"/>
</g>
<!-- Node17&#45;&gt;Node6 -->
<g id="edge22" class="edge"><title>Node17&#45;&gt;Node6</title>
<path fill="none" stroke="midnightblue" d="M681.719,-112.368C644.101,-93.2113 553.428,-47.0355 508.621,-24.2172"/>
<polygon fill="midnightblue" stroke="midnightblue" points="510.038,-21.0106 499.538,-19.5914 506.861,-27.2484 510.038,-21.0106"/>
</g>
<!-- Node17&#45;&gt;Node7 -->
<g id="edge23" class="edge"><title>Node17&#45;&gt;Node7</title>
<path fill="none" stroke="midnightblue" d="M712.967,-112.324C726.851,-103.9 748.16,-90.9709 764.471,-81.0741"/>
<polygon fill="midnightblue" stroke="midnightblue" points="766.67,-83.8341 773.404,-75.6545 763.039,-77.8495 766.67,-83.8341"/>
</g>
<!-- Node18&#45;&gt;Node3 -->
<g id="edge29" class="edge"><title>Node18&#45;&gt;Node3</title>
<path fill="none" stroke="midnightblue" d="M679.843,-280.444C618.345,-270.846 518.684,-255.292 453.406,-245.104"/>
<polygon fill="midnightblue" stroke="midnightblue" points="453.656,-241.6 443.236,-243.516 452.577,-248.517 453.656,-241.6"/>
</g>
<!-- Node18&#45;&gt;Node5 -->
<g id="edge27" class="edge"><title>Node18&#45;&gt;Node5</title>
<path fill="none" stroke="midnightblue" d="M739.322,-280.271C750.123,-258.688 774.031,-202.098 747.668,-168 743.415,-162.499 660.3,-142.639 610.846,-131.226"/>
<polygon fill="midnightblue" stroke="midnightblue" points="611.375,-127.756 600.845,-128.926 609.806,-134.578 611.375,-127.756"/>
</g>
<!-- Node18&#45;&gt;Node17 -->
<g id="edge28" class="edge"><title>Node18&#45;&gt;Node17</title>
<path fill="none" stroke="midnightblue" d="M748.746,-280.259C760.021,-272.355 775.013,-259.584 781.668,-244 794.932,-212.936 798.947,-197.024 781.668,-168 772.571,-152.721 756.279,-142.31 740.524,-135.386"/>
<polygon fill="midnightblue" stroke="midnightblue" points="741.437,-131.981 730.852,-131.512 738.834,-138.479 741.437,-131.981"/>
</g>
</g>
</svg>
