<?xml version="1.0" encoding="UTF-8" standalone="no"?>
<!DOCTYPE svg PUBLIC "-//W3C//DTD SVG 1.1//EN"
 "http://www.w3.org/Graphics/SVG/1.1/DTD/svg11.dtd">
<!-- Generated by graphviz version 2.38.0 (20140413.2041)
 -->
<!-- Title: Framework/test/testPostProcessingRunner.cxx Pages: 1 -->
<svg width="1018pt" height="341pt"
 viewBox="0.00 0.00 1018.00 341.00" xmlns="http://www.w3.org/2000/svg" xmlns:xlink="http://www.w3.org/1999/xlink">
<g id="graph0" class="graph" transform="scale(1 1) rotate(0) translate(4 337)">
<title>Framework/test/testPostProcessingRunner.cxx</title>
<!-- Node1 -->
<g id="node1" class="node"><title>Node1</title>
<polygon fill="#bfbfbf" stroke="black" points="245.5,-302.5 245.5,-332.5 418.5,-332.5 418.5,-302.5 245.5,-302.5"/>
<text text-anchor="start" x="253.5" y="-320.5" font-family="Helvetica,sans-Serif" font-size="10.00">Framework/test/testPostProcessing</text>
<text text-anchor="middle" x="332" y="-309.5" font-family="Helvetica,sans-Serif" font-size="10.00">Runner.cxx</text>
</g>
<!-- Node2 -->
<g id="node2" class="node"><title>Node2</title>
<polygon fill="none" stroke="#bfbfbf" points="119.5,-241 119.5,-260 238.5,-260 238.5,-241 119.5,-241"/>
<text text-anchor="middle" x="179" y="-248" font-family="Helvetica,sans-Serif" font-size="10.00">getTestDataDirectory.h</text>
</g>
<!-- Node1&#45;&gt;Node2 -->
<g id="edge1" class="edge"><title>Node1&#45;&gt;Node2</title>
<path fill="none" stroke="midnightblue" d="M298.801,-302.396C271.837,-290.941 234.171,-274.938 208.31,-263.952"/>
<polygon fill="midnightblue" stroke="midnightblue" points="209.597,-260.696 199.024,-260.007 206.859,-267.139 209.597,-260.696"/>
</g>
<!-- Node3 -->
<g id="node3" class="node"><title>Node3</title>
<g id="a_node3"><a xlink:href="PostProcessingRunner_8h.html" target="_top" xlink:title="QualityControl/PostProcessing\lRunner.h">
<polygon fill="none" stroke="black" points="256.5,-235.5 256.5,-265.5 407.5,-265.5 407.5,-235.5 256.5,-235.5"/>
<text text-anchor="start" x="264.5" y="-253.5" font-family="Helvetica,sans-Serif" font-size="10.00">QualityControl/PostProcessing</text>
<text text-anchor="middle" x="332" y="-242.5" font-family="Helvetica,sans-Serif" font-size="10.00">Runner.h</text>
</a>
</g>
</g>
<!-- Node1&#45;&gt;Node3 -->
<g id="edge2" class="edge"><title>Node1&#45;&gt;Node3</title>
<path fill="none" stroke="midnightblue" d="M332,-302.396C332,-294.645 332,-284.812 332,-275.86"/>
<polygon fill="midnightblue" stroke="midnightblue" points="335.5,-275.576 332,-265.577 328.5,-275.577 335.5,-275.576"/>
</g>
<!-- Node22 -->
<g id="node22" class="node"><title>Node22</title>
<polygon fill="none" stroke="#bfbfbf" points="425.5,-241 425.5,-260 544.5,-260 544.5,-241 425.5,-241"/>
<text text-anchor="middle" x="485" y="-248" font-family="Helvetica,sans-Serif" font-size="10.00">boost/test/unit_test.hpp</text>
</g>
<!-- Node1&#45;&gt;Node22 -->
<g id="edge35" class="edge"><title>Node1&#45;&gt;Node22</title>
<path fill="none" stroke="midnightblue" d="M365.199,-302.396C392.163,-290.941 429.829,-274.938 455.69,-263.952"/>
<polygon fill="midnightblue" stroke="midnightblue" points="457.141,-267.139 464.976,-260.007 454.403,-260.696 457.141,-267.139"/>
</g>
<!-- Node4 -->
<g id="node4" class="node"><title>Node4</title>
<polygon fill="none" stroke="#bfbfbf" points="459,-112.5 459,-131.5 511,-131.5 511,-112.5 459,-112.5"/>
<text text-anchor="middle" x="485" y="-119.5" font-family="Helvetica,sans-Serif" font-size="10.00">memory</text>
</g>
<!-- Node3&#45;&gt;Node4 -->
<g id="edge3" class="edge"><title>Node3&#45;&gt;Node4</title>
<path fill="none" stroke="midnightblue" d="M407.752,-235.853C429.959,-228.382 452.431,-216.836 468,-199 481.726,-183.276 485.08,-158.879 485.579,-141.987"/>
<polygon fill="midnightblue" stroke="midnightblue" points="489.079,-141.685 485.561,-131.691 482.079,-141.697 489.079,-141.685"/>
</g>
<!-- Node5 -->
<g id="node5" class="node"><title>Node5</title>
<polygon fill="none" stroke="#bfbfbf" points="0,-112.5 0,-131.5 146,-131.5 146,-112.5 0,-112.5"/>
<text text-anchor="middle" x="73" y="-119.5" font-family="Helvetica,sans-Serif" font-size="10.00">Framework/ServiceRegistry.h</text>
</g>
<!-- Node3&#45;&gt;Node5 -->
<g id="edge4" class="edge"><title>Node3&#45;&gt;Node5</title>
<path fill="none" stroke="midnightblue" d="M256.394,-235.676C188.005,-222.861 97.0663,-204.911 91,-199 75.7835,-184.174 72.4505,-159.028 72.1546,-141.748"/>
<polygon fill="midnightblue" stroke="midnightblue" points="75.6546,-141.766 72.3044,-131.715 68.6554,-141.662 75.6546,-141.766"/>
</g>
<!-- Node6 -->
<g id="node6" class="node"><title>Node6</title>
<g id="a_node6"><a xlink:href="PostProcessingInterface_8h.html" target="_top" xlink:title="QualityControl/PostProcessing\lInterface.h">
<polygon fill="none" stroke="black" points="100.5,-168.5 100.5,-198.5 251.5,-198.5 251.5,-168.5 100.5,-168.5"/>
<text text-anchor="start" x="108.5" y="-186.5" font-family="Helvetica,sans-Serif" font-size="10.00">QualityControl/PostProcessing</text>
<text text-anchor="middle" x="176" y="-175.5" font-family="Helvetica,sans-Serif" font-size="10.00">Interface.h</text>
</a>
</g>
</g>
<!-- Node3&#45;&gt;Node6 -->
<g id="edge5" class="edge"><title>Node3&#45;&gt;Node6</title>
<path fill="none" stroke="midnightblue" d="M298.15,-235.396C274.948,-225.728 243.974,-212.823 219.023,-202.426"/>
<polygon fill="midnightblue" stroke="midnightblue" points="220.361,-199.192 209.784,-198.577 217.668,-205.653 220.361,-199.192"/>
</g>
<!-- Node8 -->
<g id="node8" class="node"><title>Node8</title>
<g id="a_node8"><a xlink:href="Triggers_8h.html" target="_top" xlink:title="QualityControl/Triggers.h">
<polygon fill="none" stroke="black" points="213.5,-112.5 213.5,-131.5 338.5,-131.5 338.5,-112.5 213.5,-112.5"/>
<text text-anchor="middle" x="276" y="-119.5" font-family="Helvetica,sans-Serif" font-size="10.00">QualityControl/Triggers.h</text>
</a>
</g>
</g>
<!-- Node3&#45;&gt;Node8 -->
<g id="edge14" class="edge"><title>Node3&#45;&gt;Node8</title>
<path fill="none" stroke="midnightblue" d="M321.013,-235.124C313.957,-225.355 305.02,-211.909 299,-199 290.28,-180.3 283.895,-157.488 280.094,-141.764"/>
<polygon fill="midnightblue" stroke="midnightblue" points="283.439,-140.689 277.788,-131.727 276.617,-142.257 283.439,-140.689"/>
</g>
<!-- Node10 -->
<g id="node10" class="node"><title>Node10</title>
<g id="a_node10"><a xlink:href="PostProcessingConfig_8h.html" target="_top" xlink:title="QualityControl/PostProcessing\lConfig.h">
<polygon fill="none" stroke="black" points="308.5,-168.5 308.5,-198.5 459.5,-198.5 459.5,-168.5 308.5,-168.5"/>
<text text-anchor="start" x="316.5" y="-186.5" font-family="Helvetica,sans-Serif" font-size="10.00">QualityControl/PostProcessing</text>
<text text-anchor="middle" x="384" y="-175.5" font-family="Helvetica,sans-Serif" font-size="10.00">Config.h</text>
</a>
</g>
</g>
<!-- Node3&#45;&gt;Node10 -->
<g id="edge11" class="edge"><title>Node3&#45;&gt;Node10</title>
<path fill="none" stroke="midnightblue" d="M343.283,-235.396C350.029,-226.963 358.746,-216.067 366.383,-206.522"/>
<polygon fill="midnightblue" stroke="midnightblue" points="369.225,-208.572 372.739,-198.577 363.759,-204.199 369.225,-208.572"/>
</g>
<!-- Node12 -->
<g id="node12" class="node"><title>Node12</title>
<g id="a_node12"><a xlink:href="DatabaseInterface_8h.html" target="_top" xlink:title="QualityControl/DatabaseInterface.h">
<polygon fill="none" stroke="black" points="516,-174 516,-193 686,-193 686,-174 516,-174"/>
<text text-anchor="middle" x="601" y="-181" font-family="Helvetica,sans-Serif" font-size="10.00">QualityControl/DatabaseInterface.h</text>
</a>
</g>
</g>
<!-- Node3&#45;&gt;Node12 -->
<g id="edge15" class="edge"><title>Node3&#45;&gt;Node12</title>
<path fill="none" stroke="midnightblue" d="M390.038,-235.476C439.72,-223.471 510.246,-206.43 555.814,-195.419"/>
<polygon fill="midnightblue" stroke="midnightblue" points="556.806,-198.78 565.704,-193.029 555.162,-191.975 556.806,-198.78"/>
</g>
<!-- Node6&#45;&gt;Node5 -->
<g id="edge7" class="edge"><title>Node6&#45;&gt;Node5</title>
<path fill="none" stroke="midnightblue" d="M151.59,-168.399C135.08,-158.862 113.377,-146.325 96.9622,-136.842"/>
<polygon fill="midnightblue" stroke="midnightblue" points="98.3972,-133.629 87.9874,-131.658 94.8957,-139.691 98.3972,-133.629"/>
</g>
<!-- Node7 -->
<g id="node7" class="node"><title>Node7</title>
<polygon fill="none" stroke="#bfbfbf" points="387.5,-0.5 387.5,-19.5 428.5,-19.5 428.5,-0.5 387.5,-0.5"/>
<text text-anchor="middle" x="408" y="-7.5" font-family="Helvetica,sans-Serif" font-size="10.00">string</text>
</g>
<!-- Node6&#45;&gt;Node7 -->
<g id="edge6" class="edge"><title>Node6&#45;&gt;Node7</title>
<path fill="none" stroke="midnightblue" d="M178.224,-168.108C183.138,-141.487 197.526,-84.6615 234,-56 275.979,-23.0119 339.576,-14.0182 377.138,-11.6808"/>
<polygon fill="midnightblue" stroke="midnightblue" points="377.641,-15.1602 387.454,-11.1666 377.293,-8.16886 377.641,-15.1602"/>
</g>
<!-- Node6&#45;&gt;Node8 -->
<g id="edge8" class="edge"><title>Node6&#45;&gt;Node8</title>
<path fill="none" stroke="midnightblue" d="M199.699,-168.399C215.728,-158.862 236.799,-146.325 252.736,-136.842"/>
<polygon fill="midnightblue" stroke="midnightblue" points="254.645,-139.779 261.449,-131.658 251.066,-133.763 254.645,-139.779"/>
</g>
<!-- Node8&#45;&gt;Node7 -->
<g id="edge9" class="edge"><title>Node8&#45;&gt;Node7</title>
<path fill="none" stroke="midnightblue" d="M286.358,-112.368C308.72,-93.7334 361.761,-49.5324 389.839,-26.1338"/>
<polygon fill="midnightblue" stroke="midnightblue" points="392.249,-28.6821 397.69,-19.5914 387.767,-23.3045 392.249,-28.6821"/>
</g>
<!-- Node9 -->
<g id="node9" class="node"><title>Node9</title>
<polygon fill="none" stroke="#bfbfbf" points="243.5,-56.5 243.5,-75.5 302.5,-75.5 302.5,-56.5 243.5,-56.5"/>
<text text-anchor="middle" x="273" y="-63.5" font-family="Helvetica,sans-Serif" font-size="10.00">functional</text>
</g>
<!-- Node8&#45;&gt;Node9 -->
<g id="edge10" class="edge"><title>Node8&#45;&gt;Node9</title>
<path fill="none" stroke="midnightblue" d="M275.505,-112.083C275.111,-105.006 274.548,-94.8611 274.055,-85.9865"/>
<polygon fill="midnightblue" stroke="midnightblue" points="277.536,-85.5415 273.486,-75.7511 270.546,-85.9299 277.536,-85.5415"/>
</g>
<!-- Node10&#45;&gt;Node7 -->
<g id="edge13" class="edge"><title>Node10&#45;&gt;Node7</title>
<path fill="none" stroke="midnightblue" d="M384.225,-168.403C384.588,-154.133 385.533,-131.459 388,-112 391.681,-82.9582 398.837,-49.7399 403.516,-29.574"/>
<polygon fill="midnightblue" stroke="midnightblue" points="406.984,-30.118 405.881,-19.5807 400.172,-28.5058 406.984,-30.118"/>
</g>
<!-- Node11 -->
<g id="node11" class="node"><title>Node11</title>
<polygon fill="none" stroke="#bfbfbf" points="397,-112.5 397,-131.5 441,-131.5 441,-112.5 397,-112.5"/>
<text text-anchor="middle" x="419" y="-119.5" font-family="Helvetica,sans-Serif" font-size="10.00">vector</text>
</g>
<!-- Node10&#45;&gt;Node11 -->
<g id="edge12" class="edge"><title>Node10&#45;&gt;Node11</title>
<path fill="none" stroke="midnightblue" d="M392.295,-168.399C397.223,-160.021 403.514,-149.327 408.751,-140.423"/>
<polygon fill="midnightblue" stroke="midnightblue" points="411.854,-142.052 413.907,-131.658 405.82,-138.503 411.854,-142.052"/>
</g>
<!-- Node12&#45;&gt;Node4 -->
<g id="edge17" class="edge"><title>Node12&#45;&gt;Node4</title>
<path fill="none" stroke="midnightblue" d="M584.38,-173.975C565.085,-164.078 533.041,-147.642 510.569,-136.115"/>
<polygon fill="midnightblue" stroke="midnightblue" points="512.084,-132.959 501.589,-131.509 508.89,-139.187 512.084,-132.959"/>
</g>
<!-- Node12&#45;&gt;Node7 -->
<g id="edge16" class="edge"><title>Node12&#45;&gt;Node7</title>
<path fill="none" stroke="midnightblue" d="M591.429,-173.995C560.753,-146.736 464.587,-61.2832 425.141,-26.2316"/>
<polygon fill="midnightblue" stroke="midnightblue" points="427.429,-23.5822 417.629,-19.556 422.779,-28.8148 427.429,-23.5822"/>
</g>
<!-- Node12&#45;&gt;Node11 -->
<g id="edge18" class="edge"><title>Node12&#45;&gt;Node11</title>
<path fill="none" stroke="midnightblue" d="M574.924,-173.975C542.182,-163.271 486.041,-144.917 450.81,-133.399"/>
<polygon fill="midnightblue" stroke="midnightblue" points="451.622,-129.983 441.03,-130.202 449.447,-136.636 451.622,-129.983"/>
</g>
<!-- Node13 -->
<g id="node13" class="node"><title>Node13</title>
<polygon fill="none" stroke="#bfbfbf" points="903.5,-112.5 903.5,-131.5 986.5,-131.5 986.5,-112.5 903.5,-112.5"/>
<text text-anchor="middle" x="945" y="-119.5" font-family="Helvetica,sans-Serif" font-size="10.00">unordered_map</text>
</g>
<!-- Node12&#45;&gt;Node13 -->
<g id="edge19" class="edge"><title>Node12&#45;&gt;Node13</title>
<path fill="none" stroke="midnightblue" d="M651.222,-173.999C707.711,-164.409 802.48,-148.236 893.347,-132.281"/>
<polygon fill="midnightblue" stroke="midnightblue" points="894.02,-135.717 903.263,-130.538 892.808,-128.823 894.02,-135.717"/>
</g>
<!-- Node14 -->
<g id="node14" class="node"><title>Node14</title>
<g id="a_node14"><a xlink:href="QualityObject_8h_source.html" target="_top" xlink:title="QualityControl/QualityObject.h">
<polygon fill="none" stroke="black" points="736.5,-112.5 736.5,-131.5 885.5,-131.5 885.5,-112.5 736.5,-112.5"/>
<text text-anchor="middle" x="811" y="-119.5" font-family="Helvetica,sans-Serif" font-size="10.00">QualityControl/QualityObject.h</text>
</a>
</g>
</g>
<!-- Node12&#45;&gt;Node14 -->
<g id="edge20" class="edge"><title>Node12&#45;&gt;Node14</title>
<path fill="none" stroke="midnightblue" d="M631.088,-173.975C667.89,-163.548 730.311,-145.862 771.094,-134.307"/>
<polygon fill="midnightblue" stroke="midnightblue" points="772.301,-137.603 780.968,-131.509 770.393,-130.868 772.301,-137.603"/>
</g>
<!-- Node21 -->
<g id="node21" class="node"><title>Node21</title>
<g id="a_node21"><a xlink:href="MonitorObject_8h.html" target="_top" xlink:title="QualityControl/MonitorObject.h">
<polygon fill="none" stroke="black" points="567.5,-112.5 567.5,-131.5 718.5,-131.5 718.5,-112.5 567.5,-112.5"/>
<text text-anchor="middle" x="643" y="-119.5" font-family="Helvetica,sans-Serif" font-size="10.00">QualityControl/MonitorObject.h</text>
</a>
</g>
</g>
<!-- Node12&#45;&gt;Node21 -->
<g id="edge28" class="edge"><title>Node12&#45;&gt;Node21</title>
<path fill="none" stroke="midnightblue" d="M607.018,-173.975C613.255,-165.138 623.173,-151.089 631.018,-139.975"/>
<polygon fill="midnightblue" stroke="midnightblue" points="634.086,-141.697 636.994,-131.509 628.367,-137.66 634.086,-141.697"/>
</g>
<!-- Node15 -->
<g id="node15" class="node"><title>Node15</title>
<polygon fill="none" stroke="#bfbfbf" points="956,-56.5 956,-75.5 1010,-75.5 1010,-56.5 956,-56.5"/>
<text text-anchor="middle" x="983" y="-63.5" font-family="Helvetica,sans-Serif" font-size="10.00">iostream</text>
</g>
<!-- Node14&#45;&gt;Node15 -->
<g id="edge21" class="edge"><title>Node14&#45;&gt;Node15</title>
<path fill="none" stroke="midnightblue" d="M838.254,-112.444C867.441,-103.28 913.921,-88.6876 946.309,-78.5192"/>
<polygon fill="midnightblue" stroke="midnightblue" points="947.381,-81.8512 955.874,-75.5164 945.284,-75.1726 947.381,-81.8512"/>
</g>
<!-- Node16 -->
<g id="node16" class="node"><title>Node16</title>
<polygon fill="none" stroke="#bfbfbf" points="825.5,-56.5 825.5,-75.5 860.5,-75.5 860.5,-56.5 825.5,-56.5"/>
<text text-anchor="middle" x="843" y="-63.5" font-family="Helvetica,sans-Serif" font-size="10.00">map</text>
</g>
<!-- Node14&#45;&gt;Node16 -->
<g id="edge22" class="edge"><title>Node14&#45;&gt;Node16</title>
<path fill="none" stroke="midnightblue" d="M816.284,-112.083C820.711,-104.613 827.163,-93.7244 832.618,-84.5199"/>
<polygon fill="midnightblue" stroke="midnightblue" points="835.727,-86.1383 837.814,-75.7511 829.705,-82.5697 835.727,-86.1383"/>
</g>
<!-- Node17 -->
<g id="node17" class="node"><title>Node17</title>
<polygon fill="none" stroke="#bfbfbf" points="878.5,-56.5 878.5,-75.5 937.5,-75.5 937.5,-56.5 878.5,-56.5"/>
<text text-anchor="middle" x="908" y="-63.5" font-family="Helvetica,sans-Serif" font-size="10.00">TObject.h</text>
</g>
<!-- Node14&#45;&gt;Node17 -->
<g id="edge23" class="edge"><title>Node14&#45;&gt;Node17</title>
<path fill="none" stroke="midnightblue" d="M826.585,-112.324C841.999,-103.743 865.812,-90.486 883.71,-80.5224"/>
<polygon fill="midnightblue" stroke="midnightblue" points="885.419,-83.5767 892.454,-75.6545 882.014,-77.4606 885.419,-83.5767"/>
</g>
<!-- Node18 -->
<g id="node18" class="node"><title>Node18</title>
<polygon fill="none" stroke="#bfbfbf" points="552,-56.5 552,-75.5 668,-75.5 668,-56.5 552,-56.5"/>
<text text-anchor="middle" x="610" y="-63.5" font-family="Helvetica,sans-Serif" font-size="10.00">Common/Exceptions.h</text>
</g>
<!-- Node14&#45;&gt;Node18 -->
<g id="edge24" class="edge"><title>Node14&#45;&gt;Node18</title>
<path fill="none" stroke="midnightblue" d="M779.151,-112.444C744.602,-103.162 689.318,-88.3093 651.417,-78.127"/>
<polygon fill="midnightblue" stroke="midnightblue" points="652.266,-74.7309 641.7,-75.5164 650.449,-81.4912 652.266,-74.7309"/>
</g>
<!-- Node19 -->
<g id="node19" class="node"><title>Node19</title>
<g id="a_node19"><a xlink:href="Quality_8h.html" target="_top" xlink:title="QualityControl/Quality.h">
<polygon fill="none" stroke="black" points="686.5,-56.5 686.5,-75.5 807.5,-75.5 807.5,-56.5 686.5,-56.5"/>
<text text-anchor="middle" x="747" y="-63.5" font-family="Helvetica,sans-Serif" font-size="10.00">QualityControl/Quality.h</text>
</a>
</g>
</g>
<!-- Node14&#45;&gt;Node19 -->
<g id="edge25" class="edge"><title>Node14&#45;&gt;Node19</title>
<path fill="none" stroke="midnightblue" d="M800.717,-112.324C791.164,-104.263 776.72,-92.0765 765.216,-82.3695"/>
<polygon fill="midnightblue" stroke="midnightblue" points="767.37,-79.6076 757.47,-75.8339 762.856,-84.9577 767.37,-79.6076"/>
</g>
<!-- Node19&#45;&gt;Node7 -->
<g id="edge27" class="edge"><title>Node19&#45;&gt;Node7</title>
<path fill="none" stroke="midnightblue" d="M693.284,-56.4435C621.4,-44.9929 496.294,-25.0645 438.667,-15.8851"/>
<polygon fill="midnightblue" stroke="midnightblue" points="439.147,-12.4174 428.72,-14.3006 438.045,-19.3302 439.147,-12.4174"/>
</g>
<!-- Node20 -->
<g id="node20" class="node"><title>Node20</title>
<polygon fill="none" stroke="#bfbfbf" points="607,-0.5 607,-19.5 663,-19.5 663,-0.5 607,-0.5"/>
<text text-anchor="middle" x="635" y="-7.5" font-family="Helvetica,sans-Serif" font-size="10.00">Rtypes.h</text>
</g>
<!-- Node19&#45;&gt;Node20 -->
<g id="edge26" class="edge"><title>Node19&#45;&gt;Node20</title>
<path fill="none" stroke="midnightblue" d="M729.005,-56.324C710.962,-47.6247 682.953,-34.1202 662.197,-24.113"/>
<polygon fill="midnightblue" stroke="midnightblue" points="663.478,-20.8449 652.95,-19.6545 660.438,-27.1502 663.478,-20.8449"/>
</g>
<!-- Node21&#45;&gt;Node7 -->
<g id="edge29" class="edge"><title>Node21&#45;&gt;Node7</title>
<path fill="none" stroke="midnightblue" d="M620.855,-112.362C598.869,-103.649 564.304,-89.5786 535,-76 498.931,-59.2867 458.171,-37.9815 432.778,-24.4112"/>
<polygon fill="midnightblue" stroke="midnightblue" points="434.307,-21.2595 423.841,-19.6147 430.997,-27.4274 434.307,-21.2595"/>
</g>
<!-- Node21&#45;&gt;Node16 -->
<g id="edge30" class="edge"><title>Node21&#45;&gt;Node16</title>
<path fill="none" stroke="midnightblue" d="M679.561,-112.448C712.862,-104.459 763.573,-91.7958 815.695,-76.2316"/>
<polygon fill="midnightblue" stroke="midnightblue" points="816.877,-79.531 825.44,-73.2921 814.855,-72.8292 816.877,-79.531"/>
</g>
<!-- Node21&#45;&gt;Node17 -->
<g id="edge32" class="edge"><title>Node21&#45;&gt;Node17</title>
<path fill="none" stroke="midnightblue" d="M688.755,-112.443C732.521,-104.143 800.624,-90.9287 868.191,-76.3406"/>
<polygon fill="midnightblue" stroke="midnightblue" points="869.123,-79.72 878.153,-74.1787 867.638,-72.8792 869.123,-79.72"/>
</g>
<!-- Node21&#45;&gt;Node18 -->
<g id="edge33" class="edge"><title>Node21&#45;&gt;Node18</title>
<path fill="none" stroke="midnightblue" d="M637.551,-112.083C632.986,-104.613 626.332,-93.7244 620.707,-84.5199"/>
<polygon fill="midnightblue" stroke="midnightblue" points="623.549,-82.4588 615.348,-75.7511 617.576,-86.109 623.549,-82.4588"/>
</g>
<!-- Node21&#45;&gt;Node19 -->
<g id="edge34" class="edge"><title>Node21&#45;&gt;Node19</title>
<path fill="none" stroke="midnightblue" d="M659.709,-112.324C676.312,-103.703 702.002,-90.3643 721.22,-80.3855"/>
<polygon fill="midnightblue" stroke="midnightblue" points="723.07,-83.3689 730.332,-75.6545 719.844,-77.1565 723.07,-83.3689"/>
</g>
<!-- Node21&#45;&gt;Node20 -->
<g id="edge31" class="edge"><title>Node21&#45;&gt;Node20</title>
<path fill="none" stroke="midnightblue" d="M598.304,-112.476C577.774,-106.086 555.301,-95.0247 543,-76 526.304,-50.178 564.823,-31.5551 597.03,-21.0291"/>
<polygon fill="midnightblue" stroke="midnightblue" points="598.234,-24.3204 606.754,-18.0233 596.167,-17.6326 598.234,-24.3204"/>
</g>
</g>
</svg>
