<?xml version="1.0" encoding="UTF-8" standalone="no"?>
<!DOCTYPE svg PUBLIC "-//W3C//DTD SVG 1.1//EN"
 "http://www.w3.org/Graphics/SVG/1.1/DTD/svg11.dtd">
<!-- Generated by graphviz version 2.38.0 (20140413.2041)
 -->
<!-- Title: Framework/test/testCheckInterface.cxx Pages: 1 -->
<svg width="517pt" height="263pt"
 viewBox="0.00 0.00 516.63 263.00" xmlns="http://www.w3.org/2000/svg" xmlns:xlink="http://www.w3.org/1999/xlink">
<g id="graph0" class="graph" transform="scale(1 1) rotate(0) translate(4 259)">
<title>Framework/test/testCheckInterface.cxx</title>
<!-- Node1 -->
<g id="node1" class="node"><title>Node1</title>
<polygon fill="#bfbfbf" stroke="black" points="123.507,-224.5 123.507,-254.5 256.507,-254.5 256.507,-224.5 123.507,-224.5"/>
<text text-anchor="start" x="131.507" y="-242.5" font-family="Helvetica,sans-Serif" font-size="10.00">Framework/test/testCheck</text>
<text text-anchor="middle" x="190.007" y="-231.5" font-family="Helvetica,sans-Serif" font-size="10.00">Interface.cxx</text>
</g>
<!-- Node2 -->
<g id="node2" class="node"><title>Node2</title>
<g id="a_node2"><a xlink:href="CheckInterface_8h.html" target="_top" xlink:title="QualityControl/CheckInterface.h">
<polygon fill="none" stroke="black" points="33.5066,-168.5 33.5066,-187.5 190.507,-187.5 190.507,-168.5 33.5066,-168.5"/>
<text text-anchor="middle" x="112.007" y="-175.5" font-family="Helvetica,sans-Serif" font-size="10.00">QualityControl/CheckInterface.h</text>
</a>
</g>
</g>
<!-- Node1&#45;&gt;Node2 -->
<g id="edge1" class="edge"><title>Node1&#45;&gt;Node2</title>
<path fill="none" stroke="midnightblue" d="M171.522,-224.399C159.486,-215.218 143.807,-203.258 131.563,-193.918"/>
<polygon fill="midnightblue" stroke="midnightblue" points="133.43,-190.94 123.356,-187.658 129.184,-196.506 133.43,-190.94"/>
</g>
<!-- Node3 -->
<g id="node3" class="node"><title>Node3</title>
<polygon fill="none" stroke="#bfbfbf" points="28.5066,-0.5 28.5066,-19.5 69.5066,-19.5 69.5066,-0.5 28.5066,-0.5"/>
<text text-anchor="middle" x="49.0066" y="-7.5" font-family="Helvetica,sans-Serif" font-size="10.00">string</text>
</g>
<!-- Node1&#45;&gt;Node3 -->
<g id="edge17" class="edge"><title>Node1&#45;&gt;Node3</title>
<path fill="none" stroke="midnightblue" d="M123.271,-235.693C88.1262,-230.474 47.5452,-217.775 24.0066,-188 -12.4273,-141.913 -0.86343,-111.965 17.0066,-56 20.3471,-45.538 27.1063,-35.4277 33.5554,-27.4496"/>
<polygon fill="midnightblue" stroke="midnightblue" points="36.3542,-29.5641 40.2551,-19.7136 31.0628,-24.9815 36.3542,-29.5641"/>
</g>
<!-- Node10 -->
<g id="node10" class="node"><title>Node10</title>
<polygon fill="none" stroke="#bfbfbf" points="208.507,-168.5 208.507,-187.5 327.507,-187.5 327.507,-168.5 208.507,-168.5"/>
<text text-anchor="middle" x="268.007" y="-175.5" font-family="Helvetica,sans-Serif" font-size="10.00">boost/test/unit_test.hpp</text>
</g>
<!-- Node1&#45;&gt;Node10 -->
<g id="edge15" class="edge"><title>Node1&#45;&gt;Node10</title>
<path fill="none" stroke="midnightblue" d="M208.491,-224.399C220.527,-215.218 236.206,-203.258 248.45,-193.918"/>
<polygon fill="midnightblue" stroke="midnightblue" points="250.829,-196.506 256.657,-187.658 246.583,-190.94 250.829,-196.506"/>
</g>
<!-- Node11 -->
<g id="node11" class="node"><title>Node11</title>
<polygon fill="none" stroke="#bfbfbf" points="345.507,-168.5 345.507,-187.5 416.507,-187.5 416.507,-168.5 345.507,-168.5"/>
<text text-anchor="middle" x="381.007" y="-175.5" font-family="Helvetica,sans-Serif" font-size="10.00">TObjString.h</text>
</g>
<!-- Node1&#45;&gt;Node11 -->
<g id="edge16" class="edge"><title>Node1&#45;&gt;Node11</title>
<path fill="none" stroke="midnightblue" d="M235.271,-224.399C268.418,-214.073 312.854,-200.231 343.911,-190.556"/>
<polygon fill="midnightblue" stroke="midnightblue" points="344.987,-193.887 353.493,-187.571 342.905,-187.204 344.987,-193.887"/>
</g>
<!-- Node2&#45;&gt;Node3 -->
<g id="edge2" class="edge"><title>Node2&#45;&gt;Node3</title>
<path fill="none" stroke="midnightblue" d="M98.9188,-168.462C86.8218,-160.14 68.8326,-146.631 56.0066,-132 36.8123,-110.105 29.8523,-104.04 22.0066,-76 17.2904,-59.1448 26.3041,-40.8026 35.16,-27.9139"/>
<polygon fill="midnightblue" stroke="midnightblue" points="38.1971,-29.6968 41.3821,-19.592 32.5909,-25.5051 38.1971,-29.6968"/>
</g>
<!-- Node4 -->
<g id="node4" class="node"><title>Node4</title>
<polygon fill="none" stroke="#bfbfbf" points="31.5066,-56.5 31.5066,-75.5 66.5066,-75.5 66.5066,-56.5 31.5066,-56.5"/>
<text text-anchor="middle" x="49.0066" y="-63.5" font-family="Helvetica,sans-Serif" font-size="10.00">map</text>
</g>
<!-- Node2&#45;&gt;Node4 -->
<g id="edge3" class="edge"><title>Node2&#45;&gt;Node4</title>
<path fill="none" stroke="midnightblue" d="M100.664,-168.179C90.6994,-159.859 76.5025,-146.524 68.0066,-132 59.5661,-117.57 54.6403,-99.1178 51.9288,-85.5626"/>
<polygon fill="midnightblue" stroke="midnightblue" points="55.3404,-84.7564 50.1433,-75.5238 48.4485,-85.9822 55.3404,-84.7564"/>
</g>
<!-- Node5 -->
<g id="node5" class="node"><title>Node5</title>
<polygon fill="none" stroke="#bfbfbf" points="406.007,-0.5 406.007,-19.5 462.007,-19.5 462.007,-0.5 406.007,-0.5"/>
<text text-anchor="middle" x="434.007" y="-7.5" font-family="Helvetica,sans-Serif" font-size="10.00">Rtypes.h</text>
</g>
<!-- Node2&#45;&gt;Node5 -->
<g id="edge4" class="edge"><title>Node2&#45;&gt;Node5</title>
<path fill="none" stroke="midnightblue" d="M187.479,-168.474C290.183,-155.139 465.621,-125.606 504.007,-76 519.756,-55.6472 490.692,-36.0857 465.356,-23.8344"/>
<polygon fill="midnightblue" stroke="midnightblue" points="466.479,-20.4985 455.93,-19.5104 463.56,-26.8611 466.479,-20.4985"/>
</g>
<!-- Node6 -->
<g id="node6" class="node"><title>Node6</title>
<g id="a_node6"><a xlink:href="MonitorObject_8h.html" target="_top" xlink:title="QualityControl/MonitorObject.h">
<polygon fill="none" stroke="black" points="77.5066,-112.5 77.5066,-131.5 228.507,-131.5 228.507,-112.5 77.5066,-112.5"/>
<text text-anchor="middle" x="153.007" y="-119.5" font-family="Helvetica,sans-Serif" font-size="10.00">QualityControl/MonitorObject.h</text>
</a>
</g>
</g>
<!-- Node2&#45;&gt;Node6 -->
<g id="edge5" class="edge"><title>Node2&#45;&gt;Node6</title>
<path fill="none" stroke="midnightblue" d="M118.777,-168.083C124.568,-160.455 133.065,-149.264 140.144,-139.941"/>
<polygon fill="midnightblue" stroke="midnightblue" points="143.103,-141.832 146.362,-131.751 137.528,-137.599 143.103,-141.832"/>
</g>
<!-- Node9 -->
<g id="node9" class="node"><title>Node9</title>
<g id="a_node9"><a xlink:href="Quality_8h.html" target="_top" xlink:title="QualityControl/Quality.h">
<polygon fill="none" stroke="black" points="373.507,-56.5 373.507,-75.5 494.507,-75.5 494.507,-56.5 373.507,-56.5"/>
<text text-anchor="middle" x="434.007" y="-63.5" font-family="Helvetica,sans-Serif" font-size="10.00">QualityControl/Quality.h</text>
</a>
</g>
</g>
<!-- Node2&#45;&gt;Node9 -->
<g id="edge14" class="edge"><title>Node2&#45;&gt;Node9</title>
<path fill="none" stroke="midnightblue" d="M137.005,-168.46C193.951,-149.006 333.439,-101.355 398.947,-78.9768"/>
<polygon fill="midnightblue" stroke="midnightblue" points="400.47,-82.1552 408.802,-75.6104 398.207,-75.5311 400.47,-82.1552"/>
</g>
<!-- Node6&#45;&gt;Node3 -->
<g id="edge6" class="edge"><title>Node6&#45;&gt;Node3</title>
<path fill="none" stroke="midnightblue" d="M144.846,-112.368C127.455,-93.9744 86.5139,-50.6712 64.1829,-27.0519"/>
<polygon fill="midnightblue" stroke="midnightblue" points="66.5428,-24.4534 57.1294,-19.5914 61.4562,-29.2625 66.5428,-24.4534"/>
</g>
<!-- Node6&#45;&gt;Node4 -->
<g id="edge7" class="edge"><title>Node6&#45;&gt;Node4</title>
<path fill="none" stroke="midnightblue" d="M136.297,-112.324C119.695,-103.703 94.0044,-90.3643 74.7861,-80.3855"/>
<polygon fill="midnightblue" stroke="midnightblue" points="76.1623,-77.1565 65.6745,-75.6545 72.9366,-83.3689 76.1623,-77.1565"/>
</g>
<!-- Node6&#45;&gt;Node5 -->
<g id="edge8" class="edge"><title>Node6&#45;&gt;Node5</title>
<path fill="none" stroke="midnightblue" d="M200.46,-112.494C235.912,-105.23 285.099,-93.2054 326.007,-76 343.33,-68.7141 386.02,-41.9476 412.243,-25.1189"/>
<polygon fill="midnightblue" stroke="midnightblue" points="414.252,-27.9877 420.763,-19.6291 410.461,-22.1035 414.252,-27.9877"/>
</g>
<!-- Node7 -->
<g id="node7" class="node"><title>Node7</title>
<polygon fill="none" stroke="#bfbfbf" points="123.507,-56.5 123.507,-75.5 182.507,-75.5 182.507,-56.5 123.507,-56.5"/>
<text text-anchor="middle" x="153.007" y="-63.5" font-family="Helvetica,sans-Serif" font-size="10.00">TObject.h</text>
</g>
<!-- Node6&#45;&gt;Node7 -->
<g id="edge9" class="edge"><title>Node6&#45;&gt;Node7</title>
<path fill="none" stroke="midnightblue" d="M153.007,-112.083C153.007,-105.006 153.007,-94.8611 153.007,-85.9865"/>
<polygon fill="midnightblue" stroke="midnightblue" points="156.507,-85.751 153.007,-75.7511 149.507,-85.7511 156.507,-85.751"/>
</g>
<!-- Node8 -->
<g id="node8" class="node"><title>Node8</title>
<polygon fill="none" stroke="#bfbfbf" points="201.007,-56.5 201.007,-75.5 317.007,-75.5 317.007,-56.5 201.007,-56.5"/>
<text text-anchor="middle" x="259.007" y="-63.5" font-family="Helvetica,sans-Serif" font-size="10.00">Common/Exceptions.h</text>
</g>
<!-- Node6&#45;&gt;Node8 -->
<g id="edge10" class="edge"><title>Node6&#45;&gt;Node8</title>
<path fill="none" stroke="midnightblue" d="M170.037,-112.324C187.036,-103.664 213.383,-90.2424 232.999,-80.249"/>
<polygon fill="midnightblue" stroke="midnightblue" points="234.696,-83.3125 242.018,-75.6545 231.519,-77.0752 234.696,-83.3125"/>
</g>
<!-- Node6&#45;&gt;Node9 -->
<g id="edge11" class="edge"><title>Node6&#45;&gt;Node9</title>
<path fill="none" stroke="midnightblue" d="M197.532,-112.444C246.963,-102.944 326.753,-87.611 379.785,-77.4198"/>
<polygon fill="midnightblue" stroke="midnightblue" points="380.53,-80.8408 389.69,-75.5164 379.209,-73.9666 380.53,-80.8408"/>
</g>
<!-- Node9&#45;&gt;Node3 -->
<g id="edge13" class="edge"><title>Node9&#45;&gt;Node3</title>
<path fill="none" stroke="midnightblue" d="M373.427,-56.5031C290.152,-44.823 143.414,-24.2416 79.8273,-15.3229"/>
<polygon fill="midnightblue" stroke="midnightblue" points="80.044,-11.8191 69.6548,-13.8961 79.0716,-18.7513 80.044,-11.8191"/>
</g>
<!-- Node9&#45;&gt;Node5 -->
<g id="edge12" class="edge"><title>Node9&#45;&gt;Node5</title>
<path fill="none" stroke="midnightblue" d="M434.007,-56.083C434.007,-49.0059 434.007,-38.8611 434.007,-29.9865"/>
<polygon fill="midnightblue" stroke="midnightblue" points="437.507,-29.751 434.007,-19.7511 430.507,-29.7511 437.507,-29.751"/>
</g>
</g>
</svg>
