<?xml version="1.0" encoding="UTF-8" standalone="no"?>
<!DOCTYPE svg PUBLIC "-//W3C//DTD SVG 1.1//EN"
 "http://www.w3.org/Graphics/SVG/1.1/DTD/svg11.dtd">
<!-- Generated by graphviz version 2.38.0 (20140413.2041)
 -->
<!-- Title: Framework/test/testCheckWorkflow.cxx Pages: 1 -->
<svg width="1710pt" height="386pt"
 viewBox="0.00 0.00 1709.80 386.00" xmlns="http://www.w3.org/2000/svg" xmlns:xlink="http://www.w3.org/1999/xlink">
<g id="graph0" class="graph" transform="scale(1 1) rotate(0) translate(4 382)">
<title>Framework/test/testCheckWorkflow.cxx</title>
<!-- Node1 -->
<g id="node1" class="node"><title>Node1</title>
<polygon fill="#bfbfbf" stroke="black" points="768.798,-347.5 768.798,-377.5 901.798,-377.5 901.798,-347.5 768.798,-347.5"/>
<text text-anchor="start" x="776.798" y="-365.5" font-family="Helvetica,sans-Serif" font-size="10.00">Framework/test/testCheck</text>
<text text-anchor="middle" x="835.298" y="-354.5" font-family="Helvetica,sans-Serif" font-size="10.00">Workflow.cxx</text>
</g>
<!-- Node2 -->
<g id="node2" class="node"><title>Node2</title>
<polygon fill="none" stroke="#bfbfbf" points="14.2975,-291.5 14.2975,-310.5 152.298,-310.5 152.298,-291.5 14.2975,-291.5"/>
<text text-anchor="middle" x="83.2975" y="-298.5" font-family="Helvetica,sans-Serif" font-size="10.00">Framework/DataSampling.h</text>
</g>
<!-- Node1&#45;&gt;Node2 -->
<g id="edge1" class="edge"><title>Node1&#45;&gt;Node2</title>
<path fill="none" stroke="midnightblue" d="M768.769,-357.201C648.442,-349.264 386.673,-331.26 166.298,-311 165.179,-310.897 164.052,-310.792 162.918,-310.686"/>
<polygon fill="midnightblue" stroke="midnightblue" points="162.863,-307.164 152.572,-309.683 162.188,-314.131 162.863,-307.164"/>
</g>
<!-- Node3 -->
<g id="node3" class="node"><title>Node3</title>
<g id="a_node3"><a xlink:href="InfrastructureGenerator_8h.html" target="_top" xlink:title="QualityControl/Infrastructure\lGenerator.h">
<polygon fill="none" stroke="black" points="12.2975,-224.5 12.2975,-254.5 152.298,-254.5 152.298,-224.5 12.2975,-224.5"/>
<text text-anchor="start" x="20.2975" y="-242.5" font-family="Helvetica,sans-Serif" font-size="10.00">QualityControl/Infrastructure</text>
<text text-anchor="middle" x="82.2975" y="-231.5" font-family="Helvetica,sans-Serif" font-size="10.00">Generator.h</text>
</a>
</g>
</g>
<!-- Node1&#45;&gt;Node3 -->
<g id="edge2" class="edge"><title>Node1&#45;&gt;Node3</title>
<path fill="none" stroke="midnightblue" d="M768.536,-359.872C628.43,-355.853 308.11,-343.332 204.298,-311 185.565,-305.166 142.409,-278.964 112.791,-260.209"/>
<polygon fill="midnightblue" stroke="midnightblue" points="114.391,-257.078 104.076,-254.658 110.63,-262.982 114.391,-257.078"/>
</g>
<!-- Node7 -->
<g id="node7" class="node"><title>Node7</title>
<polygon fill="none" stroke="#bfbfbf" points="1002.8,-291.5 1002.8,-310.5 1121.8,-310.5 1121.8,-291.5 1002.8,-291.5"/>
<text text-anchor="middle" x="1062.3" y="-298.5" font-family="Helvetica,sans-Serif" font-size="10.00">getTestDataDirectory.h</text>
</g>
<!-- Node1&#45;&gt;Node7 -->
<g id="edge6" class="edge"><title>Node1&#45;&gt;Node7</title>
<path fill="none" stroke="midnightblue" d="M888.806,-347.475C928.823,-336.986 982.803,-322.837 1019.87,-313.122"/>
<polygon fill="midnightblue" stroke="midnightblue" points="1021.06,-316.428 1029.84,-310.506 1019.28,-309.656 1021.06,-316.428"/>
</g>
<!-- Node8 -->
<g id="node8" class="node"><title>Node8</title>
<g id="a_node8"><a xlink:href="CheckRunner_8h.html" target="_top" xlink:title="QualityControl/CheckRunner.h">
<polygon fill="none" stroke="black" points="679.298,-291.5 679.298,-310.5 829.298,-310.5 829.298,-291.5 679.298,-291.5"/>
<text text-anchor="middle" x="754.298" y="-298.5" font-family="Helvetica,sans-Serif" font-size="10.00">QualityControl/CheckRunner.h</text>
</a>
</g>
</g>
<!-- Node1&#45;&gt;Node8 -->
<g id="edge7" class="edge"><title>Node1&#45;&gt;Node8</title>
<path fill="none" stroke="midnightblue" d="M816.102,-347.399C803.482,-338.129 787.004,-326.025 774.237,-316.647"/>
<polygon fill="midnightblue" stroke="midnightblue" points="776.215,-313.757 766.084,-310.658 772.071,-319.399 776.215,-313.757"/>
</g>
<!-- Node26 -->
<g id="node26" class="node"><title>Node26</title>
<g id="a_node26"><a xlink:href="QualityObject_8h_source.html" target="_top" xlink:title="QualityControl/QualityObject.h">
<polygon fill="none" stroke="black" points="530.798,-112.5 530.798,-131.5 679.798,-131.5 679.798,-112.5 530.798,-112.5"/>
<text text-anchor="middle" x="605.298" y="-119.5" font-family="Helvetica,sans-Serif" font-size="10.00">QualityControl/QualityObject.h</text>
</a>
</g>
</g>
<!-- Node1&#45;&gt;Node26 -->
<g id="edge59" class="edge"><title>Node1&#45;&gt;Node26</title>
<path fill="none" stroke="midnightblue" d="M768.608,-357.57C633.636,-348.309 334.534,-320.746 259.298,-255 229.265,-228.756 210.862,-197.865 237.298,-168 255.773,-147.127 417.753,-133.898 520.562,-127.525"/>
<polygon fill="midnightblue" stroke="midnightblue" points="520.86,-131.013 530.628,-126.911 520.434,-124.026 520.86,-131.013"/>
</g>
<!-- Node32 -->
<g id="node32" class="node"><title>Node32</title>
<g id="a_node32"><a xlink:href="runnerUtils_8h.html" target="_top" xlink:title="QualityControl/runnerUtils.h">
<polygon fill="none" stroke="black" points="847.798,-291.5 847.798,-310.5 984.798,-310.5 984.798,-291.5 847.798,-291.5"/>
<text text-anchor="middle" x="916.298" y="-298.5" font-family="Helvetica,sans-Serif" font-size="10.00">QualityControl/runnerUtils.h</text>
</a>
</g>
</g>
<!-- Node1&#45;&gt;Node32 -->
<g id="edge60" class="edge"><title>Node1&#45;&gt;Node32</title>
<path fill="none" stroke="midnightblue" d="M854.493,-347.399C867.113,-338.129 883.591,-326.025 896.358,-316.647"/>
<polygon fill="midnightblue" stroke="midnightblue" points="898.524,-319.399 904.511,-310.658 894.38,-313.757 898.524,-319.399"/>
</g>
<!-- Node34 -->
<g id="node34" class="node"><title>Node34</title>
<polygon fill="none" stroke="#bfbfbf" points="1140.3,-291.5 1140.3,-310.5 1300.3,-310.5 1300.3,-291.5 1140.3,-291.5"/>
<text text-anchor="middle" x="1220.3" y="-298.5" font-family="Helvetica,sans-Serif" font-size="10.00">Framework/runDataProcessing.h</text>
</g>
<!-- Node1&#45;&gt;Node34 -->
<g id="edge63" class="edge"><title>Node1&#45;&gt;Node34</title>
<path fill="none" stroke="midnightblue" d="M901.92,-351.204C972.895,-340.235 1084.52,-322.983 1154.99,-312.093"/>
<polygon fill="midnightblue" stroke="midnightblue" points="1155.73,-315.52 1165.08,-310.534 1154.66,-308.602 1155.73,-315.52"/>
</g>
<!-- Node35 -->
<g id="node35" class="node"><title>Node35</title>
<polygon fill="none" stroke="#bfbfbf" points="1318.8,-291.5 1318.8,-310.5 1459.8,-310.5 1459.8,-291.5 1318.8,-291.5"/>
<text text-anchor="middle" x="1389.3" y="-298.5" font-family="Helvetica,sans-Serif" font-size="10.00">Framework/ControlService.h</text>
</g>
<!-- Node1&#45;&gt;Node35 -->
<g id="edge64" class="edge"><title>Node1&#45;&gt;Node35</title>
<path fill="none" stroke="midnightblue" d="M902.034,-354.515C991.83,-345.089 1156.82,-327.671 1308.65,-311.065"/>
<polygon fill="midnightblue" stroke="midnightblue" points="1309.07,-314.54 1318.63,-309.973 1308.31,-307.582 1309.07,-314.54"/>
</g>
<!-- Node4 -->
<g id="node4" class="node"><title>Node4</title>
<polygon fill="none" stroke="#bfbfbf" points="246.298,-168.5 246.298,-187.5 290.298,-187.5 290.298,-168.5 246.298,-168.5"/>
<text text-anchor="middle" x="268.298" y="-175.5" font-family="Helvetica,sans-Serif" font-size="10.00">vector</text>
</g>
<!-- Node3&#45;&gt;Node4 -->
<g id="edge3" class="edge"><title>Node3&#45;&gt;Node4</title>
<path fill="none" stroke="midnightblue" d="M126.377,-224.399C160.254,-213.562 206.239,-198.852 236.565,-189.151"/>
<polygon fill="midnightblue" stroke="midnightblue" points="237.751,-192.446 246.209,-186.066 235.618,-185.779 237.751,-192.446"/>
</g>
<!-- Node5 -->
<g id="node5" class="node"><title>Node5</title>
<polygon fill="none" stroke="#bfbfbf" points="750.798,-0.5 750.798,-19.5 791.798,-19.5 791.798,-0.5 750.798,-0.5"/>
<text text-anchor="middle" x="771.298" y="-7.5" font-family="Helvetica,sans-Serif" font-size="10.00">string</text>
</g>
<!-- Node3&#45;&gt;Node5 -->
<g id="edge4" class="edge"><title>Node3&#45;&gt;Node5</title>
<path fill="none" stroke="midnightblue" d="M45.4811,-224.425C19.2044,-212.011 -9.41419,-192.158 3.29751,-168 44.2284,-90.2138 83.3769,-85.1582 166.298,-56 273.887,-18.1673 632.401,-12.1403 740.307,-11.1812"/>
<polygon fill="midnightblue" stroke="midnightblue" points="740.546,-14.6795 750.518,-11.0993 740.49,-7.67977 740.546,-14.6795"/>
</g>
<!-- Node6 -->
<g id="node6" class="node"><title>Node6</title>
<polygon fill="none" stroke="#bfbfbf" points="12.2975,-168.5 12.2975,-187.5 152.298,-187.5 152.298,-168.5 12.2975,-168.5"/>
<text text-anchor="middle" x="82.2975" y="-175.5" font-family="Helvetica,sans-Serif" font-size="10.00">Framework/WorkflowSpec.h</text>
</g>
<!-- Node3&#45;&gt;Node6 -->
<g id="edge5" class="edge"><title>Node3&#45;&gt;Node6</title>
<path fill="none" stroke="midnightblue" d="M82.2975,-224.399C82.2975,-216.466 82.2975,-206.458 82.2975,-197.858"/>
<polygon fill="midnightblue" stroke="midnightblue" points="85.7976,-197.658 82.2975,-187.658 78.7976,-197.658 85.7976,-197.658"/>
</g>
<!-- Node8&#45;&gt;Node4 -->
<g id="edge12" class="edge"><title>Node8&#45;&gt;Node4</title>
<path fill="none" stroke="midnightblue" d="M679.277,-298.122C551.631,-294.178 303.216,-282.969 275.298,-255 260.631,-240.307 261.295,-215.131 264.018,-197.807"/>
<polygon fill="midnightblue" stroke="midnightblue" points="267.501,-198.229 265.964,-187.746 260.629,-196.9 267.501,-198.229"/>
</g>
<!-- Node8&#45;&gt;Node5 -->
<g id="edge10" class="edge"><title>Node8&#45;&gt;Node5</title>
<path fill="none" stroke="midnightblue" d="M678.916,-299.205C559.301,-296.938 332.102,-288.245 259.298,-255 214.978,-234.763 180.298,-227.721 180.298,-179 180.298,-179 180.298,-179 180.298,-121 180.298,-63.444 619.119,-23.4029 740.507,-13.4277"/>
<polygon fill="midnightblue" stroke="midnightblue" points="740.926,-16.9053 750.61,-12.607 740.359,-9.92825 740.926,-16.9053"/>
</g>
<!-- Node9 -->
<g id="node9" class="node"><title>Node9</title>
<polygon fill="none" stroke="#bfbfbf" points="548.298,-230 548.298,-249 594.298,-249 594.298,-230 548.298,-230"/>
<text text-anchor="middle" x="571.298" y="-237" font-family="Helvetica,sans-Serif" font-size="10.00">chrono</text>
</g>
<!-- Node8&#45;&gt;Node9 -->
<g id="edge8" class="edge"><title>Node8&#45;&gt;Node9</title>
<path fill="none" stroke="midnightblue" d="M720.879,-291.443C689.993,-283.205 643.016,-269.839 603.298,-255 601.687,-254.398 600.043,-253.753 598.393,-253.082"/>
<polygon fill="midnightblue" stroke="midnightblue" points="599.627,-249.803 589.058,-249.064 596.86,-256.232 599.627,-249.803"/>
</g>
<!-- Node10 -->
<g id="node10" class="node"><title>Node10</title>
<polygon fill="none" stroke="#bfbfbf" points="524.298,-168.5 524.298,-187.5 576.298,-187.5 576.298,-168.5 524.298,-168.5"/>
<text text-anchor="middle" x="550.298" y="-175.5" font-family="Helvetica,sans-Serif" font-size="10.00">memory</text>
</g>
<!-- Node8&#45;&gt;Node10 -->
<g id="edge9" class="edge"><title>Node8&#45;&gt;Node10</title>
<path fill="none" stroke="midnightblue" d="M679.099,-296.67C614.362,-292.038 528.032,-281.033 506.298,-255 490.368,-235.92 512.572,-210.318 530.801,-194.24"/>
<polygon fill="midnightblue" stroke="midnightblue" points="533.33,-196.687 538.745,-187.581 528.833,-191.323 533.33,-196.687"/>
</g>
<!-- Node11 -->
<g id="node11" class="node"><title>Node11</title>
<polygon fill="none" stroke="#bfbfbf" points="976.798,-56.5 976.798,-75.5 1011.8,-75.5 1011.8,-56.5 976.798,-56.5"/>
<text text-anchor="middle" x="994.298" y="-63.5" font-family="Helvetica,sans-Serif" font-size="10.00">map</text>
</g>
<!-- Node8&#45;&gt;Node11 -->
<g id="edge11" class="edge"><title>Node8&#45;&gt;Node11</title>
<path fill="none" stroke="midnightblue" d="M829.368,-291.872C832.722,-291.565 836.044,-291.273 839.298,-291 968.204,-280.187 1303.65,-310.924 1420.3,-255 1456.61,-237.59 1466.76,-225.556 1481.3,-188 1515.92,-98.5527 1130.71,-73.4599 1022.25,-68.1899"/>
<polygon fill="midnightblue" stroke="midnightblue" points="1022.24,-64.6855 1012.09,-67.7153 1021.91,-71.6779 1022.24,-64.6855"/>
</g>
<!-- Node12 -->
<g id="node12" class="node"><title>Node12</title>
<polygon fill="none" stroke="#bfbfbf" points="612.298,-230 612.298,-249 690.298,-249 690.298,-230 612.298,-230"/>
<text text-anchor="middle" x="651.298" y="-237" font-family="Helvetica,sans-Serif" font-size="10.00">unordered_set</text>
</g>
<!-- Node8&#45;&gt;Node12 -->
<g id="edge13" class="edge"><title>Node8&#45;&gt;Node12</title>
<path fill="none" stroke="midnightblue" d="M739.54,-291.475C722.637,-281.711 694.715,-265.581 674.807,-254.081"/>
<polygon fill="midnightblue" stroke="midnightblue" points="676.437,-250.981 666.028,-249.009 672.936,-257.042 676.437,-250.981"/>
</g>
<!-- Node13 -->
<g id="node13" class="node"><title>Node13</title>
<polygon fill="none" stroke="#bfbfbf" points="708.298,-230 708.298,-249 800.298,-249 800.298,-230 708.298,-230"/>
<text text-anchor="middle" x="754.298" y="-237" font-family="Helvetica,sans-Serif" font-size="10.00">Common/Timer.h</text>
</g>
<!-- Node8&#45;&gt;Node13 -->
<g id="edge14" class="edge"><title>Node8&#45;&gt;Node13</title>
<path fill="none" stroke="midnightblue" d="M754.298,-291.475C754.298,-283.08 754.298,-269.981 754.298,-259.163"/>
<polygon fill="midnightblue" stroke="midnightblue" points="757.798,-259.009 754.298,-249.009 750.798,-259.009 757.798,-259.009"/>
</g>
<!-- Node14 -->
<g id="node14" class="node"><title>Node14</title>
<polygon fill="none" stroke="#bfbfbf" points="818.298,-230 818.298,-249 916.298,-249 916.298,-230 818.298,-230"/>
<text text-anchor="middle" x="867.298" y="-237" font-family="Helvetica,sans-Serif" font-size="10.00">Framework/Task.h</text>
</g>
<!-- Node8&#45;&gt;Node14 -->
<g id="edge15" class="edge"><title>Node8&#45;&gt;Node14</title>
<path fill="none" stroke="midnightblue" d="M770.488,-291.475C789.2,-281.622 820.221,-265.288 842.096,-253.77"/>
<polygon fill="midnightblue" stroke="midnightblue" points="843.92,-256.765 851.137,-249.009 840.658,-250.571 843.92,-256.765"/>
</g>
<!-- Node15 -->
<g id="node15" class="node"><title>Node15</title>
<polygon fill="none" stroke="#bfbfbf" points="934.798,-230 934.798,-249 1051.8,-249 1051.8,-230 934.798,-230"/>
<text text-anchor="middle" x="993.298" y="-237" font-family="Helvetica,sans-Serif" font-size="10.00">Headers/DataHeader.h</text>
</g>
<!-- Node8&#45;&gt;Node15 -->
<g id="edge16" class="edge"><title>Node8&#45;&gt;Node15</title>
<path fill="none" stroke="midnightblue" d="M788.54,-291.475C830.868,-280.937 902.974,-262.986 949.348,-251.441"/>
<polygon fill="midnightblue" stroke="midnightblue" points="950.26,-254.821 959.118,-249.009 948.569,-248.029 950.26,-254.821"/>
</g>
<!-- Node16 -->
<g id="node16" class="node"><title>Node16</title>
<polygon fill="none" stroke="#bfbfbf" points="1069.8,-230 1069.8,-249 1220.8,-249 1220.8,-230 1069.8,-230"/>
<text text-anchor="middle" x="1145.3" y="-237" font-family="Helvetica,sans-Serif" font-size="10.00">Monitoring/MonitoringFactory.h</text>
</g>
<!-- Node8&#45;&gt;Node16 -->
<g id="edge17" class="edge"><title>Node8&#45;&gt;Node16</title>
<path fill="none" stroke="midnightblue" d="M815.528,-291.491C877.541,-282.764 976.185,-268.582 1061.3,-255 1069.6,-253.676 1078.35,-252.226 1086.94,-250.771"/>
<polygon fill="midnightblue" stroke="midnightblue" points="1087.65,-254.2 1096.92,-249.068 1086.47,-247.3 1087.65,-254.2"/>
</g>
<!-- Node17 -->
<g id="node17" class="node"><title>Node17</title>
<polygon fill="none" stroke="#bfbfbf" points="1132.3,-168.5 1132.3,-187.5 1296.3,-187.5 1296.3,-168.5 1132.3,-168.5"/>
<text text-anchor="middle" x="1214.3" y="-175.5" font-family="Helvetica,sans-Serif" font-size="10.00">Framework/DataProcessorSpec.h</text>
</g>
<!-- Node8&#45;&gt;Node17 -->
<g id="edge18" class="edge"><title>Node8&#45;&gt;Node17</title>
<path fill="none" stroke="midnightblue" d="M829.369,-291.889C832.723,-291.577 836.045,-291.28 839.298,-291 899.762,-285.804 1342.82,-299.304 1384.3,-255 1417.24,-219.805 1354.12,-199.825 1295.68,-189.276"/>
<polygon fill="midnightblue" stroke="midnightblue" points="1296.05,-185.788 1285.6,-187.539 1294.86,-192.687 1296.05,-185.788"/>
</g>
<!-- Node18 -->
<g id="node18" class="node"><title>Node18</title>
<g id="a_node18"><a xlink:href="CheckInterface_8h.html" target="_top" xlink:title="QualityControl/CheckInterface.h">
<polygon fill="none" stroke="black" points="1314.8,-168.5 1314.8,-187.5 1471.8,-187.5 1471.8,-168.5 1314.8,-168.5"/>
<text text-anchor="middle" x="1393.3" y="-175.5" font-family="Helvetica,sans-Serif" font-size="10.00">QualityControl/CheckInterface.h</text>
</a>
</g>
</g>
<!-- Node8&#45;&gt;Node18 -->
<g id="edge19" class="edge"><title>Node8&#45;&gt;Node18</title>
<path fill="none" stroke="midnightblue" d="M829.368,-291.88C832.723,-291.571 836.045,-291.276 839.298,-291 901.756,-285.699 1359.41,-300.716 1402.3,-255 1416.68,-239.673 1409.85,-214.273 1402.54,-197.098"/>
<polygon fill="midnightblue" stroke="midnightblue" points="1405.51,-195.203 1398.1,-187.631 1399.17,-198.172 1405.51,-195.203"/>
</g>
<!-- Node20 -->
<g id="node20" class="node"><title>Node20</title>
<g id="a_node20"><a xlink:href="MonitorObject_8h.html" target="_top" xlink:title="QualityControl/MonitorObject.h">
<polygon fill="none" stroke="black" points="708.798,-112.5 708.798,-131.5 859.798,-131.5 859.798,-112.5 708.798,-112.5"/>
<text text-anchor="middle" x="784.298" y="-119.5" font-family="Helvetica,sans-Serif" font-size="10.00">QualityControl/MonitorObject.h</text>
</a>
</g>
</g>
<!-- Node8&#45;&gt;Node20 -->
<g id="edge45" class="edge"><title>Node8&#45;&gt;Node20</title>
<path fill="none" stroke="midnightblue" d="M679.022,-298.635C603.386,-294.26 502.85,-278.448 539.298,-224 562.801,-188.889 678.697,-152.169 742.308,-134.222"/>
<polygon fill="midnightblue" stroke="midnightblue" points="743.354,-137.564 752.046,-131.506 741.473,-130.822 743.354,-137.564"/>
</g>
<!-- Node24 -->
<g id="node24" class="node"><title>Node24</title>
<g id="a_node24"><a xlink:href="DatabaseInterface_8h.html" target="_top" xlink:title="QualityControl/DatabaseInterface.h">
<polygon fill="none" stroke="black" points="284.298,-230 284.298,-249 454.298,-249 454.298,-230 284.298,-230"/>
<text text-anchor="middle" x="369.298" y="-237" font-family="Helvetica,sans-Serif" font-size="10.00">QualityControl/DatabaseInterface.h</text>
</a>
</g>
</g>
<!-- Node8&#45;&gt;Node24 -->
<g id="edge33" class="edge"><title>Node8&#45;&gt;Node24</title>
<path fill="none" stroke="midnightblue" d="M699.136,-291.475C629.236,-280.672 508.923,-262.078 434.538,-250.583"/>
<polygon fill="midnightblue" stroke="midnightblue" points="434.774,-247.078 424.356,-249.009 433.704,-253.995 434.774,-247.078"/>
</g>
<!-- Node28 -->
<g id="node28" class="node"><title>Node28</title>
<g id="a_node28"><a xlink:href="QcInfoLogger_8h.html" target="_top" xlink:title="QualityControl/QcInfoLogger.h">
<polygon fill="none" stroke="black" points="964.798,-168.5 964.798,-187.5 1113.8,-187.5 1113.8,-168.5 964.798,-168.5"/>
<text text-anchor="middle" x="1039.3" y="-175.5" font-family="Helvetica,sans-Serif" font-size="10.00">QualityControl/QcInfoLogger.h</text>
</a>
</g>
</g>
<!-- Node8&#45;&gt;Node28 -->
<g id="edge46" class="edge"><title>Node8&#45;&gt;Node28</title>
<path fill="none" stroke="midnightblue" d="M829.37,-291.897C832.724,-291.584 836.045,-291.283 839.298,-291 897.879,-285.903 1327.16,-297.971 1367.3,-255 1376.7,-244.932 1376.35,-234.383 1367.3,-224 1363.23,-219.333 1215.89,-200.544 1120.09,-188.769"/>
<polygon fill="midnightblue" stroke="midnightblue" points="1120.47,-185.29 1110.12,-187.547 1119.62,-192.238 1120.47,-185.29"/>
</g>
<!-- Node30 -->
<g id="node30" class="node"><title>Node30</title>
<g id="a_node30"><a xlink:href="Check_8h_source.html" target="_top" xlink:title="QualityControl/Check.h">
<polygon fill="none" stroke="black" points="1238.8,-230 1238.8,-249 1357.8,-249 1357.8,-230 1238.8,-230"/>
<text text-anchor="middle" x="1298.3" y="-237" font-family="Helvetica,sans-Serif" font-size="10.00">QualityControl/Check.h</text>
</a>
</g>
</g>
<!-- Node8&#45;&gt;Node30 -->
<g id="edge48" class="edge"><title>Node8&#45;&gt;Node30</title>
<path fill="none" stroke="midnightblue" d="M829.379,-291.994C832.731,-291.654 836.049,-291.322 839.298,-291 1012.96,-273.812 1057.77,-281.243 1230.3,-255 1237.44,-253.914 1244.95,-252.544 1252.28,-251.082"/>
<polygon fill="midnightblue" stroke="midnightblue" points="1253.01,-254.504 1262.09,-249.05 1251.59,-247.65 1253.01,-254.504"/>
</g>
<!-- Node18&#45;&gt;Node5 -->
<g id="edge20" class="edge"><title>Node18&#45;&gt;Node5</title>
<path fill="none" stroke="midnightblue" d="M1371.81,-168.465C1338.83,-155.505 1273.64,-130.425 1217.3,-112 1131.19,-83.842 1109.55,-76.4949 1021.3,-56 942.822,-37.7747 849.039,-22.6452 801.758,-15.4741"/>
<polygon fill="midnightblue" stroke="midnightblue" points="802.264,-12.011 791.855,-13.9857 801.224,-18.9332 802.264,-12.011"/>
</g>
<!-- Node18&#45;&gt;Node11 -->
<g id="edge21" class="edge"><title>Node18&#45;&gt;Node11</title>
<path fill="none" stroke="midnightblue" d="M1365.22,-168.49C1323.03,-155.776 1240.7,-131.256 1170.3,-112 1117.92,-97.6737 1056.38,-82.2613 1021.7,-73.7051"/>
<polygon fill="midnightblue" stroke="midnightblue" points="1022.38,-70.2695 1011.83,-71.2786 1020.71,-77.0668 1022.38,-70.2695"/>
</g>
<!-- Node19 -->
<g id="node19" class="node"><title>Node19</title>
<polygon fill="none" stroke="#bfbfbf" points="870.298,-0.5 870.298,-19.5 926.298,-19.5 926.298,-0.5 870.298,-0.5"/>
<text text-anchor="middle" x="898.298" y="-7.5" font-family="Helvetica,sans-Serif" font-size="10.00">Rtypes.h</text>
</g>
<!-- Node18&#45;&gt;Node19 -->
<g id="edge22" class="edge"><title>Node18&#45;&gt;Node19</title>
<path fill="none" stroke="midnightblue" d="M1395.88,-168.499C1402,-146.444 1414.7,-86.9603 1384.3,-56 1353.13,-24.2592 1046.04,-14.3118 936.704,-11.762"/>
<polygon fill="midnightblue" stroke="midnightblue" points="936.533,-8.25738 926.456,-11.5314 936.375,-15.2556 936.533,-8.25738"/>
</g>
<!-- Node18&#45;&gt;Node20 -->
<g id="edge23" class="edge"><title>Node18&#45;&gt;Node20</title>
<path fill="none" stroke="midnightblue" d="M1314.62,-168.892C1311.47,-168.587 1308.36,-168.288 1305.3,-168 1152,-153.541 973.147,-138.489 869.887,-129.976"/>
<polygon fill="midnightblue" stroke="midnightblue" points="870.08,-126.481 859.826,-129.148 869.505,-133.457 870.08,-126.481"/>
</g>
<!-- Node23 -->
<g id="node23" class="node"><title>Node23</title>
<g id="a_node23"><a xlink:href="Quality_8h.html" target="_top" xlink:title="QualityControl/Quality.h">
<polygon fill="none" stroke="black" points="837.798,-56.5 837.798,-75.5 958.798,-75.5 958.798,-56.5 837.798,-56.5"/>
<text text-anchor="middle" x="898.298" y="-63.5" font-family="Helvetica,sans-Serif" font-size="10.00">QualityControl/Quality.h</text>
</a>
</g>
</g>
<!-- Node18&#45;&gt;Node23 -->
<g id="edge32" class="edge"><title>Node18&#45;&gt;Node23</title>
<path fill="none" stroke="midnightblue" d="M1340.55,-168.478C1295.05,-160.625 1227.8,-147.809 1170.3,-132 1144.41,-124.883 1139.16,-119.21 1113.3,-112 1061.61,-97.5886 1001.78,-85.4238 958.38,-77.3902"/>
<polygon fill="midnightblue" stroke="midnightblue" points="958.739,-73.8977 948.272,-75.5387 957.478,-80.7831 958.739,-73.8977"/>
</g>
<!-- Node20&#45;&gt;Node5 -->
<g id="edge24" class="edge"><title>Node20&#45;&gt;Node5</title>
<path fill="none" stroke="midnightblue" d="M783.277,-112.368C781.18,-94.617 776.34,-53.6664 773.495,-29.5974"/>
<polygon fill="midnightblue" stroke="midnightblue" points="776.962,-29.1115 772.313,-19.5914 770.011,-29.9331 776.962,-29.1115"/>
</g>
<!-- Node20&#45;&gt;Node11 -->
<g id="edge25" class="edge"><title>Node20&#45;&gt;Node11</title>
<path fill="none" stroke="midnightblue" d="M823.705,-112.483C859.036,-104.599 912.45,-92.0682 966.927,-76.2152"/>
<polygon fill="midnightblue" stroke="midnightblue" points="968.143,-79.5058 976.747,-73.3241 966.166,-72.7908 968.143,-79.5058"/>
</g>
<!-- Node20&#45;&gt;Node19 -->
<g id="edge26" class="edge"><title>Node20&#45;&gt;Node19</title>
<path fill="none" stroke="midnightblue" d="M788.915,-112.212C796.201,-98.9226 811.392,-73.4176 829.298,-56 842.041,-43.6035 858.679,-32.6353 872.424,-24.6313"/>
<polygon fill="midnightblue" stroke="midnightblue" points="874.396,-27.5376 881.394,-19.5825 870.962,-21.4374 874.396,-27.5376"/>
</g>
<!-- Node21 -->
<g id="node21" class="node"><title>Node21</title>
<polygon fill="none" stroke="#bfbfbf" points="683.798,-56.5 683.798,-75.5 742.798,-75.5 742.798,-56.5 683.798,-56.5"/>
<text text-anchor="middle" x="713.298" y="-63.5" font-family="Helvetica,sans-Serif" font-size="10.00">TObject.h</text>
</g>
<!-- Node20&#45;&gt;Node21 -->
<g id="edge27" class="edge"><title>Node20&#45;&gt;Node21</title>
<path fill="none" stroke="midnightblue" d="M772.89,-112.324C762.189,-104.185 745.957,-91.8395 733.135,-82.0874"/>
<polygon fill="midnightblue" stroke="midnightblue" points="734.991,-79.1018 724.912,-75.8339 730.753,-84.6734 734.991,-79.1018"/>
</g>
<!-- Node22 -->
<g id="node22" class="node"><title>Node22</title>
<polygon fill="none" stroke="#bfbfbf" points="549.298,-56.5 549.298,-75.5 665.298,-75.5 665.298,-56.5 549.298,-56.5"/>
<text text-anchor="middle" x="607.298" y="-63.5" font-family="Helvetica,sans-Serif" font-size="10.00">Common/Exceptions.h</text>
</g>
<!-- Node20&#45;&gt;Node22 -->
<g id="edge28" class="edge"><title>Node20&#45;&gt;Node22</title>
<path fill="none" stroke="midnightblue" d="M756.251,-112.444C726.216,-103.28 678.385,-88.6876 645.055,-78.5192"/>
<polygon fill="midnightblue" stroke="midnightblue" points="645.799,-75.0869 635.212,-75.5164 643.756,-81.7822 645.799,-75.0869"/>
</g>
<!-- Node20&#45;&gt;Node23 -->
<g id="edge29" class="edge"><title>Node20&#45;&gt;Node23</title>
<path fill="none" stroke="midnightblue" d="M802.361,-112.444C820.872,-103.675 849.878,-89.9355 871.153,-79.8579"/>
<polygon fill="midnightblue" stroke="midnightblue" points="872.779,-82.9604 880.318,-75.5164 869.783,-76.6343 872.779,-82.9604"/>
</g>
<!-- Node23&#45;&gt;Node5 -->
<g id="edge31" class="edge"><title>Node23&#45;&gt;Node5</title>
<path fill="none" stroke="midnightblue" d="M878.174,-56.4435C857.273,-47.5566 824.363,-33.5632 800.581,-23.4514"/>
<polygon fill="midnightblue" stroke="midnightblue" points="801.899,-20.2085 791.327,-19.5164 799.16,-26.6504 801.899,-20.2085"/>
</g>
<!-- Node23&#45;&gt;Node19 -->
<g id="edge30" class="edge"><title>Node23&#45;&gt;Node19</title>
<path fill="none" stroke="midnightblue" d="M898.298,-56.083C898.298,-49.0059 898.298,-38.8611 898.298,-29.9865"/>
<polygon fill="midnightblue" stroke="midnightblue" points="901.798,-29.751 898.298,-19.7511 894.798,-29.7511 901.798,-29.751"/>
</g>
<!-- Node24&#45;&gt;Node4 -->
<g id="edge36" class="edge"><title>Node24&#45;&gt;Node4</title>
<path fill="none" stroke="midnightblue" d="M354.827,-229.975C338.327,-220.255 311.119,-204.227 291.616,-192.737"/>
<polygon fill="midnightblue" stroke="midnightblue" points="293.134,-189.569 282.742,-187.509 289.581,-195.601 293.134,-189.569"/>
</g>
<!-- Node24&#45;&gt;Node5 -->
<g id="edge34" class="edge"><title>Node24&#45;&gt;Node5</title>
<path fill="none" stroke="midnightblue" d="M360.256,-229.803C347.554,-216.478 327.061,-190.219 337.298,-168 369.349,-98.4275 398.587,-87.7516 468.298,-56 560.823,-13.8565 684.136,-9.56144 740.652,-10.0883"/>
<polygon fill="midnightblue" stroke="midnightblue" points="740.669,-13.5889 750.721,-10.2415 740.775,-6.58972 740.669,-13.5889"/>
</g>
<!-- Node24&#45;&gt;Node10 -->
<g id="edge35" class="edge"><title>Node24&#45;&gt;Node10</title>
<path fill="none" stroke="midnightblue" d="M395.23,-229.975C426.547,-219.68 479.387,-202.31 514.553,-190.75"/>
<polygon fill="midnightblue" stroke="midnightblue" points="516.006,-193.957 524.413,-187.509 513.82,-187.307 516.006,-193.957"/>
</g>
<!-- Node24&#45;&gt;Node20 -->
<g id="edge44" class="edge"><title>Node24&#45;&gt;Node20</title>
<path fill="none" stroke="midnightblue" d="M389.388,-229.831C411.61,-220.115 448.365,-203.664 479.298,-188 495.627,-179.731 498.02,-174.042 515.298,-168 549.84,-155.92 640.732,-142.023 707.337,-132.906"/>
<polygon fill="midnightblue" stroke="midnightblue" points="707.954,-136.355 717.392,-131.541 707.012,-129.419 707.954,-136.355"/>
</g>
<!-- Node25 -->
<g id="node25" class="node"><title>Node25</title>
<polygon fill="none" stroke="#bfbfbf" points="346.798,-168.5 346.798,-187.5 429.798,-187.5 429.798,-168.5 346.798,-168.5"/>
<text text-anchor="middle" x="388.298" y="-175.5" font-family="Helvetica,sans-Serif" font-size="10.00">unordered_map</text>
</g>
<!-- Node24&#45;&gt;Node25 -->
<g id="edge37" class="edge"><title>Node24&#45;&gt;Node25</title>
<path fill="none" stroke="midnightblue" d="M372.02,-229.975C374.729,-221.492 378.972,-208.204 382.447,-197.322"/>
<polygon fill="midnightblue" stroke="midnightblue" points="385.872,-198.1 385.58,-187.509 379.204,-195.97 385.872,-198.1"/>
</g>
<!-- Node24&#45;&gt;Node26 -->
<g id="edge38" class="edge"><title>Node24&#45;&gt;Node26</title>
<path fill="none" stroke="midnightblue" d="M381.355,-229.802C401.51,-215.537 443.65,-186.872 482.298,-168 509.773,-154.583 542.323,-142.845 567.034,-134.724"/>
<polygon fill="midnightblue" stroke="midnightblue" points="568.329,-137.984 576.768,-131.578 566.176,-131.323 568.329,-137.984"/>
</g>
<!-- Node26&#45;&gt;Node11 -->
<g id="edge40" class="edge"><title>Node26&#45;&gt;Node11</title>
<path fill="none" stroke="midnightblue" d="M680.108,-113.597C765.385,-104.846 900.572,-89.9527 966.561,-75.9387"/>
<polygon fill="midnightblue" stroke="midnightblue" points="967.549,-79.3041 976.539,-73.6982 966.016,-72.4741 967.549,-79.3041"/>
</g>
<!-- Node26&#45;&gt;Node21 -->
<g id="edge41" class="edge"><title>Node26&#45;&gt;Node21</title>
<path fill="none" stroke="midnightblue" d="M622.65,-112.324C639.969,-103.664 666.813,-90.2424 686.799,-80.249"/>
<polygon fill="midnightblue" stroke="midnightblue" points="688.609,-83.2572 695.989,-75.6545 685.479,-76.9962 688.609,-83.2572"/>
</g>
<!-- Node26&#45;&gt;Node22 -->
<g id="edge42" class="edge"><title>Node26&#45;&gt;Node22</title>
<path fill="none" stroke="midnightblue" d="M605.628,-112.083C605.89,-105.006 606.266,-94.8611 606.594,-85.9865"/>
<polygon fill="midnightblue" stroke="midnightblue" points="610.101,-85.8738 606.973,-75.7511 603.106,-85.6147 610.101,-85.8738"/>
</g>
<!-- Node26&#45;&gt;Node23 -->
<g id="edge43" class="edge"><title>Node26&#45;&gt;Node23</title>
<path fill="none" stroke="midnightblue" d="M651.724,-112.444C703.373,-102.925 786.81,-87.5472 842.105,-77.3563"/>
<polygon fill="midnightblue" stroke="midnightblue" points="842.888,-80.771 852.088,-75.5164 841.619,-73.887 842.888,-80.771"/>
</g>
<!-- Node27 -->
<g id="node27" class="node"><title>Node27</title>
<polygon fill="none" stroke="#bfbfbf" points="477.298,-56.5 477.298,-75.5 531.298,-75.5 531.298,-56.5 477.298,-56.5"/>
<text text-anchor="middle" x="504.298" y="-63.5" font-family="Helvetica,sans-Serif" font-size="10.00">iostream</text>
</g>
<!-- Node26&#45;&gt;Node27 -->
<g id="edge39" class="edge"><title>Node26&#45;&gt;Node27</title>
<path fill="none" stroke="midnightblue" d="M589.07,-112.324C572.946,-103.703 547.997,-90.3643 529.333,-80.3855"/>
<polygon fill="midnightblue" stroke="midnightblue" points="530.954,-77.283 520.485,-75.6545 527.653,-83.456 530.954,-77.283"/>
</g>
<!-- Node29 -->
<g id="node29" class="node"><title>Node29</title>
<polygon fill="none" stroke="#bfbfbf" points="974.298,-112.5 974.298,-131.5 1104.3,-131.5 1104.3,-112.5 974.298,-112.5"/>
<text text-anchor="middle" x="1039.3" y="-119.5" font-family="Helvetica,sans-Serif" font-size="10.00">InfoLogger/InfoLogger.hxx</text>
</g>
<!-- Node28&#45;&gt;Node29 -->
<g id="edge47" class="edge"><title>Node28&#45;&gt;Node29</title>
<path fill="none" stroke="midnightblue" d="M1039.3,-168.083C1039.3,-161.006 1039.3,-150.861 1039.3,-141.986"/>
<polygon fill="midnightblue" stroke="midnightblue" points="1042.8,-141.751 1039.3,-131.751 1035.8,-141.751 1042.8,-141.751"/>
</g>
<!-- Node30&#45;&gt;Node4 -->
<g id="edge51" class="edge"><title>Node30&#45;&gt;Node4</title>
<path fill="none" stroke="midnightblue" d="M1263.9,-229.979C1253.2,-227.649 1241.32,-225.387 1230.3,-224 836.195,-174.403 733.075,-221.721 337.298,-188 325.225,-186.971 312.021,-185.367 300.425,-183.797"/>
<polygon fill="midnightblue" stroke="midnightblue" points="300.695,-180.3 290.306,-182.381 299.725,-187.233 300.695,-180.3"/>
</g>
<!-- Node30&#45;&gt;Node10 -->
<g id="edge52" class="edge"><title>Node30&#45;&gt;Node10</title>
<path fill="none" stroke="midnightblue" d="M1263.18,-229.935C1252.67,-227.662 1241.07,-225.442 1230.3,-224 947.925,-186.181 872.454,-227.403 590.298,-188 589.029,-187.823 587.74,-187.626 586.442,-187.413"/>
<polygon fill="midnightblue" stroke="midnightblue" points="586.909,-183.94 576.434,-185.531 585.614,-190.819 586.909,-183.94"/>
</g>
<!-- Node30&#45;&gt;Node11 -->
<g id="edge50" class="edge"><title>Node30&#45;&gt;Node11</title>
<path fill="none" stroke="midnightblue" d="M1260.99,-229.987C1251.05,-227.871 1240.29,-225.719 1230.3,-224 1169.77,-213.588 996.795,-234.167 956.298,-188 929.801,-157.794 960.388,-109.168 980.141,-83.7315"/>
<polygon fill="midnightblue" stroke="midnightblue" points="983.009,-85.7501 986.564,-75.7695 977.561,-81.3547 983.009,-85.7501"/>
</g>
<!-- Node30&#45;&gt;Node17 -->
<g id="edge53" class="edge"><title>Node30&#45;&gt;Node17</title>
<path fill="none" stroke="midnightblue" d="M1286.26,-229.975C1272.79,-220.431 1250.73,-204.807 1234.58,-193.368"/>
<polygon fill="midnightblue" stroke="midnightblue" points="1236.49,-190.433 1226.31,-187.509 1232.45,-196.145 1236.49,-190.433"/>
</g>
<!-- Node30&#45;&gt;Node18 -->
<g id="edge57" class="edge"><title>Node30&#45;&gt;Node18</title>
<path fill="none" stroke="midnightblue" d="M1311.91,-229.975C1327.36,-220.299 1352.79,-204.372 1371.11,-192.894"/>
<polygon fill="midnightblue" stroke="midnightblue" points="1373.09,-195.783 1379.71,-187.509 1369.38,-189.851 1373.09,-195.783"/>
</g>
<!-- Node30&#45;&gt;Node20 -->
<g id="edge56" class="edge"><title>Node30&#45;&gt;Node20</title>
<path fill="none" stroke="midnightblue" d="M1261.73,-229.957C1251.59,-227.793 1240.55,-225.623 1230.3,-224 1078.03,-199.891 1030.75,-239.108 885.298,-188 853.224,-176.73 821.04,-153.453 801.894,-138.032"/>
<polygon fill="midnightblue" stroke="midnightblue" points="804.003,-135.235 794.062,-131.571 799.549,-140.635 804.003,-135.235"/>
</g>
<!-- Node30&#45;&gt;Node23 -->
<g id="edge54" class="edge"><title>Node30&#45;&gt;Node23</title>
<path fill="none" stroke="midnightblue" d="M1261,-229.944C1251.05,-227.829 1240.3,-225.688 1230.3,-224 1166.7,-213.265 992.724,-228.213 942.298,-188 910.797,-162.879 901.842,-113.147 899.301,-85.9148"/>
<polygon fill="midnightblue" stroke="midnightblue" points="902.778,-85.4765 898.557,-75.7588 895.797,-85.9877 902.778,-85.4765"/>
</g>
<!-- Node30&#45;&gt;Node26 -->
<g id="edge55" class="edge"><title>Node30&#45;&gt;Node26</title>
<path fill="none" stroke="midnightblue" d="M1262.46,-229.927C1252.13,-227.71 1240.81,-225.521 1230.3,-224 1025.15,-194.32 967.049,-235.574 765.298,-188 715.793,-176.327 661.639,-151.582 630.736,-136.215"/>
<polygon fill="midnightblue" stroke="midnightblue" points="632.059,-132.963 621.555,-131.584 628.907,-139.213 632.059,-132.963"/>
</g>
<!-- Node30&#45;&gt;Node28 -->
<g id="edge58" class="edge"><title>Node30&#45;&gt;Node28</title>
<path fill="none" stroke="midnightblue" d="M1261.19,-229.975C1215.13,-219.393 1136.52,-201.336 1086.29,-189.797"/>
<polygon fill="midnightblue" stroke="midnightblue" points="1086.87,-186.337 1076.34,-187.509 1085.3,-193.159 1086.87,-186.337"/>
</g>
<!-- Node31 -->
<g id="node31" class="node"><title>Node31</title>
<polygon fill="none" stroke="#bfbfbf" points="773.798,-168.5 773.798,-187.5 832.798,-187.5 832.798,-168.5 773.798,-168.5"/>
<text text-anchor="middle" x="803.298" y="-175.5" font-family="Helvetica,sans-Serif" font-size="10.00">functional</text>
</g>
<!-- Node30&#45;&gt;Node31 -->
<g id="edge49" class="edge"><title>Node30&#45;&gt;Node31</title>
<path fill="none" stroke="midnightblue" d="M1262.09,-229.963C1251.86,-227.773 1240.68,-225.589 1230.3,-224 1061.29,-198.128 1016.41,-213.168 847.298,-188 845.851,-187.785 844.381,-187.553 842.898,-187.308"/>
<polygon fill="midnightblue" stroke="midnightblue" points="843.504,-183.861 833.042,-185.538 842.266,-190.75 843.504,-183.861"/>
</g>
<!-- Node32&#45;&gt;Node5 -->
<g id="edge61" class="edge"><title>Node32&#45;&gt;Node5</title>
<path fill="none" stroke="midnightblue" d="M985.186,-291.912C988.264,-291.594 991.313,-291.289 994.298,-291 1096.58,-281.109 1361.04,-295.928 1455.3,-255 1501.18,-235.078 1538.3,-229.017 1538.3,-179 1538.3,-179 1538.3,-179 1538.3,-121 1538.3,-102.071 945.098,-31.3615 802.057,-14.586"/>
<polygon fill="midnightblue" stroke="midnightblue" points="802.152,-11.0733 791.813,-13.3866 801.338,-18.0258 802.152,-11.0733"/>
</g>
<!-- Node33 -->
<g id="node33" class="node"><title>Node33</title>
<polygon fill="none" stroke="#bfbfbf" points="1566.8,-224.5 1566.8,-254.5 1701.8,-254.5 1701.8,-224.5 1566.8,-224.5"/>
<text text-anchor="start" x="1574.8" y="-242.5" font-family="Helvetica,sans-Serif" font-size="10.00">Configuration/Configuration</text>
<text text-anchor="middle" x="1634.3" y="-231.5" font-family="Helvetica,sans-Serif" font-size="10.00">Factory.h</text>
</g>
<!-- Node32&#45;&gt;Node33 -->
<g id="edge62" class="edge"><title>Node32&#45;&gt;Node33</title>
<path fill="none" stroke="midnightblue" d="M985.182,-291.861C988.261,-291.557 991.311,-291.268 994.298,-291 1241.82,-268.75 1305.56,-284.682 1552.3,-255 1553.59,-254.845 1554.89,-254.682 1556.2,-254.513"/>
<polygon fill="midnightblue" stroke="midnightblue" points="1556.94,-257.944 1566.37,-253.108 1555.99,-251.01 1556.94,-257.944"/>
</g>
</g>
</svg>
