<?xml version="1.0" encoding="UTF-8" standalone="no"?>
<!DOCTYPE svg PUBLIC "-//W3C//DTD SVG 1.1//EN"
 "http://www.w3.org/Graphics/SVG/1.1/DTD/svg11.dtd">
<!-- Generated by graphviz version 2.38.0 (20140413.2041)
 -->
<!-- Title: Modules/Example/test/testQcExample.cxx Pages: 1 -->
<svg width="1097pt" height="386pt"
 viewBox="0.00 0.00 1096.67 386.00" xmlns="http://www.w3.org/2000/svg" xmlns:xlink="http://www.w3.org/1999/xlink">
<g id="graph0" class="graph" transform="scale(1 1) rotate(0) translate(4 382)">
<title>Modules/Example/test/testQcExample.cxx</title>
<!-- Node1 -->
<g id="node1" class="node"><title>Node1</title>
<polygon fill="#bfbfbf" stroke="black" points="799.671,-347.5 799.671,-377.5 913.671,-377.5 913.671,-347.5 799.671,-347.5"/>
<text text-anchor="start" x="807.671" y="-365.5" font-family="Helvetica,sans-Serif" font-size="10.00">Modules/Example/test</text>
<text text-anchor="middle" x="856.671" y="-354.5" font-family="Helvetica,sans-Serif" font-size="10.00">/testQcExample.cxx</text>
</g>
<!-- Node2 -->
<g id="node2" class="node"><title>Node2</title>
<g id="a_node2"><a xlink:href="ExampleTask_8h.html" target="_top" xlink:title="../include/Example\l/ExampleTask.h">
<polygon fill="none" stroke="black" points="476.671,-280.5 476.671,-310.5 574.671,-310.5 574.671,-280.5 476.671,-280.5"/>
<text text-anchor="start" x="484.671" y="-298.5" font-family="Helvetica,sans-Serif" font-size="10.00">../include/Example</text>
<text text-anchor="middle" x="525.671" y="-287.5" font-family="Helvetica,sans-Serif" font-size="10.00">/ExampleTask.h</text>
</a>
</g>
</g>
<!-- Node1&#45;&gt;Node2 -->
<g id="edge1" class="edge"><title>Node1&#45;&gt;Node2</title>
<path fill="none" stroke="midnightblue" d="M799.393,-350.252C739.274,-338.446 645.227,-319.978 584.523,-308.057"/>
<polygon fill="midnightblue" stroke="midnightblue" points="585.194,-304.622 574.707,-306.129 583.845,-311.491 585.194,-304.622"/>
</g>
<!-- Node18 -->
<g id="node18" class="node"><title>Node18</title>
<g id="a_node18"><a xlink:href="TaskFactory_8h.html" target="_top" xlink:title="QualityControl/TaskFactory.h">
<polygon fill="none" stroke="black" points="661.171,-286 661.171,-305 806.171,-305 806.171,-286 661.171,-286"/>
<text text-anchor="middle" x="733.671" y="-293" font-family="Helvetica,sans-Serif" font-size="10.00">QualityControl/TaskFactory.h</text>
</a>
</g>
</g>
<!-- Node1&#45;&gt;Node18 -->
<g id="edge26" class="edge"><title>Node1&#45;&gt;Node18</title>
<path fill="none" stroke="midnightblue" d="M829.982,-347.396C808.782,-336.193 779.354,-320.641 758.622,-309.685"/>
<polygon fill="midnightblue" stroke="midnightblue" points="760.246,-306.585 749.769,-305.007 756.975,-312.774 760.246,-306.585"/>
</g>
<!-- Node19 -->
<g id="node19" class="node"><title>Node19</title>
<polygon fill="none" stroke="#bfbfbf" points="824.171,-286 824.171,-305 889.171,-305 889.171,-286 824.171,-286"/>
<text text-anchor="middle" x="856.671" y="-293" font-family="Helvetica,sans-Serif" font-size="10.00">TSystem.h</text>
</g>
<!-- Node1&#45;&gt;Node19 -->
<g id="edge30" class="edge"><title>Node1&#45;&gt;Node19</title>
<path fill="none" stroke="midnightblue" d="M856.671,-347.396C856.671,-338.064 856.671,-325.714 856.671,-315.517"/>
<polygon fill="midnightblue" stroke="midnightblue" points="860.171,-315.195 856.671,-305.195 853.171,-315.195 860.171,-315.195"/>
</g>
<!-- Node20 -->
<g id="node20" class="node"><title>Node20</title>
<polygon fill="none" stroke="#bfbfbf" points="907.171,-286 907.171,-305 1026.17,-305 1026.17,-286 907.171,-286"/>
<text text-anchor="middle" x="966.671" y="-293" font-family="Helvetica,sans-Serif" font-size="10.00">boost/test/unit_test.hpp</text>
</g>
<!-- Node1&#45;&gt;Node20 -->
<g id="edge31" class="edge"><title>Node1&#45;&gt;Node20</title>
<path fill="none" stroke="midnightblue" d="M880.54,-347.396C899.242,-336.344 925.107,-321.061 943.602,-310.132"/>
<polygon fill="midnightblue" stroke="midnightblue" points="945.446,-313.108 952.275,-305.007 941.885,-307.081 945.446,-313.108"/>
</g>
<!-- Node21 -->
<g id="node21" class="node"><title>Node21</title>
<polygon fill="none" stroke="#bfbfbf" points="1044.67,-286 1044.67,-305 1088.67,-305 1088.67,-286 1044.67,-286"/>
<text text-anchor="middle" x="1066.67" y="-293" font-family="Helvetica,sans-Serif" font-size="10.00">TH1.h</text>
</g>
<!-- Node1&#45;&gt;Node21 -->
<g id="edge32" class="edge"><title>Node1&#45;&gt;Node21</title>
<path fill="none" stroke="midnightblue" d="M913.861,-347.896C949.383,-338.827 995.725,-325.865 1035.67,-311 1037.1,-310.469 1038.55,-309.899 1040.01,-309.303"/>
<polygon fill="midnightblue" stroke="midnightblue" points="1041.75,-312.359 1049.5,-305.135 1038.94,-305.949 1041.75,-312.359"/>
</g>
<!-- Node3 -->
<g id="node3" class="node"><title>Node3</title>
<g id="a_node3"><a xlink:href="TaskInterface_8h.html" target="_top" xlink:title="QualityControl/TaskInterface.h">
<polygon fill="none" stroke="black" points="315.671,-224.5 315.671,-243.5 465.671,-243.5 465.671,-224.5 315.671,-224.5"/>
<text text-anchor="middle" x="390.671" y="-231.5" font-family="Helvetica,sans-Serif" font-size="10.00">QualityControl/TaskInterface.h</text>
</a>
</g>
</g>
<!-- Node2&#45;&gt;Node3 -->
<g id="edge2" class="edge"><title>Node2&#45;&gt;Node3</title>
<path fill="none" stroke="midnightblue" d="M493.678,-280.399C471.23,-270.505 441.457,-257.383 419.695,-247.792"/>
<polygon fill="midnightblue" stroke="midnightblue" points="420.877,-244.488 410.315,-243.658 418.054,-250.894 420.877,-244.488"/>
</g>
<!-- Node4 -->
<g id="node4" class="node"><title>Node4</title>
<polygon fill="none" stroke="#bfbfbf" points="30.1712,-56.5 30.1712,-75.5 65.1712,-75.5 65.1712,-56.5 30.1712,-56.5"/>
<text text-anchor="middle" x="47.6712" y="-63.5" font-family="Helvetica,sans-Serif" font-size="10.00">map</text>
</g>
<!-- Node3&#45;&gt;Node4 -->
<g id="edge3" class="edge"><title>Node3&#45;&gt;Node4</title>
<path fill="none" stroke="midnightblue" d="M315.33,-232.583C230.754,-230.443 100.853,-221.58 66.6712,-188 39.3291,-161.139 41.0708,-112.117 44.4955,-85.4576"/>
<polygon fill="midnightblue" stroke="midnightblue" points="47.9622,-85.9401 45.9864,-75.5312 41.0398,-84.9004 47.9622,-85.9401"/>
</g>
<!-- Node5 -->
<g id="node5" class="node"><title>Node5</title>
<polygon fill="none" stroke="#bfbfbf" points="548.671,-112.5 548.671,-131.5 600.671,-131.5 600.671,-112.5 548.671,-112.5"/>
<text text-anchor="middle" x="574.671" y="-119.5" font-family="Helvetica,sans-Serif" font-size="10.00">memory</text>
</g>
<!-- Node3&#45;&gt;Node5 -->
<g id="edge4" class="edge"><title>Node3&#45;&gt;Node5</title>
<path fill="none" stroke="midnightblue" d="M351.525,-224.498C312.433,-214.258 261.278,-195.003 284.671,-168 321.423,-125.577 479.471,-142.168 534.671,-132 535.931,-131.768 537.212,-131.524 538.504,-131.271"/>
<polygon fill="midnightblue" stroke="midnightblue" points="539.401,-134.659 548.481,-129.201 537.979,-127.805 539.401,-134.659"/>
</g>
<!-- Node6 -->
<g id="node6" class="node"><title>Node6</title>
<polygon fill="none" stroke="#bfbfbf" points="462.171,-0.5 462.171,-19.5 503.171,-19.5 503.171,-0.5 462.171,-0.5"/>
<text text-anchor="middle" x="482.671" y="-7.5" font-family="Helvetica,sans-Serif" font-size="10.00">string</text>
</g>
<!-- Node3&#45;&gt;Node6 -->
<g id="edge5" class="edge"><title>Node3&#45;&gt;Node6</title>
<path fill="none" stroke="midnightblue" d="M315.502,-232.6C227.212,-230.544 87.9096,-221.831 49.6712,-188 4.68484,-148.199 -19.6906,-100.484 20.6712,-56 49.6394,-24.0731 352.958,-14.0793 451.755,-11.6587"/>
<polygon fill="midnightblue" stroke="midnightblue" points="452.064,-15.1525 461.978,-11.4176 451.899,-8.15441 452.064,-15.1525"/>
</g>
<!-- Node7 -->
<g id="node7" class="node"><title>Node7</title>
<polygon fill="none" stroke="#bfbfbf" points="746.171,-56.5 746.171,-75.5 829.171,-75.5 829.171,-56.5 746.171,-56.5"/>
<text text-anchor="middle" x="787.671" y="-63.5" font-family="Helvetica,sans-Serif" font-size="10.00">unordered_map</text>
</g>
<!-- Node3&#45;&gt;Node7 -->
<g id="edge6" class="edge"><title>Node3&#45;&gt;Node7</title>
<path fill="none" stroke="midnightblue" d="M466.061,-231.488C557.037,-228.313 703.333,-218.476 747.671,-188 780.843,-165.199 787.069,-113.694 787.894,-85.799"/>
<polygon fill="midnightblue" stroke="midnightblue" points="791.394,-85.7816 787.984,-75.7507 784.395,-85.7189 791.394,-85.7816"/>
</g>
<!-- Node8 -->
<g id="node8" class="node"><title>Node8</title>
<polygon fill="none" stroke="#bfbfbf" points="294.171,-168.5 294.171,-187.5 419.171,-187.5 419.171,-168.5 294.171,-168.5"/>
<text text-anchor="middle" x="356.671" y="-175.5" font-family="Helvetica,sans-Serif" font-size="10.00">Framework/InitContext.h</text>
</g>
<!-- Node3&#45;&gt;Node8 -->
<g id="edge7" class="edge"><title>Node3&#45;&gt;Node8</title>
<path fill="none" stroke="midnightblue" d="M385.057,-224.083C380.304,-216.534 373.353,-205.495 367.52,-196.23"/>
<polygon fill="midnightblue" stroke="midnightblue" points="370.471,-194.349 362.181,-187.751 364.547,-198.078 370.471,-194.349"/>
</g>
<!-- Node9 -->
<g id="node9" class="node"><title>Node9</title>
<polygon fill="none" stroke="#bfbfbf" points="437.671,-168.5 437.671,-187.5 597.671,-187.5 597.671,-168.5 437.671,-168.5"/>
<text text-anchor="middle" x="517.671" y="-175.5" font-family="Helvetica,sans-Serif" font-size="10.00">Framework/ProcessingContext.h</text>
</g>
<!-- Node3&#45;&gt;Node9 -->
<g id="edge8" class="edge"><title>Node3&#45;&gt;Node9</title>
<path fill="none" stroke="midnightblue" d="M410.795,-224.444C431.695,-215.557 464.606,-201.563 488.387,-191.451"/>
<polygon fill="midnightblue" stroke="midnightblue" points="489.809,-194.65 497.642,-187.516 487.07,-188.208 489.809,-194.65"/>
</g>
<!-- Node10 -->
<g id="node10" class="node"><title>Node10</title>
<g id="a_node10"><a xlink:href="Activity_8h.html" target="_top" xlink:title="QualityControl/Activity.h">
<polygon fill="none" stroke="black" points="616.171,-168.5 616.171,-187.5 739.171,-187.5 739.171,-168.5 616.171,-168.5"/>
<text text-anchor="middle" x="677.671" y="-175.5" font-family="Helvetica,sans-Serif" font-size="10.00">QualityControl/Activity.h</text>
</a>
</g>
</g>
<!-- Node3&#45;&gt;Node10 -->
<g id="edge9" class="edge"><title>Node3&#45;&gt;Node10</title>
<path fill="none" stroke="midnightblue" d="M436.147,-224.444C486.633,-214.944 568.128,-199.611 622.292,-189.42"/>
<polygon fill="midnightblue" stroke="midnightblue" points="623.228,-192.805 632.408,-187.516 621.933,-185.926 623.228,-192.805"/>
</g>
<!-- Node11 -->
<g id="node11" class="node"><title>Node11</title>
<g id="a_node11"><a xlink:href="ObjectsManager_8h.html" target="_top" xlink:title="QualityControl/ObjectsManager.h">
<polygon fill="none" stroke="black" points="76.1712,-168.5 76.1712,-187.5 237.171,-187.5 237.171,-168.5 76.1712,-168.5"/>
<text text-anchor="middle" x="156.671" y="-175.5" font-family="Helvetica,sans-Serif" font-size="10.00">QualityControl/ObjectsManager.h</text>
</a>
</g>
</g>
<!-- Node3&#45;&gt;Node11 -->
<g id="edge10" class="edge"><title>Node3&#45;&gt;Node11</title>
<path fill="none" stroke="midnightblue" d="M353.593,-224.444C312.944,-215.063 247.639,-199.993 203.487,-189.804"/>
<polygon fill="midnightblue" stroke="midnightblue" points="204.107,-186.355 193.576,-187.516 202.533,-193.175 204.107,-186.355"/>
</g>
<!-- Node11&#45;&gt;Node5 -->
<g id="edge25" class="edge"><title>Node11&#45;&gt;Node5</title>
<path fill="none" stroke="midnightblue" d="M236.417,-168.482C329.907,-158.324 479.142,-141.526 534.671,-132 535.934,-131.783 537.217,-131.553 538.511,-131.311"/>
<polygon fill="midnightblue" stroke="midnightblue" points="539.389,-134.704 548.498,-129.294 538.003,-127.843 539.389,-134.704"/>
</g>
<!-- Node11&#45;&gt;Node6 -->
<g id="edge24" class="edge"><title>Node11&#45;&gt;Node6</title>
<path fill="none" stroke="midnightblue" d="M210.581,-168.465C295.04,-153.841 452.193,-121.144 483.671,-76 492.942,-62.7051 491.496,-43.8714 488.441,-29.897"/>
<polygon fill="midnightblue" stroke="midnightblue" points="491.748,-28.7106 485.819,-19.9302 484.978,-30.4916 491.748,-28.7106"/>
</g>
<!-- Node12 -->
<g id="node12" class="node"><title>Node12</title>
<g id="a_node12"><a xlink:href="MonitorObject_8h.html" target="_top" xlink:title="QualityControl/MonitorObject.h">
<polygon fill="none" stroke="black" points="172.171,-112.5 172.171,-131.5 323.171,-131.5 323.171,-112.5 172.171,-112.5"/>
<text text-anchor="middle" x="247.671" y="-119.5" font-family="Helvetica,sans-Serif" font-size="10.00">QualityControl/MonitorObject.h</text>
</a>
</g>
</g>
<!-- Node11&#45;&gt;Node12 -->
<g id="edge11" class="edge"><title>Node11&#45;&gt;Node12</title>
<path fill="none" stroke="midnightblue" d="M171.292,-168.324C185.62,-159.822 207.684,-146.729 224.42,-136.797"/>
<polygon fill="midnightblue" stroke="midnightblue" points="226.273,-139.768 233.087,-131.655 222.701,-133.748 226.273,-139.768"/>
</g>
<!-- Node16 -->
<g id="node16" class="node"><title>Node16</title>
<g id="a_node16"><a xlink:href="Quality_8h.html" target="_top" xlink:title="QualityControl/Quality.h">
<polygon fill="none" stroke="black" points="83.1712,-56.5 83.1712,-75.5 204.171,-75.5 204.171,-56.5 83.1712,-56.5"/>
<text text-anchor="middle" x="143.671" y="-63.5" font-family="Helvetica,sans-Serif" font-size="10.00">QualityControl/Quality.h</text>
</a>
</g>
</g>
<!-- Node11&#45;&gt;Node16 -->
<g id="edge20" class="edge"><title>Node11&#45;&gt;Node16</title>
<path fill="none" stroke="midnightblue" d="M155.651,-168.368C153.553,-150.617 148.714,-109.666 145.869,-85.5974"/>
<polygon fill="midnightblue" stroke="midnightblue" points="149.336,-85.1115 144.687,-75.5914 142.384,-85.9331 149.336,-85.1115"/>
</g>
<!-- Node17 -->
<g id="node17" class="node"><title>Node17</title>
<g id="a_node17"><a xlink:href="TaskConfig_8h.html" target="_top" xlink:title="QualityControl/TaskConfig.h">
<polygon fill="none" stroke="black" points="628.671,-112.5 628.671,-131.5 768.671,-131.5 768.671,-112.5 628.671,-112.5"/>
<text text-anchor="middle" x="698.671" y="-119.5" font-family="Helvetica,sans-Serif" font-size="10.00">QualityControl/TaskConfig.h</text>
</a>
</g>
</g>
<!-- Node11&#45;&gt;Node17 -->
<g id="edge21" class="edge"><title>Node11&#45;&gt;Node17</title>
<path fill="none" stroke="midnightblue" d="M237.278,-169.036C327.868,-160.076 479.327,-145.064 609.671,-132 612.496,-131.717 615.371,-131.428 618.276,-131.136"/>
<polygon fill="midnightblue" stroke="midnightblue" points="618.63,-134.619 628.229,-130.135 617.929,-127.654 618.63,-134.619"/>
</g>
<!-- Node12&#45;&gt;Node4 -->
<g id="edge13" class="edge"><title>Node12&#45;&gt;Node4</title>
<path fill="none" stroke="midnightblue" d="M211.11,-112.448C177.809,-104.459 127.098,-91.7958 74.9759,-76.2316"/>
<polygon fill="midnightblue" stroke="midnightblue" points="75.8157,-72.8292 65.231,-73.2921 73.7941,-79.531 75.8157,-72.8292"/>
</g>
<!-- Node12&#45;&gt;Node6 -->
<g id="edge12" class="edge"><title>Node12&#45;&gt;Node6</title>
<path fill="none" stroke="midnightblue" d="M323.191,-113.356C376.663,-106.467 442.347,-94.5323 462.671,-76 475.602,-64.2089 480.264,-44.2823 481.897,-29.5933"/>
<polygon fill="midnightblue" stroke="midnightblue" points="485.389,-29.8358 482.643,-19.603 478.408,-29.3149 485.389,-29.8358"/>
</g>
<!-- Node13 -->
<g id="node13" class="node"><title>Node13</title>
<polygon fill="none" stroke="#bfbfbf" points="159.671,-0.5 159.671,-19.5 215.671,-19.5 215.671,-0.5 159.671,-0.5"/>
<text text-anchor="middle" x="187.671" y="-7.5" font-family="Helvetica,sans-Serif" font-size="10.00">Rtypes.h</text>
</g>
<!-- Node12&#45;&gt;Node13 -->
<g id="edge14" class="edge"><title>Node12&#45;&gt;Node13</title>
<path fill="none" stroke="midnightblue" d="M242.953,-112.149C236.264,-99.6216 223.619,-76.0152 212.671,-56 207.677,-46.8703 202.054,-36.7362 197.408,-28.4002"/>
<polygon fill="midnightblue" stroke="midnightblue" points="200.429,-26.6323 192.498,-19.6082 194.318,-30.0455 200.429,-26.6323"/>
</g>
<!-- Node14 -->
<g id="node14" class="node"><title>Node14</title>
<polygon fill="none" stroke="#bfbfbf" points="395.171,-56.5 395.171,-75.5 454.171,-75.5 454.171,-56.5 395.171,-56.5"/>
<text text-anchor="middle" x="424.671" y="-63.5" font-family="Helvetica,sans-Serif" font-size="10.00">TObject.h</text>
</g>
<!-- Node12&#45;&gt;Node14 -->
<g id="edge15" class="edge"><title>Node12&#45;&gt;Node14</title>
<path fill="none" stroke="midnightblue" d="M275.717,-112.444C305.753,-103.28 353.584,-88.6876 386.914,-78.5192"/>
<polygon fill="midnightblue" stroke="midnightblue" points="388.213,-81.7822 396.756,-75.5164 386.17,-75.0869 388.213,-81.7822"/>
</g>
<!-- Node15 -->
<g id="node15" class="node"><title>Node15</title>
<polygon fill="none" stroke="#bfbfbf" points="260.671,-56.5 260.671,-75.5 376.671,-75.5 376.671,-56.5 260.671,-56.5"/>
<text text-anchor="middle" x="318.671" y="-63.5" font-family="Helvetica,sans-Serif" font-size="10.00">Common/Exceptions.h</text>
</g>
<!-- Node12&#45;&gt;Node15 -->
<g id="edge16" class="edge"><title>Node12&#45;&gt;Node15</title>
<path fill="none" stroke="midnightblue" d="M259.079,-112.324C269.78,-104.185 286.012,-91.8395 298.834,-82.0874"/>
<polygon fill="midnightblue" stroke="midnightblue" points="301.216,-84.6734 307.056,-75.8339 296.978,-79.1018 301.216,-84.6734"/>
</g>
<!-- Node12&#45;&gt;Node16 -->
<g id="edge17" class="edge"><title>Node12&#45;&gt;Node16</title>
<path fill="none" stroke="midnightblue" d="M230.962,-112.324C214.359,-103.703 188.669,-90.3643 169.451,-80.3855"/>
<polygon fill="midnightblue" stroke="midnightblue" points="170.827,-77.1565 160.339,-75.6545 167.601,-83.3689 170.827,-77.1565"/>
</g>
<!-- Node16&#45;&gt;Node6 -->
<g id="edge19" class="edge"><title>Node16&#45;&gt;Node6</title>
<path fill="none" stroke="midnightblue" d="M197.387,-56.4435C269.272,-44.9929 394.377,-25.0645 452.004,-15.8851"/>
<polygon fill="midnightblue" stroke="midnightblue" points="452.626,-19.3302 461.951,-14.3006 451.525,-12.4174 452.626,-19.3302"/>
</g>
<!-- Node16&#45;&gt;Node13 -->
<g id="edge18" class="edge"><title>Node16&#45;&gt;Node13</title>
<path fill="none" stroke="midnightblue" d="M150.937,-56.083C157.216,-48.3768 166.459,-37.0333 174.102,-27.6531"/>
<polygon fill="midnightblue" stroke="midnightblue" points="176.937,-29.7143 180.541,-19.7511 171.511,-25.2926 176.937,-29.7143"/>
</g>
<!-- Node17&#45;&gt;Node6 -->
<g id="edge22" class="edge"><title>Node17&#45;&gt;Node6</title>
<path fill="none" stroke="midnightblue" d="M681.722,-112.368C644.104,-93.2113 553.432,-47.0355 508.625,-24.2172"/>
<polygon fill="midnightblue" stroke="midnightblue" points="510.041,-21.0106 499.542,-19.5914 506.864,-27.2484 510.041,-21.0106"/>
</g>
<!-- Node17&#45;&gt;Node7 -->
<g id="edge23" class="edge"><title>Node17&#45;&gt;Node7</title>
<path fill="none" stroke="midnightblue" d="M712.971,-112.324C726.854,-103.9 748.164,-90.9709 764.475,-81.0741"/>
<polygon fill="midnightblue" stroke="midnightblue" points="766.673,-83.8341 773.407,-75.6545 763.042,-77.8495 766.673,-83.8341"/>
</g>
<!-- Node18&#45;&gt;Node3 -->
<g id="edge29" class="edge"><title>Node18&#45;&gt;Node3</title>
<path fill="none" stroke="midnightblue" d="M684.528,-285.975C622.507,-275.216 515.94,-256.73 449.609,-245.224"/>
<polygon fill="midnightblue" stroke="midnightblue" points="450.175,-241.77 439.724,-243.509 448.978,-248.667 450.175,-241.77"/>
</g>
<!-- Node18&#45;&gt;Node5 -->
<g id="edge27" class="edge"><title>Node18&#45;&gt;Node5</title>
<path fill="none" stroke="midnightblue" d="M738.416,-285.705C749.733,-263.396 775.377,-203.835 747.671,-168 743.418,-162.499 660.304,-142.639 610.85,-131.226"/>
<polygon fill="midnightblue" stroke="midnightblue" points="611.378,-127.756 600.848,-128.926 609.81,-134.578 611.378,-127.756"/>
</g>
<!-- Node18&#45;&gt;Node17 -->
<g id="edge28" class="edge"><title>Node18&#45;&gt;Node17</title>
<path fill="none" stroke="midnightblue" d="M746.272,-285.767C757.959,-276.825 774.582,-261.748 781.671,-244 794.2,-212.632 798.95,-197.024 781.671,-168 772.575,-152.721 756.283,-142.31 740.527,-135.386"/>
<polygon fill="midnightblue" stroke="midnightblue" points="741.44,-131.981 730.856,-131.512 738.838,-138.479 741.44,-131.981"/>
</g>
</g>
</svg>
