<?xml version="1.0" encoding="UTF-8" standalone="no"?>
<!DOCTYPE svg PUBLIC "-//W3C//DTD SVG 1.1//EN"
 "http://www.w3.org/Graphics/SVG/1.1/DTD/svg11.dtd">
<!-- Generated by graphviz version 2.38.0 (20140413.2041)
 -->
<!-- Title: Framework/test/testCcdbDatabase.cxx Pages: 1 -->
<!--zoomable 308 -->
<svg id="main" version="1.1" xmlns="http://www.w3.org/2000/svg" xmlns:xlink="http://www.w3.org/1999/xlink" xml:space="preserve" onload="init(evt)">
<style type="text/css"><![CDATA[
.edge:hover path { stroke: red; }
.edge:hover polygon { stroke: red; fill: red; }
]]></style>
<script type="text/javascript"><![CDATA[
var edges = document.getElementsByTagName('g');
if (edges && edges.length) {
  for (var i=0;i<edges.length;i++) {
    if (edges[i].id.substr(0,4)=='edge') {
      edges[i].setAttribute('class','edge');
    }
  }
}
]]></script>
        <defs>
                <circle id="rim" cx="0" cy="0" r="7"/>
                <circle id="rim2" cx="0" cy="0" r="3.5"/>
                <g id="zoomPlus">
                        <use xlink:href="#rim" fill="#404040">
                                <set attributeName="fill" to="#808080" begin="zoomplus.mouseover" end="zoomplus.mouseout"/>
                        </use>
                        <path d="M-4,0h8M0,-4v8" fill="none" stroke="white" stroke-width="1.5" pointer-events="none"/>
                </g>
                <g id="zoomMin">
                        <use xlink:href="#rim" fill="#404040">
                                <set attributeName="fill" to="#808080" begin="zoomminus.mouseover" end="zoomminus.mouseout"/>
                        </use>
                        <path d="M-4,0h8" fill="none" stroke="white" stroke-width="1.5" pointer-events="none"/>
                </g>
                <g id="dirArrow">
                        <path fill="none" stroke="white" stroke-width="1.5" d="M0,-3.0v7 M-2.5,-0.5L0,-3.0L2.5,-0.5"/>
                </g>
               <g id="resetDef">
                       <use xlink:href="#rim2" fill="#404040">
                               <set attributeName="fill" to="#808080" begin="reset.mouseover" end="reset.mouseout"/>
                       </use>
               </g>
        </defs>

<script type="text/javascript">
var viewWidth = 945;
var viewHeight = 308;
var sectionId = 'dynsection-0';
</script>
<script xlink:href="svgpan.js"/>
<svg id="graph" class="graph">
<g id="viewport">
<title>Framework/test/testCcdbDatabase.cxx</title>
<!-- Node1 -->
<g id="node1" class="node"><title>Node1</title>
<polygon fill="#bfbfbf" stroke="black" points="512,-280.5 512,-299.5 700,-299.5 700,-280.5 512,-280.5"/>
<text text-anchor="middle" x="606" y="-287.5" font-family="Helvetica,sans-Serif" font-size="10.00">Framework/test/testCcdbDatabase.cxx</text>
</g>
<!-- Node2 -->
<g id="node2" class="node"><title>Node2</title>
<g id="a_node2"><a xlink:href="DatabaseFactory_8h.html" target="_top" xlink:title="QualityControl/DatabaseFactory.h">
<polygon fill="none" stroke="black" points="188.5,-224.5 188.5,-243.5 353.5,-243.5 353.5,-224.5 188.5,-224.5"/>
<text text-anchor="middle" x="271" y="-231.5" font-family="Helvetica,sans-Serif" font-size="10.00">QualityControl/DatabaseFactory.h</text>
</a>
</g>
</g>
<!-- Node1&#45;&gt;Node2 -->
<g id="edge1" class="edge"><title>Node1&#45;&gt;Node2</title>
<path fill="none" stroke="midnightblue" d="M552.918,-280.444C493.498,-270.865 397.28,-255.356 334.071,-245.167"/>
<polygon fill="midnightblue" stroke="midnightblue" points="334.263,-241.653 323.833,-243.516 333.149,-248.563 334.263,-241.653"/>
</g>
<!-- Node7 -->
<g id="node7" class="node"><title>Node7</title>
<polygon fill="none" stroke="#bfbfbf" points="560.5,-112.5 560.5,-131.5 643.5,-131.5 643.5,-112.5 560.5,-112.5"/>
<text text-anchor="middle" x="602" y="-119.5" font-family="Helvetica,sans-Serif" font-size="10.00">unordered_map</text>
</g>
<!-- Node1&#45;&gt;Node7 -->
<g id="edge23" class="edge"><title>Node1&#45;&gt;Node7</title>
<path fill="none" stroke="midnightblue" d="M597.249,-280.286C589.437,-271.84 578.549,-258.246 574,-244 562.465,-207.875 579.995,-164.276 592.098,-140.523"/>
<polygon fill="midnightblue" stroke="midnightblue" points="595.221,-142.107 596.853,-131.638 589.049,-138.804 595.221,-142.107"/>
</g>
<!-- Node16 -->
<g id="node16" class="node"><title>Node16</title>
<g id="a_node16"><a xlink:href="CcdbDatabase_8h.html" target="_top" xlink:title="QualityControl/CcdbDatabase.h">
<polygon fill="none" stroke="black" points="371.5,-224.5 371.5,-243.5 526.5,-243.5 526.5,-224.5 371.5,-224.5"/>
<text text-anchor="middle" x="449" y="-231.5" font-family="Helvetica,sans-Serif" font-size="10.00">QualityControl/CcdbDatabase.h</text>
</a>
</g>
</g>
<!-- Node1&#45;&gt;Node16 -->
<g id="edge24" class="edge"><title>Node1&#45;&gt;Node16</title>
<path fill="none" stroke="midnightblue" d="M581.123,-280.444C554.711,-271.359 512.785,-256.939 483.258,-246.783"/>
<polygon fill="midnightblue" stroke="midnightblue" points="484.355,-243.459 473.761,-243.516 482.079,-250.079 484.355,-243.459"/>
</g>
<!-- Node18 -->
<g id="node18" class="node"><title>Node18</title>
<g id="a_node18"><a xlink:href="QcInfoLogger_8h.html" target="_top" xlink:title="QualityControl/QcInfoLogger.h">
<polygon fill="none" stroke="black" points="582.5,-224.5 582.5,-243.5 731.5,-243.5 731.5,-224.5 582.5,-224.5"/>
<text text-anchor="middle" x="657" y="-231.5" font-family="Helvetica,sans-Serif" font-size="10.00">QualityControl/QcInfoLogger.h</text>
</a>
</g>
</g>
<!-- Node1&#45;&gt;Node18 -->
<g id="edge27" class="edge"><title>Node1&#45;&gt;Node18</title>
<path fill="none" stroke="midnightblue" d="M614.422,-280.083C621.848,-272.22 632.852,-260.569 641.812,-251.081"/>
<polygon fill="midnightblue" stroke="midnightblue" points="644.413,-253.424 648.735,-243.751 639.324,-248.618 644.413,-253.424"/>
</g>
<!-- Node20 -->
<g id="node20" class="node"><title>Node20</title>
<polygon fill="none" stroke="#bfbfbf" points="749.5,-224.5 749.5,-243.5 868.5,-243.5 868.5,-224.5 749.5,-224.5"/>
<text text-anchor="middle" x="809" y="-231.5" font-family="Helvetica,sans-Serif" font-size="10.00">boost/test/unit_test.hpp</text>
</g>
<!-- Node1&#45;&gt;Node20 -->
<g id="edge29" class="edge"><title>Node1&#45;&gt;Node20</title>
<path fill="none" stroke="midnightblue" d="M638.166,-280.444C673.059,-271.162 728.893,-256.309 767.171,-246.127"/>
<polygon fill="midnightblue" stroke="midnightblue" points="768.22,-249.47 776.985,-243.516 766.421,-242.705 768.22,-249.47"/>
</g>
<!-- Node21 -->
<g id="node21" class="node"><title>Node21</title>
<polygon fill="none" stroke="#bfbfbf" points="887,-224.5 887,-243.5 937,-243.5 937,-224.5 887,-224.5"/>
<text text-anchor="middle" x="912" y="-231.5" font-family="Helvetica,sans-Serif" font-size="10.00">TH1F.h</text>
</g>
<!-- Node1&#45;&gt;Node21 -->
<g id="edge30" class="edge"><title>Node1&#45;&gt;Node21</title>
<path fill="none" stroke="midnightblue" d="M667.89,-280.469C720.956,-272.766 799.622,-260.428 876.906,-244.072"/>
<polygon fill="midnightblue" stroke="midnightblue" points="877.767,-247.467 886.813,-241.952 876.302,-240.622 877.767,-247.467"/>
</g>
<!-- Node3 -->
<g id="node3" class="node"><title>Node3</title>
<polygon fill="none" stroke="#bfbfbf" points="0,-112.5 0,-131.5 52,-131.5 52,-112.5 0,-112.5"/>
<text text-anchor="middle" x="26" y="-119.5" font-family="Helvetica,sans-Serif" font-size="10.00">memory</text>
</g>
<!-- Node2&#45;&gt;Node3 -->
<g id="edge2" class="edge"><title>Node2&#45;&gt;Node3</title>
<path fill="none" stroke="midnightblue" d="M251.775,-224.368C208.839,-205.091 104.965,-158.454 54.4855,-135.789"/>
<polygon fill="midnightblue" stroke="midnightblue" points="55.6917,-132.494 45.1354,-131.591 52.8246,-138.88 55.6917,-132.494"/>
</g>
<!-- Node4 -->
<g id="node4" class="node"><title>Node4</title>
<g id="a_node4"><a xlink:href="DatabaseInterface_8h.html" target="_top" xlink:title="QualityControl/DatabaseInterface.h">
<polygon fill="none" stroke="black" points="200,-168.5 200,-187.5 370,-187.5 370,-168.5 200,-168.5"/>
<text text-anchor="middle" x="285" y="-175.5" font-family="Helvetica,sans-Serif" font-size="10.00">QualityControl/DatabaseInterface.h</text>
</a>
</g>
</g>
<!-- Node2&#45;&gt;Node4 -->
<g id="edge3" class="edge"><title>Node2&#45;&gt;Node4</title>
<path fill="none" stroke="midnightblue" d="M273.312,-224.083C275.167,-216.927 277.835,-206.635 280.154,-197.691"/>
<polygon fill="midnightblue" stroke="midnightblue" points="283.609,-198.309 282.731,-187.751 276.834,-196.553 283.609,-198.309"/>
</g>
<!-- Node4&#45;&gt;Node3 -->
<g id="edge5" class="edge"><title>Node4&#45;&gt;Node3</title>
<path fill="none" stroke="midnightblue" d="M242.147,-168.44C197.962,-159.557 127.094,-145.149 66,-132 64.7474,-131.73 63.4733,-131.454 62.1867,-131.174"/>
<polygon fill="midnightblue" stroke="midnightblue" points="62.754,-127.715 52.2346,-128.976 61.2447,-134.55 62.754,-127.715"/>
</g>
<!-- Node5 -->
<g id="node5" class="node"><title>Node5</title>
<polygon fill="none" stroke="#bfbfbf" points="97.5,-0.5 97.5,-19.5 138.5,-19.5 138.5,-0.5 97.5,-0.5"/>
<text text-anchor="middle" x="118" y="-7.5" font-family="Helvetica,sans-Serif" font-size="10.00">string</text>
</g>
<!-- Node4&#45;&gt;Node5 -->
<g id="edge4" class="edge"><title>Node4&#45;&gt;Node5</title>
<path fill="none" stroke="midnightblue" d="M232.225,-168.472C206.046,-162.047 175.336,-150.957 153,-132 122.948,-106.493 117.864,-56.9183 117.486,-29.8133"/>
<polygon fill="midnightblue" stroke="midnightblue" points="120.987,-29.7314 117.553,-19.7083 113.987,-29.6847 120.987,-29.7314"/>
</g>
<!-- Node6 -->
<g id="node6" class="node"><title>Node6</title>
<polygon fill="none" stroke="#bfbfbf" points="498,-112.5 498,-131.5 542,-131.5 542,-112.5 498,-112.5"/>
<text text-anchor="middle" x="520" y="-119.5" font-family="Helvetica,sans-Serif" font-size="10.00">vector</text>
</g>
<!-- Node4&#45;&gt;Node6 -->
<g id="edge6" class="edge"><title>Node4&#45;&gt;Node6</title>
<path fill="none" stroke="midnightblue" d="M327.387,-168.494C366.679,-160.421 426.965,-147.558 487.913,-132.157"/>
<polygon fill="midnightblue" stroke="midnightblue" points="488.871,-135.525 497.697,-129.664 487.142,-128.742 488.871,-135.525"/>
</g>
<!-- Node4&#45;&gt;Node7 -->
<g id="edge7" class="edge"><title>Node4&#45;&gt;Node7</title>
<path fill="none" stroke="midnightblue" d="M336.012,-168.48C387.481,-159.86 469.513,-146.052 550.399,-132.094"/>
<polygon fill="midnightblue" stroke="midnightblue" points="550.997,-135.543 560.256,-130.391 549.806,-128.645 550.997,-135.543"/>
</g>
<!-- Node8 -->
<g id="node8" class="node"><title>Node8</title>
<g id="a_node8"><a xlink:href="QualityObject_8h_source.html" target="_top" xlink:title="QualityControl/QualityObject.h">
<polygon fill="none" stroke="black" points="331.5,-112.5 331.5,-131.5 480.5,-131.5 480.5,-112.5 331.5,-112.5"/>
<text text-anchor="middle" x="406" y="-119.5" font-family="Helvetica,sans-Serif" font-size="10.00">QualityControl/QualityObject.h</text>
</a>
</g>
</g>
<!-- Node4&#45;&gt;Node8 -->
<g id="edge8" class="edge"><title>Node4&#45;&gt;Node8</title>
<path fill="none" stroke="midnightblue" d="M304.173,-168.444C323.909,-159.636 354.885,-145.812 377.493,-135.722"/>
<polygon fill="midnightblue" stroke="midnightblue" points="379.211,-138.788 386.917,-131.516 376.359,-132.396 379.211,-138.788"/>
</g>
<!-- Node15 -->
<g id="node15" class="node"><title>Node15</title>
<g id="a_node15"><a xlink:href="MonitorObject_8h.html" target="_top" xlink:title="QualityControl/MonitorObject.h">
<polygon fill="none" stroke="black" points="162.5,-112.5 162.5,-131.5 313.5,-131.5 313.5,-112.5 162.5,-112.5"/>
<text text-anchor="middle" x="238" y="-119.5" font-family="Helvetica,sans-Serif" font-size="10.00">QualityControl/MonitorObject.h</text>
</a>
</g>
</g>
<!-- Node4&#45;&gt;Node15 -->
<g id="edge16" class="edge"><title>Node4&#45;&gt;Node15</title>
<path fill="none" stroke="midnightblue" d="M277.239,-168.083C270.463,-160.298 260.457,-148.801 252.245,-139.367"/>
<polygon fill="midnightblue" stroke="midnightblue" points="254.822,-136.996 245.617,-131.751 249.542,-141.592 254.822,-136.996"/>
</g>
<!-- Node9 -->
<g id="node9" class="node"><title>Node9</title>
<polygon fill="none" stroke="#bfbfbf" points="590,-56.5 590,-75.5 644,-75.5 644,-56.5 590,-56.5"/>
<text text-anchor="middle" x="617" y="-63.5" font-family="Helvetica,sans-Serif" font-size="10.00">iostream</text>
</g>
<!-- Node8&#45;&gt;Node9 -->
<g id="edge9" class="edge"><title>Node8&#45;&gt;Node9</title>
<path fill="none" stroke="midnightblue" d="M439.434,-112.444C477.703,-102.649 540.207,-86.6531 579.935,-76.4857"/>
<polygon fill="midnightblue" stroke="midnightblue" points="580.942,-79.8411 589.762,-73.971 579.206,-73.0597 580.942,-79.8411"/>
</g>
<!-- Node10 -->
<g id="node10" class="node"><title>Node10</title>
<polygon fill="none" stroke="#bfbfbf" points="324.5,-56.5 324.5,-75.5 359.5,-75.5 359.5,-56.5 324.5,-56.5"/>
<text text-anchor="middle" x="342" y="-63.5" font-family="Helvetica,sans-Serif" font-size="10.00">map</text>
</g>
<!-- Node8&#45;&gt;Node10 -->
<g id="edge10" class="edge"><title>Node8&#45;&gt;Node10</title>
<path fill="none" stroke="midnightblue" d="M395.717,-112.324C386.164,-104.263 371.72,-92.0765 360.216,-82.3695"/>
<polygon fill="midnightblue" stroke="midnightblue" points="362.37,-79.6076 352.47,-75.8339 357.856,-84.9577 362.37,-79.6076"/>
</g>
<!-- Node11 -->
<g id="node11" class="node"><title>Node11</title>
<polygon fill="none" stroke="#bfbfbf" points="512.5,-56.5 512.5,-75.5 571.5,-75.5 571.5,-56.5 512.5,-56.5"/>
<text text-anchor="middle" x="542" y="-63.5" font-family="Helvetica,sans-Serif" font-size="10.00">TObject.h</text>
</g>
<!-- Node8&#45;&gt;Node11 -->
<g id="edge11" class="edge"><title>Node8&#45;&gt;Node11</title>
<path fill="none" stroke="midnightblue" d="M427.55,-112.444C450.031,-103.517 485.488,-89.4387 510.98,-79.3168"/>
<polygon fill="midnightblue" stroke="midnightblue" points="512.549,-82.4598 520.551,-75.5164 509.965,-75.9539 512.549,-82.4598"/>
</g>
<!-- Node12 -->
<g id="node12" class="node"><title>Node12</title>
<polygon fill="none" stroke="#bfbfbf" points="378,-56.5 378,-75.5 494,-75.5 494,-56.5 378,-56.5"/>
<text text-anchor="middle" x="436" y="-63.5" font-family="Helvetica,sans-Serif" font-size="10.00">Common/Exceptions.h</text>
</g>
<!-- Node8&#45;&gt;Node12 -->
<g id="edge12" class="edge"><title>Node8&#45;&gt;Node12</title>
<path fill="none" stroke="midnightblue" d="M410.954,-112.083C415.104,-104.613 421.153,-93.7244 426.267,-84.5199"/>
<polygon fill="midnightblue" stroke="midnightblue" points="429.341,-86.1924 431.138,-75.7511 423.222,-82.7929 429.341,-86.1924"/>
</g>
<!-- Node13 -->
<g id="node13" class="node"><title>Node13</title>
<g id="a_node13"><a xlink:href="Quality_8h.html" target="_top" xlink:title="QualityControl/Quality.h">
<polygon fill="none" stroke="black" points="146.5,-56.5 146.5,-75.5 267.5,-75.5 267.5,-56.5 146.5,-56.5"/>
<text text-anchor="middle" x="207" y="-63.5" font-family="Helvetica,sans-Serif" font-size="10.00">QualityControl/Quality.h</text>
</a>
</g>
</g>
<!-- Node8&#45;&gt;Node13 -->
<g id="edge13" class="edge"><title>Node8&#45;&gt;Node13</title>
<path fill="none" stroke="midnightblue" d="M374.468,-112.444C340.408,-103.201 285.994,-88.4356 248.485,-78.2572"/>
<polygon fill="midnightblue" stroke="midnightblue" points="248.952,-74.7575 238.385,-75.5164 247.119,-81.5132 248.952,-74.7575"/>
</g>
<!-- Node13&#45;&gt;Node5 -->
<g id="edge15" class="edge"><title>Node13&#45;&gt;Node5</title>
<path fill="none" stroke="midnightblue" d="M192.701,-56.324C178.817,-47.9002 157.508,-34.9709 141.196,-25.0741"/>
<polygon fill="midnightblue" stroke="midnightblue" points="142.629,-21.8495 132.264,-19.6545 138.998,-27.8341 142.629,-21.8495"/>
</g>
<!-- Node14 -->
<g id="node14" class="node"><title>Node14</title>
<polygon fill="none" stroke="#bfbfbf" points="223,-0.5 223,-19.5 279,-19.5 279,-0.5 223,-0.5"/>
<text text-anchor="middle" x="251" y="-7.5" font-family="Helvetica,sans-Serif" font-size="10.00">Rtypes.h</text>
</g>
<!-- Node13&#45;&gt;Node14 -->
<g id="edge14" class="edge"><title>Node13&#45;&gt;Node14</title>
<path fill="none" stroke="midnightblue" d="M214.266,-56.083C220.545,-48.3768 229.788,-37.0333 237.431,-27.6531"/>
<polygon fill="midnightblue" stroke="midnightblue" points="240.266,-29.7143 243.869,-19.7511 234.839,-25.2926 240.266,-29.7143"/>
</g>
<!-- Node15&#45;&gt;Node5 -->
<g id="edge17" class="edge"><title>Node15&#45;&gt;Node5</title>
<path fill="none" stroke="midnightblue" d="M199.624,-112.379C178.415,-105.755 153.165,-94.505 137,-76 125.77,-63.1447 121.167,-43.9639 119.286,-29.7673"/>
<polygon fill="midnightblue" stroke="midnightblue" points="122.754,-29.2732 118.286,-19.6665 115.788,-29.9626 122.754,-29.2732"/>
</g>
<!-- Node15&#45;&gt;Node10 -->
<g id="edge18" class="edge"><title>Node15&#45;&gt;Node10</title>
<path fill="none" stroke="midnightblue" d="M254.709,-112.324C271.312,-103.703 297.002,-90.3643 316.22,-80.3855"/>
<polygon fill="midnightblue" stroke="midnightblue" points="318.07,-83.3689 325.332,-75.6545 314.844,-77.1565 318.07,-83.3689"/>
</g>
<!-- Node15&#45;&gt;Node11 -->
<g id="edge20" class="edge"><title>Node15&#45;&gt;Node11</title>
<path fill="none" stroke="midnightblue" d="M294.01,-112.466C345.561,-104.39 424.368,-91.4885 502.244,-76.0537"/>
<polygon fill="midnightblue" stroke="midnightblue" points="503.107,-79.4503 512.228,-74.0595 501.736,-72.5859 503.107,-79.4503"/>
</g>
<!-- Node15&#45;&gt;Node12 -->
<g id="edge21" class="edge"><title>Node15&#45;&gt;Node12</title>
<path fill="none" stroke="midnightblue" d="M269.374,-112.444C303.263,-103.201 357.403,-88.4356 394.724,-78.2572"/>
<polygon fill="midnightblue" stroke="midnightblue" points="396.046,-81.5243 404.773,-75.5164 394.205,-74.771 396.046,-81.5243"/>
</g>
<!-- Node15&#45;&gt;Node13 -->
<g id="edge22" class="edge"><title>Node15&#45;&gt;Node13</title>
<path fill="none" stroke="midnightblue" d="M232.881,-112.083C228.592,-104.613 222.342,-93.7244 217.058,-84.5199"/>
<polygon fill="midnightblue" stroke="midnightblue" points="220.038,-82.6811 212.024,-75.7511 213.967,-86.1662 220.038,-82.6811"/>
</g>
<!-- Node15&#45;&gt;Node14 -->
<g id="edge19" class="edge"><title>Node15&#45;&gt;Node14</title>
<path fill="none" stroke="midnightblue" d="M248.714,-112.305C257.938,-104.069 270.591,-90.789 276,-76 281.949,-59.7358 273.414,-41.3232 264.742,-28.2579"/>
<polygon fill="midnightblue" stroke="midnightblue" points="267.31,-25.8383 258.607,-19.7965 261.643,-29.9471 267.31,-25.8383"/>
</g>
<!-- Node16&#45;&gt;Node4 -->
<g id="edge26" class="edge"><title>Node16&#45;&gt;Node4</title>
<path fill="none" stroke="midnightblue" d="M423.014,-224.444C395.304,-215.32 351.248,-200.813 320.384,-190.651"/>
<polygon fill="midnightblue" stroke="midnightblue" points="321.458,-187.32 310.865,-187.516 319.268,-193.968 321.458,-187.32"/>
</g>
<!-- Node17 -->
<g id="node17" class="node"><title>Node17</title>
<polygon fill="none" stroke="#bfbfbf" points="401.5,-168.5 401.5,-187.5 496.5,-187.5 496.5,-168.5 401.5,-168.5"/>
<text text-anchor="middle" x="449" y="-175.5" font-family="Helvetica,sans-Serif" font-size="10.00">CCDB/CcdbApi.h</text>
</g>
<!-- Node16&#45;&gt;Node17 -->
<g id="edge25" class="edge"><title>Node16&#45;&gt;Node17</title>
<path fill="none" stroke="midnightblue" d="M449,-224.083C449,-217.006 449,-206.861 449,-197.986"/>
<polygon fill="midnightblue" stroke="midnightblue" points="452.5,-197.751 449,-187.751 445.5,-197.751 452.5,-197.751"/>
</g>
<!-- Node19 -->
<g id="node19" class="node"><title>Node19</title>
<polygon fill="none" stroke="#bfbfbf" points="592,-168.5 592,-187.5 722,-187.5 722,-168.5 592,-168.5"/>
<text text-anchor="middle" x="657" y="-175.5" font-family="Helvetica,sans-Serif" font-size="10.00">InfoLogger/InfoLogger.hxx</text>
</g>
<!-- Node18&#45;&gt;Node19 -->
<g id="edge28" class="edge"><title>Node18&#45;&gt;Node19</title>
<path fill="none" stroke="midnightblue" d="M657,-224.083C657,-217.006 657,-206.861 657,-197.986"/>
<polygon fill="midnightblue" stroke="midnightblue" points="660.5,-197.751 657,-187.751 653.5,-197.751 660.5,-197.751"/>
</g>
</g>
</svg>
        <g id="navigator" transform="translate(0 0)" fill="#404254">
                <rect fill="#f2f5e9" fill-opacity="0.5" stroke="#606060" stroke-width=".5" x="0" y="0" width="60" height="60"/>
                <use id="zoomplus" xlink:href="#zoomPlus" x="17" y="9" onmousedown="handleZoom(evt,'in')"/>
                <use id="zoomminus" xlink:href="#zoomMin" x="42" y="9" onmousedown="handleZoom(evt,'out')"/>
                <use id="reset" xlink:href="#resetDef" x="30" y="36" onmousedown="handleReset()"/>
                <g id="arrowUp" xlink:href="#dirArrow" transform="translate(30 24)" onmousedown="handlePan(0,-1)">
                  <use xlink:href="#rim" fill="#404040">
                        <set attributeName="fill" to="#808080" begin="arrowUp.mouseover" end="arrowUp.mouseout"/>
                  </use>
                  <path fill="none" stroke="white" stroke-width="1.5" d="M0,-3.0v7 M-2.5,-0.5L0,-3.0L2.5,-0.5"/>
                </g>
                <g id="arrowRight" xlink:href="#dirArrow" transform="rotate(90) translate(36 -43)" onmousedown="handlePan(1,0)">
                  <use xlink:href="#rim" fill="#404040">
                        <set attributeName="fill" to="#808080" begin="arrowRight.mouseover" end="arrowRight.mouseout"/>
                  </use>
                  <path fill="none" stroke="white" stroke-width="1.5" d="M0,-3.0v7 M-2.5,-0.5L0,-3.0L2.5,-0.5"/>
                </g>
                <g id="arrowDown" xlink:href="#dirArrow" transform="rotate(180) translate(-30 -48)" onmousedown="handlePan(0,1)">
                  <use xlink:href="#rim" fill="#404040">
                        <set attributeName="fill" to="#808080" begin="arrowDown.mouseover" end="arrowDown.mouseout"/>
                  </use>
                  <path fill="none" stroke="white" stroke-width="1.5" d="M0,-3.0v7 M-2.5,-0.5L0,-3.0L2.5,-0.5"/>
                </g>
                <g id="arrowLeft" xlink:href="#dirArrow" transform="rotate(270) translate(-36 17)" onmousedown="handlePan(-1,0)">
                  <use xlink:href="#rim" fill="#404040">
                        <set attributeName="fill" to="#808080" begin="arrowLeft.mouseover" end="arrowLeft.mouseout"/>
                  </use>
                  <path fill="none" stroke="white" stroke-width="1.5" d="M0,-3.0v7 M-2.5,-0.5L0,-3.0L2.5,-0.5"/>
                </g>
        </g>
        <svg viewBox="0 0 15 15" width="100%" height="30px" preserveAspectRatio="xMaxYMin meet">
         <g id="arrow_out" transform="scale(0.3 0.3)">
          <a xlink:href="testCcdbDatabase_8cxx__incl_org.svg" target="_base">
           <rect id="button" ry="5" rx="5" y="6" x="6" height="38" width="38"
                fill="#f2f5e9" fill-opacity="0.5" stroke="#606060" stroke-width="1.0"/>
           <path id="arrow"
             d="M 11.500037,31.436501 C 11.940474,20.09759 22.043105,11.32322 32.158766,21.979434 L 37.068811,17.246167 C 37.068811,17.246167 37.088388,32 37.088388,32 L 22.160133,31.978069 C 22.160133,31.978069 26.997745,27.140456 26.997745,27.140456 C 18.528582,18.264221 13.291696,25.230495 11.500037,31.436501 z"
             style="fill:#404040;"/>
          </a>
         </g>
        </svg>
</svg>
