<?xml version="1.0" encoding="UTF-8" standalone="no"?>
<!DOCTYPE svg PUBLIC "-//W3C//DTD SVG 1.1//EN"
 "http://www.w3.org/Graphics/SVG/1.1/DTD/svg11.dtd">
<!-- Generated by graphviz version 2.38.0 (20140413.2041)
 -->
<!-- Title: Framework/test/testCheckRunner.cxx Pages: 1 -->
<svg width="1648pt" height="386pt"
 viewBox="0.00 0.00 1647.50 386.00" xmlns="http://www.w3.org/2000/svg" xmlns:xlink="http://www.w3.org/1999/xlink">
<g id="graph0" class="graph" transform="scale(1 1) rotate(0) translate(4 382)">
<title>Framework/test/testCheckRunner.cxx</title>
<!-- Node1 -->
<g id="node1" class="node"><title>Node1</title>
<polygon fill="#bfbfbf" stroke="black" points="997,-347.5 997,-377.5 1130,-377.5 1130,-347.5 997,-347.5"/>
<text text-anchor="start" x="1005" y="-365.5" font-family="Helvetica,sans-Serif" font-size="10.00">Framework/test/testCheck</text>
<text text-anchor="middle" x="1063.5" y="-354.5" font-family="Helvetica,sans-Serif" font-size="10.00">Runner.cxx</text>
</g>
<!-- Node2 -->
<g id="node2" class="node"><title>Node2</title>
<g id="a_node2"><a xlink:href="CheckRunnerFactory_8h.html" target="_top" xlink:title="QualityControl/CheckRunner\lFactory.h">
<polygon fill="none" stroke="black" points="220.5,-280.5 220.5,-310.5 362.5,-310.5 362.5,-280.5 220.5,-280.5"/>
<text text-anchor="start" x="228.5" y="-298.5" font-family="Helvetica,sans-Serif" font-size="10.00">QualityControl/CheckRunner</text>
<text text-anchor="middle" x="291.5" y="-287.5" font-family="Helvetica,sans-Serif" font-size="10.00">Factory.h</text>
</a>
</g>
</g>
<!-- Node1&#45;&gt;Node2 -->
<g id="edge1" class="edge"><title>Node1&#45;&gt;Node2</title>
<path fill="none" stroke="midnightblue" d="M996.676,-355.874C855.33,-343.973 526.481,-316.285 373.052,-303.366"/>
<polygon fill="midnightblue" stroke="midnightblue" points="373.016,-299.851 362.758,-302.5 372.429,-306.826 373.016,-299.851"/>
</g>
<!-- Node21 -->
<g id="node21" class="node"><title>Node21</title>
<g id="a_node21"><a xlink:href="CheckRunner_8h.html" target="_top" xlink:title="QualityControl/CheckRunner.h">
<polygon fill="none" stroke="black" points="826.5,-286 826.5,-305 976.5,-305 976.5,-286 826.5,-286"/>
<text text-anchor="middle" x="901.5" y="-293" font-family="Helvetica,sans-Serif" font-size="10.00">QualityControl/CheckRunner.h</text>
</a>
</g>
</g>
<!-- Node1&#45;&gt;Node21 -->
<g id="edge35" class="edge"><title>Node1&#45;&gt;Node21</title>
<path fill="none" stroke="midnightblue" d="M1028.35,-347.396C999.672,-335.89 959.564,-319.797 932.173,-308.807"/>
<polygon fill="midnightblue" stroke="midnightblue" points="933.286,-305.483 922.702,-305.007 930.68,-311.979 933.286,-305.483"/>
</g>
<!-- Node30 -->
<g id="node30" class="node"><title>Node30</title>
<polygon fill="none" stroke="#bfbfbf" points="994.5,-286 994.5,-305 1132.5,-305 1132.5,-286 994.5,-286"/>
<text text-anchor="middle" x="1063.5" y="-293" font-family="Helvetica,sans-Serif" font-size="10.00">Framework/DataSampling.h</text>
</g>
<!-- Node1&#45;&gt;Node30 -->
<g id="edge58" class="edge"><title>Node1&#45;&gt;Node30</title>
<path fill="none" stroke="midnightblue" d="M1063.5,-347.396C1063.5,-338.064 1063.5,-325.714 1063.5,-315.517"/>
<polygon fill="midnightblue" stroke="midnightblue" points="1067,-315.195 1063.5,-305.195 1060,-315.195 1067,-315.195"/>
</g>
<!-- Node31 -->
<g id="node31" class="node"><title>Node31</title>
<polygon fill="none" stroke="#bfbfbf" points="1151,-286 1151,-305 1270,-305 1270,-286 1151,-286"/>
<text text-anchor="middle" x="1210.5" y="-293" font-family="Helvetica,sans-Serif" font-size="10.00">getTestDataDirectory.h</text>
</g>
<!-- Node1&#45;&gt;Node31 -->
<g id="edge59" class="edge"><title>Node1&#45;&gt;Node31</title>
<path fill="none" stroke="midnightblue" d="M1095.4,-347.396C1121.19,-335.991 1157.17,-320.079 1182.01,-309.098"/>
<polygon fill="midnightblue" stroke="midnightblue" points="1183.53,-312.252 1191.26,-305.007 1180.7,-305.85 1183.53,-312.252"/>
</g>
<!-- Node32 -->
<g id="node32" class="node"><title>Node32</title>
<polygon fill="none" stroke="#bfbfbf" points="1288,-286 1288,-305 1407,-305 1407,-286 1288,-286"/>
<text text-anchor="middle" x="1347.5" y="-293" font-family="Helvetica,sans-Serif" font-size="10.00">boost/test/unit_test.hpp</text>
</g>
<!-- Node1&#45;&gt;Node32 -->
<g id="edge60" class="edge"><title>Node1&#45;&gt;Node32</title>
<path fill="none" stroke="midnightblue" d="M1124.77,-347.476C1177.45,-335.421 1252.31,-318.286 1300.4,-307.28"/>
<polygon fill="midnightblue" stroke="midnightblue" points="1301.27,-310.672 1310.24,-305.029 1299.71,-303.848 1301.27,-310.672"/>
</g>
<!-- Node3 -->
<g id="node3" class="node"><title>Node3</title>
<polygon fill="none" stroke="#bfbfbf" points="587,-0.5 587,-19.5 628,-19.5 628,-0.5 587,-0.5"/>
<text text-anchor="middle" x="607.5" y="-7.5" font-family="Helvetica,sans-Serif" font-size="10.00">string</text>
</g>
<!-- Node2&#45;&gt;Node3 -->
<g id="edge2" class="edge"><title>Node2&#45;&gt;Node3</title>
<path fill="none" stroke="midnightblue" d="M268.082,-280.36C233.592,-257.647 175.756,-211.194 200.5,-168 249.416,-82.6114 299.677,-91.3903 391.5,-56 454.929,-31.5535 534.215,-19.3758 576.893,-14.2048"/>
<polygon fill="midnightblue" stroke="midnightblue" points="577.395,-17.6701 586.923,-13.0378 576.586,-10.717 577.395,-17.6701"/>
</g>
<!-- Node4 -->
<g id="node4" class="node"><title>Node4</title>
<polygon fill="none" stroke="#bfbfbf" points="209.5,-168.5 209.5,-187.5 373.5,-187.5 373.5,-168.5 209.5,-168.5"/>
<text text-anchor="middle" x="291.5" y="-175.5" font-family="Helvetica,sans-Serif" font-size="10.00">Framework/DataProcessorSpec.h</text>
</g>
<!-- Node2&#45;&gt;Node4 -->
<g id="edge3" class="edge"><title>Node2&#45;&gt;Node4</title>
<path fill="none" stroke="midnightblue" d="M291.5,-280.337C291.5,-259.622 291.5,-221.016 291.5,-197.899"/>
<polygon fill="midnightblue" stroke="midnightblue" points="295,-197.669 291.5,-187.669 288,-197.669 295,-197.669"/>
</g>
<!-- Node5 -->
<g id="node5" class="node"><title>Node5</title>
<polygon fill="none" stroke="#bfbfbf" points="0,-224.5 0,-243.5 153,-243.5 153,-224.5 0,-224.5"/>
<text text-anchor="middle" x="76.5" y="-231.5" font-family="Helvetica,sans-Serif" font-size="10.00">Framework/CompletionPolicy.h</text>
</g>
<!-- Node2&#45;&gt;Node5 -->
<g id="edge4" class="edge"><title>Node2&#45;&gt;Node5</title>
<path fill="none" stroke="midnightblue" d="M240.82,-280.475C203.08,-270.03 152.229,-255.958 117.14,-246.247"/>
<polygon fill="midnightblue" stroke="midnightblue" points="117.809,-242.8 107.237,-243.506 115.942,-249.547 117.809,-242.8"/>
</g>
<!-- Node6 -->
<g id="node6" class="node"><title>Node6</title>
<g id="a_node6"><a xlink:href="Check_8h_source.html" target="_top" xlink:title="QualityControl/Check.h">
<polygon fill="none" stroke="black" points="445,-224.5 445,-243.5 564,-243.5 564,-224.5 445,-224.5"/>
<text text-anchor="middle" x="504.5" y="-231.5" font-family="Helvetica,sans-Serif" font-size="10.00">QualityControl/Check.h</text>
</a>
</g>
</g>
<!-- Node2&#45;&gt;Node6 -->
<g id="edge5" class="edge"><title>Node2&#45;&gt;Node6</title>
<path fill="none" stroke="midnightblue" d="M341.708,-280.475C379.097,-270.03 429.475,-255.958 464.238,-246.247"/>
<polygon fill="midnightblue" stroke="midnightblue" points="465.359,-249.568 474.049,-243.506 463.476,-242.826 465.359,-249.568"/>
</g>
<!-- Node6&#45;&gt;Node4 -->
<g id="edge10" class="edge"><title>Node6&#45;&gt;Node4</title>
<path fill="none" stroke="midnightblue" d="M470.75,-224.444C433.982,-215.122 375.054,-200.183 334.878,-189.997"/>
<polygon fill="midnightblue" stroke="midnightblue" points="335.646,-186.581 325.093,-187.516 333.926,-193.367 335.646,-186.581"/>
</g>
<!-- Node7 -->
<g id="node7" class="node"><title>Node7</title>
<polygon fill="none" stroke="#bfbfbf" points="644,-168.5 644,-187.5 703,-187.5 703,-168.5 644,-168.5"/>
<text text-anchor="middle" x="673.5" y="-175.5" font-family="Helvetica,sans-Serif" font-size="10.00">functional</text>
</g>
<!-- Node6&#45;&gt;Node7 -->
<g id="edge6" class="edge"><title>Node6&#45;&gt;Node7</title>
<path fill="none" stroke="midnightblue" d="M531.279,-224.444C559.833,-215.32 605.233,-200.813 637.037,-190.651"/>
<polygon fill="midnightblue" stroke="midnightblue" points="638.386,-193.894 646.847,-187.516 636.256,-187.226 638.386,-193.894"/>
</g>
<!-- Node8 -->
<g id="node8" class="node"><title>Node8</title>
<polygon fill="none" stroke="#bfbfbf" points="939,-56.5 939,-75.5 974,-75.5 974,-56.5 939,-56.5"/>
<text text-anchor="middle" x="956.5" y="-63.5" font-family="Helvetica,sans-Serif" font-size="10.00">map</text>
</g>
<!-- Node6&#45;&gt;Node8 -->
<g id="edge7" class="edge"><title>Node6&#45;&gt;Node8</title>
<path fill="none" stroke="midnightblue" d="M564.037,-224.818C617.009,-217.035 696.411,-204.134 764.5,-188 848.092,-168.193 894.68,-198.142 949.5,-132 960.016,-119.313 960.855,-100.109 959.612,-85.8616"/>
<polygon fill="midnightblue" stroke="midnightblue" points="963.054,-85.1915 958.313,-75.717 956.111,-86.0805 963.054,-85.1915"/>
</g>
<!-- Node9 -->
<g id="node9" class="node"><title>Node9</title>
<polygon fill="none" stroke="#bfbfbf" points="1243.5,-168.5 1243.5,-187.5 1287.5,-187.5 1287.5,-168.5 1243.5,-168.5"/>
<text text-anchor="middle" x="1265.5" y="-175.5" font-family="Helvetica,sans-Serif" font-size="10.00">vector</text>
</g>
<!-- Node6&#45;&gt;Node9 -->
<g id="edge8" class="edge"><title>Node6&#45;&gt;Node9</title>
<path fill="none" stroke="midnightblue" d="M564.309,-224.928C567.415,-224.594 570.493,-224.281 573.5,-224 853.621,-197.788 925.644,-216.898 1205.5,-188 1214.54,-187.067 1224.3,-185.741 1233.26,-184.393"/>
<polygon fill="midnightblue" stroke="midnightblue" points="1234,-187.821 1243.34,-182.822 1232.92,-180.904 1234,-187.821"/>
</g>
<!-- Node10 -->
<g id="node10" class="node"><title>Node10</title>
<polygon fill="none" stroke="#bfbfbf" points="1305.5,-168.5 1305.5,-187.5 1357.5,-187.5 1357.5,-168.5 1305.5,-168.5"/>
<text text-anchor="middle" x="1331.5" y="-175.5" font-family="Helvetica,sans-Serif" font-size="10.00">memory</text>
</g>
<!-- Node6&#45;&gt;Node10 -->
<g id="edge9" class="edge"><title>Node6&#45;&gt;Node10</title>
<path fill="none" stroke="midnightblue" d="M564.307,-224.902C567.413,-224.574 570.492,-224.271 573.5,-224 890.651,-195.466 976.659,-235.472 1295.27,-187.866"/>
<polygon fill="midnightblue" stroke="midnightblue" points="1295.88,-191.313 1305.24,-186.358 1294.83,-184.392 1295.88,-191.313"/>
</g>
<!-- Node11 -->
<g id="node11" class="node"><title>Node11</title>
<g id="a_node11"><a xlink:href="Quality_8h.html" target="_top" xlink:title="QualityControl/Quality.h">
<polygon fill="none" stroke="black" points="401,-56.5 401,-75.5 522,-75.5 522,-56.5 401,-56.5"/>
<text text-anchor="middle" x="461.5" y="-63.5" font-family="Helvetica,sans-Serif" font-size="10.00">QualityControl/Quality.h</text>
</a>
</g>
</g>
<!-- Node6&#45;&gt;Node11 -->
<g id="edge11" class="edge"><title>Node6&#45;&gt;Node11</title>
<path fill="none" stroke="midnightblue" d="M471.514,-224.438C453.037,-217.769 431.548,-206.453 420.5,-188 400.002,-153.764 428.563,-107.889 447.353,-83.642"/>
<polygon fill="midnightblue" stroke="midnightblue" points="450.167,-85.7286 453.725,-75.7491 444.72,-81.3317 450.167,-85.7286"/>
</g>
<!-- Node13 -->
<g id="node13" class="node"><title>Node13</title>
<g id="a_node13"><a xlink:href="QualityObject_8h_source.html" target="_top" xlink:title="QualityControl/QualityObject.h">
<polygon fill="none" stroke="black" points="769,-112.5 769,-131.5 918,-131.5 918,-112.5 769,-112.5"/>
<text text-anchor="middle" x="843.5" y="-119.5" font-family="Helvetica,sans-Serif" font-size="10.00">QualityControl/QualityObject.h</text>
</a>
</g>
</g>
<!-- Node6&#45;&gt;Node13 -->
<g id="edge14" class="edge"><title>Node6&#45;&gt;Node13</title>
<path fill="none" stroke="midnightblue" d="M556.65,-224.484C612.62,-214.997 697.646,-199.485 728.5,-188 763.636,-174.921 800.793,-152.04 823.062,-137.209"/>
<polygon fill="midnightblue" stroke="midnightblue" points="825.054,-140.087 831.374,-131.584 821.131,-134.29 825.054,-140.087"/>
</g>
<!-- Node17 -->
<g id="node17" class="node"><title>Node17</title>
<g id="a_node17"><a xlink:href="MonitorObject_8h.html" target="_top" xlink:title="QualityControl/MonitorObject.h">
<polygon fill="none" stroke="black" points="600,-112.5 600,-131.5 751,-131.5 751,-112.5 600,-112.5"/>
<text text-anchor="middle" x="675.5" y="-119.5" font-family="Helvetica,sans-Serif" font-size="10.00">QualityControl/MonitorObject.h</text>
</a>
</g>
</g>
<!-- Node6&#45;&gt;Node17 -->
<g id="edge20" class="edge"><title>Node6&#45;&gt;Node17</title>
<path fill="none" stroke="midnightblue" d="M560.764,-224.462C618.74,-215.091 701.98,-199.812 711.5,-188 723.931,-172.576 708.495,-152.268 694.151,-138.485"/>
<polygon fill="midnightblue" stroke="midnightblue" points="696.25,-135.665 686.478,-131.572 691.564,-140.866 696.25,-135.665"/>
</g>
<!-- Node18 -->
<g id="node18" class="node"><title>Node18</title>
<g id="a_node18"><a xlink:href="CheckInterface_8h.html" target="_top" xlink:title="QualityControl/CheckInterface.h">
<polygon fill="none" stroke="black" points="430,-168.5 430,-187.5 587,-187.5 587,-168.5 430,-168.5"/>
<text text-anchor="middle" x="508.5" y="-175.5" font-family="Helvetica,sans-Serif" font-size="10.00">QualityControl/CheckInterface.h</text>
</a>
</g>
</g>
<!-- Node6&#45;&gt;Node18 -->
<g id="edge27" class="edge"><title>Node6&#45;&gt;Node18</title>
<path fill="none" stroke="midnightblue" d="M505.161,-224.083C505.685,-217.006 506.436,-206.861 507.094,-197.986"/>
<polygon fill="midnightblue" stroke="midnightblue" points="510.603,-197.982 507.852,-187.751 503.623,-197.465 510.603,-197.982"/>
</g>
<!-- Node19 -->
<g id="node19" class="node"><title>Node19</title>
<g id="a_node19"><a xlink:href="QcInfoLogger_8h.html" target="_top" xlink:title="QualityControl/QcInfoLogger.h">
<polygon fill="none" stroke="black" points="1048,-168.5 1048,-187.5 1197,-187.5 1197,-168.5 1048,-168.5"/>
<text text-anchor="middle" x="1122.5" y="-175.5" font-family="Helvetica,sans-Serif" font-size="10.00">QualityControl/QcInfoLogger.h</text>
</a>
</g>
</g>
<!-- Node6&#45;&gt;Node19 -->
<g id="edge33" class="edge"><title>Node6&#45;&gt;Node19</title>
<path fill="none" stroke="midnightblue" d="M564.318,-225.019C567.422,-224.661 570.497,-224.319 573.5,-224 661.086,-214.704 906.864,-195.488 1037.84,-185.44"/>
<polygon fill="midnightblue" stroke="midnightblue" points="1038.13,-188.928 1047.84,-184.674 1037.6,-181.948 1038.13,-188.928"/>
</g>
<!-- Node11&#45;&gt;Node3 -->
<g id="edge13" class="edge"><title>Node11&#45;&gt;Node3</title>
<path fill="none" stroke="midnightblue" d="M484.634,-56.4435C509.698,-47.1732 549.786,-32.3464 577.313,-22.1652"/>
<polygon fill="midnightblue" stroke="midnightblue" points="578.67,-25.395 586.835,-18.6433 576.242,-18.8297 578.67,-25.395"/>
</g>
<!-- Node12 -->
<g id="node12" class="node"><title>Node12</title>
<polygon fill="none" stroke="#bfbfbf" points="433.5,-0.5 433.5,-19.5 489.5,-19.5 489.5,-0.5 433.5,-0.5"/>
<text text-anchor="middle" x="461.5" y="-7.5" font-family="Helvetica,sans-Serif" font-size="10.00">Rtypes.h</text>
</g>
<!-- Node11&#45;&gt;Node12 -->
<g id="edge12" class="edge"><title>Node11&#45;&gt;Node12</title>
<path fill="none" stroke="midnightblue" d="M461.5,-56.083C461.5,-49.0059 461.5,-38.8611 461.5,-29.9865"/>
<polygon fill="midnightblue" stroke="midnightblue" points="465,-29.751 461.5,-19.7511 458,-29.7511 465,-29.751"/>
</g>
<!-- Node13&#45;&gt;Node8 -->
<g id="edge16" class="edge"><title>Node13&#45;&gt;Node8</title>
<path fill="none" stroke="midnightblue" d="M861.405,-112.444C879.754,-103.675 908.505,-89.9355 929.594,-79.8579"/>
<polygon fill="midnightblue" stroke="midnightblue" points="931.165,-82.9862 938.679,-75.5164 928.147,-76.6703 931.165,-82.9862"/>
</g>
<!-- Node13&#45;&gt;Node11 -->
<g id="edge19" class="edge"><title>Node13&#45;&gt;Node11</title>
<path fill="none" stroke="midnightblue" d="M782.971,-112.444C714.795,-102.806 604.138,-87.1635 532.087,-76.9782"/>
<polygon fill="midnightblue" stroke="midnightblue" points="532.137,-73.4507 521.746,-75.5164 531.157,-80.3818 532.137,-73.4507"/>
</g>
<!-- Node14 -->
<g id="node14" class="node"><title>Node14</title>
<polygon fill="none" stroke="#bfbfbf" points="866.5,-56.5 866.5,-75.5 920.5,-75.5 920.5,-56.5 866.5,-56.5"/>
<text text-anchor="middle" x="893.5" y="-63.5" font-family="Helvetica,sans-Serif" font-size="10.00">iostream</text>
</g>
<!-- Node13&#45;&gt;Node14 -->
<g id="edge15" class="edge"><title>Node13&#45;&gt;Node14</title>
<path fill="none" stroke="midnightblue" d="M851.756,-112.083C858.965,-104.298 869.61,-92.8015 878.346,-83.3665"/>
<polygon fill="midnightblue" stroke="midnightblue" points="881.171,-85.4666 885.397,-75.7511 876.035,-80.7108 881.171,-85.4666"/>
</g>
<!-- Node15 -->
<g id="node15" class="node"><title>Node15</title>
<polygon fill="none" stroke="#bfbfbf" points="789,-56.5 789,-75.5 848,-75.5 848,-56.5 789,-56.5"/>
<text text-anchor="middle" x="818.5" y="-63.5" font-family="Helvetica,sans-Serif" font-size="10.00">TObject.h</text>
</g>
<!-- Node13&#45;&gt;Node15 -->
<g id="edge17" class="edge"><title>Node13&#45;&gt;Node15</title>
<path fill="none" stroke="midnightblue" d="M839.372,-112.083C835.986,-104.77 831.084,-94.1814 826.881,-85.1034"/>
<polygon fill="midnightblue" stroke="midnightblue" points="829.929,-83.3553 822.551,-75.7511 823.577,-86.2962 829.929,-83.3553"/>
</g>
<!-- Node16 -->
<g id="node16" class="node"><title>Node16</title>
<polygon fill="none" stroke="#bfbfbf" points="654.5,-56.5 654.5,-75.5 770.5,-75.5 770.5,-56.5 654.5,-56.5"/>
<text text-anchor="middle" x="712.5" y="-63.5" font-family="Helvetica,sans-Serif" font-size="10.00">Common/Exceptions.h</text>
</g>
<!-- Node13&#45;&gt;Node16 -->
<g id="edge18" class="edge"><title>Node13&#45;&gt;Node16</title>
<path fill="none" stroke="midnightblue" d="M822.743,-112.444C801.184,-103.557 767.237,-89.5632 742.706,-79.4514"/>
<polygon fill="midnightblue" stroke="midnightblue" points="743.739,-76.0917 733.16,-75.5164 741.072,-82.5634 743.739,-76.0917"/>
</g>
<!-- Node17&#45;&gt;Node3 -->
<g id="edge21" class="edge"><title>Node17&#45;&gt;Node3</title>
<path fill="none" stroke="midnightblue" d="M669.596,-112.472C663.433,-103.493 653.561,-88.8995 645.5,-76 635.564,-60.0995 624.833,-41.6111 617.317,-28.4267"/>
<polygon fill="midnightblue" stroke="midnightblue" points="620.238,-26.4829 612.262,-19.509 614.148,-29.9346 620.238,-26.4829"/>
</g>
<!-- Node17&#45;&gt;Node8 -->
<g id="edge22" class="edge"><title>Node17&#45;&gt;Node8</title>
<path fill="none" stroke="midnightblue" d="M738.413,-112.475C787.824,-105.183 858.457,-93.4462 928.948,-75.809"/>
<polygon fill="midnightblue" stroke="midnightblue" points="930.062,-79.1372 938.891,-73.281 928.337,-72.353 930.062,-79.1372"/>
</g>
<!-- Node17&#45;&gt;Node11 -->
<g id="edge26" class="edge"><title>Node17&#45;&gt;Node11</title>
<path fill="none" stroke="midnightblue" d="M641.591,-112.444C604.651,-103.122 545.446,-88.1828 505.082,-77.9972"/>
<polygon fill="midnightblue" stroke="midnightblue" points="505.803,-74.5695 495.25,-75.5164 504.09,-81.3568 505.803,-74.5695"/>
</g>
<!-- Node17&#45;&gt;Node12 -->
<g id="edge23" class="edge"><title>Node17&#45;&gt;Node12</title>
<path fill="none" stroke="midnightblue" d="M658.708,-112.368C621.438,-93.2113 531.605,-47.0355 487.213,-24.2172"/>
<polygon fill="midnightblue" stroke="midnightblue" points="488.708,-21.0502 478.214,-19.5914 485.508,-27.2759 488.708,-21.0502"/>
</g>
<!-- Node17&#45;&gt;Node15 -->
<g id="edge24" class="edge"><title>Node17&#45;&gt;Node15</title>
<path fill="none" stroke="midnightblue" d="M698.159,-112.444C721.902,-103.478 759.409,-89.314 786.238,-79.1827"/>
<polygon fill="midnightblue" stroke="midnightblue" points="787.829,-82.3235 795.947,-75.5164 785.356,-75.7749 787.829,-82.3235"/>
</g>
<!-- Node17&#45;&gt;Node16 -->
<g id="edge25" class="edge"><title>Node17&#45;&gt;Node16</title>
<path fill="none" stroke="midnightblue" d="M681.61,-112.083C686.782,-104.534 694.346,-93.4948 700.694,-84.2298"/>
<polygon fill="midnightblue" stroke="midnightblue" points="703.739,-85.9787 706.504,-75.7511 697.964,-82.0221 703.739,-85.9787"/>
</g>
<!-- Node18&#45;&gt;Node3 -->
<g id="edge28" class="edge"><title>Node18&#45;&gt;Node3</title>
<path fill="none" stroke="midnightblue" d="M513.823,-168.075C529.609,-141.606 576.363,-63.2089 597.236,-28.2097"/>
<polygon fill="midnightblue" stroke="midnightblue" points="600.274,-29.9495 602.39,-19.5681 594.262,-26.364 600.274,-29.9495"/>
</g>
<!-- Node18&#45;&gt;Node8 -->
<g id="edge29" class="edge"><title>Node18&#45;&gt;Node8</title>
<path fill="none" stroke="midnightblue" d="M587.295,-170.526C704.599,-160.601 912.92,-141.753 926.5,-132 941.609,-121.149 949.306,-100.768 953.093,-85.7091"/>
<polygon fill="midnightblue" stroke="midnightblue" points="956.522,-86.4105 955.209,-75.8973 949.679,-84.9344 956.522,-86.4105"/>
</g>
<!-- Node18&#45;&gt;Node11 -->
<g id="edge32" class="edge"><title>Node18&#45;&gt;Node11</title>
<path fill="none" stroke="midnightblue" d="M504.812,-168.368C497.159,-150.456 479.413,-108.923 469.169,-84.9482"/>
<polygon fill="midnightblue" stroke="midnightblue" points="472.319,-83.412 465.171,-75.5914 465.882,-86.1624 472.319,-83.412"/>
</g>
<!-- Node18&#45;&gt;Node12 -->
<g id="edge30" class="edge"><title>Node18&#45;&gt;Node12</title>
<path fill="none" stroke="midnightblue" d="M491.262,-168.419C464.063,-153.783 412.164,-121.138 391.5,-76 381.246,-53.6023 406.457,-35.3133 429.43,-23.9054"/>
<polygon fill="midnightblue" stroke="midnightblue" points="431.111,-26.9833 438.699,-19.5892 428.156,-20.6375 431.111,-26.9833"/>
</g>
<!-- Node18&#45;&gt;Node17 -->
<g id="edge31" class="edge"><title>Node18&#45;&gt;Node17</title>
<path fill="none" stroke="midnightblue" d="M534.962,-168.444C563.178,-159.32 608.04,-144.813 639.468,-134.651"/>
<polygon fill="midnightblue" stroke="midnightblue" points="640.724,-137.923 649.162,-131.516 638.57,-131.263 640.724,-137.923"/>
</g>
<!-- Node20 -->
<g id="node20" class="node"><title>Node20</title>
<polygon fill="none" stroke="#bfbfbf" points="1057.5,-112.5 1057.5,-131.5 1187.5,-131.5 1187.5,-112.5 1057.5,-112.5"/>
<text text-anchor="middle" x="1122.5" y="-119.5" font-family="Helvetica,sans-Serif" font-size="10.00">InfoLogger/InfoLogger.hxx</text>
</g>
<!-- Node19&#45;&gt;Node20 -->
<g id="edge34" class="edge"><title>Node19&#45;&gt;Node20</title>
<path fill="none" stroke="midnightblue" d="M1122.5,-168.083C1122.5,-161.006 1122.5,-150.861 1122.5,-141.986"/>
<polygon fill="midnightblue" stroke="midnightblue" points="1126,-141.751 1122.5,-131.751 1119,-141.751 1126,-141.751"/>
</g>
<!-- Node21&#45;&gt;Node3 -->
<g id="edge38" class="edge"><title>Node21&#45;&gt;Node3</title>
<path fill="none" stroke="midnightblue" d="M945.398,-285.977C958.278,-283.733 972.417,-281.518 985.5,-280 1131.58,-263.055 1639.5,-326.056 1639.5,-179 1639.5,-179 1639.5,-179 1639.5,-121 1639.5,-17.5864 809.545,-11.1877 638.214,-10.9686"/>
<polygon fill="midnightblue" stroke="midnightblue" points="638.117,-7.46862 628.115,-10.9621 638.112,-14.4686 638.117,-7.46862"/>
</g>
<!-- Node21&#45;&gt;Node4 -->
<g id="edge46" class="edge"><title>Node21&#45;&gt;Node4</title>
<path fill="none" stroke="midnightblue" d="M826.124,-291.358C704.473,-285.561 470.59,-271.217 392.5,-244 360.398,-232.812 328.222,-209.512 309.085,-194.064"/>
<polygon fill="midnightblue" stroke="midnightblue" points="311.194,-191.267 301.257,-187.591 306.733,-196.661 311.194,-191.267"/>
</g>
<!-- Node21&#45;&gt;Node6 -->
<g id="edge57" class="edge"><title>Node21&#45;&gt;Node6</title>
<path fill="none" stroke="midnightblue" d="M844.62,-285.975C772.393,-275.15 647.969,-256.502 571.303,-245.012"/>
<polygon fill="midnightblue" stroke="midnightblue" points="571.683,-241.53 561.275,-243.509 570.646,-248.453 571.683,-241.53"/>
</g>
<!-- Node21&#45;&gt;Node8 -->
<g id="edge39" class="edge"><title>Node21&#45;&gt;Node8</title>
<path fill="none" stroke="midnightblue" d="M945.4,-285.992C958.279,-283.748 972.418,-281.53 985.5,-280 1049.74,-272.488 1522.2,-291.128 1566.5,-244 1594.26,-214.463 1557.2,-188.835 1522.5,-168 1429.29,-112.039 1084.89,-78.1845 984.275,-69.3338"/>
<polygon fill="midnightblue" stroke="midnightblue" points="984.278,-65.821 974.013,-68.444 983.673,-72.7949 984.278,-65.821"/>
</g>
<!-- Node21&#45;&gt;Node9 -->
<g id="edge40" class="edge"><title>Node21&#45;&gt;Node9</title>
<path fill="none" stroke="midnightblue" d="M948.526,-285.957C960.561,-283.887 973.494,-281.765 985.5,-280 1051.06,-270.361 1237.56,-293.602 1281.5,-244 1293.13,-230.869 1285.48,-210.626 1277.25,-196.223"/>
<polygon fill="midnightblue" stroke="midnightblue" points="1280.21,-194.363 1271.95,-187.734 1274.28,-198.07 1280.21,-194.363"/>
</g>
<!-- Node21&#45;&gt;Node10 -->
<g id="edge37" class="edge"><title>Node21&#45;&gt;Node10</title>
<path fill="none" stroke="midnightblue" d="M948.079,-285.981C960.238,-283.889 973.342,-281.749 985.5,-280 1054.58,-270.06 1239.97,-283.516 1297.5,-244 1313.21,-233.208 1322.17,-212.817 1326.91,-197.74"/>
<polygon fill="midnightblue" stroke="midnightblue" points="1330.33,-198.486 1329.64,-187.914 1323.59,-196.608 1330.33,-198.486"/>
</g>
<!-- Node21&#45;&gt;Node17 -->
<g id="edge55" class="edge"><title>Node21&#45;&gt;Node17</title>
<path fill="none" stroke="midnightblue" d="M826.236,-291.75C701.025,-286.394 461.08,-272.502 435.5,-244 429.563,-237.385 429.947,-230.941 435.5,-224 481.033,-167.083 529.925,-219.823 595.5,-188 620.767,-175.738 645.12,-154.082 660.184,-139.158"/>
<polygon fill="midnightblue" stroke="midnightblue" points="663.035,-141.25 667.544,-131.662 658.04,-136.346 663.035,-141.25"/>
</g>
<!-- Node21&#45;&gt;Node18 -->
<g id="edge47" class="edge"><title>Node21&#45;&gt;Node18</title>
<path fill="none" stroke="midnightblue" d="M826.459,-292.343C694.084,-287.758 430.362,-274.825 402.5,-244 380.375,-219.523 422.453,-201.104 459.958,-190.234"/>
<polygon fill="midnightblue" stroke="midnightblue" points="461.145,-193.537 469.853,-187.502 459.282,-186.79 461.145,-193.537"/>
</g>
<!-- Node21&#45;&gt;Node19 -->
<g id="edge56" class="edge"><title>Node21&#45;&gt;Node19</title>
<path fill="none" stroke="midnightblue" d="M948.976,-285.941C960.885,-283.895 973.647,-281.787 985.5,-280 1047.32,-270.681 1223.22,-290.947 1264.5,-244 1289.44,-215.641 1245.21,-198.899 1199.69,-189.529"/>
<polygon fill="midnightblue" stroke="midnightblue" points="1200.16,-186.055 1189.68,-187.584 1198.83,-192.927 1200.16,-186.055"/>
</g>
<!-- Node22 -->
<g id="node22" class="node"><title>Node22</title>
<polygon fill="none" stroke="#bfbfbf" points="582.5,-224.5 582.5,-243.5 628.5,-243.5 628.5,-224.5 582.5,-224.5"/>
<text text-anchor="middle" x="605.5" y="-231.5" font-family="Helvetica,sans-Serif" font-size="10.00">chrono</text>
</g>
<!-- Node21&#45;&gt;Node22 -->
<g id="edge36" class="edge"><title>Node21&#45;&gt;Node22</title>
<path fill="none" stroke="midnightblue" d="M849.626,-285.922C798.381,-277.147 717.589,-262.507 638.63,-244.106"/>
<polygon fill="midnightblue" stroke="midnightblue" points="639.047,-240.609 628.511,-241.725 637.443,-247.423 639.047,-240.609"/>
</g>
<!-- Node23 -->
<g id="node23" class="node"><title>Node23</title>
<polygon fill="none" stroke="#bfbfbf" points="646.5,-224.5 646.5,-243.5 724.5,-243.5 724.5,-224.5 646.5,-224.5"/>
<text text-anchor="middle" x="685.5" y="-231.5" font-family="Helvetica,sans-Serif" font-size="10.00">unordered_set</text>
</g>
<!-- Node21&#45;&gt;Node23 -->
<g id="edge41" class="edge"><title>Node21&#45;&gt;Node23</title>
<path fill="none" stroke="midnightblue" d="M870.552,-285.975C832.619,-275.526 768.222,-257.787 726.28,-246.233"/>
<polygon fill="midnightblue" stroke="midnightblue" points="726.961,-242.791 716.39,-243.509 725.102,-249.539 726.961,-242.791"/>
</g>
<!-- Node24 -->
<g id="node24" class="node"><title>Node24</title>
<polygon fill="none" stroke="#bfbfbf" points="742.5,-224.5 742.5,-243.5 834.5,-243.5 834.5,-224.5 742.5,-224.5"/>
<text text-anchor="middle" x="788.5" y="-231.5" font-family="Helvetica,sans-Serif" font-size="10.00">Common/Timer.h</text>
</g>
<!-- Node21&#45;&gt;Node24 -->
<g id="edge42" class="edge"><title>Node21&#45;&gt;Node24</title>
<path fill="none" stroke="midnightblue" d="M885.31,-285.975C866.598,-276.122 835.577,-259.788 813.701,-248.27"/>
<polygon fill="midnightblue" stroke="midnightblue" points="815.139,-245.071 804.66,-243.509 811.878,-251.265 815.139,-245.071"/>
</g>
<!-- Node25 -->
<g id="node25" class="node"><title>Node25</title>
<polygon fill="none" stroke="#bfbfbf" points="852.5,-224.5 852.5,-243.5 950.5,-243.5 950.5,-224.5 852.5,-224.5"/>
<text text-anchor="middle" x="901.5" y="-231.5" font-family="Helvetica,sans-Serif" font-size="10.00">Framework/Task.h</text>
</g>
<!-- Node21&#45;&gt;Node25 -->
<g id="edge43" class="edge"><title>Node21&#45;&gt;Node25</title>
<path fill="none" stroke="midnightblue" d="M901.5,-285.975C901.5,-277.58 901.5,-264.481 901.5,-253.663"/>
<polygon fill="midnightblue" stroke="midnightblue" points="905,-253.509 901.5,-243.509 898,-253.509 905,-253.509"/>
</g>
<!-- Node26 -->
<g id="node26" class="node"><title>Node26</title>
<polygon fill="none" stroke="#bfbfbf" points="969,-224.5 969,-243.5 1086,-243.5 1086,-224.5 969,-224.5"/>
<text text-anchor="middle" x="1027.5" y="-231.5" font-family="Helvetica,sans-Serif" font-size="10.00">Headers/DataHeader.h</text>
</g>
<!-- Node21&#45;&gt;Node26 -->
<g id="edge44" class="edge"><title>Node21&#45;&gt;Node26</title>
<path fill="none" stroke="midnightblue" d="M919.553,-285.975C940.698,-275.99 975.94,-259.348 1000.38,-247.807"/>
<polygon fill="midnightblue" stroke="midnightblue" points="1001.93,-250.944 1009.48,-243.509 998.944,-244.614 1001.93,-250.944"/>
</g>
<!-- Node27 -->
<g id="node27" class="node"><title>Node27</title>
<polygon fill="none" stroke="#bfbfbf" points="1104,-224.5 1104,-243.5 1255,-243.5 1255,-224.5 1104,-224.5"/>
<text text-anchor="middle" x="1179.5" y="-231.5" font-family="Helvetica,sans-Serif" font-size="10.00">Monitoring/MonitoringFactory.h</text>
</g>
<!-- Node21&#45;&gt;Node27 -->
<g id="edge45" class="edge"><title>Node21&#45;&gt;Node27</title>
<path fill="none" stroke="midnightblue" d="M941.331,-285.975C990.979,-275.349 1075.85,-257.185 1129.73,-245.652"/>
<polygon fill="midnightblue" stroke="midnightblue" points="1130.7,-249.025 1139.74,-243.509 1129.23,-242.18 1130.7,-249.025"/>
</g>
<!-- Node28 -->
<g id="node28" class="node"><title>Node28</title>
<g id="a_node28"><a xlink:href="DatabaseInterface_8h.html" target="_top" xlink:title="QualityControl/DatabaseInterface.h">
<polygon fill="none" stroke="black" points="1387.5,-224.5 1387.5,-243.5 1557.5,-243.5 1557.5,-224.5 1387.5,-224.5"/>
<text text-anchor="middle" x="1472.5" y="-231.5" font-family="Helvetica,sans-Serif" font-size="10.00">QualityControl/DatabaseInterface.h</text>
</a>
</g>
</g>
<!-- Node21&#45;&gt;Node28 -->
<g id="edge48" class="edge"><title>Node21&#45;&gt;Node28</title>
<path fill="none" stroke="midnightblue" d="M947.176,-285.943C959.58,-283.803 973.03,-281.65 985.5,-280 995.091,-278.731 1238.01,-256.447 1377.06,-243.723"/>
<polygon fill="midnightblue" stroke="midnightblue" points="1377.66,-247.183 1387.3,-242.787 1377.03,-240.212 1377.66,-247.183"/>
</g>
<!-- Node28&#45;&gt;Node3 -->
<g id="edge49" class="edge"><title>Node28&#45;&gt;Node3</title>
<path fill="none" stroke="midnightblue" d="M1487.38,-224.47C1507.39,-211.936 1538.68,-187.876 1522.5,-168 1367.78,22.1036 1224.4,-95.5264 982.5,-56 855.564,-35.2587 702.99,-19.883 638.59,-13.8275"/>
<polygon fill="midnightblue" stroke="midnightblue" points="638.602,-10.3136 628.32,-12.8709 637.952,-17.2834 638.602,-10.3136"/>
</g>
<!-- Node28&#45;&gt;Node9 -->
<g id="edge51" class="edge"><title>Node28&#45;&gt;Node9</title>
<path fill="none" stroke="midnightblue" d="M1437.68,-224.449C1404.13,-216.131 1351.7,-202.931 1297.59,-188.237"/>
<polygon fill="midnightblue" stroke="midnightblue" points="1298.4,-184.83 1287.83,-185.575 1296.55,-191.583 1298.4,-184.83"/>
</g>
<!-- Node28&#45;&gt;Node10 -->
<g id="edge50" class="edge"><title>Node28&#45;&gt;Node10</title>
<path fill="none" stroke="midnightblue" d="M1450.16,-224.444C1426.75,-215.478 1389.76,-201.314 1363.31,-191.183"/>
<polygon fill="midnightblue" stroke="midnightblue" points="1364.33,-187.824 1353.74,-187.516 1361.82,-194.361 1364.33,-187.824"/>
</g>
<!-- Node28&#45;&gt;Node13 -->
<g id="edge53" class="edge"><title>Node28&#45;&gt;Node13</title>
<path fill="none" stroke="midnightblue" d="M1483.1,-224.312C1498.2,-210.927 1522.41,-185.028 1506.5,-168 1496.74,-157.56 1104.87,-136.321 928.264,-127.256"/>
<polygon fill="midnightblue" stroke="midnightblue" points="928.393,-123.758 918.227,-126.742 928.035,-130.748 928.393,-123.758"/>
</g>
<!-- Node28&#45;&gt;Node17 -->
<g id="edge54" class="edge"><title>Node28&#45;&gt;Node17</title>
<path fill="none" stroke="midnightblue" d="M1460.01,-224.263C1436.53,-208.02 1386.37,-174.249 1366.5,-168 1240.62,-128.417 910.142,-142.494 761.428,-132.059"/>
<polygon fill="midnightblue" stroke="midnightblue" points="761.278,-128.538 751.04,-131.265 760.744,-135.517 761.278,-128.538"/>
</g>
<!-- Node29 -->
<g id="node29" class="node"><title>Node29</title>
<polygon fill="none" stroke="#bfbfbf" points="1414,-168.5 1414,-187.5 1497,-187.5 1497,-168.5 1414,-168.5"/>
<text text-anchor="middle" x="1455.5" y="-175.5" font-family="Helvetica,sans-Serif" font-size="10.00">unordered_map</text>
</g>
<!-- Node28&#45;&gt;Node29 -->
<g id="edge52" class="edge"><title>Node28&#45;&gt;Node29</title>
<path fill="none" stroke="midnightblue" d="M1469.69,-224.083C1467.42,-216.849 1464.13,-206.409 1461.29,-197.397"/>
<polygon fill="midnightblue" stroke="midnightblue" points="1464.6,-196.239 1458.25,-187.751 1457.92,-198.341 1464.6,-196.239"/>
</g>
</g>
</svg>
