<?xml version="1.0" encoding="UTF-8" standalone="no"?>
<!DOCTYPE svg PUBLIC "-//W3C//DTD SVG 1.1//EN"
 "http://www.w3.org/Graphics/SVG/1.1/DTD/svg11.dtd">
<!-- Generated by graphviz version 2.38.0 (20140413.2041)
 -->
<!-- Title: Framework/test/testDbFactory.cxx Pages: 1 -->
<svg width="776pt" height="308pt"
 viewBox="0.00 0.00 775.50 308.00" xmlns="http://www.w3.org/2000/svg" xmlns:xlink="http://www.w3.org/1999/xlink">
<g id="graph0" class="graph" transform="scale(1 1) rotate(0) translate(4 304)">
<title>Framework/test/testDbFactory.cxx</title>
<!-- Node1 -->
<g id="node1" class="node"><title>Node1</title>
<polygon fill="#bfbfbf" stroke="black" points="414,-280.5 414,-299.5 583,-299.5 583,-280.5 414,-280.5"/>
<text text-anchor="middle" x="498.5" y="-287.5" font-family="Helvetica,sans-Serif" font-size="10.00">Framework/test/testDbFactory.cxx</text>
</g>
<!-- Node2 -->
<g id="node2" class="node"><title>Node2</title>
<g id="a_node2"><a xlink:href="DatabaseFactory_8h.html" target="_top" xlink:title="QualityControl/DatabaseFactory.h">
<polygon fill="none" stroke="black" points="0,-224.5 0,-243.5 165,-243.5 165,-224.5 0,-224.5"/>
<text text-anchor="middle" x="82.5" y="-231.5" font-family="Helvetica,sans-Serif" font-size="10.00">QualityControl/DatabaseFactory.h</text>
</a>
</g>
</g>
<!-- Node1&#45;&gt;Node2 -->
<g id="edge1" class="edge"><title>Node1&#45;&gt;Node2</title>
<path fill="none" stroke="midnightblue" d="M432.584,-280.444C358.036,-270.767 236.845,-255.035 158.407,-244.853"/>
<polygon fill="midnightblue" stroke="midnightblue" points="158.475,-241.333 148.108,-243.516 157.574,-248.275 158.475,-241.333"/>
</g>
<!-- Node15 -->
<g id="node15" class="node"><title>Node15</title>
<g id="a_node15"><a xlink:href="MonitorObject_8h.html" target="_top" xlink:title="QualityControl/MonitorObject.h">
<polygon fill="none" stroke="black" points="492,-112.5 492,-131.5 643,-131.5 643,-112.5 492,-112.5"/>
<text text-anchor="middle" x="567.5" y="-119.5" font-family="Helvetica,sans-Serif" font-size="10.00">QualityControl/MonitorObject.h</text>
</a>
</g>
</g>
<!-- Node1&#45;&gt;Node15 -->
<g id="edge29" class="edge"><title>Node1&#45;&gt;Node15</title>
<path fill="none" stroke="midnightblue" d="M506.587,-280.347C514.244,-271.732 525.572,-257.833 532.5,-244 549.577,-209.903 559.629,-166.113 564.303,-141.657"/>
<polygon fill="midnightblue" stroke="midnightblue" points="567.785,-142.072 566.126,-131.608 560.897,-140.823 567.785,-142.072"/>
</g>
<!-- Node16 -->
<g id="node16" class="node"><title>Node16</title>
<polygon fill="none" stroke="#bfbfbf" points="580,-224.5 580,-243.5 699,-243.5 699,-224.5 580,-224.5"/>
<text text-anchor="middle" x="639.5" y="-231.5" font-family="Helvetica,sans-Serif" font-size="10.00">boost/test/unit_test.hpp</text>
</g>
<!-- Node1&#45;&gt;Node16 -->
<g id="edge23" class="edge"><title>Node1&#45;&gt;Node16</title>
<path fill="none" stroke="midnightblue" d="M520.842,-280.444C544.253,-271.478 581.236,-257.314 607.69,-247.183"/>
<polygon fill="midnightblue" stroke="midnightblue" points="609.176,-250.361 617.263,-243.516 606.672,-243.824 609.176,-250.361"/>
</g>
<!-- Node17 -->
<g id="node17" class="node"><title>Node17</title>
<g id="a_node17"><a xlink:href="DummyDatabase_8h.html" target="_top" xlink:title="QualityControl/DummyDatabase.h">
<polygon fill="none" stroke="black" points="183,-224.5 183,-243.5 350,-243.5 350,-224.5 183,-224.5"/>
<text text-anchor="middle" x="266.5" y="-231.5" font-family="Helvetica,sans-Serif" font-size="10.00">QualityControl/DummyDatabase.h</text>
</a>
</g>
</g>
<!-- Node1&#45;&gt;Node17 -->
<g id="edge24" class="edge"><title>Node1&#45;&gt;Node17</title>
<path fill="none" stroke="midnightblue" d="M461.739,-280.444C421.437,-271.063 356.691,-255.993 312.915,-245.804"/>
<polygon fill="midnightblue" stroke="midnightblue" points="313.622,-242.375 303.089,-243.516 312.035,-249.192 313.622,-242.375"/>
</g>
<!-- Node18 -->
<g id="node18" class="node"><title>Node18</title>
<g id="a_node18"><a xlink:href="CcdbDatabase_8h.html" target="_top" xlink:title="QualityControl/CcdbDatabase.h">
<polygon fill="none" stroke="black" points="368,-224.5 368,-243.5 523,-243.5 523,-224.5 368,-224.5"/>
<text text-anchor="middle" x="445.5" y="-231.5" font-family="Helvetica,sans-Serif" font-size="10.00">QualityControl/CcdbDatabase.h</text>
</a>
</g>
</g>
<!-- Node1&#45;&gt;Node18 -->
<g id="edge26" class="edge"><title>Node1&#45;&gt;Node18</title>
<path fill="none" stroke="midnightblue" d="M489.748,-280.083C482.03,-272.22 470.595,-260.569 461.283,-251.081"/>
<polygon fill="midnightblue" stroke="midnightblue" points="463.592,-248.436 454.089,-243.751 458.596,-253.34 463.592,-248.436"/>
</g>
<!-- Node20 -->
<g id="node20" class="node"><title>Node20</title>
<polygon fill="none" stroke="#bfbfbf" points="717.5,-224.5 717.5,-243.5 767.5,-243.5 767.5,-224.5 717.5,-224.5"/>
<text text-anchor="middle" x="742.5" y="-231.5" font-family="Helvetica,sans-Serif" font-size="10.00">TH1F.h</text>
</g>
<!-- Node1&#45;&gt;Node20 -->
<g id="edge30" class="edge"><title>Node1&#45;&gt;Node20</title>
<path fill="none" stroke="midnightblue" d="M541.268,-280.458C581.722,-272.239 644.355,-259.156 707.549,-244.145"/>
<polygon fill="midnightblue" stroke="midnightblue" points="708.371,-247.547 717.283,-241.818 706.743,-240.739 708.371,-247.547"/>
</g>
<!-- Node3 -->
<g id="node3" class="node"><title>Node3</title>
<polygon fill="none" stroke="#bfbfbf" points="32.5,-112.5 32.5,-131.5 84.5,-131.5 84.5,-112.5 32.5,-112.5"/>
<text text-anchor="middle" x="58.5" y="-119.5" font-family="Helvetica,sans-Serif" font-size="10.00">memory</text>
</g>
<!-- Node2&#45;&gt;Node3 -->
<g id="edge2" class="edge"><title>Node2&#45;&gt;Node3</title>
<path fill="none" stroke="midnightblue" d="M80.6168,-224.368C76.7437,-206.617 67.809,-165.666 62.5576,-141.597"/>
<polygon fill="midnightblue" stroke="midnightblue" points="65.9258,-140.615 60.3745,-131.591 59.0867,-142.108 65.9258,-140.615"/>
</g>
<!-- Node4 -->
<g id="node4" class="node"><title>Node4</title>
<g id="a_node4"><a xlink:href="DatabaseInterface_8h.html" target="_top" xlink:title="QualityControl/DatabaseInterface.h">
<polygon fill="none" stroke="black" points="181.5,-168.5 181.5,-187.5 351.5,-187.5 351.5,-168.5 181.5,-168.5"/>
<text text-anchor="middle" x="266.5" y="-175.5" font-family="Helvetica,sans-Serif" font-size="10.00">QualityControl/DatabaseInterface.h</text>
</a>
</g>
</g>
<!-- Node2&#45;&gt;Node4 -->
<g id="edge3" class="edge"><title>Node2&#45;&gt;Node4</title>
<path fill="none" stroke="midnightblue" d="M111.655,-224.444C143.013,-215.241 193.031,-200.562 227.697,-190.388"/>
<polygon fill="midnightblue" stroke="midnightblue" points="228.871,-193.691 237.481,-187.516 226.9,-186.974 228.871,-193.691"/>
</g>
<!-- Node4&#45;&gt;Node3 -->
<g id="edge5" class="edge"><title>Node4&#45;&gt;Node3</title>
<path fill="none" stroke="midnightblue" d="M233.542,-168.444C195.686,-158.616 133.775,-142.543 94.6329,-132.381"/>
<polygon fill="midnightblue" stroke="midnightblue" points="95.2769,-128.932 84.7182,-129.807 93.5178,-135.707 95.2769,-128.932"/>
</g>
<!-- Node5 -->
<g id="node5" class="node"><title>Node5</title>
<polygon fill="none" stroke="#bfbfbf" points="553,-0.5 553,-19.5 594,-19.5 594,-0.5 553,-0.5"/>
<text text-anchor="middle" x="573.5" y="-7.5" font-family="Helvetica,sans-Serif" font-size="10.00">string</text>
</g>
<!-- Node4&#45;&gt;Node5 -->
<g id="edge4" class="edge"><title>Node4&#45;&gt;Node5</title>
<path fill="none" stroke="midnightblue" d="M257.709,-168.321C237,-146.851 189.111,-90.497 219.5,-56 240.762,-31.8642 460.494,-17.2734 542.693,-12.625"/>
<polygon fill="midnightblue" stroke="midnightblue" points="543.112,-16.1072 552.903,-12.059 542.724,-9.11798 543.112,-16.1072"/>
</g>
<!-- Node6 -->
<g id="node6" class="node"><title>Node6</title>
<polygon fill="none" stroke="#bfbfbf" points="422.5,-112.5 422.5,-131.5 466.5,-131.5 466.5,-112.5 422.5,-112.5"/>
<text text-anchor="middle" x="444.5" y="-119.5" font-family="Helvetica,sans-Serif" font-size="10.00">vector</text>
</g>
<!-- Node4&#45;&gt;Node6 -->
<g id="edge6" class="edge"><title>Node4&#45;&gt;Node6</title>
<path fill="none" stroke="midnightblue" d="M294.705,-168.444C326.776,-158.714 379.022,-142.864 412.565,-132.688"/>
<polygon fill="midnightblue" stroke="midnightblue" points="413.779,-135.977 422.332,-129.725 411.747,-129.279 413.779,-135.977"/>
</g>
<!-- Node7 -->
<g id="node7" class="node"><title>Node7</title>
<polygon fill="none" stroke="#bfbfbf" points="103,-112.5 103,-131.5 186,-131.5 186,-112.5 103,-112.5"/>
<text text-anchor="middle" x="144.5" y="-119.5" font-family="Helvetica,sans-Serif" font-size="10.00">unordered_map</text>
</g>
<!-- Node4&#45;&gt;Node7 -->
<g id="edge7" class="edge"><title>Node4&#45;&gt;Node7</title>
<path fill="none" stroke="midnightblue" d="M247.169,-168.444C227.18,-159.596 195.757,-145.687 172.936,-135.586"/>
<polygon fill="midnightblue" stroke="midnightblue" points="174.302,-132.363 163.741,-131.516 171.468,-138.764 174.302,-132.363"/>
</g>
<!-- Node8 -->
<g id="node8" class="node"><title>Node8</title>
<g id="a_node8"><a xlink:href="QualityObject_8h_source.html" target="_top" xlink:title="QualityControl/QualityObject.h">
<polygon fill="none" stroke="black" points="256,-112.5 256,-131.5 405,-131.5 405,-112.5 256,-112.5"/>
<text text-anchor="middle" x="330.5" y="-119.5" font-family="Helvetica,sans-Serif" font-size="10.00">QualityControl/QualityObject.h</text>
</a>
</g>
</g>
<!-- Node4&#45;&gt;Node8 -->
<g id="edge8" class="edge"><title>Node4&#45;&gt;Node8</title>
<path fill="none" stroke="midnightblue" d="M276.783,-168.324C286.336,-160.263 300.78,-148.077 312.284,-138.369"/>
<polygon fill="midnightblue" stroke="midnightblue" points="314.644,-140.958 320.03,-131.834 310.13,-135.608 314.644,-140.958"/>
</g>
<!-- Node4&#45;&gt;Node15 -->
<g id="edge16" class="edge"><title>Node4&#45;&gt;Node15</title>
<path fill="none" stroke="midnightblue" d="M314.194,-168.444C367.364,-158.905 453.324,-143.483 510.126,-133.293"/>
<polygon fill="midnightblue" stroke="midnightblue" points="510.804,-136.727 520.029,-131.516 509.568,-129.837 510.804,-136.727"/>
</g>
<!-- Node9 -->
<g id="node9" class="node"><title>Node9</title>
<polygon fill="none" stroke="#bfbfbf" points="228.5,-56.5 228.5,-75.5 282.5,-75.5 282.5,-56.5 228.5,-56.5"/>
<text text-anchor="middle" x="255.5" y="-63.5" font-family="Helvetica,sans-Serif" font-size="10.00">iostream</text>
</g>
<!-- Node8&#45;&gt;Node9 -->
<g id="edge9" class="edge"><title>Node8&#45;&gt;Node9</title>
<path fill="none" stroke="midnightblue" d="M318.45,-112.324C307.037,-104.107 289.669,-91.6017 276.065,-81.8069"/>
<polygon fill="midnightblue" stroke="midnightblue" points="277.93,-78.8366 267.769,-75.8339 273.84,-84.5174 277.93,-78.8366"/>
</g>
<!-- Node10 -->
<g id="node10" class="node"><title>Node10</title>
<polygon fill="none" stroke="#bfbfbf" points="652,-56.5 652,-75.5 687,-75.5 687,-56.5 652,-56.5"/>
<text text-anchor="middle" x="669.5" y="-63.5" font-family="Helvetica,sans-Serif" font-size="10.00">map</text>
</g>
<!-- Node8&#45;&gt;Node10 -->
<g id="edge10" class="edge"><title>Node8&#45;&gt;Node10</title>
<path fill="none" stroke="midnightblue" d="M400.837,-112.471C474.053,-103.329 584.877,-88.6848 641.759,-75.9959"/>
<polygon fill="midnightblue" stroke="midnightblue" points="642.797,-79.3472 651.731,-73.6511 641.195,-72.533 642.797,-79.3472"/>
</g>
<!-- Node11 -->
<g id="node11" class="node"><title>Node11</title>
<polygon fill="none" stroke="#bfbfbf" points="301,-56.5 301,-75.5 360,-75.5 360,-56.5 301,-56.5"/>
<text text-anchor="middle" x="330.5" y="-63.5" font-family="Helvetica,sans-Serif" font-size="10.00">TObject.h</text>
</g>
<!-- Node8&#45;&gt;Node11 -->
<g id="edge11" class="edge"><title>Node8&#45;&gt;Node11</title>
<path fill="none" stroke="midnightblue" d="M330.5,-112.083C330.5,-105.006 330.5,-94.8611 330.5,-85.9865"/>
<polygon fill="midnightblue" stroke="midnightblue" points="334,-85.751 330.5,-75.7511 327,-85.7511 334,-85.751"/>
</g>
<!-- Node12 -->
<g id="node12" class="node"><title>Node12</title>
<polygon fill="none" stroke="#bfbfbf" points="378.5,-56.5 378.5,-75.5 494.5,-75.5 494.5,-56.5 378.5,-56.5"/>
<text text-anchor="middle" x="436.5" y="-63.5" font-family="Helvetica,sans-Serif" font-size="10.00">Common/Exceptions.h</text>
</g>
<!-- Node8&#45;&gt;Node12 -->
<g id="edge12" class="edge"><title>Node8&#45;&gt;Node12</title>
<path fill="none" stroke="midnightblue" d="M347.531,-112.324C364.53,-103.664 390.876,-90.2424 410.493,-80.249"/>
<polygon fill="midnightblue" stroke="midnightblue" points="412.19,-83.3125 419.512,-75.6545 409.012,-77.0752 412.19,-83.3125"/>
</g>
<!-- Node13 -->
<g id="node13" class="node"><title>Node13</title>
<g id="a_node13"><a xlink:href="Quality_8h.html" target="_top" xlink:title="QualityControl/Quality.h">
<polygon fill="none" stroke="black" points="513,-56.5 513,-75.5 634,-75.5 634,-56.5 513,-56.5"/>
<text text-anchor="middle" x="573.5" y="-63.5" font-family="Helvetica,sans-Serif" font-size="10.00">QualityControl/Quality.h</text>
</a>
</g>
</g>
<!-- Node8&#45;&gt;Node13 -->
<g id="edge13" class="edge"><title>Node8&#45;&gt;Node13</title>
<path fill="none" stroke="midnightblue" d="M369.004,-112.444C411.306,-103.043 479.319,-87.9291 525.173,-77.7393"/>
<polygon fill="midnightblue" stroke="midnightblue" points="526.173,-81.1025 535.176,-75.5164 524.655,-74.2692 526.173,-81.1025"/>
</g>
<!-- Node13&#45;&gt;Node5 -->
<g id="edge15" class="edge"><title>Node13&#45;&gt;Node5</title>
<path fill="none" stroke="midnightblue" d="M573.5,-56.083C573.5,-49.0059 573.5,-38.8611 573.5,-29.9865"/>
<polygon fill="midnightblue" stroke="midnightblue" points="577,-29.751 573.5,-19.7511 570,-29.7511 577,-29.751"/>
</g>
<!-- Node14 -->
<g id="node14" class="node"><title>Node14</title>
<polygon fill="none" stroke="#bfbfbf" points="668.5,-0.5 668.5,-19.5 724.5,-19.5 724.5,-0.5 668.5,-0.5"/>
<text text-anchor="middle" x="696.5" y="-7.5" font-family="Helvetica,sans-Serif" font-size="10.00">Rtypes.h</text>
</g>
<!-- Node13&#45;&gt;Node14 -->
<g id="edge14" class="edge"><title>Node13&#45;&gt;Node14</title>
<path fill="none" stroke="midnightblue" d="M592.99,-56.4435C613.142,-47.5961 644.823,-33.6875 667.831,-23.5865"/>
<polygon fill="midnightblue" stroke="midnightblue" points="669.352,-26.7411 677.101,-19.5164 666.538,-20.3316 669.352,-26.7411"/>
</g>
<!-- Node15&#45;&gt;Node5 -->
<g id="edge17" class="edge"><title>Node15&#45;&gt;Node5</title>
<path fill="none" stroke="midnightblue" d="M638.54,-112.489C660.755,-106.1 682.971,-95.0479 696.5,-76 722.072,-39.9963 648.371,-22.2645 604.159,-15.0701"/>
<polygon fill="midnightblue" stroke="midnightblue" points="604.575,-11.5932 594.161,-13.5391 603.516,-18.5125 604.575,-11.5932"/>
</g>
<!-- Node15&#45;&gt;Node10 -->
<g id="edge18" class="edge"><title>Node15&#45;&gt;Node10</title>
<path fill="none" stroke="midnightblue" d="M583.888,-112.324C600.171,-103.703 625.367,-90.3643 644.216,-80.3855"/>
<polygon fill="midnightblue" stroke="midnightblue" points="645.952,-83.4267 653.153,-75.6545 642.677,-77.2402 645.952,-83.4267"/>
</g>
<!-- Node15&#45;&gt;Node11 -->
<g id="edge20" class="edge"><title>Node15&#45;&gt;Node11</title>
<path fill="none" stroke="midnightblue" d="M529.902,-112.494C492.091,-103.931 431.848,-90.2649 370.21,-76.1569"/>
<polygon fill="midnightblue" stroke="midnightblue" points="370.837,-72.7101 360.308,-73.8895 369.275,-79.5334 370.837,-72.7101"/>
</g>
<!-- Node15&#45;&gt;Node12 -->
<g id="edge21" class="edge"><title>Node15&#45;&gt;Node12</title>
<path fill="none" stroke="midnightblue" d="M546.743,-112.444C525.184,-103.557 491.237,-89.5632 466.706,-79.4514"/>
<polygon fill="midnightblue" stroke="midnightblue" points="467.739,-76.0917 457.16,-75.5164 465.072,-82.5634 467.739,-76.0917"/>
</g>
<!-- Node15&#45;&gt;Node13 -->
<g id="edge22" class="edge"><title>Node15&#45;&gt;Node13</title>
<path fill="none" stroke="midnightblue" d="M568.491,-112.083C569.286,-104.927 570.429,-94.6353 571.423,-85.6911"/>
<polygon fill="midnightblue" stroke="midnightblue" points="574.902,-86.0765 572.528,-75.7511 567.945,-85.3034 574.902,-86.0765"/>
</g>
<!-- Node15&#45;&gt;Node14 -->
<g id="edge19" class="edge"><title>Node15&#45;&gt;Node14</title>
<path fill="none" stroke="midnightblue" d="M643.335,-115.501C669.521,-109.523 696.319,-97.9638 712.5,-76 722.693,-62.1639 715.772,-42.6241 708.107,-28.5865"/>
<polygon fill="midnightblue" stroke="midnightblue" points="711.031,-26.657 702.883,-19.885 705.029,-30.2601 711.031,-26.657"/>
</g>
<!-- Node17&#45;&gt;Node4 -->
<g id="edge25" class="edge"><title>Node17&#45;&gt;Node4</title>
<path fill="none" stroke="midnightblue" d="M266.5,-224.083C266.5,-217.006 266.5,-206.861 266.5,-197.986"/>
<polygon fill="midnightblue" stroke="midnightblue" points="270,-197.751 266.5,-187.751 263,-197.751 270,-197.751"/>
</g>
<!-- Node18&#45;&gt;Node4 -->
<g id="edge28" class="edge"><title>Node18&#45;&gt;Node4</title>
<path fill="none" stroke="midnightblue" d="M417.137,-224.444C386.762,-215.28 338.39,-200.688 304.684,-190.519"/>
<polygon fill="midnightblue" stroke="midnightblue" points="305.315,-187.054 294.73,-187.516 303.293,-193.756 305.315,-187.054"/>
</g>
<!-- Node19 -->
<g id="node19" class="node"><title>Node19</title>
<polygon fill="none" stroke="#bfbfbf" points="398,-168.5 398,-187.5 493,-187.5 493,-168.5 398,-168.5"/>
<text text-anchor="middle" x="445.5" y="-175.5" font-family="Helvetica,sans-Serif" font-size="10.00">CCDB/CcdbApi.h</text>
</g>
<!-- Node18&#45;&gt;Node19 -->
<g id="edge27" class="edge"><title>Node18&#45;&gt;Node19</title>
<path fill="none" stroke="midnightblue" d="M445.5,-224.083C445.5,-217.006 445.5,-206.861 445.5,-197.986"/>
<polygon fill="midnightblue" stroke="midnightblue" points="449,-197.751 445.5,-187.751 442,-197.751 449,-197.751"/>
</g>
</g>
</svg>
