<?xml version="1.0" encoding="UTF-8" standalone="no"?>
<!DOCTYPE svg PUBLIC "-//W3C//DTD SVG 1.1//EN"
 "http://www.w3.org/Graphics/SVG/1.1/DTD/svg11.dtd">
<!-- Generated by graphviz version 2.38.0 (20140413.2041)
 -->
<!-- Title: Framework/test/testTrendingTask.cxx Pages: 1 -->
<!--zoomable 352 -->
<svg id="main" version="1.1" xmlns="http://www.w3.org/2000/svg" xmlns:xlink="http://www.w3.org/1999/xlink" xml:space="preserve" onload="init(evt)">
<style type="text/css"><![CDATA[
.edge:hover path { stroke: red; }
.edge:hover polygon { stroke: red; fill: red; }
]]></style>
<script type="text/javascript"><![CDATA[
var edges = document.getElementsByTagName('g');
if (edges && edges.length) {
  for (var i=0;i<edges.length;i++) {
    if (edges[i].id.substr(0,4)=='edge') {
      edges[i].setAttribute('class','edge');
    }
  }
}
]]></script>
        <defs>
                <circle id="rim" cx="0" cy="0" r="7"/>
                <circle id="rim2" cx="0" cy="0" r="3.5"/>
                <g id="zoomPlus">
                        <use xlink:href="#rim" fill="#404040">
                                <set attributeName="fill" to="#808080" begin="zoomplus.mouseover" end="zoomplus.mouseout"/>
                        </use>
                        <path d="M-4,0h8M0,-4v8" fill="none" stroke="white" stroke-width="1.5" pointer-events="none"/>
                </g>
                <g id="zoomMin">
                        <use xlink:href="#rim" fill="#404040">
                                <set attributeName="fill" to="#808080" begin="zoomminus.mouseover" end="zoomminus.mouseout"/>
                        </use>
                        <path d="M-4,0h8" fill="none" stroke="white" stroke-width="1.5" pointer-events="none"/>
                </g>
                <g id="dirArrow">
                        <path fill="none" stroke="white" stroke-width="1.5" d="M0,-3.0v7 M-2.5,-0.5L0,-3.0L2.5,-0.5"/>
                </g>
               <g id="resetDef">
                       <use xlink:href="#rim2" fill="#404040">
                               <set attributeName="fill" to="#808080" begin="reset.mouseover" end="reset.mouseout"/>
                       </use>
               </g>
        </defs>

<script type="text/javascript">
var viewWidth = 1512;
var viewHeight = 352;
var sectionId = 'dynsection-0';
</script>
<script xlink:href="svgpan.js"/>
<svg id="graph" class="graph">
<g id="viewport">
<title>Framework/test/testTrendingTask.cxx</title>
<!-- Node1 -->
<g id="node1" class="node"><title>Node1</title>
<polygon fill="#bfbfbf" stroke="black" points="757.5,-313.5 757.5,-343.5 899.5,-343.5 899.5,-313.5 757.5,-313.5"/>
<text text-anchor="start" x="765.5" y="-331.5" font-family="Helvetica,sans-Serif" font-size="10.00">Framework/test/testTrending</text>
<text text-anchor="middle" x="828.5" y="-320.5" font-family="Helvetica,sans-Serif" font-size="10.00">Task.cxx</text>
</g>
<!-- Node2 -->
<g id="node2" class="node"><title>Node2</title>
<polygon fill="none" stroke="#bfbfbf" points="0,-252 0,-271 119,-271 119,-252 0,-252"/>
<text text-anchor="middle" x="59.5" y="-259" font-family="Helvetica,sans-Serif" font-size="10.00">getTestDataDirectory.h</text>
</g>
<!-- Node1&#45;&gt;Node2 -->
<g id="edge1" class="edge"><title>Node1&#45;&gt;Node2</title>
<path fill="none" stroke="midnightblue" d="M757.173,-325.165C630.942,-320.398 360.128,-307.324 133.5,-277 125.382,-275.914 116.812,-274.492 108.496,-272.965"/>
<polygon fill="midnightblue" stroke="midnightblue" points="109.005,-269.499 98.5262,-271.064 107.694,-276.375 109.005,-269.499"/>
</g>
<!-- Node3 -->
<g id="node3" class="node"><title>Node3</title>
<g id="a_node3"><a xlink:href="TrendingTask_8h.html" target="_top" xlink:title="QualityControl/TrendingTask.h">
<polygon fill="none" stroke="black" points="602,-190.5 602,-209.5 751,-209.5 751,-190.5 602,-190.5"/>
<text text-anchor="middle" x="676.5" y="-197.5" font-family="Helvetica,sans-Serif" font-size="10.00">QualityControl/TrendingTask.h</text>
</a>
</g>
</g>
<!-- Node1&#45;&gt;Node3 -->
<g id="edge2" class="edge"><title>Node1&#45;&gt;Node3</title>
<path fill="none" stroke="midnightblue" d="M796.261,-313.432C777.931,-304.534 755.181,-291.909 737.5,-277 717.173,-259.86 698.814,-235.123 687.668,-218.575"/>
<polygon fill="midnightblue" stroke="midnightblue" points="690.389,-216.341 681.978,-209.898 684.535,-220.18 690.389,-216.341"/>
</g>
<!-- Node6 -->
<g id="node6" class="node"><title>Node6</title>
<polygon fill="none" stroke="#bfbfbf" points="478.5,-62 478.5,-81 624.5,-81 624.5,-62 478.5,-62"/>
<text text-anchor="middle" x="551.5" y="-69" font-family="Helvetica,sans-Serif" font-size="10.00">Framework/ServiceRegistry.h</text>
</g>
<!-- Node1&#45;&gt;Node6 -->
<g id="edge44" class="edge"><title>Node1&#45;&gt;Node6</title>
<path fill="none" stroke="midnightblue" d="M757.405,-324.664C651.14,-316.137 453.839,-282.787 364.5,-154 356.647,-142.679 356.123,-133.939 364.5,-123 372.879,-112.058 447.211,-94.4209 499.59,-83.1507"/>
<polygon fill="midnightblue" stroke="midnightblue" points="500.371,-86.5631 509.421,-81.0545 498.911,-79.717 500.371,-86.5631"/>
</g>
<!-- Node7 -->
<g id="node7" class="node"><title>Node7</title>
<g id="a_node7"><a xlink:href="Triggers_8h.html" target="_top" xlink:title="QualityControl/Triggers.h">
<polygon fill="none" stroke="black" points="89,-62 89,-81 214,-81 214,-62 89,-62"/>
<text text-anchor="middle" x="151.5" y="-69" font-family="Helvetica,sans-Serif" font-size="10.00">QualityControl/Triggers.h</text>
</a>
</g>
</g>
<!-- Node1&#45;&gt;Node7 -->
<g id="edge43" class="edge"><title>Node1&#45;&gt;Node7</title>
<path fill="none" stroke="midnightblue" d="M757.306,-322.669C684.121,-316.504 567.357,-303.314 469.5,-277 329.146,-239.259 258.294,-266.683 166.5,-154 152.12,-136.348 149.787,-109.377 150.101,-91.3526"/>
<polygon fill="midnightblue" stroke="midnightblue" points="153.604,-91.3707 150.573,-81.2188 146.612,-91.0454 153.604,-91.3707"/>
</g>
<!-- Node17 -->
<g id="node17" class="node"><title>Node17</title>
<g id="a_node17"><a xlink:href="DatabaseFactory_8h.html" target="_top" xlink:title="QualityControl/DatabaseFactory.h">
<polygon fill="none" stroke="black" points="746,-252 746,-271 911,-271 911,-252 746,-252"/>
<text text-anchor="middle" x="828.5" y="-259" font-family="Helvetica,sans-Serif" font-size="10.00">QualityControl/DatabaseFactory.h</text>
</a>
</g>
</g>
<!-- Node1&#45;&gt;Node17 -->
<g id="edge20" class="edge"><title>Node1&#45;&gt;Node17</title>
<path fill="none" stroke="midnightblue" d="M828.5,-313.396C828.5,-304.064 828.5,-291.714 828.5,-281.517"/>
<polygon fill="midnightblue" stroke="midnightblue" points="832,-281.195 828.5,-271.195 825,-281.195 832,-281.195"/>
</g>
<!-- Node25 -->
<g id="node25" class="node"><title>Node25</title>
<g id="a_node25"><a xlink:href="MonitorObject_8h.html" target="_top" xlink:title="QualityControl/MonitorObject.h">
<polygon fill="none" stroke="black" points="1189,-129 1189,-148 1340,-148 1340,-129 1189,-129"/>
<text text-anchor="middle" x="1264.5" y="-136" font-family="Helvetica,sans-Serif" font-size="10.00">QualityControl/MonitorObject.h</text>
</a>
</g>
</g>
<!-- Node1&#45;&gt;Node25 -->
<g id="edge42" class="edge"><title>Node1&#45;&gt;Node25</title>
<path fill="none" stroke="midnightblue" d="M860.382,-313.412C897.392,-297.085 960.291,-269.422 1014.5,-246 1093.95,-211.673 1187.91,-171.853 1234.79,-152.041"/>
<polygon fill="midnightblue" stroke="midnightblue" points="1236.2,-155.242 1244.05,-148.126 1233.48,-148.794 1236.2,-155.242"/>
</g>
<!-- Node26 -->
<g id="node26" class="node"><title>Node26</title>
<polygon fill="none" stroke="#bfbfbf" points="1023,-246.5 1023,-276.5 1158,-276.5 1158,-246.5 1023,-246.5"/>
<text text-anchor="start" x="1031" y="-264.5" font-family="Helvetica,sans-Serif" font-size="10.00">Configuration/Configuration</text>
<text text-anchor="middle" x="1090.5" y="-253.5" font-family="Helvetica,sans-Serif" font-size="10.00">Factory.h</text>
</g>
<!-- Node1&#45;&gt;Node26 -->
<g id="edge45" class="edge"><title>Node1&#45;&gt;Node26</title>
<path fill="none" stroke="midnightblue" d="M885.028,-313.476C925.779,-303.366 980.929,-289.684 1023.83,-279.04"/>
<polygon fill="midnightblue" stroke="midnightblue" points="1024.76,-282.416 1033.62,-276.611 1023.07,-275.622 1024.76,-282.416"/>
</g>
<!-- Node27 -->
<g id="node27" class="node"><title>Node27</title>
<polygon fill="none" stroke="#bfbfbf" points="1176,-252 1176,-271 1223,-271 1223,-252 1176,-252"/>
<text text-anchor="middle" x="1199.5" y="-259" font-family="Helvetica,sans-Serif" font-size="10.00">TH1I.h</text>
</g>
<!-- Node1&#45;&gt;Node27 -->
<g id="edge46" class="edge"><title>Node1&#45;&gt;Node27</title>
<path fill="none" stroke="midnightblue" d="M899.526,-322.68C968.983,-316.631 1077.18,-303.625 1167.5,-277 1169.43,-276.431 1171.4,-275.768 1173.35,-275.044"/>
<polygon fill="midnightblue" stroke="midnightblue" points="1175.01,-278.147 1182.9,-271.077 1172.32,-271.684 1175.01,-278.147"/>
</g>
<!-- Node28 -->
<g id="node28" class="node"><title>Node28</title>
<polygon fill="none" stroke="#bfbfbf" points="1241,-252 1241,-271 1360,-271 1360,-252 1241,-252"/>
<text text-anchor="middle" x="1300.5" y="-259" font-family="Helvetica,sans-Serif" font-size="10.00">boost/test/unit_test.hpp</text>
</g>
<!-- Node1&#45;&gt;Node28 -->
<g id="edge47" class="edge"><title>Node1&#45;&gt;Node28</title>
<path fill="none" stroke="midnightblue" d="M899.559,-320.481C980.462,-312.059 1116.45,-296.589 1232.5,-277 1239.22,-275.866 1246.28,-274.527 1253.2,-273.129"/>
<polygon fill="midnightblue" stroke="midnightblue" points="1254.12,-276.514 1263.2,-271.056 1252.7,-269.66 1254.12,-276.514"/>
</g>
<!-- Node4 -->
<g id="node4" class="node"><title>Node4</title>
<g id="a_node4"><a xlink:href="PostProcessingInterface_8h.html" target="_top" xlink:title="QualityControl/PostProcessing\lInterface.h">
<polygon fill="none" stroke="black" points="442,-123.5 442,-153.5 593,-153.5 593,-123.5 442,-123.5"/>
<text text-anchor="start" x="450" y="-141.5" font-family="Helvetica,sans-Serif" font-size="10.00">QualityControl/PostProcessing</text>
<text text-anchor="middle" x="517.5" y="-130.5" font-family="Helvetica,sans-Serif" font-size="10.00">Interface.h</text>
</a>
</g>
</g>
<!-- Node3&#45;&gt;Node4 -->
<g id="edge3" class="edge"><title>Node3&#45;&gt;Node4</title>
<path fill="none" stroke="midnightblue" d="M653.719,-190.475C630.575,-181.814 594.048,-168.145 564.643,-157.141"/>
<polygon fill="midnightblue" stroke="midnightblue" points="565.566,-153.75 554.973,-153.523 563.112,-160.306 565.566,-153.75"/>
</g>
<!-- Node9 -->
<g id="node9" class="node"><title>Node9</title>
<g id="a_node9"><a xlink:href="TrendingTaskConfig_8h.html" target="_top" xlink:title="QualityControl/TrendingTask\lConfig.h">
<polygon fill="none" stroke="black" points="176,-123.5 176,-153.5 317,-153.5 317,-123.5 176,-123.5"/>
<text text-anchor="start" x="184" y="-141.5" font-family="Helvetica,sans-Serif" font-size="10.00">QualityControl/TrendingTask</text>
<text text-anchor="middle" x="246.5" y="-130.5" font-family="Helvetica,sans-Serif" font-size="10.00">Config.h</text>
</a>
</g>
</g>
<!-- Node3&#45;&gt;Node9 -->
<g id="edge9" class="edge"><title>Node3&#45;&gt;Node9</title>
<path fill="none" stroke="midnightblue" d="M614.891,-190.475C539.243,-180.007 410.728,-162.225 327.243,-150.673"/>
<polygon fill="midnightblue" stroke="midnightblue" points="327.677,-147.199 317.291,-149.296 326.717,-154.133 327.677,-147.199"/>
</g>
<!-- Node12 -->
<g id="node12" class="node"><title>Node12</title>
<g id="a_node12"><a xlink:href="Reductor_8h.html" target="_top" xlink:title="QualityControl/Reductor.h">
<polygon fill="none" stroke="black" points="611.5,-129 611.5,-148 741.5,-148 741.5,-129 611.5,-129"/>
<text text-anchor="middle" x="676.5" y="-136" font-family="Helvetica,sans-Serif" font-size="10.00">QualityControl/Reductor.h</text>
</a>
</g>
</g>
<!-- Node3&#45;&gt;Node12 -->
<g id="edge15" class="edge"><title>Node3&#45;&gt;Node12</title>
<path fill="none" stroke="midnightblue" d="M676.5,-190.475C676.5,-182.08 676.5,-168.981 676.5,-158.163"/>
<polygon fill="midnightblue" stroke="midnightblue" points="680,-158.009 676.5,-148.009 673,-158.009 680,-158.009"/>
</g>
<!-- Node14 -->
<g id="node14" class="node"><title>Node14</title>
<polygon fill="none" stroke="#bfbfbf" points="861.5,-129 861.5,-148 913.5,-148 913.5,-129 861.5,-129"/>
<text text-anchor="middle" x="887.5" y="-136" font-family="Helvetica,sans-Serif" font-size="10.00">memory</text>
</g>
<!-- Node3&#45;&gt;Node14 -->
<g id="edge17" class="edge"><title>Node3&#45;&gt;Node14</title>
<path fill="none" stroke="midnightblue" d="M716.461,-190.493C752.442,-182.43 806.569,-169.299 852.5,-154 854.419,-153.361 856.382,-152.666 858.35,-151.938"/>
<polygon fill="midnightblue" stroke="midnightblue" points="860.033,-155.038 868.064,-148.128 857.477,-148.521 860.033,-155.038"/>
</g>
<!-- Node15 -->
<g id="node15" class="node"><title>Node15</title>
<polygon fill="none" stroke="#bfbfbf" points="760,-129 760,-148 843,-148 843,-129 760,-129"/>
<text text-anchor="middle" x="801.5" y="-136" font-family="Helvetica,sans-Serif" font-size="10.00">unordered_map</text>
</g>
<!-- Node3&#45;&gt;Node15 -->
<g id="edge18" class="edge"><title>Node3&#45;&gt;Node15</title>
<path fill="none" stroke="midnightblue" d="M694.409,-190.475C715.387,-180.49 750.35,-163.848 774.593,-152.307"/>
<polygon fill="midnightblue" stroke="midnightblue" points="776.099,-155.467 783.624,-148.009 773.09,-149.147 776.099,-155.467"/>
</g>
<!-- Node16 -->
<g id="node16" class="node"><title>Node16</title>
<polygon fill="none" stroke="#bfbfbf" points="373.5,-129 373.5,-148 423.5,-148 423.5,-129 373.5,-129"/>
<text text-anchor="middle" x="398.5" y="-136" font-family="Helvetica,sans-Serif" font-size="10.00">TTree.h</text>
</g>
<!-- Node3&#45;&gt;Node16 -->
<g id="edge19" class="edge"><title>Node3&#45;&gt;Node16</title>
<path fill="none" stroke="midnightblue" d="M609.607,-190.469C560.293,-183.254 491.917,-171.301 433.5,-154 431.212,-153.322 428.869,-152.546 426.534,-151.711"/>
<polygon fill="midnightblue" stroke="midnightblue" points="427.718,-148.417 417.129,-148.065 425.188,-154.943 427.718,-148.417"/>
</g>
<!-- Node5 -->
<g id="node5" class="node"><title>Node5</title>
<polygon fill="none" stroke="#bfbfbf" points="632,-0.5 632,-19.5 673,-19.5 673,-0.5 632,-0.5"/>
<text text-anchor="middle" x="652.5" y="-7.5" font-family="Helvetica,sans-Serif" font-size="10.00">string</text>
</g>
<!-- Node4&#45;&gt;Node5 -->
<g id="edge4" class="edge"><title>Node4&#45;&gt;Node5</title>
<path fill="none" stroke="midnightblue" d="M576.611,-123.448C597.247,-115.813 618.881,-104.266 633.5,-87 647.067,-70.9766 651.181,-46.6415 652.309,-29.8458"/>
<polygon fill="midnightblue" stroke="midnightblue" points="655.815,-29.7415 652.692,-19.6174 648.82,-29.4793 655.815,-29.7415"/>
</g>
<!-- Node4&#45;&gt;Node6 -->
<g id="edge5" class="edge"><title>Node4&#45;&gt;Node6</title>
<path fill="none" stroke="midnightblue" d="M524.877,-123.396C529.969,-113.662 536.777,-100.646 542.234,-90.2139"/>
<polygon fill="midnightblue" stroke="midnightblue" points="545.418,-91.6778 546.952,-81.1945 539.216,-88.4333 545.418,-91.6778"/>
</g>
<!-- Node4&#45;&gt;Node7 -->
<g id="edge6" class="edge"><title>Node4&#45;&gt;Node7</title>
<path fill="none" stroke="midnightblue" d="M441.665,-124.032C372.741,-111.791 272.504,-93.9898 209.707,-82.8372"/>
<polygon fill="midnightblue" stroke="midnightblue" points="210.037,-79.3412 199.579,-81.0386 208.813,-86.2333 210.037,-79.3412"/>
</g>
<!-- Node7&#45;&gt;Node5 -->
<g id="edge7" class="edge"><title>Node7&#45;&gt;Node5</title>
<path fill="none" stroke="midnightblue" d="M214.012,-62.0781C229.523,-60.0385 246.111,-57.8998 261.5,-56 395.438,-39.4659 555.439,-21.6592 621.565,-14.385"/>
<polygon fill="midnightblue" stroke="midnightblue" points="622.157,-17.8411 631.715,-13.2701 621.393,-10.8829 622.157,-17.8411"/>
</g>
<!-- Node8 -->
<g id="node8" class="node"><title>Node8</title>
<polygon fill="none" stroke="#bfbfbf" points="122,-0.5 122,-19.5 181,-19.5 181,-0.5 122,-0.5"/>
<text text-anchor="middle" x="151.5" y="-7.5" font-family="Helvetica,sans-Serif" font-size="10.00">functional</text>
</g>
<!-- Node7&#45;&gt;Node8 -->
<g id="edge8" class="edge"><title>Node7&#45;&gt;Node8</title>
<path fill="none" stroke="midnightblue" d="M151.5,-61.9751C151.5,-53.5803 151.5,-40.4806 151.5,-29.6631"/>
<polygon fill="midnightblue" stroke="midnightblue" points="155,-29.5091 151.5,-19.5091 148,-29.5091 155,-29.5091"/>
</g>
<!-- Node9&#45;&gt;Node5 -->
<g id="edge11" class="edge"><title>Node9&#45;&gt;Node5</title>
<path fill="none" stroke="midnightblue" d="M317.141,-125.465C352.751,-117.626 395.83,-105.361 431.5,-87 450.879,-77.0244 449.996,-65.7291 469.5,-56 519.462,-31.0775 584.135,-19.3855 621.703,-14.3597"/>
<polygon fill="midnightblue" stroke="midnightblue" points="622.513,-17.7853 631.996,-13.0599 621.636,-10.8404 622.513,-17.7853"/>
</g>
<!-- Node10 -->
<g id="node10" class="node"><title>Node10</title>
<polygon fill="none" stroke="#bfbfbf" points="324.5,-0.5 324.5,-19.5 368.5,-19.5 368.5,-0.5 324.5,-0.5"/>
<text text-anchor="middle" x="346.5" y="-7.5" font-family="Helvetica,sans-Serif" font-size="10.00">vector</text>
</g>
<!-- Node9&#45;&gt;Node10 -->
<g id="edge10" class="edge"><title>Node9&#45;&gt;Node10</title>
<path fill="none" stroke="midnightblue" d="M245.557,-123.379C245.123,-105.884 246.862,-75.9519 261.5,-56 274.477,-38.3116 296.523,-26.9265 314.911,-20.0337"/>
<polygon fill="midnightblue" stroke="midnightblue" points="316.097,-23.327 324.397,-16.7421 313.802,-16.7138 316.097,-23.327"/>
</g>
<!-- Node11 -->
<g id="node11" class="node"><title>Node11</title>
<g id="a_node11"><a xlink:href="PostProcessingConfig_8h.html" target="_top" xlink:title="QualityControl/PostProcessing\lConfig.h">
<polygon fill="none" stroke="black" points="271,-56.5 271,-86.5 422,-86.5 422,-56.5 271,-56.5"/>
<text text-anchor="start" x="279" y="-74.5" font-family="Helvetica,sans-Serif" font-size="10.00">QualityControl/PostProcessing</text>
<text text-anchor="middle" x="346.5" y="-63.5" font-family="Helvetica,sans-Serif" font-size="10.00">Config.h</text>
</a>
</g>
</g>
<!-- Node9&#45;&gt;Node11 -->
<g id="edge12" class="edge"><title>Node9&#45;&gt;Node11</title>
<path fill="none" stroke="midnightblue" d="M268.199,-123.396C282.22,-114.282 300.669,-102.29 316.137,-92.236"/>
<polygon fill="midnightblue" stroke="midnightblue" points="318.367,-94.961 324.844,-86.5765 314.552,-89.0919 318.367,-94.961"/>
</g>
<!-- Node11&#45;&gt;Node5 -->
<g id="edge14" class="edge"><title>Node11&#45;&gt;Node5</title>
<path fill="none" stroke="midnightblue" d="M418.63,-56.4747C483.188,-43.9217 574.703,-26.1272 621.826,-16.9644"/>
<polygon fill="midnightblue" stroke="midnightblue" points="622.577,-20.384 631.725,-15.0395 621.241,-13.5126 622.577,-20.384"/>
</g>
<!-- Node11&#45;&gt;Node10 -->
<g id="edge13" class="edge"><title>Node11&#45;&gt;Node10</title>
<path fill="none" stroke="midnightblue" d="M346.5,-56.3993C346.5,-48.4664 346.5,-38.458 346.5,-29.8583"/>
<polygon fill="midnightblue" stroke="midnightblue" points="350,-29.6577 346.5,-19.6578 343,-29.6578 350,-29.6577"/>
</g>
<!-- Node13 -->
<g id="node13" class="node"><title>Node13</title>
<polygon fill="none" stroke="#bfbfbf" points="997,-62 997,-81 1056,-81 1056,-62 997,-62"/>
<text text-anchor="middle" x="1026.5" y="-69" font-family="Helvetica,sans-Serif" font-size="10.00">TObject.h</text>
</g>
<!-- Node12&#45;&gt;Node13 -->
<g id="edge16" class="edge"><title>Node12&#45;&gt;Node13</title>
<path fill="none" stroke="midnightblue" d="M720.111,-128.997C730.401,-127.01 741.335,-124.916 751.5,-123 835.127,-107.238 933.183,-89.3811 986.687,-79.6904"/>
<polygon fill="midnightblue" stroke="midnightblue" points="987.56,-83.0894 996.776,-77.8642 986.313,-76.2013 987.56,-83.0894"/>
</g>
<!-- Node17&#45;&gt;Node14 -->
<g id="edge21" class="edge"><title>Node17&#45;&gt;Node14</title>
<path fill="none" stroke="midnightblue" d="M820.451,-251.874C808.709,-238.193 789.519,-210.929 801.5,-190 807.973,-178.693 836.558,-163.227 859.019,-152.4"/>
<polygon fill="midnightblue" stroke="midnightblue" points="860.641,-155.505 868.188,-148.069 857.651,-149.175 860.641,-155.505"/>
</g>
<!-- Node18 -->
<g id="node18" class="node"><title>Node18</title>
<g id="a_node18"><a xlink:href="DatabaseInterface_8h.html" target="_top" xlink:title="QualityControl/DatabaseInterface.h">
<polygon fill="none" stroke="black" points="810.5,-190.5 810.5,-209.5 980.5,-209.5 980.5,-190.5 810.5,-190.5"/>
<text text-anchor="middle" x="895.5" y="-197.5" font-family="Helvetica,sans-Serif" font-size="10.00">QualityControl/DatabaseInterface.h</text>
</a>
</g>
</g>
<!-- Node17&#45;&gt;Node18 -->
<g id="edge22" class="edge"><title>Node17&#45;&gt;Node18</title>
<path fill="none" stroke="midnightblue" d="M838.099,-251.975C848.548,-242.697 865.468,-227.671 878.236,-216.331"/>
<polygon fill="midnightblue" stroke="midnightblue" points="880.765,-218.766 885.918,-209.509 876.117,-213.532 880.765,-218.766"/>
</g>
<!-- Node18&#45;&gt;Node5 -->
<g id="edge23" class="edge"><title>Node18&#45;&gt;Node5</title>
<path fill="none" stroke="midnightblue" d="M914.796,-190.48C928.929,-183.081 947.057,-170.887 955.5,-154 966.253,-132.493 951.154,-62.5886 944.5,-56 908.087,-19.9432 750.63,-12.758 683.264,-11.3409"/>
<polygon fill="midnightblue" stroke="midnightblue" points="683.32,-7.8414 673.258,-11.1594 683.193,-14.8402 683.32,-7.8414"/>
</g>
<!-- Node18&#45;&gt;Node10 -->
<g id="edge25" class="edge"><title>Node18&#45;&gt;Node10</title>
<path fill="none" stroke="midnightblue" d="M903.67,-190.124C916.639,-174.936 938.878,-143.609 922.5,-123 853.954,-36.7454 490.046,-16.2917 378.819,-12.0221"/>
<polygon fill="midnightblue" stroke="midnightblue" points="378.69,-8.51516 368.569,-11.6476 378.434,-15.5105 378.69,-8.51516"/>
</g>
<!-- Node18&#45;&gt;Node14 -->
<g id="edge24" class="edge"><title>Node18&#45;&gt;Node14</title>
<path fill="none" stroke="midnightblue" d="M894.354,-190.475C893.225,-182.08 891.464,-168.981 890.009,-158.163"/>
<polygon fill="midnightblue" stroke="midnightblue" points="893.445,-157.453 888.644,-148.009 886.508,-158.386 893.445,-157.453"/>
</g>
<!-- Node18&#45;&gt;Node15 -->
<g id="edge26" class="edge"><title>Node18&#45;&gt;Node15</title>
<path fill="none" stroke="midnightblue" d="M882.032,-190.475C866.815,-180.843 841.813,-165.017 823.699,-153.552"/>
<polygon fill="midnightblue" stroke="midnightblue" points="825.264,-150.4 814.943,-148.009 821.521,-156.315 825.264,-150.4"/>
</g>
<!-- Node19 -->
<g id="node19" class="node"><title>Node19</title>
<g id="a_node19"><a xlink:href="QualityObject_8h_source.html" target="_top" xlink:title="QualityControl/QualityObject.h">
<polygon fill="none" stroke="black" points="1022,-129 1022,-148 1171,-148 1171,-129 1022,-129"/>
<text text-anchor="middle" x="1096.5" y="-136" font-family="Helvetica,sans-Serif" font-size="10.00">QualityControl/QualityObject.h</text>
</a>
</g>
</g>
<!-- Node18&#45;&gt;Node19 -->
<g id="edge27" class="edge"><title>Node18&#45;&gt;Node19</title>
<path fill="none" stroke="midnightblue" d="M924.298,-190.475C959.374,-180.092 1018.76,-162.512 1057.81,-150.954"/>
<polygon fill="midnightblue" stroke="midnightblue" points="1059.16,-154.204 1067.76,-148.009 1057.17,-147.492 1059.16,-154.204"/>
</g>
<!-- Node18&#45;&gt;Node25 -->
<g id="edge35" class="edge"><title>Node18&#45;&gt;Node25</title>
<path fill="none" stroke="midnightblue" d="M950.973,-190.482C1008.43,-181.602 1100.81,-167.169 1180.5,-154 1188.69,-152.647 1197.31,-151.192 1205.8,-149.743"/>
<polygon fill="midnightblue" stroke="midnightblue" points="1206.4,-153.192 1215.66,-148.052 1205.21,-146.293 1206.4,-153.192"/>
</g>
<!-- Node19&#45;&gt;Node13 -->
<g id="edge30" class="edge"><title>Node19&#45;&gt;Node13</title>
<path fill="none" stroke="midnightblue" d="M1087.06,-128.734C1075.83,-118.305 1056.88,-100.709 1043.16,-87.9732"/>
<polygon fill="midnightblue" stroke="midnightblue" points="1045.5,-85.3671 1035.79,-81.1273 1040.74,-90.4966 1045.5,-85.3671"/>
</g>
<!-- Node20 -->
<g id="node20" class="node"><title>Node20</title>
<polygon fill="none" stroke="#bfbfbf" points="1074.5,-62 1074.5,-81 1128.5,-81 1128.5,-62 1074.5,-62"/>
<text text-anchor="middle" x="1101.5" y="-69" font-family="Helvetica,sans-Serif" font-size="10.00">iostream</text>
</g>
<!-- Node19&#45;&gt;Node20 -->
<g id="edge28" class="edge"><title>Node19&#45;&gt;Node20</title>
<path fill="none" stroke="midnightblue" d="M1097.17,-128.734C1097.91,-119.183 1099.11,-103.618 1100.06,-91.2829"/>
<polygon fill="midnightblue" stroke="midnightblue" points="1103.56,-91.3663 1100.84,-81.1273 1096.58,-90.8294 1103.56,-91.3663"/>
</g>
<!-- Node21 -->
<g id="node21" class="node"><title>Node21</title>
<polygon fill="none" stroke="#bfbfbf" points="1147,-62 1147,-81 1182,-81 1182,-62 1147,-62"/>
<text text-anchor="middle" x="1164.5" y="-69" font-family="Helvetica,sans-Serif" font-size="10.00">map</text>
</g>
<!-- Node19&#45;&gt;Node21 -->
<g id="edge29" class="edge"><title>Node19&#45;&gt;Node21</title>
<path fill="none" stroke="midnightblue" d="M1105.67,-128.734C1116.48,-118.403 1134.65,-101.037 1147.94,-88.3315"/>
<polygon fill="midnightblue" stroke="midnightblue" points="1150.66,-90.5672 1155.47,-81.1273 1145.83,-85.5071 1150.66,-90.5672"/>
</g>
<!-- Node22 -->
<g id="node22" class="node"><title>Node22</title>
<polygon fill="none" stroke="#bfbfbf" points="1200.5,-62 1200.5,-81 1316.5,-81 1316.5,-62 1200.5,-62"/>
<text text-anchor="middle" x="1258.5" y="-69" font-family="Helvetica,sans-Serif" font-size="10.00">Common/Exceptions.h</text>
</g>
<!-- Node19&#45;&gt;Node22 -->
<g id="edge31" class="edge"><title>Node19&#45;&gt;Node22</title>
<path fill="none" stroke="midnightblue" d="M1118.01,-128.869C1146.17,-117.571 1195.7,-97.6961 1227.8,-84.8183"/>
<polygon fill="midnightblue" stroke="midnightblue" points="1229.18,-88.0358 1237.16,-81.0637 1226.57,-81.5392 1229.18,-88.0358"/>
</g>
<!-- Node23 -->
<g id="node23" class="node"><title>Node23</title>
<g id="a_node23"><a xlink:href="Quality_8h.html" target="_top" xlink:title="QualityControl/Quality.h">
<polygon fill="none" stroke="black" points="1335,-62 1335,-81 1456,-81 1456,-62 1335,-62"/>
<text text-anchor="middle" x="1395.5" y="-69" font-family="Helvetica,sans-Serif" font-size="10.00">QualityControl/Quality.h</text>
</a>
</g>
</g>
<!-- Node19&#45;&gt;Node23 -->
<g id="edge32" class="edge"><title>Node19&#45;&gt;Node23</title>
<path fill="none" stroke="midnightblue" d="M1135.9,-128.936C1190.01,-117.171 1287.32,-96.0179 1346.2,-83.2176"/>
<polygon fill="midnightblue" stroke="midnightblue" points="1346.99,-86.6279 1356.02,-81.0834 1345.5,-79.7877 1346.99,-86.6279"/>
</g>
<!-- Node23&#45;&gt;Node5 -->
<g id="edge34" class="edge"><title>Node23&#45;&gt;Node5</title>
<path fill="none" stroke="midnightblue" d="M1358.97,-61.9441C1348.24,-59.6994 1336.44,-57.4922 1325.5,-56 1079.43,-22.4498 779.19,-13.6043 683.406,-11.5566"/>
<polygon fill="midnightblue" stroke="midnightblue" points="683.327,-8.05435 673.257,-11.3491 683.184,-15.0529 683.327,-8.05435"/>
</g>
<!-- Node24 -->
<g id="node24" class="node"><title>Node24</title>
<polygon fill="none" stroke="#bfbfbf" points="1430.5,-0.5 1430.5,-19.5 1486.5,-19.5 1486.5,-0.5 1430.5,-0.5"/>
<text text-anchor="middle" x="1458.5" y="-7.5" font-family="Helvetica,sans-Serif" font-size="10.00">Rtypes.h</text>
</g>
<!-- Node23&#45;&gt;Node24 -->
<g id="edge33" class="edge"><title>Node23&#45;&gt;Node24</title>
<path fill="none" stroke="midnightblue" d="M1404.53,-61.9751C1414.26,-52.785 1429.96,-37.9563 1441.92,-26.656"/>
<polygon fill="midnightblue" stroke="midnightblue" points="1444.62,-28.9199 1449.49,-19.5091 1439.82,-23.8308 1444.62,-28.9199"/>
</g>
<!-- Node25&#45;&gt;Node5 -->
<g id="edge36" class="edge"><title>Node25&#45;&gt;Node5</title>
<path fill="none" stroke="midnightblue" d="M1340.16,-130.868C1413.52,-121.689 1507.94,-100.858 1465.5,-56 1438.13,-27.0719 828.815,-14.201 683.439,-11.5358"/>
<polygon fill="midnightblue" stroke="midnightblue" points="683.102,-8.02927 673.04,-11.3482 682.976,-15.0281 683.102,-8.02927"/>
</g>
<!-- Node25&#45;&gt;Node13 -->
<g id="edge39" class="edge"><title>Node25&#45;&gt;Node13</title>
<path fill="none" stroke="midnightblue" d="M1225.64,-128.941C1185.27,-119.748 1120.46,-104.135 1065.5,-87 1062.94,-86.2011 1060.3,-85.3286 1057.66,-84.4208"/>
<polygon fill="midnightblue" stroke="midnightblue" points="1058.82,-81.1187 1048.22,-81.0463 1056.46,-87.7098 1058.82,-81.1187"/>
</g>
<!-- Node25&#45;&gt;Node21 -->
<g id="edge37" class="edge"><title>Node25&#45;&gt;Node21</title>
<path fill="none" stroke="midnightblue" d="M1251.01,-128.734C1234.45,-117.964 1206.12,-99.55 1186.41,-86.7395"/>
<polygon fill="midnightblue" stroke="midnightblue" points="1188.06,-83.6427 1177.77,-81.1273 1184.25,-89.5118 1188.06,-83.6427"/>
</g>
<!-- Node25&#45;&gt;Node22 -->
<g id="edge40" class="edge"><title>Node25&#45;&gt;Node22</title>
<path fill="none" stroke="midnightblue" d="M1263.69,-128.734C1262.81,-119.183 1261.37,-103.618 1260.23,-91.2829"/>
<polygon fill="midnightblue" stroke="midnightblue" points="1263.7,-90.7632 1259.3,-81.1273 1256.73,-91.4067 1263.7,-90.7632"/>
</g>
<!-- Node25&#45;&gt;Node23 -->
<g id="edge41" class="edge"><title>Node25&#45;&gt;Node23</title>
<path fill="none" stroke="midnightblue" d="M1281.9,-128.869C1304.11,-117.845 1342.79,-98.6554 1368.76,-85.7678"/>
<polygon fill="midnightblue" stroke="midnightblue" points="1370.63,-88.7473 1378.03,-81.1672 1367.52,-82.4767 1370.63,-88.7473"/>
</g>
<!-- Node25&#45;&gt;Node24 -->
<g id="edge38" class="edge"><title>Node25&#45;&gt;Node24</title>
<path fill="none" stroke="midnightblue" d="M1340.06,-131.338C1400.66,-124.642 1478.76,-111.456 1498.5,-87 1513.63,-68.2553 1493.73,-42.9002 1476.99,-26.7441"/>
<polygon fill="midnightblue" stroke="midnightblue" points="1478.94,-23.7819 1469.19,-19.6213 1474.22,-28.9501 1478.94,-23.7819"/>
</g>
</g>
</svg>
        <g id="navigator" transform="translate(0 0)" fill="#404254">
                <rect fill="#f2f5e9" fill-opacity="0.5" stroke="#606060" stroke-width=".5" x="0" y="0" width="60" height="60"/>
                <use id="zoomplus" xlink:href="#zoomPlus" x="17" y="9" onmousedown="handleZoom(evt,'in')"/>
                <use id="zoomminus" xlink:href="#zoomMin" x="42" y="9" onmousedown="handleZoom(evt,'out')"/>
                <use id="reset" xlink:href="#resetDef" x="30" y="36" onmousedown="handleReset()"/>
                <g id="arrowUp" xlink:href="#dirArrow" transform="translate(30 24)" onmousedown="handlePan(0,-1)">
                  <use xlink:href="#rim" fill="#404040">
                        <set attributeName="fill" to="#808080" begin="arrowUp.mouseover" end="arrowUp.mouseout"/>
                  </use>
                  <path fill="none" stroke="white" stroke-width="1.5" d="M0,-3.0v7 M-2.5,-0.5L0,-3.0L2.5,-0.5"/>
                </g>
                <g id="arrowRight" xlink:href="#dirArrow" transform="rotate(90) translate(36 -43)" onmousedown="handlePan(1,0)">
                  <use xlink:href="#rim" fill="#404040">
                        <set attributeName="fill" to="#808080" begin="arrowRight.mouseover" end="arrowRight.mouseout"/>
                  </use>
                  <path fill="none" stroke="white" stroke-width="1.5" d="M0,-3.0v7 M-2.5,-0.5L0,-3.0L2.5,-0.5"/>
                </g>
                <g id="arrowDown" xlink:href="#dirArrow" transform="rotate(180) translate(-30 -48)" onmousedown="handlePan(0,1)">
                  <use xlink:href="#rim" fill="#404040">
                        <set attributeName="fill" to="#808080" begin="arrowDown.mouseover" end="arrowDown.mouseout"/>
                  </use>
                  <path fill="none" stroke="white" stroke-width="1.5" d="M0,-3.0v7 M-2.5,-0.5L0,-3.0L2.5,-0.5"/>
                </g>
                <g id="arrowLeft" xlink:href="#dirArrow" transform="rotate(270) translate(-36 17)" onmousedown="handlePan(-1,0)">
                  <use xlink:href="#rim" fill="#404040">
                        <set attributeName="fill" to="#808080" begin="arrowLeft.mouseover" end="arrowLeft.mouseout"/>
                  </use>
                  <path fill="none" stroke="white" stroke-width="1.5" d="M0,-3.0v7 M-2.5,-0.5L0,-3.0L2.5,-0.5"/>
                </g>
        </g>
        <svg viewBox="0 0 15 15" width="100%" height="30px" preserveAspectRatio="xMaxYMin meet">
         <g id="arrow_out" transform="scale(0.3 0.3)">
          <a xlink:href="testTrendingTask_8cxx__incl_org.svg" target="_base">
           <rect id="button" ry="5" rx="5" y="6" x="6" height="38" width="38"
                fill="#f2f5e9" fill-opacity="0.5" stroke="#606060" stroke-width="1.0"/>
           <path id="arrow"
             d="M 11.500037,31.436501 C 11.940474,20.09759 22.043105,11.32322 32.158766,21.979434 L 37.068811,17.246167 C 37.068811,17.246167 37.088388,32 37.088388,32 L 22.160133,31.978069 C 22.160133,31.978069 26.997745,27.140456 26.997745,27.140456 C 18.528582,18.264221 13.291696,25.230495 11.500037,31.436501 z"
             style="fill:#404040;"/>
          </a>
         </g>
        </svg>
</svg>
