<?xml version="1.0" encoding="UTF-8" standalone="no"?>
<!DOCTYPE svg PUBLIC "-//W3C//DTD SVG 1.1//EN"
 "http://www.w3.org/Graphics/SVG/1.1/DTD/svg11.dtd">
<!-- Generated by graphviz version 2.38.0 (20140413.2041)
 -->
<!-- Title: Framework/test/testTaskInterface.cxx Pages: 1 -->
<svg width="1233pt" height="364pt"
 viewBox="0.00 0.00 1232.50 364.00" xmlns="http://www.w3.org/2000/svg" xmlns:xlink="http://www.w3.org/1999/xlink">
<g id="graph0" class="graph" transform="scale(1 1) rotate(0) translate(4 360)">
<title>Framework/test/testTaskInterface.cxx</title>
<!-- Node1 -->
<g id="node1" class="node"><title>Node1</title>
<polygon fill="#bfbfbf" stroke="black" points="568.5,-336.5 568.5,-355.5 751.5,-355.5 751.5,-336.5 568.5,-336.5"/>
<text text-anchor="middle" x="660" y="-343.5" font-family="Helvetica,sans-Serif" font-size="10.00">Framework/test/testTaskInterface.cxx</text>
</g>
<!-- Node2 -->
<g id="node2" class="node"><title>Node2</title>
<g id="a_node2"><a xlink:href="TaskFactory_8h.html" target="_top" xlink:title="QualityControl/TaskFactory.h">
<polygon fill="none" stroke="black" points="149.5,-280.5 149.5,-299.5 294.5,-299.5 294.5,-280.5 149.5,-280.5"/>
<text text-anchor="middle" x="222" y="-287.5" font-family="Helvetica,sans-Serif" font-size="10.00">QualityControl/TaskFactory.h</text>
</a>
</g>
</g>
<!-- Node1&#45;&gt;Node2 -->
<g id="edge1" class="edge"><title>Node1&#45;&gt;Node2</title>
<path fill="none" stroke="midnightblue" d="M590.598,-336.444C511.867,-326.737 383.726,-310.939 301.164,-300.76"/>
<polygon fill="midnightblue" stroke="midnightblue" points="301.431,-297.266 291.078,-299.516 300.574,-304.214 301.431,-297.266"/>
</g>
<!-- Node7 -->
<g id="node7" class="node"><title>Node7</title>
<g id="a_node7"><a xlink:href="TaskInterface_8h.html" target="_top" xlink:title="QualityControl/TaskInterface.h">
<polygon fill="none" stroke="black" points="380,-224.5 380,-243.5 530,-243.5 530,-224.5 380,-224.5"/>
<text text-anchor="middle" x="455" y="-231.5" font-family="Helvetica,sans-Serif" font-size="10.00">QualityControl/TaskInterface.h</text>
</a>
</g>
</g>
<!-- Node1&#45;&gt;Node7 -->
<g id="edge28" class="edge"><title>Node1&#45;&gt;Node7</title>
<path fill="none" stroke="midnightblue" d="M631.908,-336.398C607.834,-328.494 572.618,-315.65 544,-300 517.696,-285.616 490.251,-264.489 472.915,-250.263"/>
<polygon fill="midnightblue" stroke="midnightblue" points="474.753,-247.238 464.83,-243.524 470.271,-252.615 474.753,-247.238"/>
</g>
<!-- Node9 -->
<g id="node9" class="node"><title>Node9</title>
<polygon fill="none" stroke="#bfbfbf" points="771.5,-168.5 771.5,-187.5 896.5,-187.5 896.5,-168.5 771.5,-168.5"/>
<text text-anchor="middle" x="834" y="-175.5" font-family="Helvetica,sans-Serif" font-size="10.00">Framework/InitContext.h</text>
</g>
<!-- Node1&#45;&gt;Node9 -->
<g id="edge31" class="edge"><title>Node1&#45;&gt;Node9</title>
<path fill="none" stroke="midnightblue" d="M627.014,-336.438C608.537,-329.769 587.048,-318.453 576,-300 565.572,-282.584 571.236,-238.805 586,-224 598.406,-211.559 692.851,-197.017 761.518,-187.907"/>
<polygon fill="midnightblue" stroke="midnightblue" points="761.99,-191.375 771.449,-186.603 761.079,-184.435 761.99,-191.375"/>
</g>
<!-- Node18 -->
<g id="node18" class="node"><title>Node18</title>
<g id="a_node18"><a xlink:href="QcInfoLogger_8h.html" target="_top" xlink:title="QualityControl/QcInfoLogger.h">
<polygon fill="none" stroke="black" points="585.5,-280.5 585.5,-299.5 734.5,-299.5 734.5,-280.5 585.5,-280.5"/>
<text text-anchor="middle" x="660" y="-287.5" font-family="Helvetica,sans-Serif" font-size="10.00">QualityControl/QcInfoLogger.h</text>
</a>
</g>
</g>
<!-- Node1&#45;&gt;Node18 -->
<g id="edge29" class="edge"><title>Node1&#45;&gt;Node18</title>
<path fill="none" stroke="midnightblue" d="M660,-336.083C660,-329.006 660,-318.861 660,-309.986"/>
<polygon fill="midnightblue" stroke="midnightblue" points="663.5,-309.751 660,-299.751 656.5,-309.751 663.5,-309.751"/>
</g>
<!-- Node20 -->
<g id="node20" class="node"><title>Node20</title>
<polygon fill="none" stroke="#bfbfbf" points="753,-280.5 753,-299.5 923,-299.5 923,-280.5 753,-280.5"/>
<text text-anchor="middle" x="838" y="-287.5" font-family="Helvetica,sans-Serif" font-size="10.00">Framework/ConfigParamRegistry.h</text>
</g>
<!-- Node1&#45;&gt;Node20 -->
<g id="edge32" class="edge"><title>Node1&#45;&gt;Node20</title>
<path fill="none" stroke="midnightblue" d="M688.205,-336.444C718.41,-327.28 766.511,-312.688 800.029,-302.519"/>
<polygon fill="midnightblue" stroke="midnightblue" points="801.374,-305.769 809.927,-299.516 799.342,-299.07 801.374,-305.769"/>
</g>
<!-- Node21 -->
<g id="node21" class="node"><title>Node21</title>
<polygon fill="none" stroke="#bfbfbf" points="941,-280.5 941,-299.5 1087,-299.5 1087,-280.5 941,-280.5"/>
<text text-anchor="middle" x="1014" y="-287.5" font-family="Helvetica,sans-Serif" font-size="10.00">Framework/ServiceRegistry.h</text>
</g>
<!-- Node1&#45;&gt;Node21 -->
<g id="edge33" class="edge"><title>Node1&#45;&gt;Node21</title>
<path fill="none" stroke="midnightblue" d="M716.092,-336.444C779.141,-326.826 881.397,-311.228 948.176,-301.041"/>
<polygon fill="midnightblue" stroke="midnightblue" points="948.812,-304.484 958.17,-299.516 947.757,-297.565 948.812,-304.484"/>
</g>
<!-- Node22 -->
<g id="node22" class="node"><title>Node22</title>
<polygon fill="none" stroke="#bfbfbf" points="1105.5,-280.5 1105.5,-299.5 1224.5,-299.5 1224.5,-280.5 1105.5,-280.5"/>
<text text-anchor="middle" x="1165" y="-287.5" font-family="Helvetica,sans-Serif" font-size="10.00">boost/test/unit_test.hpp</text>
</g>
<!-- Node1&#45;&gt;Node22 -->
<g id="edge34" class="edge"><title>Node1&#45;&gt;Node22</title>
<path fill="none" stroke="midnightblue" d="M749.425,-336.479C835.288,-328.135 968.928,-314.723 1094.95,-300.094"/>
<polygon fill="midnightblue" stroke="midnightblue" points="1095.65,-303.537 1105.17,-298.903 1094.84,-296.585 1095.65,-303.537"/>
</g>
<!-- Node3 -->
<g id="node3" class="node"><title>Node3</title>
<polygon fill="none" stroke="#bfbfbf" points="158,-112.5 158,-131.5 210,-131.5 210,-112.5 158,-112.5"/>
<text text-anchor="middle" x="184" y="-119.5" font-family="Helvetica,sans-Serif" font-size="10.00">memory</text>
</g>
<!-- Node2&#45;&gt;Node3 -->
<g id="edge2" class="edge"><title>Node2&#45;&gt;Node3</title>
<path fill="none" stroke="midnightblue" d="M211.321,-280.386C192.569,-264.489 154.35,-228.443 140,-188 137.028,-179.623 136.645,-176.231 140,-168 144.8,-156.225 154.329,-145.856 163.295,-138.049"/>
<polygon fill="midnightblue" stroke="midnightblue" points="165.65,-140.645 171.219,-131.631 161.245,-135.205 165.65,-140.645"/>
</g>
<!-- Node4 -->
<g id="node4" class="node"><title>Node4</title>
<g id="a_node4"><a xlink:href="TaskConfig_8h.html" target="_top" xlink:title="QualityControl/TaskConfig.h">
<polygon fill="none" stroke="black" points="0,-112.5 0,-131.5 140,-131.5 140,-112.5 0,-112.5"/>
<text text-anchor="middle" x="70" y="-119.5" font-family="Helvetica,sans-Serif" font-size="10.00">QualityControl/TaskConfig.h</text>
</a>
</g>
</g>
<!-- Node2&#45;&gt;Node4 -->
<g id="edge3" class="edge"><title>Node2&#45;&gt;Node4</title>
<path fill="none" stroke="midnightblue" d="M206.718,-280.475C192.804,-272.26 172.176,-258.908 157,-244 123.922,-211.507 94.5209,-165.209 79.8588,-140.359"/>
<polygon fill="midnightblue" stroke="midnightblue" points="82.8695,-138.573 74.825,-131.679 76.814,-142.085 82.8695,-138.573"/>
</g>
<!-- Node2&#45;&gt;Node7 -->
<g id="edge6" class="edge"><title>Node2&#45;&gt;Node7</title>
<path fill="none" stroke="midnightblue" d="M258.92,-280.444C299.395,-271.063 364.421,-255.993 408.384,-245.804"/>
<polygon fill="midnightblue" stroke="midnightblue" points="409.302,-249.184 418.253,-243.516 407.721,-242.365 409.302,-249.184"/>
</g>
<!-- Node5 -->
<g id="node5" class="node"><title>Node5</title>
<polygon fill="none" stroke="#bfbfbf" points="357.5,-0.5 357.5,-19.5 398.5,-19.5 398.5,-0.5 357.5,-0.5"/>
<text text-anchor="middle" x="378" y="-7.5" font-family="Helvetica,sans-Serif" font-size="10.00">string</text>
</g>
<!-- Node4&#45;&gt;Node5 -->
<g id="edge4" class="edge"><title>Node4&#45;&gt;Node5</title>
<path fill="none" stroke="midnightblue" d="M88.6907,-112.285C117.396,-99.089 174.24,-73.7054 224,-56 266.203,-40.9836 316.157,-27.0751 347.468,-18.8086"/>
<polygon fill="midnightblue" stroke="midnightblue" points="348.545,-22.1448 357.333,-16.228 346.773,-15.3726 348.545,-22.1448"/>
</g>
<!-- Node6 -->
<g id="node6" class="node"><title>Node6</title>
<polygon fill="none" stroke="#bfbfbf" points="266.5,-56.5 266.5,-75.5 349.5,-75.5 349.5,-56.5 266.5,-56.5"/>
<text text-anchor="middle" x="308" y="-63.5" font-family="Helvetica,sans-Serif" font-size="10.00">unordered_map</text>
</g>
<!-- Node4&#45;&gt;Node6 -->
<g id="edge5" class="edge"><title>Node4&#45;&gt;Node6</title>
<path fill="none" stroke="midnightblue" d="M107.712,-112.444C149.143,-103.043 215.757,-87.9291 260.667,-77.7393"/>
<polygon fill="midnightblue" stroke="midnightblue" points="261.487,-81.1424 270.465,-75.5164 259.938,-74.3159 261.487,-81.1424"/>
</g>
<!-- Node7&#45;&gt;Node3 -->
<g id="edge8" class="edge"><title>Node7&#45;&gt;Node3</title>
<path fill="none" stroke="midnightblue" d="M379.783,-232.797C298.729,-230.788 177.365,-221.983 148,-188 135.048,-173.011 150.588,-152.616 165.099,-138.694"/>
<polygon fill="midnightblue" stroke="midnightblue" points="167.777,-140.993 172.867,-131.701 163.093,-135.79 167.777,-140.993"/>
</g>
<!-- Node7&#45;&gt;Node5 -->
<g id="edge9" class="edge"><title>Node7&#45;&gt;Node5</title>
<path fill="none" stroke="midnightblue" d="M487.207,-224.496C518.297,-214.482 558.668,-195.631 544,-168 509.783,-103.543 455.247,-131.616 408,-76 396.444,-62.3972 388.412,-43.6011 383.588,-29.7189"/>
<polygon fill="midnightblue" stroke="midnightblue" points="386.8,-28.2757 380.4,-19.8324 380.138,-30.4239 386.8,-28.2757"/>
</g>
<!-- Node7&#45;&gt;Node6 -->
<g id="edge10" class="edge"><title>Node7&#45;&gt;Node6</title>
<path fill="none" stroke="midnightblue" d="M427.596,-224.477C408.344,-217.324 383.079,-205.444 366,-188 337.039,-158.42 320.338,-111.602 312.83,-85.7314"/>
<polygon fill="midnightblue" stroke="midnightblue" points="316.112,-84.464 310.092,-75.7459 309.361,-86.3155 316.112,-84.464"/>
</g>
<!-- Node8 -->
<g id="node8" class="node"><title>Node8</title>
<polygon fill="none" stroke="#bfbfbf" points="834.5,-56.5 834.5,-75.5 869.5,-75.5 869.5,-56.5 834.5,-56.5"/>
<text text-anchor="middle" x="852" y="-63.5" font-family="Helvetica,sans-Serif" font-size="10.00">map</text>
</g>
<!-- Node7&#45;&gt;Node8 -->
<g id="edge7" class="edge"><title>Node7&#45;&gt;Node8</title>
<path fill="none" stroke="midnightblue" d="M530.315,-225.279C597.423,-217.513 689.971,-204.36 723,-188 774.173,-162.654 819.076,-110.275 839.811,-83.5174"/>
<polygon fill="midnightblue" stroke="midnightblue" points="842.637,-85.584 845.891,-75.5013 837.059,-81.3538 842.637,-85.584"/>
</g>
<!-- Node7&#45;&gt;Node9 -->
<g id="edge11" class="edge"><title>Node7&#45;&gt;Node9</title>
<path fill="none" stroke="midnightblue" d="M515.054,-224.444C582.694,-214.806 692.482,-199.163 763.968,-188.978"/>
<polygon fill="midnightblue" stroke="midnightblue" points="764.821,-192.392 774.227,-187.516 763.834,-185.462 764.821,-192.392"/>
</g>
<!-- Node10 -->
<g id="node10" class="node"><title>Node10</title>
<polygon fill="none" stroke="#bfbfbf" points="375,-168.5 375,-187.5 535,-187.5 535,-168.5 375,-168.5"/>
<text text-anchor="middle" x="455" y="-175.5" font-family="Helvetica,sans-Serif" font-size="10.00">Framework/ProcessingContext.h</text>
</g>
<!-- Node7&#45;&gt;Node10 -->
<g id="edge12" class="edge"><title>Node7&#45;&gt;Node10</title>
<path fill="none" stroke="midnightblue" d="M455,-224.083C455,-217.006 455,-206.861 455,-197.986"/>
<polygon fill="midnightblue" stroke="midnightblue" points="458.5,-197.751 455,-187.751 451.5,-197.751 458.5,-197.751"/>
</g>
<!-- Node11 -->
<g id="node11" class="node"><title>Node11</title>
<g id="a_node11"><a xlink:href="Activity_8h.html" target="_top" xlink:title="QualityControl/Activity.h">
<polygon fill="none" stroke="black" points="591.5,-168.5 591.5,-187.5 714.5,-187.5 714.5,-168.5 591.5,-168.5"/>
<text text-anchor="middle" x="653" y="-175.5" font-family="Helvetica,sans-Serif" font-size="10.00">QualityControl/Activity.h</text>
</a>
</g>
</g>
<!-- Node7&#45;&gt;Node11 -->
<g id="edge13" class="edge"><title>Node7&#45;&gt;Node11</title>
<path fill="none" stroke="midnightblue" d="M486.374,-224.444C520.263,-215.201 574.403,-200.436 611.724,-190.257"/>
<polygon fill="midnightblue" stroke="midnightblue" points="613.046,-193.524 621.773,-187.516 611.205,-186.771 613.046,-193.524"/>
</g>
<!-- Node12 -->
<g id="node12" class="node"><title>Node12</title>
<g id="a_node12"><a xlink:href="ObjectsManager_8h.html" target="_top" xlink:title="QualityControl/ObjectsManager.h">
<polygon fill="none" stroke="black" points="157.5,-168.5 157.5,-187.5 318.5,-187.5 318.5,-168.5 157.5,-168.5"/>
<text text-anchor="middle" x="238" y="-175.5" font-family="Helvetica,sans-Serif" font-size="10.00">QualityControl/ObjectsManager.h</text>
</a>
</g>
</g>
<!-- Node7&#45;&gt;Node12 -->
<g id="edge14" class="edge"><title>Node7&#45;&gt;Node12</title>
<path fill="none" stroke="midnightblue" d="M420.616,-224.444C383.078,-215.102 322.869,-200.119 281.933,-189.933"/>
<polygon fill="midnightblue" stroke="midnightblue" points="282.773,-186.535 272.223,-187.516 281.082,-193.328 282.773,-186.535"/>
</g>
<!-- Node12&#45;&gt;Node3 -->
<g id="edge27" class="edge"><title>Node12&#45;&gt;Node3</title>
<path fill="none" stroke="midnightblue" d="M229.083,-168.083C221.22,-160.22 209.569,-148.569 200.081,-139.081"/>
<polygon fill="midnightblue" stroke="midnightblue" points="202.297,-136.347 192.751,-131.751 197.347,-141.297 202.297,-136.347"/>
</g>
<!-- Node12&#45;&gt;Node4 -->
<g id="edge25" class="edge"><title>Node12&#45;&gt;Node4</title>
<path fill="none" stroke="midnightblue" d="M211.38,-168.444C182.994,-159.32 137.863,-144.813 106.247,-134.651"/>
<polygon fill="midnightblue" stroke="midnightblue" points="107.087,-131.244 96.4956,-131.516 104.945,-137.909 107.087,-131.244"/>
</g>
<!-- Node12&#45;&gt;Node5 -->
<g id="edge26" class="edge"><title>Node12&#45;&gt;Node5</title>
<path fill="none" stroke="midnightblue" d="M236.635,-168.208C233.782,-146.481 229.547,-89.5869 257,-56 279.136,-28.9181 319.251,-18.1319 347.198,-13.8376"/>
<polygon fill="midnightblue" stroke="midnightblue" points="347.804,-17.2877 357.25,-12.4892 346.873,-10.3499 347.804,-17.2877"/>
</g>
<!-- Node13 -->
<g id="node13" class="node"><title>Node13</title>
<g id="a_node13"><a xlink:href="MonitorObject_8h.html" target="_top" xlink:title="QualityControl/MonitorObject.h">
<polygon fill="none" stroke="black" points="563.5,-112.5 563.5,-131.5 714.5,-131.5 714.5,-112.5 563.5,-112.5"/>
<text text-anchor="middle" x="639" y="-119.5" font-family="Helvetica,sans-Serif" font-size="10.00">QualityControl/MonitorObject.h</text>
</a>
</g>
</g>
<!-- Node12&#45;&gt;Node13 -->
<g id="edge15" class="edge"><title>Node12&#45;&gt;Node13</title>
<path fill="none" stroke="midnightblue" d="M301.54,-168.444C373.4,-158.767 490.221,-143.035 565.83,-132.853"/>
<polygon fill="midnightblue" stroke="midnightblue" points="566.314,-136.32 575.758,-131.516 565.38,-129.382 566.314,-136.32"/>
</g>
<!-- Node17 -->
<g id="node17" class="node"><title>Node17</title>
<g id="a_node17"><a xlink:href="Quality_8h.html" target="_top" xlink:title="QualityControl/Quality.h">
<polygon fill="none" stroke="black" points="444.5,-56.5 444.5,-75.5 565.5,-75.5 565.5,-56.5 444.5,-56.5"/>
<text text-anchor="middle" x="505" y="-63.5" font-family="Helvetica,sans-Serif" font-size="10.00">QualityControl/Quality.h</text>
</a>
</g>
</g>
<!-- Node12&#45;&gt;Node17 -->
<g id="edge24" class="edge"><title>Node12&#45;&gt;Node17</title>
<path fill="none" stroke="midnightblue" d="M258.951,-168.368C305.938,-149.01 419.889,-102.065 474.641,-79.5074"/>
<polygon fill="midnightblue" stroke="midnightblue" points="476.233,-82.6368 484.146,-75.5914 473.567,-76.1646 476.233,-82.6368"/>
</g>
<!-- Node13&#45;&gt;Node5 -->
<g id="edge16" class="edge"><title>Node13&#45;&gt;Node5</title>
<path fill="none" stroke="midnightblue" d="M563.097,-115.703C522.783,-110.163 473.711,-98.8899 435,-76 415.288,-64.3442 398.825,-43.4926 388.74,-28.5472"/>
<polygon fill="midnightblue" stroke="midnightblue" points="391.422,-26.2468 383.065,-19.7349 385.537,-30.0372 391.422,-26.2468"/>
</g>
<!-- Node13&#45;&gt;Node8 -->
<g id="edge17" class="edge"><title>Node13&#45;&gt;Node8</title>
<path fill="none" stroke="midnightblue" d="M674.799,-112.441C711.372,-103.616 769.762,-89.3064 820,-76 821.464,-75.6121 822.965,-75.2092 824.479,-74.7983"/>
<polygon fill="midnightblue" stroke="midnightblue" points="825.716,-78.0875 834.421,-72.048 823.85,-71.3409 825.716,-78.0875"/>
</g>
<!-- Node14 -->
<g id="node14" class="node"><title>Node14</title>
<polygon fill="none" stroke="#bfbfbf" points="627,-0.5 627,-19.5 683,-19.5 683,-0.5 627,-0.5"/>
<text text-anchor="middle" x="655" y="-7.5" font-family="Helvetica,sans-Serif" font-size="10.00">Rtypes.h</text>
</g>
<!-- Node13&#45;&gt;Node14 -->
<g id="edge18" class="edge"><title>Node13&#45;&gt;Node14</title>
<path fill="none" stroke="midnightblue" d="M687.996,-112.444C725.996,-104.692 774.136,-92.0396 786,-76 812.585,-40.0591 740.625,-22.8088 693.103,-15.541"/>
<polygon fill="midnightblue" stroke="midnightblue" points="693.483,-12.0596 683.086,-14.099 692.485,-18.9882 693.483,-12.0596"/>
</g>
<!-- Node15 -->
<g id="node15" class="node"><title>Node15</title>
<polygon fill="none" stroke="#bfbfbf" points="718.5,-56.5 718.5,-75.5 777.5,-75.5 777.5,-56.5 718.5,-56.5"/>
<text text-anchor="middle" x="748" y="-63.5" font-family="Helvetica,sans-Serif" font-size="10.00">TObject.h</text>
</g>
<!-- Node13&#45;&gt;Node15 -->
<g id="edge19" class="edge"><title>Node13&#45;&gt;Node15</title>
<path fill="none" stroke="midnightblue" d="M656.513,-112.324C674.072,-103.625 701.331,-90.1202 721.531,-80.113"/>
<polygon fill="midnightblue" stroke="midnightblue" points="723.124,-83.23 730.531,-75.6545 720.016,-76.9575 723.124,-83.23"/>
</g>
<!-- Node16 -->
<g id="node16" class="node"><title>Node16</title>
<polygon fill="none" stroke="#bfbfbf" points="584,-56.5 584,-75.5 700,-75.5 700,-56.5 584,-56.5"/>
<text text-anchor="middle" x="642" y="-63.5" font-family="Helvetica,sans-Serif" font-size="10.00">Common/Exceptions.h</text>
</g>
<!-- Node13&#45;&gt;Node16 -->
<g id="edge20" class="edge"><title>Node13&#45;&gt;Node16</title>
<path fill="none" stroke="midnightblue" d="M639.495,-112.083C639.889,-105.006 640.452,-94.8611 640.945,-85.9865"/>
<polygon fill="midnightblue" stroke="midnightblue" points="644.454,-85.9299 641.514,-75.7511 637.464,-85.5415 644.454,-85.9299"/>
</g>
<!-- Node13&#45;&gt;Node17 -->
<g id="edge21" class="edge"><title>Node13&#45;&gt;Node17</title>
<path fill="none" stroke="midnightblue" d="M617.767,-112.444C595.616,-103.517 560.681,-89.4387 535.564,-79.3168"/>
<polygon fill="midnightblue" stroke="midnightblue" points="536.717,-76.0079 526.133,-75.5164 534.1,-82.5006 536.717,-76.0079"/>
</g>
<!-- Node17&#45;&gt;Node5 -->
<g id="edge23" class="edge"><title>Node17&#45;&gt;Node5</title>
<path fill="none" stroke="midnightblue" d="M484.876,-56.4435C463.976,-47.5566 431.065,-33.5632 407.284,-23.4514"/>
<polygon fill="midnightblue" stroke="midnightblue" points="408.602,-20.2085 398.029,-19.5164 405.862,-26.6504 408.602,-20.2085"/>
</g>
<!-- Node17&#45;&gt;Node14 -->
<g id="edge22" class="edge"><title>Node17&#45;&gt;Node14</title>
<path fill="none" stroke="midnightblue" d="M528.768,-56.4435C553.893,-47.3986 593.711,-33.064 621.9,-22.9158"/>
<polygon fill="midnightblue" stroke="midnightblue" points="623.12,-26.1968 631.343,-19.5164 620.749,-19.6106 623.12,-26.1968"/>
</g>
<!-- Node19 -->
<g id="node19" class="node"><title>Node19</title>
<polygon fill="none" stroke="#bfbfbf" points="595,-224.5 595,-243.5 725,-243.5 725,-224.5 595,-224.5"/>
<text text-anchor="middle" x="660" y="-231.5" font-family="Helvetica,sans-Serif" font-size="10.00">InfoLogger/InfoLogger.hxx</text>
</g>
<!-- Node18&#45;&gt;Node19 -->
<g id="edge30" class="edge"><title>Node18&#45;&gt;Node19</title>
<path fill="none" stroke="midnightblue" d="M660,-280.083C660,-273.006 660,-262.861 660,-253.986"/>
<polygon fill="midnightblue" stroke="midnightblue" points="663.5,-253.751 660,-243.751 656.5,-253.751 663.5,-253.751"/>
</g>
</g>
</svg>
