<?xml version="1.0" encoding="UTF-8" standalone="no"?>
<!DOCTYPE svg PUBLIC "-//W3C//DTD SVG 1.1//EN"
 "http://www.w3.org/Graphics/SVG/1.1/DTD/svg11.dtd">
<!-- Generated by graphviz version 2.38.0 (20140413.2041)
 -->
<!-- Title: Framework/test/testWorkflow.cxx Pages: 1 -->
<!--zoomable 375 -->
<svg id="main" version="1.1" xmlns="http://www.w3.org/2000/svg" xmlns:xlink="http://www.w3.org/1999/xlink" xml:space="preserve" onload="init(evt)">
<style type="text/css"><![CDATA[
.edge:hover path { stroke: red; }
.edge:hover polygon { stroke: red; fill: red; }
]]></style>
<script type="text/javascript"><![CDATA[
var edges = document.getElementsByTagName('g');
if (edges && edges.length) {
  for (var i=0;i<edges.length;i++) {
    if (edges[i].id.substr(0,4)=='edge') {
      edges[i].setAttribute('class','edge');
    }
  }
}
]]></script>
        <defs>
                <circle id="rim" cx="0" cy="0" r="7"/>
                <circle id="rim2" cx="0" cy="0" r="3.5"/>
                <g id="zoomPlus">
                        <use xlink:href="#rim" fill="#404040">
                                <set attributeName="fill" to="#808080" begin="zoomplus.mouseover" end="zoomplus.mouseout"/>
                        </use>
                        <path d="M-4,0h8M0,-4v8" fill="none" stroke="white" stroke-width="1.5" pointer-events="none"/>
                </g>
                <g id="zoomMin">
                        <use xlink:href="#rim" fill="#404040">
                                <set attributeName="fill" to="#808080" begin="zoomminus.mouseover" end="zoomminus.mouseout"/>
                        </use>
                        <path d="M-4,0h8" fill="none" stroke="white" stroke-width="1.5" pointer-events="none"/>
                </g>
                <g id="dirArrow">
                        <path fill="none" stroke="white" stroke-width="1.5" d="M0,-3.0v7 M-2.5,-0.5L0,-3.0L2.5,-0.5"/>
                </g>
               <g id="resetDef">
                       <use xlink:href="#rim2" fill="#404040">
                               <set attributeName="fill" to="#808080" begin="reset.mouseover" end="reset.mouseout"/>
                       </use>
               </g>
        </defs>

<script type="text/javascript">
var viewWidth = 1814;
var viewHeight = 375;
var sectionId = 'dynsection-0';
</script>
<script xlink:href="svgpan.js"/>
<svg id="graph" class="graph">
<g id="viewport">
<title>Framework/test/testWorkflow.cxx</title>
<!-- Node1 -->
<g id="node1" class="node"><title>Node1</title>
<polygon fill="#bfbfbf" stroke="black" points="999,-347.5 999,-366.5 1163,-366.5 1163,-347.5 999,-347.5"/>
<text text-anchor="middle" x="1081" y="-354.5" font-family="Helvetica,sans-Serif" font-size="10.00">Framework/test/testWorkflow.cxx</text>
</g>
<!-- Node2 -->
<g id="node2" class="node"><title>Node2</title>
<polygon fill="none" stroke="#bfbfbf" points="333.5,-291.5 333.5,-310.5 452.5,-310.5 452.5,-291.5 333.5,-291.5"/>
<text text-anchor="middle" x="393" y="-298.5" font-family="Helvetica,sans-Serif" font-size="10.00">getTestDataDirectory.h</text>
</g>
<!-- Node1&#45;&gt;Node2 -->
<g id="edge1" class="edge"><title>Node1&#45;&gt;Node2</title>
<path fill="none" stroke="midnightblue" d="M998.959,-351.24C881.112,-344.117 657.154,-329.521 467,-311 465.696,-310.873 464.379,-310.742 463.053,-310.607"/>
<polygon fill="midnightblue" stroke="midnightblue" points="463.061,-307.089 452.748,-309.515 462.323,-314.05 463.061,-307.089"/>
</g>
<!-- Node3 -->
<g id="node3" class="node"><title>Node3</title>
<g id="a_node3"><a xlink:href="CheckRunner_8h.html" target="_top" xlink:title="QualityControl/CheckRunner.h">
<polygon fill="none" stroke="black" points="920,-291.5 920,-310.5 1070,-310.5 1070,-291.5 920,-291.5"/>
<text text-anchor="middle" x="995" y="-298.5" font-family="Helvetica,sans-Serif" font-size="10.00">QualityControl/CheckRunner.h</text>
</a>
</g>
</g>
<!-- Node1&#45;&gt;Node3 -->
<g id="edge2" class="edge"><title>Node1&#45;&gt;Node3</title>
<path fill="none" stroke="midnightblue" d="M1067.18,-347.324C1053.77,-338.9 1033.18,-325.971 1017.41,-316.074"/>
<polygon fill="midnightblue" stroke="midnightblue" points="1019.11,-313.008 1008.78,-310.655 1015.39,-318.936 1019.11,-313.008"/>
</g>
<!-- Node29 -->
<g id="node29" class="node"><title>Node29</title>
<g id="a_node29"><a xlink:href="InfrastructureGenerator_8h.html" target="_top" xlink:title="QualityControl/Infrastructure\lGenerator.h">
<polygon fill="none" stroke="black" points="0,-224.5 0,-254.5 140,-254.5 140,-224.5 0,-224.5"/>
<text text-anchor="start" x="8" y="-242.5" font-family="Helvetica,sans-Serif" font-size="10.00">QualityControl/Infrastructure</text>
<text text-anchor="middle" x="70" y="-231.5" font-family="Helvetica,sans-Serif" font-size="10.00">Generator.h</text>
</a>
</g>
</g>
<!-- Node1&#45;&gt;Node29 -->
<g id="edge54" class="edge"><title>Node1&#45;&gt;Node29</title>
<path fill="none" stroke="midnightblue" d="M998.894,-353.63C861.593,-349 591.451,-336.86 500,-311 481.255,-305.7 479.642,-296.652 461,-291 330.548,-251.451 289,-274.47 150.326,-255.1"/>
<polygon fill="midnightblue" stroke="midnightblue" points="150.569,-251.598 140.171,-253.63 149.566,-258.526 150.569,-251.598"/>
</g>
<!-- Node31 -->
<g id="node31" class="node"><title>Node31</title>
<g id="a_node31"><a xlink:href="runnerUtils_8h.html" target="_top" xlink:title="QualityControl/runnerUtils.h">
<polygon fill="none" stroke="black" points="509.5,-291.5 509.5,-310.5 646.5,-310.5 646.5,-291.5 509.5,-291.5"/>
<text text-anchor="middle" x="578" y="-298.5" font-family="Helvetica,sans-Serif" font-size="10.00">QualityControl/runnerUtils.h</text>
</a>
</g>
</g>
<!-- Node1&#45;&gt;Node31 -->
<g id="edge58" class="edge"><title>Node1&#45;&gt;Node31</title>
<path fill="none" stroke="midnightblue" d="M1001.58,-347.473C907.153,-337.337 750.563,-320.526 656.533,-310.431"/>
<polygon fill="midnightblue" stroke="midnightblue" points="656.827,-306.942 646.51,-309.355 656.079,-313.902 656.827,-306.942"/>
</g>
<!-- Node33 -->
<g id="node33" class="node"><title>Node33</title>
<polygon fill="none" stroke="#bfbfbf" points="1088,-291.5 1088,-310.5 1248,-310.5 1248,-291.5 1088,-291.5"/>
<text text-anchor="middle" x="1168" y="-298.5" font-family="Helvetica,sans-Serif" font-size="10.00">Framework/runDataProcessing.h</text>
</g>
<!-- Node1&#45;&gt;Node33 -->
<g id="edge61" class="edge"><title>Node1&#45;&gt;Node33</title>
<path fill="none" stroke="midnightblue" d="M1094.98,-347.324C1108.55,-338.9 1129.38,-325.971 1145.32,-316.074"/>
<polygon fill="midnightblue" stroke="midnightblue" points="1147.41,-318.902 1154.06,-310.655 1143.71,-312.954 1147.41,-318.902"/>
</g>
<!-- Node34 -->
<g id="node34" class="node"><title>Node34</title>
<polygon fill="none" stroke="#bfbfbf" points="1266.5,-291.5 1266.5,-310.5 1407.5,-310.5 1407.5,-291.5 1266.5,-291.5"/>
<text text-anchor="middle" x="1337" y="-298.5" font-family="Helvetica,sans-Serif" font-size="10.00">Framework/ControlService.h</text>
</g>
<!-- Node1&#45;&gt;Node34 -->
<g id="edge62" class="edge"><title>Node1&#45;&gt;Node34</title>
<path fill="none" stroke="midnightblue" d="M1121.56,-347.444C1166.32,-338.004 1238.38,-322.802 1286.7,-312.611"/>
<polygon fill="midnightblue" stroke="midnightblue" points="1287.56,-316.005 1296.63,-310.516 1286.12,-309.156 1287.56,-316.005"/>
</g>
<!-- Node35 -->
<g id="node35" class="node"><title>Node35</title>
<polygon fill="none" stroke="#bfbfbf" points="1426,-291.5 1426,-310.5 1564,-310.5 1564,-291.5 1426,-291.5"/>
<text text-anchor="middle" x="1495" y="-298.5" font-family="Helvetica,sans-Serif" font-size="10.00">Framework/DataSampling.h</text>
</g>
<!-- Node1&#45;&gt;Node35 -->
<g id="edge63" class="edge"><title>Node1&#45;&gt;Node35</title>
<path fill="none" stroke="midnightblue" d="M1146.6,-347.444C1220.79,-337.767 1341.4,-322.035 1419.46,-311.853"/>
<polygon fill="midnightblue" stroke="midnightblue" points="1420.24,-315.281 1429.71,-310.516 1419.34,-308.339 1420.24,-315.281"/>
</g>
<!-- Node36 -->
<g id="node36" class="node"><title>Node36</title>
<polygon fill="none" stroke="#bfbfbf" points="1582,-291.5 1582,-310.5 1632,-310.5 1632,-291.5 1582,-291.5"/>
<text text-anchor="middle" x="1607" y="-298.5" font-family="Helvetica,sans-Serif" font-size="10.00">TH1F.h</text>
</g>
<!-- Node1&#45;&gt;Node36 -->
<g id="edge64" class="edge"><title>Node1&#45;&gt;Node36</title>
<path fill="none" stroke="midnightblue" d="M1163.39,-352.685C1259.36,-347.875 1422.71,-336.751 1571.61,-310.96"/>
<polygon fill="midnightblue" stroke="midnightblue" points="1572.61,-314.338 1581.85,-309.159 1571.4,-307.444 1572.61,-314.338"/>
</g>
<!-- Node4 -->
<g id="node4" class="node"><title>Node4</title>
<polygon fill="none" stroke="#bfbfbf" points="1657,-230 1657,-249 1703,-249 1703,-230 1657,-230"/>
<text text-anchor="middle" x="1680" y="-237" font-family="Helvetica,sans-Serif" font-size="10.00">chrono</text>
</g>
<!-- Node3&#45;&gt;Node4 -->
<g id="edge3" class="edge"><title>Node3&#45;&gt;Node4</title>
<path fill="none" stroke="midnightblue" d="M1070.09,-291.793C1073.1,-291.515 1076.08,-291.25 1079,-291 1329.26,-269.616 1397.8,-309.476 1643,-255 1646,-254.333 1649.08,-253.459 1652.12,-252.47"/>
<polygon fill="midnightblue" stroke="midnightblue" points="1653.34,-255.75 1661.53,-249.033 1650.94,-249.175 1653.34,-255.75"/>
</g>
<!-- Node5 -->
<g id="node5" class="node"><title>Node5</title>
<polygon fill="none" stroke="#bfbfbf" points="923,-168.5 923,-187.5 975,-187.5 975,-168.5 923,-168.5"/>
<text text-anchor="middle" x="949" y="-175.5" font-family="Helvetica,sans-Serif" font-size="10.00">memory</text>
</g>
<!-- Node3&#45;&gt;Node5 -->
<g id="edge4" class="edge"><title>Node3&#45;&gt;Node5</title>
<path fill="none" stroke="midnightblue" d="M1063.04,-291.477C1128.87,-282.534 1220.25,-267.996 1231,-255 1239.78,-244.384 1240,-234.435 1231,-224 1195.5,-182.824 1042.45,-197.974 989,-188 987.74,-187.765 986.46,-187.518 985.169,-187.263"/>
<polygon fill="midnightblue" stroke="midnightblue" points="985.697,-183.798 975.193,-185.183 984.268,-190.651 985.697,-183.798"/>
</g>
<!-- Node6 -->
<g id="node6" class="node"><title>Node6</title>
<polygon fill="none" stroke="#bfbfbf" points="396.5,-0.5 396.5,-19.5 437.5,-19.5 437.5,-0.5 396.5,-0.5"/>
<text text-anchor="middle" x="417" y="-7.5" font-family="Helvetica,sans-Serif" font-size="10.00">string</text>
</g>
<!-- Node3&#45;&gt;Node6 -->
<g id="edge5" class="edge"><title>Node3&#45;&gt;Node6</title>
<path fill="none" stroke="midnightblue" d="M919.718,-296.841C759.863,-289.816 399.399,-272.16 379,-255 352.356,-232.587 360,-213.817 360,-179 360,-179 360,-179 360,-121 360,-84.3005 385.321,-47.6567 402.21,-27.2973"/>
<polygon fill="midnightblue" stroke="midnightblue" points="404.954,-29.475 408.833,-19.6161 399.652,-24.9037 404.954,-29.475"/>
</g>
<!-- Node7 -->
<g id="node7" class="node"><title>Node7</title>
<polygon fill="none" stroke="#bfbfbf" points="1464.5,-56.5 1464.5,-75.5 1499.5,-75.5 1499.5,-56.5 1464.5,-56.5"/>
<text text-anchor="middle" x="1482" y="-63.5" font-family="Helvetica,sans-Serif" font-size="10.00">map</text>
</g>
<!-- Node3&#45;&gt;Node7 -->
<g id="edge6" class="edge"><title>Node3&#45;&gt;Node7</title>
<path fill="none" stroke="midnightblue" d="M1070.1,-291.866C1073.1,-291.568 1076.08,-291.278 1079,-291 1270.36,-272.76 1328.58,-318.527 1510,-255 1565.6,-235.531 1635.7,-221.01 1610,-168 1589.16,-125.019 1540.19,-94.8182 1509.22,-79.2234"/>
<polygon fill="midnightblue" stroke="midnightblue" points="1510.38,-75.8961 1499.85,-74.6756 1507.32,-82.1927 1510.38,-75.8961"/>
</g>
<!-- Node8 -->
<g id="node8" class="node"><title>Node8</title>
<polygon fill="none" stroke="#bfbfbf" points="623,-168.5 623,-187.5 667,-187.5 667,-168.5 623,-168.5"/>
<text text-anchor="middle" x="645" y="-175.5" font-family="Helvetica,sans-Serif" font-size="10.00">vector</text>
</g>
<!-- Node3&#45;&gt;Node8 -->
<g id="edge7" class="edge"><title>Node3&#45;&gt;Node8</title>
<path fill="none" stroke="midnightblue" d="M919.92,-296.628C812.497,-291.022 625.549,-278.056 605,-255 588.74,-236.756 609.696,-210.721 626.879,-194.349"/>
<polygon fill="midnightblue" stroke="midnightblue" points="629.301,-196.878 634.362,-187.569 624.601,-191.69 629.301,-196.878"/>
</g>
<!-- Node9 -->
<g id="node9" class="node"><title>Node9</title>
<polygon fill="none" stroke="#bfbfbf" points="614,-230 614,-249 692,-249 692,-230 614,-230"/>
<text text-anchor="middle" x="653" y="-237" font-family="Helvetica,sans-Serif" font-size="10.00">unordered_set</text>
</g>
<!-- Node3&#45;&gt;Node9 -->
<g id="edge8" class="edge"><title>Node3&#45;&gt;Node9</title>
<path fill="none" stroke="midnightblue" d="M919.837,-291.473C860.106,-283.983 774.654,-271.674 701,-255 696.893,-254.07 692.624,-252.974 688.401,-251.808"/>
<polygon fill="midnightblue" stroke="midnightblue" points="689.308,-248.427 678.729,-249.004 687.359,-255.15 689.308,-248.427"/>
</g>
<!-- Node10 -->
<g id="node10" class="node"><title>Node10</title>
<polygon fill="none" stroke="#bfbfbf" points="710,-230 710,-249 802,-249 802,-230 710,-230"/>
<text text-anchor="middle" x="756" y="-237" font-family="Helvetica,sans-Serif" font-size="10.00">Common/Timer.h</text>
</g>
<!-- Node3&#45;&gt;Node10 -->
<g id="edge9" class="edge"><title>Node3&#45;&gt;Node10</title>
<path fill="none" stroke="midnightblue" d="M959.335,-291.478C922.232,-282.565 862.475,-268.079 811,-255 806.684,-253.903 802.182,-252.743 797.694,-251.576"/>
<polygon fill="midnightblue" stroke="midnightblue" points="798.527,-248.176 787.966,-249.031 796.755,-254.948 798.527,-248.176"/>
</g>
<!-- Node11 -->
<g id="node11" class="node"><title>Node11</title>
<polygon fill="none" stroke="#bfbfbf" points="820,-230 820,-249 918,-249 918,-230 820,-230"/>
<text text-anchor="middle" x="869" y="-237" font-family="Helvetica,sans-Serif" font-size="10.00">Framework/Task.h</text>
</g>
<!-- Node3&#45;&gt;Node11 -->
<g id="edge10" class="edge"><title>Node3&#45;&gt;Node11</title>
<path fill="none" stroke="midnightblue" d="M976.947,-291.475C955.802,-281.49 920.56,-264.848 896.122,-253.307"/>
<polygon fill="midnightblue" stroke="midnightblue" points="897.556,-250.114 887.019,-249.009 894.567,-256.444 897.556,-250.114"/>
</g>
<!-- Node12 -->
<g id="node12" class="node"><title>Node12</title>
<polygon fill="none" stroke="#bfbfbf" points="936.5,-230 936.5,-249 1053.5,-249 1053.5,-230 936.5,-230"/>
<text text-anchor="middle" x="995" y="-237" font-family="Helvetica,sans-Serif" font-size="10.00">Headers/DataHeader.h</text>
</g>
<!-- Node3&#45;&gt;Node12 -->
<g id="edge11" class="edge"><title>Node3&#45;&gt;Node12</title>
<path fill="none" stroke="midnightblue" d="M995,-291.475C995,-283.08 995,-269.981 995,-259.163"/>
<polygon fill="midnightblue" stroke="midnightblue" points="998.5,-259.009 995,-249.009 991.5,-259.009 998.5,-259.009"/>
</g>
<!-- Node13 -->
<g id="node13" class="node"><title>Node13</title>
<polygon fill="none" stroke="#bfbfbf" points="1071.5,-230 1071.5,-249 1222.5,-249 1222.5,-230 1071.5,-230"/>
<text text-anchor="middle" x="1147" y="-237" font-family="Helvetica,sans-Serif" font-size="10.00">Monitoring/MonitoringFactory.h</text>
</g>
<!-- Node3&#45;&gt;Node13 -->
<g id="edge12" class="edge"><title>Node3&#45;&gt;Node13</title>
<path fill="none" stroke="midnightblue" d="M1016.78,-291.475C1042.74,-281.313 1086.31,-264.256 1115.83,-252.7"/>
<polygon fill="midnightblue" stroke="midnightblue" points="1117.23,-255.913 1125.26,-249.009 1114.67,-249.395 1117.23,-255.913"/>
</g>
<!-- Node14 -->
<g id="node14" class="node"><title>Node14</title>
<polygon fill="none" stroke="#bfbfbf" points="1031,-168.5 1031,-187.5 1195,-187.5 1195,-168.5 1031,-168.5"/>
<text text-anchor="middle" x="1113" y="-175.5" font-family="Helvetica,sans-Serif" font-size="10.00">Framework/DataProcessorSpec.h</text>
</g>
<!-- Node3&#45;&gt;Node14 -->
<g id="edge13" class="edge"><title>Node3&#45;&gt;Node14</title>
<path fill="none" stroke="midnightblue" d="M1070.27,-291.484C1158.98,-281.082 1295.4,-263.789 1303,-255 1312.01,-244.577 1311.55,-234.807 1303,-224 1289.76,-207.257 1243.56,-196.097 1200.04,-189.078"/>
<polygon fill="midnightblue" stroke="midnightblue" points="1200.35,-185.585 1189.94,-187.513 1199.28,-192.503 1200.35,-185.585"/>
</g>
<!-- Node15 -->
<g id="node15" class="node"><title>Node15</title>
<g id="a_node15"><a xlink:href="CheckInterface_8h.html" target="_top" xlink:title="QualityControl/CheckInterface.h">
<polygon fill="none" stroke="black" points="1443.5,-168.5 1443.5,-187.5 1600.5,-187.5 1600.5,-168.5 1443.5,-168.5"/>
<text text-anchor="middle" x="1522" y="-175.5" font-family="Helvetica,sans-Serif" font-size="10.00">QualityControl/CheckInterface.h</text>
</a>
</g>
</g>
<!-- Node3&#45;&gt;Node15 -->
<g id="edge14" class="edge"><title>Node3&#45;&gt;Node15</title>
<path fill="none" stroke="midnightblue" d="M1070.1,-291.886C1073.1,-291.582 1076.08,-291.286 1079,-291 1168.92,-282.187 1409.32,-305.862 1484,-255 1503.39,-241.797 1513.35,-215.677 1518.12,-197.778"/>
<polygon fill="midnightblue" stroke="midnightblue" points="1521.56,-198.422 1520.45,-187.886 1514.75,-196.814 1521.56,-198.422"/>
</g>
<!-- Node17 -->
<g id="node17" class="node"><title>Node17</title>
<g id="a_node17"><a xlink:href="MonitorObject_8h.html" target="_top" xlink:title="QualityControl/MonitorObject.h">
<polygon fill="none" stroke="black" points="1186.5,-112.5 1186.5,-131.5 1337.5,-131.5 1337.5,-112.5 1186.5,-112.5"/>
<text text-anchor="middle" x="1262" y="-119.5" font-family="Helvetica,sans-Serif" font-size="10.00">QualityControl/MonitorObject.h</text>
</a>
</g>
</g>
<!-- Node3&#45;&gt;Node17 -->
<g id="edge40" class="edge"><title>Node3&#45;&gt;Node17</title>
<path fill="none" stroke="midnightblue" d="M1070.18,-291.594C1140.85,-282.918 1237.47,-268.749 1249,-255 1318.42,-172.205 952.999,-251.141 1022,-168 1032.38,-155.492 1116.47,-141.818 1182.22,-132.866"/>
<polygon fill="midnightblue" stroke="midnightblue" points="1182.75,-136.327 1192.19,-131.526 1181.81,-129.39 1182.75,-136.327"/>
</g>
<!-- Node21 -->
<g id="node21" class="node"><title>Node21</title>
<g id="a_node21"><a xlink:href="DatabaseInterface_8h.html" target="_top" xlink:title="QualityControl/DatabaseInterface.h">
<polygon fill="none" stroke="black" points="388,-230 388,-249 558,-249 558,-230 388,-230"/>
<text text-anchor="middle" x="473" y="-237" font-family="Helvetica,sans-Serif" font-size="10.00">QualityControl/DatabaseInterface.h</text>
</a>
</g>
</g>
<!-- Node3&#45;&gt;Node21 -->
<g id="edge28" class="edge"><title>Node3&#45;&gt;Node21</title>
<path fill="none" stroke="midnightblue" d="M919.632,-292.887C834.951,-284.685 693.444,-270.347 572,-255 561.18,-253.633 549.713,-252.064 538.567,-250.475"/>
<polygon fill="midnightblue" stroke="midnightblue" points="538.847,-246.979 528.449,-249.015 537.847,-253.907 538.847,-246.979"/>
</g>
<!-- Node25 -->
<g id="node25" class="node"><title>Node25</title>
<g id="a_node25"><a xlink:href="QcInfoLogger_8h.html" target="_top" xlink:title="QualityControl/QcInfoLogger.h">
<polygon fill="none" stroke="black" points="1656.5,-168.5 1656.5,-187.5 1805.5,-187.5 1805.5,-168.5 1656.5,-168.5"/>
<text text-anchor="middle" x="1731" y="-175.5" font-family="Helvetica,sans-Serif" font-size="10.00">QualityControl/QcInfoLogger.h</text>
</a>
</g>
</g>
<!-- Node3&#45;&gt;Node25 -->
<g id="edge41" class="edge"><title>Node3&#45;&gt;Node25</title>
<path fill="none" stroke="midnightblue" d="M1070.09,-291.767C1073.1,-291.497 1076.08,-291.24 1079,-291 1149.21,-285.246 1657.73,-299.913 1712,-255 1728.58,-241.278 1731.92,-215.479 1732.06,-197.778"/>
<polygon fill="midnightblue" stroke="midnightblue" points="1735.56,-197.661 1731.8,-187.753 1728.56,-197.839 1735.56,-197.661"/>
</g>
<!-- Node27 -->
<g id="node27" class="node"><title>Node27</title>
<g id="a_node27"><a xlink:href="Check_8h_source.html" target="_top" xlink:title="QualityControl/Check.h">
<polygon fill="none" stroke="black" points="1355.5,-230 1355.5,-249 1474.5,-249 1474.5,-230 1355.5,-230"/>
<text text-anchor="middle" x="1415" y="-237" font-family="Helvetica,sans-Serif" font-size="10.00">QualityControl/Check.h</text>
</a>
</g>
</g>
<!-- Node3&#45;&gt;Node27 -->
<g id="edge43" class="edge"><title>Node3&#45;&gt;Node27</title>
<path fill="none" stroke="midnightblue" d="M1070.12,-291.639C1140.34,-283.489 1248.03,-270.138 1341,-255 1348.46,-253.786 1356.31,-252.382 1364.01,-250.936"/>
<polygon fill="midnightblue" stroke="midnightblue" points="1364.82,-254.344 1373.99,-249.023 1363.51,-247.469 1364.82,-254.344"/>
</g>
<!-- Node15&#45;&gt;Node6 -->
<g id="edge15" class="edge"><title>Node15&#45;&gt;Node6</title>
<path fill="none" stroke="midnightblue" d="M1524.34,-168.36C1529.83,-145.97 1540.77,-85.746 1509,-56 1469.23,-18.7669 621.742,-12.1211 447.969,-11.1484"/>
<polygon fill="midnightblue" stroke="midnightblue" points="447.973,-7.64847 437.954,-11.0945 447.935,-14.6484 447.973,-7.64847"/>
</g>
<!-- Node15&#45;&gt;Node7 -->
<g id="edge16" class="edge"><title>Node15&#45;&gt;Node7</title>
<path fill="none" stroke="midnightblue" d="M1518.86,-168.368C1512.38,-150.537 1497.38,-109.295 1488.64,-85.2717"/>
<polygon fill="midnightblue" stroke="midnightblue" points="1491.83,-83.7932 1485.12,-75.5914 1485.25,-86.1855 1491.83,-83.7932"/>
</g>
<!-- Node16 -->
<g id="node16" class="node"><title>Node16</title>
<polygon fill="none" stroke="#bfbfbf" points="1408,-0.5 1408,-19.5 1464,-19.5 1464,-0.5 1408,-0.5"/>
<text text-anchor="middle" x="1436" y="-7.5" font-family="Helvetica,sans-Serif" font-size="10.00">Rtypes.h</text>
</g>
<!-- Node15&#45;&gt;Node16 -->
<g id="edge17" class="edge"><title>Node15&#45;&gt;Node16</title>
<path fill="none" stroke="midnightblue" d="M1527.41,-168.224C1539.71,-147.013 1566.95,-92.0522 1543,-56 1527.78,-33.0867 1498.37,-21.8146 1474.23,-16.2837"/>
<polygon fill="midnightblue" stroke="midnightblue" points="1474.76,-12.8201 1464.26,-14.2477 1473.36,-19.6785 1474.76,-12.8201"/>
</g>
<!-- Node15&#45;&gt;Node17 -->
<g id="edge18" class="edge"><title>Node15&#45;&gt;Node17</title>
<path fill="none" stroke="midnightblue" d="M1480.8,-168.444C1435.35,-159.004 1362.16,-143.802 1313.09,-133.611"/>
<polygon fill="midnightblue" stroke="midnightblue" points="1313.51,-130.123 1303.01,-131.516 1312.08,-136.977 1313.51,-130.123"/>
</g>
<!-- Node20 -->
<g id="node20" class="node"><title>Node20</title>
<g id="a_node20"><a xlink:href="Quality_8h.html" target="_top" xlink:title="QualityControl/Quality.h">
<polygon fill="none" stroke="black" points="1286.5,-56.5 1286.5,-75.5 1407.5,-75.5 1407.5,-56.5 1286.5,-56.5"/>
<text text-anchor="middle" x="1347" y="-63.5" font-family="Helvetica,sans-Serif" font-size="10.00">QualityControl/Quality.h</text>
</a>
</g>
</g>
<!-- Node15&#45;&gt;Node20 -->
<g id="edge27" class="edge"><title>Node15&#45;&gt;Node20</title>
<path fill="none" stroke="midnightblue" d="M1508.27,-168.368C1478.11,-149.412 1405.86,-104.001 1369.18,-80.9424"/>
<polygon fill="midnightblue" stroke="midnightblue" points="1371,-77.9499 1360.67,-75.5914 1367.27,-83.8764 1371,-77.9499"/>
</g>
<!-- Node17&#45;&gt;Node6 -->
<g id="edge19" class="edge"><title>Node17&#45;&gt;Node6</title>
<path fill="none" stroke="midnightblue" d="M1261.64,-112.059C1260.51,-97.5804 1256,-69.2888 1238,-56 1173.5,-8.3851 589.984,-9.68454 448.024,-10.717"/>
<polygon fill="midnightblue" stroke="midnightblue" points="447.818,-7.21842 437.845,-10.7963 447.872,-14.2182 447.818,-7.21842"/>
</g>
<!-- Node17&#45;&gt;Node7 -->
<g id="edge20" class="edge"><title>Node17&#45;&gt;Node7</title>
<path fill="none" stroke="midnightblue" d="M1299.56,-112.466C1337.59,-103.719 1398.03,-89.5218 1450,-76 1451.47,-75.6185 1452.97,-75.2207 1454.48,-74.8138"/>
<polygon fill="midnightblue" stroke="midnightblue" points="1455.72,-78.1045 1464.43,-72.0758 1453.86,-71.3556 1455.72,-78.1045"/>
</g>
<!-- Node17&#45;&gt;Node16 -->
<g id="edge21" class="edge"><title>Node17&#45;&gt;Node16</title>
<path fill="none" stroke="midnightblue" d="M1337.79,-113.932C1365.52,-107.793 1395.17,-96.5332 1416,-76 1428.21,-63.9651 1433,-44.6741 1434.86,-30.2284"/>
<polygon fill="midnightblue" stroke="midnightblue" points="1438.38,-30.1924 1435.81,-19.9133 1431.41,-29.5496 1438.38,-30.1924"/>
</g>
<!-- Node18 -->
<g id="node18" class="node"><title>Node18</title>
<polygon fill="none" stroke="#bfbfbf" points="1170.5,-56.5 1170.5,-75.5 1229.5,-75.5 1229.5,-56.5 1170.5,-56.5"/>
<text text-anchor="middle" x="1200" y="-63.5" font-family="Helvetica,sans-Serif" font-size="10.00">TObject.h</text>
</g>
<!-- Node17&#45;&gt;Node18 -->
<g id="edge22" class="edge"><title>Node17&#45;&gt;Node18</title>
<path fill="none" stroke="midnightblue" d="M1252.04,-112.324C1242.87,-104.341 1229.06,-92.3128 1217.97,-82.6529"/>
<polygon fill="midnightblue" stroke="midnightblue" points="1219.98,-79.7624 1210.14,-75.8339 1215.38,-85.041 1219.98,-79.7624"/>
</g>
<!-- Node19 -->
<g id="node19" class="node"><title>Node19</title>
<polygon fill="none" stroke="#bfbfbf" points="1036,-56.5 1036,-75.5 1152,-75.5 1152,-56.5 1036,-56.5"/>
<text text-anchor="middle" x="1094" y="-63.5" font-family="Helvetica,sans-Serif" font-size="10.00">Common/Exceptions.h</text>
</g>
<!-- Node17&#45;&gt;Node19 -->
<g id="edge23" class="edge"><title>Node17&#45;&gt;Node19</title>
<path fill="none" stroke="midnightblue" d="M1235.38,-112.444C1206.99,-103.32 1161.86,-88.8133 1130.25,-78.6509"/>
<polygon fill="midnightblue" stroke="midnightblue" points="1131.09,-75.2445 1120.5,-75.5164 1128.94,-81.9087 1131.09,-75.2445"/>
</g>
<!-- Node17&#45;&gt;Node20 -->
<g id="edge24" class="edge"><title>Node17&#45;&gt;Node20</title>
<path fill="none" stroke="midnightblue" d="M1275.66,-112.324C1288.92,-103.9 1309.27,-90.9709 1324.85,-81.0741"/>
<polygon fill="midnightblue" stroke="midnightblue" points="1326.81,-83.9711 1333.38,-75.6545 1323.06,-78.0626 1326.81,-83.9711"/>
</g>
<!-- Node20&#45;&gt;Node6 -->
<g id="edge26" class="edge"><title>Node20&#45;&gt;Node6</title>
<path fill="none" stroke="midnightblue" d="M1286.45,-57.3824C1281.57,-56.875 1276.7,-56.4055 1272,-56 950.244,-28.2587 558.794,-15.1925 447.701,-11.8736"/>
<polygon fill="midnightblue" stroke="midnightblue" points="447.647,-8.37059 437.548,-11.5743 447.441,-15.3676 447.647,-8.37059"/>
</g>
<!-- Node20&#45;&gt;Node16 -->
<g id="edge25" class="edge"><title>Node20&#45;&gt;Node16</title>
<path fill="none" stroke="midnightblue" d="M1361.3,-56.324C1375.18,-47.9002 1396.49,-34.9709 1412.8,-25.0741"/>
<polygon fill="midnightblue" stroke="midnightblue" points="1415,-27.8341 1421.74,-19.6545 1411.37,-21.8495 1415,-27.8341"/>
</g>
<!-- Node21&#45;&gt;Node5 -->
<g id="edge30" class="edge"><title>Node21&#45;&gt;Node5</title>
<path fill="none" stroke="midnightblue" d="M541.199,-229.975C643.667,-217.167 833.755,-193.406 912.929,-183.509"/>
<polygon fill="midnightblue" stroke="midnightblue" points="913.416,-186.975 922.904,-182.262 912.547,-180.029 913.416,-186.975"/>
</g>
<!-- Node21&#45;&gt;Node6 -->
<g id="edge29" class="edge"><title>Node21&#45;&gt;Node6</title>
<path fill="none" stroke="midnightblue" d="M470.873,-229.86C462.678,-196.568 433.037,-76.1515 421.572,-29.5741"/>
<polygon fill="midnightblue" stroke="midnightblue" points="424.918,-28.5226 419.129,-19.6491 418.121,-30.1958 424.918,-28.5226"/>
</g>
<!-- Node21&#45;&gt;Node8 -->
<g id="edge31" class="edge"><title>Node21&#45;&gt;Node8</title>
<path fill="none" stroke="midnightblue" d="M497.643,-229.975C528.033,-219.462 579.75,-201.572 613.132,-190.024"/>
<polygon fill="midnightblue" stroke="midnightblue" points="614.553,-193.236 622.859,-186.659 612.265,-186.621 614.553,-193.236"/>
</g>
<!-- Node21&#45;&gt;Node17 -->
<g id="edge39" class="edge"><title>Node21&#45;&gt;Node17</title>
<path fill="none" stroke="midnightblue" d="M490.363,-229.996C510.691,-220.019 545.355,-202.939 575,-188 592.396,-179.234 595.22,-173.174 614,-168 852.539,-102.277 925.252,-151.86 1176.31,-131.996"/>
<polygon fill="midnightblue" stroke="midnightblue" points="1176.79,-135.468 1186.47,-131.162 1176.22,-128.492 1176.79,-135.468"/>
</g>
<!-- Node22 -->
<g id="node22" class="node"><title>Node22</title>
<polygon fill="none" stroke="#bfbfbf" points="483.5,-168.5 483.5,-187.5 566.5,-187.5 566.5,-168.5 483.5,-168.5"/>
<text text-anchor="middle" x="525" y="-175.5" font-family="Helvetica,sans-Serif" font-size="10.00">unordered_map</text>
</g>
<!-- Node21&#45;&gt;Node22 -->
<g id="edge32" class="edge"><title>Node21&#45;&gt;Node22</title>
<path fill="none" stroke="midnightblue" d="M480.45,-229.975C488.328,-220.962 500.945,-206.525 510.744,-195.312"/>
<polygon fill="midnightblue" stroke="midnightblue" points="513.618,-197.342 517.563,-187.509 508.347,-192.736 513.618,-197.342"/>
</g>
<!-- Node23 -->
<g id="node23" class="node"><title>Node23</title>
<g id="a_node23"><a xlink:href="QualityObject_8h_source.html" target="_top" xlink:title="QualityControl/QualityObject.h">
<polygon fill="none" stroke="black" points="1019.5,-112.5 1019.5,-131.5 1168.5,-131.5 1168.5,-112.5 1019.5,-112.5"/>
<text text-anchor="middle" x="1094" y="-119.5" font-family="Helvetica,sans-Serif" font-size="10.00">QualityControl/QualityObject.h</text>
</a>
</g>
</g>
<!-- Node21&#45;&gt;Node23 -->
<g id="edge33" class="edge"><title>Node21&#45;&gt;Node23</title>
<path fill="none" stroke="midnightblue" d="M469.832,-229.763C465.071,-214.914 458.208,-184.74 474,-168 509.939,-129.904 847.845,-123.708 1009.12,-122.939"/>
<polygon fill="midnightblue" stroke="midnightblue" points="1009.5,-126.437 1019.48,-122.896 1009.47,-119.438 1009.5,-126.437"/>
</g>
<!-- Node23&#45;&gt;Node7 -->
<g id="edge35" class="edge"><title>Node23&#45;&gt;Node7</title>
<path fill="none" stroke="midnightblue" d="M1155.48,-112.444C1240.95,-100.548 1392.15,-79.5043 1454.22,-70.8656"/>
<polygon fill="midnightblue" stroke="midnightblue" points="1454.99,-74.2935 1464.41,-69.4484 1454.02,-67.3604 1454.99,-74.2935"/>
</g>
<!-- Node23&#45;&gt;Node18 -->
<g id="edge36" class="edge"><title>Node23&#45;&gt;Node18</title>
<path fill="none" stroke="midnightblue" d="M1111.03,-112.324C1128.03,-103.664 1154.38,-90.2424 1173.99,-80.249"/>
<polygon fill="midnightblue" stroke="midnightblue" points="1175.69,-83.3125 1183.01,-75.6545 1172.51,-77.0752 1175.69,-83.3125"/>
</g>
<!-- Node23&#45;&gt;Node19 -->
<g id="edge37" class="edge"><title>Node23&#45;&gt;Node19</title>
<path fill="none" stroke="midnightblue" d="M1094,-112.083C1094,-105.006 1094,-94.8611 1094,-85.9865"/>
<polygon fill="midnightblue" stroke="midnightblue" points="1097.5,-85.751 1094,-75.7511 1090.5,-85.7511 1097.5,-85.751"/>
</g>
<!-- Node23&#45;&gt;Node20 -->
<g id="edge38" class="edge"><title>Node23&#45;&gt;Node20</title>
<path fill="none" stroke="midnightblue" d="M1134.09,-112.444C1178.32,-103.004 1249.54,-87.802 1297.28,-77.6111"/>
<polygon fill="midnightblue" stroke="midnightblue" points="1298.05,-81.0268 1307.1,-75.5164 1296.59,-74.181 1298.05,-81.0268"/>
</g>
<!-- Node24 -->
<g id="node24" class="node"><title>Node24</title>
<polygon fill="none" stroke="#bfbfbf" points="964,-56.5 964,-75.5 1018,-75.5 1018,-56.5 964,-56.5"/>
<text text-anchor="middle" x="991" y="-63.5" font-family="Helvetica,sans-Serif" font-size="10.00">iostream</text>
</g>
<!-- Node23&#45;&gt;Node24 -->
<g id="edge34" class="edge"><title>Node23&#45;&gt;Node24</title>
<path fill="none" stroke="midnightblue" d="M1077.45,-112.324C1061.01,-103.703 1035.57,-90.3643 1016.53,-80.3855"/>
<polygon fill="midnightblue" stroke="midnightblue" points="1017.99,-77.198 1007.51,-75.6545 1014.74,-83.3977 1017.99,-77.198"/>
</g>
<!-- Node26 -->
<g id="node26" class="node"><title>Node26</title>
<polygon fill="none" stroke="#bfbfbf" points="1666,-112.5 1666,-131.5 1796,-131.5 1796,-112.5 1666,-112.5"/>
<text text-anchor="middle" x="1731" y="-119.5" font-family="Helvetica,sans-Serif" font-size="10.00">InfoLogger/InfoLogger.hxx</text>
</g>
<!-- Node25&#45;&gt;Node26 -->
<g id="edge42" class="edge"><title>Node25&#45;&gt;Node26</title>
<path fill="none" stroke="midnightblue" d="M1731,-168.083C1731,-161.006 1731,-150.861 1731,-141.986"/>
<polygon fill="midnightblue" stroke="midnightblue" points="1734.5,-141.751 1731,-131.751 1727.5,-141.751 1734.5,-141.751"/>
</g>
<!-- Node27&#45;&gt;Node5 -->
<g id="edge47" class="edge"><title>Node27&#45;&gt;Node5</title>
<path fill="none" stroke="midnightblue" d="M1355.03,-230.843C1256.93,-218.317 1065.07,-193.821 985.221,-183.625"/>
<polygon fill="midnightblue" stroke="midnightblue" points="985.524,-180.135 975.162,-182.34 984.638,-187.079 985.524,-180.135"/>
</g>
<!-- Node27&#45;&gt;Node7 -->
<g id="edge45" class="edge"><title>Node27&#45;&gt;Node7</title>
<path fill="none" stroke="midnightblue" d="M1417.02,-229.674C1420.23,-216.18 1426.93,-189.703 1435,-168 1446.14,-138.052 1462.47,-104.696 1472.66,-84.8015"/>
<polygon fill="midnightblue" stroke="midnightblue" points="1475.87,-86.2039 1477.37,-75.7146 1469.66,-82.9844 1475.87,-86.2039"/>
</g>
<!-- Node27&#45;&gt;Node8 -->
<g id="edge46" class="edge"><title>Node27&#45;&gt;Node8</title>
<path fill="none" stroke="midnightblue" d="M1355.34,-233.768C1319.33,-230.92 1272.53,-227.231 1231,-224 1019.82,-207.571 765.8,-188.196 677.283,-181.456"/>
<polygon fill="midnightblue" stroke="midnightblue" points="677.323,-177.949 667.086,-180.68 676.791,-184.929 677.323,-177.949"/>
</g>
<!-- Node27&#45;&gt;Node14 -->
<g id="edge48" class="edge"><title>Node27&#45;&gt;Node14</title>
<path fill="none" stroke="midnightblue" d="M1371.73,-229.975C1317.57,-219.305 1224.83,-201.034 1166.34,-189.509"/>
<polygon fill="midnightblue" stroke="midnightblue" points="1166.68,-186.008 1156.19,-187.509 1165.32,-192.876 1166.68,-186.008"/>
</g>
<!-- Node27&#45;&gt;Node15 -->
<g id="edge52" class="edge"><title>Node27&#45;&gt;Node15</title>
<path fill="none" stroke="midnightblue" d="M1430.33,-229.975C1447.97,-220.166 1477.16,-203.935 1497.86,-192.425"/>
<polygon fill="midnightblue" stroke="midnightblue" points="1499.66,-195.428 1506.7,-187.509 1496.26,-189.31 1499.66,-195.428"/>
</g>
<!-- Node27&#45;&gt;Node17 -->
<g id="edge51" class="edge"><title>Node27&#45;&gt;Node17</title>
<path fill="none" stroke="midnightblue" d="M1359.71,-229.981C1332.25,-223.038 1300.62,-210.514 1280,-188 1268.52,-175.463 1264.27,-156.239 1262.74,-141.946"/>
<polygon fill="midnightblue" stroke="midnightblue" points="1266.22,-141.488 1262.02,-131.762 1259.24,-141.986 1266.22,-141.488"/>
</g>
<!-- Node27&#45;&gt;Node20 -->
<g id="edge49" class="edge"><title>Node27&#45;&gt;Node20</title>
<path fill="none" stroke="midnightblue" d="M1411.53,-229.76C1400.89,-202.921 1368.54,-121.318 1354.09,-84.8903"/>
<polygon fill="midnightblue" stroke="midnightblue" points="1357.32,-83.5252 1350.38,-75.5194 1350.81,-86.1054 1357.32,-83.5252"/>
</g>
<!-- Node27&#45;&gt;Node23 -->
<g id="edge50" class="edge"><title>Node27&#45;&gt;Node23</title>
<path fill="none" stroke="midnightblue" d="M1388.61,-229.956C1358.57,-220.151 1308.07,-203.43 1265,-188 1215.88,-170.403 1159.38,-148.623 1125.21,-135.275"/>
<polygon fill="midnightblue" stroke="midnightblue" points="1126.35,-131.966 1115.76,-131.581 1123.8,-138.485 1126.35,-131.966"/>
</g>
<!-- Node27&#45;&gt;Node25 -->
<g id="edge53" class="edge"><title>Node27&#45;&gt;Node25</title>
<path fill="none" stroke="midnightblue" d="M1460.28,-229.975C1517.18,-219.261 1614.79,-200.882 1675.95,-189.366"/>
<polygon fill="midnightblue" stroke="midnightblue" points="1676.63,-192.799 1685.81,-187.509 1675.33,-185.92 1676.63,-192.799"/>
</g>
<!-- Node28 -->
<g id="node28" class="node"><title>Node28</title>
<polygon fill="none" stroke="#bfbfbf" points="1289.5,-168.5 1289.5,-187.5 1348.5,-187.5 1348.5,-168.5 1289.5,-168.5"/>
<text text-anchor="middle" x="1319" y="-175.5" font-family="Helvetica,sans-Serif" font-size="10.00">functional</text>
</g>
<!-- Node27&#45;&gt;Node28 -->
<g id="edge44" class="edge"><title>Node27&#45;&gt;Node28</title>
<path fill="none" stroke="midnightblue" d="M1401.25,-229.975C1385.63,-220.299 1359.94,-204.372 1341.42,-192.894"/>
<polygon fill="midnightblue" stroke="midnightblue" points="1343.07,-189.802 1332.73,-187.509 1339.38,-195.752 1343.07,-189.802"/>
</g>
<!-- Node29&#45;&gt;Node6 -->
<g id="edge56" class="edge"><title>Node29&#45;&gt;Node6</title>
<path fill="none" stroke="midnightblue" d="M93.6668,-224.435C109.632,-214.691 130.991,-201.153 149,-188 223.169,-133.828 229.328,-103.395 308,-56 333.092,-40.8837 364.187,-28.6072 386.735,-20.7183"/>
<polygon fill="midnightblue" stroke="midnightblue" points="388.106,-23.9486 396.441,-17.408 385.847,-17.3233 388.106,-23.9486"/>
</g>
<!-- Node29&#45;&gt;Node8 -->
<g id="edge55" class="edge"><title>Node29&#45;&gt;Node8</title>
<path fill="none" stroke="midnightblue" d="M140.155,-225.258C143.14,-224.81 146.098,-224.388 149,-224 337.332,-198.819 386.06,-208.12 575,-188 587.439,-186.675 601.09,-184.976 613.007,-183.411"/>
<polygon fill="midnightblue" stroke="midnightblue" points="613.511,-186.875 622.96,-182.084 612.585,-179.937 613.511,-186.875"/>
</g>
<!-- Node30 -->
<g id="node30" class="node"><title>Node30</title>
<polygon fill="none" stroke="#bfbfbf" points="0,-168.5 0,-187.5 140,-187.5 140,-168.5 0,-168.5"/>
<text text-anchor="middle" x="70" y="-175.5" font-family="Helvetica,sans-Serif" font-size="10.00">Framework/WorkflowSpec.h</text>
</g>
<!-- Node29&#45;&gt;Node30 -->
<g id="edge57" class="edge"><title>Node29&#45;&gt;Node30</title>
<path fill="none" stroke="midnightblue" d="M70,-224.399C70,-216.466 70,-206.458 70,-197.858"/>
<polygon fill="midnightblue" stroke="midnightblue" points="73.5001,-197.658 70,-187.658 66.5001,-197.658 73.5001,-197.658"/>
</g>
<!-- Node31&#45;&gt;Node6 -->
<g id="edge59" class="edge"><title>Node31&#45;&gt;Node6</title>
<path fill="none" stroke="midnightblue" d="M517.141,-291.47C452.767,-281.936 358.727,-266.35 346,-255 319.563,-231.424 322,-214.422 322,-179 322,-179 322,-179 322,-121 322,-90.2048 326.641,-79.9494 346,-56 356.987,-42.4072 373.234,-31.6837 387.414,-24.1197"/>
<polygon fill="midnightblue" stroke="midnightblue" points="389.007,-27.2365 396.358,-19.607 385.853,-20.987 389.007,-27.2365"/>
</g>
<!-- Node32 -->
<g id="node32" class="node"><title>Node32</title>
<polygon fill="none" stroke="#bfbfbf" points="158.5,-224.5 158.5,-254.5 293.5,-254.5 293.5,-224.5 158.5,-224.5"/>
<text text-anchor="start" x="166.5" y="-242.5" font-family="Helvetica,sans-Serif" font-size="10.00">Configuration/Configuration</text>
<text text-anchor="middle" x="226" y="-231.5" font-family="Helvetica,sans-Serif" font-size="10.00">Factory.h</text>
</g>
<!-- Node31&#45;&gt;Node32 -->
<g id="edge60" class="edge"><title>Node31&#45;&gt;Node32</title>
<path fill="none" stroke="midnightblue" d="M525.962,-291.483C471.571,-282.545 383.757,-268.011 308,-255 306.531,-254.748 305.047,-254.492 303.551,-254.234"/>
<polygon fill="midnightblue" stroke="midnightblue" points="304.011,-250.762 293.56,-252.501 302.815,-257.659 304.011,-250.762"/>
</g>
</g>
</svg>
        <g id="navigator" transform="translate(0 0)" fill="#404254">
                <rect fill="#f2f5e9" fill-opacity="0.5" stroke="#606060" stroke-width=".5" x="0" y="0" width="60" height="60"/>
                <use id="zoomplus" xlink:href="#zoomPlus" x="17" y="9" onmousedown="handleZoom(evt,'in')"/>
                <use id="zoomminus" xlink:href="#zoomMin" x="42" y="9" onmousedown="handleZoom(evt,'out')"/>
                <use id="reset" xlink:href="#resetDef" x="30" y="36" onmousedown="handleReset()"/>
                <g id="arrowUp" xlink:href="#dirArrow" transform="translate(30 24)" onmousedown="handlePan(0,-1)">
                  <use xlink:href="#rim" fill="#404040">
                        <set attributeName="fill" to="#808080" begin="arrowUp.mouseover" end="arrowUp.mouseout"/>
                  </use>
                  <path fill="none" stroke="white" stroke-width="1.5" d="M0,-3.0v7 M-2.5,-0.5L0,-3.0L2.5,-0.5"/>
                </g>
                <g id="arrowRight" xlink:href="#dirArrow" transform="rotate(90) translate(36 -43)" onmousedown="handlePan(1,0)">
                  <use xlink:href="#rim" fill="#404040">
                        <set attributeName="fill" to="#808080" begin="arrowRight.mouseover" end="arrowRight.mouseout"/>
                  </use>
                  <path fill="none" stroke="white" stroke-width="1.5" d="M0,-3.0v7 M-2.5,-0.5L0,-3.0L2.5,-0.5"/>
                </g>
                <g id="arrowDown" xlink:href="#dirArrow" transform="rotate(180) translate(-30 -48)" onmousedown="handlePan(0,1)">
                  <use xlink:href="#rim" fill="#404040">
                        <set attributeName="fill" to="#808080" begin="arrowDown.mouseover" end="arrowDown.mouseout"/>
                  </use>
                  <path fill="none" stroke="white" stroke-width="1.5" d="M0,-3.0v7 M-2.5,-0.5L0,-3.0L2.5,-0.5"/>
                </g>
                <g id="arrowLeft" xlink:href="#dirArrow" transform="rotate(270) translate(-36 17)" onmousedown="handlePan(-1,0)">
                  <use xlink:href="#rim" fill="#404040">
                        <set attributeName="fill" to="#808080" begin="arrowLeft.mouseover" end="arrowLeft.mouseout"/>
                  </use>
                  <path fill="none" stroke="white" stroke-width="1.5" d="M0,-3.0v7 M-2.5,-0.5L0,-3.0L2.5,-0.5"/>
                </g>
        </g>
        <svg viewBox="0 0 15 15" width="100%" height="30px" preserveAspectRatio="xMaxYMin meet">
         <g id="arrow_out" transform="scale(0.3 0.3)">
          <a xlink:href="testWorkflow_8cxx__incl_org.svg" target="_base">
           <rect id="button" ry="5" rx="5" y="6" x="6" height="38" width="38"
                fill="#f2f5e9" fill-opacity="0.5" stroke="#606060" stroke-width="1.0"/>
           <path id="arrow"
             d="M 11.500037,31.436501 C 11.940474,20.09759 22.043105,11.32322 32.158766,21.979434 L 37.068811,17.246167 C 37.068811,17.246167 37.088388,32 37.088388,32 L 22.160133,31.978069 C 22.160133,31.978069 26.997745,27.140456 26.997745,27.140456 C 18.528582,18.264221 13.291696,25.230495 11.500037,31.436501 z"
             style="fill:#404040;"/>
          </a>
         </g>
        </svg>
</svg>
