<?xml version="1.0" encoding="UTF-8" standalone="no"?>
<!DOCTYPE svg PUBLIC "-//W3C//DTD SVG 1.1//EN"
 "http://www.w3.org/Graphics/SVG/1.1/DTD/svg11.dtd">
<!-- Generated by graphviz version 2.38.0 (20140413.2041)
 -->
<!-- Title: Framework/test/testMonitorObject.cxx Pages: 1 -->
<svg width="971pt" height="207pt"
 viewBox="0.00 0.00 971.00 207.00" xmlns="http://www.w3.org/2000/svg" xmlns:xlink="http://www.w3.org/1999/xlink">
<g id="graph0" class="graph" transform="scale(1 1) rotate(0) translate(4 203)">
<title>Framework/test/testMonitorObject.cxx</title>
<!-- Node1 -->
<g id="node1" class="node"><title>Node1</title>
<polygon fill="#bfbfbf" stroke="black" points="655,-168.5 655,-198.5 792,-198.5 792,-168.5 655,-168.5"/>
<text text-anchor="start" x="663" y="-186.5" font-family="Helvetica,sans-Serif" font-size="10.00">Framework/test/testMonitor</text>
<text text-anchor="middle" x="723.5" y="-175.5" font-family="Helvetica,sans-Serif" font-size="10.00">Object.cxx</text>
</g>
<!-- Node2 -->
<g id="node2" class="node"><title>Node2</title>
<g id="a_node2"><a xlink:href="MonitorObject_8h.html" target="_top" xlink:title="QualityControl/MonitorObject.h">
<polygon fill="none" stroke="black" points="152,-112.5 152,-131.5 303,-131.5 303,-112.5 152,-112.5"/>
<text text-anchor="middle" x="227.5" y="-119.5" font-family="Helvetica,sans-Serif" font-size="10.00">QualityControl/MonitorObject.h</text>
</a>
</g>
</g>
<!-- Node1&#45;&gt;Node2 -->
<g id="edge1" class="edge"><title>Node1&#45;&gt;Node2</title>
<path fill="none" stroke="midnightblue" d="M654.794,-174.258C564.115,-163.38 404.735,-144.261 308.356,-132.699"/>
<polygon fill="midnightblue" stroke="midnightblue" points="308.712,-129.217 298.366,-131.501 307.878,-136.167 308.712,-129.217"/>
</g>
<!-- Node9 -->
<g id="node9" class="node"><title>Node9</title>
<g id="a_node9"><a xlink:href="QcInfoLogger_8h.html" target="_top" xlink:title="QualityControl/QcInfoLogger.h">
<polygon fill="none" stroke="black" points="396,-112.5 396,-131.5 545,-131.5 545,-112.5 396,-112.5"/>
<text text-anchor="middle" x="470.5" y="-119.5" font-family="Helvetica,sans-Serif" font-size="10.00">QualityControl/QcInfoLogger.h</text>
</a>
</g>
</g>
<!-- Node1&#45;&gt;Node9 -->
<g id="edge10" class="edge"><title>Node1&#45;&gt;Node9</title>
<path fill="none" stroke="midnightblue" d="M663.863,-168.475C618.786,-157.874 557.813,-143.534 516.475,-133.812"/>
<polygon fill="midnightblue" stroke="midnightblue" points="517.206,-130.389 506.67,-131.506 515.603,-137.203 517.206,-130.389"/>
</g>
<!-- Node11 -->
<g id="node11" class="node"><title>Node11</title>
<polygon fill="none" stroke="#bfbfbf" points="563,-112.5 563,-131.5 682,-131.5 682,-112.5 563,-112.5"/>
<text text-anchor="middle" x="622.5" y="-119.5" font-family="Helvetica,sans-Serif" font-size="10.00">boost/test/unit_test.hpp</text>
</g>
<!-- Node1&#45;&gt;Node11 -->
<g id="edge12" class="edge"><title>Node1&#45;&gt;Node11</title>
<path fill="none" stroke="midnightblue" d="M699.564,-168.399C683.375,-158.862 662.093,-146.325 645.997,-136.842"/>
<polygon fill="midnightblue" stroke="midnightblue" points="647.589,-133.718 637.196,-131.658 644.036,-139.749 647.589,-133.718"/>
</g>
<!-- Node12 -->
<g id="node12" class="node"><title>Node12</title>
<polygon fill="none" stroke="#bfbfbf" points="700.5,-112.5 700.5,-131.5 746.5,-131.5 746.5,-112.5 700.5,-112.5"/>
<text text-anchor="middle" x="723.5" y="-119.5" font-family="Helvetica,sans-Serif" font-size="10.00">chrono</text>
</g>
<!-- Node1&#45;&gt;Node12 -->
<g id="edge13" class="edge"><title>Node1&#45;&gt;Node12</title>
<path fill="none" stroke="midnightblue" d="M723.5,-168.399C723.5,-160.466 723.5,-150.458 723.5,-141.858"/>
<polygon fill="midnightblue" stroke="midnightblue" points="727,-141.658 723.5,-131.658 720,-141.658 727,-141.658"/>
</g>
<!-- Node13 -->
<g id="node13" class="node"><title>Node13</title>
<polygon fill="none" stroke="#bfbfbf" points="764.5,-112.5 764.5,-131.5 814.5,-131.5 814.5,-112.5 764.5,-112.5"/>
<text text-anchor="middle" x="789.5" y="-119.5" font-family="Helvetica,sans-Serif" font-size="10.00">TH1F.h</text>
</g>
<!-- Node1&#45;&gt;Node13 -->
<g id="edge14" class="edge"><title>Node1&#45;&gt;Node13</title>
<path fill="none" stroke="midnightblue" d="M739.141,-168.399C749.127,-159.397 762.078,-147.721 772.345,-138.465"/>
<polygon fill="midnightblue" stroke="midnightblue" points="774.813,-140.953 779.896,-131.658 770.125,-135.754 774.813,-140.953"/>
</g>
<!-- Node14 -->
<g id="node14" class="node"><title>Node14</title>
<polygon fill="none" stroke="#bfbfbf" points="833,-112.5 833,-131.5 880,-131.5 880,-112.5 833,-112.5"/>
<text text-anchor="middle" x="856.5" y="-119.5" font-family="Helvetica,sans-Serif" font-size="10.00">TFile.h</text>
</g>
<!-- Node1&#45;&gt;Node14 -->
<g id="edge15" class="edge"><title>Node1&#45;&gt;Node14</title>
<path fill="none" stroke="midnightblue" d="M755.019,-168.399C777.135,-158.505 806.467,-145.383 827.906,-135.792"/>
<polygon fill="midnightblue" stroke="midnightblue" points="829.448,-138.936 837.147,-131.658 826.59,-132.547 829.448,-138.936"/>
</g>
<!-- Node15 -->
<g id="node15" class="node"><title>Node15</title>
<polygon fill="none" stroke="#bfbfbf" points="898,-112.5 898,-131.5 963,-131.5 963,-112.5 898,-112.5"/>
<text text-anchor="middle" x="930.5" y="-119.5" font-family="Helvetica,sans-Serif" font-size="10.00">TSystem.h</text>
</g>
<!-- Node1&#45;&gt;Node15 -->
<g id="edge16" class="edge"><title>Node1&#45;&gt;Node15</title>
<path fill="none" stroke="midnightblue" d="M772.294,-168.475C808.474,-158.075 857.169,-144.078 890.936,-134.372"/>
<polygon fill="midnightblue" stroke="midnightblue" points="892.262,-137.633 900.906,-131.506 890.329,-130.905 892.262,-137.633"/>
</g>
<!-- Node3 -->
<g id="node3" class="node"><title>Node3</title>
<polygon fill="none" stroke="#bfbfbf" points="388,-0.5 388,-19.5 429,-19.5 429,-0.5 388,-0.5"/>
<text text-anchor="middle" x="408.5" y="-7.5" font-family="Helvetica,sans-Serif" font-size="10.00">string</text>
</g>
<!-- Node2&#45;&gt;Node3 -->
<g id="edge2" class="edge"><title>Node2&#45;&gt;Node3</title>
<path fill="none" stroke="midnightblue" d="M303.155,-114.321C354.949,-107.999 417.114,-96.3518 433.5,-76 444.928,-61.806 434.234,-41.7949 423.506,-27.7363"/>
<polygon fill="midnightblue" stroke="midnightblue" points="426.077,-25.3526 417.018,-19.8572 420.673,-29.802 426.077,-25.3526"/>
</g>
<!-- Node4 -->
<g id="node4" class="node"><title>Node4</title>
<polygon fill="none" stroke="#bfbfbf" points="0,-56.5 0,-75.5 35,-75.5 35,-56.5 0,-56.5"/>
<text text-anchor="middle" x="17.5" y="-63.5" font-family="Helvetica,sans-Serif" font-size="10.00">map</text>
</g>
<!-- Node2&#45;&gt;Node4 -->
<g id="edge3" class="edge"><title>Node2&#45;&gt;Node4</title>
<path fill="none" stroke="midnightblue" d="M192.639,-112.477C156.702,-103.623 99.0821,-89.2374 49.5,-76 48.0364,-75.6092 46.5364,-75.204 45.023,-74.7913"/>
<polygon fill="midnightblue" stroke="midnightblue" points="45.6538,-71.3342 35.0822,-72.0355 43.7837,-78.0798 45.6538,-71.3342"/>
</g>
<!-- Node5 -->
<g id="node5" class="node"><title>Node5</title>
<polygon fill="none" stroke="#bfbfbf" points="196.5,-0.5 196.5,-19.5 252.5,-19.5 252.5,-0.5 196.5,-0.5"/>
<text text-anchor="middle" x="224.5" y="-7.5" font-family="Helvetica,sans-Serif" font-size="10.00">Rtypes.h</text>
</g>
<!-- Node2&#45;&gt;Node5 -->
<g id="edge4" class="edge"><title>Node2&#45;&gt;Node5</title>
<path fill="none" stroke="midnightblue" d="M151.665,-115.501C125.479,-109.523 98.6809,-97.9638 82.5,-76 53.6891,-36.8922 134.751,-20.6875 186.01,-14.4828"/>
<polygon fill="midnightblue" stroke="midnightblue" points="186.591,-17.9396 196.135,-13.3386 185.805,-10.9838 186.591,-17.9396"/>
</g>
<!-- Node6 -->
<g id="node6" class="node"><title>Node6</title>
<polygon fill="none" stroke="#bfbfbf" points="92,-56.5 92,-75.5 151,-75.5 151,-56.5 92,-56.5"/>
<text text-anchor="middle" x="121.5" y="-63.5" font-family="Helvetica,sans-Serif" font-size="10.00">TObject.h</text>
</g>
<!-- Node2&#45;&gt;Node6 -->
<g id="edge5" class="edge"><title>Node2&#45;&gt;Node6</title>
<path fill="none" stroke="midnightblue" d="M210.469,-112.324C193.47,-103.664 167.124,-90.2424 147.507,-80.249"/>
<polygon fill="midnightblue" stroke="midnightblue" points="148.988,-77.0752 138.488,-75.6545 145.81,-83.3125 148.988,-77.0752"/>
</g>
<!-- Node7 -->
<g id="node7" class="node"><title>Node7</title>
<polygon fill="none" stroke="#bfbfbf" points="169.5,-56.5 169.5,-75.5 285.5,-75.5 285.5,-56.5 169.5,-56.5"/>
<text text-anchor="middle" x="227.5" y="-63.5" font-family="Helvetica,sans-Serif" font-size="10.00">Common/Exceptions.h</text>
</g>
<!-- Node2&#45;&gt;Node7 -->
<g id="edge6" class="edge"><title>Node2&#45;&gt;Node7</title>
<path fill="none" stroke="midnightblue" d="M227.5,-112.083C227.5,-105.006 227.5,-94.8611 227.5,-85.9865"/>
<polygon fill="midnightblue" stroke="midnightblue" points="231,-85.751 227.5,-75.7511 224,-85.7511 231,-85.751"/>
</g>
<!-- Node8 -->
<g id="node8" class="node"><title>Node8</title>
<g id="a_node8"><a xlink:href="Quality_8h.html" target="_top" xlink:title="QualityControl/Quality.h">
<polygon fill="none" stroke="black" points="304,-56.5 304,-75.5 425,-75.5 425,-56.5 304,-56.5"/>
<text text-anchor="middle" x="364.5" y="-63.5" font-family="Helvetica,sans-Serif" font-size="10.00">QualityControl/Quality.h</text>
</a>
</g>
</g>
<!-- Node2&#45;&gt;Node8 -->
<g id="edge7" class="edge"><title>Node2&#45;&gt;Node8</title>
<path fill="none" stroke="midnightblue" d="M249.208,-112.444C271.855,-103.517 307.572,-89.4387 333.252,-79.3168"/>
<polygon fill="midnightblue" stroke="midnightblue" points="334.874,-82.4397 342.894,-75.5164 332.307,-75.9273 334.874,-82.4397"/>
</g>
<!-- Node8&#45;&gt;Node3 -->
<g id="edge9" class="edge"><title>Node8&#45;&gt;Node3</title>
<path fill="none" stroke="midnightblue" d="M371.766,-56.083C378.045,-48.3768 387.288,-37.0333 394.931,-27.6531"/>
<polygon fill="midnightblue" stroke="midnightblue" points="397.766,-29.7143 401.369,-19.7511 392.339,-25.2926 397.766,-29.7143"/>
</g>
<!-- Node8&#45;&gt;Node5 -->
<g id="edge8" class="edge"><title>Node8&#45;&gt;Node5</title>
<path fill="none" stroke="midnightblue" d="M342.317,-56.4435C319.072,-47.4776 282.351,-33.314 256.085,-23.1827"/>
<polygon fill="midnightblue" stroke="midnightblue" points="257.169,-19.8497 246.58,-19.5164 254.65,-26.3807 257.169,-19.8497"/>
</g>
<!-- Node10 -->
<g id="node10" class="node"><title>Node10</title>
<polygon fill="none" stroke="#bfbfbf" points="481.5,-56.5 481.5,-75.5 611.5,-75.5 611.5,-56.5 481.5,-56.5"/>
<text text-anchor="middle" x="546.5" y="-63.5" font-family="Helvetica,sans-Serif" font-size="10.00">InfoLogger/InfoLogger.hxx</text>
</g>
<!-- Node9&#45;&gt;Node10 -->
<g id="edge11" class="edge"><title>Node9&#45;&gt;Node10</title>
<path fill="none" stroke="midnightblue" d="M482.711,-112.324C494.276,-104.107 511.875,-91.6017 525.661,-81.8069"/>
<polygon fill="midnightblue" stroke="midnightblue" points="527.943,-84.4791 534.067,-75.8339 523.888,-78.7729 527.943,-84.4791"/>
</g>
</g>
</svg>
