<?xml version="1.0" encoding="UTF-8" standalone="no"?>
<!DOCTYPE svg PUBLIC "-//W3C//DTD SVG 1.1//EN"
 "http://www.w3.org/Graphics/SVG/1.1/DTD/svg11.dtd">
<!-- Generated by graphviz version 2.38.0 (20140413.2041)
 -->
<!-- Title: Modules/TOF/src/TOFCheckRawsMulti.cxx Pages: 1 -->
<!--zoomable 319 -->
<svg id="main" version="1.1" xmlns="http://www.w3.org/2000/svg" xmlns:xlink="http://www.w3.org/1999/xlink" xml:space="preserve" onload="init(evt)">
<style type="text/css"><![CDATA[
.edge:hover path { stroke: red; }
.edge:hover polygon { stroke: red; fill: red; }
]]></style>
<script type="text/javascript"><![CDATA[
var edges = document.getElementsByTagName('g');
if (edges && edges.length) {
  for (var i=0;i<edges.length;i++) {
    if (edges[i].id.substr(0,4)=='edge') {
      edges[i].setAttribute('class','edge');
    }
  }
}
]]></script>
        <defs>
                <circle id="rim" cx="0" cy="0" r="7"/>
                <circle id="rim2" cx="0" cy="0" r="3.5"/>
                <g id="zoomPlus">
                        <use xlink:href="#rim" fill="#404040">
                                <set attributeName="fill" to="#808080" begin="zoomplus.mouseover" end="zoomplus.mouseout"/>
                        </use>
                        <path d="M-4,0h8M0,-4v8" fill="none" stroke="white" stroke-width="1.5" pointer-events="none"/>
                </g>
                <g id="zoomMin">
                        <use xlink:href="#rim" fill="#404040">
                                <set attributeName="fill" to="#808080" begin="zoomminus.mouseover" end="zoomminus.mouseout"/>
                        </use>
                        <path d="M-4,0h8" fill="none" stroke="white" stroke-width="1.5" pointer-events="none"/>
                </g>
                <g id="dirArrow">
                        <path fill="none" stroke="white" stroke-width="1.5" d="M0,-3.0v7 M-2.5,-0.5L0,-3.0L2.5,-0.5"/>
                </g>
               <g id="resetDef">
                       <use xlink:href="#rim2" fill="#404040">
                               <set attributeName="fill" to="#808080" begin="reset.mouseover" end="reset.mouseout"/>
                       </use>
               </g>
        </defs>

<script type="text/javascript">
var viewWidth = 524;
var viewHeight = 319;
var sectionId = 'dynsection-0';
</script>
<script xlink:href="svgpan.js"/>
<svg id="graph" class="graph">
<g id="viewport">
<title>Modules/TOF/src/TOFCheckRawsMulti.cxx</title>
<!-- Node1 -->
<g id="node1" class="node"><title>Node1</title>
<polygon fill="#bfbfbf" stroke="black" points="266.018,-280.5 266.018,-310.5 409.018,-310.5 409.018,-280.5 266.018,-280.5"/>
<text text-anchor="start" x="274.018" y="-298.5" font-family="Helvetica,sans-Serif" font-size="10.00">Modules/TOF/src/TOFCheck</text>
<text text-anchor="middle" x="337.518" y="-287.5" font-family="Helvetica,sans-Serif" font-size="10.00">RawsMulti.cxx</text>
</g>
<!-- Node2 -->
<g id="node2" class="node"><title>Node2</title>
<g id="a_node2"><a xlink:href="TOFCheckRawsMulti_8h.html" target="_top" xlink:title="TOF/TOFCheckRawsMulti.h">
<polygon fill="none" stroke="black" points="40.5184,-224.5 40.5184,-243.5 182.518,-243.5 182.518,-224.5 40.5184,-224.5"/>
<text text-anchor="middle" x="111.518" y="-231.5" font-family="Helvetica,sans-Serif" font-size="10.00">TOF/TOFCheckRawsMulti.h</text>
</a>
</g>
</g>
<!-- Node1&#45;&gt;Node2 -->
<g id="edge1" class="edge"><title>Node1&#45;&gt;Node2</title>
<path fill="none" stroke="midnightblue" d="M284.246,-280.475C244.405,-269.986 190.663,-255.837 153.764,-246.122"/>
<polygon fill="midnightblue" stroke="midnightblue" points="154.39,-242.668 143.828,-243.506 152.608,-249.437 154.39,-242.668"/>
</g>
<!-- Node11 -->
<g id="node11" class="node"><title>Node11</title>
<polygon fill="none" stroke="#bfbfbf" points="201.018,-224.5 201.018,-243.5 298.018,-243.5 298.018,-224.5 201.018,-224.5"/>
<text text-anchor="middle" x="249.518" y="-231.5" font-family="Helvetica,sans-Serif" font-size="10.00">fairlogger/Logger.h</text>
</g>
<!-- Node1&#45;&gt;Node11 -->
<g id="edge18" class="edge"><title>Node1&#45;&gt;Node11</title>
<path fill="none" stroke="midnightblue" d="M316.664,-280.399C302.822,-271.04 284.707,-258.792 270.782,-249.377"/>
<polygon fill="midnightblue" stroke="midnightblue" points="272.568,-246.36 262.323,-243.658 268.647,-252.158 272.568,-246.36"/>
</g>
<!-- Node12 -->
<g id="node12" class="node"><title>Node12</title>
<polygon fill="none" stroke="#bfbfbf" points="315.518,-224.5 315.518,-243.5 359.518,-243.5 359.518,-224.5 315.518,-224.5"/>
<text text-anchor="middle" x="337.518" y="-231.5" font-family="Helvetica,sans-Serif" font-size="10.00">TH1.h</text>
</g>
<!-- Node1&#45;&gt;Node12 -->
<g id="edge19" class="edge"><title>Node1&#45;&gt;Node12</title>
<path fill="none" stroke="midnightblue" d="M337.518,-280.399C337.518,-272.466 337.518,-262.458 337.518,-253.858"/>
<polygon fill="midnightblue" stroke="midnightblue" points="341.018,-253.658 337.518,-243.658 334.018,-253.658 341.018,-253.658"/>
</g>
<!-- Node13 -->
<g id="node13" class="node"><title>Node13</title>
<polygon fill="none" stroke="#bfbfbf" points="378.018,-224.5 378.018,-243.5 425.018,-243.5 425.018,-224.5 378.018,-224.5"/>
<text text-anchor="middle" x="401.518" y="-231.5" font-family="Helvetica,sans-Serif" font-size="10.00">TList.h</text>
</g>
<!-- Node1&#45;&gt;Node13 -->
<g id="edge20" class="edge"><title>Node1&#45;&gt;Node13</title>
<path fill="none" stroke="midnightblue" d="M352.685,-280.399C362.273,-271.486 374.679,-259.952 384.587,-250.741"/>
<polygon fill="midnightblue" stroke="midnightblue" points="387.265,-253.03 392.206,-243.658 382.499,-247.903 387.265,-253.03"/>
</g>
<!-- Node14 -->
<g id="node14" class="node"><title>Node14</title>
<polygon fill="none" stroke="#bfbfbf" points="443.018,-224.5 443.018,-243.5 516.018,-243.5 516.018,-224.5 443.018,-224.5"/>
<text text-anchor="middle" x="479.518" y="-231.5" font-family="Helvetica,sans-Serif" font-size="10.00">TPaveText.h</text>
</g>
<!-- Node1&#45;&gt;Node14 -->
<g id="edge21" class="edge"><title>Node1&#45;&gt;Node14</title>
<path fill="none" stroke="midnightblue" d="M371.17,-280.399C394.996,-270.416 426.664,-257.147 449.606,-247.534"/>
<polygon fill="midnightblue" stroke="midnightblue" points="450.986,-250.751 458.856,-243.658 448.28,-244.294 450.986,-250.751"/>
</g>
<!-- Node3 -->
<g id="node3" class="node"><title>Node3</title>
<g id="a_node3"><a xlink:href="CheckInterface_8h.html" target="_top" xlink:title="QualityControl/CheckInterface.h">
<polygon fill="none" stroke="black" points="140.018,-168.5 140.018,-187.5 297.018,-187.5 297.018,-168.5 140.018,-168.5"/>
<text text-anchor="middle" x="218.518" y="-175.5" font-family="Helvetica,sans-Serif" font-size="10.00">QualityControl/CheckInterface.h</text>
</a>
</g>
</g>
<!-- Node2&#45;&gt;Node3 -->
<g id="edge2" class="edge"><title>Node2&#45;&gt;Node3</title>
<path fill="none" stroke="midnightblue" d="M128.71,-224.324C145.869,-215.664 172.464,-202.242 192.266,-192.249"/>
<polygon fill="midnightblue" stroke="midnightblue" points="194.019,-195.285 201.37,-187.655 190.865,-189.035 194.019,-195.285"/>
</g>
<!-- Node7 -->
<g id="node7" class="node"><title>Node7</title>
<g id="a_node7"><a xlink:href="MonitorObject_8h.html" target="_top" xlink:title="QualityControl/MonitorObject.h">
<polygon fill="none" stroke="black" points="142.018,-112.5 142.018,-131.5 293.018,-131.5 293.018,-112.5 142.018,-112.5"/>
<text text-anchor="middle" x="217.518" y="-119.5" font-family="Helvetica,sans-Serif" font-size="10.00">QualityControl/MonitorObject.h</text>
</a>
</g>
</g>
<!-- Node2&#45;&gt;Node7 -->
<g id="edge16" class="edge"><title>Node2&#45;&gt;Node7</title>
<path fill="none" stroke="midnightblue" d="M111.918,-224.43C112.967,-210.972 116.766,-184.699 130.518,-168 142.808,-153.077 161.34,-142.533 178.147,-135.422"/>
<polygon fill="midnightblue" stroke="midnightblue" points="179.762,-138.548 187.782,-131.625 177.195,-132.035 179.762,-138.548"/>
</g>
<!-- Node10 -->
<g id="node10" class="node"><title>Node10</title>
<g id="a_node10"><a xlink:href="Quality_8h.html" target="_top" xlink:title="QualityControl/Quality.h">
<polygon fill="none" stroke="black" points="13.0184,-56.5 13.0184,-75.5 134.018,-75.5 134.018,-56.5 13.0184,-56.5"/>
<text text-anchor="middle" x="73.5184" y="-63.5" font-family="Helvetica,sans-Serif" font-size="10.00">QualityControl/Quality.h</text>
</a>
</g>
</g>
<!-- Node2&#45;&gt;Node10 -->
<g id="edge17" class="edge"><title>Node2&#45;&gt;Node10</title>
<path fill="none" stroke="midnightblue" d="M109.475,-224.075C103.494,-197.945 85.928,-121.211 77.771,-85.577"/>
<polygon fill="midnightblue" stroke="midnightblue" points="81.123,-84.5349 75.4798,-75.5681 74.2995,-86.097 81.123,-84.5349"/>
</g>
<!-- Node4 -->
<g id="node4" class="node"><title>Node4</title>
<polygon fill="none" stroke="#bfbfbf" points="53.0184,-0.5 53.0184,-19.5 94.0184,-19.5 94.0184,-0.5 53.0184,-0.5"/>
<text text-anchor="middle" x="73.5184" y="-7.5" font-family="Helvetica,sans-Serif" font-size="10.00">string</text>
</g>
<!-- Node3&#45;&gt;Node4 -->
<g id="edge3" class="edge"><title>Node3&#45;&gt;Node4</title>
<path fill="none" stroke="midnightblue" d="M162.316,-168.415C110.529,-157.141 36.8253,-131.763 3.51839,-76 -9.69493,-53.878 18.9168,-34.6653 43.4508,-22.9793"/>
<polygon fill="midnightblue" stroke="midnightblue" points="45.2111,-26.0255 52.8981,-18.7343 42.3421,-19.6405 45.2111,-26.0255"/>
</g>
<!-- Node5 -->
<g id="node5" class="node"><title>Node5</title>
<polygon fill="none" stroke="#bfbfbf" points="441.018,-56.5 441.018,-75.5 476.018,-75.5 476.018,-56.5 441.018,-56.5"/>
<text text-anchor="middle" x="458.518" y="-63.5" font-family="Helvetica,sans-Serif" font-size="10.00">map</text>
</g>
<!-- Node3&#45;&gt;Node5 -->
<g id="edge4" class="edge"><title>Node3&#45;&gt;Node5</title>
<path fill="none" stroke="midnightblue" d="M237.351,-168.368C279.634,-148.989 382.243,-101.959 431.395,-79.4317"/>
<polygon fill="midnightblue" stroke="midnightblue" points="433.123,-82.49 440.755,-75.1416 430.206,-76.1265 433.123,-82.49"/>
</g>
<!-- Node6 -->
<g id="node6" class="node"><title>Node6</title>
<polygon fill="none" stroke="#bfbfbf" points="172.518,-0.5 172.518,-19.5 228.518,-19.5 228.518,-0.5 172.518,-0.5"/>
<text text-anchor="middle" x="200.518" y="-7.5" font-family="Helvetica,sans-Serif" font-size="10.00">Rtypes.h</text>
</g>
<!-- Node3&#45;&gt;Node6 -->
<g id="edge5" class="edge"><title>Node3&#45;&gt;Node6</title>
<path fill="none" stroke="midnightblue" d="M297.074,-168.942C395.265,-155.841 543.788,-124.192 485.518,-56 454.256,-19.4147 309.38,-12.3979 239.042,-11.1738"/>
<polygon fill="midnightblue" stroke="midnightblue" points="238.873,-7.67109 228.824,-11.0278 238.773,-14.6704 238.873,-7.67109"/>
</g>
<!-- Node3&#45;&gt;Node7 -->
<g id="edge6" class="edge"><title>Node3&#45;&gt;Node7</title>
<path fill="none" stroke="midnightblue" d="M218.353,-168.083C218.222,-161.006 218.034,-150.861 217.87,-141.986"/>
<polygon fill="midnightblue" stroke="midnightblue" points="221.365,-141.685 217.68,-131.751 214.366,-141.814 221.365,-141.685"/>
</g>
<!-- Node3&#45;&gt;Node10 -->
<g id="edge15" class="edge"><title>Node3&#45;&gt;Node10</title>
<path fill="none" stroke="midnightblue" d="M197.145,-168.351C178.955,-160.419 152.652,-147.559 132.518,-132 114.514,-118.087 97.4434,-98.2947 86.3405,-84.2125"/>
<polygon fill="midnightblue" stroke="midnightblue" points="88.824,-81.7001 79.9563,-75.9022 83.2729,-85.9646 88.824,-81.7001"/>
</g>
<!-- Node7&#45;&gt;Node4 -->
<g id="edge7" class="edge"><title>Node7&#45;&gt;Node4</title>
<path fill="none" stroke="midnightblue" d="M208.161,-112.152C194.302,-99.2207 167.284,-74.6707 142.518,-56 127.765,-44.8776 110.331,-33.5211 96.6779,-24.9992"/>
<polygon fill="midnightblue" stroke="midnightblue" points="98.2581,-21.8616 87.9096,-19.59 94.5828,-27.8192 98.2581,-21.8616"/>
</g>
<!-- Node7&#45;&gt;Node5 -->
<g id="edge8" class="edge"><title>Node7&#45;&gt;Node5</title>
<path fill="none" stroke="midnightblue" d="M265.914,-112.462C307.32,-104.79 368.649,-92.5573 430.893,-75.9086"/>
<polygon fill="midnightblue" stroke="midnightblue" points="432.152,-79.1936 440.888,-73.1987 430.32,-72.4376 432.152,-79.1936"/>
</g>
<!-- Node7&#45;&gt;Node6 -->
<g id="edge9" class="edge"><title>Node7&#45;&gt;Node6</title>
<path fill="none" stroke="midnightblue" d="M216.184,-112.368C213.441,-94.617 207.112,-53.6664 203.393,-29.5974"/>
<polygon fill="midnightblue" stroke="midnightblue" points="206.832,-28.9395 201.846,-19.5914 199.915,-30.0087 206.832,-28.9395"/>
</g>
<!-- Node8 -->
<g id="node8" class="node"><title>Node8</title>
<polygon fill="none" stroke="#bfbfbf" points="229.018,-56.5 229.018,-75.5 288.018,-75.5 288.018,-56.5 229.018,-56.5"/>
<text text-anchor="middle" x="258.518" y="-63.5" font-family="Helvetica,sans-Serif" font-size="10.00">TObject.h</text>
</g>
<!-- Node7&#45;&gt;Node8 -->
<g id="edge10" class="edge"><title>Node7&#45;&gt;Node8</title>
<path fill="none" stroke="midnightblue" d="M224.289,-112.083C230.08,-104.455 238.577,-93.2645 245.656,-83.9408"/>
<polygon fill="midnightblue" stroke="midnightblue" points="248.614,-85.8321 251.874,-75.7511 243.039,-81.5991 248.614,-85.8321"/>
</g>
<!-- Node9 -->
<g id="node9" class="node"><title>Node9</title>
<polygon fill="none" stroke="#bfbfbf" points="306.518,-56.5 306.518,-75.5 422.518,-75.5 422.518,-56.5 306.518,-56.5"/>
<text text-anchor="middle" x="364.518" y="-63.5" font-family="Helvetica,sans-Serif" font-size="10.00">Common/Exceptions.h</text>
</g>
<!-- Node7&#45;&gt;Node9 -->
<g id="edge11" class="edge"><title>Node7&#45;&gt;Node9</title>
<path fill="none" stroke="midnightblue" d="M240.811,-112.444C265.326,-103.438 304.115,-89.1891 331.718,-79.049"/>
<polygon fill="midnightblue" stroke="midnightblue" points="333.155,-82.25 341.335,-75.5164 330.741,-75.6793 333.155,-82.25"/>
</g>
<!-- Node7&#45;&gt;Node10 -->
<g id="edge12" class="edge"><title>Node7&#45;&gt;Node10</title>
<path fill="none" stroke="midnightblue" d="M194.701,-112.444C170.687,-103.438 132.689,-89.1891 105.649,-79.049"/>
<polygon fill="midnightblue" stroke="midnightblue" points="106.821,-75.7506 96.2289,-75.5164 104.363,-82.3049 106.821,-75.7506"/>
</g>
<!-- Node10&#45;&gt;Node4 -->
<g id="edge14" class="edge"><title>Node10&#45;&gt;Node4</title>
<path fill="none" stroke="midnightblue" d="M73.5184,-56.083C73.5184,-49.0059 73.5184,-38.8611 73.5184,-29.9865"/>
<polygon fill="midnightblue" stroke="midnightblue" points="77.0185,-29.751 73.5184,-19.7511 70.0185,-29.7511 77.0185,-29.751"/>
</g>
<!-- Node10&#45;&gt;Node6 -->
<g id="edge13" class="edge"><title>Node10&#45;&gt;Node6</title>
<path fill="none" stroke="midnightblue" d="M93.6419,-56.4435C114.543,-47.5566 147.453,-33.5632 171.235,-23.4514"/>
<polygon fill="midnightblue" stroke="midnightblue" points="172.656,-26.6504 180.489,-19.5164 169.917,-20.2085 172.656,-26.6504"/>
</g>
</g>
</svg>
        <g id="navigator" transform="translate(0 0)" fill="#404254">
                <rect fill="#f2f5e9" fill-opacity="0.5" stroke="#606060" stroke-width=".5" x="0" y="0" width="60" height="60"/>
                <use id="zoomplus" xlink:href="#zoomPlus" x="17" y="9" onmousedown="handleZoom(evt,'in')"/>
                <use id="zoomminus" xlink:href="#zoomMin" x="42" y="9" onmousedown="handleZoom(evt,'out')"/>
                <use id="reset" xlink:href="#resetDef" x="30" y="36" onmousedown="handleReset()"/>
                <g id="arrowUp" xlink:href="#dirArrow" transform="translate(30 24)" onmousedown="handlePan(0,-1)">
                  <use xlink:href="#rim" fill="#404040">
                        <set attributeName="fill" to="#808080" begin="arrowUp.mouseover" end="arrowUp.mouseout"/>
                  </use>
                  <path fill="none" stroke="white" stroke-width="1.5" d="M0,-3.0v7 M-2.5,-0.5L0,-3.0L2.5,-0.5"/>
                </g>
                <g id="arrowRight" xlink:href="#dirArrow" transform="rotate(90) translate(36 -43)" onmousedown="handlePan(1,0)">
                  <use xlink:href="#rim" fill="#404040">
                        <set attributeName="fill" to="#808080" begin="arrowRight.mouseover" end="arrowRight.mouseout"/>
                  </use>
                  <path fill="none" stroke="white" stroke-width="1.5" d="M0,-3.0v7 M-2.5,-0.5L0,-3.0L2.5,-0.5"/>
                </g>
                <g id="arrowDown" xlink:href="#dirArrow" transform="rotate(180) translate(-30 -48)" onmousedown="handlePan(0,1)">
                  <use xlink:href="#rim" fill="#404040">
                        <set attributeName="fill" to="#808080" begin="arrowDown.mouseover" end="arrowDown.mouseout"/>
                  </use>
                  <path fill="none" stroke="white" stroke-width="1.5" d="M0,-3.0v7 M-2.5,-0.5L0,-3.0L2.5,-0.5"/>
                </g>
                <g id="arrowLeft" xlink:href="#dirArrow" transform="rotate(270) translate(-36 17)" onmousedown="handlePan(-1,0)">
                  <use xlink:href="#rim" fill="#404040">
                        <set attributeName="fill" to="#808080" begin="arrowLeft.mouseover" end="arrowLeft.mouseout"/>
                  </use>
                  <path fill="none" stroke="white" stroke-width="1.5" d="M0,-3.0v7 M-2.5,-0.5L0,-3.0L2.5,-0.5"/>
                </g>
        </g>
        <svg viewBox="0 0 15 15" width="100%" height="30px" preserveAspectRatio="xMaxYMin meet">
         <g id="arrow_out" transform="scale(0.3 0.3)">
          <a xlink:href="TOFCheckRawsMulti_8cxx__incl_org.svg" target="_base">
           <rect id="button" ry="5" rx="5" y="6" x="6" height="38" width="38"
                fill="#f2f5e9" fill-opacity="0.5" stroke="#606060" stroke-width="1.0"/>
           <path id="arrow"
             d="M 11.500037,31.436501 C 11.940474,20.09759 22.043105,11.32322 32.158766,21.979434 L 37.068811,17.246167 C 37.068811,17.246167 37.088388,32 37.088388,32 L 22.160133,31.978069 C 22.160133,31.978069 26.997745,27.140456 26.997745,27.140456 C 18.528582,18.264221 13.291696,25.230495 11.500037,31.436501 z"
             style="fill:#404040;"/>
          </a>
         </g>
        </svg>
</svg>
