<?xml version="1.0" encoding="UTF-8" standalone="no"?>
<!DOCTYPE svg PUBLIC "-//W3C//DTD SVG 1.1//EN"
 "http://www.w3.org/Graphics/SVG/1.1/DTD/svg11.dtd">
<!-- Generated by graphviz version 2.38.0 (20140413.2041)
 -->
<!-- Title: Modules/TOF/src/TOFTask.cxx Pages: 1 -->
<svg width="1143pt" height="364pt"
 viewBox="0.00 0.00 1143.00 364.00" xmlns="http://www.w3.org/2000/svg" xmlns:xlink="http://www.w3.org/1999/xlink">
<g id="graph0" class="graph" transform="scale(1 1) rotate(0) translate(4 360)">
<title>Modules/TOF/src/TOFTask.cxx</title>
<!-- Node1 -->
<g id="node1" class="node"><title>Node1</title>
<polygon fill="#bfbfbf" stroke="black" points="194,-336.5 194,-355.5 349,-355.5 349,-336.5 194,-336.5"/>
<text text-anchor="middle" x="271.5" y="-343.5" font-family="Helvetica,sans-Serif" font-size="10.00">Modules/TOF/src/TOFTask.cxx</text>
</g>
<!-- Node2 -->
<g id="node2" class="node"><title>Node2</title>
<polygon fill="none" stroke="#bfbfbf" points="0,-280.5 0,-299.5 65,-299.5 65,-280.5 0,-280.5"/>
<text text-anchor="middle" x="32.5" y="-287.5" font-family="Helvetica,sans-Serif" font-size="10.00">TCanvas.h</text>
</g>
<!-- Node1&#45;&gt;Node2 -->
<g id="edge1" class="edge"><title>Node1&#45;&gt;Node2</title>
<path fill="none" stroke="midnightblue" d="M233.63,-336.444C190.433,-326.684 119.978,-310.765 74.9564,-300.593"/>
<polygon fill="midnightblue" stroke="midnightblue" points="75.7261,-297.178 65.2006,-298.388 74.1833,-304.006 75.7261,-297.178"/>
</g>
<!-- Node3 -->
<g id="node3" class="node"><title>Node3</title>
<polygon fill="none" stroke="#bfbfbf" points="83.5,-280.5 83.5,-299.5 127.5,-299.5 127.5,-280.5 83.5,-280.5"/>
<text text-anchor="middle" x="105.5" y="-287.5" font-family="Helvetica,sans-Serif" font-size="10.00">TH1.h</text>
</g>
<!-- Node1&#45;&gt;Node3 -->
<g id="edge2" class="edge"><title>Node1&#45;&gt;Node3</title>
<path fill="none" stroke="midnightblue" d="M245.197,-336.444C215.912,-326.917 168.589,-311.523 137.262,-301.332"/>
<polygon fill="midnightblue" stroke="midnightblue" points="138.288,-297.986 127.696,-298.22 136.123,-304.642 138.288,-297.986"/>
</g>
<!-- Node4 -->
<g id="node4" class="node"><title>Node4</title>
<polygon fill="none" stroke="#bfbfbf" points="145.5,-280.5 145.5,-299.5 195.5,-299.5 195.5,-280.5 145.5,-280.5"/>
<text text-anchor="middle" x="170.5" y="-287.5" font-family="Helvetica,sans-Serif" font-size="10.00">TH1F.h</text>
</g>
<!-- Node1&#45;&gt;Node4 -->
<g id="edge3" class="edge"><title>Node1&#45;&gt;Node4</title>
<path fill="none" stroke="midnightblue" d="M255.273,-336.324C239.149,-327.703 214.2,-314.364 195.536,-304.386"/>
<polygon fill="midnightblue" stroke="midnightblue" points="197.156,-301.283 186.687,-299.655 193.856,-307.456 197.156,-301.283"/>
</g>
<!-- Node5 -->
<g id="node5" class="node"><title>Node5</title>
<polygon fill="none" stroke="#bfbfbf" points="213.5,-280.5 213.5,-299.5 263.5,-299.5 263.5,-280.5 213.5,-280.5"/>
<text text-anchor="middle" x="238.5" y="-287.5" font-family="Helvetica,sans-Serif" font-size="10.00">TH2F.h</text>
</g>
<!-- Node1&#45;&gt;Node5 -->
<g id="edge4" class="edge"><title>Node1&#45;&gt;Node5</title>
<path fill="none" stroke="midnightblue" d="M266.051,-336.083C261.486,-328.613 254.832,-317.724 249.207,-308.52"/>
<polygon fill="midnightblue" stroke="midnightblue" points="252.049,-306.459 243.848,-299.751 246.076,-310.109 252.049,-306.459"/>
</g>
<!-- Node6 -->
<g id="node6" class="node"><title>Node6</title>
<polygon fill="none" stroke="#bfbfbf" points="282,-280.5 282,-299.5 329,-299.5 329,-280.5 282,-280.5"/>
<text text-anchor="middle" x="305.5" y="-287.5" font-family="Helvetica,sans-Serif" font-size="10.00">TH1I.h</text>
</g>
<!-- Node1&#45;&gt;Node6 -->
<g id="edge5" class="edge"><title>Node1&#45;&gt;Node6</title>
<path fill="none" stroke="midnightblue" d="M277.114,-336.083C281.867,-328.534 288.818,-317.495 294.652,-308.23"/>
<polygon fill="midnightblue" stroke="midnightblue" points="297.624,-310.078 299.99,-299.751 291.7,-306.349 297.624,-310.078"/>
</g>
<!-- Node7 -->
<g id="node7" class="node"><title>Node7</title>
<polygon fill="none" stroke="#bfbfbf" points="347,-280.5 347,-299.5 394,-299.5 394,-280.5 347,-280.5"/>
<text text-anchor="middle" x="370.5" y="-287.5" font-family="Helvetica,sans-Serif" font-size="10.00">TH2I.h</text>
</g>
<!-- Node1&#45;&gt;Node7 -->
<g id="edge6" class="edge"><title>Node1&#45;&gt;Node7</title>
<path fill="none" stroke="midnightblue" d="M287.406,-336.324C303.138,-327.743 327.442,-314.486 345.709,-304.522"/>
<polygon fill="midnightblue" stroke="midnightblue" points="347.53,-307.516 354.633,-299.655 344.178,-301.37 347.53,-307.516"/>
</g>
<!-- Node8 -->
<g id="node8" class="node"><title>Node8</title>
<g id="a_node8"><a xlink:href="QcInfoLogger_8h.html" target="_top" xlink:title="QualityControl/QcInfoLogger.h">
<polygon fill="none" stroke="black" points="412,-280.5 412,-299.5 561,-299.5 561,-280.5 412,-280.5"/>
<text text-anchor="middle" x="486.5" y="-287.5" font-family="Helvetica,sans-Serif" font-size="10.00">QualityControl/QcInfoLogger.h</text>
</a>
</g>
</g>
<!-- Node1&#45;&gt;Node8 -->
<g id="edge7" class="edge"><title>Node1&#45;&gt;Node8</title>
<path fill="none" stroke="midnightblue" d="M305.567,-336.444C342.68,-327.122 402.161,-312.183 442.715,-301.997"/>
<polygon fill="midnightblue" stroke="midnightblue" points="443.746,-305.347 452.592,-299.516 442.041,-298.558 443.746,-305.347"/>
</g>
<!-- Node10 -->
<g id="node10" class="node"><title>Node10</title>
<g id="a_node10"><a xlink:href="TOFTask_8h.html" target="_top" xlink:title="TOF/TOFTask.h">
<polygon fill="none" stroke="black" points="584,-280.5 584,-299.5 673,-299.5 673,-280.5 584,-280.5"/>
<text text-anchor="middle" x="628.5" y="-287.5" font-family="Helvetica,sans-Serif" font-size="10.00">TOF/TOFTask.h</text>
</a>
</g>
</g>
<!-- Node1&#45;&gt;Node10 -->
<g id="edge9" class="edge"><title>Node1&#45;&gt;Node10</title>
<path fill="none" stroke="midnightblue" d="M328.554,-336.492C388.729,-327.501 486.306,-312.868 570.5,-300 571.583,-299.835 572.677,-299.667 573.78,-299.498"/>
<polygon fill="midnightblue" stroke="midnightblue" points="574.503,-302.928 583.855,-297.949 573.439,-296.009 574.503,-302.928"/>
</g>
<!-- Node9 -->
<g id="node9" class="node"><title>Node9</title>
<polygon fill="none" stroke="#bfbfbf" points="415.5,-224.5 415.5,-243.5 545.5,-243.5 545.5,-224.5 415.5,-224.5"/>
<text text-anchor="middle" x="480.5" y="-231.5" font-family="Helvetica,sans-Serif" font-size="10.00">InfoLogger/InfoLogger.hxx</text>
</g>
<!-- Node8&#45;&gt;Node9 -->
<g id="edge8" class="edge"><title>Node8&#45;&gt;Node9</title>
<path fill="none" stroke="midnightblue" d="M485.509,-280.083C484.714,-272.927 483.571,-262.635 482.577,-253.691"/>
<polygon fill="midnightblue" stroke="midnightblue" points="486.055,-253.303 481.472,-243.751 479.098,-254.076 486.055,-253.303"/>
</g>
<!-- Node11 -->
<g id="node11" class="node"><title>Node11</title>
<g id="a_node11"><a xlink:href="TaskInterface_8h.html" target="_top" xlink:title="QualityControl/TaskInterface.h">
<polygon fill="none" stroke="black" points="563.5,-224.5 563.5,-243.5 713.5,-243.5 713.5,-224.5 563.5,-224.5"/>
<text text-anchor="middle" x="638.5" y="-231.5" font-family="Helvetica,sans-Serif" font-size="10.00">QualityControl/TaskInterface.h</text>
</a>
</g>
</g>
<!-- Node10&#45;&gt;Node11 -->
<g id="edge10" class="edge"><title>Node10&#45;&gt;Node11</title>
<path fill="none" stroke="midnightblue" d="M630.151,-280.083C631.476,-272.927 633.382,-262.635 635.039,-253.691"/>
<polygon fill="midnightblue" stroke="midnightblue" points="638.5,-254.221 636.879,-243.751 631.617,-252.947 638.5,-254.221"/>
</g>
<!-- Node12 -->
<g id="node12" class="node"><title>Node12</title>
<polygon fill="none" stroke="#bfbfbf" points="105,-56.5 105,-75.5 140,-75.5 140,-56.5 105,-56.5"/>
<text text-anchor="middle" x="122.5" y="-63.5" font-family="Helvetica,sans-Serif" font-size="10.00">map</text>
</g>
<!-- Node11&#45;&gt;Node12 -->
<g id="edge11" class="edge"><title>Node11&#45;&gt;Node12</title>
<path fill="none" stroke="midnightblue" d="M563.329,-225.049C506.676,-218.055 427.406,-206.124 359.5,-188 291.55,-169.864 273.345,-165.487 211.5,-132 185.137,-117.725 157.704,-96.5744 140.388,-82.3121"/>
<polygon fill="midnightblue" stroke="midnightblue" points="142.228,-79.2888 132.313,-75.5547 137.736,-84.6569 142.228,-79.2888"/>
</g>
<!-- Node13 -->
<g id="node13" class="node"><title>Node13</title>
<polygon fill="none" stroke="#bfbfbf" points="585.5,-112.5 585.5,-131.5 637.5,-131.5 637.5,-112.5 585.5,-112.5"/>
<text text-anchor="middle" x="611.5" y="-119.5" font-family="Helvetica,sans-Serif" font-size="10.00">memory</text>
</g>
<!-- Node11&#45;&gt;Node13 -->
<g id="edge12" class="edge"><title>Node11&#45;&gt;Node13</title>
<path fill="none" stroke="midnightblue" d="M636.381,-224.368C632.024,-206.617 621.973,-165.666 616.065,-141.597"/>
<polygon fill="midnightblue" stroke="midnightblue" points="619.392,-140.469 613.609,-131.591 612.594,-142.137 619.392,-140.469"/>
</g>
<!-- Node14 -->
<g id="node14" class="node"><title>Node14</title>
<polygon fill="none" stroke="#bfbfbf" points="359,-0.5 359,-19.5 400,-19.5 400,-0.5 359,-0.5"/>
<text text-anchor="middle" x="379.5" y="-7.5" font-family="Helvetica,sans-Serif" font-size="10.00">string</text>
</g>
<!-- Node11&#45;&gt;Node14 -->
<g id="edge13" class="edge"><title>Node11&#45;&gt;Node14</title>
<path fill="none" stroke="midnightblue" d="M563.422,-224.817C467.693,-214.168 311.405,-195.981 285.5,-188 233.072,-171.848 223.07,-159.326 175.5,-132 135.626,-109.095 110.523,-116.367 88.5,-76 84.2428,-68.1969 82.7148,-62.7486 88.5,-56 121.819,-17.1325 281.122,-11.5378 348.884,-10.9436"/>
<polygon fill="midnightblue" stroke="midnightblue" points="348.96,-14.4434 358.94,-10.8869 348.92,-7.44348 348.96,-14.4434"/>
</g>
<!-- Node15 -->
<g id="node15" class="node"><title>Node15</title>
<polygon fill="none" stroke="#bfbfbf" points="624,-56.5 624,-75.5 707,-75.5 707,-56.5 624,-56.5"/>
<text text-anchor="middle" x="665.5" y="-63.5" font-family="Helvetica,sans-Serif" font-size="10.00">unordered_map</text>
</g>
<!-- Node11&#45;&gt;Node15 -->
<g id="edge14" class="edge"><title>Node11&#45;&gt;Node15</title>
<path fill="none" stroke="midnightblue" d="M639.952,-224.075C644.202,-197.945 656.683,-121.211 662.478,-85.577"/>
<polygon fill="midnightblue" stroke="midnightblue" points="665.956,-86.0003 664.106,-75.5681 659.046,-84.8765 665.956,-86.0003"/>
</g>
<!-- Node16 -->
<g id="node16" class="node"><title>Node16</title>
<polygon fill="none" stroke="#bfbfbf" points="690,-168.5 690,-187.5 815,-187.5 815,-168.5 690,-168.5"/>
<text text-anchor="middle" x="752.5" y="-175.5" font-family="Helvetica,sans-Serif" font-size="10.00">Framework/InitContext.h</text>
</g>
<!-- Node11&#45;&gt;Node16 -->
<g id="edge15" class="edge"><title>Node11&#45;&gt;Node16</title>
<path fill="none" stroke="midnightblue" d="M656.564,-224.444C675.075,-215.675 704.081,-201.935 725.355,-191.858"/>
<polygon fill="midnightblue" stroke="midnightblue" points="726.982,-194.96 734.521,-187.516 723.985,-188.634 726.982,-194.96"/>
</g>
<!-- Node17 -->
<g id="node17" class="node"><title>Node17</title>
<polygon fill="none" stroke="#bfbfbf" points="833.5,-168.5 833.5,-187.5 993.5,-187.5 993.5,-168.5 833.5,-168.5"/>
<text text-anchor="middle" x="913.5" y="-175.5" font-family="Helvetica,sans-Serif" font-size="10.00">Framework/ProcessingContext.h</text>
</g>
<!-- Node11&#45;&gt;Node17 -->
<g id="edge16" class="edge"><title>Node11&#45;&gt;Node17</title>
<path fill="none" stroke="midnightblue" d="M682.075,-224.444C730.349,-214.964 808.212,-199.675 860.112,-189.483"/>
<polygon fill="midnightblue" stroke="midnightblue" points="860.991,-192.878 870.129,-187.516 859.642,-186.009 860.991,-192.878"/>
</g>
<!-- Node18 -->
<g id="node18" class="node"><title>Node18</title>
<g id="a_node18"><a xlink:href="Activity_8h.html" target="_top" xlink:title="QualityControl/Activity.h">
<polygon fill="none" stroke="black" points="1012,-168.5 1012,-187.5 1135,-187.5 1135,-168.5 1012,-168.5"/>
<text text-anchor="middle" x="1073.5" y="-175.5" font-family="Helvetica,sans-Serif" font-size="10.00">QualityControl/Activity.h</text>
</a>
</g>
</g>
<!-- Node11&#45;&gt;Node18 -->
<g id="edge17" class="edge"><title>Node11&#45;&gt;Node18</title>
<path fill="none" stroke="midnightblue" d="M707.95,-224.479C778.985,-215.748 892.836,-201.715 1001.74,-188.091"/>
<polygon fill="midnightblue" stroke="midnightblue" points="1002.44,-191.532 1011.93,-186.817 1001.57,-184.586 1002.44,-191.532"/>
</g>
<!-- Node19 -->
<g id="node19" class="node"><title>Node19</title>
<g id="a_node19"><a xlink:href="ObjectsManager_8h.html" target="_top" xlink:title="QualityControl/ObjectsManager.h">
<polygon fill="none" stroke="black" points="368,-168.5 368,-187.5 529,-187.5 529,-168.5 368,-168.5"/>
<text text-anchor="middle" x="448.5" y="-175.5" font-family="Helvetica,sans-Serif" font-size="10.00">QualityControl/ObjectsManager.h</text>
</a>
</g>
</g>
<!-- Node11&#45;&gt;Node19 -->
<g id="edge18" class="edge"><title>Node11&#45;&gt;Node19</title>
<path fill="none" stroke="midnightblue" d="M608.394,-224.444C575.874,-215.201 523.921,-200.436 488.109,-190.257"/>
<polygon fill="midnightblue" stroke="midnightblue" points="489.041,-186.884 478.465,-187.516 487.127,-193.617 489.041,-186.884"/>
</g>
<!-- Node19&#45;&gt;Node13 -->
<g id="edge33" class="edge"><title>Node19&#45;&gt;Node13</title>
<path fill="none" stroke="midnightblue" d="M474.328,-168.444C501.749,-159.359 545.277,-144.939 575.932,-134.783"/>
<polygon fill="midnightblue" stroke="midnightblue" points="577.401,-137.984 585.793,-131.516 575.2,-131.339 577.401,-137.984"/>
</g>
<!-- Node19&#45;&gt;Node14 -->
<g id="edge32" class="edge"><title>Node19&#45;&gt;Node14</title>
<path fill="none" stroke="midnightblue" d="M382.091,-168.485C288.577,-154.867 126.041,-124.658 95.5,-76 90.7744,-68.4713 89.7273,-62.7594 95.5,-56 127.746,-18.2429 281.361,-11.9928 348.254,-11.0827"/>
<polygon fill="midnightblue" stroke="midnightblue" points="348.62,-14.5792 358.584,-10.9758 348.548,-7.57955 348.62,-14.5792"/>
</g>
<!-- Node20 -->
<g id="node20" class="node"><title>Node20</title>
<g id="a_node20"><a xlink:href="MonitorObject_8h.html" target="_top" xlink:title="QualityControl/MonitorObject.h">
<polygon fill="none" stroke="black" points="220,-112.5 220,-131.5 371,-131.5 371,-112.5 220,-112.5"/>
<text text-anchor="middle" x="295.5" y="-119.5" font-family="Helvetica,sans-Serif" font-size="10.00">QualityControl/MonitorObject.h</text>
</a>
</g>
</g>
<!-- Node19&#45;&gt;Node20 -->
<g id="edge19" class="edge"><title>Node19&#45;&gt;Node20</title>
<path fill="none" stroke="midnightblue" d="M424.257,-168.444C398.629,-159.399 358.015,-145.064 329.262,-134.916"/>
<polygon fill="midnightblue" stroke="midnightblue" points="330.225,-131.544 319.63,-131.516 327.895,-138.145 330.225,-131.544"/>
</g>
<!-- Node24 -->
<g id="node24" class="node"><title>Node24</title>
<g id="a_node24"><a xlink:href="Quality_8h.html" target="_top" xlink:title="QualityControl/Quality.h">
<polygon fill="none" stroke="black" points="408,-56.5 408,-75.5 529,-75.5 529,-56.5 408,-56.5"/>
<text text-anchor="middle" x="468.5" y="-63.5" font-family="Helvetica,sans-Serif" font-size="10.00">QualityControl/Quality.h</text>
</a>
</g>
</g>
<!-- Node19&#45;&gt;Node24 -->
<g id="edge28" class="edge"><title>Node19&#45;&gt;Node24</title>
<path fill="none" stroke="midnightblue" d="M439.335,-168.203C427.519,-155.74 409.5,-132.209 418.5,-112 424.068,-99.4981 435.016,-89.0124 445.251,-81.3167"/>
<polygon fill="midnightblue" stroke="midnightblue" points="447.351,-84.1193 453.548,-75.5256 443.344,-78.3794 447.351,-84.1193"/>
</g>
<!-- Node25 -->
<g id="node25" class="node"><title>Node25</title>
<g id="a_node25"><a xlink:href="TaskConfig_8h.html" target="_top" xlink:title="QualityControl/TaskConfig.h">
<polygon fill="none" stroke="black" points="427.5,-112.5 427.5,-131.5 567.5,-131.5 567.5,-112.5 427.5,-112.5"/>
<text text-anchor="middle" x="497.5" y="-119.5" font-family="Helvetica,sans-Serif" font-size="10.00">QualityControl/TaskConfig.h</text>
</a>
</g>
</g>
<!-- Node19&#45;&gt;Node25 -->
<g id="edge29" class="edge"><title>Node19&#45;&gt;Node25</title>
<path fill="none" stroke="midnightblue" d="M456.591,-168.083C463.655,-160.298 474.088,-148.801 482.649,-139.367"/>
<polygon fill="midnightblue" stroke="midnightblue" points="485.431,-141.509 489.559,-131.751 480.247,-136.805 485.431,-141.509"/>
</g>
<!-- Node20&#45;&gt;Node12 -->
<g id="edge21" class="edge"><title>Node20&#45;&gt;Node12</title>
<path fill="none" stroke="midnightblue" d="M266.395,-112.429C238.642,-104.181 195.45,-91.1552 149.854,-76.3676"/>
<polygon fill="midnightblue" stroke="midnightblue" points="150.685,-72.9572 140.093,-73.1864 148.516,-79.6127 150.685,-72.9572"/>
</g>
<!-- Node20&#45;&gt;Node14 -->
<g id="edge20" class="edge"><title>Node20&#45;&gt;Node14</title>
<path fill="none" stroke="midnightblue" d="M314.398,-112.373C329.018,-104.773 348.698,-92.3641 360.5,-76 370.279,-62.4414 375.056,-43.8923 377.371,-30.0791"/>
<polygon fill="midnightblue" stroke="midnightblue" points="380.889,-30.1886 378.793,-19.8033 373.955,-29.2294 380.889,-30.1886"/>
</g>
<!-- Node21 -->
<g id="node21" class="node"><title>Node21</title>
<polygon fill="none" stroke="#bfbfbf" points="503.5,-0.5 503.5,-19.5 559.5,-19.5 559.5,-0.5 503.5,-0.5"/>
<text text-anchor="middle" x="531.5" y="-7.5" font-family="Helvetica,sans-Serif" font-size="10.00">Rtypes.h</text>
</g>
<!-- Node20&#45;&gt;Node21 -->
<g id="edge22" class="edge"><title>Node20&#45;&gt;Node21</title>
<path fill="none" stroke="midnightblue" d="M366.492,-112.493C434.191,-103.652 527.456,-89.2764 538.5,-76 549.247,-63.0804 545.221,-43.3622 539.915,-29.0313"/>
<polygon fill="midnightblue" stroke="midnightblue" points="543.109,-27.5957 536.019,-19.7226 536.652,-30.2986 543.109,-27.5957"/>
</g>
<!-- Node22 -->
<g id="node22" class="node"><title>Node22</title>
<polygon fill="none" stroke="#bfbfbf" points="158,-56.5 158,-75.5 217,-75.5 217,-56.5 158,-56.5"/>
<text text-anchor="middle" x="187.5" y="-63.5" font-family="Helvetica,sans-Serif" font-size="10.00">TObject.h</text>
</g>
<!-- Node20&#45;&gt;Node22 -->
<g id="edge23" class="edge"><title>Node20&#45;&gt;Node22</title>
<path fill="none" stroke="midnightblue" d="M278.148,-112.324C260.828,-103.664 233.985,-90.2424 213.998,-80.249"/>
<polygon fill="midnightblue" stroke="midnightblue" points="215.319,-76.9962 204.809,-75.6545 212.188,-83.2572 215.319,-76.9962"/>
</g>
<!-- Node23 -->
<g id="node23" class="node"><title>Node23</title>
<polygon fill="none" stroke="#bfbfbf" points="235.5,-56.5 235.5,-75.5 351.5,-75.5 351.5,-56.5 235.5,-56.5"/>
<text text-anchor="middle" x="293.5" y="-63.5" font-family="Helvetica,sans-Serif" font-size="10.00">Common/Exceptions.h</text>
</g>
<!-- Node20&#45;&gt;Node23 -->
<g id="edge24" class="edge"><title>Node20&#45;&gt;Node23</title>
<path fill="none" stroke="midnightblue" d="M295.17,-112.083C294.908,-105.006 294.532,-94.8611 294.203,-85.9865"/>
<polygon fill="midnightblue" stroke="midnightblue" points="297.692,-85.6147 293.824,-75.7511 290.697,-85.8738 297.692,-85.6147"/>
</g>
<!-- Node20&#45;&gt;Node24 -->
<g id="edge25" class="edge"><title>Node20&#45;&gt;Node24</title>
<path fill="none" stroke="midnightblue" d="M322.912,-112.444C352.269,-103.28 399.019,-88.6876 431.596,-78.5192"/>
<polygon fill="midnightblue" stroke="midnightblue" points="432.713,-81.8371 441.216,-75.5164 430.627,-75.1551 432.713,-81.8371"/>
</g>
<!-- Node24&#45;&gt;Node14 -->
<g id="edge27" class="edge"><title>Node24&#45;&gt;Node14</title>
<path fill="none" stroke="midnightblue" d="M454.201,-56.324C440.317,-47.9002 419.008,-34.9709 402.696,-25.0741"/>
<polygon fill="midnightblue" stroke="midnightblue" points="404.129,-21.8495 393.764,-19.6545 400.498,-27.8341 404.129,-21.8495"/>
</g>
<!-- Node24&#45;&gt;Node21 -->
<g id="edge26" class="edge"><title>Node24&#45;&gt;Node21</title>
<path fill="none" stroke="midnightblue" d="M478.622,-56.324C488.026,-48.2631 502.244,-36.0765 513.569,-26.3695"/>
<polygon fill="midnightblue" stroke="midnightblue" points="515.879,-28.9993 521.194,-19.8339 511.323,-23.6844 515.879,-28.9993"/>
</g>
<!-- Node25&#45;&gt;Node14 -->
<g id="edge30" class="edge"><title>Node25&#45;&gt;Node14</title>
<path fill="none" stroke="midnightblue" d="M509.746,-112.492C526.539,-99.779 553.067,-75.2613 538.5,-56 523.026,-35.5387 451.572,-21.7038 409.906,-15.2231"/>
<polygon fill="midnightblue" stroke="midnightblue" points="410.417,-11.7606 400.007,-13.7343 409.376,-18.6827 410.417,-11.7606"/>
</g>
<!-- Node25&#45;&gt;Node15 -->
<g id="edge31" class="edge"><title>Node25&#45;&gt;Node15</title>
<path fill="none" stroke="midnightblue" d="M524.12,-112.444C552.506,-103.32 597.637,-88.8133 629.253,-78.6509"/>
<polygon fill="midnightblue" stroke="midnightblue" points="630.555,-81.9087 639.004,-75.5164 628.413,-75.2445 630.555,-81.9087"/>
</g>
</g>
</svg>
