<?xml version="1.0" encoding="UTF-8" standalone="no"?>
<!DOCTYPE svg PUBLIC "-//W3C//DTD SVG 1.1//EN"
 "http://www.w3.org/Graphics/SVG/1.1/DTD/svg11.dtd">
<!-- Generated by graphviz version 2.38.0 (20140413.2041)
 -->
<!-- Title: Framework/src/TrendingTask.cxx Pages: 1 -->
<svg width="1746pt" height="285pt"
 viewBox="0.00 0.00 1745.50 285.00" xmlns="http://www.w3.org/2000/svg" xmlns:xlink="http://www.w3.org/1999/xlink">
<g id="graph0" class="graph" transform="scale(1 1) rotate(0) translate(4 281)">
<title>Framework/src/TrendingTask.cxx</title>
<!-- Node1 -->
<g id="node1" class="node"><title>Node1</title>
<polygon fill="#bfbfbf" stroke="black" points="1200.5,-257.5 1200.5,-276.5 1363.5,-276.5 1363.5,-257.5 1200.5,-257.5"/>
<text text-anchor="middle" x="1282" y="-264.5" font-family="Helvetica,sans-Serif" font-size="10.00">Framework/src/TrendingTask.cxx</text>
</g>
<!-- Node2 -->
<g id="node2" class="node"><title>Node2</title>
<g id="a_node2"><a xlink:href="TrendingTask_8h.html" target="_top" xlink:title="QualityControl/TrendingTask.h">
<polygon fill="none" stroke="black" points="280.5,-196 280.5,-215 429.5,-215 429.5,-196 280.5,-196"/>
<text text-anchor="middle" x="355" y="-203" font-family="Helvetica,sans-Serif" font-size="10.00">QualityControl/TrendingTask.h</text>
</a>
</g>
</g>
<!-- Node1&#45;&gt;Node2 -->
<g id="edge1" class="edge"><title>Node1&#45;&gt;Node2</title>
<path fill="none" stroke="midnightblue" d="M1200.24,-261.875C1061.09,-254.692 769.357,-238.931 523,-221 495.945,-219.031 466.465,-216.587 439.86,-214.271"/>
<polygon fill="midnightblue" stroke="midnightblue" points="440.082,-210.777 429.815,-213.391 439.471,-217.751 440.082,-210.777"/>
</g>
<!-- Node11 -->
<g id="node11" class="node"><title>Node11</title>
<g id="a_node11"><a xlink:href="Reductor_8h.html" target="_top" xlink:title="QualityControl/Reductor.h">
<polygon fill="none" stroke="black" points="645,-129 645,-148 775,-148 775,-129 645,-129"/>
<text text-anchor="middle" x="710" y="-136" font-family="Helvetica,sans-Serif" font-size="10.00">QualityControl/Reductor.h</text>
</a>
</g>
</g>
<!-- Node1&#45;&gt;Node11 -->
<g id="edge42" class="edge"><title>Node1&#45;&gt;Node11</title>
<path fill="none" stroke="midnightblue" d="M1243.13,-257.405C1141.82,-234.999 869.796,-174.839 758.488,-150.223"/>
<polygon fill="midnightblue" stroke="midnightblue" points="759.063,-146.766 748.543,-148.024 757.551,-153.601 759.063,-146.766"/>
</g>
<!-- Node16 -->
<g id="node16" class="node"><title>Node16</title>
<g id="a_node16"><a xlink:href="QcInfoLogger_8h.html" target="_top" xlink:title="QualityControl/QcInfoLogger.h">
<polygon fill="none" stroke="black" points="1588.5,-129 1588.5,-148 1737.5,-148 1737.5,-129 1588.5,-129"/>
<text text-anchor="middle" x="1663" y="-136" font-family="Helvetica,sans-Serif" font-size="10.00">QualityControl/QcInfoLogger.h</text>
</a>
</g>
</g>
<!-- Node1&#45;&gt;Node16 -->
<g id="edge19" class="edge"><title>Node1&#45;&gt;Node16</title>
<path fill="none" stroke="midnightblue" d="M1286.14,-257.165C1294.3,-240.857 1314.09,-206.214 1342,-190 1434.5,-136.258 1474.41,-171.206 1580,-154 1588.2,-152.664 1596.84,-151.207 1605.33,-149.749"/>
<polygon fill="midnightblue" stroke="midnightblue" points="1605.93,-153.197 1615.19,-148.044 1604.74,-146.3 1605.93,-153.197"/>
</g>
<!-- Node18 -->
<g id="node18" class="node"><title>Node18</title>
<g id="a_node18"><a xlink:href="DatabaseInterface_8h.html" target="_top" xlink:title="QualityControl/DatabaseInterface.h">
<polygon fill="none" stroke="black" points="532,-196 532,-215 702,-215 702,-196 532,-196"/>
<text text-anchor="middle" x="617" y="-203" font-family="Helvetica,sans-Serif" font-size="10.00">QualityControl/DatabaseInterface.h</text>
</a>
</g>
</g>
<!-- Node1&#45;&gt;Node18 -->
<g id="edge21" class="edge"><title>Node1&#45;&gt;Node18</title>
<path fill="none" stroke="midnightblue" d="M1200.46,-258.704C1077,-247.658 843.172,-226.736 712.128,-215.011"/>
<polygon fill="midnightblue" stroke="midnightblue" points="712.371,-211.519 702.099,-214.114 711.747,-218.491 712.371,-211.519"/>
</g>
<!-- Node25 -->
<g id="node25" class="node"><title>Node25</title>
<g id="a_node25"><a xlink:href="MonitorObject_8h.html" target="_top" xlink:title="QualityControl/MonitorObject.h">
<polygon fill="none" stroke="black" points="960.5,-129 960.5,-148 1111.5,-148 1111.5,-129 960.5,-129"/>
<text text-anchor="middle" x="1036" y="-136" font-family="Helvetica,sans-Serif" font-size="10.00">QualityControl/MonitorObject.h</text>
</a>
</g>
</g>
<!-- Node1&#45;&gt;Node25 -->
<g id="edge41" class="edge"><title>Node1&#45;&gt;Node25</title>
<path fill="none" stroke="midnightblue" d="M1261.23,-257.416C1240.63,-248.744 1208.27,-234.703 1181,-221 1136.95,-198.869 1087.18,-170.014 1058.9,-153.243"/>
<polygon fill="midnightblue" stroke="midnightblue" points="1060.55,-150.156 1050.17,-148.046 1056.97,-156.17 1060.55,-150.156"/>
</g>
<!-- Node26 -->
<g id="node26" class="node"><title>Node26</title>
<g id="a_node26"><a xlink:href="RootClassFactory_8h.html" target="_top" xlink:title="RootClassFactory.h">
<polygon fill="none" stroke="black" points="1190,-196 1190,-215 1294,-215 1294,-196 1190,-196"/>
<text text-anchor="middle" x="1242" y="-203" font-family="Helvetica,sans-Serif" font-size="10.00">RootClassFactory.h</text>
</a>
</g>
</g>
<!-- Node1&#45;&gt;Node26 -->
<g id="edge43" class="edge"><title>Node1&#45;&gt;Node26</title>
<path fill="none" stroke="midnightblue" d="M1276.27,-257.475C1270.33,-248.638 1260.88,-234.589 1253.41,-223.475"/>
<polygon fill="midnightblue" stroke="midnightblue" points="1256.2,-221.355 1247.72,-215.009 1250.39,-225.261 1256.2,-221.355"/>
</g>
<!-- Node31 -->
<g id="node31" class="node"><title>Node31</title>
<polygon fill="none" stroke="#bfbfbf" points="1350.5,-190.5 1350.5,-220.5 1485.5,-220.5 1485.5,-190.5 1350.5,-190.5"/>
<text text-anchor="start" x="1358.5" y="-208.5" font-family="Helvetica,sans-Serif" font-size="10.00">Configuration/Configuration</text>
<text text-anchor="middle" x="1418" y="-197.5" font-family="Helvetica,sans-Serif" font-size="10.00">Interface.h</text>
</g>
<!-- Node1&#45;&gt;Node31 -->
<g id="edge51" class="edge"><title>Node1&#45;&gt;Node31</title>
<path fill="none" stroke="midnightblue" d="M1301.49,-257.475C1321.02,-248.927 1351.71,-235.501 1376.69,-224.573"/>
<polygon fill="midnightblue" stroke="midnightblue" points="1378.19,-227.738 1385.95,-220.523 1375.38,-221.325 1378.19,-227.738"/>
</g>
<!-- Node32 -->
<g id="node32" class="node"><title>Node32</title>
<polygon fill="none" stroke="#bfbfbf" points="1504,-196 1504,-215 1548,-215 1548,-196 1504,-196"/>
<text text-anchor="middle" x="1526" y="-203" font-family="Helvetica,sans-Serif" font-size="10.00">TH1.h</text>
</g>
<!-- Node1&#45;&gt;Node32 -->
<g id="edge52" class="edge"><title>Node1&#45;&gt;Node32</title>
<path fill="none" stroke="midnightblue" d="M1339.91,-257.46C1383.29,-250.18 1443.75,-238.148 1495,-221 1496.67,-220.443 1498.36,-219.821 1500.05,-219.157"/>
<polygon fill="midnightblue" stroke="midnightblue" points="1501.77,-222.229 1509.56,-215.046 1498.99,-215.804 1501.77,-222.229"/>
</g>
<!-- Node33 -->
<g id="node33" class="node"><title>Node33</title>
<polygon fill="none" stroke="#bfbfbf" points="1566.5,-196 1566.5,-215 1631.5,-215 1631.5,-196 1566.5,-196"/>
<text text-anchor="middle" x="1599" y="-203" font-family="Helvetica,sans-Serif" font-size="10.00">TCanvas.h</text>
</g>
<!-- Node1&#45;&gt;Node33 -->
<g id="edge53" class="edge"><title>Node1&#45;&gt;Node33</title>
<path fill="none" stroke="midnightblue" d="M1355.07,-257.489C1410.89,-250.16 1489.46,-238.054 1557,-221 1560.22,-220.188 1563.54,-219.24 1566.84,-218.224"/>
<polygon fill="midnightblue" stroke="midnightblue" points="1568.13,-221.482 1576.54,-215.042 1565.95,-214.83 1568.13,-221.482"/>
</g>
<!-- Node34 -->
<g id="node34" class="node"><title>Node34</title>
<polygon fill="none" stroke="#bfbfbf" points="1649.5,-196 1649.5,-215 1722.5,-215 1722.5,-196 1649.5,-196"/>
<text text-anchor="middle" x="1686" y="-203" font-family="Helvetica,sans-Serif" font-size="10.00">TPaveText.h</text>
</g>
<!-- Node1&#45;&gt;Node34 -->
<g id="edge54" class="edge"><title>Node1&#45;&gt;Node34</title>
<path fill="none" stroke="midnightblue" d="M1363.66,-260.143C1436.91,-253.854 1547.02,-241.839 1641,-221 1644.86,-220.145 1648.85,-219.099 1652.8,-217.964"/>
<polygon fill="midnightblue" stroke="midnightblue" points="1653.87,-221.296 1662.41,-215.018 1651.82,-214.604 1653.87,-221.296"/>
</g>
<!-- Node3 -->
<g id="node3" class="node"><title>Node3</title>
<g id="a_node3"><a xlink:href="PostProcessingInterface_8h.html" target="_top" xlink:title="QualityControl/PostProcessing\lInterface.h">
<polygon fill="none" stroke="black" points="437.5,-123.5 437.5,-153.5 588.5,-153.5 588.5,-123.5 437.5,-123.5"/>
<text text-anchor="start" x="445.5" y="-141.5" font-family="Helvetica,sans-Serif" font-size="10.00">QualityControl/PostProcessing</text>
<text text-anchor="middle" x="513" y="-130.5" font-family="Helvetica,sans-Serif" font-size="10.00">Interface.h</text>
</a>
</g>
</g>
<!-- Node2&#45;&gt;Node3 -->
<g id="edge2" class="edge"><title>Node2&#45;&gt;Node3</title>
<path fill="none" stroke="midnightblue" d="M375.981,-195.869C399.69,-186.115 438.936,-169.97 469.363,-157.452"/>
<polygon fill="midnightblue" stroke="midnightblue" points="470.985,-160.569 478.901,-153.528 468.321,-154.096 470.985,-160.569"/>
</g>
<!-- Node8 -->
<g id="node8" class="node"><title>Node8</title>
<g id="a_node8"><a xlink:href="TrendingTaskConfig_8h.html" target="_top" xlink:title="QualityControl/TrendingTask\lConfig.h">
<polygon fill="none" stroke="black" points="68.5,-123.5 68.5,-153.5 209.5,-153.5 209.5,-123.5 68.5,-123.5"/>
<text text-anchor="start" x="76.5" y="-141.5" font-family="Helvetica,sans-Serif" font-size="10.00">QualityControl/TrendingTask</text>
<text text-anchor="middle" x="139" y="-130.5" font-family="Helvetica,sans-Serif" font-size="10.00">Config.h</text>
</a>
</g>
</g>
<!-- Node2&#45;&gt;Node8 -->
<g id="edge8" class="edge"><title>Node2&#45;&gt;Node8</title>
<path fill="none" stroke="midnightblue" d="M326.317,-195.869C293.063,-185.862 237.451,-169.127 195.44,-156.484"/>
<polygon fill="midnightblue" stroke="midnightblue" points="196.201,-153.058 185.616,-153.528 194.184,-159.761 196.201,-153.058"/>
</g>
<!-- Node2&#45;&gt;Node11 -->
<g id="edge14" class="edge"><title>Node2&#45;&gt;Node11</title>
<path fill="none" stroke="midnightblue" d="M401.775,-195.936C466.647,-184.058 583.793,-162.608 653.478,-149.849"/>
<polygon fill="midnightblue" stroke="midnightblue" points="654.198,-153.276 663.404,-148.032 652.937,-146.39 654.198,-153.276"/>
</g>
<!-- Node13 -->
<g id="node13" class="node"><title>Node13</title>
<polygon fill="none" stroke="#bfbfbf" points="329,-129 329,-148 381,-148 381,-129 329,-129"/>
<text text-anchor="middle" x="355" y="-136" font-family="Helvetica,sans-Serif" font-size="10.00">memory</text>
</g>
<!-- Node2&#45;&gt;Node13 -->
<g id="edge16" class="edge"><title>Node2&#45;&gt;Node13</title>
<path fill="none" stroke="midnightblue" d="M355,-195.734C355,-186.183 355,-170.618 355,-158.283"/>
<polygon fill="midnightblue" stroke="midnightblue" points="358.5,-158.127 355,-148.127 351.5,-158.127 358.5,-158.127"/>
</g>
<!-- Node14 -->
<g id="node14" class="node"><title>Node14</title>
<polygon fill="none" stroke="#bfbfbf" points="227.5,-129 227.5,-148 310.5,-148 310.5,-129 227.5,-129"/>
<text text-anchor="middle" x="269" y="-136" font-family="Helvetica,sans-Serif" font-size="10.00">unordered_map</text>
</g>
<!-- Node2&#45;&gt;Node14 -->
<g id="edge17" class="edge"><title>Node2&#45;&gt;Node14</title>
<path fill="none" stroke="midnightblue" d="M343.402,-195.734C329.346,-185.111 305.449,-167.049 288.534,-154.264"/>
<polygon fill="midnightblue" stroke="midnightblue" points="290.503,-151.365 280.415,-148.127 286.282,-156.949 290.503,-151.365"/>
</g>
<!-- Node15 -->
<g id="node15" class="node"><title>Node15</title>
<polygon fill="none" stroke="#bfbfbf" points="0,-129 0,-148 50,-148 50,-129 0,-129"/>
<text text-anchor="middle" x="25" y="-136" font-family="Helvetica,sans-Serif" font-size="10.00">TTree.h</text>
</g>
<!-- Node2&#45;&gt;Node15 -->
<g id="edge18" class="edge"><title>Node2&#45;&gt;Node15</title>
<path fill="none" stroke="midnightblue" d="M280.312,-196.667C219.795,-189.156 132.769,-175.697 59,-154 56.8491,-153.367 54.652,-152.637 52.4615,-151.848"/>
<polygon fill="midnightblue" stroke="midnightblue" points="53.649,-148.554 43.0626,-148.13 51.0739,-155.063 53.649,-148.554"/>
</g>
<!-- Node4 -->
<g id="node4" class="node"><title>Node4</title>
<polygon fill="none" stroke="#bfbfbf" points="650.5,-0.5 650.5,-19.5 691.5,-19.5 691.5,-0.5 650.5,-0.5"/>
<text text-anchor="middle" x="671" y="-7.5" font-family="Helvetica,sans-Serif" font-size="10.00">string</text>
</g>
<!-- Node3&#45;&gt;Node4 -->
<g id="edge3" class="edge"><title>Node3&#45;&gt;Node4</title>
<path fill="none" stroke="midnightblue" d="M568.171,-123.438C590.371,-115.605 614.937,-103.92 633,-87 649.78,-71.2816 660.213,-46.5319 665.808,-29.5742"/>
<polygon fill="midnightblue" stroke="midnightblue" points="669.241,-30.3148 668.804,-19.729 662.544,-28.2769 669.241,-30.3148"/>
</g>
<!-- Node5 -->
<g id="node5" class="node"><title>Node5</title>
<polygon fill="none" stroke="#bfbfbf" points="478,-62 478,-81 624,-81 624,-62 478,-62"/>
<text text-anchor="middle" x="551" y="-69" font-family="Helvetica,sans-Serif" font-size="10.00">Framework/ServiceRegistry.h</text>
</g>
<!-- Node3&#45;&gt;Node5 -->
<g id="edge4" class="edge"><title>Node3&#45;&gt;Node5</title>
<path fill="none" stroke="midnightblue" d="M521.245,-123.396C526.994,-113.562 534.702,-100.378 540.832,-89.892"/>
<polygon fill="midnightblue" stroke="midnightblue" points="543.892,-91.594 545.917,-81.1945 537.848,-88.0611 543.892,-91.594"/>
</g>
<!-- Node6 -->
<g id="node6" class="node"><title>Node6</title>
<g id="a_node6"><a xlink:href="Triggers_8h.html" target="_top" xlink:title="QualityControl/Triggers.h">
<polygon fill="none" stroke="black" points="334.5,-62 334.5,-81 459.5,-81 459.5,-62 334.5,-62"/>
<text text-anchor="middle" x="397" y="-69" font-family="Helvetica,sans-Serif" font-size="10.00">QualityControl/Triggers.h</text>
</a>
</g>
</g>
<!-- Node3&#45;&gt;Node6 -->
<g id="edge5" class="edge"><title>Node3&#45;&gt;Node6</title>
<path fill="none" stroke="midnightblue" d="M487.83,-123.396C468.017,-112.294 440.582,-96.9211 421.061,-85.9825"/>
<polygon fill="midnightblue" stroke="midnightblue" points="422.616,-82.842 412.182,-81.007 419.195,-88.9487 422.616,-82.842"/>
</g>
<!-- Node6&#45;&gt;Node4 -->
<g id="edge6" class="edge"><title>Node6&#45;&gt;Node4</title>
<path fill="none" stroke="midnightblue" d="M436.258,-61.9751C491.379,-50.0053 590.548,-28.4703 640.495,-17.6243"/>
<polygon fill="midnightblue" stroke="midnightblue" points="641.343,-21.0218 650.372,-15.4794 639.857,-14.1813 641.343,-21.0218"/>
</g>
<!-- Node7 -->
<g id="node7" class="node"><title>Node7</title>
<polygon fill="none" stroke="#bfbfbf" points="367.5,-0.5 367.5,-19.5 426.5,-19.5 426.5,-0.5 367.5,-0.5"/>
<text text-anchor="middle" x="397" y="-7.5" font-family="Helvetica,sans-Serif" font-size="10.00">functional</text>
</g>
<!-- Node6&#45;&gt;Node7 -->
<g id="edge7" class="edge"><title>Node6&#45;&gt;Node7</title>
<path fill="none" stroke="midnightblue" d="M397,-61.9751C397,-53.5803 397,-40.4806 397,-29.6631"/>
<polygon fill="midnightblue" stroke="midnightblue" points="400.5,-29.5091 397,-19.5091 393.5,-29.5091 400.5,-29.5091"/>
</g>
<!-- Node8&#45;&gt;Node4 -->
<g id="edge10" class="edge"><title>Node8&#45;&gt;Node4</title>
<path fill="none" stroke="midnightblue" d="M169.965,-123.358C218.663,-101.204 309.248,-60.3792 325,-56 438.416,-24.4703 579.023,-14.8785 640.184,-12.0869"/>
<polygon fill="midnightblue" stroke="midnightblue" points="640.476,-15.5777 650.318,-11.6544 640.178,-8.58407 640.476,-15.5777"/>
</g>
<!-- Node9 -->
<g id="node9" class="node"><title>Node9</title>
<polygon fill="none" stroke="#bfbfbf" points="142,-0.5 142,-19.5 186,-19.5 186,-0.5 142,-0.5"/>
<text text-anchor="middle" x="164" y="-7.5" font-family="Helvetica,sans-Serif" font-size="10.00">vector</text>
</g>
<!-- Node8&#45;&gt;Node9 -->
<g id="edge9" class="edge"><title>Node8&#45;&gt;Node9</title>
<path fill="none" stroke="midnightblue" d="M113.587,-123.484C100.654,-114.832 86.1809,-102.43 79,-87 73.1867,-74.5087 71.8933,-67.8035 79,-56 90.5147,-36.8752 113.185,-25.4528 132.219,-18.9038"/>
<polygon fill="midnightblue" stroke="midnightblue" points="133.27,-22.2424 141.763,-15.9083 131.174,-15.5637 133.27,-22.2424"/>
</g>
<!-- Node10 -->
<g id="node10" class="node"><title>Node10</title>
<g id="a_node10"><a xlink:href="PostProcessingConfig_8h.html" target="_top" xlink:title="QualityControl/PostProcessing\lConfig.h">
<polygon fill="none" stroke="black" points="88.5,-56.5 88.5,-86.5 239.5,-86.5 239.5,-56.5 88.5,-56.5"/>
<text text-anchor="start" x="96.5" y="-74.5" font-family="Helvetica,sans-Serif" font-size="10.00">QualityControl/PostProcessing</text>
<text text-anchor="middle" x="164" y="-63.5" font-family="Helvetica,sans-Serif" font-size="10.00">Config.h</text>
</a>
</g>
</g>
<!-- Node8&#45;&gt;Node10 -->
<g id="edge11" class="edge"><title>Node8&#45;&gt;Node10</title>
<path fill="none" stroke="midnightblue" d="M144.425,-123.396C147.504,-115.389 151.438,-105.162 154.97,-95.9778"/>
<polygon fill="midnightblue" stroke="midnightblue" points="158.263,-97.1664 158.586,-86.5765 151.729,-94.6535 158.263,-97.1664"/>
</g>
<!-- Node10&#45;&gt;Node4 -->
<g id="edge13" class="edge"><title>Node10&#45;&gt;Node4</title>
<path fill="none" stroke="midnightblue" d="M239.58,-58.0296C244.456,-57.3159 249.294,-56.6325 254,-56 397.855,-36.6632 570.512,-20.1561 639.897,-13.796"/>
<polygon fill="midnightblue" stroke="midnightblue" points="640.486,-17.257 650.126,-12.8635 639.85,-10.2859 640.486,-17.257"/>
</g>
<!-- Node10&#45;&gt;Node9 -->
<g id="edge12" class="edge"><title>Node10&#45;&gt;Node9</title>
<path fill="none" stroke="midnightblue" d="M164,-56.3993C164,-48.4664 164,-38.458 164,-29.8583"/>
<polygon fill="midnightblue" stroke="midnightblue" points="167.5,-29.6577 164,-19.6578 160.5,-29.6578 167.5,-29.6577"/>
</g>
<!-- Node12 -->
<g id="node12" class="node"><title>Node12</title>
<polygon fill="none" stroke="#bfbfbf" points="718.5,-62 718.5,-81 777.5,-81 777.5,-62 718.5,-62"/>
<text text-anchor="middle" x="748" y="-69" font-family="Helvetica,sans-Serif" font-size="10.00">TObject.h</text>
</g>
<!-- Node11&#45;&gt;Node12 -->
<g id="edge15" class="edge"><title>Node11&#45;&gt;Node12</title>
<path fill="none" stroke="midnightblue" d="M715.125,-128.734C720.937,-118.793 730.556,-102.338 737.892,-89.7892"/>
<polygon fill="midnightblue" stroke="midnightblue" points="740.931,-91.5267 742.956,-81.1273 734.888,-87.9938 740.931,-91.5267"/>
</g>
<!-- Node17 -->
<g id="node17" class="node"><title>Node17</title>
<polygon fill="none" stroke="#bfbfbf" points="1598,-62 1598,-81 1728,-81 1728,-62 1598,-62"/>
<text text-anchor="middle" x="1663" y="-69" font-family="Helvetica,sans-Serif" font-size="10.00">InfoLogger/InfoLogger.hxx</text>
</g>
<!-- Node16&#45;&gt;Node17 -->
<g id="edge20" class="edge"><title>Node16&#45;&gt;Node17</title>
<path fill="none" stroke="midnightblue" d="M1663,-128.734C1663,-119.183 1663,-103.618 1663,-91.2829"/>
<polygon fill="midnightblue" stroke="midnightblue" points="1666.5,-91.1273 1663,-81.1273 1659.5,-91.1273 1666.5,-91.1273"/>
</g>
<!-- Node18&#45;&gt;Node4 -->
<g id="edge22" class="edge"><title>Node18&#45;&gt;Node4</title>
<path fill="none" stroke="midnightblue" d="M618.118,-195.654C620.253,-180.381 625.646,-148.275 636,-123 643.108,-105.648 651.412,-104.556 658,-87 665.039,-68.2419 668.291,-45.4394 669.778,-29.7336"/>
<polygon fill="midnightblue" stroke="midnightblue" points="673.271,-29.9576 670.578,-19.7108 666.293,-29.4007 673.271,-29.9576"/>
</g>
<!-- Node18&#45;&gt;Node9 -->
<g id="edge24" class="edge"><title>Node18&#45;&gt;Node9</title>
<path fill="none" stroke="midnightblue" d="M560.991,-195.966C522.141,-188.535 470.033,-175.494 428,-154 408.594,-144.077 408.324,-134.802 390,-123 354.463,-100.112 243.996,-48.049 191.823,-23.8314"/>
<polygon fill="midnightblue" stroke="midnightblue" points="193.043,-20.5391 182.498,-19.5113 190.1,-26.8906 193.043,-20.5391"/>
</g>
<!-- Node18&#45;&gt;Node13 -->
<g id="edge23" class="edge"><title>Node18&#45;&gt;Node13</title>
<path fill="none" stroke="midnightblue" d="M571.933,-195.957C526.78,-187 455.489,-171.769 395,-154 392.367,-153.226 389.655,-152.372 386.943,-151.476"/>
<polygon fill="midnightblue" stroke="midnightblue" points="387.858,-148.089 377.263,-148.124 385.567,-154.704 387.858,-148.089"/>
</g>
<!-- Node18&#45;&gt;Node14 -->
<g id="edge25" class="edge"><title>Node18&#45;&gt;Node14</title>
<path fill="none" stroke="midnightblue" d="M555.184,-195.989C494.84,-187.211 400.597,-172.253 320,-154 315.64,-153.013 311.099,-151.878 306.603,-150.688"/>
<polygon fill="midnightblue" stroke="midnightblue" points="307.488,-147.301 296.918,-148.028 305.634,-154.051 307.488,-147.301"/>
</g>
<!-- Node19 -->
<g id="node19" class="node"><title>Node19</title>
<g id="a_node19"><a xlink:href="QualityObject_8h_source.html" target="_top" xlink:title="QualityControl/QualityObject.h">
<polygon fill="none" stroke="black" points="793.5,-129 793.5,-148 942.5,-148 942.5,-129 793.5,-129"/>
<text text-anchor="middle" x="868" y="-136" font-family="Helvetica,sans-Serif" font-size="10.00">QualityControl/QualityObject.h</text>
</a>
</g>
</g>
<!-- Node18&#45;&gt;Node19 -->
<g id="edge26" class="edge"><title>Node18&#45;&gt;Node19</title>
<path fill="none" stroke="midnightblue" d="M650.072,-195.936C695.031,-184.293 775.501,-163.454 825.071,-150.617"/>
<polygon fill="midnightblue" stroke="midnightblue" points="826.052,-153.979 834.855,-148.083 824.297,-147.202 826.052,-153.979"/>
</g>
<!-- Node18&#45;&gt;Node25 -->
<g id="edge34" class="edge"><title>Node18&#45;&gt;Node25</title>
<path fill="none" stroke="midnightblue" d="M675.577,-195.986C742.307,-186.206 854.595,-169.509 951,-154 959.392,-152.65 968.243,-151.185 976.937,-149.724"/>
<polygon fill="midnightblue" stroke="midnightblue" points="977.757,-153.135 987.033,-148.016 976.589,-146.233 977.757,-153.135"/>
</g>
<!-- Node19&#45;&gt;Node12 -->
<g id="edge29" class="edge"><title>Node19&#45;&gt;Node12</title>
<path fill="none" stroke="midnightblue" d="M851.816,-128.734C831.574,-117.769 796.703,-98.8809 773.014,-86.0495"/>
<polygon fill="midnightblue" stroke="midnightblue" points="774.387,-82.8127 763.927,-81.1273 771.053,-88.9677 774.387,-82.8127"/>
</g>
<!-- Node20 -->
<g id="node20" class="node"><title>Node20</title>
<polygon fill="none" stroke="#bfbfbf" points="796,-62 796,-81 850,-81 850,-62 796,-62"/>
<text text-anchor="middle" x="823" y="-69" font-family="Helvetica,sans-Serif" font-size="10.00">iostream</text>
</g>
<!-- Node19&#45;&gt;Node20 -->
<g id="edge27" class="edge"><title>Node19&#45;&gt;Node20</title>
<path fill="none" stroke="midnightblue" d="M861.931,-128.734C854.981,-118.695 843.433,-102.014 834.715,-89.4213"/>
<polygon fill="midnightblue" stroke="midnightblue" points="837.543,-87.357 828.973,-81.1273 831.787,-91.3415 837.543,-87.357"/>
</g>
<!-- Node21 -->
<g id="node21" class="node"><title>Node21</title>
<polygon fill="none" stroke="#bfbfbf" points="868.5,-62 868.5,-81 903.5,-81 903.5,-62 868.5,-62"/>
<text text-anchor="middle" x="886" y="-69" font-family="Helvetica,sans-Serif" font-size="10.00">map</text>
</g>
<!-- Node19&#45;&gt;Node21 -->
<g id="edge28" class="edge"><title>Node19&#45;&gt;Node21</title>
<path fill="none" stroke="midnightblue" d="M870.428,-128.734C873.099,-119.085 877.471,-103.3 880.903,-90.9063"/>
<polygon fill="midnightblue" stroke="midnightblue" points="884.315,-91.6987 883.611,-81.1273 877.569,-89.8305 884.315,-91.6987"/>
</g>
<!-- Node22 -->
<g id="node22" class="node"><title>Node22</title>
<polygon fill="none" stroke="#bfbfbf" points="1099,-62 1099,-81 1215,-81 1215,-62 1099,-62"/>
<text text-anchor="middle" x="1157" y="-69" font-family="Helvetica,sans-Serif" font-size="10.00">Common/Exceptions.h</text>
</g>
<!-- Node19&#45;&gt;Node22 -->
<g id="edge30" class="edge"><title>Node19&#45;&gt;Node22</title>
<path fill="none" stroke="midnightblue" d="M906.079,-128.936C958.277,-117.196 1052.05,-96.1052 1108.99,-83.2971"/>
<polygon fill="midnightblue" stroke="midnightblue" points="1109.85,-86.6925 1118.84,-81.0834 1108.31,-79.8631 1109.85,-86.6925"/>
</g>
<!-- Node23 -->
<g id="node23" class="node"><title>Node23</title>
<g id="a_node23"><a xlink:href="Quality_8h.html" target="_top" xlink:title="QualityControl/Quality.h">
<polygon fill="none" stroke="black" points="921.5,-62 921.5,-81 1042.5,-81 1042.5,-62 921.5,-62"/>
<text text-anchor="middle" x="982" y="-69" font-family="Helvetica,sans-Serif" font-size="10.00">QualityControl/Quality.h</text>
</a>
</g>
</g>
<!-- Node19&#45;&gt;Node23 -->
<g id="edge31" class="edge"><title>Node19&#45;&gt;Node23</title>
<path fill="none" stroke="midnightblue" d="M883.375,-128.734C902.519,-117.818 935.438,-99.0487 957.936,-86.2209"/>
<polygon fill="midnightblue" stroke="midnightblue" points="959.916,-89.121 966.869,-81.1273 956.448,-83.04 959.916,-89.121"/>
</g>
<!-- Node23&#45;&gt;Node4 -->
<g id="edge33" class="edge"><title>Node23&#45;&gt;Node4</title>
<path fill="none" stroke="midnightblue" d="M941.311,-61.9306C931.707,-59.947 921.498,-57.8703 912,-56 836.45,-41.1233 747.326,-24.8001 701.542,-16.5041"/>
<polygon fill="midnightblue" stroke="midnightblue" points="702.122,-13.0523 691.658,-14.716 700.875,-19.9404 702.122,-13.0523"/>
</g>
<!-- Node24 -->
<g id="node24" class="node"><title>Node24</title>
<polygon fill="none" stroke="#bfbfbf" points="1121,-0.5 1121,-19.5 1177,-19.5 1177,-0.5 1121,-0.5"/>
<text text-anchor="middle" x="1149" y="-7.5" font-family="Helvetica,sans-Serif" font-size="10.00">Rtypes.h</text>
</g>
<!-- Node23&#45;&gt;Node24 -->
<g id="edge32" class="edge"><title>Node23&#45;&gt;Node24</title>
<path fill="none" stroke="midnightblue" d="M1005.93,-61.9751C1034.7,-51.7246 1083.16,-34.4593 1115.6,-22.8994"/>
<polygon fill="midnightblue" stroke="midnightblue" points="1116.87,-26.1624 1125.12,-19.5091 1114.52,-19.5684 1116.87,-26.1624"/>
</g>
<!-- Node25&#45;&gt;Node4 -->
<g id="edge35" class="edge"><title>Node25&#45;&gt;Node4</title>
<path fill="none" stroke="midnightblue" d="M1041.78,-128.637C1051.74,-112.168 1069.35,-76.649 1051,-56 1027.88,-29.9855 788.026,-16.4091 701.723,-12.3381"/>
<polygon fill="midnightblue" stroke="midnightblue" points="701.672,-8.83207 691.521,-11.8676 701.349,-15.8246 701.672,-8.83207"/>
</g>
<!-- Node25&#45;&gt;Node12 -->
<g id="edge38" class="edge"><title>Node25&#45;&gt;Node12</title>
<path fill="none" stroke="midnightblue" d="M989.444,-128.957C928.315,-117.584 824.379,-97.6686 787,-87 784.356,-86.2454 781.636,-85.3946 778.921,-84.493"/>
<polygon fill="midnightblue" stroke="midnightblue" points="779.852,-81.1098 769.257,-81.0857 777.524,-87.7116 779.852,-81.1098"/>
</g>
<!-- Node25&#45;&gt;Node21 -->
<g id="edge36" class="edge"><title>Node25&#45;&gt;Node21</title>
<path fill="none" stroke="midnightblue" d="M1012.32,-128.843C987.086,-119.391 946.154,-103.403 912,-87 911.185,-86.6084 910.359,-86.2026 909.529,-85.7864"/>
<polygon fill="midnightblue" stroke="midnightblue" points="911.16,-82.6893 900.685,-81.0987 907.881,-88.8743 911.16,-82.6893"/>
</g>
<!-- Node25&#45;&gt;Node22 -->
<g id="edge39" class="edge"><title>Node25&#45;&gt;Node22</title>
<path fill="none" stroke="midnightblue" d="M1052.32,-128.734C1072.82,-117.721 1108.2,-98.7129 1132.09,-85.8787"/>
<polygon fill="midnightblue" stroke="midnightblue" points="1133.79,-88.943 1140.94,-81.1273 1130.47,-82.7764 1133.79,-88.943"/>
</g>
<!-- Node25&#45;&gt;Node23 -->
<g id="edge40" class="edge"><title>Node25&#45;&gt;Node23</title>
<path fill="none" stroke="midnightblue" d="M1028.72,-128.734C1020.3,-118.598 1006.25,-101.69 995.754,-89.0556"/>
<polygon fill="midnightblue" stroke="midnightblue" points="998.25,-86.5826 989.167,-81.1273 992.865,-91.0558 998.25,-86.5826"/>
</g>
<!-- Node25&#45;&gt;Node24 -->
<g id="edge37" class="edge"><title>Node25&#45;&gt;Node24</title>
<path fill="none" stroke="midnightblue" d="M1078.3,-128.961C1130.94,-117.913 1215.03,-98.6996 1224,-87 1232.38,-76.0667 1230.79,-67.9894 1224,-56 1215.65,-41.2584 1200.34,-30.8192 1185.71,-23.7321"/>
<polygon fill="midnightblue" stroke="midnightblue" points="1186.84,-20.4041 1176.28,-19.5474 1184,-26.8025 1186.84,-20.4041"/>
</g>
<!-- Node26&#45;&gt;Node4 -->
<g id="edge44" class="edge"><title>Node26&#45;&gt;Node4</title>
<path fill="none" stroke="midnightblue" d="M1244.19,-195.868C1250.12,-170.232 1263.5,-93.9757 1224,-56 1186.2,-19.6601 812.614,-12.5833 701.817,-11.2798"/>
<polygon fill="midnightblue" stroke="midnightblue" points="701.683,-7.77821 691.645,-11.1679 701.606,-14.7778 701.683,-7.77821"/>
</g>
<!-- Node26&#45;&gt;Node16 -->
<g id="edge50" class="edge"><title>Node26&#45;&gt;Node16</title>
<path fill="none" stroke="midnightblue" d="M1278.2,-195.968C1287.85,-193.853 1298.29,-191.705 1308,-190 1428.1,-168.898 1459.47,-172.497 1580,-154 1588.42,-152.708 1597.3,-151.254 1606,-149.778"/>
<polygon fill="midnightblue" stroke="midnightblue" points="1606.83,-153.187 1616.09,-148.044 1605.64,-146.289 1606.83,-153.187"/>
</g>
<!-- Node26&#45;&gt;Node22 -->
<g id="edge45" class="edge"><title>Node26&#45;&gt;Node22</title>
<path fill="none" stroke="midnightblue" d="M1239.03,-195.947C1233.48,-180.578 1220.57,-147.6 1204,-123 1195.43,-110.274 1183.66,-97.6364 1174.05,-88.1869"/>
<polygon fill="midnightblue" stroke="midnightblue" points="1176.24,-85.4443 1166.59,-81.0671 1171.41,-90.5057 1176.24,-85.4443"/>
</g>
<!-- Node27 -->
<g id="node27" class="node"><title>Node27</title>
<polygon fill="none" stroke="#bfbfbf" points="1437,-129 1437,-148 1493,-148 1493,-129 1437,-129"/>
<text text-anchor="middle" x="1465" y="-136" font-family="Helvetica,sans-Serif" font-size="10.00">TClass.h</text>
</g>
<!-- Node26&#45;&gt;Node27 -->
<g id="edge46" class="edge"><title>Node26&#45;&gt;Node27</title>
<path fill="none" stroke="midnightblue" d="M1278,-195.956C1315.72,-186.719 1376.53,-171.016 1428,-154 1430.27,-153.251 1432.6,-152.439 1434.93,-151.596"/>
<polygon fill="midnightblue" stroke="midnightblue" points="1436.28,-154.829 1444.4,-148.029 1433.81,-148.278 1436.28,-154.829"/>
</g>
<!-- Node28 -->
<g id="node28" class="node"><title>Node28</title>
<polygon fill="none" stroke="#bfbfbf" points="1511.5,-129 1511.5,-148 1570.5,-148 1570.5,-129 1511.5,-129"/>
<text text-anchor="middle" x="1541" y="-136" font-family="Helvetica,sans-Serif" font-size="10.00">TROOT.h</text>
</g>
<!-- Node26&#45;&gt;Node28 -->
<g id="edge47" class="edge"><title>Node26&#45;&gt;Node28</title>
<path fill="none" stroke="midnightblue" d="M1280,-195.929C1289.15,-193.925 1298.92,-191.84 1308,-190 1393.95,-172.589 1417.48,-177.367 1502,-154 1504.81,-153.224 1507.7,-152.333 1510.57,-151.382"/>
<polygon fill="midnightblue" stroke="midnightblue" points="1511.9,-154.626 1520.17,-148 1509.57,-148.024 1511.9,-154.626"/>
</g>
<!-- Node29 -->
<g id="node29" class="node"><title>Node29</title>
<polygon fill="none" stroke="#bfbfbf" points="1129.5,-129 1129.5,-148 1194.5,-148 1194.5,-129 1129.5,-129"/>
<text text-anchor="middle" x="1162" y="-136" font-family="Helvetica,sans-Serif" font-size="10.00">TSystem.h</text>
</g>
<!-- Node26&#45;&gt;Node29 -->
<g id="edge48" class="edge"><title>Node26&#45;&gt;Node29</title>
<path fill="none" stroke="midnightblue" d="M1231.21,-195.734C1218.26,-185.208 1196.31,-167.379 1180.61,-154.617"/>
<polygon fill="midnightblue" stroke="midnightblue" points="1182.59,-151.717 1172.62,-148.127 1178.17,-157.15 1182.59,-151.717"/>
</g>
<!-- Node30 -->
<g id="node30" class="node"><title>Node30</title>
<polygon fill="none" stroke="#bfbfbf" points="1289.5,-129 1289.5,-148 1418.5,-148 1418.5,-129 1289.5,-129"/>
<text text-anchor="middle" x="1354" y="-136" font-family="Helvetica,sans-Serif" font-size="10.00">boost/filesystem/path.hpp</text>
</g>
<!-- Node26&#45;&gt;Node30 -->
<g id="edge49" class="edge"><title>Node26&#45;&gt;Node30</title>
<path fill="none" stroke="midnightblue" d="M1257.1,-195.734C1275.91,-184.818 1308.25,-166.049 1330.36,-153.221"/>
<polygon fill="midnightblue" stroke="midnightblue" points="1332.24,-156.174 1339.13,-148.127 1328.73,-150.12 1332.24,-156.174"/>
</g>
</g>
</svg>
