<?xml version="1.0" encoding="UTF-8" standalone="no"?>
<!DOCTYPE svg PUBLIC "-//W3C//DTD SVG 1.1//EN"
 "http://www.w3.org/Graphics/SVG/1.1/DTD/svg11.dtd">
<!-- Generated by graphviz version 2.38.0 (20140413.2041)
 -->
<!-- Title: Framework/include/QualityControl/Triggers.h Pages: 1 -->
<svg width="1662pt" height="240pt"
 viewBox="0.00 0.00 1662.00 240.00" xmlns="http://www.w3.org/2000/svg" xmlns:xlink="http://www.w3.org/1999/xlink">
<g id="graph0" class="graph" transform="scale(1 1) rotate(0) translate(4 236)">
<title>Framework/include/QualityControl/Triggers.h</title>
<!-- Node1 -->
<g id="node1" class="node"><title>Node1</title>
<polygon fill="#bfbfbf" stroke="black" points="1019.5,-201.5 1019.5,-231.5 1152.5,-231.5 1152.5,-201.5 1019.5,-201.5"/>
<text text-anchor="start" x="1027.5" y="-219.5" font-family="Helvetica,sans-Serif" font-size="10.00">Framework/include/Quality</text>
<text text-anchor="middle" x="1086" y="-208.5" font-family="Helvetica,sans-Serif" font-size="10.00">Control/Triggers.h</text>
</g>
<!-- Node2 -->
<g id="node2" class="node"><title>Node2</title>
<g id="a_node2"><a xlink:href="PostProcessingInterface_8h.html" target="_top" xlink:title="Framework/include/Quality\lControl/PostProcessingInterface.h">
<polygon fill="none" stroke="black" points="778.5,-134.5 778.5,-164.5 945.5,-164.5 945.5,-134.5 778.5,-134.5"/>
<text text-anchor="start" x="786.5" y="-152.5" font-family="Helvetica,sans-Serif" font-size="10.00">Framework/include/Quality</text>
<text text-anchor="middle" x="862" y="-141.5" font-family="Helvetica,sans-Serif" font-size="10.00">Control/PostProcessingInterface.h</text>
</a>
</g>
</g>
<!-- Node1&#45;&gt;Node2 -->
<g id="edge1" class="edge"><title>Node1&#45;&gt;Node2</title>
<path fill="none" stroke="midnightblue" d="M1027.69,-198.58C991.308,-188.022 945.025,-174.592 910.628,-164.611"/>
<polygon fill="midnightblue" stroke="midnightblue" points="1027.09,-202.05 1037.67,-201.476 1029.04,-195.328 1027.09,-202.05"/>
</g>
<!-- Node3 -->
<g id="node3" class="node"><title>Node3</title>
<g id="a_node3"><a xlink:href="PostProcessingRunner_8h.html" target="_top" xlink:title="Framework/include/Quality\lControl/PostProcessingRunner.h">
<polygon fill="none" stroke="black" points="375,-67.5 375,-97.5 535,-97.5 535,-67.5 375,-67.5"/>
<text text-anchor="start" x="383" y="-85.5" font-family="Helvetica,sans-Serif" font-size="10.00">Framework/include/Quality</text>
<text text-anchor="middle" x="455" y="-74.5" font-family="Helvetica,sans-Serif" font-size="10.00">Control/PostProcessingRunner.h</text>
</a>
</g>
</g>
<!-- Node1&#45;&gt;Node3 -->
<g id="edge14" class="edge"><title>Node1&#45;&gt;Node3</title>
<path fill="none" stroke="midnightblue" d="M1009.4,-205.399C944.966,-196.4 850.555,-182.039 769,-165 673.901,-145.131 564.393,-115.034 503.073,-97.5143"/>
<polygon fill="midnightblue" stroke="midnightblue" points="1009.1,-208.89 1019.48,-206.797 1010.06,-201.956 1009.1,-208.89"/>
</g>
<!-- Node9 -->
<g id="node9" class="node"><title>Node9</title>
<g id="a_node9"><a xlink:href="testTrendingTask_8cxx.html" target="_top" xlink:title="Framework/test/testTrending\lTask.cxx">
<polygon fill="none" stroke="black" points="1239,-0.5 1239,-30.5 1381,-30.5 1381,-0.5 1239,-0.5"/>
<text text-anchor="start" x="1247" y="-18.5" font-family="Helvetica,sans-Serif" font-size="10.00">Framework/test/testTrending</text>
<text text-anchor="middle" x="1310" y="-7.5" font-family="Helvetica,sans-Serif" font-size="10.00">Task.cxx</text>
</a>
</g>
</g>
<!-- Node1&#45;&gt;Node9 -->
<g id="edge20" class="edge"><title>Node1&#45;&gt;Node9</title>
<path fill="none" stroke="midnightblue" d="M1140.58,-197.896C1187.21,-180.047 1252.52,-147.875 1290,-98 1305.05,-77.9669 1308.91,-48.0629 1309.82,-30.5953"/>
<polygon fill="midnightblue" stroke="midnightblue" points="1139.08,-194.719 1130.93,-201.488 1141.52,-201.279 1139.08,-194.719"/>
</g>
<!-- Node14 -->
<g id="node14" class="node"><title>Node14</title>
<g id="a_node14"><a xlink:href="TriggerHelpers_8h.html" target="_top" xlink:title="Framework/include/Quality\lControl/TriggerHelpers.h">
<polygon fill="none" stroke="black" points="151.5,-134.5 151.5,-164.5 284.5,-164.5 284.5,-134.5 151.5,-134.5"/>
<text text-anchor="start" x="159.5" y="-152.5" font-family="Helvetica,sans-Serif" font-size="10.00">Framework/include/Quality</text>
<text text-anchor="middle" x="218" y="-141.5" font-family="Helvetica,sans-Serif" font-size="10.00">Control/TriggerHelpers.h</text>
</a>
</g>
</g>
<!-- Node1&#45;&gt;Node14 -->
<g id="edge15" class="edge"><title>Node1&#45;&gt;Node14</title>
<path fill="none" stroke="midnightblue" d="M1009.32,-209.758C841.287,-197.175 442.96,-167.346 284.598,-155.487"/>
<polygon fill="midnightblue" stroke="midnightblue" points="1009.1,-213.251 1019.33,-210.507 1009.62,-206.27 1009.1,-213.251"/>
</g>
<!-- Node17 -->
<g id="node17" class="node"><title>Node17</title>
<g id="a_node17"><a xlink:href="Triggers_8cxx.html" target="_top" xlink:title="Framework/src/Triggers.cxx">
<polygon fill="none" stroke="black" points="1338.5,-140 1338.5,-159 1477.5,-159 1477.5,-140 1338.5,-140"/>
<text text-anchor="middle" x="1408" y="-147" font-family="Helvetica,sans-Serif" font-size="10.00">Framework/src/Triggers.cxx</text>
</a>
</g>
</g>
<!-- Node1&#45;&gt;Node17 -->
<g id="edge19" class="edge"><title>Node1&#45;&gt;Node17</title>
<path fill="none" stroke="midnightblue" d="M1162.68,-200.02C1226.14,-187.211 1313.93,-169.489 1365.47,-159.086"/>
<polygon fill="midnightblue" stroke="midnightblue" points="1161.83,-196.622 1152.72,-202.032 1163.21,-203.484 1161.83,-196.622"/>
</g>
<!-- Node18 -->
<g id="node18" class="node"><title>Node18</title>
<g id="a_node18"><a xlink:href="testTriggers_8cxx.html" target="_top" xlink:title="Framework/test/testTriggers.cxx">
<polygon fill="none" stroke="black" points="1496,-140 1496,-159 1654,-159 1654,-140 1496,-140"/>
<text text-anchor="middle" x="1575" y="-147" font-family="Helvetica,sans-Serif" font-size="10.00">Framework/test/testTriggers.cxx</text>
</a>
</g>
</g>
<!-- Node1&#45;&gt;Node18 -->
<g id="edge21" class="edge"><title>Node1&#45;&gt;Node18</title>
<path fill="none" stroke="midnightblue" d="M1162.89,-206.697C1243.7,-197.24 1374.46,-181.352 1487,-165 1499.41,-163.197 1512.78,-161.083 1525.25,-159.036"/>
<polygon fill="midnightblue" stroke="midnightblue" points="1162.33,-203.239 1152.8,-207.875 1163.14,-210.192 1162.33,-203.239"/>
</g>
<!-- Node2&#45;&gt;Node3 -->
<g id="edge2" class="edge"><title>Node2&#45;&gt;Node3</title>
<path fill="none" stroke="midnightblue" d="M767.956,-133.481C697.507,-122.23 602.143,-106.999 535.264,-96.3186"/>
<polygon fill="midnightblue" stroke="midnightblue" points="767.736,-136.99 778.163,-135.111 768.84,-130.077 767.736,-136.99"/>
</g>
<!-- Node4 -->
<g id="node4" class="node"><title>Node4</title>
<polygon fill="none" stroke="#bfbfbf" points="304,-0.5 304,-30.5 458,-30.5 458,-0.5 304,-0.5"/>
<text text-anchor="start" x="312" y="-18.5" font-family="Helvetica,sans-Serif" font-size="10.00">Framework/src/PostProcessing</text>
<text text-anchor="middle" x="381" y="-7.5" font-family="Helvetica,sans-Serif" font-size="10.00">Runner.cxx</text>
</g>
<!-- Node2&#45;&gt;Node4 -->
<g id="edge10" class="edge"><title>Node2&#45;&gt;Node4</title>
<path fill="none" stroke="midnightblue" d="M768.171,-143.406C712.047,-137.526 640.504,-124.928 582,-98 562.201,-88.8869 563.207,-77.3032 544,-67 513.455,-50.6148 476.783,-38.6584 445.965,-30.5051"/>
<polygon fill="midnightblue" stroke="midnightblue" points="768.167,-146.923 778.464,-144.428 768.859,-139.957 768.167,-146.923"/>
</g>
<!-- Node7 -->
<g id="node7" class="node"><title>Node7</title>
<g id="a_node7"><a xlink:href="TrendingTask_8h.html" target="_top" xlink:title="Framework/include/Quality\lControl/TrendingTask.h">
<polygon fill="none" stroke="black" points="1148.5,-67.5 1148.5,-97.5 1281.5,-97.5 1281.5,-67.5 1148.5,-67.5"/>
<text text-anchor="start" x="1156.5" y="-85.5" font-family="Helvetica,sans-Serif" font-size="10.00">Framework/include/Quality</text>
<text text-anchor="middle" x="1215" y="-74.5" font-family="Helvetica,sans-Serif" font-size="10.00">Control/TrendingTask.h</text>
</a>
</g>
</g>
<!-- Node2&#45;&gt;Node7 -->
<g id="edge6" class="edge"><title>Node2&#45;&gt;Node7</title>
<path fill="none" stroke="midnightblue" d="M949.907,-132.663C1004.38,-122.803 1075.78,-109.794 1139,-98 1142.04,-97.4334 1145.14,-96.8516 1148.28,-96.2619"/>
<polygon fill="midnightblue" stroke="midnightblue" points="949.156,-129.242 939.939,-134.467 950.402,-136.131 949.156,-129.242"/>
</g>
<!-- Node10 -->
<g id="node10" class="node"><title>Node10</title>
<g id="a_node10"><a xlink:href="PostProcessingInterface_8cxx.html" target="_top" xlink:title="Framework/src/PostProcessing\lInterface.cxx">
<polygon fill="none" stroke="black" points="785,-67.5 785,-97.5 939,-97.5 939,-67.5 785,-67.5"/>
<text text-anchor="start" x="793" y="-85.5" font-family="Helvetica,sans-Serif" font-size="10.00">Framework/src/PostProcessing</text>
<text text-anchor="middle" x="862" y="-74.5" font-family="Helvetica,sans-Serif" font-size="10.00">Interface.cxx</text>
</a>
</g>
</g>
<!-- Node2&#45;&gt;Node10 -->
<g id="edge9" class="edge"><title>Node2&#45;&gt;Node10</title>
<path fill="none" stroke="midnightblue" d="M862,-124.108C862,-115.154 862,-105.323 862,-97.5765"/>
<polygon fill="midnightblue" stroke="midnightblue" points="858.5,-124.396 862,-134.396 865.5,-124.396 858.5,-124.396"/>
</g>
<!-- Node11 -->
<g id="node11" class="node"><title>Node11</title>
<g id="a_node11"><a xlink:href="testPostProcessingInterface_8cxx.html" target="_top" xlink:title="Framework/test/testPostProcessing\lInterface.cxx">
<polygon fill="none" stroke="black" points="957.5,-67.5 957.5,-97.5 1130.5,-97.5 1130.5,-67.5 957.5,-67.5"/>
<text text-anchor="start" x="965.5" y="-85.5" font-family="Helvetica,sans-Serif" font-size="10.00">Framework/test/testPostProcessing</text>
<text text-anchor="middle" x="1044" y="-74.5" font-family="Helvetica,sans-Serif" font-size="10.00">Interface.cxx</text>
</a>
</g>
</g>
<!-- Node2&#45;&gt;Node11 -->
<g id="edge11" class="edge"><title>Node2&#45;&gt;Node11</title>
<path fill="none" stroke="midnightblue" d="M911.125,-130.955C940.443,-120.485 977.176,-107.366 1004.59,-97.5765"/>
<polygon fill="midnightblue" stroke="midnightblue" points="909.732,-127.736 901.491,-134.396 912.086,-134.329 909.732,-127.736"/>
</g>
<!-- Node12 -->
<g id="node12" class="node"><title>Node12</title>
<g id="a_node12"><a xlink:href="SkeletonPostProcessing_8h_source.html" target="_top" xlink:title="Modules/Skeleton/include\l/Skeleton/SkeletonPostProcessing.h">
<polygon fill="none" stroke="black" points="591,-67.5 591,-97.5 767,-97.5 767,-67.5 591,-67.5"/>
<text text-anchor="start" x="599" y="-85.5" font-family="Helvetica,sans-Serif" font-size="10.00">Modules/Skeleton/include</text>
<text text-anchor="middle" x="679" y="-74.5" font-family="Helvetica,sans-Serif" font-size="10.00">/Skeleton/SkeletonPostProcessing.h</text>
</a>
</g>
</g>
<!-- Node2&#45;&gt;Node12 -->
<g id="edge12" class="edge"><title>Node2&#45;&gt;Node12</title>
<path fill="none" stroke="midnightblue" d="M812.605,-130.955C783.126,-120.485 746.191,-107.366 718.631,-97.5765"/>
<polygon fill="midnightblue" stroke="midnightblue" points="811.697,-134.347 822.292,-134.396 814.04,-127.751 811.697,-134.347"/>
</g>
<!-- Node3&#45;&gt;Node4 -->
<g id="edge3" class="edge"><title>Node3&#45;&gt;Node4</title>
<path fill="none" stroke="midnightblue" d="M431.204,-60.5978C420.03,-50.7831 407.007,-39.3442 397.026,-30.5765"/>
<polygon fill="midnightblue" stroke="midnightblue" points="429.12,-63.4261 438.943,-67.396 433.74,-58.1669 429.12,-63.4261"/>
</g>
<!-- Node5 -->
<g id="node5" class="node"><title>Node5</title>
<g id="a_node5"><a xlink:href="runPostProcessing_8cxx.html" target="_top" xlink:title="This is a standalone executable to run postprocessing. ">
<polygon fill="none" stroke="black" points="476,-6 476,-25 662,-25 662,-6 476,-6"/>
<text text-anchor="middle" x="569" y="-13" font-family="Helvetica,sans-Serif" font-size="10.00">Framework/src/runPostProcessing.cxx</text>
</a>
</g>
</g>
<!-- Node3&#45;&gt;Node5 -->
<g id="edge4" class="edge"><title>Node3&#45;&gt;Node5</title>
<path fill="none" stroke="midnightblue" d="M488.661,-62.3071C510.377,-49.9256 537.554,-34.4296 554.08,-25.007"/>
<polygon fill="midnightblue" stroke="midnightblue" points="486.69,-59.4022 479.736,-67.396 490.157,-65.4832 486.69,-59.4022"/>
</g>
<!-- Node6 -->
<g id="node6" class="node"><title>Node6</title>
<g id="a_node6"><a xlink:href="testPostProcessingRunner_8cxx.html" target="_top" xlink:title="Framework/test/testPostProcessing\lRunner.cxx">
<polygon fill="none" stroke="black" points="112.5,-0.5 112.5,-30.5 285.5,-30.5 285.5,-0.5 112.5,-0.5"/>
<text text-anchor="start" x="120.5" y="-18.5" font-family="Helvetica,sans-Serif" font-size="10.00">Framework/test/testPostProcessing</text>
<text text-anchor="middle" x="199" y="-7.5" font-family="Helvetica,sans-Serif" font-size="10.00">Runner.cxx</text>
</a>
</g>
</g>
<!-- Node3&#45;&gt;Node6 -->
<g id="edge5" class="edge"><title>Node3&#45;&gt;Node6</title>
<path fill="none" stroke="midnightblue" d="M389.954,-64.9844C348.139,-54.3674 294.39,-40.7201 254.575,-30.6109"/>
<polygon fill="midnightblue" stroke="midnightblue" points="389.213,-68.4073 399.767,-67.476 390.936,-61.6226 389.213,-68.4073"/>
</g>
<!-- Node8 -->
<g id="node8" class="node"><title>Node8</title>
<g id="a_node8"><a xlink:href="TrendingTask_8cxx.html" target="_top" xlink:title="Framework/src/TrendingTask.cxx">
<polygon fill="none" stroke="black" points="1057.5,-6 1057.5,-25 1220.5,-25 1220.5,-6 1057.5,-6"/>
<text text-anchor="middle" x="1139" y="-13" font-family="Helvetica,sans-Serif" font-size="10.00">Framework/src/TrendingTask.cxx</text>
</a>
</g>
</g>
<!-- Node7&#45;&gt;Node8 -->
<g id="edge7" class="edge"><title>Node7&#45;&gt;Node8</title>
<path fill="none" stroke="midnightblue" d="M1190.65,-60.6722C1176.61,-48.6707 1159.72,-34.2203 1149.17,-25.1945"/>
<polygon fill="midnightblue" stroke="midnightblue" points="1188.63,-63.5561 1198.51,-67.396 1193.18,-58.2364 1188.63,-63.5561"/>
</g>
<!-- Node7&#45;&gt;Node9 -->
<g id="edge8" class="edge"><title>Node7&#45;&gt;Node9</title>
<path fill="none" stroke="midnightblue" d="M1243.89,-61.7337C1258.59,-51.6755 1276.11,-39.6847 1289.43,-30.5765"/>
<polygon fill="midnightblue" stroke="midnightblue" points="1241.89,-58.8605 1235.61,-67.396 1245.84,-64.6377 1241.89,-58.8605"/>
</g>
<!-- Node13 -->
<g id="node13" class="node"><title>Node13</title>
<g id="a_node13"><a xlink:href="SkeletonPostProcessing_8cxx.html" target="_top" xlink:title="Modules/Skeleton/src\l/SkeletonPostProcessing.cxx">
<polygon fill="none" stroke="black" points="680,-0.5 680,-30.5 826,-30.5 826,-0.5 680,-0.5"/>
<text text-anchor="start" x="688" y="-18.5" font-family="Helvetica,sans-Serif" font-size="10.00">Modules/Skeleton/src</text>
<text text-anchor="middle" x="753" y="-7.5" font-family="Helvetica,sans-Serif" font-size="10.00">/SkeletonPostProcessing.cxx</text>
</a>
</g>
</g>
<!-- Node12&#45;&gt;Node13 -->
<g id="edge13" class="edge"><title>Node12&#45;&gt;Node13</title>
<path fill="none" stroke="midnightblue" d="M702.796,-60.5978C713.97,-50.7831 726.993,-39.3442 736.974,-30.5765"/>
<polygon fill="midnightblue" stroke="midnightblue" points="700.26,-58.1669 695.057,-67.396 704.88,-63.4261 700.26,-58.1669"/>
</g>
<!-- Node14&#45;&gt;Node4 -->
<g id="edge16" class="edge"><title>Node14&#45;&gt;Node4</title>
<path fill="none" stroke="midnightblue" d="M195.919,-127.053C180.771,-109.708 165.764,-85.2557 180,-67 188.118,-56.5907 252.978,-41.5209 306.86,-30.5543"/>
<polygon fill="midnightblue" stroke="midnightblue" points="193.424,-129.51 202.784,-134.474 198.563,-124.757 193.424,-129.51"/>
</g>
<!-- Node15 -->
<g id="node15" class="node"><title>Node15</title>
<g id="a_node15"><a xlink:href="TriggerHelpers_8cxx.html" target="_top" xlink:title="Framework/src/TriggerHelpers.cxx">
<polygon fill="none" stroke="black" points="189.5,-73 189.5,-92 356.5,-92 356.5,-73 189.5,-73"/>
<text text-anchor="middle" x="273" y="-80" font-family="Helvetica,sans-Serif" font-size="10.00">Framework/src/TriggerHelpers.cxx</text>
</a>
</g>
</g>
<!-- Node14&#45;&gt;Node15 -->
<g id="edge17" class="edge"><title>Node14&#45;&gt;Node15</title>
<path fill="none" stroke="midnightblue" d="M236.482,-126.657C246.461,-114.865 258.22,-100.967 265.643,-92.1945"/>
<polygon fill="midnightblue" stroke="midnightblue" points="233.722,-124.501 229.934,-134.396 239.065,-129.023 233.722,-124.501"/>
</g>
<!-- Node16 -->
<g id="node16" class="node"><title>Node16</title>
<g id="a_node16"><a xlink:href="testTriggerHelpers_8cxx.html" target="_top" xlink:title="Framework/test/testTrigger\lHelpers.cxx">
<polygon fill="none" stroke="black" points="0,-67.5 0,-97.5 134,-97.5 134,-67.5 0,-67.5"/>
<text text-anchor="start" x="8" y="-85.5" font-family="Helvetica,sans-Serif" font-size="10.00">Framework/test/testTrigger</text>
<text text-anchor="middle" x="67" y="-74.5" font-family="Helvetica,sans-Serif" font-size="10.00">Helpers.cxx</text>
</a>
</g>
</g>
<!-- Node14&#45;&gt;Node16 -->
<g id="edge18" class="edge"><title>Node14&#45;&gt;Node16</title>
<path fill="none" stroke="midnightblue" d="M175.968,-130.407C151.861,-120.029 122.046,-107.195 99.7008,-97.5765"/>
<polygon fill="midnightblue" stroke="midnightblue" points="174.666,-133.657 185.235,-134.396 177.434,-127.227 174.666,-133.657"/>
</g>
</g>
</svg>
